<svg xmlns="http://www.w3.org/2000/svg" width="50" height="71" viewBox="0 0 50 71">
    <defs>
        <linearGradient id="a" x1="0%" y1="0%" y2="100%">
            <stop offset="0%" stop-color="#A0459C"/>
            <stop offset="100%" stop-color="#241AA8"/>
        </linearGradient>
    </defs>
    <g fill="none" fill-rule="nonzero">
        <path fill="#FFF" d="M10 1.653L40 18.61c5.523 3.122 10 10.13 10 15.653v30c0 5.523-4.477 7.469-10 4.347L10 51.653C4.477 48.53 0 41.523 0 36V6C0 .477 4.477-1.47 10 1.653z"/>
        <path fill="#FB794A" d="M27.532 44.34l-5.064-2.862-.926 2.254 6.916 3.91-.926-3.301zm-5.865-4.426l6.666 3.768L30 49.624l-10-5.652 1.667-4.058z"/>
        <path fill="#FB794A" d="M19.444 43.102l11.112 6.28-11.112-6.28zm0-.555l11.112 6.28c.306.174.555.563.555.87 0 .307-.249.415-.555.241l-11.112-6.28c-.306-.174-.555-.563-.555-.87 0-.307.249-.415.555-.241z"/>
        <path fill="url(#a)" d="M13.333 16.87l23.334 13.19c1.227.693 2.222 2.25 2.222 3.478v15c0 1.227-.995 1.66-2.222.966l-23.334-13.19c-1.227-.693-2.222-2.25-2.222-3.478v-15c0-1.227.995-1.66 2.222-.966zm0 1.111c-.613-.347-1.11-.13-1.11.483v15c0 .614.497 1.393 1.11 1.74l23.334 13.189c.613.347 1.11.13 1.11-.483v-15c0-.614-.497-1.393-1.11-1.74L13.333 17.981zm-1.11 12.15l25.555 14.445v1.111L12.222 31.242v-1.111z"/>
        <path fill="#572CA4" d="M25 40.687c.307.173.556.065.556-.242 0-.306-.25-.696-.556-.87-.307-.173-.556-.065-.556.242s.25.696.556.87z"/>
    </g>
</svg>
