<svg xmlns="http://www.w3.org/2000/svg" width="50" height="71" viewBox="0 0 50 71">
    <defs>
        <linearGradient id="a" x1="0%" y1="0%" y2="100%">
            <stop offset="0%" stop-color="#A0459C"/>
            <stop offset="100%" stop-color="#241AA8"/>
        </linearGradient>
    </defs>
    <g fill="none" fill-rule="nonzero">
        <path fill="#FFF" d="M11.111 2.435L38.89 18.52C45.025 22.075 50 29.93 50 36.067v27.777c0 6.137-4.975 8.23-11.111 4.677L11.11 52.435C4.975 48.88 0 41.025 0 34.889V7.11c0-6.136 4.975-8.23 11.111-4.676z"/>
        <path fill="#FB794A" d="M27.532 44.722l-5.064-2.933-.926 2.241 6.916 4.006-.926-3.314zm-5.865-4.508l6.666 3.86L30 50.04l-10-5.791 1.667-4.035z"/>
        <path fill="#FB794A" d="M19.444 43.372l11.112 6.434-11.112-6.434zm0-.556l11.112 6.435c.306.177.555.57.555.877 0 .307-.249.411-.555.234l-11.112-6.435c-.306-.178-.555-.57-.555-.877 0-.307.249-.412.555-.234z"/>
        <path fill="#FFF" stroke="url(#a)" stroke-width="2" d="M13.834 17.3l23.334 13.513c.91.527 1.61 1.633 1.61 2.62v15c0 1.46-1.386 2.043-2.612 1.333L12.832 36.253c-.91-.526-1.61-1.632-1.61-2.62v-15c0-1.46 1.386-2.043 2.612-1.332zm-1.002.62c-.614-.356-.72-.31-.72.07v15c0 .854.791 2.105 1.722 2.644l23.334 13.512c.614.356.72.311.72-.07v-15c0-.853-.791-2.104-1.722-2.643L12.832 17.92zM37.24 45.944l.037.021-.018-.031 1.02-.589-25.057-14.51V30.3l-.462.267-.037-.021.018.031-1.02.589 25.057 14.51v.535l.462-.267z"/>
        <path fill="#572CA4" d="M25 41.033c.307.178.556.073.556-.234 0-.306-.25-.7-.556-.877-.307-.177-.556-.073-.556.234s.25.7.556.877z"/>
    </g>
</svg>
