<svg xmlns="http://www.w3.org/2000/svg" width="50" height="71" viewBox="0 0 50 71">
    <defs>
        <linearGradient id="a" x1="0%" y1="0%" y2="100%">
            <stop offset="0%" stop-color="#A0459C"/>
            <stop offset="100%" stop-color="#241AA8"/>
        </linearGradient>
    </defs>
    <g fill="none" fill-rule="nonzero">
        <path fill="#FFF" d="M11.111 2.404L38.89 18.416C45.025 21.953 50 29.795 50 35.93V63.71c0 6.136-4.975 8.244-11.111 4.707L11.11 52.404C4.975 48.867 0 41.025 0 34.89V7.11C0 .975 4.975-1.133 11.111 2.404z"/>
        <path fill="url(#a)" d="M16.667 18.94c-.92-.53-1.667-.214-1.667.706v20c0 .92.746 2.097 1.667 2.627l11.11 6.405c3.99 2.299 7.223.93 7.223-3.06V31.174c0-.92-.746-2.097-1.667-2.627L16.667 18.94zm0-1.111l16.666 9.607c1.534.884 2.778 2.844 2.778 4.378V46.26c0 4.602-3.73 6.183-8.333 3.53l-11.111-6.405c-1.534-.884-2.778-2.844-2.778-4.378v-20c0-1.535 1.244-2.061 2.778-1.177z"/>
        <path fill="#7436A0" d="M18.889 23.554c-.307-.177-.556-.071-.556.236v4.444c0 .307.25.699.556.876l12.222 7.045c.307.177.556.071.556-.236v-4.444c0-.307-.25-.699-.556-.876L18.89 23.554zm0-1.11l12.222 7.044c.92.53 1.667 1.707 1.667 2.627v4.445c0 .92-.746 1.236-1.667.706L18.89 30.22c-.92-.53-1.667-1.707-1.667-2.627v-4.445c0-.92.746-1.236 1.667-.706z"/>
        <path fill="#FB794A" d="M30.278 41.785c.46.266.833.108.833-.353 0-.46-.373-1.048-.833-1.313-.46-.266-.834-.107-.834.353 0 .46.374 1.048.834 1.313zm0 1.112c-1.074-.62-1.945-1.992-1.945-3.066 0-1.074.87-1.442 1.945-.823 1.074.619 1.944 1.991 1.944 3.065 0 1.074-.87 1.443-1.944.824zM26.944 44.309c.46.265.834.107.834-.353 0-.46-.373-1.049-.834-1.314-.46-.265-.833-.107-.833.353 0 .46.373 1.048.833 1.314zm0 1.11C25.871 44.802 25 43.43 25 42.355c0-1.073.87-1.442 1.944-.823 1.074.619 1.945 1.991 1.945 3.065 0 1.074-.87 1.443-1.945.824zM21.111 37.057l1.667.961c.307.177.555.569.555.876 0 .307-.248.412-.555.235l-1.667-.96v1.666c0 .307-.249.412-.555.235-.307-.176-.556-.569-.556-.875v-1.667l-1.667-.96c-.306-.178-.555-.57-.555-.876 0-.307.249-.413.555-.236l1.667.96V34.75c0-.307.249-.412.556-.235.306.177.555.569.555.876v1.666z"/>
    </g>
</svg>
