<svg xmlns="http://www.w3.org/2000/svg" width="50" height="71" viewBox="0 0 50 71">
    <defs>
        <linearGradient id="a" x1="0%" y1="0%" y2="100%">
            <stop offset="0%" stop-color="#A0459C"/>
            <stop offset="100%" stop-color="#241AA8"/>
        </linearGradient>
    </defs>
    <g fill="none" fill-rule="nonzero">
        <path fill="#FFF" d="M11.111 2.432l27.778 16.08C45.025 22.064 50 29.92 50 36.055v27.778c0 6.136-4.975 8.231-11.111 4.68L11.11 52.431C4.975 48.88 0 41.025 0 34.889V7.11C0 .975 4.975-1.12 11.111 2.432z"/>
        <path fill="#FFF" stroke="url(#a)" stroke-width="2" d="M19.945 19.168L31.057 25.6c1.22.707 2.165 2.244 2.165 3.577v20.952c0 1.785-1.618 2.544-3.167 1.647l-11.112-6.432c-1.22-.707-2.165-2.244-2.165-3.577V20.815c0-1.785 1.618-2.543 3.167-1.647zm-1.002.62c-.906-.525-1.276-.353-1.276.425v20.87c0 1.232 1.044 2.926 2.278 3.64l11.112 6.433c.906.525 1.276.353 1.276-.425V29.86c0-1.232-1.044-2.926-2.278-3.64l-11.112-6.433zm-.646 2.892l-1.02.588 13.945 8.073v.534l.463-.267.036.021-.018-.031 1.02-.588-13.945-8.073v-.535l-.463.267-.036-.021.018.032zm13.388 25.595l.036.021-.018-.031 1.02-.589-13.945-8.072v-.535l-.463.267-.036-.021.018.031-1.02.588 13.945 8.073v.535l.463-.267z"/>
        <path fill="#FB794A" d="M25 46.583c.307.178.556.073.556-.234s-.25-.7-.556-.877c-.307-.178-.556-.073-.556.234s.25.7.556.877zM22.778 23.075l4.444 2.572c.307.178.556.57.556.877 0 .307-.249.412-.556.234l-4.444-2.572c-.307-.178-.556-.57-.556-.878 0-.306.249-.411.556-.233z"/>
    </g>
</svg>
