<svg xmlns="http://www.w3.org/2000/svg" width="50" height="71" viewBox="0 0 50 71">
    <defs>
        <linearGradient id="a" x1="0%" y1="0%" y2="100%">
            <stop offset="0%" stop-color="#A0459C"/>
            <stop offset="100%" stop-color="#241AA8"/>
        </linearGradient>
    </defs>
    <g fill="none" fill-rule="nonzero">
        <path fill="#FFF" d="M10 1.853L40 19.41c5.523 3.232 10 10.33 10 15.852v30c0 5.523-4.477 7.38-10 4.148L10 51.853C4.477 48.62 0 41.523 0 36V6C0 .477 4.477-1.38 10 1.853z"/>
        <path fill="url(#a)" d="M19.444 20.158c-.91-.532-1.666-.186-1.666.812v20.87c0 .997.757 2.23 1.666 2.762l11.112 6.503c.91.533 1.666.186 1.666-.812v-20.87c0-.997-.757-2.23-1.666-2.762l-11.112-6.503zm0-1.111l11.112 6.503c1.534.898 2.777 2.923 2.777 4.524v20.87c0 1.6-1.243 2.17-2.777 1.272l-11.112-6.503c-1.534-.897-2.777-2.923-2.777-4.524V20.32c0-1.6 1.243-2.17 2.777-1.272zm-1.666 3.469v1.11l14.444 8.455V30.97l-14.444-8.454zm0 16.666v1.112l14.444 8.453v-1.11l-14.444-8.455z"/>
        <path fill="#FB794A" d="M25 46.743c.307.18.556.076.556-.23 0-.308-.25-.702-.556-.881-.307-.18-.556-.077-.556.23s.25.701.556.88zM22.778 23.22l4.444 2.601c.307.18.556.574.556.88 0 .308-.249.41-.556.231l-4.444-2.601c-.307-.18-.556-.574-.556-.88 0-.308.249-.41.556-.231z"/>
    </g>
</svg>
