<svg xmlns="http://www.w3.org/2000/svg" width="50" height="70" viewBox="0 0 50 70">
    <defs>
        <linearGradient id="a" x1="0%" y1="0%" y2="100%">
            <stop offset="0%" stop-color="#A0459C"/>
            <stop offset="100%" stop-color="#241AA8"/>
        </linearGradient>
    </defs>
    <g fill="none" fill-rule="nonzero">
        <path fill="#FFF" d="M11.111 2.378L38.89 18.323C45.025 21.845 50 29.675 50 35.812V63.59c0 6.136-4.975 8.255-11.111 4.733L11.11 52.378C4.975 48.856 0 41.025 0 34.888V7.112C0 .975 4.975-1.144 11.111 2.378z"/>
        <path fill="url(#a)" d="M34.444 35.772l-3.333-1.914c-1.418-.814-2.778-2.954-2.778-4.372v-3.333l-10-5.74c-.92-.529-1.666-.211-1.666.71v20c0 .92.746 2.094 1.666 2.623l14.445 8.291c.92.529 1.666.21 1.666-.71V35.772zm-5-8.521v2.873c0 .804.863 2.161 1.667 2.623l2.873 1.65-4.54-7.146zm6.112 15.825l-1.112-.638v6.667l1.112.638v2.222c0 1.534-1.244 2.064-2.778 1.183l-14.445-8.291c-1.534-.88-2.777-2.838-2.777-4.372v-20c0-1.534 1.243-2.064 2.777-1.184l11.111 6.378 6.112 9.62v7.777z"/>
        <path fill="#FB794A" d="M26.111 38.766c-.307-.176-.555-.07-.555.237v3.333c0 .307.248.698.555.874l10 5.74c.307.177.556.07.556-.236V45.38c0-.307-.25-.699-.556-.875l-10-5.74zm0-1.111l10 5.74c.92.528 1.667 1.703 1.667 2.623v3.334c0 .92-.746 1.238-1.667.71l-10-5.74c-.92-.529-1.667-1.703-1.667-2.624v-3.333c0-.92.747-1.239 1.667-.71z"/>
    </g>
</svg>
