<svg xmlns="http://www.w3.org/2000/svg" width="50" height="71" viewBox="0 0 50 71">
    <defs>
        <linearGradient id="a" x1="0%" y1="0%" y2="100%">
            <stop offset="0%" stop-color="#A0459C"/>
            <stop offset="100%" stop-color="#241AA8"/>
        </linearGradient>
    </defs>
    <g fill="none" fill-rule="nonzero">
        <path fill="#FFF" d="M11.111 2.405L38.89 18.416C45.025 21.954 50 29.796 50 35.932V63.71c0 6.137-4.975 8.244-11.111 4.706L11.11 52.405C4.975 48.867 0 41.025 0 34.889V7.11C0 .975 4.975-1.133 11.111 2.405z"/>
        <path fill="#FB794A" d="M27.398 40.33c.518 1.223.942 2.25 1.317 3.198.597-.044 1.263-.08 2.119-.117.196-.01.869-.038.91-.04.362-.016.64-.028.91-.042.686-.034 1.263-.07 1.815-.116.227-.018.448-.039.667-.06 2.872-.28 4.153-.7 4.57-1.688.34-.753.303-1.954-.095-3.273-.279-.75-.878-1.696-1.573-2.455a6.952 6.952 0 0 0-.736-.697c-1.026-.858-1.814-1.229-3.19-1.622l-.315-.09a25.918 25.918 0 0 1-.322-.093 10.267 10.267 0 0 1-.672-.223l-.504-.189-.404-.55a37.002 37.002 0 0 1-.925-1.335l-.295-.441c-1.127-1.686-1.734-2.458-2.561-3.152-1.128-.945-2.163-1.362-2.941-1.24-.804.146-1.49.805-1.739 1.78-.144.47-.142 1.09.015 1.919l-1.041-.184c-.214-1.046-.26-1.949-.049-2.636.312-1.227 1.19-1.979 2.143-2.151 1.04-.163 2.411.358 3.892 1.598 1.807 1.518 2.892 3.595 4.19 5.365 1.357.508 2.888.563 4.998 2.331.329.268.657.579.966.916.926 1.013 1.713 2.265 2.09 3.314.484 1.576.563 3.092.113 4.086-.604 1.435-2.661 1.762-4.995 1.989-2.528.257-5.07.217-7.478.47a99.696 99.696 0 0 0-1.482-3.715l.602-.856z"/>
        <path fill="url(#a)" d="M23.528 44.72c.157-.206.318-.414.537-.696.134-.174.134-.174.27-.347l.268-.347a41.13 41.13 0 0 0 1.683-2.296c1.52-2.235 2.05-3.574 1.797-4.992-.18-1.096-.801-2.457-1.691-3.715a7.207 7.207 0 0 0-2.136-1.786 3.888 3.888 0 0 0-.774-.313c-.907-.274-1.566-.215-2.346.114-.14.059-.753.347-.924.417a3.96 3.96 0 0 1-.343.124l-.386.118-.509-.367c-.422-.305-.722-.54-1.485-1.15-1.603-1.284-2.319-1.761-3.164-2.018-1.124-.34-1.93-.13-2.319.528-.392.704-.458 1.922-.114 3.212.37 1.561 1.695 3.568 4.47 6.969.943 1.15 4.748 5.586 4.859 5.716.557.66 1.066 1.27 1.544 1.854.23-.32.48-.655.763-1.026zm.676-15.319c1.041.552 2.122 1.473 2.864 2.433 1.068 1.496 1.871 3.193 2.109 4.641.368 2.058-.657 3.807-1.892 5.622-1.333 1.981-2.82 3.628-4.087 5.524-2.478-3.141-5.24-6.176-7.437-8.859-2.326-2.849-4.4-5.597-4.94-7.88-.435-1.624-.303-3.076.161-3.91.52-.88 1.573-1.193 3.049-.747 1.803.548 3.468 2.222 5.102 3.401 1.04-.318 1.951-1.274 4.054-.64.324.091.67.231 1.017.415z"/>
    </g>
</svg>
