<svg xmlns="http://www.w3.org/2000/svg" width="50" height="69" viewBox="0 0 50 69">
    <defs>
        <linearGradient id="a" x1="0%" y1="0%" y2="100%">
            <stop offset="0%" stop-color="#A0459C"/>
            <stop offset="100%" stop-color="#241AA8"/>
        </linearGradient>
    </defs>
    <g fill="none" fill-rule="nonzero">
        <path fill="#FFF" d="M12.5 2.263l25 14.527C44.404 20.802 50 29.65 50 36.554v25c0 6.903-5.596 9.248-12.5 5.236l-25-14.527C5.596 48.252 0 39.403 0 32.5v-25C0 .596 5.596-1.748 12.5 2.263z"/>
        <path fill="url(#a)" d="M35.639 30.204a61.018 61.018 0 0 0-5.573-2.483c-5.22-2-9.464-2.646-12.064-1.428-3.814 1.787-4.003 7.497-.513 12.97 1.794 2.813 4.145 5.183 6.439 6.516.323.188.644.354.96.497 2.123.966 4.01.946 5.408-.593.747-.842 1.15-2.439 1.61-5.723.025-.175.045-.315.088-.632.388-2.81.582-3.83.997-4.637 1.037-2.018 2.11-3.314 3.168-4.027.057-.038.113-.074.169-.108a70.7 70.7 0 0 0-.69-.352zm-5.519 17.71c-1.676.854-3.611.36-5.076-.306a12.61 12.61 0 0 1-1.116-.58c-2.616-1.52-5.284-4.198-7.317-7.387-3.995-6.264-3.781-12.737.486-14.736 6.413-3.004 20.495 5.065 21.09 5.41.265.153.493.466.55.753.057.288-.073.472-.312.442-.01 0-2-.102-4.272 4.316-.43.835-.667 2.557-.919 4.381-.375 2.718-.763 5.53-1.863 6.74l-1.25.968z"/>
        <path fill="#FB794A" d="M26.475 33.654l.8 1.425c-6.114 1.542-9.15 5.648-9.15 12.328l-1.25-.726c0-7.07 3.214-11.416 9.6-13.027z"/>
        <path fill="#FB794A" d="M22.59 30.304l1.07 1.266c-1.147 1.246-1.33 2.792-.601 4.674l-1.118-.09c-.937-2.42-.704-4.381.648-5.85zM23.403 36.619l.694-.637c1.013 1.264 2.434 1.912 4.331 1.876l.644 1.446c-2.27.043-4.182-.83-5.669-2.685zM20.406 38.692l.438-.915c1.49 1.425 3.189 2.223 5.126 2.38l.56 1.443c-2.23-.181-4.281-1.145-6.124-2.908z"/>
        <path fill="#FB794A" d="M18.772 32.618l1.206 1.03c-.579 1.786-.392 3.578.53 5.406l-1.017.135c-1.16-2.3-1.39-4.5-.719-6.57z"/>
    </g>
</svg>
