<svg xmlns="http://www.w3.org/2000/svg" width="50" height="70" viewBox="0 0 50 70">
    <defs>
        <linearGradient id="a" x1="0%" y1="0%" y2="100%">
            <stop offset="0%" stop-color="#A0459C"/>
            <stop offset="100%" stop-color="#241AA8"/>
        </linearGradient>
    </defs>
    <g fill="none" fill-rule="nonzero">
        <path fill="#FFF" d="M10 1.511l30 16.535c5.523 3.044 10 9.988 10 15.511v30c0 5.523-4.477 7.533-10 4.489L10 51.51C4.477 48.468 0 41.523 0 36V6C0 .477 4.477-1.532 10 1.511z"/>
        <path fill="#FB794A" d="M22.06 43.158c3.375 1.86 6.11.632 6.11-2.743s-2.735-7.62-6.11-9.48c-3.376-1.86-6.112-.631-6.112 2.744s2.736 7.619 6.112 9.479zm-6.667-3.904l1.182-.531c-1.083-1.86-1.738-3.862-1.738-5.657 0-3.988 3.234-5.44 7.223-3.241 3.988 2.198 7.222 7.214 7.222 11.202 0 3.989-3.234 5.44-7.222 3.242-1.795-.989-3.436-2.548-4.7-4.327l-1.181.53 1.829 2.838-.786.353-1.83-2.838-1.829.821-.785-1.219 1.83-.82-1.83-2.838.785-.353 1.83 2.838z"/>
        <path fill="url(#a)" d="M27.222 38.226c3.375 1.86 6.111.632 6.111-2.743 0-3.376-2.736-7.62-6.11-9.48-3.376-1.86-6.112-.632-6.112 2.743s2.736 7.62 6.111 9.48zm5.485-7.788c1.083 1.86 1.737 3.863 1.737 5.657 0 3.989-3.233 5.44-7.222 3.242C23.233 37.138 20 32.123 20 28.134c0-3.989 3.233-5.44 7.222-3.242 1.795.99 3.436 2.548 4.7 4.328l2.848-1.28-1.992-1.097v-1.111l3.889 2.143V31.764l-1.111-.612V29.16l-2.85 1.278z"/>
    </g>
</svg>
