<svg xmlns="http://www.w3.org/2000/svg" width="50" height="70" viewBox="0 0 50 70">
    <defs>
        <linearGradient id="a" x1="0%" y1="0%" y2="100%">
            <stop offset="0%" stop-color="#A0459C"/>
            <stop offset="100%" stop-color="#241AA8"/>
        </linearGradient>
    </defs>
    <g fill="none" fill-rule="nonzero">
        <path fill="#FFF" d="M11.111 2.381L38.89 18.334C45.025 21.858 50 29.69 50 35.827v27.777c0 6.137-4.975 8.254-11.111 4.73L11.11 52.381C4.975 48.857 0 41.025 0 34.89V7.11c0-6.136 4.975-8.254 11.111-4.73z"/>
        <path fill="#FB794A" d="M22.222 43.762c3.375 1.939 6.111.774 6.111-2.601s-2.736-7.682-6.11-9.62c-3.376-1.94-6.112-.774-6.112 2.6 0 3.376 2.736 7.683 6.111 9.621zm-6.666-4.058l1.182-.504C15.654 37.315 15 35.298 15 33.504c0-3.99 3.233-5.366 7.222-3.075 3.989 2.29 7.222 7.381 7.222 11.37 0 3.989-3.233 5.365-7.222 3.075-1.794-1.031-3.436-2.628-4.699-4.437l-1.182.503 1.83 2.88-.786.335-1.83-2.88-1.829.779-.786-1.237 1.83-.779-1.83-2.88.786-.334 1.83 2.88z"/>
        <path fill="#FFF" stroke="url(#a)" stroke-width="2" d="M27.28 40.042c-3.673-2.11-6.613-6.738-6.613-10.488 0-4.218 3.62-5.759 7.609-3.468 3.673 2.11 6.613 6.738 6.613 10.488 0 4.218-3.62 5.76-7.61 3.468zm4.775-8.622l.067.096 4.1-1.745v3.162l1.498-.868-.609-.35v-2.323l.454-.193-.454-.261v-.148l-.148.063-2.63-1.51v-.533l-.461.267-.04-.023.02.035-1.017.588 2.933 1.685-3.934 1.674.22.384zm.362-2.872c.135.164.268.33.398.5l.27-.116-.668-.384z"/>
    </g>
</svg>
