<svg xmlns="http://www.w3.org/2000/svg" width="50" height="71" viewBox="0 0 50 71">
    <defs>
        <linearGradient id="a" x1="0%" y1="0%" y2="100%">
            <stop offset="0%" stop-color="#A0459C"/>
            <stop offset="100%" stop-color="#241AA8"/>
        </linearGradient>
    </defs>
    <g fill="none" fill-rule="nonzero">
        <path fill="#FFF" d="M11.111 2.422L38.89 18.476C45.025 22.022 50 29.872 50 36.008v27.778c0 6.137-4.975 8.236-11.111 4.69L11.11 52.422C4.975 48.875 0 41.025 0 34.889V7.11c0-6.136 4.975-8.236 11.111-4.69z"/>
        <path fill="#FB794A" d="M17.222 30.398c0-3.682 2.985-4.942 6.667-2.814 3.046 1.761 5.616 5.29 6.412 8.54l-1.069-.312c-.663-2.709-2.804-5.65-5.343-7.117-3.068-1.773-5.556-.723-5.556 2.345 0 2.539 1.703 5.664 4.03 7.672l-.306.892c-2.791-2.41-4.835-6.16-4.835-9.206z"/>
        <path fill="#FB794A" d="M12.222 27.508c0-6.443 5.224-8.648 11.667-4.924 5.331 3.082 9.828 9.256 11.22 14.946l-1.068-.312c-1.26-5.148-5.328-10.735-10.152-13.523-5.83-3.369-10.556-1.374-10.556 4.455 0 4.824 3.236 10.762 7.655 14.577l-.305.892c-4.885-4.216-8.46-10.78-8.46-16.11z"/>
        <path fill="url(#a)" d="M29.88 51.858l2.103-2.69 1.056 1.67 3.516 5.558 2.147-.914-4.553-7.197 1.305.045 2.582.09-13.257-12.767 5.1 16.205zm2.955.231l-.583-.921-.392.5-.159.203-1.31 1.676c-.122.156-.364.151-.62-.013a1.465 1.465 0 0 1-.573-.748l-5.82-18.49c-.077-.243-.053-.451.063-.562.116-.11.31-.108.523.006a1.2 1.2 0 0 1 .267.195l15.116 14.557c.24.23.406.548.423.814.018.267-.115.433-.34.426l-2.428-.084-.287-.01-.73-.025.586.927.231.366 3.008 4.753c.253.403.253.816 0 .926l-2.787 1.186c-.123.054-.292.027-.468-.075a1.415 1.415 0 0 1-.468-.466l-3.016-4.767-.236-.374z"/>
    </g>
</svg>
