<svg xmlns="http://www.w3.org/2000/svg" width="80" height="70" viewBox="0 0 80 70">
    <defs>
        <linearGradient id="a" x1="0%" x2="95.294%" y1="0%" y2="95.294%">
            <stop offset="0%" stop-color="#BE53B9"/>
            <stop offset="100%" stop-color="#4156DB"/>
        </linearGradient>
    </defs>
    <g fill="none" fill-rule="nonzero">
        <path stroke="#FFF" d="M65.947 35.85l-.252-.145v-.29c0-.103.005-.178.019-.336.011-.13.015-.185.015-.25 0-10.74-8.637-24.406-19.274-30.465C39.065.154 32.575.699 29.52 5.44l-.348.54-.438-.47c-1.381-1.483-2.88-2.707-4.404-3.576-4.655-2.651-8.452-1.53-9.185 2.495l-.093.513-.509-.115C8.774 3.522 4.91 6.69 4.91 12.967c0 8.25 6.662 18.79 14.853 23.472L66.458 63.04c7.316 4.135 13.042 1.57 13.042-5.736.016-7.532-6.068-17.174-13.553-21.455z" opacity=".3"/>
        <path fill="url(#a)" d="M61.785 39.825c0-.202.034-.385.034-.586 0-10.931-8.742-24.757-19.526-30.9-7.78-4.432-14.463-3.631-17.602 1.24-1.367-1.468-2.903-2.747-4.523-3.67-4.979-2.836-9.13-1.518-9.924 2.84C4.27 7.397 0 10.666 0 17.376c0 8.442 6.768 19.141 15.105 23.907l46.697 26.602c7.629 4.312 13.789 1.548 13.789-6.17.016-7.727-6.177-17.528-13.806-21.89z"/>
    </g>
</svg>
