<svg xmlns="http://www.w3.org/2000/svg" width="50" height="50" viewBox="0 0 50 50">
    <defs>
        <linearGradient id="a" x1="0%" y1="0%" y2="100%">
            <stop offset="0%" stop-color="#A0459C"/>
            <stop offset="100%" stop-color="#241AA8"/>
        </linearGradient>
    </defs>
    <g fill="none" fill-rule="nonzero">
        <path fill="#FFF" d="M26.348 49.963a18.98 18.98 0 0 1-.599.025l-.17.005a25.985 25.985 0 0 1-1.158 0l-.17-.005a24.708 24.708 0 0 1-1.024-.05l-.151-.011a25.253 25.253 0 0 1-3.002-.41 25.188 25.188 0 0 1-2.8-.73c-.07-.022-.14-.044-.21-.068a24.904 24.904 0 0 1-9.741-6.042C2.6 37.957 0 31.678 0 25c0-6.678 2.6-12.956 7.322-17.678C12.044 2.6 18.322 0 25 0c6.678 0 12.956 2.6 17.678 7.322C47.4 12.044 50 18.322 50 25c0 6.678-2.6 12.956-7.322 17.678a24.904 24.904 0 0 1-9.496 5.957l-.244.084-.23.075a26.133 26.133 0 0 1-1.054.315 24.788 24.788 0 0 1-4.73.818l-.153.01c-.14.01-.282.019-.423.026z"/>
        <path fill="#FB794A" d="M34.332 41.283c2.548 1.276 3.757 1.903 5.17 2.708l.58.332c.184.105-3.177 1.67-10.082 4.698l-9.098.478-.189-.018a25.343 25.343 0 0 1-1.992-.46c-.402-.111-.766-.221-1.144-.344l-.143-.048-.36-.123-.245-.087-.13-.048a25.369 25.369 0 0 1-5.286-2.697l-1.346-.9 1.406-.8c1.405-.8 2.6-1.419 5.137-2.69 1.054-.53 2.21-1.834 3.414-3.926.122-1.464-.018-2.477-.36-3.023a3.89 3.89 0 0 0-.574-.686c-.063-.063-.375-.367-.462-.455a4.536 4.536 0 0 1-.619-.743 10.413 10.413 0 0 1-1.53-3.723c-1.41-.168-2.382-.763-2.708-1.851-.55-1.837-.59-3.37.109-4.194.54-.64 1.327-.744 2.303-.622a21.631 21.631 0 0 1-.72-3.336c-.3-2.361-.075-4.514.914-6.251.81-1.422 1.95-2.238 3.343-2.315.504-.028.988.04 1.438.172.234.067.416.139.103.098l.466.115a8.537 8.537 0 0 1 2.145-1.596c1.587-.844 3.326-1.143 5.135-.647 2.277.624 5.024.48 6.986-.262l1.55-.586-.204 1.645c-.22 1.775-.798 3.272-1.919 4.25.264.57.52 1.422.596 2.573.122 1.809-.258 3.853-1.291 6.091 1.01-.073 1.798.032 2.338.67.699.826.658 2.358.109 4.195-.326 1.088-1.298 1.683-2.678 1.824-.32 1.42-.783 2.547-1.56 3.75-.39.603-.803 1.06-1.791 2.056-.505.51-.614 1.394-.215 2.77 1.185 2.141 2.34 3.472 3.404 4.006zm2.435 3.488a288.714 288.714 0 0 0-3.33-1.7c-1.516-.76-2.934-2.407-4.314-4.927l-.08-.19c-.625-2.066-.439-3.726.68-4.854.882-.891 1.245-1.292 1.53-1.735a8.419 8.419 0 0 0 1.253-3.043c.18-.87.903-1.52 1.786-1.61.655-.068.908-.223.963-.409.203-.677.313-1.29.326-1.765.009-.33-.031-.53-.043-.56-.135.037-.32.042-.527.068a2.035 2.035 0 0 1-2.102-2.872c.893-1.935 1.21-3.645 1.112-5.12a6.016 6.016 0 0 0-.227-1.319 2.945 2.945 0 0 0-.146-.402 2.024 2.024 0 0 1 .457-2.492c.384-.335.684-.83.901-1.443-2.062.431-4.443.403-6.528-.168-1.27-.348-2.5-.137-3.667.484a6.89 6.89 0 0 0-1.154.774 4.87 4.87 0 0 0-.435.4 2.02 2.02 0 0 1-2.4.439 2.32 2.32 0 0 0-.99-.17c-.66.035-1.222.438-1.717 1.306-.736 1.294-.92 3.037-.667 5.008.091.714.233 1.405.405 2.046.102.384.198.685.244.81a2.035 2.035 0 0 1-2.164 2.719 2.185 2.185 0 0 0-.526-.014c-.013-.027-.054.174-.045.506.012.475.123 1.088.325 1.765.056.186.309.341.964.408.883.09 1.606.742 1.786 1.61a8.42 8.42 0 0 0 1.252 3.044c.075.116.185.245.36.421.072.073.38.373.457.45.36.361.621.668.852 1.036.642 1.024.83 2.514.637 4.49l-.02.21-.104.183c-1.418 2.516-2.853 4.159-4.365 4.916-1.408.706-3.137 1.292-4.147 1.753C14 45 24.5 52 36.767 44.771z"/>
        <path fill="#FFF" stroke="url(#a)" stroke-width="2" d="M26.294 48.965h.002c.131-.007.267-.015.407-.025l.075-.005.071-.005a23.869 23.869 0 0 0 5.052-.932l.18-.055.319-.1.05-.017.171-.056.152-.052.024-.008.059-.02a23.904 23.904 0 0 0 9.115-5.72C46.505 37.436 49 31.412 49 25c0-6.412-2.495-12.436-7.03-16.97C37.437 3.494 31.414 1 25 1 18.587 1 12.564 3.495 8.03 8.03 3.494 12.563 1 18.587 1 25c0 6.412 2.495 12.436 7.03 16.97a23.905 23.905 0 0 0 9.893 5.975l.163.049a24.421 24.421 0 0 0 2.18.542 24.795 24.795 0 0 0 2.336.346c.209.02.377.035.549.048l.07.005.045.003.03.002a24.647 24.647 0 0 0 .985.048l.055.002h.004l.103.003a24.916 24.916 0 0 0 1.114 0l.092-.003h.007l.064-.002c.15-.004.279-.009.4-.014l.174-.01zm-.002 0l-.088.005H26.2l-.078.004c-.12.005-.248.01-.401.014h-.02l-.144.005a24.875 24.875 0 0 1-1.118 0h-.026l-.13-.005c-.154-.004-.283-.009-.407-.015l-.08-.003h-.003l-.083-.005a24.774 24.774 0 0 1-.415-.025l-.144-.01a24.223 24.223 0 0 1-2.886-.394 24.22 24.22 0 0 1-2.18-.543l-.078-.023-.085-.026a24.63 24.63 0 0 1-.367-.116c-.059-.02-.059-.02-.094-.03l-.001-.001-.083-.027a23.906 23.906 0 0 1-9.348-5.8C3.495 37.436 1 31.412 1 25c0-6.412 2.495-12.436 7.03-16.97C12.563 3.494 18.586 1 25 1c6.413 0 12.436 2.495 16.97 7.03C46.506 12.563 49 18.587 49 25c0 6.412-2.495 12.436-7.03 16.97a24 24 0 0 1-9.197 5.748l-.083.029-.071.024-.063.02-.001.001-.155.05c-.119.039-.222.071-.322.102l-.084.026-.092.027c-.139.042-.274.08-.522.15a23.755 23.755 0 0 1-4.532.783l-.02.001-.126.009c-.14.01-.276.018-.41.025z"/>
    </g>
</svg>
