<svg xmlns="http://www.w3.org/2000/svg" width="64" height="32" viewBox="0 0 64 32">
    <defs>
        <linearGradient id="a" x1="0%" y1="0%" y2="100%">
            <stop offset="0%" stop-color="#A0459C"/>
            <stop offset="100%" stop-color="#241AA8"/>
        </linearGradient>
    </defs>
    <g fill="none" fill-rule="nonzero">
        <path fill="url(#a)" d="M47.216 2H16.783C8.598 2 2 8.29 2 16s6.599 14 14.784 14c2.139 0 3.86-1.112 6.801-4.038l1.08-1.079c.426-.421.775-.758 1.115-1.071 2.19-2.021 4.022-3.053 6.22-3.053 2.198 0 4.03 1.032 6.22 3.053.34.313.69.65 1.114 1.071.219.217.965.964 1.08 1.079C43.356 28.888 45.078 30 47.217 30 55.401 30 62 23.71 62 16S55.402 2 47.216 2zm0-2C56.486 0 64 7.163 64 16c0 8.836-7.515 16-16.784 16-6.735 0-10.092-9.24-15.216-9.24-5.124 0-8.48 9.24-15.216 9.24C7.514 32 0 24.836 0 16 0 7.163 7.515 0 16.783 0h30.433z"/>
        <path fill="#FB794A" d="M17 21c3.852 0 7-3.339 7-7.485 0-3.353-14-3.353-14 0C10 17.661 13.148 21 17 21zm0 2c-4.984 0-9-4.26-9-9.485 0-6.02 18-6.02 18 0C26 18.74 21.983 23 17 23zM48 21c3.853 0 7-3.338 7-7.485 0-3.353-14-3.353-14 0C41 17.661 44.148 21 48 21zm0 2c-4.983 0-9-4.26-9-9.485 0-6.02 18-6.02 18 0C57 18.741 52.984 23 48 23z"/>
    </g>
</svg>
