<svg xmlns="http://www.w3.org/2000/svg" width="50" height="50" viewBox="0 0 50 50">
    <defs>
        <linearGradient id="a" x1="0%" y1="0%" y2="100%">
            <stop offset="0%" stop-color="#A0459C"/>
            <stop offset="100%" stop-color="#241AA8"/>
        </linearGradient>
    </defs>
    <g fill="none" fill-rule="nonzero">
        <path fill="#FB794A" d="M17.702 32.541C12.678 31.11 9 26.484 9 21c0-6.627 5.373-12 12-12 5.484 0 10.109 3.678 11.541 8.702l-1.923.55C29.424 14.065 25.57 11 21 11c-5.523 0-10 4.477-10 10 0 4.57 3.065 8.424 7.252 9.618l-.55 1.923z"/>
        <path fill="#FB794A" d="M15.23 41.197C6.436 38.69 0 30.597 0 21 0 9.402 9.402 0 21 0c9.597 0 17.69 6.437 20.197 15.23l-1.923.549C37.005 7.824 29.683 2 21 2 10.507 2 2 10.507 2 21c0 8.683 5.824 16.005 13.779 18.274l-.55 1.923z"/>
        <path fill="url(#a)" d="M31.783 46.46l3.786-7.028 1.9 1.906 6.33 6.347 3.865-3.88-8.196-8.218 2.35-1.276 4.646-2.525L22.602 22.6l9.181 23.86zm5.32-2.658l-1.05-1.052-.705 1.309-.285.53-2.36 4.38a1.185 1.185 0 0 1-2.147-.13L20.08 21.613a1.185 1.185 0 0 1 1.055-1.61c.163-.01.327.016.48.074l27.21 10.476a1.185 1.185 0 0 1 .148 2.147l-4.369 2.374-.517.281-1.315.714 1.057 1.06.415.416 5.414 5.428a1.185 1.185 0 0 1 0 1.666l-5.016 5.035a1.185 1.185 0 0 1-1.685 0l-5.429-5.444-.425-.427z"/>
    </g>
</svg>
