<svg xmlns="http://www.w3.org/2000/svg" width="54" height="34" viewBox="0 0 54 34">
    <defs>
        <linearGradient id="a" x1="0%" y1="0%" y2="100%">
            <stop offset="0%" stop-color="#A0459C"/>
            <stop offset="100%" stop-color="#241AA8"/>
        </linearGradient>
    </defs>
    <g fill="none" fill-rule="nonzero">
        <path fill="#FB794A" d="M9 2a1 1 0 0 0-1 1v22a1 1 0 0 0 1 1h42a1 1 0 0 0 1-1V3a1 1 0 0 0-1-1H9zm0-2h42a3 3 0 0 1 3 3v22a3 3 0 0 1-3 3H9a3 3 0 0 1-3-3V3a3 3 0 0 1 3-3z"/>
        <rect width="48" height="28" y="6" fill="#FFF" rx="3"/>
        <path fill="url(#a)" d="M3 6h42a3 3 0 0 1 3 3v22a3 3 0 0 1-3 3H3a3 3 0 0 1-3-3V9a3 3 0 0 1 3-3zm0 2a1 1 0 0 0-1 1v22a1 1 0 0 0 1 1h42a1 1 0 0 0 1-1V9a1 1 0 0 0-1-1H3zm21 20c-3.314 0-6-3.582-6-8s2.686-8 6-8 6 3.582 6 8-2.686 8-6 8zm0-2c2.064 0 4-2.582 4-6s-1.936-6-4-6-4 2.582-4 6 1.936 6 4 6zm10-7h7v2h-7v-2zM7 19h7v2H7v-2z"/>
    </g>
</svg>
