<svg xmlns="http://www.w3.org/2000/svg" width="40" height="36" viewBox="0 0 40 36">
    <path fill="#FFF" fill-rule="nonzero" d="M29.45 28.212L38 30.418V4.582l-28 7.225V23c0 .064-.006.127-.018.188l6.915 1.784 12.351 3.164a1 1 0 0 1 .203.076zM14 26.29L9 25H3a3 3 0 0 1-3-3v-9a3 3 0 0 1 3-3h6l29-7.484V1a1 1 0 0 1 2 0v33a1 1 0 0 1-2 0v-1.516l-8-2.065v4.339a1 1 0 0 1-1.214.977l-14-3.063a1 1 0 0 1-.786-.977V26.29zM8 12H3a1 1 0 0 0-1 1v9a1 1 0 0 0 1 1h5V12zm8 18.89l12 2.625v-3.634l-12-3.074v4.083z"/>
</svg>
