<svg xmlns="http://www.w3.org/2000/svg" width="50" height="42" viewBox="0 0 50 42">
    <defs>
        <linearGradient id="a" x1="0%" y1="0%" y2="100%">
            <stop offset="0%" stop-color="#A0459C"/>
            <stop offset="100%" stop-color="#241AA8"/>
        </linearGradient>
    </defs>
    <g fill="none" fill-rule="nonzero">
        <path fill="#FB794A" d="M29.558 35h-9.116l-1.667 5h12.45l-1.667-5zM19 33h12l3 9H16l3-9z"/>
        <path fill="#FB794A" d="M15 41h20-20zm0-1h20a1 1 0 0 1 0 2H15a1 1 0 0 1 0-2z"/>
        <path fill="#FFF" stroke="url(#a)" stroke-width="2" d="M4 1h42a3 3 0 0 1 3 3v27a3 3 0 0 1-3 3H4a3 3 0 0 1-3-3V4a3 3 0 0 1 3-3zm0 0a3 3 0 0 0-3 3v27a3 3 0 0 0 3 3h42a3 3 0 0 0 3-3V4a3 3 0 0 0-3-3H4zm21 25h23l-1-1v2l1-1H25zm0 0H2l1 1v-2l-1 1h23z"/>
        <circle cx="25" cy="30" r="1" fill="#572CA4"/>
    </g>
</svg>
