<svg xmlns="http://www.w3.org/2000/svg" width="38" height="54" viewBox="0 0 38 54">
    <defs>
        <linearGradient id="a" x1="0%" y1="0%" y2="100%">
            <stop offset="0%" stop-color="#A0459C"/>
            <stop offset="100%" stop-color="#241AA8"/>
        </linearGradient>
    </defs>
    <g fill="none" fill-rule="nonzero">
        <path fill="url(#a)" d="M24 47v-2h-9.977l.01 2H24zm0 2h-9.958l.007 1.5c0 .955.578 1.5 1.707 1.5h6.488C23.39 52 24 51.436 24 50.5V49zm0-6v-2h-9.996l.01 2H24zm.095-4c.176-.98.591-1.932 1.219-2.898.774-1.193 1.103-1.56 3.661-4.268C34.215 26.227 36 23.004 36 17.97 36.003 9.173 28.425 2.009 19 2 9.593 2.012 2.011 9.183 2 17.971c0 5.025 1.772 8.215 7.026 13.837.205.22.899.958.96 1.023.381.408.668.719.939 1.022.71.795 1.252 1.469 1.698 2.142.666 1.004 1.104 1.99 1.284 3.005h10.188zM19 0c10.5.009 19.003 8.038 19 17.971 0 6.442-3.077 10.428-7.563 15.228C28.13 35.64 26 37.721 26 40.065V50.5c0 2.088-1.55 3.5-3.756 3.5h-6.488c-2.207 0-3.707-1.412-3.707-3.5L12 40.065c0-2.371-2.136-4.425-4.437-6.893C3.083 28.377 0 24.413 0 17.972.013 8.05 8.513.011 19 0z"/>
        <path fill="#FB794A" d="M20 22.387V40h-2V22.387l-4.74-5.214 1.48-1.346L19 20.513l4.26-4.686 1.48 1.346L20 22.387z"/>
    </g>
</svg>
