<svg xmlns="http://www.w3.org/2000/svg" width="40" height="46" viewBox="0 0 40 46">
    <defs>
        <linearGradient id="a" x1="0%" y1="0%" y2="100%">
            <stop offset="0%" stop-color="#A0459C"/>
            <stop offset="100%" stop-color="#241AA8"/>
        </linearGradient>
    </defs>
    <g fill="none" fill-rule="nonzero">
        <path fill="url(#a)" d="M5 2a3 3 0 0 0-3 3v36a3 3 0 0 0 3 3h20c7.18 0 13-5.82 13-13V5a3 3 0 0 0-3-3H5zm0-2h30a5 5 0 0 1 5 5v26c0 8.284-6.716 15-15 15H5a5 5 0 0 1-5-5V5a5 5 0 0 1 5-5z"/>
        <path fill="#7436A0" d="M9 8a1 1 0 0 0-1 1v8a1 1 0 0 0 1 1h22a1 1 0 0 0 1-1V9a1 1 0 0 0-1-1H9zm0-2h22a3 3 0 0 1 3 3v8a3 3 0 0 1-3 3H9a3 3 0 0 1-3-3V9a3 3 0 0 1 3-3z"/>
        <path fill="#FB794A" d="M29.5 29a1.5 1.5 0 1 0 0-3 1.5 1.5 0 0 0 0 3zm0 2a3.5 3.5 0 1 1 0-7 3.5 3.5 0 0 1 0 7zM23.5 37a1.5 1.5 0 1 0 0-3 1.5 1.5 0 0 0 0 3zm0 2a3.5 3.5 0 1 1 0-7 3.5 3.5 0 0 1 0 7zM13 30h3a1 1 0 0 1 0 2h-3v3a1 1 0 0 1-2 0v-3H8a1 1 0 0 1 0-2h3v-3a1 1 0 0 1 2 0v3z"/>
    </g>
</svg>
