<svg xmlns="http://www.w3.org/2000/svg" width="18" height="15" viewBox="0 0 18 15">
    <defs>
        <linearGradient id="a" x1="50%" x2="50%" y1="0%" y2="100%">
            <stop offset="0%" stop-color="#A89A65"/>
            <stop offset="100%" stop-color="#9F7D1C"/>
        </linearGradient>
    </defs>
    <path fill="url(#a)" fill-rule="nonzero" d="M9.042 1.988a.92.92 0 1 1 0-1.841.92.92 0 0 1 0 1.841zM.816 5.191a.649.649 0 1 1 0-1.298.649.649 0 0 1 0 1.298zm16.451 0a.649.649 0 1 1 0-1.298.649.649 0 0 1 0 1.298zm-13.52 7.64L1.465 5.336l2.68 1.989a2.135 2.135 0 0 0 3.202-.838L9.02 2.826l1.716 3.683a2.126 2.126 0 0 0 3.14.858l2.72-1.862-2.26 7.325H3.747zm0 .836h10.59v1.068H3.747v-1.068z"/>
</svg>
