<svg xmlns="http://www.w3.org/2000/svg" width="55" height="44" viewBox="0 0 55 44">
    <defs>
        <linearGradient id="a" x1="0%" y1="0%" y2="100%">
            <stop offset="0%" stop-color="#A0459C"/>
            <stop offset="100%" stop-color="#241AA8"/>
        </linearGradient>
    </defs>
    <g fill="none" fill-rule="nonzero">
        <path fill="#FB794A" d="M29.233 28.535l1.083-2.166a130.19 130.19 0 0 1 2.37 4.388 215.76 215.76 0 0 1 3.815-2.41c.353-.22 1.564-.97 1.638-1.015.652-.404 1.152-.715 1.639-1.02a164.144 164.144 0 0 0 3.266-2.092c.41-.27.806-.535 1.2-.802 5.17-3.48 7.476-5.568 8.225-7.778.614-1.709.547-3.832-.17-5.794-.5-1.062-1.58-2.14-2.83-2.787a5.827 5.827 0 0 0-1.326-.49c-1.846-.481-3.264-.33-5.743.39l-.566.165c-.229.067-.406.118-.578.166-.453.125-.836.22-1.21.296l-.907.183-.727-.573c-.51-.402-.985-.816-1.666-1.44l-.53-.489c-2.03-1.865-3.123-2.624-4.611-3.016-2.03-.53-3.893-.207-5.294.82-1.447 1.097-2.682 2.995-3.13 5.007-.26.996-.255 2.108.027 3.439l-1.874.75c-.385-1.661-.467-3.239-.087-4.695.56-2.532 2.141-4.796 3.856-6.095C26.975.105 29.443-.381 32.11.316c3.252.856 5.205 3.47 7.54 5.31 2.444-.494 5.199-1.983 8.998-.991.591.14 1.182.36 1.738.647 1.668.861 3.084 2.299 3.763 3.797.871 2.333 1.013 4.98.203 7.237-1.087 3.209-4.79 5.933-8.99 8.761-4.552 3.087-9.126 5.653-13.462 8.605-.826-1.742-1.738-3.464-2.667-5.147z"/>
        <path fill="url(#a)" d="M23.35 38.283c.283-.533.572-1.073.967-1.809l.485-.904.484-.904c1.308-2.444 2.18-4.128 3.03-5.88 2.736-5.599 3.69-8.56 3.234-10.848-.323-1.787-1.443-3.592-3.044-4.933-.965-.669-2.44-1.064-3.845-.998-.462.022-.924.1-1.394.24-1.633.448-2.818 1.237-4.222 2.638-.252.251-1.355 1.406-1.664 1.71-.215.213-.417.403-.617.58l-.695.612-.916-.133c-.76-.11-1.3-.221-2.673-.53-2.886-.646-4.173-.764-5.694-.35-2.024.557-3.475 1.768-4.175 3.358-.705 1.673-.825 3.935-.206 5.9.666 2.426 3.051 4.665 8.047 7.906 1.698 1.093 8.547 5.129 8.745 5.249 1.003.607 1.92 1.179 2.78 1.735.413-.814.864-1.678 1.373-2.639zm1.217-28.274c1.874-.088 3.82.449 5.156 1.407 1.922 1.585 3.368 3.806 3.795 6.167.663 3.322-1.182 7.533-3.406 12.082-2.398 4.948-5.076 9.458-7.355 14.183-4.46-3.083-9.43-5.68-13.388-8.229-4.186-2.715-7.918-5.51-8.893-9.057-.78-2.473-.543-5.224.292-7.207.935-2.123 2.83-3.779 5.488-4.509 3.244-.884 6.242.402 9.184.829 1.87-1.65 3.512-4.317 7.297-5.357a7.717 7.717 0 0 1 1.83-.309z"/>
    </g>
</svg>
