<svg xmlns="http://www.w3.org/2000/svg" width="43" height="48" viewBox="0 0 43 48">
    <defs>
        <linearGradient id="a" x1="0%" y1="0%" y2="100%">
            <stop offset="0%" stop-color="#A0459C"/>
            <stop offset="100%" stop-color="#241AA8"/>
        </linearGradient>
    </defs>
    <g fill="none" fill-rule="nonzero">
        <path fill="#FB794A" d="M16.707 42c6.075 0 11-4.925 11-11s-4.925-11-11-11-11 4.925-11 11 4.925 11 11 11zm-12-.414l2.128-2.128A12.949 12.949 0 0 1 3.707 31c0-7.18 5.82-13 13-13s13 5.82 13 13-5.82 13-13 13c-3.23 0-6.185-1.178-8.458-3.128L6.12 43l3.293 3.293L8 47.707l-3.293-3.293-3.293 3.293L0 46.293 3.293 43 0 39.707l1.414-1.414 3.293 3.293z"/>
        <path fill="#FFF" stroke="url(#a)" stroke-width="2" d="M26 29c-6.627 0-12-5.373-12-12S19.373 5 26 5s12 5.373 12 12-5.373 12-12 12zM42 5.207V0l1 1h-2.207H42l-7.49 7.49-.703-.603A11.947 11.947 0 0 0 26 5c-6.627 0-12 5.373-12 12s5.373 12 12 12 12-5.373 12-12c0-2.905-1.035-5.647-2.887-7.807l-.603-.703L42 1v4.207zM40.793 1h-3 3z"/>
    </g>
</svg>
