<svg xmlns="http://www.w3.org/2000/svg" width="50" height="50" viewBox="0 0 50 50">
    <defs>
        <linearGradient id="a" x1="0%" y1="0%" y2="100%">
            <stop offset="0%" stop-color="#A0459C"/>
            <stop offset="100%" stop-color="#241AA8"/>
        </linearGradient>
    </defs>
    <g fill="none" fill-rule="nonzero">
        <path fill="#FB794A" d="M43.707 8.707l-1.414-1.414-9 9 1.414 1.414zM32.293 33.707l1.414-1.414 9 9-1.414 1.414zM6.293 41.293l1.414 1.414 9-9-1.414-1.414zM7.293 8.707l1.414-1.414 9 9-1.414 1.414z"/>
        <path fill="url(#a)" d="M25 50C11.193 50 0 38.807 0 25S11.193 0 25 0s25 11.193 25 25-11.193 25-25 25zm0-2c12.703 0 23-10.297 23-23S37.703 2 25 2 2 12.297 2 25s10.297 23 23 23z"/>
        <path fill="url(#a)" d="M25 38c-7.18 0-13-5.82-13-13s5.82-13 13-13 13 5.82 13 13-5.82 13-13 13zm0-2c6.075 0 11-4.925 11-11s-4.925-11-11-11-11 4.925-11 11 4.925 11 11 11z"/>
    </g>
</svg>
