<svg xmlns="http://www.w3.org/2000/svg" width="50" height="50" viewBox="0 0 50 50">
    <defs>
        <linearGradient id="a" x1="0%" y1="0%" y2="100%">
            <stop offset="0%" stop-color="#A0459C"/>
            <stop offset="100%" stop-color="#241AA8"/>
        </linearGradient>
    </defs>
    <g fill="none" fill-rule="nonzero">
        <path fill="#FB794A" d="M34.945 11.332l-.22-.147-.12-.238c-.294-.589-.83-.862-2.366-1.27-.59-.158-.578-.154-.791-.215C30.372 9.154 29.6 8.826 28.9 8.3c-1.726-1.294-2.115-3.825-1.38-7.496l1.96.392c-.598 2.995-.321 4.798.62 5.504.467.35 1.036.592 1.897.838.196.057.184.053.756.206 1.942.516 2.875.961 3.514 2.07 2.247 1.616 2.527 3.832-.142 5.967l-.208.166-.263.041c-2.21.344-2.39.813-1.681 3.78.334 1.399 1.846 2.029 4.927 1.737 3.734-.373 6.33.824 7.52 3.601a59.718 59.718 0 0 1 2.542 7.12l-1.924.549a57.72 57.72 0 0 0-2.457-6.881c-.81-1.89-2.549-2.692-5.487-2.398-3.957.374-6.446-.663-7.067-3.264-.92-3.856-.324-5.57 3.044-6.174 1.38-1.168 1.218-1.83-.126-2.726zM16.871 15.928c-1.705.682-2.14.822-2.871.822-.73 0-1.166-.14-2.871-.822-1.731-.692-3.946-1.885-6.659-3.58l1.06-1.696c2.62 1.638 4.74 2.779 6.341 3.42 1.42.568 1.766.678 2.129.678s.709-.11 2.129-.678C18.559 13.099 20 14.54 20 17.5v.315l-.18.258c-2.365 3.378-4.229 5.75-5.613 7.134-.673.673.35 2.335 3.893 4.993l.102.076.079.1c2.016 2.52.412 4.124-3.281 4.124-3.436 0-8.25-4.127-14.784-12.38l1.568-1.24C7.917 28.626 12.436 32.5 15 32.5c2.212 0 2.36-.057 1.796-.778-4.378-3.306-5.98-5.951-4.003-7.93 1.248-1.247 2.99-3.454 5.204-6.604-.029-1.422-.28-1.597-1.126-1.26zM27.914 49.406l-1.828-.812c1.134-2.552 1.023-3.773.043-4.166l-.123-.049-.106-.079c-3.017-2.263-4.382-4.017-3.836-5.651 1.308-3.489 3.008-4.233 6.707-4.159.365.008.53.01.729.01 1.183 0 2.081.385 3.242 1.207.167.119.755.55.723.527 1.057.767 1.751 1.122 2.7 1.28 1.975.329 4.621.66 7.935.991l-.2 1.99c-3.353-.335-6.04-.671-8.064-1.009-1.318-.22-2.26-.7-3.545-1.633.02.014-.554-.406-.706-.514-.853-.605-1.4-.839-2.085-.839-.217 0-.39-.003-.77-.01-2.945-.06-3.847.335-4.781 2.826-.132.396.808 1.612 3.053 3.31 2.23.98 2.415 3.397.912 6.78z"/>
        <path fill="url(#a)" d="M25 50C11.193 50 0 38.807 0 25S11.193 0 25 0s25 11.193 25 25-11.193 25-25 25zm0-2c12.703 0 23-10.297 23-23S37.703 2 25 2 2 12.297 2 25s10.297 23 23 23z"/>
    </g>
</svg>
