<svg xmlns="http://www.w3.org/2000/svg" width="36" height="36" viewBox="0 0 36 36">
    <path fill="#FFF" fill-rule="nonzero" d="M36 18c0 9.941-8.059 18-18 18-9.942 0-18-8.059-18-18C0 8.058 8.058 0 18 0c9.941 0 18 8.058 18 18zM13.98 8.309c-1.037.047-1.747.212-2.366.453a4.786 4.786 0 0 0-1.727 1.125 4.76 4.76 0 0 0-1.125 1.727c-.241.62-.406 1.329-.453 2.366-.048 1.04-.059 1.372-.059 4.02 0 2.648.011 2.98.059 4.02.047 1.038.212 1.747.453 2.367a4.766 4.766 0 0 0 1.125 1.727 4.79 4.79 0 0 0 1.727 1.125c.62.24 1.329.405 2.366.453 1.04.047 1.372.059 4.02.059 2.648 0 2.98-.011 4.02-.06 1.038-.047 1.747-.211 2.367-.452a4.795 4.795 0 0 0 1.727-1.125 4.776 4.776 0 0 0 1.125-1.727c.24-.62.406-1.329.453-2.367.047-1.04.058-1.372.058-4.02 0-2.648-.011-2.98-.058-4.02-.048-1.038-.212-1.747-.453-2.366a4.795 4.795 0 0 0-1.125-1.727 4.771 4.771 0 0 0-1.726-1.125c-.62-.241-1.33-.406-2.367-.453-1.04-.047-1.372-.059-4.02-.059-2.647 0-2.98.011-4.02.059zM12.994 18a5.006 5.006 0 1 1 10.013 0 5.006 5.006 0 0 1-10.013 0zm1.757 0a3.25 3.25 0 1 0 6.5.001 3.25 3.25 0 0 0-6.5 0zm7.284-5.205a1.17 1.17 0 1 1 2.34 0 1.17 1.17 0 0 1-2.34 0z"/>
</svg>
