<svg xmlns="http://www.w3.org/2000/svg" width="45" height="106" viewBox="0 0 45 106">
    <g fill="none" fill-rule="evenodd">
        <path fill="#FFF" fill-rule="nonzero" d="M36.154 85.055c-7.358-5.07-20.304-5.44-28.627-.8-8.021 4.474-8.726 11.836-1.68 16.691 7.357 5.07 20.303 5.44 28.625.8 8.022-4.475 8.728-11.837 1.682-16.69zm-1.195 17.564c-8.648 4.822-22.003 4.44-29.68-.85-7.678-5.29-6.886-13.565 1.76-18.388 8.65-4.822 22.005-4.44 29.682.85 7.678 5.29 6.887 13.565-1.762 18.388z" opacity=".06"/>
        <path fill="#0A0B09" d="M18.107 95.279c.012.268-.118.71-.095.987.01.127 1.833 1.383 1.837 1.412 0 .001.217.506 1.035.647 1.093.189 2.665-.55 2.665-.55.109-.02.335-.1.641-.222.284-.461 1.575-1.76 1.69-.746 1.859-.88 4.254-2.17 5.106-3.079.004-.335.014-.827.014-1.26 0-.2-.003-.389-.009-.542-.036.493-.551 1.116-1.138 1.434-2.64 1.427-6.526 4.042-9.001 3.547-.412-.08-.78-.249-1.101-.521"/>
        <path fill="#171615" d="M18.11 95.378c.58.54 1.05.912 1.41 1.118.272.156.75.325 1.435.509 2.475.495 6.258-2.218 8.898-3.645.587-.318 1.102-.941 1.138-1.434 0-.06-.002-.108-.005-.15a.56.56 0 0 0-.317-.424c-.324-.21-.822-.338-1.163-.35-.581-.02-.473.13-.896.252-.711.208-4.713 1.339-5.968 2.106-1.285.784-.956 2.325-1.948 2.018"/>
        <path fill="#0A0B09" d="M11.107 90.279c.012.268-.118.71-.095.987.01.127 1.833 1.383 1.837 1.412 0 .001.217.506 1.035.647 1.093.189 2.665-.55 2.665-.55.109-.02.335-.1.641-.222.284-.461 1.575-1.76 1.69-.746 1.859-.88 4.254-2.17 5.106-3.079.004-.335.014-.827.014-1.26 0-.2-.003-.389-.009-.542-.036.493-.551 1.116-1.138 1.434-2.64 1.427-6.526 4.042-9.001 3.547-.412-.08-.78-.249-1.101-.521"/>
        <path fill="#171615" d="M11.11 90.378c.58.54 1.05.912 1.41 1.118.272.156.75.325 1.435.509 2.475.495 6.258-2.218 8.898-3.645.587-.318 1.102-.941 1.138-1.434 0-.06-.002-.108-.005-.15a.56.56 0 0 0-.317-.424c-.324-.21-.822-.338-1.163-.35-.581-.02-.473.13-.896.252-.711.208-4.713 1.339-5.968 2.106-1.285.784-.956 2.325-1.948 2.018"/>
        <path fill="#E3C49A" d="M24.01 91.656v2.166s-.266 1.43-2.389 1.56c-2.123.13-2.556-1.3-2.556-1.3v-1.678l3.206-.488 1.738-.26"/>
        <path fill="#52569D" fill-rule="nonzero" d="M29 58.6l14-5.59c.552-.22 1 .049 1 .6v8c0 .553-.448 1.18-1 1.4L29 68.6c-.552.221-1-.048-1-.6v-8c0-.552.448-1.179 1-1.4z"/>
        <path fill="#888BC0" fill-rule="nonzero" d="M33.778 55.892v2.4l5.444-2.174v-2.4l-5.444 2.174zm0-.8l5.444-2.174c.43-.171.778.048.778.49v2.4c0 .441-.348.939-.778 1.11l-5.444 2.174c-.43.172-.778-.047-.778-.49v-2.4c0-.441.348-.938.778-1.11z"/>
        <path fill="#6469B7" fill-rule="nonzero" d="M30 59.6l14-5.59c.552-.22 1 .049 1 .6v8c0 .553-.448 1.18-1 1.4L30 69.6c-.552.221-1-.048-1-.6v-8c0-.552.448-1.179 1-1.4z"/>
        <path fill="#000" fill-rule="nonzero" d="M36 61.413L39 60v2l-3 1.413z" opacity=".2"/>
        <path fill="#9B896B" d="M12.871 55.203c.087 1.212-.805 10.229-1.325 16.638-.52 6.409-.069 18.681-.069 18.681s.925 1.344 2.98.953c2.056-.39 3.224-.386 3.224-.386s1.43-24.621 1.863-27.134c.433-2.513 1.183-12.566 1.241-14.125.059-1.56-7.868-7.489-9.053-1.81-.576 2.767 1.053 5.97 1.14 7.182z"/>
        <path fill="#AB997A" d="M27.17 71.234c-.174 1.127-1.873 20.578-1.873 21.578s-1.767 5.987-7.313 2.997c0 0 .574-20.73.677-23.91.103-3.178.617-9.764.403-13.057-.213-3.293-2.067-4.16-2.267-8.492 0 0 .725-3.986 5.939-3.64 5.214.346 5.927 4.014 5.927 4.014.154 9.418-1.32 19.384-1.493 20.51z"/>
        <path fill="#712F9B" d="M24.66 16.992c-1.885-1.105-8.905-5.914-12.349-1.625-3.444 4.29.195 13.91 0 19.369s-1.04 12.608-1.04 12.608 1.755 3.575 8.124 4.16c6.37.585 10.399-1.17 10.399-1.17s-.974-13.779.845-24.828c.62-3.764-1.418-5.84-5.979-8.514z"/>
        <path fill="#EBD4B3" d="M17.595 12.957s-.044 1.603 0 1.95c.043.347 1.733 1.473 3.422 1.646 1.69.174 2.576-.205 2.576-.205V14.17s2.537.11 2.884-.552c.346-.661.997-3.954.736-4.648-.26-.693-.52-1.3-.52-1.69 0-.39.26-1.646.173-2.166-.086-.52-.779-1.906-.779-1.906s1.154-1.43-2.023-2.384c-3.177-.953-7.38.088-7.9 1.04-.52.954-.473 1.647-.473 1.647s-1.714 1.473-1.292 2.946c.423 1.474 2.632 5.547 2.632 5.547l.564.953"/>
        <path fill="#FFF" fill-rule="nonzero" d="M17.591 15.079v-2.172c1.107.872 2.093 1.465 2.958 1.778.865.312 1.88.444 3.047.394v1.27c-1.372.45-2.627.45-3.766 0-1.138-.45-1.885-.873-2.239-1.27z"/>
        <path fill="#78573E" d="M24.064.825c-3.177-.954-7.38.087-7.9 1.04-.52.953-.473 1.646-.473 1.646s-1.714 1.473-1.292 2.946c.423 1.474 2.632 5.547 2.632 5.547l.564.953s3.509-.564 3.899-1.04c.39-.476 1.127-2.47 1.55-2.296.424.172.486 1.602.486 1.602h.529s.078-1.689.005-2.079c-.073-.39.637-1.084.723-1.647.087-.563-.26-2.123-.277-2.47-.018-.346 1.577-1.819 1.577-1.819s1.154-1.43-2.023-2.384"/>
        <path fill="#EBD4B3" d="M37.652 51.622c-.124-.416-1.446-4.129-1.446-4.129l-4.273-10.752c-.302-.759-.675-1.341-1.102-1.777.247-4.081-.806-11.28-.806-11.28s-3.884-2.68-5.13 1.925c0 0 .44 7.164.574 10.197l-.005.01.02.33c.014.376.024.67.024.837 0 .098.015.189.039.276l.001.012.02.044c.025.07.057.137.097.2l.018.037v.01c1.529 3.089 7.237 11.523 7.31 11.918 0 0-.28 1.434.198 1.955.478.52.998.602 1.081.998.094.385.042 1.903.136 2.298.083.385 1.726 1.944 2.34 1.508 0 0 .52-1.425.644-1.82.136-.384.395-2.381.26-2.797"/>
        <path fill="#FFF" fill-rule="nonzero" d="M33.246 51.741l.643 1.017 4.196-1.536-1.25-1.17z"/>
        <path fill="#7837A1" d="M30.605 22.234c-.588-1.984-4.756-3.468-6.087 1.087-.681 2.33-.52 5.726-.006 8.671.004.001-.122 2.562 1.095 5.89 1.683 4.602 5.22 11.075 7.516 14.29 2.69-1.138 4.276-1.632 4.756-1.483.447.14-1.69-4.955-6.415-15.284-.462-3.178-.58-5.027-.355-5.547-.033-2.696-.144-6.409-.505-7.624z"/>
    </g>
</svg>
