<svg xmlns="http://www.w3.org/2000/svg" width="42" height="108" viewBox="0 0 42 108">
    <g fill="none" fill-rule="evenodd">
        <path fill="#FFF" fill-rule="nonzero" d="M36.154 87.055c-7.358-5.07-20.304-5.44-28.627-.8-8.021 4.474-8.726 11.836-1.68 16.691 7.357 5.07 20.303 5.44 28.625.8 8.022-4.475 8.728-11.837 1.682-16.69zm-1.195 17.564c-8.648 4.822-22.003 4.44-29.68-.85-7.678-5.29-6.886-13.565 1.76-18.388 8.65-4.822 22.005-4.44 29.682.85 7.678 5.29 6.887 13.565-1.762 18.388z" opacity=".06"/>
        <path fill="#EBD4B3" d="M26.988 100.82c-.755.967-4.335.11-5.299-.561-.974-.673-2.94-3.13-3.916-3.885-.976-.755-1.542-.928-1.428-1.784.156-1.211.871-1.728 1.16-3.026v-.01c.112-.513.148-1.159.053-2.03-.337-3.019-1.099-10.895-1.086-13.662.012-2.777.844-4.442.253-7.204-.59-2.763-1.229-10.715-1.491-14.089-.252-3.375.472-8.854.472-8.854s6.817-4.771 9.481 1.402c0 0-1.256 15.293-1.392 20.143-.137 4.862-1.047 6.706-1.226 9.914-.177 3.219-.466 15.615-.466 15.615s5.64 7.055 4.885 8.031"/>
        <path fill="#D4CCB5" d="M19.065 14.184c-2.405 1.495-5.589 2.08-7.149 5.59-1.56 3.509-4.16 19.563-3.315 22.422.845 2.86 2.34 3.445 3.64 3.64 1.3.195 11.179-2.6 11.179-2.6l3.184-19.368.456-5.654-7.995-4.03"/>
        <path fill="#43555A" d="M17.007 15.505s.151-.65.476-1.126c.325-.477 1.82-1.083 1.95-1.04.13.043.217.845.217.845l.239-.108s-.152-.867-.39-1.062c-.239-.195-.499-.281-.823-.216-.325.065-1.69 1.104-1.777 1.277-.087.174-.347 1.452-.347 1.452l.455-.021"/>
        <path fill="#E3C49A" d="M32.799 66.689C32.67 68.575 17.683 81.77 16.93 82.84c-.01.01-.02.021-.02.032-.417.79 1.103 7.378-.105 7.752-1.207.385-3.411-1.203-3.817-3.273-.396-2.07-.221-2.127-.594-2.898-.363-.771-.914-3.617-.927-4.137-.008-.322 1.021-.733 2.358-1.755a13.74 13.74 0 0 0 2.647-2.7c2.343-3.18 4.423-6.873 6.471-8.143 2.048-1.269 3.232-2.162 3.232-2.162s-2.067-9.747-3.09-12.748c-1.034-3.011-1.334-7.861 1.33-9.052 2.654-1.191 5.299.562 5.299.562s3.203 20.463 3.085 22.37"/>
        <path fill="#3584CA" d="M32.178 50.135s1.301 14.992 1.215 16.553c-.087 1.56-16.033 16.811-16.033 16.811s-1.906-.693-2.946-3.206c-1.04-2.514.607-3.987.607-3.987s5.546-7.626 6.932-8.665c1.387-1.04 2.687-2.514 2.687-2.514s-2.947-13.778-3.293-16.204c-.347-2.427-.607-5.46 1.127-6.327 1.732-.866 6.238-.346 6.238-.346l3.466 7.885"/>
        <path fill="#3C90DB" d="M25.16 52.736s-1.127 16.551-1.213 17.938c-.087 1.386-.694 4.246-.867 5.892-.173 1.647-.606 15.599-.606 15.599s-4.144 1.86-5.669-1.54c0 0-1.091-14.232-.831-16.311.26-2.08.433-4.853 0-7.193-.434-2.34-1.906-12.999-1.906-14.299 0-1.3.173-2.946.173-2.946l10.919 2.86"/>
        <path fill="#EBD4B3" d="M31.726 29.701s3.65 8.847 3.834 9.436c.185.589-.326 1.324-.473 2.272-.147.948.492 2.265.845 2.395.353.129.351-1.395.558-1.52.206-.124.644.758.886 1.408.243.65.366 2.499.965 2.398.597-.101 1.564-2.954 1.49-4.063-.074-1.11-1.367-3.017-1.714-3.822-.345-.805-2.612-11.59-2.612-11.59s-2.538-5.825-5.048-4.206c-2.51 1.619 1.269 7.292 1.269 7.292"/>
        <path fill="#E1603B" d="M36.462 30.129s-1.192-4.528-1.387-5.698c-.195-1.17-3.217-9.229-5.232-10.919l.228 7.767 1.668 9.782.866 1.43s3.012-.543 3.857-2.362"/>
        <path fill="#FFF" d="M27.082 32.863l.001.064c-.045-.899-.096-1.76-.155-2.571.078.89.136 1.742.154 2.507zm4.924-3.255c-.263-5.239-.22-12.044-1.052-14.104-.427-1.056-1.2-2.066-2.203-2.633-1.148-.649-2.474-.077-3.656.18-1.145.25-2.316.795-3.381 1.279-1.2.545-2.518.937-3.651 1.595a81.474 81.474 0 0 0-3.235 2.005c-3.539 2.284-3.467 4.314-2.365 9.291C13.565 32.2 13.72 50.53 13.72 50.53c5.652 4.104 12.33 2.548 12.33 2.548s4.45-.776 6.128-2.942c0 0 .091-15.29-.172-20.527z"/>
        <path fill="#E3C49A" d="M19.608 11.556c.368.89-.224 3.246.036 4.062.259.817 2.655 3.01 4.78 2.197 2.125-.812 2.068-2.232 1.909-4.237-.16-2.005-6.724-2.021-6.724-2.021"/>
        <path fill="#FA7149" d="M24.677 17.217s1.039 3.9 1.169 7.539c.13 3.64-1.43 29.117-1.43 29.117s-5.849.975-10.789-2.924l-.845-16.444-.325-14.342s.174-.65 1.647-1.993 4.81-3.206 4.81-3.206l3.422 1.906 2.34.347"/>
        <path fill="#D86342" d="M19.174 31.256s-1.961 8.308-6.64 9.932l.097 1.69s6.044-3.736 7.377-8.091c1.332-4.355 1.072-4.81 1.072-4.81l-1.906 1.279"/>
        <path fill="#EBD4B3" d="M27.487 4.053c.042.061.082.123.122.186a3.98 3.98 0 0 1 .586 1.617c.07.587-.066 1.167-.046 1.756.014.389.316.771.37 1.615.054.844-.49 5.137-2.873 5.48-2.382.343-3.97-1.048-4.635-1.616-.665-.568-2.277-2.607-2.277-2.607s-1.426-2.37-1.753-3.727c-.238-.986-.093-2.14.209-3.096.128-.408.304-.883.627-1.18.443-.406 1.088-.405 1.618-.637.395-.173.556-.621.988-.798.542-.222 1.461-.109 2.022-.012 1.942.335 3.912 1.355 5.042 3.019"/>
        <path fill="#90674B" d="M28.014 2.78c.083-.482.046-1.01-.161-1.371a.852.852 0 0 1-.172.329c-.399-.594-.75-1.052-1.432-1.316-.125.286-.115.491-.407.516-.066.006-.394-.167-.447-.185a9.666 9.666 0 0 0-.883-.262c-.34-.087-.727-.215-1.085-.166.024.097-.02.22-.025.296-.891-.157-1.833-.18-2.715.045-.345.089-.806.203-1.049.483-.106.122-.285.744-.374.772l-1.064.32c-1.065.319-1.546 3.159-1.218 4.516.326 1.357 1.752 3.726 1.752 3.726s.267.338.625.772c-.656-1.08-.94-2.942.14-2.677 1.079.266 1.108 1.403 1.108 1.403l.468-.012s.016-1.399-.043-1.787c-.095-.626.737-1.087.666-1.75-.025-.23-.163-.447-.213-.673-.165-.758.511-.397.965-.34.556.069 1.242.049 1.791-.023.67-.088 1.632-.308 2.191-.68.458-.304 1.052-.714 1.327-1.191.119-.206.206-.467.255-.744"/>
        <path fill="#EBD4B3" d="M13.931 19.236c3.302-.07 3.389 3.353 3.211 8.48-.177 5.127-.258 7.239-.258 7.239l5.929 9.8s.933.07 1.802.482c.869.413 2.479 1.926 2.39 2.49-.088.563-1.723-.731-1.965-.399-.242.332.745 2.374 1.024 2.781.28.408 1.378.53 1.357 1.024-.02.493-.674.831-2.462.307-1.789-.524-2.657-.937-3.367-1.709-.71-.771-1.78-3.977-1.78-3.977S11.85 38.627 11.68 37.3c-.168-1.327-.438-8.051-.352-11.89.085-3.837.862-6.137 2.602-6.174"/>
        <path fill="#5A43D9" d="M26.988 100.82c-.755.967-4.335.11-5.299-.561-.974-.673-2.94-3.13-3.916-3.885-.976-.755-1.542-.928-1.428-1.784.156-1.211.871-1.728 1.16-3.026.366.449.342 1.573 1.451 1.826 1.172.272 1.329-.513 1.67-.605.351-.092 1.477.005 1.477.005s5.64 7.054 4.885 8.03M16.805 90.625c-1.207.385-3.411-1.203-3.817-3.273-.396-2.07-.221-2.127-.594-2.898-.363-.771-.914-3.617-.927-4.137-.008-.322 1.021-.733 2.358-1.755.102.694-.117 1.094-.108 1.448.01.426.333 1.687.83 1.965.495.28.753.179 1.138.2.271.014.862.301 1.245.666-.01.01-.02.021-.02.032-.417.79 1.103 7.378-.105 7.752"/>
        <path fill="#FFA185" d="M19.65 14.184s1.734 1.647 3.38 2.34l1.646.693s-.693 2.946-.693 3.466-3.986-2.166-4.766-3.293c-.78-1.127-.52-1.928-.52-1.928l.585-1.852.422-.455-.054 1.029"/>
        <path fill="#E1603B" d="M12.674 19.773c.52-1.127 2.687-.953 3.64-.087.953.867 1.213 3.944 1.387 9.403.172 5.46.302 5.892.302 5.892l.52 1.474s-4.245 3.553-4.939 3.726c-.693.174-2.123-3.141-2.123-3.141s-.293-8.59-.065-13.172c.159-3.202 1.278-4.095 1.278-4.095"/>
        <path fill="#FFA185" d="M18.003 34.981l-5.806 4.117s.954 1.43 1.43 1.603c.477.173 5.503-3.466 5.503-3.466l-1.127-2.254M37.155 31.776s-1.733 2.079-4.116 2.253c0 0-.434-.65-.607-1.474 0 0 2.296-1.083 3.033-1.603.737-.52.997-.823.997-.823s.823.823.693 1.646"/>
        <path fill="#FA7149" d="M26.93 15.527c.768 1.723 1.939 5.2 2.231 7.767.292 2.567 1.43 19.466 1.56 21.87.13 2.405.325 6.5.325 6.5l1.624-1.366s-.39-23.462-.845-29.442c-.454-5.979-1.204-7.8-3.998-8.299 0 0-.417 1.219-1.163 1.72l.265 1.25"/>
        <path fill="#FFA185" d="M26.39 14.448s.41.646.54 1.079c.13.434 1.256 2.167 1.256 2.167s.174-1.82-.13-2.557c-.303-.737-.937-1.329-.937-1.329s-.227.332-.729.64"/>
        <path fill="#B44221" d="M14.104 18.17s1.387-1.625 2.99-2.167c0 0 2.513 1.777 3.596 4.767 1.083 2.99.823 8.925.65 9.706-.174.78-2.427 1.516-2.773.303-.346-1.213.477-6.846-1.256-10.313-1.45-2.899-3.207-2.296-3.207-2.296M27.459 13.328s1.648 1.246 2.297 4.073c.65 2.827.78 7.312 1.04 7.767.26.454 1.268.13 1.398-.585.13-.715-.845-7.994-1.625-9.619s-2.015-2.34-2.274-2.438a2.4 2.4 0 0 0-.4-.12l-.436.921"/>
        <path fill="#D86342" d="M32.064 24.908s.282 4.16.303 5.026c.022.866-.108 2.144-.108 2.144s-.65-2.794-.802-4.527c-.152-1.733-.238-2.296-.238-2.296l.845-.347"/>
    </g>
</svg>
