<svg xmlns="http://www.w3.org/2000/svg" width="42" height="105" viewBox="0 0 42 105">
    <g fill="none" fill-rule="evenodd">
        <path fill="#FFF" fill-rule="nonzero" d="M36.154 84.055c-7.358-5.07-20.304-5.44-28.627-.8C-.494 87.728-1.2 95.09 5.847 99.945c7.357 5.07 20.303 5.44 28.625.8 8.022-4.475 8.728-11.837 1.682-16.69zm-1.195 17.564c-8.648 4.822-22.003 4.44-29.68-.85-7.678-5.29-6.886-13.565 1.76-18.388 8.65-4.822 22.005-4.44 29.682.85 7.678 5.29 6.887 13.565-1.762 18.388z" opacity=".06"/>
        <path fill="#5A43D9" d="M25.087 87.146s-5.404-1.545-6.563-.966c-1.159.58-.27 2.82 2.241 4.25 2.511 1.43 3.869 2.318 5.198 2.665 1.331.348 3.417.387 3.726-.927.309-1.313.154-2.897-.193-3.477-.348-.579-4.409-1.545-4.409-1.545"/>
        <path fill="#E3C49A" d="M24.605 86.79v1.197s.462 1.7 2.412 1.69c2.216-.014 2.267-1.172 2.267-1.172l-.066-1.663"/>
        <path fill="#5A43D9" d="M17.392 91.843s-6.06-1.734-7.36-1.084c-1.3.65-.303 3.163 2.512 4.766 2.817 1.604 4.34 2.6 5.831 2.99 1.492.39 3.832.433 4.178-1.04.348-1.472.174-3.249-.216-3.899-.39-.65-4.945-1.733-4.945-1.733"/>
        <path fill="#E3C49A" d="M17.392 91.15v2.166s.265 1.43 2.389 1.56c2.123.13 2.556-1.3 2.556-1.3v-1.68l-3.206-.487-1.739-.259"/>
        <path fill="#E1603B" d="M29.669 47.514c.577 2.767-1.052 5.968-1.139 7.182-.087 1.213.805 10.23 1.325 16.638.52 6.409.07 16.682.07 16.682s-.925 1.343-2.981.953-3.223-1.386-3.223-1.386-1.43-21.621-1.863-24.134c-.434-2.514-1.183-12.566-1.242-14.126-.058-1.56 7.869-7.489 9.053-1.81"/>
        <path fill="#FA7149" d="M12.739 50.218c-.154 9.417 1.32 19.383 1.492 20.51.174 1.126 1.874 21.578 1.874 21.578s1.767 3.987 7.313.996c0 0-.575-18.73-.677-21.909-.104-3.178-.617-9.764-.404-13.057.214-3.294 2.067-4.16 2.268-8.493 0 0-.725-3.986-5.939-3.64-5.215.347-5.928 4.014-5.928 4.014"/>
        <path fill="#3C90DB" d="M10.889 26.167c-.62-3.764 1.418-5.84 5.98-8.514 1.884-1.105 8.904-5.914 12.348-1.625 3.444 4.29-.195 13.909 0 19.368.195 5.46 1.04 12.608 1.04 12.608s-1.755 3.576-8.124 4.16c-6.37.585-10.399-1.17-10.399-1.17s.975-13.778-.845-24.827"/>
        <path fill="#EBD4B3" d="M15.243 4.654s-.693 2.556-.822 3.077c-.13.52-.044 1.256 0 1.603.043.347-.564 1.3-.477 1.733.086.433.476 3.033 1.3 3.77.823.736 2.34.476 2.34.476s-.13 2.296 0 2.6c.13.303 3.682.043 5.155-.823 1.473-.867.953-3.207.953-3.207l-3.769-9.229h-4.68"/>
        <path fill="#90674B" d="M15.243 4.654s-.39-1.82 0-3.12 3.9-1.17 5.135-.78c1.235.39 5.59 1.82 5.85 2.86.26 1.04 0 1.95 0 1.95s.845 1.43.714 2.275c-.13.845-3.25 6.044-3.25 6.044s-1.979.26-2.679-.325c-.7-.585-1.35-2.86-2.26-3.12-.91-.26-1.235 1.43-1.235 1.43l-.585-.454s.326-1.886-.064-2.535c-.39-.65-.976-1.17-.976-1.17l.52-2.015-1.17-1.04"/>
        <path fill="#EBD4B3" d="M4.047 52.057c.125-.416 1.446-4.129 1.446-4.129l4.273-10.752c.302-.759.675-1.34 1.102-1.778-.247-4.08.806-11.279.806-11.279s3.885-2.68 5.13 1.925c0 0-.44 7.164-.574 10.196l.005.01-.02.331a25.4 25.4 0 0 0-.024.837c0 .098-.015.189-.039.276l-.001.012-.02.043a.947.947 0 0 1-.097.2l-.018.038v.01c-1.528 3.089-7.237 11.523-7.31 11.917 0 0 .28 1.436-.198 1.956-.478.52-.998.603-1.081.998-.094.385-.042 1.903-.136 2.298-.083.385-1.726 1.945-2.34 1.508 0 0-.52-1.425-.644-1.82-.136-.385-.396-2.381-.26-2.797"/>
        <path fill="#70A49C" d="M9.719 48.98l-.666 1.072s-1.522.401-2.606-.163c-1.083-.563-1.175-1.342-1.175-1.342l.482-1.278 3.965 1.71"/>
        <path fill="#3584CA" d="M17.01 23.982c-1.331-4.555-5.499-3.071-6.087-1.087-.316 1.066-.44 4.056-.488 6.594-.003.04 0 .088-.003.129l-.011.769c.001.046-.003.085-.002.133v.01a157.64 157.64 0 0 0-.012 1.73c-.193 4.394-1.684 5.377-1.858 6.71-.195 1.495-2.794 8.299-2.794 8.299 1.56 2.189 3.964 1.71 3.964 1.71s1.69-.52 2.177-1.277c.487-.758 4.648-8.731 4.907-9.447.261-.714.26-2.859.582-8.509l-.004-.005c.162-2.095.093-4.174-.371-5.76"/>
    </g>
</svg>
