<svg xmlns="http://www.w3.org/2000/svg" width="18" height="18" viewBox="0 0 18 18">
    <path fill="#000" fill-rule="nonzero" d="M13.723 15.457c-.015-1.34-.782-2.439-2.366-3.321A3.695 3.695 0 0 1 9 13c-.93 0-1.786-.357-2.465-.956-1.613.853-2.435 1.914-2.526 3.208A7.966 7.966 0 0 0 9 17c1.767 0 3.4-.573 4.723-1.543zm.923-.789a8 8 0 1 0-11.516-.233c.322-1.267 1.24-2.324 2.723-3.157A4.847 4.847 0 0 1 5 8.5C5 6.015 6.79 4 9 4s4 2.015 4 4.5a4.83 4.83 0 0 1-.934 2.89c1.454.868 2.326 1.965 2.58 3.278zM9 18A9 9 0 1 1 9 0a9 9 0 0 1 0 18zm0-6c1.629 0 3-1.542 3-3.5S10.629 5 9 5 6 6.542 6 8.5 7.371 12 9 12z"/>
</svg>
