<svg xmlns="http://www.w3.org/2000/svg" width="60" height="71" viewBox="0 0 60 71">
    <defs>
        <linearGradient id="a" x1="0%" x2="95.294%" y1="0%" y2="95.294%">
            <stop offset="0%" stop-color="#BE53B9"/>
            <stop offset="100%" stop-color="#4156DB"/>
        </linearGradient>
    </defs>
    <g fill="none" fill-rule="nonzero">
        <path stroke="#FFF" d="M50.244 58.656a3.42 3.42 0 0 0-.053-.023c.05.021.076.033.093.037zm.084-.003c.023-.02.062-.056.163-.107a8.258 8.258 0 0 1-.129.078zM8.748 21.527c.092-.008.268-.018.26.16a6.041 6.041 0 0 1-.012-.15zm39.194 2.159l.003.026c-.003-.024-.004-.037-.007-.047zm-.023-.054l-.04-.055.031.046zM30.253 9.122l-.141-.053-.089-.135-2.191-3.332c-.193-.292-.91-1.43-1.022-1.605-.803-1.247-1.398-1.995-1.943-2.368a1.191 1.191 0 0 0-.458-.207L18.938.507c-.18-.03-.252.025-.343.29-.11.313-.156.781-.163 1.489a37.26 37.26 0 0 0 0 .522c0 .425 0 .601-.009.81l-.12 3.317-.354.097c-.482.132-.807.23-1.097.335-.071.029-.139.058-.252.107l-.053.023-.07.03c-.266.106-.484.2-.677.296-.052.027-.1.054-.185.103l-.043.025-.12.069c-.2.1-.314.162-.429.233l-.248.152-.255-.14-3.013-1.653c-.156-.085-.323-.18-.548-.312l-.58-.338a29.649 29.649 0 0 0-.441-.252c-1.21-.675-1.871-.843-1.971-.66L5.689 9.202c-.176.32.15 1.208.961 2.558a35.32 35.32 0 0 0 .597.96l.223.35c.179.281.302.478.415.665l2.145 3.54-.018.167c-.021.21-.033.389-.055.782l-.01.177c-.035.72-.044 1.258-.025 1.792.006.162.013.29.032.598l.011.173.014.231.002.043.023.435c-.259.451-.259.451-.27.417l-.078.043-.236.125-.701.361-.016.008-.71.361-.328.167c-.09.044-.188.088-.304.137-.087.037-.48.197-.585.242-1.022.435-1.313.773-1.079 1.478l2.255 6.777c.269.807 1.045 1.512 2.442 2.357.242.146 1.31.763 1.568.922l3.12 1.913.064.113c.339.602.647 1.128 1.017 1.743.049.08.092.148.18.283l.02.03c.073.113.114.177.157.247.288.46.515.816.736 1.15a80.75 80.75 0 0 1 .386.565l.01.016c.045.064.206.303.243.356.106.156.188.274.268.384l.09.125.005.153.092 3.066c.006.213.007.385.004.802-.004.683.002 1.004.033 1.39.084 1.032.35 1.775.898 2.32l5.472 5.448c.183.183.367.312.554.395.52.231 1.028.143 1.953-.249l.361-.154c.141-.058.256-.104.366-.143l2.44-.857.208.137c.261.172.255.168.863.551l.047.03.01.006.125.08c.06.039.09.057.105.069.047.029.08.048.154.096l.184.116.046.03.217.125.047.027c.09.051.132.075.19.11a23.706 23.706 0 0 0 1.266.708l.284.147.007.004c.25.133.486.259.725.383l.115.06.072.108 2.196 3.329c.192.292.904 1.426 1.013 1.594.822 1.28 1.427 2.038 1.98 2.4.157.102.299.162.423.183l5.471.915c.18.03.255-.026.347-.292.11-.315.156-.785.164-1.494.002-.146.002-.266 0-.527 0-.417 0-.591.008-.797l.117-3.319.363-.092c.208-.053.406-.114.71-.215.103-.035.298-.092.293-.09l.075-.029c.046-.014.09-.032.18-.072l.063-.029a10.144 10.144 0 0 1 .307-.129l.146-.06c.093-.038.163-.068.217-.093.295-.146.554-.288.836-.46.247-.064.247-.064.325-.045.06.013.06.013.1.026.044.014.093.033.152.058.096.04.224.1.382.177a46.83 46.83 0 0 1 1.14.579 135.46 135.46 0 0 1 1.505.796c.156.086.323.181.549.313l.58.339c.167.096.31.178.446.253 1.208.674 1.871.841 1.971.66l2.279-4.155c.175-.317-.15-1.206-.961-2.556a35.25 35.25 0 0 0-.598-.961l-.224-.351c-.179-.283-.302-.48-.416-.668l-2.137-3.533.013-.161c.043-.522.072-.994.091-1.472.002-.053.002-.105.001-.207v-.013-.208a19.472 19.472 0 0 0-.044-1.588 21.22 21.22 0 0 0-.039-.75l-.023-.336.304-.148 2.059-.997c.087-.042.182-.084.293-.132l.588-.244c1.027-.438 1.32-.779 1.083-1.488l-2.255-6.777c-.27-.81-1.045-1.513-2.447-2.358-.238-.143-1.301-.755-1.56-.915l-3.117-1.917-.064-.113a33.821 33.821 0 0 0-.451-.772 92.25 92.25 0 0 1-.25-.42c-.059-.099-.202-.352-.213-.37l-.056-.094c-.047-.078-.098-.16-.17-.271l-.047-.073c-.105-.162-.135-.21-.183-.287l-.076-.121-.097-.154a39.69 39.69 0 0 0-1.162-1.756l-.214-.31c-.114-.159-.113-.152-.174-1.149a171.057 171.057 0 0 1-.116-2.344 20.138 20.138 0 0 1-.004-.802c.004-.68-.001-1-.032-1.384-.083-1.031-.348-1.773-.896-2.318l-5.472-5.448a1.841 1.841 0 0 0-.586-.408c-.512-.214-1.017-.123-1.928.262l-.36.153c-.142.059-.256.104-.365.142l-2.442.866-.21-.142a38.938 38.938 0 0 0-1.664-1.06l-.206-.118-.297-.176c-.29-.172-.464-.272-.65-.372a31.652 31.652 0 0 0-1.219-.633 3.181 3.181 0 0 1-.188-.1zM45.1 39.914c0 7.071-5.834 9.526-12.788 5.498-6.796-3.937-12.287-12.609-12.287-19.443 0-7.071 5.834-9.526 12.788-5.498C39.609 24.407 45.1 33.08 45.1 39.913z" opacity=".3"/>
        <path fill="url(#a)" d="M52.541 57.002l-2.053-3.394c.044-.534.073-1.013.092-1.497.005-.14-.001-.297.001-.439a19.974 19.974 0 0 0-.044-1.61c-.009-.25-.021-.5-.04-.767l2.06-.997c.982-.477 2.765-.833 2.22-2.472l-2.255-6.777c-.546-1.64-2.787-2.66-4.22-3.54l-3.007-1.85c-.227-.404-.472-.804-.708-1.203-.114-.193-.185-.33-.27-.465-.127-.212-.274-.43-.405-.64-.19-.303-.38-.607-.575-.906-.32-.494-.658-.98-.991-1.461-.065-.09-.197-3.216-.197-3.216-.044-1.452.237-3.535-1.078-4.844l-5.473-5.447c-1.316-1.311-2.715-.337-3.758.032l-2.204.781a40.12 40.12 0 0 0-1.475-.949c-.138-.085-.276-.162-.422-.246-.317-.186-.636-.38-.961-.556-.41-.225-.822-.437-1.231-.639-.176-.09-.198-.107-.228-.118l-2.192-3.334c-1.044-1.582-2.435-4.176-3.758-4.397l-5.47-.915c-1.324-.221-1.045 2.188-1.097 3.586l-.107 2.95c-.456.124-.808.23-1.151.353-.127.051-.249.106-.372.16-.244.096-.488.199-.722.315-.12.061-.23.13-.346.195a6.25 6.25 0 0 0-.465.254l-3.014-1.653C5.2 10.514 2.954 8.933 2.406 9.93L.128 14.084c-.548 1 1.234 3.425 2.207 5.032l2.058 3.396c-.033.322-.048.653-.067.987-.032.664-.046 1.24-.026 1.834.01.26.028.523.045.787.014.215.019.427.038.644-.001.022-2.06 1.064-2.06 1.064-.977.476-2.767.826-2.222 2.464l2.255 6.776c.545 1.641 2.794 2.668 4.223 3.548l3.009 1.845c.371.66.692 1.203 1.026 1.756.117.194.241.375.36.568.246.391.493.78.748 1.168.126.182.259.373.386.564.177.26.35.52.528.766l.092 3.067c.045 1.452-.234 3.54 1.082 4.85l5.472 5.448c1.317 1.312 2.71.336 3.753-.033l2.206-.775c.356.235.638.41.92.587.084.056.166.104.246.159.132.08.26.164.387.243.151.09.302.173.453.261.368.222.736.428 1.1.622.16.087.322.169.479.25.248.133.487.26.73.387l2.196 3.328c1.046 1.588 2.43 4.175 3.752 4.395l5.47.915c1.325.22 1.052-2.181 1.102-3.586l.104-2.944c.257-.066.506-.146.746-.226.193-.065.282-.08.354-.114.146-.044.272-.114.404-.166.19-.082.392-.158.585-.247.28-.139.562-.29.835-.46.105-.052 3.143 1.582 3.143 1.582 1.426.781 3.677 2.364 4.224 1.365l2.278-4.152c.55-.997-1.235-3.43-2.208-5.037zM39.478 45.035c0 6.648-5.39 8.916-12.038 5.065-6.648-3.85-12.037-12.363-12.037-19.01 0-6.648 5.39-8.916 12.037-5.065 6.648 3.85 12.038 12.362 12.038 19.01z"/>
    </g>
</svg>
