<svg xmlns="http://www.w3.org/2000/svg" width="20" height="18" viewBox="0 0 20 18">
    <path fill="#5F3CA3" fill-rule="nonzero" d="M20 .045c-.234 4.349-1.17 7.42-5.333 10.954 0 1.848-.703 3.696-2.134 5.001l-2.367-2.772a2.686 2.686 0 0 1-1.77.76 2.82 2.82 0 0 1-2.237-.978c-1.04-1.223-.936-3.098.208-4.186L4 6.052C5.43 4.72 7.252 4.177 9.021 4.394 12.82.453 15.837-.199 20 .045zm-4.319 6.687c.78-.734.833-1.957.156-2.773-.39-.435-.91-.68-1.483-.652a1.84 1.84 0 0 0-1.17.49c-.78.733-.833 1.956-.156 2.771.39.435.91.68 1.483.653.416-.027.832-.19 1.17-.49zM0 18l.137-.437c.027-.11.791-2.705 1.774-3.716.546-.546 1.202-.847 1.802-.847.383 0 .683.11.929.355.628.629.41 1.83-.492 2.732-1.065 1.066-3.604 1.75-3.713 1.804L0 18z"/>
</svg>
