<svg xmlns="http://www.w3.org/2000/svg" width="480" height="300" viewBox="0 0 480 300">
    <path fill="none" fill-rule="nonzero" stroke="#FFF" stroke-opacity=".15" d="M372.652 22.752c-18.438 0-29.291 2.285-50.283 9.052l-.351.113c-21.362 6.886-32.423 9.214-51.347 9.214-14.087 0-26.577-3.66-42.789-11.479a375.908 375.908 0 0 1-8.675-4.345c-1.299-.668-7.19-3.717-8.806-4.547-13.032-6.69-21.924-10.67-32.047-13.936C165.465 2.668 152.369.5 138.019.5 59.54.5.5 61.72.5 148.378.5 235.658 60.197 299.5 138.02 299.5c14.345 0 27.43-2.34 40.307-6.827 10.112-3.525 18.987-7.819 32.017-15.047 1.608-.892 7.426-4.146 8.69-4.848a370.963 370.963 0 0 1 8.564-4.64c16.335-8.529 28.88-12.512 43.073-12.512 18.924 0 29.985 2.327 51.347 9.213l.351.114c20.992 6.766 31.845 9.052 50.283 9.052 58.99 0 106.848-56.229 106.848-125.627 0-69.397-47.857-125.626-106.848-125.626z"/>
</svg>
