<svg xmlns="http://www.w3.org/2000/svg" width="100" height="88" viewBox="0 0 100 88">
    <defs>
        <linearGradient id="a" x1="0%" y1="0%" y2="100%">
            <stop offset="0%" stop-color="#A0459C"/>
            <stop offset="100%" stop-color="#564BE9"/>
        </linearGradient>
    </defs>
    <path fill="none" fill-rule="nonzero" stroke="url(#a)" d="M596.385 495.652c-3.808-2.208-6.039-3.03-10.38-4.14l-.037-.01c-4.524-1.157-6.842-2.01-10.829-4.32-2.976-1.725-5.6-4.177-8.998-8.133-.881-1.026-4.518-5.415-5.489-6.546-4.573-5.33-8.409-8.847-13.149-11.595-15.573-9.027-28.003-3.766-28.003 11.74 0 15.74 12.772 35.954 28.505 45.074 5.646 3.273 9.146 3.843 15.747 3.528 1.399-.067 1.961-.088 2.71-.093 3.472-.021 6.157.579 9.179 2.33 3.99 2.313 6.272 4.122 10.822 8.233 1.044.942 1.55 1.395 2.167 1.934 2.777 2.426 5.197 4.22 8.257 5.994 12.044 6.982 21.613 2.93 21.613-9.035 0-12.201-9.912-27.888-22.115-34.961z" opacity=".5" transform="translate(-519 -456)"/>
</svg>
