<svg xmlns="http://www.w3.org/2000/svg" width="36" height="36" viewBox="0 0 36 36">
    <path fill="#FFF" fill-rule="nonzero" d="M36 18c0 9.941-8.059 18-18 18-9.942 0-18-8.059-18-18C0 8.058 8.058 0 18 0c9.941 0 18 8.058 18 18zm-14.472-7.497c0 .004-.073.017-.22.04a3.184 3.184 0 0 0-.54.15 4.328 4.328 0 0 0-.702.331 3.726 3.726 0 0 0-1.158 1.04 5.4 5.4 0 0 0-.301.467c-.076.138-.153.32-.232.547a4.413 4.413 0 0 0-.178.673c-.039.222-.059.464-.059.726 0 .262.012.466.034.612l.034.218.005.026.003.027-.118-.004a8.304 8.304 0 0 1-.44-.04 12.865 12.865 0 0 1-.955-.157 10.435 10.435 0 0 1-.896-.201 14.343 14.343 0 0 1-.913-.333 9.905 9.905 0 0 1-1.217-.568c-.378-.21-.722-.422-1.032-.638a9.962 9.962 0 0 1-.752-.568 3.493 3.493 0 0 1-.338-.31.25.25 0 0 0-.085-.08c-.022-.008-.138-.12-.346-.335-.209-.216-.389-.411-.541-.586l-.228-.262-.004-.005-.005-.004-.008-.017-.009-.018-.005-.003-.003-.006-.004-.005-.005-.003-.005-.004-.003-.005-.004-.005-.005-.004-.005.004-.003.005-.003.005-.006.004-.008.026-.008.026-.144.332c-.096.222-.17.431-.22.63-.05.198-.084.375-.101.533a4.38 4.38 0 0 0 .059 1.24c.045.228.11.454.198.677.088.225.171.41.25.556.078.145.169.283.27.411.102.128.203.25.305.367a2.25 2.25 0 0 0 .436.397l.003.005.017.009.017.009.003.005.006.003.005.004.003.005.017.009.017.009.003.005.005.003.005.004.004.005.003.005.005.004.005.003.004.006h-.153l-.076-.01a7.286 7.286 0 0 1-.465-.095 3.228 3.228 0 0 1-.65-.21l-.263-.122-.016-.01-.017-.008-.017-.009-.017-.008-.017-.006-.017-.003.03.367c.02.245.06.488.122.725.062.24.155.49.28.752.123.262.264.492.422.69.158.199.302.36.434.487.133.124.273.239.42.344.146.105.343.213.591.323.248.111.4.175.457.193l.118.035.034.008.034.009.034.009.033.008.034.01-.003.004-.005.004-.005.003-.004.006-.042.008-.042.01-.034.008a3.446 3.446 0 0 1-.186.035 4.37 4.37 0 0 1-.55.035c-.264.006-.459 0-.583-.018l-.186-.026-.025-.005-.025-.004.003.018.005.017.008.027.009.026.14.318c.093.213.19.401.291.565.102.163.221.322.358.477.14.154.252.272.339.356.088.085.23.192.427.32.198.128.4.24.609.332.209.094.403.164.583.21.18.047.313.073.398.079l.262.017.135.01-.003.004-.005.004-.006.017-.003.018-.017.003-.017.006-.003.005-.005.003-.005.004-.004.005-.003.005-.005.004-.005.003-.004.005-.388.271c-.26.181-.452.305-.579.371-.127.068-.341.17-.642.308a6.78 6.78 0 0 1-.994.353c-.36.099-.674.169-.939.21a7.32 7.32 0 0 1-1.496.078 9.924 9.924 0 0 1-.414-.026l-.076-.009-.017-.005L9 24.45v.034h.008l.006.004.003.005.003.005.005.004.005.003.004.006.017.008.017.01.003.004.005.004.005.003.004.006.152.096c.101.064.192.117.274.16.082.045.285.15.608.315a9.85 9.85 0 0 0 1.172.495c.456.163.8.274 1.031.332.231.058.55.117.956.175.405.058.64.09.701.096.062.006.141.012.237.018l.144.008v.009h1.099v-.009l.6-.06c.4-.042.758-.091 1.073-.15.316-.058.643-.14.98-.244.34-.105.66-.219.965-.341.304-.122.587-.255.848-.399.263-.142.487-.268.673-.379.186-.11.39-.249.612-.414.223-.167.432-.334.626-.5.195-.166.305-.261.331-.287l.44-.454c.267-.278.488-.527.663-.749a11.779 11.779 0 0 0 1.657-2.849c.185-.454.343-.92.473-1.398.13-.478.225-.906.287-1.285.062-.379.105-.731.127-1.058.023-.326.036-.619.039-.877a.838.838 0 0 1 .321-.658c.211-.177.426-.379.646-.606.22-.227.34-.357.359-.39.02-.031.036-.049.047-.052.011-.003.087-.102.228-.298l.215-.297.005-.003.008-.018.009-.017.005-.004.003-.005.004-.005.005-.004.005-.003.003-.005.004-.006.005-.003.005-.004.003-.005.009-.005.008-.004v-.035l-.034.004-.034.005-.017.009-.016.009-.017.008-.017.01-.026.008-.05.017-.457.158c-.287.099-.589.183-.904.253l-.474.105h-.084l.003-.005.005-.004.005-.003.004-.005.003-.006.005-.003.005-.004.004-.005.016-.009.017-.008.004-.006.005-.003.005-.004.003-.005.017-.009.017-.008.085-.058a.732.732 0 0 0 .143-.122c.04-.044.12-.12.242-.228a3.02 3.02 0 0 0 .41-.475c.151-.21.278-.417.38-.62a2.98 2.98 0 0 0 .16-.35.625.625 0 0 1 .017-.07l.009-.026.008-.018.009-.017.008-.027.008-.026.006-.026.003-.026-.017.003-.017.005-.003.006-.005.003-.005.004-.004.005-.017.009-.017.008-.017.01-.016.008-.004.005-.084.053a8.598 8.598 0 0 1-.453.222 9.361 9.361 0 0 1-.753.314 6.33 6.33 0 0 1-.71.219c-.22.052-.382.024-.485-.084a2.76 2.76 0 0 0-.355-.304 4.8 4.8 0 0 0-.445-.285 4.088 4.088 0 0 0-.507-.245 3.35 3.35 0 0 0-.583-.17l-.322-.066h-.879v.003z"/>
</svg>
