<svg xmlns="http://www.w3.org/2000/svg" xmlns:xlink="http://www.w3.org/1999/xlink" width="352" height="263" viewBox="0 0 352 263">
    <defs>
        <path id="a" d="M1.024.092h23.123V9.44H1.024z"/>
    </defs>
    <g fill="none" fill-rule="evenodd">
        <path fill="#E4F2F9" d="M266.302 225.864h23.119V63.43a7.078 7.078 0 0 0-7.388-7.07l-15.73.504v169"/>
        <path fill="#F3FAFF" d="M259.717 225.864h25.29V63.43c0-4.03-3.361-7.246-7.387-7.07l-17.903.79v168.714"/>
        <path fill="#FFFFFE" d="M279.125 56.454a7.15 7.15 0 0 0-1.134-.1h.057c.397 0 .789.033 1.17.097l-.093.003"/>
        <path fill="#E2F0F1" d="M285.007 68.314V63.43a7.079 7.079 0 0 0-5.882-6.976l.093-.003a7.079 7.079 0 0 1 5.9 6.98v4.879l-.111.004"/>
        <path fill="#ECF5FB" d="M266.302 68.961V56.864l11.429-.504c.087-.004.174-.005.26-.006a7.079 7.079 0 0 1 7.016 7.076v4.884l-18.705.647"/>
        <path fill="#4C99C0" d="M276.168 65.522l-1.49-.68a.956.956 0 0 0-.89.05l-1.405.842.186-1.628a.954.954 0 0 0-.322-.83l-1.235-1.076 1.606-.325a.959.959 0 0 0 .69-.564l.641-1.507.807 1.426a.954.954 0 0 0 .747.482l1.632.144-1.106 1.209a.956.956 0 0 0-.228.86l.367 1.597" opacity=".3"/>
        <path fill="#F3FAFF" d="M56 227h204l-.174-172.627a7.077 7.077 0 0 0-7.404-7.07l-189.924 8.81a7.075 7.075 0 0 0-6.747 7.068L56 227z"/>
        <path fill="#E4F2F9" d="M55.75 69.01v-5.83a7.075 7.075 0 0 1 6.748-7.068l189.924-8.81a7.046 7.046 0 0 1 2.057.205l-.02.002c2.966.738 5.213 3.349 5.36 6.532V54.064c.002.005.002.01.002.016v.004a.6.6 0 0 1 .002.055V54.183c.002.003.002.006.002.01v5.066l-136.007 6.499a4.783 4.783 0 0 1-3.853-1.658l-2.269-2.636a4.774 4.774 0 0 0-3.817-1.66l-19.63.793a4.782 4.782 0 0 0-3.664 1.951l-2.294 3.13a4.776 4.776 0 0 1-3.628 1.95l-28.912 1.383"/>
        <path fill="#E4F2F9" d="M254.46 47.51c3.068.763 5.366 3.53 5.366 6.863L260 227h6.302V54.373a7.077 7.077 0 0 0-7.404-7.07l-4.438.206z"/>
        <path fill="#6E68A0" d="M147.619 76.276l-66.563 2.685a7.076 7.076 0 0 0-6.79 7.071v16.532a7.076 7.076 0 0 0 7.325 7.073l66.563-2.354a7.077 7.077 0 0 0 6.826-7.072V83.347a7.076 7.076 0 0 0-7.361-7.07"/>
        <path fill="#4C99C0" d="M131.695 62.354l-7.032.337a1.105 1.105 0 0 1-1.073-.72l-.635-1.624c-.292-.742.202-1.559.961-1.595l7.032-.338c.465-.022.894.266 1.074.72l.635 1.623c.29.742-.203 1.56-.962 1.597" opacity=".3"/>
        <path fill="#EECC27" d="M74.265 165.382v30.62a7.075 7.075 0 0 0 7.186 7.075l66.563-1.028a7.077 7.077 0 0 0 6.966-7.075v-30.927a7.075 7.075 0 0 0-7.218-7.074l-66.563 1.335a7.075 7.075 0 0 0-6.934 7.074"/>
        <path fill="#75E5AA" d="M74.265 124.454V141.6a7.075 7.075 0 0 0 7.245 7.073l66.563-1.599A7.076 7.076 0 0 0 154.98 140v-17.145a7.076 7.076 0 0 0-7.247-7.074l-66.563 1.6a7.075 7.075 0 0 0-6.905 7.073"/>
        <path fill="#F0F8FD" d="M33.428 89.183L3 90.123s.158-4.824 3.064-4.884c2.371-.048 2.227 1.016 2.662.87 1.549-2.854 3.631-6.383 6.776-6.372 4.644-.402 6.956 3.518 7.304 3.663 1.646-.532 3.434-1.224 6.896.642 2.492 1.342 3.726 5.14 3.726 5.14"/>
        <path fill="#D24B49" d="M64.976 63.115c.044.979-.698 1.808-1.66 1.854-.963.044-1.78-.712-1.827-1.691-.044-.98.698-1.809 1.66-1.853.964-.045 1.78.712 1.827 1.69"/>
        <path fill="#EECC27" d="M71.1 62.85c.044.978-.697 1.807-1.66 1.853-.963.045-1.78-.712-1.826-1.691-.045-.978.697-1.809 1.66-1.853.963-.045 1.78.712 1.826 1.691"/>
        <path fill="#4C99C0" d="M77.223 62.564c.046.978-.697 1.809-1.66 1.853-.962.045-1.78-.712-1.825-1.69-.046-.979.697-1.808 1.66-1.854.963-.044 1.78.712 1.825 1.691"/>
        <path fill="#FFFFFE" d="M234.988 78.443l-.33.007-48.671 2.4c-3.44.17-6.134 3-6.134 6.445v104.001c0 1.747.687 3.383 1.934 4.605 1.245 1.224 2.9 1.922 4.64 1.846l48.67-.918c3.492-.066 6.332-2.962 6.332-6.454V84.894a6.396 6.396 0 0 0-2.004-4.673 6.387 6.387 0 0 0-4.437-1.778M186.3 198.997a7.634 7.634 0 0 1-5.388-2.205 7.638 7.638 0 0 1-2.307-5.496V87.295c0-4.111 3.215-7.49 7.32-7.69l48.672-2.401a7.637 7.637 0 0 1 5.687 2.113 7.624 7.624 0 0 1 2.391 5.577v105.481c0 4.166-3.389 7.622-7.553 7.7l-48.672.921-.15.001"/>
        <path fill="#7461FF" d="M85.055 108.888a7.064 7.064 0 0 1-3.914-6.324V86.032a7.079 7.079 0 0 1 4.613-6.636l61.89-2.495a6.383 6.383 0 0 1 4.731 1.792 6.397 6.397 0 0 1 1.98 4.653v16.865a6.427 6.427 0 0 1-6.225 6.446l-63.075 2.231m42.867-13.137l-.103.002-22.477.907a2.495 2.495 0 0 0 .1 4.99l.103-.003 22.476-.906a2.495 2.495 0 0 0-.1-4.99m13.321-10.048l-.102.002-35.798 1.445a2.495 2.495 0 0 0 .1 4.989l.103-.001 35.797-1.445a2.495 2.495 0 0 0-.1-4.99"/>
        <path fill="#6352E2" d="M81.263 109.019c-1.665 0-3.205-.657-4.403-1.813a6.4 6.4 0 0 1-1.972-4.643V86.03a6.433 6.433 0 0 1 6.193-6.447l4.673-.188a7.079 7.079 0 0 0-4.613 6.636v16.532c0 2.778 1.6 5.166 3.914 6.324l-3.487.123a5.786 5.786 0 0 1-.305.008"/>
        <path fill="#FFFFFE" d="M147.643 76.9l-66.562 2.684a6.433 6.433 0 0 0-6.193 6.447v16.532a6.4 6.4 0 0 0 1.972 4.643c1.27 1.228 2.927 1.89 4.708 1.805l66.562-2.354a6.427 6.427 0 0 0 6.225-6.446V83.346a6.397 6.397 0 0 0-1.98-4.653 6.378 6.378 0 0 0-4.732-1.792m-66.31 33.363a7.64 7.64 0 0 1-5.34-2.16 7.642 7.642 0 0 1-2.352-5.541V86.03a7.682 7.682 0 0 1 7.39-7.695l66.56-2.684c2.122-.066 4.122.677 5.648 2.141a7.631 7.631 0 0 1 2.365 5.553v16.865a7.67 7.67 0 0 1-7.43 7.694l-66.561 2.355-.28.004"/>
        <path fill="#FFFFFE" d="M95.73 94.202c0 3.232-2.478 5.851-5.537 5.851-3.06 0-5.539-2.62-5.539-5.85 0-3.232 2.479-5.851 5.539-5.851 3.059 0 5.538 2.62 5.538 5.85"/>
        <path fill="#E3DEE7" d="M105.442 92.139a2.495 2.495 0 0 1-.1-4.989l35.798-1.445.102-.002a2.496 2.496 0 0 1 .1 4.99l-35.797 1.445-.103.001M105.442 101.65a2.496 2.496 0 0 1-.1-4.99l22.477-.907.103-.002a2.495 2.495 0 0 1 .1 4.99l-22.477.906-.103.003"/>
        <path fill="#FFFFFE" d="M74.265 124.454h-.674V141.6a7.75 7.75 0 0 0 7.748 7.75l.187-.002 66.564-1.6a7.75 7.75 0 0 0 7.564-7.748v-17.145a7.75 7.75 0 0 0-7.747-7.751l-.19.003-66.563 1.6a7.75 7.75 0 0 0-7.563 7.747h1.349a6.4 6.4 0 0 1 6.248-6.4l66.562-1.599.157-.002a6.38 6.38 0 0 1 4.521 1.872 6.376 6.376 0 0 1 1.877 4.53V140a6.4 6.4 0 0 1-6.248 6.4L81.494 148h.001l-.156.002a6.376 6.376 0 0 1-4.52-1.872 6.372 6.372 0 0 1-1.88-4.53v-17.146h-.674"/>
        <path fill="#75E5AA" d="M84.728 147.922a7.074 7.074 0 0 1-3.897-6.322v-17.146a7.078 7.078 0 0 1 4.259-6.494l62.66-1.505.157-.002c1.06 0 2.061.259 2.942.716l-24.2 7.103-21.27.583a2.495 2.495 0 0 0 .067 4.991l.069-.001 4.579-.126a5.821 5.821 0 0 0-1.923 4.694l-2.629.064a2.496 2.496 0 0 0 .06 4.992l.063-.001 3.815-.094 2.318 7.897-27.07.651"/>
        <path fill="#59DD98" d="M81.339 148.002a6.376 6.376 0 0 1-4.52-1.872 6.372 6.372 0 0 1-1.88-4.53v-17.146a6.4 6.4 0 0 1 6.249-6.4l3.902-.094a7.078 7.078 0 0 0-4.26 6.494V141.6c0 2.77 1.59 5.16 3.898 6.322l-3.234.078h.001l-.156.002"/>
        <path fill="#FFFFFE" d="M81.339 148.181a7.078 7.078 0 0 1-7.075-7.078V123.96a7.076 7.076 0 0 1 6.906-7.075l66.563-1.6.174-.002c1.627 0 3.13.553 4.327 1.48l-1.385.407a6.367 6.367 0 0 0-2.942-.716l-.157.002-62.66 1.505-3.902.095a6.4 6.4 0 0 0-6.248 6.4V141.6c0 1.775.717 3.37 1.878 4.53a6.376 6.376 0 0 0 4.521 1.872l.156-.002 3.233-.078 27.07-.651.052.178-30.34.73a7.252 7.252 0 0 1-.171.002"/>
        <path fill="#FFFFFE" d="M95.368 132.696c0 3.206-2.398 5.803-5.357 5.803-2.96 0-5.357-2.597-5.357-5.803s2.398-5.803 5.357-5.803 5.357 2.597 5.357 5.803"/>
        <path fill="#E0F0E5" d="M105.446 129.846a2.496 2.496 0 0 1-.067-4.991l21.27-.583-14.318 4.203a5.789 5.789 0 0 0-2.237 1.244l-4.579.126-.069.001"/>
        <path fill="#FFF" d="M105.603 139.469a2.497 2.497 0 0 1-.061-4.992l2.629-.064c.027.422.1.847.225 1.269l1.084 3.692-3.815.094h-.062" opacity=".7"/>
        <path fill="#FFFFFE" d="M74.264 165.382h-.674v30.62a7.75 7.75 0 0 0 7.748 7.75h.122l66.563-1.028a7.753 7.753 0 0 0 7.631-7.75v-30.927a7.75 7.75 0 0 0-7.747-7.75l-.16.002-66.562 1.335a7.75 7.75 0 0 0-7.595 7.748h1.348a6.4 6.4 0 0 1 6.274-6.4l66.563-1.335h.132c1.764 0 3.36.713 4.521 1.871a6.375 6.375 0 0 1 1.877 4.529v30.927a6.404 6.404 0 0 1-6.303 6.401l-66.562 1.028-.102.001a6.378 6.378 0 0 1-4.522-1.873 6.383 6.383 0 0 1-1.878-4.529v-30.62h-.674"/>
        <path fill="#61E3F0" d="M85.28 202.343a7.078 7.078 0 0 1-4.45-6.573v-30.619a7.062 7.062 0 0 1 3.744-6.236l63.201-1.268h.132c1.764 0 3.36.713 4.521 1.871a6.375 6.375 0 0 1 1.877 4.529v30.927a6.404 6.404 0 0 1-6.303 6.401l-62.722.968m3.982-36.876a2.497 2.497 0 0 0-2.496 2.496v26.257a2.497 2.497 0 0 0 4.994 0v-26.257a2.497 2.497 0 0 0-2.498-2.496m31.724.066a2.498 2.498 0 0 0-2.497 2.498v25.698a2.497 2.497 0 0 0 4.993 0v-25.698a2.498 2.498 0 0 0-2.496-2.498"/>
        <path fill="#48D8E6" d="M81.338 202.404a6.378 6.378 0 0 1-4.522-1.873 6.383 6.383 0 0 1-1.878-4.529v-30.62a6.4 6.4 0 0 1 6.274-6.4l3.362-.067a7.062 7.062 0 0 0-3.743 6.236v30.619a7.078 7.078 0 0 0 4.449 6.573l-3.84.06-.102.001"/>
        <path fill="#FFFFFE" d="M81.338 203.078a7.076 7.076 0 0 1-7.074-7.076v-30.62a7.076 7.076 0 0 1 6.935-7.074l36.204-.727a5.801 5.801 0 0 0 3.492.07l.51-.15 26.357-.528.145-.001a7.076 7.076 0 0 1 7.073 7.075v30.927a7.078 7.078 0 0 1-6.967 7.075l-66.562 1.028-.113.001m-6.4-37.696v30.62a6.383 6.383 0 0 0 1.878 4.529 6.378 6.378 0 0 0 4.522 1.873l.102-.001 3.84-.06 62.722-.968a6.404 6.404 0 0 0 6.303-6.4v-30.928a6.375 6.375 0 0 0-1.877-4.529 6.376 6.376 0 0 0-4.52-1.872l-.133.001-63.2 1.268-3.363.068a6.4 6.4 0 0 0-6.274 6.399"/>
        <path fill="#7461FF" d="M89.262 196.715a2.497 2.497 0 0 1-2.496-2.495v-26.257a2.497 2.497 0 0 1 4.994 0v26.257a2.497 2.497 0 0 1-2.498 2.495"/>
        <path fill="#FFFFFE" d="M105.125 196.471a2.497 2.497 0 0 1-2.496-2.496v-15.3a2.496 2.496 0 1 1 4.993 0v15.3a2.497 2.497 0 0 1-2.497 2.496M137.848 195.293a2.497 2.497 0 0 1-2.496-2.496v-15.3a2.496 2.496 0 1 1 4.992 0v15.3a2.497 2.497 0 0 1-2.496 2.496"/>
        <path fill="#7461FF" d="M120.986 196.224a2.497 2.497 0 0 1-2.497-2.495v-25.698a2.498 2.498 0 0 1 2.497-2.498 2.498 2.498 0 0 1 2.496 2.498v25.698a2.497 2.497 0 0 1-2.496 2.495"/>
        <path fill="#F0F8FD" d="M279.531 20.829l-66.107 2.043s.344-10.516 6.658-10.611c4.316-.065 4.835 2.207 5.782 1.892 1.717-3.164 5.157-4.69 9.047-4.9.42-3.89 4.52-9.161 9.987-9.084 8.305-.98 10.802 7.784 11.558 8.097 3.575-1.156 8.836-.906 12.41 4.98 9.567-.105 10.665 7.583 10.665 7.583M351.334 151.843l-42.334.98s.321-4.193 6.192-4.244c4.789-.042 4.496.883 5.375.756 1.825-3.816 4.269-7.344 10.622-7.335 6.16-.03 9.304 5.136 10.006 5.261 3.325-.462 5.732-1.45 8.371.702 1.8 1.467 1.768 3.88 1.768 3.88"/>
        <path fill="#75E5AA" d="M190.923 197.662a7.073 7.073 0 0 1-4.724-6.672v-52.507l.422-.124v1.924a2.19 2.19 0 0 0 2.187 2.19l.076-.002 12.467-.426a2.187 2.187 0 0 0 2.113-2.192l-.015-6.434 6.062-1.78c.254.129.54.2.84.2l.096-.002 22.78-1.144a1.874 1.874 0 0 0 1.775-1.963c-.05-1.01-.902-1.778-1.893-1.778l-.07.001-9.15.46a5.807 5.807 0 0 0 3.666-7.12l-.065-.22 5.736-.29a1.874 1.874 0 0 0 1.776-1.963c-.05-1.017-.917-1.776-1.92-1.776l-.043.001-6.633.333-2.069-7.045 9.097-.457a1.872 1.872 0 0 0-.098-3.741l-.09.001-9.993.502-.991-3.38a5.81 5.81 0 0 0-7.208-3.935l-28.855 8.47v-13.31c.343.443.88.725 1.478.725l.094-.003 27.707-1.392a1.874 1.874 0 0 0 1.777-1.963c-.05-1.01-.89-1.778-1.893-1.778-.023 0-.047 0-.07.002l-27.708 1.391a1.868 1.868 0 0 0-1.385.722V86.99a7.076 7.076 0 0 1 3.936-6.344l44.524-2.196.329-.007c1.661 0 3.224.625 4.437 1.778a6.396 6.396 0 0 1 2.004 4.673v105.481c0 3.492-2.84 6.388-6.332 6.454l-44.174.833m39.324-22.425l-.052.001-39.164.584a3.521 3.521 0 0 0-3.469 3.515l-.007 4.385a3.519 3.519 0 0 0 3.518 3.526h.055l39.178-.587a3.519 3.519 0 0 0 3.468-3.524l-.007-4.386a3.521 3.521 0 0 0-3.52-3.514m1.575-38.003l-.113.003-20.165.701a3.17 3.17 0 0 0-3.063 3.17v18.108a3.174 3.174 0 0 0 3.283 3.17l20.192-.7a3.173 3.173 0 0 0 3.063-3.177l-.029-18.107a3.171 3.171 0 0 0-3.168-3.168m1.403-49.059l-.084.002-3.013.152a1.872 1.872 0 0 0 .092 3.741l.095-.001 3.015-.152a1.87 1.87 0 0 0 1.775-1.964 1.883 1.883 0 0 0-1.88-1.778"/>
        <path fill="#59DD98" d="M186.172 197.753c-1.646 0-3.2-.687-4.385-1.852a6.397 6.397 0 0 1-1.934-4.605v-50.95l6.346-1.863v52.507a7.073 7.073 0 0 0 4.724 6.672l-4.497.085c-.084.004-.17.006-.254.006m-6.319-89.097V87.295a6.444 6.444 0 0 1 6.134-6.444l4.148-.205a7.076 7.076 0 0 0-3.936 6.344v4.197a1.869 1.869 0 0 0 0 2.297v13.31l-6.346 1.862"/>
        <path fill="#D5F7E5" d="M230.22 92.07a1.873 1.873 0 0 1-.092-3.74l3.013-.153.084-.002c.986 0 1.83.774 1.88 1.778a1.87 1.87 0 0 1-1.775 1.964l-3.015.152-.095.001M187.677 94.208a1.87 1.87 0 0 1-1.478-.724v-2.297a1.868 1.868 0 0 1 1.385-.722l27.708-1.391c.023-.002.047-.002.07-.002 1.003 0 1.844.769 1.893 1.778a1.874 1.874 0 0 1-1.777 1.963l-27.707 1.392-.094.003"/>
        <path fill="#D1E8D8" d="M186.199 93.484a1.869 1.869 0 0 1 0-2.297v2.297"/>
        <path fill="#D5F7E5" d="M224.337 109.333l-1.084-3.695 9.992-.502.09-.001a1.872 1.872 0 0 1 .098 3.741l-9.096.457M227.49 120.072l-1.084-3.694 6.633-.333.043-.001c1.003 0 1.87.76 1.92 1.776a1.874 1.874 0 0 1-1.776 1.964l-5.736.288M210.352 131.84c-.301 0-.587-.072-.84-.2l14.108-4.14c.09-.027.18-.056.268-.087l9.15-.46.071-.001c.991 0 1.844.769 1.893 1.778a1.874 1.874 0 0 1-1.776 1.963l-22.779 1.144-.095.003"/>
        <path fill="#FFFFFE" d="M188.884 142.471l12.467-.426a2.187 2.187 0 0 0 2.113-2.192l-.027-11.722a2.188 2.188 0 0 0-2.263-2.182l-12.44.424a2.188 2.188 0 0 0-2.113 2.187v11.723a2.19 2.19 0 0 0 2.263 2.188M188.81 161.646l12.61-.43a2.117 2.117 0 0 0 2.044-2.121l-.027-11.865a2.117 2.117 0 0 0-2.19-2.11l-12.58.429a2.117 2.117 0 0 0-2.046 2.116v11.864c0 1.199.992 2.158 2.19 2.117"/>
        <path fill="#D5F7E5" d="M211.652 162.39a3.174 3.174 0 0 1-3.17-3.174v-18.109a3.17 3.17 0 0 1 3.062-3.169l20.165-.701.113-.003a3.171 3.171 0 0 1 3.168 3.168l.029 18.107a3.173 3.173 0 0 1-3.063 3.176l-20.192.702a3.175 3.175 0 0 1-.112.002M191.073 187.248a3.519 3.519 0 0 1-3.518-3.526l.007-4.385a3.521 3.521 0 0 1 3.469-3.515l39.164-.584.052-.001a3.521 3.521 0 0 1 3.52 3.514l.007 4.386a3.519 3.519 0 0 1-3.468 3.524l-39.178.587h-.055"/>
        <path fill="#2C2C6B" d="M114.272 124.528l-1.136-.725 40.687-63.715a4.173 4.173 0 0 1 2.87-1.833 4.167 4.167 0 0 1 3.273.919l43.966 36.573-.863 1.037-43.966-36.573a2.82 2.82 0 0 0-4.15.612l-40.681 63.705" opacity=".3"/>
        <path fill="#27283B" d="M159.09 59.572a2.354 2.354 0 1 1-4.707-.001 2.354 2.354 0 0 1 4.708 0"/>
        <path fill="#C1DEF2" d="M112.19 148.611l-.34-1.162 36.223-.87a7.077 7.077 0 0 0 6.907-7.074V122.36a7.06 7.06 0 0 0-2.746-5.597l.334-.099a7.737 7.737 0 0 1 3.086 6.19V140a7.75 7.75 0 0 1-7.564 7.748l-35.9.863"/>
        <path fill="#C1DEF2" d="M111.798 147.27l-2.318-7.896 32.387-.797a2.495 2.495 0 0 0-.06-4.99l-.063.002-33.573.824a5.821 5.821 0 0 1 1.923-4.694l26.822-.733a2.497 2.497 0 0 0 2.427-2.564 2.484 2.484 0 0 0-2.563-2.426l-10.13.276 24.199-7.103a6.478 6.478 0 0 1 1.58 1.156 6.376 6.376 0 0 1 1.876 4.53V140a6.4 6.4 0 0 1-6.248 6.4l-36.259.87"/>
        <path fill="#C1DEF2" d="M116.074 156.934a5.79 5.79 0 0 1-2.385-3.218l-1.498-5.105 35.899-.863a7.75 7.75 0 0 0 7.564-7.748v-17.145a7.737 7.737 0 0 0-3.086-6.19l26.038-7.643v31.69l-54.736 16.066-7.796.156"/>
        <path fill="#C1DEF2" d="M111.85 147.449l-.052-.178 36.26-.871a6.4 6.4 0 0 0 6.247-6.4v-17.145c0-1.775-.717-3.37-1.877-4.53a6.478 6.478 0 0 0-1.58-1.156l1.386-.406a7.06 7.06 0 0 1 2.746 5.597v17.145a7.077 7.077 0 0 1-6.907 7.074l-36.223.87"/>
        <path fill="#CEE7DA" d="M110.094 129.72a5.789 5.789 0 0 1 2.237-1.245l14.319-4.203 10.13-.276c.021-.002.043-.002.064-.002a2.484 2.484 0 0 1 2.5 2.428 2.497 2.497 0 0 1-2.428 2.564l-26.822.733M109.48 139.374l-1.084-3.692a5.81 5.81 0 0 1-.225-1.27l33.573-.823.062-.002a2.495 2.495 0 1 1 .06 4.99l-32.386.797"/>
        <path fill="#FFFFFE" d="M117.403 157.581a5.808 5.808 0 0 1-1.33-.647l7.797-.156-2.465.724-4.002.08"/>
        <path fill="#FFFFFE" d="M119.257 157.888a5.742 5.742 0 0 1-1.854-.307l4.002-.08-.51.15a5.801 5.801 0 0 1-1.638.237"/>
        <path fill="#79C2A6" d="M186.199 138.483v-31.69l28.855-8.47a5.81 5.81 0 0 1 7.207 3.935l.992 3.38-12.787.643a1.873 1.873 0 0 0 .093 3.743l.095-.003 13.683-.688 2.07 7.045-16.148.811a1.872 1.872 0 0 0 .093 3.743l.095-.003 17.043-.857.065.22a5.807 5.807 0 0 1-3.667 7.121l-13.63.684a1.87 1.87 0 0 0-1.774 1.964 1.871 1.871 0 0 0 1.027 1.579l-6.062 1.779-.012-5.288a2.188 2.188 0 0 0-2.187-2.184c-.025 0-.05 0-.076.002l-12.44.424a2.188 2.188 0 0 0-2.113 2.187v9.799l-.422.124"/>
        <path fill="#29B96F" d="M179.853 140.346v-31.69l6.346-1.862v31.689l-6.346 1.863"/>
        <path fill="#B9DDCB" d="M210.56 110.024a1.873 1.873 0 0 1-.094-3.743l12.787-.643 1.084 3.695-13.683.688-.095.003M210.352 120.932a1.872 1.872 0 0 1-.093-3.743l16.147-.81 1.084 3.693-17.043.857-.095.003M209.511 131.64a1.871 1.871 0 0 1-1.027-1.58 1.87 1.87 0 0 1 1.775-1.963l13.63-.684c-.088.031-.179.06-.27.087l-14.108 4.14"/>
        <path fill="#EAE6DE" d="M186.62 138.359v-9.8c0-1.178.935-2.145 2.114-2.186l12.44-.424c.026-.002.051-.002.076-.002 1.201 0 2.184.973 2.187 2.184l.012 5.288-16.828 4.94"/>
        <path fill="#E0F0FC" d="M178.606 140.712v-31.69l1.247-.366v31.69l-1.247.366"/>
        <path fill="#DAEDF7" d="M220.084 123.088L117.36 153.24a5.807 5.807 0 0 1-7.206-3.937l-5.294-18.034a5.807 5.807 0 0 1 3.936-7.206L211.52 93.911a5.806 5.806 0 0 1 7.206 3.936l5.293 18.034a5.808 5.808 0 0 1-3.935 7.207"/>
        <path fill="#DAEDF7" d="M213.161 95.022c-.422 0-.846.061-1.261.183l-102.725 30.153a4.428 4.428 0 0 0-2.657 2.14 4.429 4.429 0 0 0-.364 3.39l5.294 18.036a4.46 4.46 0 0 0 5.532 3.021l102.723-30.152a4.462 4.462 0 0 0 3.023-5.532l-5.294-18.034a4.43 4.43 0 0 0-2.14-2.657 4.436 4.436 0 0 0-2.131-.548zm-97.433 59.803c-3.093 0-5.954-2.026-6.868-5.143l-5.294-18.033a7.162 7.162 0 0 1 4.85-8.88l102.725-30.153c3.785-1.11 7.768 1.066 8.88 4.85l5.291 18.036c1.113 3.784-1.064 7.768-4.848 8.88l-102.725 30.153a7.11 7.11 0 0 1-2.01.29z"/>
        <path fill="#FFF" d="M120.136 133.873a2.597 2.597 0 0 1-.731-5.09l84.71-24.865a2.597 2.597 0 1 1 1.463 4.985l-84.708 24.865c-.246.07-.491.105-.734.105M143.4 138.81a2.597 2.597 0 0 1-.73-5.09l44.539-13.074a2.6 2.6 0 0 1 3.224 1.76 2.599 2.599 0 0 1-1.761 3.224l-44.54 13.074c-.244.072-.49.105-.732.105"/>
        <path fill="#D8DDE9" d="M12 227v-1h310v1zM0 227v-1h3v1zM5 227v-1h5v1zM331 227v-1h3v1zM324 227v-1h5v1z"/>
        <path fill="#EED7B2" d="M51.312 254.05v6.665H48.51v-7.075l2.802.41"/>
        <g transform="translate(33.716 253.548)">
            <mask id="b" fill="#fff">
                <use xlink:href="#a"/>
            </mask>
            <path fill="#EED7B2" d="M5.12.092l-.916 7.075L1.4 6.514 1.95.092h3.17" mask="url(#b)"/>
            <path fill="#292933" d="M24.086 8.782a.737.737 0 0 1-.662.447l-8.252.212a.738.738 0 0 1-.741-.882l.276-2.904 8.881 2.119c.441.11.678.589.498 1.008M10.934 8.935a.741.741 0 0 1-.663.448l-8.49.058a.738.738 0 0 1-.743-.882l.363-2.904 9.034 2.271a.74.74 0 0 1 .499 1.009" mask="url(#b)"/>
        </g>
        <path fill="#34529A" d="M36.431 202.415l-1.679 9.265c-.064.353-.021.719.123 1.05l.581 1.33-.802 41.984h4.862l5.576-31.777-3.67-22.483-4.99.63"/>
        <path fill="#101112" d="M42.898 236.768a3.391 3.391 0 0 0-.272-.989c-.426-.952-3.545-2.57-3.759-4.278-.289-2.3 1.554-3.754 1.006-5.33-1.02-2.937 1.326-4.785 1.326-6.696 0-.725-2.453-4.116-1.69-4.882 1.117-1.115 1.852-2.515 1.852-2.515L45 224.79l-.124.708-.054.304-1.925 10.966" opacity=".1"/>
        <path fill="#34529A" d="M39.77 201.171h11.528l2.028 4.358c.062.13.1.272.112.417.2 2.32 1.926 22.394 1.818 23.445-.115 1.115-2.869 25.936-3.098 26.316-.23.38-4.46.44-4.46.44s-1.448-16.693-1.448-17.094c0-.363.188-6.617.223-7.785l.18-.235c.263-.08.732-.256.723-.505-.007-.195-.781-.31-.896-.538-.116-.23-4.933-15.6-5.22-16.232-.286-.63-1.49-12.587-1.49-12.587"/>
        <path fill="#9DE6FF" d="M31.328 176.71l-3.097 14.631a4.306 4.306 0 0 0 2.026 4.293l4.052 1.905-2.981-20.83"/>
        <path fill="#171919" d="M34.058 197.422a.108.108 0 0 1-.037-.017l.037.016v.001"/>
        <path fill="#8CD9F2" d="M34.058 197.42l-.037-.015c-.348-.247-2.159-2.888-2.159-3.841 0-.996.765-2.371.498-2.869-.269-.498-1.454-.917-1.112-1.72.343-.803-.036-2.714-.38-3.71-.298-.86.32-3.007.74-5.7.636 5.147 1.665 13.382 1.898 14.59.138.711.348 1.987.552 3.266"/>
        <path fill="#9DE6FF" d="M56.757 189.82l-.151-.149-.027-.028-.004-.01c-.17-.478-1.195-15.626-5.466-17.732-.069-.232-2.346-.46-2.346-.46l-10.038.23-5.887 2.878a2.723 2.723 0 0 0-1.506 2.777c.553 4.498 1.902 15.423 2.174 16.83.241 1.246.708 4.237.966 5.918.116.76.554 1.433 1.201 1.851l.758.49 14.867-1.244.09-.758.016-.129.123-1.039.082-.68.085-.718a724.6 724.6 0 0 0 .205-1.725c.069-.573.14-1.177.216-1.798.286.386.506.653.616.727a1.2 1.2 0 0 0 .294.116c.476.148 2.683.546 2.692.53 4.081.673 10.899 1.523 11.32 1.551.583.04 1.548-1.802 1.548-1.802s-10.319-4.516-11.828-5.626"/>
        <path fill="#EED7B2" d="M40.15 157.19c1.23-.403 3.445-1.134 4.406.234.959 1.366 2.902 5.683 2.843 6.051-.061.368-1.29 3.238-1.485 3.774-.196.534.272 4.415.272 4.415h-7.163l-.972-7.428 2.099-7.046"/>
        <path fill="#2A2A40" d="M33.72 159.445c-.267 1.925 2.957 5.442 3.183 5.97.226.527.877 2.556 1.94 2.632 1.061.074 3.505-1.065 4.06-1.74.552-.674.096-3.195-.141-3.966-.236-.772.95-1.28 1.258-.851.31.43.347 1.756.648 2.094.302.339.71.695.837 1.327.127.631.31 2.986.476 3.228.166.241 1.952.442 2.524.104.573-.34.764-1.64.184-2.7-.58-1.063-1.29-2.505-1.513-2.44-.222.065-1.494.296-1.777-.145-.282-.44-1.118-2.608-1.307-2.902-.188-.294-.885-.9-1.005-1.254-.121-.353.218-2.402-.008-2.93-.227-.527-1.13-1.98-2.975-1.627-1.845.354-2.877 1.05-3.11 1.334-.637.771-.343 1.458-.874 2.183-.243.332-2.258.668-2.4 1.683"/>
        <path fill="#171919" d="M42.52 165.266c-.64.016-.846.672-1.586.432-.739-.242-1.078-.177-1.642.373-.564.55-1.56-.488-2.045-1.108-.325-.416-1.111-1.098-1.824-1.582.705.995 1.38 1.803 1.48 2.033.226.528.877 2.557 1.94 2.633 1.061.074 3.505-1.065 4.06-1.74.158-.194.231-.543.253-.955a2.324 2.324 0 0 0-.635-.086"/>
        <path fill="#9DE6FF" d="M38.016 172.202l.297-1.833c.077-.469.47-.824.946-.85l6.6-.367c.496-.027.94.308 1.047.793l.387 1.74-9.277.517"/>
        <path fill="#29283B" d="M68.818 202.457L63.1 198.72a.827.827 0 0 1-.239-1.143l5.728-8.76a.826.826 0 0 1 1.142-.24l5.717 3.74c.382.249.488.76.24 1.141l-5.729 8.761a.823.823 0 0 1-1.141.238"/>
        <path fill="#EED7B2" d="M59.631 191.326c3.552 1.689 8.95 4.119 8.954 4.12l.433.132c.87.235 2.313.253 3.375.868 1.063.613 1.71.713 1.562 1.093-.136.356-.414.383-.81.174-.493-.259-.667.8-.87.965-.735.594-2.576-.23-3.036-.633-.46-.403-2.255-.787-2.255-.787l.008-.014c-.59-.054-6.172-.75-10.188-1.372l2.827-4.546"/>
        <path fill="#171919" d="M51.608 198.566h.001v-.002l-.001.002m.279-2.333l.012-.111c.069-.573.14-1.177.216-1.798l-.228 1.909"/>
        <path fill="#8CD9F2" d="M51.396 199.289c-.676 0-1.99-2.92-2.355-3.036-.852-.269-1.067-2.478-.743-3.124.323-.646.215-1.776-.431-3.176-.646-1.4-1.739-2.315-.574-3.555 1.166-1.238 2.405-.538 1.005-2.477-1.401-1.937-1.527-2.584-.9-3.39.63-.81 1.169-.97 1.169-.97l3.548 14.763c-.076.62-.147 1.225-.216 1.798l-.012.11-.278 2.332v.002h-.001l-.081.68a.212.212 0 0 1-.131.043"/>
        <path fill="#D8C09B" d="M249.03 230.11c-.758 1.41-2.201 3.88-2.412 4.719-.209.838 4.428 4.397 4.848 4.922.419.523 1.35.76 1.439-.034.025-.215-3.245-4.888-3.35-5.412-.104-.526.891-3.462.891-3.462l-1.416-.733M275.001 231.085s1.732 4.947 2.047 5.475c.315.53 1.121.347 1.54.347.42 0 4.638-1.246 6.684-1.957.423-.146.355-1.455-.49-1.396-.595.042-3.043.44-5.25.695a1.696 1.696 0 0 1-1.747-1.007l-.652-2.586-2.132.429"/>
        <path fill="#29283B" d="M250.783 237.212c-.454.055-2.463-1.875-3.737-3.415-.212.431-.37.795-.428 1.032-.209.838 4.428 4.397 4.848 4.922.419.523 1.35.76 1.439-.034.013-.114-.89-1.467-1.762-2.798-.096.162-.213.275-.36.293M284.781 233.554c-.385.027-.852.053-2.22.243-.337.376-1.434.933-1.712 1.067-.693.331-2.816.548-4.242.648.201.524.363.92.441 1.048.315.53 1.121.347 1.54.347.42 0 4.638-1.246 6.684-1.957.423-.146.355-1.455-.49-1.396"/>
        <path fill="#CDE1EC" d="M251.843 196.678c1.93 1.609 4.137-1.34 3.465-2.011-.67-.67-2.847-6.579-2.958-7.361-.112-.782.915-4.876 2.356-5.658 1.445-.782 8.648-1.285 9.654-.39 1.006.893 4.693 3.574 5.252 4.022.558.447-.67 3.562-.782 3.625-.112.062 3.24.273 3.687 0 .448-.273 1.79-5.413 1.342-6.195-.448-.783-9.275-8.829-9.945-9.275-.672-.448-2.124-1.006-2.46-1.118-.335-.11-3.241-.67-3.8-.67-.404 0-2.39.585-3.668 1.12-.485.204-.841.439-1.025.556-2.15 1.367-5.6 13.242-5.713 13.689-.112.446 3.925 9.107 4.595 9.666"/>
        <path fill="#F6FAFB" d="M252.92 189.137v-.001a29.561 29.561 0 0 1 0 .001M269.521 187.054c.196-.702.321-1.4.16-1.689.161.289.041.985-.154 1.685-.003 0-.004.002-.006.004"/>
        <path fill="#C7D8E6" d="M252.92 189.136c-1.476-1.152-2.748-1.652-3.088-2.236-.39-.67.168-1.062.838-1.508.67-.448 1.224-.839.976-1.733-.25-.893-.174-1.954.766-2.624.579-.414 1.283-1.272 1.812-1.922-.022.454-.035.894-.035 1.289 0 .682.041 1.235.157 1.516-1.18 1.123-2.002 4.293-2.004 5.244 0 .056.003.105.008.144.012.083.047.226.103.417.1.343.264.841.466 1.413m16.608-2.086c.195-.7.315-1.396.155-1.685a.272.272 0 0 0-.07-.085c-.35-.28-1.932-1.44-3.31-2.487a57.343 57.343 0 0 1-1.616-1.26c.031-1.16.076-2.218.122-2.624.017-.163.054-.42.098-.736a.49.49 0 0 1 .181.122c.67.838 1.229.112 2.793 1.675 1.565 1.566 2.554 2.237 1.78 2.796-.774.559.901 1.396.958 2.066.055.67-.258 1.596-.66 1.844a3.22 3.22 0 0 0-.431.374m-8.185-7.542c-1.161 0-3.234-.139-3.617-.459-.07-.058-.169-.451-.284-1.031a65.533 65.533 0 0 1 4.15-.15c.462 0 .904.008 1.311.024-.152.847-.404 1.477-.82 1.577-.106.025-.379.039-.74.039"/>
        <path fill="#D8C09B" d="M258.395 167.903c-.031 1.234.295 3.526-.014 3.744-.476.335-1.425.53-1.425.53l1.826 1.444c.865.766 2.177.72 2.989-.104l.55-.558s-1.502-.441-1.46-.777c.04-.335.23-3.945.23-3.945l-2.696-.334"/>
        <path fill="#6957EE" d="M254.415 176.004c-.112 2.012-.448 5.477 0 6.035.446.559.107 3.688-.226 4.582-.334.894-2.01 12.069-2.346 12.851-.334.784 0 3.24 0 4.247 0 1.005-.67 9.61-1.228 11.51-.559 1.9-2.905 14.193-3.017 14.863-.112.67 3.799 2.347 4.357 1.453.558-.895 4.917-12.517 5.588-13.634.67-1.118 2.905-13.265 3.352-14.007.447-.743 2.347 7.861 2.795 8.531.446.67 2.458 1.229 2.68 1.677.225.446-.67 1.676-.781 2.123-.11.446 3.464 5.14 4.023 6.37.558 1.23 4.09 9.387 4.337 9.722.246.336 3.82-1.34 3.597-2.235-.223-.894-2.681-13.075-2.793-13.634-.112-.56-3.242-8.381-3.913-9.722l-5.922-11.845c-.222-.448-.11-8.606-.222-9.276-.112-.67 0-5.7.112-6.706.11-1.005.893-5.474.11-5.922-.782-.446-1.692-1.318-1.788-.67-.096.647.335 6.816-1.048 7.152-.448.108-3.854 0-4.357-.42-.31-.257-1.187-7.179-1.523-7.402-.334-.223-2.306.23-2.216 1.12.093.892.43 3.237.43 3.237"/>
        <path fill="#675F9A" d="M247.697 230.344l-.002-.002.002.002m-.002-.002c-.073-.09-.108-.174-.097-.247-.011.073.024.156.097.247m-.097-.247v-.003.003"/>
        <path fill="#5F4DE2" d="M249.772 231.492c-.895-.308-1.78-.784-2.075-1.148l-.002-.002c-.073-.09-.108-.174-.097-.247v-.003c.112-.67 2.458-12.963 3.017-14.864.397-1.35.852-6.1 1.08-9.088l2.23-1.856c.098.456.29.935.6 1.446 1.565 2.57 1.007 5.589-.11 7.152-1.118 1.564.335 1.9-.112 4.581-.448 2.684-1.547 8.27-2.282 9.835-.504 1.07-1.603 3.049-2.25 4.194"/>
        <path fill="#F6FAFB" d="M253.986 172.762v-.001m0-.005h-.001.001m-.001-.004v-.002.002m0-.005v-.001.001m0-.007v-.001.001m-.001-.004v-.002.002m0-.005v-.001m0-.005"/>
        <path fill="#5F4DE2" d="M251.822 204.29c.014-.266.021-.463.021-.571 0-.67-.148-1.984-.148-3.018 0-.518.036-.967.148-1.229.336-.782 2.012-11.957 2.346-12.851.218-.587.44-2.137.44-3.29 0-.604-.062-1.1-.214-1.292a.512.512 0 0 1-.069-.121c-.116-.28-.157-.834-.157-1.516 0-1.327.156-3.144.226-4.398-.004-.027-.337-2.352-.429-3.237v-.006-.005h-.001v-.004-.002-.004-.006-.001l-.001-.003v-.002-.004-.005-.01-.006c-.002-.423.465-.74.976-.928 1.462 3.488 2.882 9.162 1.996 10.706-1.088 1.899-2.409 6.592-1.357 8.604 1.05 2.011 1.183 6.831 0 8.556-.613.893-1.299 1.804-1.6 2.831l-2.177 1.813"/>
        <path fill="#F6FAFB" d="M266.302 214.735"/>
        <path fill="#CFDEEA" d="M265.589 216.235c.075-.304.51-.966.713-1.5-.202.535-.638 1.197-.713 1.5M266.302 214.02c-.418-.432-2.197-.96-2.612-1.585-.35-.526-1.593-5.915-2.33-7.865v-.01c.737 1.956 1.98 7.35 2.33 7.875.415.625 2.194 1.153 2.612 1.585"/>
        <path fill="#5F4DE2" d="M274.087 232.37c-.07 0-.116-.014-.138-.043-.151-.207-1.547-3.375-2.728-6.068-.199-.45-.39-.889-.57-1.297-.489-1.116-.881-2.011-1.04-2.358-.39-.86-2.26-3.42-3.309-5.03-.425-.654-.716-1.15-.716-1.315 0-.01 0-.018.003-.024.075-.303.51-.965.713-1.5.064-.166.104-.32.104-.447a.381.381 0 0 0-.035-.176.361.361 0 0 0-.069-.092c-.418-.432-2.197-.96-2.612-1.585-.35-.526-1.593-5.919-2.33-7.874.505-1.519.826-3.487 1.046-3.487.063 0 .12.168.168.563.22 1.746-.226 3.646.89 5.099 1.12 1.452 3.355 2.235 2.684 3.353-.67 1.118 1.005 1.23 1.675 3.017.672 1.788-.11 2.793 0 3.91.112 1.117 2.268 2.845 2.754 4.217.487 1.371 2.5 5.506 2.723 6.288.146.51 1.145 2.919 1.825 4.536-.445.19-.835.313-1.038.313"/>
        <path fill="#29283B" d="M233.852 220.788a.67.67 0 0 1-.429-1.185l41.273-34.351a.67.67 0 1 1 .856 1.032l-41.271 34.35a.67.67 0 0 1-.429.154"/>
        <path fill="#DFC9A9" d="M259.025 160.752c-1.343 1.675-2.12 3.22-2.456 3.22-.335 0 .676 3.4 1.166 4.173.629.992 2.084 1.769 3.09 1.098 1.006-.67 2.536-3.854 1.75-5.195-.785-1.342-3.55-3.296-3.55-3.296"/>
        <path fill="#29283B" d="M257.946 168.43c-.95.139-4.845-2.398-4.985-4.243-.023-.306 2.517-1.145 3.87-4.125.712-1.574 2.346-2.745 4.317-2.133 2.066.642 2.569 1.87 2.933 2.57.363.7 3.575 5.03 4.777 5.31.274.061-1.733 1.843-2.124 1.843s-1.2-.308-1.368-.308c-.167 0-.279 1.295-.476 1.35-1.705.475-3.586.09-3.586.09s2.219-3.143 1.272-4.525c-.348-.508-3.412-3.145-3.551-3.507-.14-.364-.487 2.538-1.845 3.658-1.118.922.766 4.02.766 4.02"/>
        <path fill="#9DE6FF" d="M229.41 215.733a1.365 1.365 0 0 0-1.83-.324l-4.187 2.707.687.552c.557.445.688.716.688 1.428 0 0 .175.654.329.84.182.224.752.388.945.587.156.157.361.812.361.812.147.322.416.573.746.702 0 0 .849.275 1.021.638.142.295.149.975.333 1.246.26.382 1.046.33 1.259.737.233.445.018 1.04.252 1.48.19.362.922.32 1.2.618.155.163-.097.696 0 .897.113.232.921.459.921.459.464.232.757.704.757 1.221 0 0-.084.6 0 .775.077.159.554.442.554.442l3.515-3.99a1.366 1.366 0 0 0 .066-1.726l-7.617-10.101"/>
        <path fill="#CFDEEA" d="M237.168 226.068"/>
        <path fill="#8CD9F2" d="M236.99 227.513c-1.12-.44-3.093-1.212-3.613-1.905-.628-.84-.797-1.844-2.263-2.641-1.467-.796-3.646-1.466-4.108-2.848-.317-.954-1.837-1.416-3.377-2.157l3.95-2.553a1.365 1.365 0 0 1 1.83.324l7.618 10.101a1.37 1.37 0 0 1-.036 1.68"/>
        <path fill="#29283B" d="M237.828 227.15l-.291.22a.868.868 0 0 1-1.213-.17l-8.42-11.165a.87.87 0 0 1 .17-1.213l.292-.22a.869.869 0 0 1 1.212.17l8.42 11.166c.287.38.21.925-.17 1.211"/>
        <path fill="#D8C09B" d="M269.242 192.138l-.171-.272c-.585-.938-1.566-2.634-.47-2.912 1.216-.308 2.99.503 2.544 1.23-.448.725-1.084 1.781-1.903 1.954M255.717 202.944l-.134-.323c-.457-1.106-1.202-3.09.019-3.19 1.353-.11 3.1 1.07 2.494 1.766-.607.695-1.475 1.707-2.38 1.747"/>
        <path fill="#CDE1EC" d="M249.707 192.845c.924 1.926 1.825 3.63 2.136 3.833 1.083.706 3.714-1.217 3.534-1.724-.199-.564-.877-2.166-1.542-3.765-.721-1.739-5.37-.934-4.128 1.656"/>
        <path fill="#D8C09B" d="M252.412 196.273l2.958 4.803 1.586-.696-2.123-5.595s-.487-.428-1.597.18c-.535.291-.824 1.308-.824 1.308"/>
    </g>
</svg>
