<svg xmlns="http://www.w3.org/2000/svg" width="600" height="599" viewBox="0 0 600 599">
    <g fill="none" fill-rule="evenodd">
        <path fill="#D4E7F2" d="M266.95 93.675c2.458-.754 6.673-1.314 12.646-1.682.883.081-8.987 4.247-12.133 6.066.318 3.876.93 6.979 2.393 6.048 9.692-6.157 31.919-13.962 31.953-16.04-22.083-1.325-33.7-1.38-34.852-.169 0 0-.097 2.634-.007 5.777z"/>
        <path fill="#54DAFF" fill-rule="nonzero" d="M303 551c151.878 0 275-123.122 275-275S454.878 1 303 1 28 124.122 28 276s123.122 275 275 275zm0 1C150.57 552 27 428.43 27 276S150.57 0 303 0s276 123.57 276 276-123.57 276-276 276z"/>
        <path fill="#DBEAF3" fill-rule="nonzero" d="M290.002 444.311c12.042 5.608 24.428 9.992 36.495 13.294 4.345 1.19 8.338 2.15 11.886 2.902a137.802 137.802 0 0 0 3.788.75l25.911-38.284a89.133 89.133 0 0 1-2.275-.307c-3.21-.473-6.95-1.17-11.185-2.132-11.88-2.7-25.266-6.929-39.89-13.01l-24.73 36.787zm24.744-38.948c14.811 6.206 28.345 10.498 40.32 13.22 4.184.952 7.874 1.639 11.033 2.104 1.102.163 2.058.286 2.865.375.479.053.8.083.956.095l1.718.13-28.532 42.156-.631-.104a79.843 79.843 0 0 1-1.182-.21c-.956-.179-2.067-.4-3.324-.666-3.586-.76-7.616-1.729-12-2.929-12.525-3.427-25.389-8.01-37.874-13.909l-1.052-.497 26.487-39.4.83.557.386-.922z"/>
        <path fill="#E5F3FC" d="M325.36 404.285c33.978 14.237 55.484 15.87 55.484 15.87l-27.207 40.197s-25.706-4.21-54.115-17.63l25.837-38.437"/>
        <path fill="#F3FAFF" d="M379.954 368.938c-76.402 0-138.337-61.935-138.337-138.338 0-71.24 53.849-129.903 123.063-137.504v50.547c-.417.072-.838.148-1.255.225l-9.924-25.512-4.42-2.868 10.66 29.143-10.755-29.39-33.506 14.947 4.219 10.862-2.92 1.306 4.336 9.963c-1.85-.097-5.688-4.056-9.249-4.056-1.573 0-3.094.773-4.364 2.995-1.5 2.63 2.316 8.218-.429 10.634-1.042.919-5.588 2.967-4.572 7.738.677 3.173 3.552 4.593 6.232 7.58-11.589 14.898-18.607 33.524-18.95 53.776v.072l-.002.052v.075c-.002.051-.002.106-.003.158v.089l-.002.04v.131c-.002.014-.002.028-.002.04v.118l-.001.043V232.039c-.002.019-.002.036-.002.055V232.542c0 49.806 40.376 90.184 90.183 90.184H380.246l.063-.002H380.535c49.516-.313 89.565-40.534 89.604-90.11v-.073c0-14.29-3.324-27.806-9.241-39.813l23.43-28.373-.255-16.87v-.002l-.014-.951-35.886-29.572-28.502 34.59a89.772 89.772 0 0 0-11.407-4.662l.266-51.672c62.69 13.168 109.762 68.78 109.762 135.384 0 26.562-7.486 51.378-20.463 72.448a3.51 3.51 0 0 0-.256-.334c-1.634-1.84-10.41-11.86-12.524-11.86a.44.44 0 0 0-.261.074c-1.5 1.071 5.537 9.859 5.571 10.5.07 1.358-4.858.428-5.78 1.286-.497.46.852 1.856 2.352 2.07 1.5.215 5.21 2.155 6.567 2.798.161.077.37.485.628 1.16-24.928 36.349-66.765 60.196-114.172 60.196"/>
        <path fill="#43E892" d="M308.991 177.506c-2.75-3.192-5.79-4.6-6.49-7.876-1.016-4.77 3.53-6.82 4.572-7.738 2.745-2.416-1.071-8.004.429-10.634 4.174-7.303 11.047 1.042 13.673 1.063.456.005.831-.019 1.155-.041 1.543-.108 1.924-.216 4.252 2.523 2.818 3.312 2.984 3.523 3.044 4.663.055 1.075-5.695 4.456-11.29 9.242-5.391 4.613-9.345 8.798-9.345 8.798"/>
        <path fill="#32327B" d="M360.75 147.387l-33.436 13.267-11.834-30.466 33.506-14.947 11.763 32.146"/>
        <path fill="#292A70" d="M349.082 115.488l4.42 2.868 11.178 28.738-3.93.293-11.668-31.9"/>
        <path fill="#35367F" d="M351.123 151.406l-25.434 11.422-8.91-20.472 26.287-11.765 8.057 20.815"/>
        <path fill="#292A70" d="M347.803 132.53l6.555 16.702-3.235 2.174-8.24-21.218 4.92 2.342"/>
        <path fill="#DBEAF3" fill-rule="nonzero" d="M249.726 364.09c-8.692-7.31-16.687-16.047-24.017-26.039l-25.523 38.437c4.548 5.701 9.299 11.025 14.254 15.935 9.182 9.097 21.046 17.817 35.159 26.126l23.454-37.245c-8.87-6.006-17.37-12.202-23.327-17.215zm25.536 17.46l-25.003 39.703-.835-.487c-14.614-8.535-26.896-17.515-36.391-26.922-5.179-5.132-10.133-10.705-14.866-16.682l-.45-.57 27.92-42.048.845 1.17c7.469 10.353 15.636 19.364 24.531 26.845 6.072 5.109 14.857 11.492 23.961 17.629l-.559.83.847.532z"/>
        <path fill="#E5F3FC" d="M281.415 381.017c-7.021-4.733-16.976-11.745-24.046-17.693-9.398-7.903-17.588-17.17-24.698-27.024l-26.72 40.241c4.555 5.751 9.478 11.333 14.786 16.593 10.021 9.929 22.692 18.884 36.192 26.768l24.486-38.885"/>
        <path fill="#32327B" d="M364.68 147.094s7.702-.35 15.537-.473c7.82-.122 16.283.879 16.283.879V72s-13.493 1.17-17.783 1.856c-3.744.6-14.037 2.738-14.037 2.738v70.5z"/>
        <path fill="#292A6C" d="M408.264 146.89l-11.976.68V72l12.32 7.642z"/>
        <path fill="#4F5997" d="M366.074 143.417V79.26c2.119-.496 5.609-1.296 8.571-1.925v65.175a90.35 90.35 0 0 0-8.571.907M384.384 142.462a92.61 92.61 0 0 0-4.43-.106H379.603l-.064.002H379.255l-.058.001h-.107c-.053.002-.111.002-.166.002h-.002l-.079.002h-.084l-.012.001h-.082a92.56 92.56 0 0 0-2.852.084V76.97c.898-.179 1.698-.33 2.302-.426 1.394-.219 3.74-.497 6.269-.77v66.688M394.121 143.462a90.237 90.237 0 0 0-8.571-.935V75.584c3.48-.365 6.95-.696 8.571-.85v68.728"/>
        <path fill="#C3DEEB" d="M484.329 164.355l-.27-17.823-29.63 35.895 6.467 10.303 23.433-28.375"/>
        <path fill="#94C2DE" d="M460.898 192.727a90.033 90.033 0 0 0-6.161-10.61l29.322-35.585.014.953c-3.47 4.953-5.856 8.515-6.57 12.372-.769 4.14-2.358 9.773-6.501 12.07-5.225 2.9-7.73 10.715-7.643 14.215.024.953-.024 2.297-.123 3.753l-.686.831-1.652 2" opacity=".3"/>
        <path fill="#CDE1EC" d="M451.9 185.56l-35.887-29.572 32.16-39.028 35.886 29.572-32.16 39.027"/>
        <path fill="#A4C7DF" d="M447.386 130.418l-2.378-1.958 3.19-3.873 2.378 1.96-3.19 3.87M453.43 135.398l-2.377-1.958 3.19-3.873 2.376 1.96-3.189 3.87M459.473 140.378l-2.378-1.96 3.19-3.87 2.378 1.959-3.19 3.87M441.233 137.712l-2.378-1.961 3.19-3.87 2.378 1.958-3.19 3.873M447.278 142.69l-2.378-1.958 3.189-3.87 2.377 1.957-3.188 3.871M453.32 147.672l-2.377-1.96 3.19-3.872 2.378 1.961-3.19 3.87M447.063 156.298l-2.377-1.96 3.188-3.87 2.378 1.96-3.189 3.87M453.106 161.278l-2.377-1.96 3.19-3.87 2.378 1.96-3.19 3.87M452.414 172.544l-2.378-1.957 3.19-3.871 2.378 1.96-3.19 3.868"/>
        <path fill="#55C6FF" d="M379.954 322.726c-49.807 0-90.183-40.378-90.183-90.185s40.376-90.185 90.183-90.185c49.809 0 90.185 40.378 90.185 90.185s-40.376 90.185-90.185 90.185z"/>
        <path fill="#2A2C57" d="M380.17 322.726h.002-.002m.052 0h.024-.024m.087-.002h.009-.009m.055 0h.027-.027m.094 0h.005-.005m.067 0h.01-.01m-90.754-90.183v-.069.07m0-.09v-.046.046m0-.07v-.045.045m0-.072v-.043.043m0-.067v-.048.048m0-.07v-.067.066m0-.078c0-.02 0-.036.002-.055-.002.019-.002.037-.002.055m.002-.08v-.046.045m0-.069v-.044.044m0-.07v-.043.043m0-.07l.001-.043-.001.043m.001-.067v-.065.065m0-.094c0-.012 0-.026.002-.04-.002.014-.002.028-.002.04m.002-.076v-.029.03m0-.068v-.029.03m.002-.07v-.027.028m0-.065v-.024.024m.003-.182v-.01.01m0-.062v-.013.013m.002-.065v-.012.012m0-.065v-.007.007"/>
        <path fill="#04A3F3" d="M379.954 322.726c-49.807 0-90.183-40.378-90.183-90.185v-.069-.02-.046-.024-.045-.027-.043-.024-.048-.023-.066-.012c0-.018 0-.036.002-.055v-.026-.045-.024-.044-.026-.043-.027l.001-.043v-.024-.065-.03c0-.011 0-.025.002-.039v-.036-.029-.038-.029l.002-.04v-.027-.037-.024l.003-.158v-.01-.052-.013l.002-.052v-.012-.053-.007a89.925 89.925 0 0 1 5.187-28.688s10.92 7.842 23.131 7.842c1.125 0 2.261-.066 3.401-.212 13.209-1.687 27.645-6.941 38.376-6.941 5.635 0 10.252 1.448 13.13 5.623 7.88 11.429-27.922 35.662-8.863 50.604 12.391 9.714 17.772 4.873 28.072 11.142 12.32 7.5 6.428 23.53 23.142 29.572 1.831.662 3.837.934 5.976.934 6.563 0 14.375-2.566 22.19-4.36-16.178 16.077-38.415 26.066-62.99 26.222H380.31l-.063.002H379.954"/>
        <path fill="#FFF" d="M240.15 258.675c4.492-5.167 11.636-9.653 16.492-9.653 4.859 0 9.144 3.518 12.573 3.518 7.714-6.242 13.999-16.625 25.142-16.625 10.467 0 15.428 4.616 24.572 13.11 6-4.458 10.848-6.356 14.856-6.478 9.715-.288 12.857 9.892 17.143 9.993 5.143-3.648 7.618-3.093 10.47-2.234 2.917.876 8.103 8.37 8.103 8.37H240.149"/>
        <path fill="#04A3F3" d="M451.99 251.58c-24.274-.002-49.047-10.713-46.916-39.938.823-11.285 13.17-28.91-2.625-41.592-2.628-2.108-5.95-2.984-9.775-2.984-9.36 0-21.716 5.249-34.174 10.496-12.46 5.248-25.02 10.495-34.79 10.495-6.989 0-12.552-2.688-15.625-9.982 16.229-21.38 41.765-35.306 70.58-35.71h.082l.012-.002h.084l.08-.002h.001c.057 0 .111 0 .166-.002h.107l.058-.001H379.539l.064-.002H379.954c49.807 0 90.185 40.378 90.185 90.185v.072a90.719 90.719 0 0 1-1.695 17.34 84.077 84.077 0 0 1-16.454 1.627"/>
        <path fill="#C9E7F4" d="M429.583 232.764h79.339s-12.196-16.572-22.195-9.429c-2.572-1.143-5.716-10.572-14.858-10.572-10.572 0-14 11.43-16.286 11.716-19.261-8.572-26 8.285-26 8.285"/>
        <path fill="#FFFFFE" d="M403.857 235.915h79.337S471 219.345 461 226.486c-2.572-1.142-5.716-10.57-14.858-10.57-10.572 0-14 11.427-16.286 11.714-19.263-8.572-26 8.285-26 8.285"/>
        <path fill="#DBEAF3" fill-rule="nonzero" d="M519.738 131.83c.781.844 1.65 1.8 2.587 2.845a240.67 240.67 0 0 1 7.85 9.198 159.73 159.73 0 0 1 3.51 4.497 105.011 105.011 0 0 1 2.989 4.176 90.612 90.612 0 0 1 4.625 7.678c3.011 5.574 5.598 11.54 7.76 17.504a135.353 135.353 0 0 1 1.856 5.468l20.291-42.462-.465-1.065a454.28 454.28 0 0 0-1.74-3.912 408.132 408.132 0 0 0-5.558-11.869 253.447 253.447 0 0 0-2.063-4.12c-1.392-2.715-2.675-5.073-3.824-7.01-1.33-2.238-3.912-5.811-7.413-10.331a510.47 510.47 0 0 0-7.568-9.495c-.726-.89-1.403-1.715-2.018-2.459l-21.315 40.82.496.536zm-2.598-.833l23.035-44.112.96 1.151.216.26a558.989 558.989 0 0 1 9.348 11.59c.348.444.69.884 1.025 1.316 3.55 4.583 6.168 8.205 7.551 10.536 1.173 1.976 2.475 4.368 3.885 7.118.674 1.313 1.368 2.7 2.08 4.152a410.077 410.077 0 0 1 5.585 11.928 456.307 456.307 0 0 1 2.398 5.423l.18.417-22.957 48.042-.71-2.59a89.787 89.787 0 0 0-.637-2.138 132.368 132.368 0 0 0-1.92-5.68c-2.131-5.879-4.68-11.756-7.64-17.236a88.625 88.625 0 0 0-4.522-7.508 103.035 103.035 0 0 0-2.931-4.095 157.746 157.746 0 0 0-3.466-4.44 238.711 238.711 0 0 0-7.785-9.122 245.108 245.108 0 0 0-3.283-3.594 72.095 72.095 0 0 0-.251-.268l.726-.687-.887-.463z"/>
        <path fill="#E5F3FC" d="M511.027 131.46s11.13 11.756 17.818 21.646c9.85 14.572 14.856 32.858 14.856 32.858l21.604-45.21s-7.992-18.57-13.89-28.506c-3.982-6.708-18.048-23.572-18.048-23.572l-22.34 42.784"/>
        <path fill="#FFFFFE" d="M350.947 428.19l-9.713-3.385-9.712-3.386c-4.897-1.707-10.3.902-12.007 5.798-1.707 4.896.902 10.301 5.8 12.009l9.711 3.384 9.712 3.387c4.897 1.707 10.3-.902 12.008-5.8 1.708-4.895-.903-10.299-5.8-12.006"/>
        <path fill="#54DAFF" d="M351.027 425.75l-9.66-3.53-6.474 17.71 9.661 3.532c4.87 1.78 10.312-.75 12.091-5.62 1.781-4.87-.747-10.311-5.618-12.092"/>
        <path fill="#22AFFF" d="M331.707 418.687c-4.872-1.78-10.313.749-12.094 5.62-1.78 4.87.75 10.31 5.62 12.092l9.66 3.531 6.474-17.71-9.66-3.533"/>
        <path fill="#DBEAF3" fill-rule="nonzero" d="M187.505 255.824a263.133 263.133 0 0 1-3.026-11.857c-.182-.792-.344-1.524-.489-2.193l-30.735 41.51.17.615c.248.886.55 1.923.904 3.1a258.728 258.728 0 0 0 3.739 11.38 310.618 310.618 0 0 0 15.126 35.607l27.62-40.203c-5.477-12.807-9.88-25.663-13.309-37.959zm15.27 38.637l-29.842 43.437-.763-1.5a312.305 312.305 0 0 1-15.988-37.354 260.719 260.719 0 0 1-3.768-11.467 164.806 164.806 0 0 1-1.141-3.962l-.076-.286-.12-.462 33.997-45.918.425 2.247c.101.514.158.792.224 1.113.192.918.426 1.992.705 3.211a261.142 261.142 0 0 0 3.003 11.767c3.452 12.377 7.898 25.327 13.439 38.213l-.92.395.825.566z"/>
        <path fill="#E5F3FC" d="M208.95 294.895c-12.707-29.555-17.433-54.513-17.433-54.513l-32.352 43.696s6.262 24.066 20.897 52.866l28.889-42.05"/>
        <path fill="#F1CE2B" d="M319.198 169.243c-3.053-2.195-5.888-6.96-5.54-10.718.346-3.758 5.05-1.485 6.09-1.845 1.04-.358-2.705-8.684-1.568-10.74 1.137-2.057 3.69-2.117 5.63.126 1.939 2.244 2.185 5.672 4.27 5.806 2.088.132 3.905-2.073 6.014.61 2.107 2.686 2.228 2.856 2.23 3.74.003.832-4.704 3.19-9.343 6.638-4.472 3.324-7.783 6.383-7.783 6.383M398.787 144.326c0-4.398.07-15.465 2.001-16.47 3.429-1.786 3.43 7.178 6.214 7.072 1.857-.072 3.216-10.12 5.428-12.357 2.756-2.785 5.215-1.357 5.785 2.071.448 2.68-.57 5.884 1.286 7.428 1.71 1.421 4.077-4.039 7.786-1.999 2.858 1.57-1.357 6.143-.214 9.725 1.012 3.172 3.571 3.124 4.428 5.913.857 2.79-5.309 9.387-5.309 9.387-1.157-.817-8.949-5.352-15.95-7.525-5.348-1.661-11.455-3.245-11.455-3.245"/>
        <path fill="#CDE1EC" d="M366.794 145.19c.706-3.367 2.343-7.094.41-8.78-1.315-1.146-2.438 1.849-3.21 1.703-.877-.166-.92-7.133-3.245-7.248-2.324-.115-1.018 8.493-2.825 8.796-1.423.238-2.763-4.947-4.994-3.161-1.807 1.447 1.025 7.052.069 7.982-.933.905-2.186-1.154-3.09 1.222-.675 1.774 1.307 2.753 1.307 2.753s5.527-1.635 8-2.088c2.706-.495 7.578-1.18 7.578-1.18"/>
        <path fill="#292A70" d="M326.808 162.182c-1.45-2.296-4.845-7.675-5.95-14.723l-.422.069c.859 5.484 3.079 9.944 4.726 12.776-1.812 1.15-4.423 1.134-6.18.738-1.1-.249-1.949-.662-2.16-1.058l-.379.204c.282.521 1.171.986 2.445 1.272.528.118 1.131.206 1.77.238 1.576.086 3.344-.176 4.717-1.037.406.686.783 1.294 1.071 1.75.134.213.252.401.352.563l.365-.227-.355-.565M366.036 139.783l-.353-.245c-.909 1.302-3.153 1.824-4.113 1.993.007-2.357-.288-4.724-.475-6.173-.072-.557-.128-.998-.132-1.184l-.428.008c.003.21.06.64.135 1.23.256 1.983.72 5.701.3 8.703-2.873.43-5.744-2.117-6.408-4.044l-.406.14c.66 1.912 3.348 4.392 6.197 4.392.184 0 .37-.027.556-.05a9.48 9.48 0 0 1-.362 1.48l.404.14c.424-1.211.592-2.694.623-4.206.963-.163 3.435-.715 4.462-2.184M401.575 131.991c.507 4.492 2.556 13.679 2.575 13.77l.42-.093c-.023-.093-2.064-9.256-2.57-13.723l-.425.046M423.25 135.883c-1.966 3.04-9.157 3.42-10.795 3.056.957-4.613 1.948-9.733 2.26-11.837l-.425-.063c-.641 4.354-3.81 19.628-4.236 20.43l.377.203c.233-.437 1.063-4.12 1.937-8.314.297.065.847.108 1.565.108 2.776 0 7.936-.657 9.677-3.35l-.36-.233"/>
        <path fill="#54DAFF" d="M175.077 280.08c1.064 3.953 10.436 27.281 12.036 28.901 1.6 1.623 8.466-8.035 4.89-15.105 2.87-4.7 2.975-10.054.815-15.075-1.73-4.023-6.388-2.702-9.187-.309-4.284-5.967-9.106-.46-8.554 1.588"/>
        <path fill="#E5F3FC" d="M182.86 280.785l-8.015 14.111-2.22-4.202-2.13 17.067 10.052 3.4-2.547-5.82 9.539-12.193-4.678-12.363"/>
        <path fill="#22AFFF" d="M182.169 285.197l-5.423 9.545-1.501-2.842-1.44 11.544 6.798 2.3-1.722-3.937 6.452-8.248-3.164-8.362"/>
        <path fill="#54DAFF" d="M543.701 164c-.008-.014-3.591-10.758-7.637-17.124-1.606-2.521-4.224-5.729-6.807-8.7-3.95-4.536-7.757-8.176-7.757-8.176l13.151-24.837-.757-.4-13.288 25.277.218.223c.002.002.962.988 2.417 2.544a225.63 225.63 0 0 1 5.368 5.933c2.571 2.952 5.173 6.148 6.732 8.598 1.973 3.097 3.97 7.56 5.463 11.235.75 1.84 1.371 3.482 1.809 4.666.435 1.183.682 1.901.684 1.903l.315.92 13.323-24.466-.752-.41L543.7 164z"/>
        <path fill="#54DAFF" d="M541.47 115.147L528.56 138.25l.747.417 12.912-23.102M548.79 128.096l-12.201 20.939.74.43 12.2-20.938"/>
        <path fill="#22AFFF" d="M544.845 146.642a1.73 1.73 0 0 1-.91-.26 1.728 1.728 0 0 1-.793-1.246l-.749-6.102h-5.906a1.713 1.713 0 0 1-1.666-1.312l-1.898-7.877-12.356-4.3a1.715 1.715 0 0 1-1.056-2.182 1.712 1.712 0 0 1 2.182-1.054l13.241 4.606c.55.192.967.65 1.103 1.217l1.801 7.473h6.072c.866 0 1.595.646 1.7 1.505l.678 5.513 12.468-4.246c.898-.31 1.87.173 2.175 1.07a1.71 1.71 0 0 1-1.07 2.173l-14.463 4.93a1.714 1.714 0 0 1-.553.092"/>
        <path fill="#54DAFF" d="M244.454 396.286l-.098-1.25c8.277-.646 14.376-9.25 13.598-19.176l1.28-.1c.833 10.614-5.797 19.823-14.78 20.526M228.607 378.163l-1.282.1c-.832-10.614 5.799-19.821 14.782-20.526l.1 1.248c-8.279.65-14.378 9.254-13.6 19.178M245.232 376.702c.065.833-.576 1.564-1.43 1.63-.855.067-1.603-.553-1.668-1.386-.065-.835.576-1.564 1.432-1.63.855-.07 1.6.553 1.666 1.386"/>
        <path fill="#54DAFF" d="M244.286 385.522l-.098-1.251c3.312-.26 5.75-3.74 5.436-7.756-.315-4.018-3.267-7.075-6.58-6.816-3.311.26-5.75 3.74-5.435 7.757l-1.281.102c-.369-4.708 2.6-8.793 6.619-9.107 4.02-.317 7.589 3.256 7.958 7.963.37 4.706-2.6 8.791-6.62 9.108"/>
        <path fill="#54DAFF" d="M244.646 390.108l-.098-1.248c5.438-.427 9.444-6.101 8.931-12.648-.514-6.547-5.357-11.529-10.794-11.102-5.438.427-9.444 6.101-8.932 12.648l-1.28.101c-.568-7.236 3.97-13.515 10.114-13.997 6.146-.482 11.606 5.014 12.173 12.249.567 7.236-3.97 13.515-10.114 13.997"/>
        <path fill="#22AFFF" d="M233.787 384.53l1.934.382-.494-1.15-1.44.768zm3.458.685l.605.122-.81-.6.205.478zm-.062-1.95l2.14 1.585c.23.17.559.014.566-.266l.063-2.761c.007-.263-.281-.43-.518-.305l-2.204 1.174a.337.337 0 0 0-.047.572zm-9.337 5.067l4.565 1.83c.291.116.581-.172.456-.454l-1.524-3.45a.354.354 0 0 0-.49-.162l-3.04 1.62a.338.338 0 0 0 .033.616zm10-1.718l1.89 4.421.094-4.025-1.985-.396zm-2.802 4.603l3.286 1.317c.29.114.58-.17.46-.451l-2.399-5.604-.253-.203-3.052-.605c-.277-.056-.505.218-.394.472l2.165 4.892.187.182zm.598 1.596l3.847 8.702.161-6.86-.216-.325-3.792-1.517zm3.83 11.837l-5.477-12.394-.189-.18-8.376-3.353-.06-1.127 14.957-7.983.95.562-.57 24.237-1.235.238z"/>
        <path fill="#F1CE2B" d="M345.147 123.488l-1.47.61-.933-2.257 1.473-.607.93 2.254M347.765 122.408l-1.472.61-.933-2.259 1.473-.607.932 2.256M341.275 128.942l-1.473.606-.932-2.254 1.474-.61.93 2.258M349.125 125.696l-1.473.61-.933-2.257 1.473-.607.933 2.254"/>
        <path fill="#DA9C2F" d="M30.33 271.999c4.101 0 6.6 2.643 8.029 4.644 1.428 1.999 12.233 23.56 16.234 26.07 4 2.51 15.909 4.8 18.766 6.793 2.858 1.993-1.143 8.28-1.143 8.28h-9.429L34.215 299.56 30.331 272"/>
        <path fill="#867054" d="M38.787 404.357c-2.065 3.843-6 10.57-6.57 12.857-.573 2.285 12.063 11.981 13.206 13.41 1.142 1.43 3.678 2.072 3.924-.09.067-.588-8.845-13.32-9.13-14.75-.286-1.428 2.428-9.428 2.428-9.428l-3.858-1.999M109.55 404.49s4.72 13.48 5.576 14.922c.857 1.442 3.055.944 4.197.944 1.143 0 12.638-3.397 18.214-5.333 1.149-.4.965-3.965-1.339-3.804-1.62.112-8.288 1.199-14.307 1.89a4.619 4.619 0 0 1-4.759-2.74l-1.773-7.047-5.81 1.169"/>
        <path fill="#32327B" d="M34.215 406.928l8.43 4.286 31.409-45.368a5.145 5.145 0 0 0 .01-5.843l-8.991-13.075H44.5s7.185 12.571 7.879 14c.694 1.43-17.878 43.43-18.165 46"/>
        <path fill="#2A2B72" d="M38.832 409.274l-4.617-2.346c.282-2.523 18.175-43.026 18.184-45.879a.277.277 0 0 0-.019-.122c-.363-.749-2.513-4.563-4.474-8.02 4.452 1.223 8.823 2.19 11.74 2.307.813.032 1.763.084 2.805.15h-.001c.584.038 1.2.08 1.84.126.256 2.377.285 4.373-.145 5.295-1.5 3.214-4.928 2.357-7.071 4.286-2.143 1.928 1.071 9.643 0 12.428-1.072 2.786-8.572 6.215-9.857 8.572-1.286 2.357-3.215 8.571-3 12.428.166 2.98-2.932 7.883-5.385 10.775"/>
        <path fill="#32327B" d="M32.217 347.786c.392.156.876.34 1.436.548 5.731 2.124 19.486 6.62 25.992 6.88 7.144.286 24.499 2 25.929 2.571 1.428.57 6.535 19.567 10.071 25.82 2.716 4.804 13.142 27.61 13.142 27.61l11.143-3.43s-18.857-63.143-19.428-64c-.571-.858-27.715-12.285-32-12.571-4.285-.287-27.43-6.32-28.857-5.303-1.428 1.017-7.428 21.875-7.428 21.875"/>
        <path fill="#F1CE2B" d="M18.465 264.884c-4.65.168-10.704 11.392-9.606 17.472.827 4.578 3.928 25.643 3.643 30.215-.286 4.572-.956 6.747-.956 6.747s3.17 3.61 2.885 5.038c-.286 1.428 2.952 20.286 2.94 22-.012 1.714 15.416 6.572 17.417 6.572 1.999 0 5.143-18.857 8.285-21.144 3.142-2.285 7.714-6.284 7.714-6.284s-5.713-7.714-7.428-11.143c-1.714-3.429-4.285-22.572-5.142-25.43-.858-2.856-3.381-16.244-5.382-17.959-1.998-1.714-3.198-4.558-8.948-5.835-4.099-.91-4.015-.302-5.422-.249"/>
        <path fill="#27283B" d="M32.835 270.968c-.512-.438-.972-.95-1.469-1.493.002-.024.002-.04.002-.063.502.574.965 1.126 1.467 1.556m-2.305-2.374a13.41 13.41 0 0 0-.693-.646l.076-.01c.219.183.425.375.62.57-.002.028-.002.059-.003.086"/>
        <path fill="#3C6EA8" d="M31.366 269.475a25.945 25.945 0 0 0-.836-.88c.001-.028.001-.06.003-.087.297.299.571.604.835.904 0 .024 0 .04-.002.063"/>
        <path fill="#27283B" d="M17.77 264.987l-.175-.065a.858.858 0 0 1 .252-.04c.08 0 .16.013.237.04-.103.016-.21.038-.314.065"/>
        <path fill="#2A2B72" d="M40.42 336.943h-.002c.867-2.517 1.762-4.509 2.655-5.159 1.83-1.328 4.14-3.238 5.753-4.602-1.613 1.364-3.924 3.274-5.753 4.602-.893.652-1.788 2.642-2.654 5.159"/>
        <path fill="#ECAF2B" d="M40.418 336.943c-2.613-2.6-8.589-7.548-11.222-8.944-3.235-1.714-4.48-10.5-4.05-15.428.428-4.929-1.715-6.643-4.287-7.929-2.571-1.286-.11-6.269 1.715-10.286 1.822-4.016 1.071-9-.857-13.285-1.38-3.067-7.106-8.13-5.935-13.67a4.23 4.23 0 0 1 .468-1.167c.574.236 1.157.452 1.75.65.067 1.537 1.195 2.893 2.801 3.474 1.81.657 3.142.876 4.152.876.799 0 1.394-.139 1.86-.307.513-.185.928-1.289 1.308-2.797a26.918 26.918 0 0 0 1.716-.182c.247.214.477.43.693.646.298.297.572.593.836.881.497.542.957 1.055 1.47 1.493 2 1.715 4.523 15.103 5.38 17.96.858 2.857 3.43 22 5.143 25.43 1.715 3.428 7.428 11.142 7.428 11.142s-.798.7-1.96 1.682c-1.614 1.364-3.925 3.274-5.754 4.602-.893.65-1.788 2.642-2.655 5.159M18.346 265.19a28.45 28.45 0 0 1-.576-.204c.105-.027.211-.05.314-.065.036.012.07.026.106.045.069.034.136.07.2.108l-.044.116"/>
        <path fill="#6E5C47" d="M30.33 258.742c-1.367 3.425-2.037 11.65-3.517 12.185-1.054.383-2.767.609-6.012-.569-2.086-.754-3.362-2.813-2.564-4.884l4.993-12.955 7.1 6.223"/>
        <path fill="#867054" d="M39.427 242.081c-.312 2.583.053 8.218 1.174 9.053 1.121.835-5.583 11.467-6.302 12.34-.718.874-6.77-1.082-9.183-2.075-2.414-.992-8.066-4.327-9.74-8.053-1.674-3.727 2.254-15.22 4.484-17.046 2.232-1.827 10.294-6.35 13.438-5.622 3.143.732 6.129 11.403 6.129 11.403"/>
        <path d="M.103 215.786h52.31v52.152H.103z"/>
        <path fill="#27283B" d="M34.373 239.144c1.505.396 2.296 3.1 5.112 2.916 2.818-.181 6.583-4.628 6.352-7.01-.628-6.462-6.696-7.93-8.8-6.544-.187-3.883-6.615-7.612-10.334-2.886-5.033-2.526-7.702-1.575-9.653 2.376-4.02-2.175-7.741 1.178-5.453 5.49-4.452-.744-7.318 8.48-1.646 10.06-1.93 1.513-5.806 3.925-4.109 8.673 1.694 4.749 11.123 6.53 13.121 3.964 1.711-1.58 2.74-.835 3.504-.09.7.681 1.18 1.362 1.763.27 1.219-2.289-2.498-9.2.149-12.203 1.217-1.381 4.284-.5 4.913-1.136.633-.638 1.774-4.754 5.081-3.88"/>
        <path fill="#E3EFF5" d="M29.913 267.938a7.27 7.27 0 0 0-.993-.71 12.577 12.577 0 0 0-.51-.338l.109-.514c.706-.067 1.4-.163 2.088-.288-.02.578-.04 1.172-.057 1.75-.212.036-.423.069-.637.1m1.5-.26c.017-.586.036-1.179.058-1.763 10.983-2.414 19.227-12.225 19.227-23.923 0-9.638-5.595-17.993-13.709-21.99.12-.577.24-1.15.364-1.726 8.892 4.195 15.06 13.248 15.06 23.716 0 12.668-9.036 23.266-21 25.687m-15.645-1.65C6.498 261.99 0 252.736 0 241.993c0-14.452 11.757-26.206 26.206-26.206 3.672 0 7.171.76 10.348 2.129-.124.574-.244 1.138-.362 1.714a24.352 24.352 0 0 0-9.986-2.13c-13.505 0-24.492 10.988-24.492 24.493 0 10.476 6.612 19.436 15.881 22.93a1.583 1.583 0 0 0-.569.333 6.771 6.771 0 0 0-1.258.775"/>
        <path fill="#9FA5A6" d="M26.206 268.198c-2.864 0-5.624-.46-8.206-1.315-.02-.46.053-.932.237-1.409l.11-.283a24.4 24.4 0 0 0 7.86 1.293c.78 0 1.55-.036 2.312-.108a38.54 38.54 0 0 1-.11.514l-.012.06c-.09.412-.183.808-.276 1.18-.632.046-1.27.068-1.915.068"/>
        <path fill="#F1CE2B" d="M21.93 273.214c-8.907-.643-7.429 8-7.429 12.857 0 4.857 4.572 11.714 8.572 14.285 4 2.572 11.12 13.264 15.858 16.643 4.812 3.433 20.428 8.5 23 8.785 2.57.287 6.572 0 6.572 0v-7.428s-17.822-8.262-18.68-8.84c-.858-.578-2.965-3.945-4.393-4.517-1.428-.571-10.356-9.785-11.785-12.07-1.428-2.287-7.509-19.411-11.714-19.715"/>
        <path fill="#B8D0DD" d="M47.736 325.22l21.16-1.114.186.01 19.841 3.539c.967.171.864 1.592-.118 1.623l-26.184.83-.2-.017-14.817-3.256c-.933-.204-.82-1.565.132-1.615"/>
        <path fill="#CDE1EC" d="M61.443 327.833l12.194-23.217a1.507 1.507 0 0 1 1.336-.805h27.636a1.51 1.51 0 0 1 1.357 2.17l-10.863 22.296a1.51 1.51 0 0 1-1.31.847l-28.964.92a1.51 1.51 0 0 1-1.386-2.21"/>
        <path fill="#A4C7DF" d="M82.929 321.101c-.24 0-.479-.034-.714-.106-1.676-.515-2.473-2.752-1.782-5 .593-1.933 2.096-3.24 3.57-3.24.24 0 .479.033.712.105 1.675.516 2.474 2.754 1.783 5-.593 1.931-2.095 3.241-3.57 3.241"/>
        <path fill="#27283B" d="M96.828 385.853a60.509 60.509 0 0 0-1.183-2.247c-3.536-6.254-8.643-25.25-10.071-25.82 1.428.57 6.535 19.566 10.071 25.82a61.45 61.45 0 0 1 1.183 2.245v.002m-22.54-29.506"/>
        <path fill="#2A2B72" d="M71.359 356.07c-2.44-.222-4.89-.424-7.07-.58 0-.002-.002-.002-.002-.002 2.183.156 4.63.36 7.072.583"/>
        <path fill="#262564" d="M64.29 355.49c-.64-.047-1.256-.088-1.84-.126h.001a165.591 165.591 0 0 1 1.838.126"/>
        <path fill="#2A2B72" d="M96.828 385.851a61.45 61.45 0 0 0-1.183-2.245c-3.536-6.254-8.643-25.25-10.071-25.82-.736-.296-5.681-.89-11.285-1.44-.964-.094-1.946-.186-2.93-.275-2.441-.223-4.89-.427-7.072-.583-.636-.046-1.251-.088-1.836-.124 2.7-.788 5.611-1.976 7.48-2.436 1.481-.365 3.154-.884 5.163-.884 1.332 0 2.812.228 4.48.884 4.177 1.643 7.94 1 10.023 1.75 2.083.75 6.477 8.142 5.405 11.358-1.071 3.214-1.169 5.678.167 8.784 1.333 3.108 2.199 8.885 1.659 11.031"/>
        <path fill="#27283B" d="M43.565 423.708c-1.238.15-6.71-5.105-10.186-9.305-.573 1.176-1.003 2.17-1.162 2.811-.573 2.285 12.063 11.981 13.205 13.41 1.143 1.43 3.68 2.074 3.925-.088.035-.312-2.425-4-4.803-7.625-.262.44-.581.749-.979.797M136.198 411.22c-1.047.073-2.32.143-6.053.661-.915 1.023-3.903 2.542-4.661 2.904-1.89.903-7.671 1.497-11.56 1.77.55 1.422.993 2.504 1.202 2.857.857 1.442 3.055.944 4.197.944 1.143 0 12.638-3.397 18.214-5.333 1.149-.4.965-3.965-1.339-3.804"/>
        <path fill="#9F856D" d="M232.383 113.54c.854-1.592 6.659-7.842 7.283-8.617.62-.775 6.629-8.495 7.546-9.576.917-1.082 3.177-3.362 3.298-4.303.124-.941-.553-2.878-.565-3.48-.014-.604 2.331-5.632 2.235-5.983-.094-.353-.754-.552-1.248-.418-.494.133-4.551 6.384-5.155 7.227-.602.847-3.254 4.258-4.203 5.155-1.075 1.02-6.821 7.939-10.708 10.481-2.263 1.48.664 11.11 1.517 9.514"/>
        <path fill="#32327B" d="M202.695 118.604l29.328-2.27 7.643-8.675-5.99-6.175-6.609 4.73-23.132 1.032-1.24 11.358"/>
        <path fill="#2A2B72" d="M206.049 118.346c.363-1.44.672-2.98.908-4.627.06-.413.1-.816.124-1.212.759.036 1.517.166 2.278.421 1.834.61 3.536.96 5.189.96 1.824 0 3.583-.426 5.383-1.397 1.382-.745 2.552-1.006 3.638-1.006 1.61 0 3.027.576 4.647 1.006.235.062.465.091.693.091 2.425 0 4.592-3.224 7.272-3.737.682-.13 1.614-.199 2.641-.23l-6.799 7.718-25.974 2.013"/>
        <path fill="#9F856D" d="M209.885 168.944c-.646.883-7.738-4.453-9.003-5.39-1.267-.94-8.822-10.969-9.59-11.473-.77-.504.576-6.693 1.486-5.794 4.715 4.647 8.858 12.595 9.712 12.79.855.197 3.044 1.704 3.905 1.615.862-.09 1.838.572 1.64.93-.365.67-3.233.827-2.967 1.655.125.393 5.465 4.781 4.817 5.667"/>
        <path fill="#867054" d="M117.05 163.814c-3.617-.268-9.143-.772-11.95-1.032a2.834 2.834 0 0 0-2.7 1.356c-2.71 4.476-9.654 16.61-9.213 17.708.536 1.334 2.004 2.133 3.44.653 1.432-1.476 6.58-8.876 8.994-12.44a2.85 2.85 0 0 1 2.595-1.238l8.39.69a2.857 2.857 0 0 0 3.082-2.613 2.853 2.853 0 0 0-2.638-3.084M122.86 179.758a2 2 0 0 0-2.745-.593c-3.417 2.165-8.306 5.733-9.797 6.99-.588.498 1.075 11.996 2.37 16.808.294 1.087.99 2.293 2.066 1.964.89-.274 1.427-1.697 1.356-2.624l-.886-11.57a2.886 2.886 0 0 1 1.034-2.44l6.526-5.418a1.993 1.993 0 0 0 .401-2.615l-.326-.502"/>
        <path fill="#C62C39" d="M115.36 161.07l-1.286 10.286 40.395 7.09a4.244 4.244 0 0 0 3.89-1.343l24.929-27.818-15.429-8.357-14.357 25.071-38.143-4.928"/>
        <path fill="#DB4D49" d="M162.717 137.5s-13.927 21.423-17.358 24.214c-3.428 2.79-25.928 14.357-27.214 15.428-1.286 1.072 2.357 8.786 3.429 9.429 1.071.643 9-3 11.357-4.072 2.357-1.071 19.071-7.285 22.5-10.285 3.428-3 19.196-19.334 21-22.5 1.803-3.167-13.714-12.215-13.714-12.215"/>
        <path fill="#32327B" d="M159.531 136.366c-2.494 2.91 8.467 11.36 10.74 12.391 2.272 1.034 12.599 5.165 14.044 5.165 1.445 0 8.261-11.36 10.327-15.284 2.065-3.924 10.16-9.906 12.315-24.92 1.378-9.598-7.198-14.912-13.555-12.047-3.876 1.745-9.305 6.286-11.784 9.176-2.479 2.894-20.847 24.074-22.087 25.52"/>
        <path fill="#27283B" d="M184.315 153.922h-.004.004c1.445 0 8.261-11.36 10.327-15.284-2.066 3.924-8.882 15.284-10.327 15.284m-.005 0h-.004.004m-.005 0h-.002.002m-.009 0h-.002.002"/>
        <path fill="#2A2B72" d="M184.315 153.922H184.294h-.012c-.703-.027-3.163-.872-5.856-1.884 2.066-4.032 1.22-5.683 3.192-9.682 1.973-4 7.312-4.286 9.312-5.572 2-1.285 4.715-9.713 5.572-15.857.766-5.482 5.703-7.212 10.575-8.42-2.239 14.725-10.388 22.24-12.435 26.13-2.066 3.925-8.882 15.285-10.327 15.285"/>
        <path fill="#383D83" d="M185.347 115.094c-1.37 2.451-3.924 21.48-3.717 23.544.206 2.065 12.391 19.208 13.217 20.24.827 1.032 5.99-3.098 6.61-3.303.62-.208-6.868-12.151-8.08-14.647-1.214-2.496 2.09-23.974 2.09-25.834 0-1.859-6.196-7.022-10.12 0"/>
        <path fill="#957C65" d="M198.019 108.567c2.993.604 4.64.101 5.307-.351.665-.45-.264-2.436-.324-3.11-.06-.674 2.84-6.679 2.793-6.992-.046-.31-6.919-3.362-7.716-2.507-.796.854-1.713 6.636-2.445 7.29-.73.65-1.82 1.81-1.82 1.81-.38.466.293 3.073 4.205 3.86"/>
        <path fill="#9F856D" d="M197.907 94.364c.645 1.548 6.803 7.843 10.108 6.357 1.635-.737 3.682-3.302 5.18-8.43.561-1.916-3.76-4.175-1.822-11.05.298-1.054-3.094-2.343-5.659-1.99-2.563.353-6.204 2.656-7.19 5.006-.987 2.35-1.813 7.233-.617 10.107"/>
        <path fill="#27283B" d="M208.015 84.591c.204-3.04 4.114-.46 5.242-4.47 1.073-3.815-1.02-8.164-5.242-6.871-2.505.766-3.053 4.198-5.32 4.973-.706.241-1.49.22-2.32.195-1.838-.051-3.913-.103-5.915 2.702-2.289 3.206-4.42 8.54-1.584 10.587 2.68 1.936.69 2.911.507 3.75-.432 1.962-.533 4.391 3.451 3.862 2.546-.338 4.65-3.82 4.66-5.105.008-1.286-.756-2.946 0-4.5.985-2.03 3.132-1.082 4.3-1.082 1.055 0 2.089-2.095 2.22-4.04"/>
        <path fill="#E3EFF5" d="M205.579 105.876c-.252-.427-.532-.83-.833-1.207 9-.74 16.097-8.302 16.097-17.49 0-9.68-7.874-17.553-17.551-17.553-9.679 0-17.55 7.873-17.55 17.552 0 6.012 3.037 11.328 7.66 14.493-.416.187-.85.406-1.297.653-4.638-3.436-7.65-8.945-7.65-15.146 0-10.387 8.45-18.838 18.837-18.838s18.837 8.451 18.837 18.838c0 9.612-7.238 17.566-16.55 18.698"/>
        <path fill="#707EB0" d="M203.292 106.015h-.06c-.111-.372-.21-.701-.23-.909-.007-.07.02-.202.074-.379l.216.002c.489 0 .974-.02 1.454-.06.301.377.58.78.833 1.207-.75.09-1.514.139-2.287.139m-8.688-2.126c-.874-.458-1.71-.98-2.5-1.565.448-.247.882-.466 1.298-.653.693.473 1.421.9 2.18 1.272-.304.276-.663.629-.978.946"/>
        <path fill="#B2B5B5" d="M203.232 106.015a18.727 18.727 0 0 1-8.628-2.126c.315-.317.674-.67.979-.946a17.427 17.427 0 0 0 7.493 1.784c-.053.177-.08.309-.074.38.02.207.119.536.23.908"/>
        <path fill="#27283B" d="M109.541 163.186c-1.72-.152-3.305-.298-4.442-.404a2.834 2.834 0 0 0-2.7 1.356c-2.71 4.476-9.653 16.61-9.212 17.708.536 1.334 2.004 2.133 3.44.653 1.432-1.476 6.58-8.876 8.994-12.44a2.836 2.836 0 0 1 2.461-1.231l1.46-5.642"/>
        <path fill="#D2B981" d="M584.86 363.315c2.573 4.043 4.07 7.756 4.07 7.756s-5.57 12.643-7.5 16.071c-1.928 3.429-7.5 18.643-8.356 20.786-.857 2.143-3.429 9.428-3.215 12 .215 2.571-.428 5.357.858 5.357 1.285 0 2.785-7.714 3.428-8.143.643-.428 3.429-1.286 3.857-3 .429-1.714 1.058-6.893 1.387-8.91.328-2.018 20.042-33.518 20.47-35.018.429-1.5-7.285-12.643-7.285-12.643l-7.715 5.744"/>
        <path fill="#27283B" d="M117.367 187.373l-2.801-4.423c-1.865 1.34-3.492 2.57-4.248 3.206-.588.497 1.075 11.995 2.37 16.808.294 1.086.99 2.292 2.066 1.963.89-.272 1.427-1.697 1.356-2.624l-.886-11.57a2.889 2.889 0 0 1 1.034-2.441l1.109-.919"/>
        <path fill="#D2B981" d="M484.788 290.928c1.5-1.072 11.07 9.857 12.785 11.786 1.714 1.928 9.93 20.117 11 21.188 1.072 1.072 5.286 5.455 7.857 5.525 1.831.052-2.5 11.43-2.5 11.43s-4.357-.357-6-1.715c-8.389-6.93-13.076-30.917-14.432-31.56-1.357-.643-5.067-2.583-6.567-2.798-1.5-.214-2.85-1.61-2.352-2.07.922-.858 5.85.072 5.78-1.286-.034-.641-7.071-9.429-5.571-10.5M443.43 470.5c-2.57 6-4.5 12.642-6.642 14.142-2.143 1.5-18.429 5.572-18.429 7.5 0 1.929 0 2.786 1.715 2.357 1.714-.428 18.284-3.428 19-3.857.714-.428 9.714-16.714 9.714-16.714l-5.357-3.429"/>
        <path fill="#3CA4D0" d="M522.967 367.915s-6.535 3.027-10.334 1.371c-10.308-4.49-24.03-7.205-29.55-7.886-7.442-.917-30.438-.83-32.795.028-2.357.857-1.286 46.928-1.071 50.143.214 3.214 5.571 38.143 5.571 38.143l9-18.858s1.5-38.357.857-40.285c-.643-1.929 1.929-3.643 2.786-2.786.857.857 30.214 11.357 31.714 12 1.5.643 32.786-17.357 32.786-17.357l-8.964-14.513"/>
        <path fill="#27283B" d="M464.403 413.201c.321-10.344.582-21.588.244-22.627.338 1.04.077 12.283-.244 22.627"/>
        <path fill="#3C6EA8" d="M464.403 413.201c-4.136-9.51-10.568-33.336-4.568-36.622 1.363-.746 2.918-1.055 4.584-1.055 6.624 0 14.995 4.881 19.97 6.547a6.661 6.661 0 0 0 2.132.353c2.122 0 4.04-1.016 6.017-2.033 1.977-1.016 4.015-2.033 6.38-2.033.687 0 1.405.088 2.156.285 3.475.915 7.681 5.683 14.276 7.92a2944.46 2944.46 0 0 0-22.258 10.983c-9.051-3.308-25.032-9.132-25.661-9.76-.156-.157-.369-.227-.609-.227-.934 0-2.281 1.078-2.28 2.393a1.984 1.984 0 0 0 .105.622c.338 1.04.077 12.283-.244 22.627" opacity=".3"/>
        <path fill="#3CA4D0" d="M439.073 471.214c9.715-23.429 24-56 26.285-58.858 2.287-2.856 66.287-33.713 66.287-33.713l18.286 22.856s-15.782 11.767-23.652 17.243c-6.118 4.253-32.349 10.186-35.206 9.615-2.856-.573-5.143-1.714-5.714 0-.571 1.714 2.285 4-.571 5.143-.909.363-1.47.322-1.925.281-.974-.09-1.452-.178-3.79 3.718-3.429 5.714-28 40-28.57 41.714-.572 1.714-11.43-7.999-11.43-7.999"/>
        <path fill="#3C6EA8" d="M450.177 479.414c-.391 0-1.079-.338-1.922-.871 4.27-11.436 14.952-46.283 25.71-50.044 12.791-4.47 10.712-15.781 19.686-15.781.272 0 .557.01.85.03 1.219.09 2.431.132 3.64.132 17.033 0 32.94-8.453 42.106-14.47l4.454 6.969c-5.313 3.927-13.449 9.901-18.422 13.363l-.163.11c-.027.016-.051.034-.079.05-.123.081-.254.162-.39.242l-.05.031c-.018.009-.035.02-.052.03l-.055.03c-6.913 3.98-29.13 9.095-33.802 9.16H491.599a2.86 2.86 0 0 1-.526-.038c-.996-.2-1.924-.468-2.733-.662l-.207-.048c-.016-.003-.033-.007-.048-.012l-.009-.001a7.312 7.312 0 0 0-1.143-.179 6.307 6.307 0 0 0-.177-.003h-.003c-.666 0-1.147.223-1.377.859l-.007.017a.024.024 0 0 1-.003.01 1.63 1.63 0 0 0-.084.525c0 1.01.797 2.148.799 3.113 0 .596-.306 1.128-1.293 1.524l-.051.02a.025.025 0 0 1-.012.004c-.014.007-.03.012-.043.017-.56.21-.984.264-1.334.266h-.012c-.165 0-.314-.012-.45-.024-.01-.002-.016-.002-.023-.002-.009-.002-.017-.002-.028-.003-.133-.012-.26-.024-.382-.024-.084 0-.164.005-.247.018-.001.002-.003.002-.005.002-.003 0-.005 0-.007.002h-.007c-.003.002-.008.002-.012.003h-.001c-.004 0-.005 0-.009.002l-.007.002h-.005l-.002.001h-.006-.002c-.55.124-1.156.67-2.4 2.628l-.007.01a.788.788 0 0 1-.04.062l-.01.018-.034.053-.007.012-.053.085a1.317 1.317 0 0 0-.077.123l-.038.06-.077.126-.005.009c-.048.078-.1.16-.15.245l-.001.003c-.045.07-.087.144-.132.218a.036.036 0 0 0-.007.01c-.01.017-.02.036-.032.053-3.429 5.714-28 40-28.57 41.714l-.013.03-.001.006h-.002c-.052.113-.16.165-.31.165" opacity=".3"/>
        <path fill="#D2B981" d="M554.323 309.142c-.106 1.072.902 10.334-1.392 11.786s-5.786 3.428-5.786 3.428l3.655 13.5s3.417.858 5.345 0c1.929-.857 7.286-11.142 7.5-12 .214-.857-2.143-5.142-1.928-7.285.214-2.143 1.071-11.357 1.071-11.357l-8.465 1.928"/>
        <path fill="#E8D3A1" d="M548.073 308.213c1.458 2.04 10.64 3.766 12.14 3.338 1.5-.429 7.906-7.337 9.633-11.409 1.728-4.071 3.526-10.574-2.057-15.857-1.324-1.25-6.774 3.506-8.93 5.07-4.132 3.006-7.358 2.144-8.928 3.287-.346.252-.214 6.643-1.072 8.357-.857 1.715-1.858 5.714-.786 7.214"/>
        <path fill="#27283B" d="M582.288 294.57c-1.929-3.642-1.5-11.57-10.315-13.5-5.151-1.126-10.298 1.264-13.685 2.786l6.941 7.694a5.88 5.88 0 0 1 1.102 5.906c-1.678 4.579-4.913 12.785-8.043 17.258 2.5.356 11 .642 19.286-2.786v-5.572l4.107 3.794c4.593-2.722 7.678-7.008 7.678-7.008-1.5-.857-5.142-4.928-7.071-8.571"/>
        <path fill="#6957EE" d="M519.074 365.285l26.571 41.571s4.966-3.944 8.357-7.928c12.215-14.357 13.286-43.072 13.5-44.572.215-1.5 1.715-.642 2.786 0 1.071.643 13.071 14.143 14.357 14.572 1.286.428 11.695-8.56 11.695-9.63 0-.81-2.18-3.45-3.254-4.7a1.315 1.315 0 0 0-1.42-.39l-.332.11a1.76 1.76 0 0 1-2.105-.826c-2.708-4.957-12.447-22.582-15.084-24.421-2.004-1.397-10.745-9.06-12.245-8.817 0 0-5.54 12.532-7.577 12.245-4.186-.588.043-12.785-.568-12.728-7.753.728-14.257 5.461-16.613 6.111-6.216 1.714-19.568 1.046-22.354.617-2.302-.355-3.434 11.294-3.756 15.347a1.569 1.569 0 0 0 1.287 1.67c1.286.234 3.093.442 3.755-.088 1.071-.857-.573-2.357 1.572-2.572 2.14-.214 17.017-1.285 18.034-.696.787.455 1.608 8.196.322 12.91-.932 3.422-13.928 11.144-16.928 12.215"/>
        <path fill="#27283B" d="M545.282 406.287l-.581-.908.58.908"/>
        <path fill="#3C6EA8" d="M545.645 406.856l-.363-.569.363.57s.199-.158.542-.441c-.343.283-.542.44-.542.44"/>
        <path fill="#27283B" d="M590.774 354.41a1.755 1.755 0 0 1 .56-.093l.331-.11-.33.112c-.186.06-.374.09-.561.09m-1.627-1.066c-2.817-5.151-12.391-22.45-15.002-24.272 2.611 1.82 12.185 19.12 15.002 24.272"/>
        <path fill="#3C6EA8" d="M540.247 398.41l-6.88-10.762 6.88 10.762"/>
        <path fill="#3E5091" d="M544.7 405.379l-4.453-6.969 4.454 6.969"/>
        <path fill="#5F4DE2" d="M545.645 406.856l-.363-.569-11.915-18.64c5.016-1.827 13.188-4.967 15.134-6.72 2.858-2.57.715-9.856.144-13.427-.572-3.573-.799-6.376 1.286-9.93 3.142-5.356 15.428-6.928 19.143-21.214.746-2.87-.22-7.55-1.258-11.782.216-.007.432-.017.648-.029 2.412 1.915 4.759 3.883 5.681 4.526 2.611 1.822 12.185 19.12 15.002 24.272l.082.15a1.755 1.755 0 0 0 2.105.826l.331-.112a1.317 1.317 0 0 1 1.421.391c1.073 1.25 3.254 3.89 3.254 4.7 0 .244-.549.91-1.41 1.78-1.881 1.901-5.247 4.79-7.643 6.485-1.176.833-2.119 1.38-2.537 1.38a.32.32 0 0 1-.105-.015c-1.286-.429-13.286-13.929-14.357-14.572-.633-.378-1.414-.833-1.992-.833-.403 0-.706.218-.794.833-.214 1.5-1.285 30.215-13.5 44.572-2.713 3.188-6.435 6.351-7.815 7.488-.343.283-.542.44-.542.44"/>
        <path fill="#27283B" d="M515.122 343.735c.4-.041.736-.136.952-.307.343-.274.408-.616.408-.958 0 .342-.065.684-.408.958-.216.171-.552.266-.952.307"/>
        <path fill="#5F4DE2" d="M514.587 343.76c-.62 0-1.318-.085-1.937-.188 1.6-1.444 3.035-3.189 3.475-4.144.912-1.981 3.125-3.792 5.218-3.792.246 0 .49.024.73.078 1.57.342 2.81 1.409 4.79 1.409.907 0 1.967-.223 3.282-.839 3.615-1.69 5.048-3.36 7.433-3.36.396 0 .82.047 1.282.146 3.641.787 1.713 2.143.785 2.716-.929.57-1.071 3.428-3.965 4.374-.214-.125-1.047-.174-2.25-.174-4.484 0-14.096.7-15.784.87-1.04.105-1.188.51-1.188.998 0 .196.024.406.024.616 0 .342-.065.684-.408.958-.216.171-.552.266-.952.307a5.301 5.301 0 0 1-.535.025"/>
        <path fill="#27245B" d="M427.255 488.07c-4.516 1.497-8.896 3.073-8.896 4.072 0 1.929 0 2.786 1.715 2.357 1.714-.428 18.284-3.428 19-3.857.18-.108.903-1.25 1.873-2.883-2.73.79-5.851 1.791-7.373 2.026-2.786.429-4.5.214-6.32-1.714"/>
        <path fill="#E3EFF5" d="M568.464 324.545a112.239 112.239 0 0 0-2.155-1.675 24.96 24.96 0 0 0 8.215-1.188c-.106.63-.216 1.264-.327 1.891a26.687 26.687 0 0 1-5.733.972m6.653-1.251c.11-.635.223-1.293.33-1.927 9.592-3.508 16.46-12.727 16.46-23.52 0-9.32-5.119-17.465-12.694-21.773v-.278c0-.556-.002-1.123-.006-1.678 8.56 4.465 14.414 13.426 14.414 23.729 0 11.875-7.776 21.965-18.504 25.447m-23.182-3.278c-7.114-4.81-11.8-12.953-11.8-22.17 0-14.746 11.997-26.742 26.743-26.742 4.103 0 7.992.927 11.469 2.585.005.636.008 1.282.008 1.918a24.876 24.876 0 0 0-11.477-2.789c-13.801 0-25.028 11.227-25.028 25.029 0 9.07 4.85 17.03 12.09 21.42-.053.178-.11.346-.173.504h-.012c-.615.058-1.222.14-1.82.245"/>
        <path fill="#D0D0C2" d="M560.258 323.762c-2.345-.6-4.57-1.51-6.623-2.687.162-.787.24-1.284.132-1.304.064-.158.12-.326.174-.504a24.878 24.878 0 0 0 7.074 2.916 140.84 140.84 0 0 1-.757 1.579"/>
        <path fill="#A79BFF" d="M566.878 324.591c-2.285 0-4.503-.288-6.62-.83.28-.572.535-1.107.757-1.578 1.704.411 3.475.646 5.294.687.7.528 1.43 1.1 2.155 1.675-.002 0 0 0 0 0l-.814-.643.166.672c-.312.012-.624.017-.938.017m-13.243-3.516a26.126 26.126 0 0 1-1.7-1.06 23.366 23.366 0 0 1 1.82-.244h.012c.108.02.03.517-.132 1.304"/>
        <path fill="#8D7EFB" d="M567.816 324.574l-.166-.672.814.643c-.216.012-.432.022-.648.03"/>
        <path fill="#FFFFFE" d="M554.436 347.21l-1.44-.871 4.834-7.997 1.442.87-4.836 7.998M556.59 348.514l-1.44-.872 4.835-7.998 1.442.871-4.836 8M558.746 349.817l-1.442-.873 4.836-7.997 1.442.873-4.836 7.997"/>
        <path fill="#FFF" fill-rule="nonzero" d="M299.294 193.76l1.412-1.696c8.528 7.107 17.679 8.867 27.6 5.324 3.597-1.285 6.539-2.68 12.48-5.761 1.613-.837 1.628-.844 2.214-1.146 13.691-7.048 21.689-9.015 32.32-5.794 8.8 2.667 14.971 9.25 17.89 18.01 2.581 7.74 2.283 16.473-.67 22.674-7.52 15.791-8.564 25.304-.443 30.005 4.068 2.356 7.384 2.837 15.674 2.91 9.8.087 14.76.723 21.701 3.646 4.839 2.037 8.877 4.513 12.455 7.466 3.351 2.766 10.475 10.61 11.269 11.268.599.496 1.16.874 1.709 1.149l-.986 1.973c-.712-.356-1.41-.826-2.13-1.424-.956-.791-8.078-8.633-11.266-11.265-3.416-2.819-7.27-5.182-11.907-7.134-6.61-2.783-11.33-3.388-20.865-3.473-8.66-.077-12.254-.598-16.76-3.207-5.273-3.053-7.269-8.088-6.54-14.723.558-5.09 2.582-10.756 6.097-18.14 2.698-5.665 2.976-13.81.57-21.028-2.704-8.112-8.362-14.149-16.438-16.596-9.937-3.01-17.445-1.163-30.67 5.644-.583.3-.598.308-2.208 1.143-6.028 3.125-9.034 4.551-12.755 5.88-10.667 3.81-20.634 1.893-29.753-5.706z"/>
        <path fill="#4ABCFF" fill-rule="nonzero" d="M371 581h18l-11 18h-18z" opacity=".7"/>
        <path fill="#4ABCFF" fill-rule="nonzero" d="M11 99h18l-11 18H0z"/>
        <path fill="#2DB0FF" fill-rule="nonzero" d="M572 21h18l-11 18h-18z" opacity=".4"/>
        <path fill="#F0F8FD" fill-rule="nonzero" d="M67 514.652l155.5-4.547c-9.7-27.28-27.584-37.586-53.652-30.918C159.754 467.062 148.236 461 134.292 461c-13.943 0-26.674 10.912-38.193 32.737C76.7 485.856 67 492.827 67 514.652zM62.13 104l90.992-2.5c-2.141-6.667-6.959-10.167-14.452-10.5-3.568-6.333-9.278-8.5-17.128-6.5-3.568-7-8.742-10.5-15.522-10.5-10.17 0-14.987 10-14.987 12-5.352-.333-9.456 1.833-12.31 6.5-12.132-4-17.663-.167-16.593 11.5zM422 56.443l87.267-1.467c-3.423-9.288-10.267-12.466-20.534-9.533-4.889-7.333-12.222-11-22-11-9.777 0-16.622 5.133-20.533 15.4-13.689-2.444-21.756-.244-24.2 6.6z"/>
    </g>
</svg>
