<svg xmlns="http://www.w3.org/2000/svg" width="794" height="515" viewBox="0 0 794 515">
    <g fill="none" fill-rule="evenodd">
        <path fill="#000" d="M632.839 427.67h-8.194V306.109l8.194-.09V427.67m-8.194-128.202v-64.167l8.194-.162v64.239l-8.194.09m0-71.104V210.06l8.194 4.889V228.2l-8.194.163m8.194-16.114l-8.194-4.889v-5.693l8.071-5.336.123.072v15.846m-8.194-13.361v-7.37l5.862 3.494-5.862 3.876m8.01-5.294l-8.01-4.777v-11.14l8.194-5.415v21.211l-.183.12m-8.01-18.69v-15.529l8.193-.3v10.411l-8.194 5.417m0-23.042v-15.614l.204-.007v-9.06c0-6.542-4.766-11.926-10.957-12.962l5.23-.167c.197-.01.391-.014.588-.014 7.211 0 13.129 5.853 13.129 13.143v24.38l-8.194.3" opacity=".05"/>
        <path fill="#FFF" d="M777.957 301.76c-1.382 7.3-12.084 13.464-20.684 18.416-7.126 4.104-12.756 7.344-13.64 10.886-1.316 5.262 2.672 7.626 5.876 9.526 2.042 1.21 3.576 2.182 4.296 3.432-19.152 6.588-33.872 3.114-39.158 1.376 16.512-24.072 38.426-42.85 60.868-52.058 2.148 2.906 2.962 5.666 2.442 8.422zm-40.568 58.598c-5.602 3.006-8.546 4.66-8.958 6.516-.512 2.308 2.292 3.036 5.842 3.958 5.938 1.54 10.928 3.268 11.616 8.064-23.554 9.772-43.192 2.214-48.878-.464 3.748-9.534 8.616-19.102 14.546-28.38.628-.984 1.284-1.944 1.932-2.912 2.924 1.036 9.192 2.812 17.886 2.812 6.42 0 14.172-.994 22.844-3.95-.018.228-.028.454-.084.706-1.176 5.296-10.176 10.126-16.746 13.65zm-10.702 34.38c-6.4.852-12.444 1.66-14.79 6.422-4.744 9.612 1.042 13.396 5.688 16.434 2.836 1.854 5.284 3.456 5.284 5.98 0 .064 0 .262-.322.562-1.857 1.72-8.362 2.556-16.547 2.864l-17.5-.003c-1.032-14.318 1.621-30.411 7.777-46.703 3.862 1.798 13.238 5.46 25.662 5.46 7.144 0 15.302-1.244 23.974-4.722l-.03.41c-1.456 10.926-10.476 12.132-19.196 13.296zm-65.86-.826c7.096 15.858 21.638 20.87 25.454 21.924a90.927 90.927 0 0 0 .11 11.161H665c-3.612-9.22-6.037-26.481-4.173-33.085zm8.578-2.624c3.906.774 8.324 1.648 10.196-2.07 1.182-2.342.314-9.026-1.322-20.636-2.07-14.708-5.202-36.93.8-39.332l.446-.154c4.732 23.59 21.37 32.586 22.458 33.15a156.598 156.598 0 0 0-7.634 17.052c-4.354 11.528-7.132 23.202-7.958 34.49-4.158-1.202-18.118-6.356-24.404-22.224 1.44-1.438 4.342-.888 7.418-.276zm20.59-61.368c2.666 1.308 5.684 2.788 10.556 1.5 6.422-1.7 8-10.272 9.526-18.564 1.35-7.33 2.744-14.908 7.362-16.844a6.122 6.122 0 0 1 1.998-.454c-3.374 13.728 2.214 30.708 3.966 34.626l.334-.15a173.308 173.308 0 0 0-11.164 14.6l-.28.416c-3.404 5-6.536 10.162-9.362 15.436-.334-.174-16.956-9.012-21.49-31.982 3.752-.904 6.02.172 8.554 1.416zm47.9-24.03c3.452.16 7.852-3.214 13.038-7.06 8.104-6.016 17.23-12.766 23.208-7.076-18.1 7.562-35.074 20.75-49.204 36.92-1.95-4.8-6.72-20.39-3.484-32.942 3.016.71 5.96 3.218 8.658 5.52 2.862 2.444 5.334 4.554 7.784 4.638zm11.846-8.666c-4.682 3.474-9.022 6.768-11.78 6.666-1.748-.058-4.082-2.052-6.552-4.16-4.108-3.51-9.224-7.88-14.744-5.562-5.614 2.352-7.108 10.474-8.554 18.328-1.414 7.674-2.876 15.614-8.072 16.99-4.148 1.102-6.582-.094-9.162-1.362-3.17-1.552-6.448-3.166-12.54-.73-7.458 2.984-4.58 23.428-2.038 41.464 1.216 8.636 2.474 17.562 1.518 19.46-1.11 2.196-3.902 1.83-8.02 1.008-3.654-.722-7.79-1.544-9.814 1.494-3.75 5.628-1.711 25.977 2.517 36.177L721 427c1.268-.413 2.291-.829 2.905-1.398.796-.736.964-1.51.964-2.028 0-3.606-3.146-5.662-6.188-7.654-4.604-3.008-8.948-5.852-4.992-13.878 1.876-3.802 7.406-4.54 13.262-5.322 9.026-1.206 19.256-2.57 20.916-15.012 1.212-9.104-7.394-11.336-13.092-12.812-1.656-.43-4.158-1.078-4.39-1.588.232-1.048 4.512-3.342 7.948-5.188 7.298-3.914 16.38-8.784 17.754-14.978.98-4.4-2.494-6.46-5.558-8.276-3.678-2.18-5.846-3.76-4.956-7.32.678-2.714 6.518-6.078 12.698-9.636 9.422-5.426 20.1-11.574 21.65-19.778.662-3.504-.446-7.088-3.294-10.648-7.136-8.922-18.084-.792-26.886 5.74z" opacity=".2"/>
        <path fill="#FFF" d="M753 427c.086.022 11.824-.544 16.84-6.074 1.77-1.952 2.514-4.416 2.214-7.324-.278-2.68-3.708-5.134-7.022-7.508-3.938-2.822-8.014-5.74-7.33-9.582 1.224-6.86 7.602-7.214 13.23-7.526 6.07-.336 11.31-.626 11.85-7.3.184-2.274-2.14-4.578-4.604-7.02-2.876-2.852-5.852-5.804-5.622-9.478.154-2.464 3.308-6.694 7.302-12.05 5.546-7.436 12.446-16.69 11.594-22.122-.194-1.24-.798-2.208-1.846-2.952-3.544-2.532-9.37 5.388-14.502 12.38-4.012 5.47-7.804 10.638-11.17 12.08-3.494 1.492-6.854 1.062-9.994-1.286l1.2-1.602c2.56 1.918 5.176 2.262 8.006 1.048 2.864-1.228 6.668-6.41 10.348-11.424 5.952-8.114 12.106-16.5 17.272-12.824 1.488 1.058 2.382 2.494 2.662 4.268.984 6.266-5.896 15.49-11.966 23.63-3.34 4.478-6.792 9.11-6.91 10.978-.174 2.77 2.474 5.394 5.036 7.934 2.676 2.654 5.446 5.4 5.186 8.6-.68 8.414-7.614 8.798-13.73 9.136-5.596.31-10.428.58-11.372 5.88-.464 2.6 3.088 5.146 6.524 7.604 3.676 2.634 7.478 5.354 7.846 8.928.364 3.5-.552 6.486-2.724 8.88-2.154 2.371-5.253 3.83-8.283 4.729L753 427z" opacity=".1"/>
        <path fill="#FFF" d="M140.044 427H124c-1.292-5.144-6.612-27.84-8.308-46.078-.274-2.95.484-5.676 2.052-7.758-3.238-20.602-5.416-36.268-6.468-46.558-.85-8.306-3.638-14.056-7.648-15.778a5.656 5.656 0 0 0-2.254-.48c-1.254 0-2.492.444-3.618 1.312-2.634 2.032-5.04 6.926-3.89 14.558.672 4.472 2.504 15.448 5.434 32.612A29071.012 29071.012 0 0 1 121.5 427h-2c-2.188-6.746-12.278-37.514-21.936-67.034-.132-.202-.166-.41-.206-.628-1.41-4.312-2.812-8.592-4.178-12.758a12.01 12.01 0 0 0 .492-3.35c0-.998-1.722-1.912-2.85-3.822l-.912-2.778a8.106 8.106 0 0 1-.036-.456c.748-.612 1.172-1.416 1.256-2.236 1.268 3.846 2.594 7.882 3.954 12.026-1.64-9.718-2.714-16.246-3.196-19.448-1.072-7.102.71-13.402 4.646-16.44 1.48-1.14 3.156-1.724 4.85-1.724 1.018 0 2.04.212 3.032.638 4.698 2.018 7.922 8.364 8.85 17.412 1.024 10.008 3.122 25.148 6.226 44.992l.464-.37c1.5-1.024 3.188-1.546 4.868-1.546a8.07 8.07 0 0 1 3.648.87c2.202 1.104 5.954 4.266 6.32 13.026m-13.71-10.698c-2.442 1.67-3.712 4.682-3.398 8.062 1.714 18.446 7.178 41.764 8.316 46.262h12c-.87-5.492-4.624-29.618-5.206-43.544-.322-7.736-3.408-10.414-5.22-11.322a6.099 6.099 0 0 0-2.748-.65c-1.286 0-2.584.4-3.744 1.192zm-59.336 28.566c-4.602-8.058-1.774-14.694 2.802-17.45a9.718 9.718 0 0 1 1.738-.814c-7.438-16.188-14.864-31.46-22.078-45.402-5.422-10.472-3.152-16.63.78-18.898 1.18-.68 2.584-1.036 4.074-1.036 3.47 0 7.418 1.928 10.158 6.21 1.788 2.796 4.914 8.426 9.316 16.776-5.864-17.322-10.378-30.67-10.806-31.988-3.534-10.922-.006-17.692 5.056-19.556a8.905 8.905 0 0 1 3.088-.538c4.87 0 10.558 3.694 13.972 11.932.902 2.178 5.1 14.712 10.518 31.134a3.764 3.764 0 0 0-.81-.686c-.614-.39-1.186-.572-1.722-.598-5.098-15.44-8.99-27.046-9.834-29.084-3.054-7.378-7.978-10.704-12.094-10.704-.852 0-1.668.142-2.428.42-4.164 1.534-6.968 7.404-3.842 17.062.49 1.514 6.4 18.988 13.556 40.116a14.266 14.266 0 0 0-2.014 1.868c-6.748-13.038-11.338-21.472-13.642-25.076-2.332-3.646-5.628-5.304-8.454-5.304-1.138 0-2.2.268-3.092.784-3.132 1.806-4.778 7.026-.006 16.248 7.284 14.07 14.78 29.492 22.286 45.844a9.192 9.192 0 0 1 2.134-.026c.55.662 1.536 1.776 2.602 2.964a6.725 6.725 0 0 0-3.582-1.032c-1.366 0-2.696.408-3.844 1.098-3.768 2.27-6.032 7.852-2.096 14.744a420.722 420.722 0 0 1 7.334 13.43c-.254.908-.51 1.864-.768 2.852a427.282 427.282 0 0 0-8.302-15.29zm16.448-32.098c.182.138.326.332.404.566l3.746 11.468.016.258a39596.36 39596.36 0 0 0-4.166-12.292z" opacity=".2"/>
        <path fill="#FFF" d="M31.734 392.296a3.494 3.494 0 0 1-3.49-3.49 3.494 3.494 0 0 1 3.49-3.49 3.493 3.493 0 0 1 3.488 3.49 3.493 3.493 0 0 1-3.488 3.49zM3 394.486a3.493 3.493 0 0 1 3.49-3.488 3.491 3.491 0 0 1 3.488 3.488 3.491 3.491 0 0 1-3.488 3.488A3.493 3.493 0 0 1 3 394.486zm9.402-15.45a3.493 3.493 0 0 1 3.488-3.49 3.493 3.493 0 0 1 3.488 3.49 3.491 3.491 0 0 1-3.488 3.488 3.491 3.491 0 0 1-3.488-3.488zm24.82 9.77a5.496 5.496 0 0 0-5.488-5.49 5.498 5.498 0 0 0-5.49 5.49 5.498 5.498 0 0 0 5.49 5.49l.076-.008c.306 4.694-.016 13.924-6.302 19.256-.036-8.362-1.34-19.528-6.55-29.962a5.485 5.485 0 0 0 2.42-4.546 5.496 5.496 0 0 0-5.488-5.49 5.497 5.497 0 0 0-5.488 5.49 5.497 5.497 0 0 0 5.488 5.488c.424 0 .834-.062 1.23-.15 2.942 5.86 4.614 11.97 5.502 17.658-2.48.13-8.812.06-12.35-3.586a5.466 5.466 0 0 0 1.706-3.96 5.496 5.496 0 0 0-5.488-5.488A5.496 5.496 0 0 0 1 394.486a5.495 5.495 0 0 0 7.616 5.06c3.49 3.86 9.218 4.534 12.6 4.534.678 0 1.238-.028 1.686-.056 1.566 12.302-.358 22.15-.388 22.3l1.96.398c.02-.098.844-4.322 1.006-10.68 6.026-4.192 9.018-12.194 8.282-22.148 2.024-.808 3.46-2.78 3.46-5.088z" opacity=".1"/>
        <path fill="#FFFFFE" d="M589.909 114.985v-.01l21.016-.924c.197-.01.392-.014.59-.014h.099c-.16.002-.322.007-.485.014l-21.22.934"/>
        <path fill="#FFF" d="M624.645 427.67H589.91V306.49l34.736-.381V427.67M589.91 299.85v-2.116c5.32-1.432 12.59-3.398 12.378-3.467-.327-.11-1.24-2.402-1.24-4.029 0-1.224.697-2.28.259-2.28-.324 0-7.373.09-11.397.315V269.43c.505-1.115 1.358-2.642 1.838-3.479.39-.684.378-6.622.269-7.936-.049-.57-.698-2.67-2.107-4.307v-17.72l34.736-.687v64.167l-34.736.383m0-70.804v-4.42l28.06-18.548 6.676 3.982v18.303l-34.736.683m0-7.197v-21.21l8.986-5.94 16.866 10.063-25.852 17.087m34.736-14.489l-4.527-2.7 4.527-2.993v5.693m-6.736-4.02l-16.87-10.061 12.6-8.326 11.006 6.564v7.371l-6.736 4.453m-28-5.477v-8.526l6.777 4.043-6.777 4.483m8.924-5.902l-8.924-5.324v-15.843l21.524 12.839-12.6 8.328m25.812-3.145l-8.857-5.285 8.857-5.855v11.14m-11.066-6.602l-23.67-14.12v-7.441l34.736-1.28v15.528l-11.066 7.313m-23.67-29.076v-15.69l34.736-1.203v15.614l-34.736 1.28" opacity=".2"/>
        <path fill="#FFFFFE" d="M613.72 114.222a13.435 13.435 0 0 0-2.106-.185h.102c.742 0 1.467.063 2.176.18l-.171.005M624.645 136.247v-9.067c0-6.53-4.75-11.908-10.924-12.958l.171-.004c6.191 1.036 10.957 6.42 10.957 12.962v9.06l-.204.007"/>
        <path fill="#FFFFFE" d="M589.909 114.985l21.22-.934c.163-.007.325-.012.485-.014.716.007 1.42.07 2.107.185l-23.812.763"/>
        <path fill="#FFFFFE" d="M589.909 137.45v-22.465l23.812-.763c6.175 1.05 10.924 6.428 10.924 12.958v9.067l-34.736 1.203" opacity=".78"/>
        <path fill="#FFF" d="M608.23 131.064l-2.768-1.263a1.771 1.771 0 0 0-1.65.093l-2.61 1.564.345-3.022a1.78 1.78 0 0 0-.598-1.542l-2.295-2 2.981-.603a1.784 1.784 0 0 0 1.282-1.045l1.191-2.8 1.498 2.647c.287.51.809.844 1.39.897l3.03.267-2.056 2.243a1.771 1.771 0 0 0-.422 1.597l.682 2.967"/>
        <path fill="#FFF" d="M574.006 427.67V306.663l3.671-.04V427.67h-3.671zm-32.73 0v-1.275h-1.094v-36.709l1.405-.658a7.732 7.732 0 0 0 3.632-7.702l-2.137-10.095a13.08 13.08 0 0 0 1.794-6.63v-59.62l17.412-.19a2.315 2.315 0 0 0 2.293 1.974l7.107-.076V427.67h-30.411zm-8.907 0l-.107-5.598 1.043-2.385a3.247 3.247 0 0 0 .218-1.88l-3.01-16.617 1.362-.878a4.825 4.825 0 0 0 2.151-3.324c.2-1.296.468-3.025.744-4.754a.15.15 0 0 0 .051-.026l3.044-1.43v35.617h-1.229v1.275h-4.267zm-55.053 0l-14.897-48.616 38.97-.737.089.732c.459 3.883.957 8.062 1.37 11.532l.02.171c.026.211.052.42.075.626.102.856.2 1.66.287 2.397l.058.508.093.767.292 2.438c.025.211.037.306.046.397.03.257.049.394.049.394.051.438.081.679.081.679l-3.641 7.816c-.11.236-.179.489-.202.749-.167 1.958-.941 10.961-1.694 20.147h-20.996zm-34.449 0l-3.254-1.787v-24.076c.927.016 1.903.025 2.855.025 3.146 0 6.052-.102 6.159-.364.236-.58-.14-2.897-.042-3.671.06-.501.044-2.501.023-3.848l1.136.178s2.119-8.374 2.881-11.972c.184-.864.32-1.856.422-2.925l2.14-.04 14.853 48.48h-27.173zm-23.564 0v-16.473c0-.283-.01-.566-.025-.844h15.699v17.317h-15.674zm-220.402 0v-92.661l34.382-.628v38.994c0 2.137.51 4.154 1.416 5.936 2.18 4.284 6.616 7.202 11.722 7.202l51.977-.8v11.126h-3.347c-4.868 0-9.286 1.906-12.484 4.993-3.2 3.085-5.192 7.373-5.19 12.102v13.736H198.9zm220.052-19.635c-1.444-6.405-7.179-11.2-14.012-11.2h-4.116v-14.056h34.152v17.308c-.32.482-.355 1.138-.445 1.381-.014.042.146.084.445.12v6.447h-16.024zm20.66-28.698c.565.074 1.142.113 1.729.113.086 0 .169 0 .255-.002l3.178-.06c.004 6.163.044 13.968.044 13.968l1.054.164c-.32 1.05-.802 2.44-1.344 3.312-.547.872-2.816 1.59-4.916 2.068v-19.563zm-138.897 17.502v-11.163l69.521-1.073c7.179-.111 12.939-5.964 12.939-13.14v-57.434c0-7.269-5.9-13.14-13.136-13.14-.06 0-23.168.463-69.324 1.389v-18.094l69.635-1.671c7.132-.174 12.825-6.004 12.825-13.138v-31.842c0-7.273-5.904-13.14-13.136-13.14-.07 0-41.382.991-123.932 2.974-5.78.14-10.618 3.998-12.24 9.255l-34.967.587v-24.864l39.929-1.767a13.07 13.07 0 0 0 7.586 2.418c.105 0 32.277-1.135 96.516-3.405.039.207 6.307.217 18.803.03l7.573-.18s-.135-.281-.366-.77l1.557-.054c7.072-.25 12.677-6.056 12.677-13.133v-31.317c0-7.286-5.913-13.143-13.129-13.143-.12 0-22.316.892-66.587 2.675a13.252 13.252 0 0 0-3.06-1.984c-2.278-3.934-6.531-6.57-11.373-6.57-.12 0-30.163 1.208-90.126 3.624v-22.053c0-7.021 5.52-12.802 12.531-13.126l34.32-1.593-34.32 1.593c-7.012.324-12.53 6.105-12.53 13.126v10.827l53.692-2.566a8.889 8.889 0 0 0 6.738-3.62l4.26-5.816a8.882 8.882 0 0 1 6.806-3.625l28.976-1.169c.572 1.169.936 1.924.936 1.924s.865.158 2.024.258c-.053 2.846.299 5.502 1.006 5.922.774.192.864-.021.971-.234.668-.427.8-.404.96-.346 1.29.457.962 4.08 3.467 4.08 3.47-.408.633-6.724-1.031-10.185.264-.223.45-.503.524-.848 2.22-.554 4.25.516 5.709 2.21l4.209 4.896a8.886 8.886 0 0 0 6.736 3.088c.093 0 25.833-1.227 77.221-3.681v142.881c0 3.871 1.52 7.496 4.286 10.206a14.256 14.256 0 0 0 5.693 3.435 13.118 13.118 0 0 0 10.18 4.833c.056 0 2.037-.036 5.943-.109v18.645c-1.597.83-3.224 1.484-4.54 1.609-3.092.29-14.082.702-14.082.702l-2.628 5.253s10.486.904 13.838 1.138c.382.028.672.046.843.053 2.51.01 4.43-.457 5.988-.925.134-.04.328 1.215.581 3.765h-24.627v2.605h24.627v3.393h-27.383v-14.811h-4.636v86.33h-91.201l-4.272.005zm100.109-16.378v-25.254h19.593c3.56 6.113 7.538 12.35 7.885 12.746.119.9.32 1.764.6 2.592-.481.368-1.23.735-1.663.983-.675.387-5.505 1.159-6.18 1.256-.677.095 0 1.544 0 1.544h-1.254v2.605h13.806c.435.318.892.61 1.365.872v2.656h-34.152zm0-27.572v-25.256h27.383v11.244c-6.3 1.915-12.393 3.832-13.33 4.354-.399.22.053 1.594.997 3.592h-4.182v2.606h5.494a135.27 135.27 0 0 0 1.9 3.46h-18.262zm26.871-3.46h.512v1.228c-.197-.508-.37-.927-.512-1.228zm-228.795-28.852l41.498-32.826 19.885 15.338-14.123.285c-7.153.141-12.878 5.982-12.878 13.138v13.233l-34.382.628v-9.796zm0-64.825l39.602 30.539-39.602 31.326v-61.865zm43.37 30.52l1.369-1.082a13.05 13.05 0 0 0 3.1.292l9.428-.227 42.23-1.016v18.085l-34.414.69-21.712-16.742zm302.605-24.825c.81-.727 4.281-3.414 6.467-5.092.436.304.916.526 1.356.526.047 0 .093-.002.14-.007.984-.116 12.458-7.575 13.279-8.066.537-.32 1.784-.911 2.793-.911.528 0 .99.162 1.25.612.3.412.887 1.53 1.527 2.848v7.75c-2.098.465-3.996.931-5.241 1.311-3.936 1.203-14.047 7.105-14.893 7.54-.846.44 7.677 21.53 7.897 22.403.093.371.96.505 2.017.505 1.442 0 3.233-.252 3.87-.505 1.109-.436 2.963-.327 2.963-.985 0-.654-3.822-17.155-4.042-17.59-.026-.052.238-.137.725-.249 1.233-.278 3.78-.704 6.704-1.159v29.672l-26.812.294v-38.897zm29.13 8.577c.115-.019.231-.035.35-.054.91 5.118 2.489 13.671 3.321 16.383v13.632l-3.671.04v-30.001zm-375.105-17.2v-10.977l34.382-.58v31.08c0 5.33 3.173 9.908 7.716 11.971l-.62.492-41.478-31.985zm375.105 3.802c.192.52.306.9.306 1.062 0 .141-.017.447-.045.864-.088.019-.173.037-.261.054v-1.98zm-29.13-20.625l.911-.02a3.455 3.455 0 0 0 2.754-1.477l13.61-.269c-.006.097-.009.195-.006.294a3.474 3.474 0 0 0 1.48 2.77c-5.156 4.98-14.192 13.609-14.556 14.214-.245.41-.102 1.17.165 1.91a391.94 391.94 0 0 1-4.358 3.623V236zm1.836-6.807l24.976-16.511v8.76a3.47 3.47 0 0 0-2.318 3.263v4.281c-.355.123-.726.29-1.092.49l-20.314.398a3.448 3.448 0 0 0-1.252-.681zm29.611-4.488a3.47 3.47 0 0 0-2.317-3.264v-10.291l3.671-2.427v20.567l-1.354.025v-4.61zm-31.447-55.99c0-2.81-.88-5.407-2.376-7.537l29.188 17.291v31.436l-26.812 17.72v-58.91zm29.13 11.138l3.671 2.188v23.905l-3.671 2.427v-28.52zM234.2 204.691l-35.3 1.25 35.3-1.25zm339.805-27.537v-6.156a3.466 3.466 0 0 0 2.317-3.264v-5.042l1.354.807v15.845l-3.671-2.19zm-27.642-16.49a3.452 3.452 0 0 0 2.089-1.36l13.877-.51a2.316 2.316 0 0 0 2.267 2.793l.088-.003 4.685-.173v6.323c0 1.511.97 2.786 2.318 3.264v4.772l-25.324-15.106zm-20.569-38.744l51.882-2.48v34.15l-29.71 1.094a3.457 3.457 0 0 0-2.312-.895l-13.99.316a3.478 3.478 0 0 0-2.847 1.597l-3.023.148v-33.93z" opacity=".302"/>
        <path fill="#7461FF" d="M245.897 156.021c-7.046.283-11.455 6.078-11.455 13.13v30.702c0 7.44 5.011 13.398 12.447 13.134l123.61-4.37c7.072-.25 12.677-6.056 12.677-13.133v-31.317c0-7.466-6.212-13.433-13.669-13.131l-123.61 4.985z"/>
        <path fill="#FFFFFE" d="M198.901 137.543v-10.827c0-7.021 5.52-12.802 12.531-13.126l34.32-1.593c-.342 1.498-.272 2.983.377 4.395.461.999 2.374 1.228 4.033 1.228 1.407 0 2.631-.164 2.631-.164l.06-.132c0 .002 0 .002.003.002.046-.1.136-.297.261-.563.573-1.2 1.783-3.693 2.717-5.234l11.089-.515a26.319 26.319 0 0 0 8.87 1.519h.008c.767 0 1.564-.033 2.392-.1.041-.005.083-.007.123-.012l.071-.007.042-.004c2.262-.241 4.928-1.245 7.339-2.27l8.045-.373c1.583 2.9 4.177 8.152 5.56 10.98l-28.975 1.169a8.882 8.882 0 0 0-6.806 3.625l-4.26 5.815a8.889 8.889 0 0 1-6.738 3.621l-53.693 2.566m125.984-6.031a8.886 8.886 0 0 1-6.736-3.088l-4.21-4.895a8.883 8.883 0 0 0-5.674-3.027c-.13-2.135-1.546-6.701-3.859-11.226l97.7-4.532v23.087l-76.802 3.672c-.139.006-.28.009-.42.009m200.911-9.592v-22.9l-4.703.21v-.005l43.042-1.995a13.161 13.161 0 0 1 3.82.38l-.04.002c5.299 1.317 9.36 5.853 9.905 11.458l.013.139v.002c0 .01.003.019.003.028v.01c.002.008.002.018.002.027 0 .005 0 .007.002.012v.025c.003.005.003.007.003.012 0 .009 0 .018.002.025v.014l.007.081v.019l.002.018v.021c0 .007.003.012.003.019v.02l.002.02v.02c.002.007.002.012.002.018v.026c.003.005.003.01.003.016 0 .012 0 .021.002.035v.039c.002.005.002.01.002.017v.023c0 .004 0 .011.003.016v.039l.002.026v.014c0 .014 0 .025.002.04v.053l.002.025v.056c0 .009 0 .016.003.025v.103l.002.03v5.324l-.204.009v3.924l-51.882 2.48" opacity=".781"/>
        <path fill="#FFFFFE" d="M577.677 119.44v-3.924l.204-.01v3.925l-.204.01"/>
        <path fill="#FFF" d="M326.876 125.807c-.865.042-1.662-.496-1.991-1.34l-1.182-3.013c-.538-1.379.375-2.895 1.785-2.962l13.059-.628c.864-.04 1.662.494 1.993 1.337l1.18 3.016c.54 1.377-.376 2.895-1.785 2.962l-13.059.628z"/>
        <path fill="#43E892" d="M428.208 173.174V366.31c0 7.355 6.034 13.277 13.389 13.138l90.387-1.708c7.158-.135 12.892-5.978 12.892-13.138V168.717c0-7.513-6.286-13.495-13.787-13.127l-90.387 4.458c-6.998.345-12.494 6.119-12.494 13.126"/>
        <path fill="#46A2E0" d="M422.265 289.186c-4.098 0-7.767-1.88-10.18-4.833 1.377.436 2.828.66 4.314.66l.278-.002 11.531-.218v4.284l-5.69.107c-.086.002-.17.002-.253.002m98.827-133.104v-33.937l4.703-.225v33.93l-4.703.232"/>
        <path fill="#B8DDF4" d="M521.092 122.145V99.23l4.703-.21v22.9l-4.703.225"/>
        <path fill="#37DA85" d="M441.152 288.831v-4.283l65.91-1.247c7.735-.146 14.03-6.562 14.03-14.3v-112.92l4.703-.231v118.487c0 7.16-5.732 13.004-12.89 13.138l-71.753 1.356"/>
        <path fill="#F1CE2B" d="M233.283 316.512v56.86c0 7.34 6.008 13.255 13.344 13.141l123.61-1.91c7.179-.111 12.939-5.964 12.939-13.14v-57.434c0-7.359-6.045-13.284-13.405-13.138l-123.61 2.483c-7.153.141-12.878 5.982-12.878 13.138"/>
        <path fill="#43E892" d="M233.283 240.503v31.84c0 7.381 6.078 13.315 13.458 13.139l123.61-2.97c7.132-.173 12.825-6.003 12.825-13.137v-31.842c0-7.38-6.078-13.314-13.458-13.138l-123.61 2.972c-7.132.172-12.825 6.001-12.825 13.136"/>
        <path fill="#979894" d="M246.421 386.513h.206-.206m-11.722-7.202a13.057 13.057 0 0 1-1.416-5.936v-.002c0 2.137.51 4.156 1.416 5.938"/>
        <path fill="#EBAB2C" d="M246.421 386.513c-5.104 0-9.543-2.918-11.715-7.188l-.007-.014a13.067 13.067 0 0 1-1.416-5.938V334.38l12.192-.223v38.784c0 7.269 5.895 13.142 13.138 13.142.067 0 .137 0 .207-.002l-12.193.431h-.206m-13.138-56.768v-13.233c0-7.156 5.725-12.997 12.878-13.138l10.076-.202c-6.13 1.122-10.762 6.479-10.762 12.909v13.439l-12.192.225"/>
        <path fill="#979894" d="M246.416 285.487a13.05 13.05 0 0 1 .003-.003c.109 0 .213 0 .322-.002l9.427-.227-9.427.227c-.109.002-.218.005-.325.005M241 284.318c-4.543-2.063-7.716-6.64-7.716-11.972v-.002c0 5.333 3.173 9.909 7.716 11.972v.002"/>
        <path fill="#33CE7E" d="M246.419 285.484c-.953 0-1.882-.1-2.78-.294l5.176-4.094a13.148 13.148 0 0 0 7.353 4.159l-9.427.227c-.109.002-.213.002-.322.002m-5.42-1.168c-4.543-2.063-7.716-6.639-7.716-11.972v-31.076l12.192-.204v31.282c0 2.53.714 4.889 1.95 6.89l-6.426 5.08m-7.132-47.694c1.623-5.257 6.46-9.116 12.241-9.255H258.3c-5.706.137-10.49 3.896-12.176 9.05l-12.257.205"/>
        <path fill="#5D4BE1" d="M246.416 212.996c-2.82 0-5.44-.895-7.586-2.418l12.083-.533a13.126 13.126 0 0 0 5.368 2.61l-9.392.332c-.157.007-.315.009-.473.009m-12.215-8.305l12.602-.445h.003l-12.605.445"/>
        <path fill="#FFFFFE" d="M198.901 148.769l89.586-3.612c.18-.007.359-.011.54-.011 4.842 0 9.095 2.635 11.374 6.569l-.017-.007c.383.658.712 1.351.976 2.077l-55.463 2.236c-7.046.283-12.614 6.078-12.614 13.13v30.702c0 1.71.327 3.343.918 4.838l-35.3 1.247-33.032 1.168c-.158.007-.316.01-.473.01-7.22 0-13.131-5.86-13.131-13.143v-30.701c0-7.054 5.565-12.846 12.61-13.131l34.026-1.372z" opacity=".7"/>
        <path fill="#BEB5FF" d="M244.894 199.853V169.15c0-7.051 6.724-12.846 13.768-13.129h-12.765c-7.046.283-12.614 6.078-12.614 13.13v30.702-30.703c0-7.051 5.568-12.846 12.614-13.129l55.463-2.236c.494 1.344.775 2.79.795 4.304l.003.158v31.343c-1.403.171-2.694.459-2.752 1.063-.065.64 1.136 1.15 2.504 1.505-1.113 5.637-5.83 9.997-11.69 10.53-.245.023-.491.04-.741.046l-42.676 1.512c-.486-1.372-1.91-2.849-1.91-4.393z"/>
        <path fill="#B5ABFA" d="M234.201 204.69a13.129 13.129 0 0 1-.918-4.837V169.15c0-7.051 5.568-12.846 12.614-13.129h12.765c-7.044.283-12.61 6.078-12.61 13.13v30.702c0 1.544.265 3.02.751 4.393l-12.602.445"/>
        <path fill="#DB4D49" d="M216.033 126.595c.086 1.818-1.296 3.357-3.083 3.44-1.787.084-3.305-1.321-3.39-3.138-.084-1.817 1.295-3.357 3.082-3.442 1.787-.084 3.308 1.323 3.391 3.14"/>
        <path fill="#F1CE2B" d="M227.405 126.102c.086 1.817-1.296 3.356-3.08 3.44-1.79.085-3.308-1.322-3.392-3.139-.086-1.815 1.296-3.356 3.083-3.44 1.787-.085 3.305 1.322 3.389 3.139"/>
        <path fill="#439CCA" d="M238.777 125.57c.085 1.818-1.294 3.36-3.083 3.443-1.785.084-3.306-1.321-3.39-3.14-.085-1.818 1.297-3.36 3.084-3.443 1.787-.083 3.305 1.321 3.389 3.14"/>
        <path fill="#000" d="M577.881 115.507v-5.149-.039-.012-.027-.017-.025-.014-.025-.017l-.002-.03v-.01-.039-.006-.033-.014c-.003-.007-.003-.016-.003-.025v-.017-.023-.016l-.002-.025v-.014-.033-.007c-.002-.014-.002-.025-.002-.04v-.013l-.002-.026v-.016-.023c-.003-.005-.003-.012-.003-.016v-.023c0-.005 0-.012-.002-.017v-.023-.016c-.002-.012-.002-.023-.002-.035 0-.004 0-.011-.003-.016v-.026l-.002-.018v-.02c0-.008 0-.015-.002-.02v-.02c0-.007-.003-.012-.003-.019v-.02l-.002-.02v-.018a11.158 11.158 0 0 0-.007-.08v-.015c-.002-.007-.002-.016-.002-.025 0-.005 0-.007-.003-.012v-.025c-.002-.005-.002-.007-.002-.012 0-.01 0-.019-.002-.028v-.01l-.003-.027v-.002l-.013-.14c-.543-5.592-4.585-10.129-9.866-11.46l8.206-.38c.206-.009.413-.013.619-.013 7.21 0 13.13 5.853 13.13 13.142v4.618l-12.027.53" opacity=".053"/>
        <path fill="#000" d="M589.909 427.67H577.88V306.621l12.028-.132V427.67M577.88 299.983v-12.969c1.19 3.931 2.79 10.489 3.206 11.216.361.63 1.989 1.039 2.913 1.039.197 0 .36-.019.476-.056.23-.079 2.545-.7 5.433-1.479v2.117l-12.028.132m9.297-11.418c-.869 0 2.432-17.334 2.325-17.874-.037-.19.135-.667.406-1.26v18.842c-1.407.076-2.443.171-2.696.285a.114.114 0 0 1-.035.007m2.73-34.857c-.087-.1-.178-.2-.27-.295-.427-.447-.522-.49-.721-1.098-.754-2.318-2.075-4.476-2.803-5.663-.873-1.42-3.738-5.257-6.807-9.033l.303-.007a3.465 3.465 0 0 0 2.754-1.476l7.545-.149v17.72m-12.028-24.42V208.59l12.028-7.95v21.21l-11.226 7.42-.802.016m5.132-.102l6.896-4.557v4.42l-6.896.137m-5.132-23.371v-23.648l12.028 7.174v8.526l-12.028 7.948m12.028-19.174l-12.028-7.174v-15.843l12.028 7.174v15.843m0-18.544l-11.75-7.007 11.75-.433v7.44m-12.028-14.512v-15.718l12.028-.415v15.69l-12.028.443m0-38.067v-.01l12.028-.53v.009l-12.028.53" opacity=".053"/>
        <path fill="#000" d="M577.881 137.865v-22.35l12.028-.53v22.465l-12.028.415" opacity=".053"/>
        <path fill="#FFFFFE" d="M577.881 110.319v-.012.012m0-.04v-.016.017m0-.042v-.014.014m0-.04v-.016.017m-.002-.047v-.01.01m0-.049v-.006.006m0-.039v-.014.014m-.003-.04v-.016.017m0-.04v-.016.016m-.002-.041v-.014.014m0-.047v-.007.007m-.002-.046v-.014.014m-.002-.04v-.016.016m0-.039c-.003-.005-.003-.012-.003-.016 0 .004 0 .011.003.016m-.003-.04c0-.006 0-.011-.002-.016a.04.04 0 0 1 .002.017m-.002-.04v-.016.016m-.002-.05c0-.008 0-.012-.003-.017a.04.04 0 0 1 .003.016m-.003-.042c0-.006 0-.011-.002-.018l.002.018m-.002-.039l-.002-.018a.045.045 0 0 1 .002.018m-.002-.04c0-.006-.003-.01-.003-.018 0 .007.003.012.003.019m-.003-.04l-.002-.018.002.018m-.002-.037l-.007-.08.007.08m-.007-.095c-.002-.007-.002-.016-.002-.025 0 .009 0 .018.002.025m-.005-.037v-.025.025m-.002-.037c0-.01 0-.019-.002-.028.002.01.002.019.002.028m-.002-.037c0-.01-.003-.019-.003-.028 0 .01.003.019.003.028m-.003-.03l-.013-.14.013.14m-.013-.14c-.545-5.604-4.606-10.14-9.905-11.457l.04-.002c5.28 1.33 9.322 5.867 9.865 11.46M506.814 61.137l-.612.014-90.387 4.455a11.97 11.97 0 0 0-11.39 11.968v193.138c0 3.243 1.274 6.282 3.59 8.55 2.313 2.277 5.387 3.568 8.618 3.431l90.385-1.71c6.483-.12 11.756-5.498 11.756-11.982V73.12c0-3.313-1.321-6.395-3.72-8.68a11.866 11.866 0 0 0-8.24-3.302m-90.415 223.877c-3.767 0-7.311-1.45-10.007-4.096a14.18 14.18 0 0 1-4.286-10.206V77.574c0-7.633 5.971-13.908 13.595-14.28l90.39-4.456a14.18 14.18 0 0 1 10.56 3.922 14.177 14.177 0 0 1 4.441 10.359V269c0 7.738-6.295 14.154-14.03 14.3l-90.385 1.71-.278.003"/>
        <path fill="#979894" d="M441.342 379.45c.086 0 .169 0 .255-.002l3.178-.06-3.178.06c-.086.002-.17.002-.255.002"/>
        <path fill="#33CE7E" d="M441.342 379.45c-.587 0-1.164-.04-1.73-.113v-2.404h5.165c-.002.77-.002 1.595-.002 2.455l-3.178.06c-.086.002-.17.002-.255.002zm-6.365-1.645c-.473-.262-.93-.554-1.365-.872h1.365v.872zm8.905-3.477h-4.27v-24.9h1.218c.102.949.21 1.945.322 2.963v13.919c0 3.023 1.02 5.802 2.73 8.018zm-8.905 0h-.445s.227-.065.445-.214v.214zm0-2.015c-.394-.822-.995-1.83-1.458-2.426-.302-.388-.698-1.292-1.046-2.175.522-.176.895-.368.948-.53v-.005h.003v-.002-.003-.002-.002-.003c0-.002 0-.002.002-.002v-.002-.003-.004c0-.016 0-.035-.002-.058a1.97 1.97 0 0 0-.033-.216l-.002-.014v-.002c-.002-.005-.002-.01-.002-.014 0 0-.003 0-.003-.002 0-.003 0-.007-.002-.012v-.004l-.002-.012v-.005c-.003 0-.003-.002-.003-.002v-.005c0-.002 0-.004-.002-.004v-.005-.005l-.002-.004v-.002-.005c-.003-.002-.003-.002-.003-.005l-.002-.014-.002-.009c-.336-1.574-2.026-7.063-3.537-11.548h5.148v17.106zm-6.073-1.768a13.11 13.11 0 0 1-.594-2.582c.165.176.522.26.974.276.042.732.081 1.458.081 1.694 0 .192-.188.403-.461.612zm6.073-17.656h-5.948a73.948 73.948 0 0 0-.82-2.232v-1.228h6.768v3.46zm-6.769-14.012v-11.244h6.769v2.323c-.162 1.734-.3 3.319-.3 4.279v.109c.008.644.126 1.39.3 2.144v.354c-2.121.633-4.46 1.333-6.769 2.035zm0-13.562h6.769v-3.393h-6.769v3.393zm6.097-5.998h-6.097v-3.943c1.273-.401 2.244-.758 2.724-.758.123 0 .213.023.269.074.392.36 1.991 2.575 3.104 4.627zm-6.097-11.595v-18.645l12.944-.246v12.12c-2.462.75-5.607 1.871-6.618 2.68-.647.52-3.435 2.59-6.326 4.091z"/>
        <path fill="#2CBA71" d="M428.208 289.077v-4.284l12.944-.245v4.283l-12.944.246"/>
        <path fill="#FFFFFE" d="M428.208 284.793v-1.16l12.944-.244v1.159l-12.944.245"/>
        <path fill="#FFFFFE" d="M404.424 104.638V77.574a11.97 11.97 0 0 1 11.39-11.968l90.388-4.455.612-.014c3.083 0 5.987 1.16 8.24 3.301a11.882 11.882 0 0 1 3.72 8.68v26.216l-114.35 5.304M414.088 282.506c-2.274-.436-4.379-1.577-6.073-3.243a11.884 11.884 0 0 1-3.59-8.55V127.721l114.35-5.466v33.942l-78.073 3.85c-.097.004-.192.009-.287.016-6.86.487-12.207 6.196-12.207 13.11v109.167c-6.156.053-11.116.104-14.12.165" opacity=".7"/>
        <path fill="#FFFFFE" d="M404.424 127.722v-23.084l114.35-5.304v22.922l-114.35 5.466" opacity=".916"/>
        <path fill="#B9F5D6" d="M441.152 282.23V173.174c0-7.01 5.496-12.781 12.493-13.126h-12.943l78.072-3.85V269c0 6.484-5.273 11.861-11.756 11.982l-65.866 1.247"/>
        <path fill="#D6D7D7" d="M416.162 282.703a11.04 11.04 0 0 1-2.074-.197c3.004-.06 7.964-.112 14.12-.165v.132l-11.575.22c-.158.007-.315.01-.47.01"/>
        <path fill="#FFFFFE" d="M416.403 283.855c-7.24 0-13.138-5.874-13.138-13.143V77.574c0-7.005 5.496-12.779 12.494-13.124l90.387-4.455c.223-.012.44-.019.66-.019 7.207 0 13.127 5.853 13.127 13.143V269c0 7.163-5.734 13.006-12.892 13.14l-65.89 1.248v-1.16l65.867-1.246c6.483-.12 11.756-5.498 11.756-11.982V73.12c0-3.313-1.321-6.395-3.72-8.68a11.866 11.866 0 0 0-8.24-3.302l-.612.014-90.387 4.455a11.97 11.97 0 0 0-11.39 11.968v193.138c0 3.243 1.274 6.282 3.59 8.55 1.694 1.667 3.799 2.808 6.073 3.244a11.04 11.04 0 0 0 2.545.187l11.575-.22v1.16l-11.554.22-.25.002"/>
        <path fill="#D5D5CF" d="M428.208 173.174c0-6.914 5.348-12.623 12.207-13.11-6.86.487-12.207 6.198-12.207 13.11"/>
        <path fill="#94E8A7" d="M428.208 282.341V173.174c0-6.912 5.348-12.623 12.207-13.11.095-.007.19-.012.287-.016h12.943c-6.997.345-12.493 6.117-12.493 13.126V282.23l-1.296.023c-4.186.03-8.113.06-11.648.088"/>
        <path fill="#E69693" d="M428.208 282.473v-.132c3.535-.028 7.462-.058 11.648-.088l-11.648.22"/>
        <path fill="#FFFFFE" d="M428.208 283.632v-1.159l11.648-.22 1.296-.023v1.159l-12.944.243"/>
        <path fill="#EFFBFF" d="M497.915 86.444a3.477 3.477 0 0 1-.171-6.949l5.597-.282c1.897-.084 3.552 1.381 3.647 3.298a3.478 3.478 0 0 1-3.299 3.648l-5.598.28-.176.005" opacity=".7"/>
        <path fill="#FFF" d="M415.439 87.11a3.48 3.48 0 0 1 3.298-3.649l51.454-2.584c1.921-.067 3.55 1.381 3.646 3.298a3.474 3.474 0 0 1-3.296 3.646l-51.456 2.587-.176.005a3.478 3.478 0 0 1-3.47-3.303z"/>
        <path fill="#EFFBFF" d="M461.403 119.78a3.476 3.476 0 0 1-.171-6.948l42.302-2.126a3.484 3.484 0 0 1 3.646 3.299 3.477 3.477 0 0 1-3.298 3.646l-42.302 2.125-.177.005M461.019 140.04a3.477 3.477 0 0 1-.172-6.95l42.302-2.125c1.896-.042 3.551 1.379 3.646 3.298a3.477 3.477 0 0 1-3.298 3.646l-42.302 2.126-.176.004M461.019 160.296a3.477 3.477 0 0 1-.172-6.95l42.302-2.123c1.896-.067 3.551 1.382 3.646 3.299a3.476 3.476 0 0 1-3.298 3.646l-42.302 2.123-.176.005" opacity=".7"/>
        <path fill="#FFF" d="M421.153 180.04l23.149-.79a4.065 4.065 0 0 0 3.926-4.07l-.05-21.77a4.065 4.065 0 0 0-4.2-4.055l-23.103.79a4.063 4.063 0 0 0-3.927 4.062v21.772a4.066 4.066 0 0 0 4.205 4.06M421.014 215.65l23.415-.8a3.931 3.931 0 0 0 3.8-3.94l-.052-22.032a3.93 3.93 0 0 0-4.065-3.92l-23.365.795a3.936 3.936 0 0 0-3.799 3.932v22.034a3.935 3.935 0 0 0 4.066 3.93"/>
        <path fill="#EFFBFF" d="M463.64 217.024l37.5-1.305a5.89 5.89 0 0 0 5.685-5.894l-.05-33.628a5.891 5.891 0 0 0-6.094-5.879l-37.451 1.303a5.89 5.89 0 0 0-5.686 5.888v33.628a5.894 5.894 0 0 0 6.096 5.887M425.32 263.195l72.753-1.09a6.538 6.538 0 0 0 6.441-6.545l-.014-8.145a6.538 6.538 0 0 0-6.633-6.528l-72.73 1.088a6.543 6.543 0 0 0-6.441 6.527l-.012 8.143a6.54 6.54 0 0 0 6.636 6.55" opacity=".7"/>
        <path fill="#FFF" d="M416.948 118.334v20.458a4.38 4.38 0 0 0 4.534 4.377l22.444-.765a4.38 4.38 0 0 0 4.233-4.388l-.047-20.456a4.381 4.381 0 0 0-4.531-4.367l-22.398.765a4.38 4.38 0 0 0-4.235 4.376"/>
        <path fill="#69B2F6" d="M296.08 323.89v3.113h-.994l-52.814-40.73 53.808-42.567v9.295a3.47 3.47 0 0 0 2.318 3.263v64.362a3.466 3.466 0 0 0-2.318 3.264m-6.455 4.823l-99.18 1.813a3.45 3.45 0 0 0-2.34-.92h-.617l52.911-41.855 51.133 39.437a3.443 3.443 0 0 0-1.907 1.525m-105.762-6.54v-64.944a3.47 3.47 0 0 0 2.318-3.264v-8.025l52.322 40.35-52.322 41.392v-2.246a3.468 3.468 0 0 0-2.318-3.264m4.241-77.859a3.469 3.469 0 0 0 3.271-2.34l62.322-1.048 36.389-.23a3.446 3.446 0 0 0 2.517 1.092h2.165l-54.39 43.023-52.515-40.497h.241m117.248 82.69h-2.318v-3.113a3.466 3.466 0 0 0-2.318-3.264v-64.362a3.47 3.47 0 0 0 2.318-3.263v-11.214h2.318a3.478 3.478 0 0 0 3.477-3.477 3.478 3.478 0 0 0-3.477-3.477h-12.749c-.857 0-1.634.325-2.241.841l-101.996 1.713-.262-.027h-10.623a3.478 3.478 0 0 0-3.476 3.476 3.478 3.478 0 0 0 3.476 3.477h1.746v9.652a3.47 3.47 0 0 0 2.318 3.264v64.943a3.468 3.468 0 0 0-2.318 3.264v4.17h-1.746a3.478 3.478 0 0 0-3.476 3.477 3.478 3.478 0 0 0 3.476 3.477h1.746v4.135a3.47 3.47 0 0 0 2.318 3.263v70.238h-1.138v13.386h4.346v-13.386h-.89v-70.238a3.47 3.47 0 0 0 2.318-3.263v-4.135h1.923a3.456 3.456 0 0 0 2.775-1.405l99.742-1.824a3.465 3.465 0 0 0 1.982.626h3.477v4.13a3.47 3.47 0 0 0 2.318 3.264v72.845h-.598v13.386h3.477v-13.386h-.561V341.35a3.47 3.47 0 0 0 2.318-3.264v-4.13h2.318a3.478 3.478 0 0 0 3.477-3.477 3.478 3.478 0 0 0-3.477-3.477"/>
        <path fill="#66C5FF" d="M574.006 302.027v-56.172a3.466 3.466 0 0 0 2.317-3.264v-4.902l3.287-.077a3.465 3.465 0 0 0 2.754-1.476l102.153-2.015a3.465 3.465 0 0 0 2.615 1.206h.08l3.206-.072v4.524c0 1.512.972 2.787 2.318 3.264v57.682l-118.73 1.302m0-131.03a3.466 3.466 0 0 0 2.317-3.263v-5.042l54.184 32.321-54.028 35.715-.156.005v-6.027a3.47 3.47 0 0 0-2.317-3.264v-50.444m110.898-13.843c.48.403 1.062.677 1.706.776l-53.954 35.664-54.497-32.507 106.745-3.933m1.637 71.283c-.763.132-1.442.5-1.948 1.043l-102.806 2.028a3.429 3.429 0 0 0-1.254-.684l52.183-34.493 53.825 32.106m3.877-70.245v3.94c0 1.512.972 2.787 2.318 3.264v53.93a3.47 3.47 0 0 0-2.318 3.263v5.46l-55.555-33.136 55.555-36.72m6.954 81.585v-4.682l3.75-.086a3.48 3.48 0 0 0 3.399-3.555c-.044-1.92-1.695-3.391-3.556-3.398l-3.593.083v-5.551a3.47 3.47 0 0 0-2.318-3.264v-53.929a3.466 3.466 0 0 0 2.318-3.263v-4.383l3.75-.086a3.48 3.48 0 0 0 3.399-3.556c-.044-1.917-1.695-3.419-3.556-3.398l-13.91.318a3.468 3.468 0 0 0-2.781 1.513l-109.265 4.026a3.443 3.443 0 0 0-2.162-.776 3.45 3.45 0 0 0-2.365.941l-5.968.22a2.315 2.315 0 0 0-2.23 2.402 2.316 2.316 0 0 0 2.313 2.232l.088-.003 4.685-.173v6.323c0 1.511.97 2.786 2.318 3.264v50.444a3.47 3.47 0 0 0-2.318 3.264v6.182l-3.827.086a3.482 3.482 0 0 0-3.398 3.555 3.478 3.478 0 0 0 3.474 3.398h.081l3.67-.08v4.744c0 1.511.97 2.786 2.318 3.264v56.198l-7.133.076a2.317 2.317 0 0 0 .026 4.636h.025l7.082-.076v121.338h-1.231v10.85h4.64v-10.85h-1.091V306.663l118.73-1.3v122.664h-1.36v10.85h4.64v-10.85h-.962V305.335l6.801-.074a2.32 2.32 0 0 0 2.295-2.344c-.014-1.28-1.013-2.232-2.344-2.292l-6.752.074v-57.656a3.466 3.466 0 0 0 2.318-3.264"/>
        <path fill="#69B2F6" d="M184.957 333.238l-16.661-47.262 14.649-44.926-2.205-.721-13.71 42.05-14.83-42.073-2.188.77L165.848 286l-14.686 45.037 2.206.721 13.748-42.163 15.653 44.412 2.188-.77M300.999 331.57l-16.66-47.266 14.65-44.926-2.204-.718-13.71 42.047-14.833-42.073-2.186.77 15.836 44.928-14.686 45.035 2.204.72 13.75-42.162 15.653 44.414 2.186-.77"/>
        <path fill="#66C5FF" d="M695.054 230.635l-16.126-39.381 14.18-37.43-2.136-.6-13.27 35.035-14.355-35.058-2.116.644 15.326 37.432-14.21 37.527 2.132.596 13.307-35.128 15.152 37.005 2.116-.642M571.609 234.066l-16.126-39.382 14.179-37.432-2.135-.598-13.27 35.036-14.355-35.057-2.116.64 15.328 37.435-14.216 37.524 2.135.6 13.307-35.127 15.153 37 2.116-.64"/>
        <path fill="#FFFFFE" d="M265.848 323.943v3.11h-.995l-52.814-40.73 53.809-42.561v9.292a3.47 3.47 0 0 0 2.317 3.264v64.36a3.47 3.47 0 0 0-2.317 3.265zm-6.458 4.824l-99.18 1.812a3.458 3.458 0 0 0-2.338-.922h-.617l52.911-41.85 51.134 39.432a3.46 3.46 0 0 0-1.91 1.528zm-105.76-6.544v-64.94a3.47 3.47 0 0 0 2.318-3.265v-8.024l52.322 40.35-52.322 41.391v-2.246a3.471 3.471 0 0 0-2.318-3.266zm4.242-77.859c1.518 0 2.798-.98 3.27-2.338l62.322-1.048 36.387-.23a3.464 3.464 0 0 0 2.52 1.092h2.165l-54.39 43.023-52.513-40.499h.239zm117.247 82.69h-2.318v-3.11a3.47 3.47 0 0 0-2.318-3.267v-64.36a3.47 3.47 0 0 0 2.318-3.263V241.84h2.318a3.478 3.478 0 0 0 3.477-3.477 3.478 3.478 0 0 0-3.477-3.477h-12.748c-.86 0-1.637.323-2.244.84l-101.993 1.712-.262-.027h-10.623a3.477 3.477 0 1 0 0 6.954h1.745v9.653a3.47 3.47 0 0 0 2.318 3.264v64.941a3.471 3.471 0 0 0-2.318 3.266v4.168h-1.745a3.477 3.477 0 1 0 0 6.954h1.745v4.137c0 1.511.971 2.784 2.318 3.264V420.6h-1.087v13.384h4.828V420.6h-1.423v-76.588a3.468 3.468 0 0 0 2.318-3.264v-4.137h1.924a3.46 3.46 0 0 0 2.774-1.403l99.743-1.824a3.458 3.458 0 0 0 1.982.624h3.477v4.132c0 1.512.97 2.784 2.317 3.264v82.462h-1.272v13.386h4.83v-13.386h-1.24v-82.462a3.468 3.468 0 0 0 2.318-3.264v-4.132h2.318a3.478 3.478 0 0 0 3.477-3.477 3.478 3.478 0 0 0-3.477-3.477zM658.913 217.697a3.463 3.463 0 0 0-2.318 3.261v5.461l-55.556-33.14 55.556-36.717v3.94c0 1.511.972 2.786 2.318 3.264v53.93m0 81.397l-118.73 1.302v-56.172a3.463 3.463 0 0 0 2.317-3.264v-4.902l3.287-.077a3.455 3.455 0 0 0 2.754-1.476l102.155-2.017a3.45 3.45 0 0 0 2.613 1.208h.08l3.206-.072v4.525c0 1.51.972 2.786 2.318 3.263v57.682M598.895 194.7l53.822 32.105c-.762.132-1.441.5-1.947 1.04l-102.806 2.029a3.448 3.448 0 0 0-1.252-.681l52.183-34.493m-58.713 25.112v-50.447a3.463 3.463 0 0 0 2.318-3.264v-5.041l54.186 32.32-54.03 35.715-.156.005v-6.027a3.462 3.462 0 0 0-2.318-3.261m110.901-64.29c.478.403 1.062.68 1.709.777l-53.96 35.663-52.468-31.299a3.452 3.452 0 0 0 2.089-1.36l102.63-3.78m12.466 82.624v-4.683l3.75-.085a3.479 3.479 0 0 0 3.399-3.556c-.044-1.92-1.693-3.391-3.556-3.398l-3.593.081v-5.549a3.463 3.463 0 0 0-2.318-3.261v-53.931a3.466 3.466 0 0 0 2.318-3.264v-4.383l3.75-.086a3.479 3.479 0 0 0 3.399-3.556c-.044-1.917-1.693-3.419-3.556-3.398l-13.91.318a3.454 3.454 0 0 0-2.78 1.513l-102.486 3.774a3.457 3.457 0 0 0-2.31-.895h-.082l-13.91.316a3.48 3.48 0 0 0-3.398 3.555 3.475 3.475 0 0 0 3.475 3.398h.08l3.726-.083v5.127c0 1.511.97 2.786 2.318 3.264v50.447a3.465 3.465 0 0 0-2.318 3.261v6.182l-3.827.086a3.482 3.482 0 0 0-3.398 3.556 3.478 3.478 0 0 0 3.474 3.398h.081l3.67-.082v4.745c0 1.512.97 2.786 2.318 3.264v56.198l-7.133.076a2.319 2.319 0 0 0 .026 4.636h.025l7.082-.076v121.338h-1.229v10.85h4.64v-10.85h-1.094V305.031l118.731-1.3v122.664h-1.36v10.85h4.64v-10.85h-.962V303.703l6.803-.074a2.319 2.319 0 0 0 2.293-2.344c-.014-1.281-1.013-2.232-2.344-2.292l-6.752.074v-57.656a3.466 3.466 0 0 0 2.318-3.263"/>
        <path fill="#32327B" d="M0 429h789v-2H0z" opacity=".1"/>
        <path fill="#32327B" d="M294.488 512.527c-4.541-1.984-15.952-8.857-15.952-14.084v-13.662l-37.138 4.48c-1.662.202-1.966 2.483-.408 3.095 13.794 5.41 54.919 20.792 53.498 20.17" opacity=".2"/>
        <path fill="#FFFFFE" d="M287.527 509.97l6.564 2.4.795-2.177-6.564-2.4-.795 2.177"/>
        <path fill="#FFFFFE" d="M304.988 399.153c-8.47 0-15.356 6.888-15.356 15.356v85.707a12.03 12.03 0 0 0 4.172 9.114c2.65 2.29 6.17 3.326 9.622 2.8h.002l103.266-15.168c5.866-.862 10.291-5.985 10.291-11.917v-73.848c0-6.641-5.403-12.044-12.044-12.044h-99.953m-3.317 115.425a14.345 14.345 0 0 1-9.383-3.493 14.35 14.35 0 0 1-4.974-10.869V414.51c0-9.745 7.93-17.674 17.674-17.674h99.953c7.92 0 14.362 6.441 14.362 14.362v73.848c0 7.072-5.276 13.182-12.276 14.212l-103.265 15.168a14.42 14.42 0 0 1-2.091.153"/>
        <path fill="#FFFFFE" d="M301.65 512.265c-2.26 0-4.478-.65-6.395-1.86-1.14-1.174-2.547-2.598-3.665-4.283-1.133-1.713-1.951-3.65-1.958-5.878v-70.256h100.194a4.948 4.948 0 0 0-1.525 3.579v44.444a4.97 4.97 0 0 0 9.937 0v-44.444a4.948 4.948 0 0 0-1.525-3.58h1.956l18.316 10.054v45.004c0 5.932-4.425 11.055-10.291 11.917L303.428 512.13h-.002c-.591.09-1.185.135-1.776.135m115.335-78.211h-1.27l-7.41-4.066h8.68v4.066" opacity=".2"/>
        <path fill="#FFFFFE" d="M416.985 427.67H404.08l-3.254-1.787v-15.53h16.13c.02.278.03.56.03.844v16.473m-20.796 0H289.632v-13.161c0-6.113 3.585-11.4 8.766-13.87v13.557h-.598v13.386h3.477v-13.386h-.561v-14.438a15.35 15.35 0 0 1 4.207-.6v-.005h91.265v28.517m20.375-19.635h-15.738v-8.882h4.116c5.547 0 10.231 3.769 11.622 8.882" opacity=".3"/>
        <path fill="#69B2F6" d="M301.277 427.582H297.8v-13.386h.598v-13.558a14.757 14.757 0 0 1 2.318-.88v14.438h.56v13.386"/>
        <path fill="#FFFEFE" d="M416.985 429.988h-8.68l-4.226-2.318h12.906v2.318m-18.316 0h-1.956a4.947 4.947 0 0 0-3.443-1.389 4.948 4.948 0 0 0-3.444 1.389H289.632v-2.318h106.557v.957l2.48 1.36" opacity=".101"/>
        <path fill="#FFFFFE" d="M301.648 513.421c-1.433 0-2.821-.234-4.124-.665l-2.202-2.28-.067-.07a11.992 11.992 0 0 0 6.395 1.859c.591 0 1.185-.044 1.776-.135h.002l103.266-15.168c5.866-.862 10.291-5.985 10.291-11.917v-45.004l1.16.635v44.37a13.203 13.203 0 0 1-11.285 13.063l-103.265 15.169c-.656.097-1.305.143-1.947.143m-12.016-13.177v-.028.028m128.512-66.19h-1.159v-22.857c0-.283-.01-.566-.03-.844h1.164c.016.278.025.56.025.844v22.857m-128.512-19.545c-.003-6.444 3.968-11.958 9.596-14.237-.28.114-.559.237-.83.366-5.18 2.471-8.766 7.758-8.766 13.87m128.132-6.473h-1.2c-1.392-5.113-6.076-8.882-11.623-8.882h-4.116v-1.16h4.116c6.203 0 11.407 4.277 12.823 10.042m-112.841-8.882l-.005-1.16h91.27v1.16h-91.265"/>
        <path fill="#43E892" d="M313.346 495.017a4.969 4.969 0 0 1-4.967-4.967v-63.613a4.97 4.97 0 1 1 9.94 0v63.613a4.97 4.97 0 0 1-4.973 4.967"/>
        <path fill="#FFF" d="M339.541 492.263a4.969 4.969 0 0 1-4.972-4.97v-38.345a4.97 4.97 0 0 1 4.972-4.967 4.97 4.97 0 0 1 4.97 4.967v38.346a4.968 4.968 0 0 1-4.97 4.97"/>
        <path fill="#F1CE2B" d="M366.584 488.228a4.97 4.97 0 0 1-4.97-4.97v-60.266a4.968 4.968 0 1 1 9.937 0v60.266a4.968 4.968 0 0 1-4.967 4.97"/>
        <path fill="#FFF" d="M393.27 482.98a4.97 4.97 0 0 1-4.97-4.97v-44.443a4.97 4.97 0 0 1 9.938 0v44.444a4.97 4.97 0 0 1-4.968 4.97"/>
        <path fill="#FFFFFE" d="M288.473 500.216h1.159V414.51c-.003-8.458 6.84-15.317 15.291-15.352l-.007-2.318h-9.865c-4.868 0-9.286 1.906-12.484 4.993-3.2 3.085-5.192 7.373-5.19 12.102v82.708c0 5.72 3.54 10.533 8.467 12.679 1.89.825 6.245 2.316 8.247 3.048l4.734 1.732-3.503-3.626c-1.152-1.186-2.594-2.635-3.732-4.353-1.138-1.72-1.958-3.667-1.958-5.906h-2.318c-.003 2.826 1.047 5.232 2.345 7.188 1.3 1.959 2.868 3.512 3.997 4.682l.832-.804.398-1.09c-2.023-.737-6.418-2.252-8.115-2.994-4.153-1.82-7.079-5.823-7.076-10.556v-82.708c0-4.073 1.703-7.751 4.48-10.435 2.78-2.68 6.618-4.342 10.876-4.342h9.865l-.005-2.318c-9.726.042-17.597 7.932-17.597 17.67v85.707h1.159"/>
        <path fill="#FFFFFE" d="M289.836 508.347l-1.514-.554-.007.024a38.935 38.935 0 0 1-1.544-.62c-4.153-1.819-7.079-5.822-7.076-10.555v-66.654h7.619v70.268c.007 2.92.901 5.732 2.522 8.091M287.314 427.67h-7.62v-13.736c0-4.073 1.704-7.751 4.481-10.435 2.78-2.68 6.618-4.342 10.876-4.342h1.18c-5.18 2.958-8.718 8.46-8.91 14.81-.005.178-.007.361-.007.542v13.161M279.695 429.988h7.619v-2.318h-7.62z" opacity=".5"/>
        <path fill="#FFFFFE" d="M289.868 508.394c-.547-.202-1.075-.397-1.553-.577l.007-.024 1.514.554c.011.014.02.03.032.047"/>
        <path fill="#FFFFFE" d="M290.552 508.642l-.684-.248c-.011-.016-.02-.033-.032-.047a14.347 14.347 0 0 1-2.522-8.091c.009 2.809 1.052 5.201 2.345 7.148.288.431.587.844.893 1.238m-3.238-8.426V414.51v85.707"/>
        <path fill="#FFFFFE" d="M294.488 511.282c-2.012-.737-6.386-2.24-8.18-3.023-4.541-1.981-7.772-6.39-7.772-11.617v-82.708c0-8.801 7.392-15.936 16.515-15.936h9.865c-9.086.037-16.443 7.413-16.443 16.51v85.708c0 5.065 3.736 8.706 6.015 11.066m-4.62-2.888l.684.248a21.136 21.136 0 0 1-.893-1.238c-1.293-1.947-2.336-4.34-2.345-7.148v-85.747c0-.181.002-.364.007-.543.192-6.348 3.73-11.851 8.91-14.809h-1.18c-4.258 0-8.097 1.662-10.876 4.342-2.777 2.684-4.48 6.362-4.48 10.435v82.708c-.003 4.733 2.923 8.736 7.076 10.556.392.171.928.382 1.544.619.478.18 1.006.375 1.553.577"/>
        <path fill="#867054" d="M598.277 288.945l.412 4.566c.074.044 4.4-1.643 7.105-2.35a1.024 1.024 0 0 1 1.27 1.159c-.357 2.255-1.391 3.785-2.513 5.822-.897 1.62.811 2.246 2.128 1.006 3.514-3.305 4.13-10.145 4.13-10.145a1.447 1.447 0 0 0-1.592-1.639l-10.94 1.58M550.133 252.662s-8.601 7.307-8.93 7.137c-.33-.174-3.853-1.154-4.592-.908-.735.245.347 1.462.904 2.376 1.221 2.007.329 3.769.08 4.508-.245.737-2.456 3.032-1.965 3.688.492.656 4.344-1.968 4.916-2.46.575-.491 3.688-4.835 4.18-5.41.491-.572 8.441-6.636 8.441-6.636l-3.034-2.295M566.006 287.63l-3.938.916 2.082 8.236c.157.438-.093.936-.55 1.034-1.23.264-6.91 1.722-8.367 1.947-1.426.22-1.855 2.097-.327 2.16 3.892.155 11.708-.197 11.708-.197a2.185 2.185 0 0 0 2.137-2.636c-.366-1.733-2.745-11.46-2.745-11.46"/>
        <path fill="#34529A" d="M583.597 256.923c-2.795.243-13.219 2.295-17.15 3.495-3.936 1.203-14.047 7.105-14.893 7.54-.846.44 7.677 21.53 7.897 22.403.218.874 4.782.438 5.888 0 1.108-.436 2.962-.327 2.962-.985 0-.654-3.822-17.155-4.042-17.59-.22-.439 20.873-3.387 21.855-3.498.983-.11 3.934-1.421 4.372-3.716.436-2.295.647-8.305-6.889-7.65"/>
        <path fill="#6E5C47" d="M563.742 227.698c1.173 1.442 3.113 4.8 3.113 5.621 0 .819 4.754-2.809 4.754-2.809l-5.656-7.107-2.211 4.295"/>
        <path fill="#34529A" d="M601.046 290.238c0-1.224.698-2.28.26-2.28-.438 0-13.112.162-14.093.6-.985.436 2.4-17.32 2.29-17.867-.106-.544 1.51-3.456 2.244-4.74.39-.684.378-6.622.269-7.936-.054-.608-.779-2.935-2.378-4.602-.427-.447-.522-.49-.721-1.098-.754-2.318-2.075-4.476-2.803-5.663-1.358-2.209-7.524-10.252-11.8-14.83l-.002-.01-.005.003c-1.222-1.31-2.3-2.348-3.053-2.867-1.448-.995-6.244 2.16-5.915 3.799.07.34.287 1.196.589 2.32-3.999 3.91-16.43 15.734-16.859 16.446-.489.82.575 3.034 1.064 3.688.494.656 1.725 1.787 2.705 1.673.985-.116 12.46-7.575 13.28-8.066.818-.49 3.289-1.607 4.042-.3.874 1.201 4.152 8.306 4.152 9.18 0 .876-.654 8.305-.654 8.305s2.84 16.61 4.042 20.435c1.203 3.822 2.949 11.038 3.387 11.802.436.763 2.733 1.201 3.389.983.656-.22 18.137-4.837 17.81-4.946-.326-.11-1.24-2.402-1.24-4.029"/>
        <path fill="#979894" d="M564.259 271.785c-.026-.05.238-.136.725-.248-.487.112-.75.197-.725.248m.746-.252h.002-.002"/>
        <path fill="#272769" d="M565.828 278.197c-1.247-2.341-2.216-3.901-2.907-4.963-1.066-1.639-3.034-1.968-2.459-3.282.17-.385.459-.515.788-.515.34 0 .723.14 1.06.28.333.14.618.281.764.281.044 0 .077-.014.093-.046.165-.325-.983-2.211-.33-2.7a.294.294 0 0 1 .184-.06c.343 0 .837.51 1.437 1.02.6.511 1.307 1.021 2.082 1.021.076 0 .153-.004.231-.016 1.804-.246 3.853-1.307 5.41-2.028.443-.204.995-.33 1.604-.397l.527 3.183c-3.948.598-7.742 1.205-9.305 1.558h-.002a.068.068 0 0 1-.02.004c-.488.112-.752.197-.726.248.088.179.783 3.046 1.569 6.412" opacity=".2"/>
        <path fill="#272769" d="M576.775 282.624c-1.323-6.166-3.078-16.397-3.117-16.629v-.002s.654-7.43.654-8.305c0-.163-.114-.543-.306-1.062-.48-1.303-1.447-3.474-2.318-5.269-.64-1.318-1.227-2.436-1.528-2.848-.26-.45-.72-.612-1.25-.612-1.008 0-2.255.59-2.792.91-.82.492-12.295 7.951-13.28 8.067a1.397 1.397 0 0 1-.139.007c-.44 0-.92-.222-1.356-.526a5.718 5.718 0 0 1-1.21-1.154c-.489-.654 3.524-1.5 4.342-1.994 1.539-.925 3.229-6.073 7.925-6.828 3.924-.633 5.662-5.689 6.325-5.689.142 0 .234.228.288.772.313 3.113 3.498 3.169 6.036 3.331 2.542.165 3.09 2.485 3.09 4.425 0 .96.597 3.934 2.565 4.754 3.137 1.305 5.51 5.491 5.339 8.277-.174 2.787-3.044 6.474-2.963 8.526.084 2.049.494 2.95-.9 4.835-1.392 1.882-5.68 5.734-5.405 7.014" opacity=".2"/>
        <path fill="#151717" d="M575.656 258.41c-.473 0-.943-.022-1.41-.069l-.071-1.237c5.5.572 11.807-2.52 14.742-4.79l.72 1.1c-2.855 2.21-8.485 4.997-13.981 4.997" opacity=".5"/>
        <path fill="#867054" d="M554.535 220.863c.654 1.31 1.528 4.372 1.092 5.027-.438.654 5.134 5.026 5.683 5.353.545.329 3.387-1.857 4.479-2.84 1.094-.985 3.463-3.827 3.643-6.122.181-2.292-4.08-7.649-5.609-8.193-1.53-.547-6.666-1.421-8.196-.436-1.532.98-1.092 7.21-1.092 7.21"/>
        <path fill="#27283B" d="M556.66 218.346c-.725.496-.632 2.079-2.162 2.517-1.53.436-4.37-1.21-4.698-2.517-.89-3.547 2.053-5.475 3.43-5.141-.635-2.096 2.068-5.292 4.937-3.489 2.193-2.295 3.79-2.295 5.575-.568 1.72-1.917 4.33-.841 3.933 1.88 2.22-1.24 5.49 3.113 2.777 5.028 1.312.435 3.825.98 3.825 3.822 0 2.844-4.664 5.572-6.21 4.59-2.31-.984-1.683 2.076-2.763 1.093-1.078-.985-.415-5.354-2.392-6.448-.904-.5-2.364.547-2.823.329-.455-.218-1.84-2.186-3.428-1.096"/>
        <path fill="#151717" d="M554.906 301.923c3.892.155 11.708-.197 11.708-.197a2.185 2.185 0 0 0 2.137-2.636c-.158-.746-.686-2.974-1.24-5.27l-3.887.871.526 2.09c.157.439-.093.935-.55 1.035-1.23.264-6.91 1.722-8.367 1.947-1.426.22-1.855 2.097-.327 2.16M609.217 287.364l-6.163.89c.153.872.459 2.38.693 3.519.72-.234 1.428-.45 2.047-.612a1.024 1.024 0 0 1 1.27 1.159c-.357 2.255-1.391 3.785-2.513 5.822-.897 1.62.811 2.246 2.128 1.006 3.514-3.305 4.13-10.145 4.13-10.145a1.447 1.447 0 0 0-1.592-1.639"/>
        <path fill="#32327B" d="M109.8 462.119s-55.864 1.963-60.622 1.092c-7.216-1.324-17.75-11.06-11.734-11.06 6.414 0 24.582 3.357 43.605 4.057 10.938.404 30.787 4.708 28.752 5.91" opacity=".2"/>
        <path fill="#27283B" d="M536.04 510.202l-35.77-.369s-31.336-18.576-19.855-18.576h.016c1.924.003 11.242 1.67 21.557 3.605.157 1.147.269 1.829.317 1.91.41.684 8.002.79 8.002.79l.095-1.11c11.453 2.179 22.027 4.228 23.156 4.276 2.43.107 2.482 9.474 2.482 9.474" opacity=".2"/>
        <path fill="#867054" d="M302.53 120.064c-.446 3.669-.136 8.224.81 8.787.686.41.809.088.971-.234.146-.285.325-.57.96-.346 1.351.478.927 4.416 3.829 4.057 3.894-.482-1.546-10.28-2.318-12.095-.774-1.813-4.251-.17-4.251-.17M250.753 115.887c-.153 3.604-.514 2.897-.153 3.604.364.71-.788 2.575-1.998 3.347-1.21.772.853 3.662-1.882 4.694-2.737 1.031-.823-10.364-.482-12.304.34-1.94 4.515.659 4.515.659"/>
        <path fill="#F1CE2B" d="M246.129 116.392c-2.8-6.085 5.18-13.548 10.43-17.433 4.25-3.143 10.721-5.762 22.698-5.649 7.361.07 13.397 3.217 16.997 5.649 7.436 5.023 12.556 19.656 11.977 22.359-.58 2.705-7.92 1.353-7.92 1.353s-6.762-13.98-7.726-14.909c-.967-.931-8.945 4.217-14.392 4.671-9.272.772-14.668-3.138-16.418-3.574-1.298-.325-4.124.243-5.313 1.738s-3.669 6.859-3.669 6.859-5.813.781-6.664-1.064"/>
        <path fill="#867054" d="M272.206 85.777c-1.7 2.997-1.285 7.779-.995 8.743.29.967 6.307 5.262 6.307 5.262 1.015 1.159 1.449.869 2.413 0 .774-.698 5.253-3.676 6.024-5.802.772-2.126.703-6.98-1.87-9.17-2.608-2.22-10.238-1.93-11.88.967"/>
        <path fill="#27283B" d="M279.062 91.618c-4.103 4.154-6.912 3.769-8.836 2.369-2.8-2.042-1.713-9.047 1.354-11.64 2.32-1.964 2.123-1.109 1.882-4.103-.232-2.895 3.718-7.582 8.106-5.304 3.312 1.72 4.063 6.076 2.904 8.201 1.912 1.98 4.877 6.761 3.679 9.803-.643 1.636-2.328 3.912-4.646 2.559-2.318-1.352-4.443-1.885-4.443-1.885"/>
        <path fill="#151717" d="M256.527 110.518c.01-.011.019-.02.028-.032-.01.012-.019.02-.028.032m.079-.09l.005-.005-.005.005m.014-.014c.992-1.064 2.835-1.609 4.184-1.643-1.35.034-3.192.577-4.184 1.643m37.193-.647c-.584-1.066-1.029-1.812-1.228-2.005a81.04 81.04 0 0 0-.01-.009l.01.01c.199.192.644.938 1.228 2.004M260.94 108.771h-.002.002"/>
        <path fill="#CCCCC5" d="M299.374 120.747c-1.384-2.828-3.978-8.08-5.56-10.98 1.582 2.9 4.176 8.152 5.56 10.98m-46.518-3.42c-.003 0-.003 0-.003-.003l.264-.561c-.125.266-.215.463-.261.563m22.942-4.793h-.004.004m.003 0c.765 0 1.564-.033 2.392-.1.041-.005.083-.007.123-.012-.04.005-.082.007-.123.012-.828.067-1.625.1-2.392.1m2.586-.119l.042-.004-.042.004"/>
        <path fill="#EBAB2C" d="M302.913 122.968a25.278 25.278 0 0 1-2.603-.297s-.364-.755-.936-1.924c-1.384-2.828-3.978-8.08-5.56-10.98-.585-1.066-1.03-1.812-1.23-2.005a81.04 81.04 0 0 0-.009-.009c-.08-.072-.204-.104-.368-.104-1.861 0-8.797 4.232-13.778 4.76-.014.003-.028.003-.042.005l-.071.007c-.04.005-.082.007-.123.012-.828.067-1.627.1-2.392.1h-.007c-7.626-.003-12.204-3.125-13.9-3.642a.682.682 0 0 0-.066-.018.226.226 0 0 0-.053-.014 3.656 3.656 0 0 0-.834-.088h-.137c-1.35.034-3.192.58-4.184 1.643-.002.002-.005.007-.01.01l-.004.004c-.016.019-.035.037-.051.058-.01.012-.019.02-.028.032a6.947 6.947 0 0 0-.431.596c-.964 1.477-2.369 4.37-2.979 5.649l-.264.56c-.788-2.013-1.335-3.416-.93-5.372.566-2.733 2.965-6.289 4.697-6.289.044 0 .088.003.132.01 1.565.173 3.836 1.601 5.964 1.601.236 0 .47-.018.7-.055 2.119-.355 3.834-2.08 5.88-2.08.195 0 .392.017.592.051 2.283.38 5.15 3.285 8.358 3.285h.153c3.27-.097 2.788-.677 5.494-2.318 2.023-1.23 2.315-2.353 4.563-2.353.754 0 1.73.128 3.065.42 5.312 1.159 3.477 3.961 3.477 4.925 0 .967 1.835.452 3.187 2.93 1.353 2.48 2.028 6.685 1.836 6.996-.193.313 2.994 1.182 3.187 2.244.065.361-.077.982-.295 1.65"/>
        <path fill="#ACA07D" d="M92.868 356.586c.747-1.249 6.414-7.327 7.612-8.882 1.328-1.727 4.23-4.654 5.26-5.741 1.024-1.09 7.43-7.072 8.096-7.554.663-.485 7.25-4.836 8.217-5.499.967-.665 3.264-1.993 3.565-2.72.304-.724.18-2.416.304-2.9.12-.483 3.08-3.987 3.08-4.289 0-.303-.482-.605-.906-.605-.422 0-5.016 4.108-5.681 4.652-.663.545-3.517 2.691-4.472 3.204-1.077.58-9.063 4.652-10.815 6.043-1.75 1.39-6.965 5.277-9.485 7.009-1.25.858-8.159 4.29-8.159 4.29l3.384 12.992"/>
        <path fill="#32327B" d="M89.484 343.594l3.384 12.992c.747-1.249 6.414-7.327 7.612-8.882.621-.804 1.581-1.868 2.534-2.888-.7-.82-2.64-4.362-3.704-6.69-.617.44-1.199.856-1.667 1.178-1.25.855-8.159 4.29-8.159 4.29"/>
        <path fill="#6957EE" d="M89.484 343.594l3.384 12.992c.747-1.249 6.414-7.327 7.612-8.882.621-.804 1.581-1.868 2.534-2.888-.7-.82-2.64-4.362-3.704-6.69-.617.44-1.199.856-1.667 1.178-1.25.855-8.159 4.29-8.159 4.29"/>
        <path fill="#ACA07D" d="M63.985 355.8c-1.755 1.329-7.13 5.255-7.434 5.68-.301.421-.12.846 0 1.571.123.726 5.802 10.424 7.434 12.417 1.63 1.994 8.105 9.096 8.465 9.334.357.244 1.383.605 2.29.304.906-.304 2.399-3.083 3.247-4.953.642-1.421.429-4.05-.292-3.809-.72.244-2.633 3.982-3.016 4.108-1.631.547-6.418-10.514-7.23-11.72-.806-1.21-2.679-4.293-2.86-4.473l3.927-3.686-4.531-4.772M61.688 445.23s-1.783 10-2.418 11.18c-.635 1.177-8.702 6.708-9.789 6.798-1.087.09-1.27-1.632-.632-2.447.632-.819 7.07-6.618 7.34-7.163.272-.542 2.453-9.468 2.453-9.468l3.046 1.1M93.774 446.318s2.548 11.41 3.385 12.387c1.087 1.27 12.187 3.685 12.642 3.414.452-.271.59-.816.166-1.481-.89-1.398-9.607-5.014-9.969-5.559-.362-.544-3.02-9.522-3.02-9.522l-3.204.76"/>
        <path fill="#34529A" d="M78.26 376.82s-4.38 7.067-6.42 11.851c-2.088 4.9-3.34 12.533-4.35 14.624-3.596 7.431-10.758 42.177-10.635 43.387.12 1.207 4.35 2.417 4.955 2.05 0 0 9.304-13.774 10.15-15.346.847-1.57 9.066-14.016 9.666-16.677.605-2.657 1.778-16.33 1.778-16.33s1.771 24.514 2.425 29.02c.816 5.619 6.223 17.25 6.705 17.855.483.605 5.944-.895 5.944-.895s1.279-16.96 1.158-19.741c-.122-2.78-4.188-37.518-4.165-39.34.016-1.23-.399-2.401-1.115-3.403-.69-.964-1.537-2.526-2.093-4.872-.361-1.525-1.191-5.978-.602-10.032.825-5.707 3.657-7.556 3.748-10.185.032-.976-3.146-6.159-3.69-8.426-.415-1.733-1.63-6.888-1.63-6.888s-12.524 2.69-13.537 2.9c-3.745.787-14.139 9.79-14.139 9.79l4.592 6.043 4.777-2.153a1.367 1.367 0 0 1 1.864.816l4.6 14.086.015 1.865"/>
        <path fill="#6957EE" d="M90.089 343.472s-12.524 2.69-13.537 2.9c-3.745.785-14.139 9.79-14.139 9.79l4.592 6.04 4.777-2.15a1.367 1.367 0 0 1 1.864.816l4.6 14.086.008.887c2.218.237 5.122.47 6.562.262.885-.13 3.586-1.177 6.69-2.47-.087-1.489-.073-3.102.155-4.662.825-5.707 3.657-7.556 3.748-10.187.03-.974-3.146-6.157-3.69-8.424-.415-1.733-1.63-6.888-1.63-6.888"/>
        <path fill="#9F856D" d="M83.32 348.246c2.599-.3 3.807-1.147 4.23-1.692.423-.544 1.025-1.993.787-2.174-.095-.072-.367-.048-.677-.023-.485.037-1.06.074-1.199-.25-.224-.533.545-6.194.425-6.437-.12-.239-6.525-.904-6.95 0-.424.908.362 5.864-.06 6.587-.424.728-2.172 1.818-2.172 1.818-.185.48 2.22 2.566 5.617 2.171"/>
        <path fill="#ACA07D" d="M78.85 336.522c.931 1.092 7.5 3.243 9.8 1.155 1.135-1.032 2.466-4.175 2.466-7.499 0-1.708-4.35-3.203-4.411-8.518-.012-.939-3.143-1.09-5.137-.123-1.993.967-4.35 3.808-4.531 5.985-.181 2.174.076 6.977 1.812 9"/>
        <path fill="#151717" d="M85.532 426.82c-.355-3.536-.83-9.365-1.242-14.65.412 5.287.887 11.114 1.242 14.65"/>
        <path fill="#211B4D" d="M85.62 427.67c-.028-.267-.058-.55-.088-.85.03.3.06.583.088.85"/>
        <path fill="#FBFBFC" d="M85.829 429.4"/>
        <path fill="#151717" d="M84.287 412.133"/>
        <path fill="#211B4D" d="M83.803 405.784l-.253-3.389v-.002l.253 3.391"/>
        <path fill="#272769" d="M91.663 445.557c-1.685-3.54-5.19-11.717-5.834-16.158-.06-.417-.13-1.006-.209-1.729-.028-.267-.058-.55-.088-.85-.355-3.536-.83-9.363-1.242-14.65 0-.012 0-.025-.003-.037a3612.618 3612.618 0 0 1-.484-6.349l-.253-3.39v-4.356s3.614 4.666 4.302 9.909c.318 2.415-.906 8.908-.243 11.88.487 2.185 2.227 4.688 2.719 7.757.547 3.384-1.085 6.65-.362 10.635.366 2.01 1.695 7.33 1.697 7.338" opacity=".5"/>
        <path fill="#151717" d="M77.987 374.156c3.336.696 11.504.12 13.47-2.065l.19 3.231s-3.463 1.484-6.298 1.748c-2.835.266-7.211-.455-7.211-.455l-.15-2.459"/>
        <path fill="#121415" d="M57.133 444.753c-.195 1.09-.295 1.776-.278 1.929.12 1.207 4.35 2.417 4.955 2.05 0 0 .466-.688 1.178-1.747-1.145-.046-4.045-1.194-5.855-2.232M98.642 444.13c-2.088.644-5.027 1.061-7.209.945.568 1.22.985 2.03 1.101 2.18.483.604 5.944-.896 5.944-.896l.164-2.23" opacity=".5"/>
        <path fill="#121415" d="M53.832 458.283c-.892-.431-.44-1.18-.044-2.274-1.993 1.887-4.552 4.25-4.94 4.752-.637.815-.454 2.538.633 2.447 1.087-.09 9.154-5.62 9.789-6.798.116-.211.264-.714.433-1.38-2.093 1.447-4.62 3.855-5.87 3.253M105.804 458.046c-.164.325-.577.635-1.154.78-.79.198-5.734-1.178-8.296-2.214.325 1.07.612 1.868.805 2.093 1.087 1.27 12.187 3.685 12.642 3.414.452-.271.59-.816.166-1.481-.38-.598-2.188-1.597-4.163-2.592"/>
        <path fill="#151717" d="M64.86 411.002v-.007.007m.01-.035c.002-.01.005-.02.01-.032-.005.011-.008.023-.01.032m.012-.042c.934-3.28 1.817-5.954 2.554-7.517-.737 1.563-1.62 4.237-2.554 7.517m2.554-7.521c.005-.007.007-.014.01-.019-.003.005-.005.012-.01.019m.012-.021l.006-.019-.006.019M67.468 403.339l.007-.019-.007.019m.01-.023l.011-.021-.011.02m-5.065-47.153s2.102-2.049 4.972-4.293c.065.026.137.047.209.065a138.004 138.004 0 0 0-5.176 4.226l-.005.002"/>
        <path fill="#272769" d="M61.344 424.86c1.14-4.897 2.37-9.83 3.517-13.858v-.007a.13.13 0 0 0 .009-.028c.002-.01.005-.02.01-.032l.002-.01c.934-3.28 1.817-5.954 2.554-7.517v-.004c.005-.007.007-.014.01-.019l.002-.002.006-.019c.003-.002.003-.002.003-.004a.07.07 0 0 0 .01-.019l.001-.002.007-.019c.003 0 .003-.002.003-.004l.011-.021c1.01-2.091 2.263-9.724 4.351-14.624 2.04-4.784 6.42-11.852 6.42-11.852v-.183c.483.075 2.31.346 4.23.45.497 2.545 1.106 4.803-.289 9.983-1.01 3.76-8.12 8.57-9.786 12.69-1.542 3.807.749 6.892-.818 11.692-1.359 4.17-7.16 7.796-8.067 9.156-.904 1.356-2.179 4.235-2.186 4.254" opacity=".5"/>
        <path fill="#5F4DE2" d="M81.445 374.434c-1.353 0-2.575-.095-3.458-.278v.002l-4.341-13.29a1.37 1.37 0 0 0-1.864-.816l-4.777 2.15-4.592-6.04.005-.002c.092-.081 2.385-2.06 5.176-4.226.238.06.512.09.815.09h.063c.058 0 .116-.002.176-.004 1.099-.05 2.524-.44 3.994-1.062l.032-.013a20.762 20.762 0 0 0 2.721-1.407c-.247 2.148-.178 4.197-.032 5.354.494 3.899 6.977 9.527 7.807 11.603 1.094 2.729-.466 5.911-.872 7.928-.29.009-.572.011-.853.011"/>
        <path fill="#0D0F0F" d="M82.49 377.086a46.236 46.236 0 0 1-4.23-.45l-.013-1.682-.26-.796v-.002c.883.183 2.105.278 3.458.278.28 0 .564-.002.853-.011-.08.396-.115.746-.078 1.038.074.573.171 1.106.27 1.625"/>
        <path fill="#3B3627" d="M86.343 315.918c2.918 1.86 2.307 5.802-1.342 7.003-2.995.99-3.736 4.358-3.613 5.565.12 1.21 2.667 2.659 2.663 4.17-.007 1.511-3.987 3.866-4.115 5.014-.127 1.152.434 6.024-.104 7.392-1.585 4.03-10.122 7.927-12.586 6.75-4.3-2.057-6.646-8.507-2.656-13.257 3.986-4.751 6.886-4.026 7.31-6.441.22-1.264-1.381-6.78.181-8.704 2.054-2.529 5.28-2.156 6.465-3.565 1.44-1.71 3.95-6.377 7.797-3.927"/>
        <path fill="#CF232A" d="M68.412 352.025h-.003.003m.06 0c.058 0 .116-.003.176-.005-.06.002-.118.005-.176.005M72.642 350.958l.032-.013-.032.013"/>
        <path fill="#D3232A" d="M75.396 349.538c1.182-.728 2.269-1.572 3.099-2.467-.83.895-1.917 1.739-3.1 2.467"/>
        <path fill="#482A29" d="M78.495 347.071c.512-.551.925-1.124 1.203-1.699-.278.575-.691 1.148-1.203 1.7"/>
        <path fill="#CF232A" d="M72.714 350.928"/>
        <path fill="#695226" d="M80.08 337.297c.733-1.231 3.966-3.28 3.97-4.64-.004 1.36-3.237 3.409-3.97 4.64m4.942-14.383l.01-.002-.01.002m.025-.01s.005 0 .007-.002c-.002.003-.004.003-.007.003m.024-.007c.002 0 .002-.003.004-.003-.002 0-.002.003-.004.003m.025-.01h.002-.002"/>
        <path fill="#322D1F" d="M68.412 352.025h-.003c-.454 0-.846-.065-1.147-.207a.113.113 0 0 0-.016-.007c-.369-.176-.698-.424-1.036-.66 3.307-.269 7.072-1.588 7.563-2.856.816-2.105-.12-5.064 0-6.998.12-1.933.241-3.583 2.297-4.088 2.054-.506 5.127-2.318 3.894-4.252-1.235-1.933-2.081-4.712-1.052-6.163 1.024-1.449 2.768-4.107 4.13-4.35 1.303-.232 3.535-1.577 5.11-3.378-.005 1.556-1.03 3.118-3.054 3.822h-.002l-.02.007c-.003 0-.003.003-.005.003-.007.002-.012.004-.017.004-.002.003-.007.003-.007.003a.113.113 0 0 0-.016.007l-.009.002-.02.007c-2.799.925-3.628 3.922-3.628 5.299.002.097.004.187.014.266.12 1.21 2.667 2.659 2.663 4.17-.005 1.36-3.238 3.41-3.97 4.64a.933.933 0 0 0-.145.374 4.77 4.77 0 0 0-.018.491c0 1.036.15 2.979.15 4.592.003.985-.055 1.847-.236 2.309-.016.044-.035.085-.053.13-.007.013-.012.027-.019.044l-.03.064-.032.072c-.278.575-.691 1.148-1.203 1.7-.83.894-1.917 1.738-3.1 2.466a20.762 20.762 0 0 1-2.72 1.407l-.033.013c-1.47.622-2.895 1.011-3.994 1.062-.06.002-.118.005-.176.005h-.06"/>
        <path fill="#FFFFFE" d="M80.303 358.897l-.844.248-1.898-6.441.843-.25 1.899 6.443M81.636 358.503l-.847.248-1.898-6.441.846-.25 1.899 6.443M82.968 358.112l-.846.248-1.898-6.442.844-.248 1.9 6.442"/>
        <path fill="#F0D9B4" d="M320.298 192.798c-2.436 0-5.176-.102-5.987 0-.812.102-.408.405 0 1.423.405 1.013-.71 1.926-2.233 2.737-1.522.814-2.628 2.123-2.433 2.436.809 1.32 3.347.304 4.462 0 1.117-.306 7.104-3.224 7.104-3.224l-.913-3.372M309.531 187.962c-.788.105-1.402-.097-1.982-.299-.482-.167-.94-.336-1.455-.326-1.132.02-.242 1.316-.32 1.757-.081.438-6.238.222-6.368 1.56-.132 1.337 5.248 2.104 6.152 2.093.902-.014 5.586-2.221 5.586-2.221l-1.613-2.564"/>
        <path fill="#C2D8DB" d="M308.831 186.81c2.842-.707 14.888-4.846 18.212-6.121 3.801-1.458 10.908-8.284 12.433-8.996 1.52-.712 4.254-1.961 4.768-1.261 1.725 2.346.888 4.664.102 6.74-.331.874-10.806 8.519-16.237 10.146-3.834 1.15-18.163 3.832-18.163 3.832l-1.115-4.34"/>
        <path fill="#DEF1F6" d="M337.65 172.506c-.842 2.64-1.016 6.593-.61 7.914.406 1.319 2.84 9.742 3.245 11.668.408 1.929.204 7.204 1.22 11.161 1.015 3.96 1.515 6.82 1.515 6.82l26.288-.629s-6.9-14.51-7.914-16.744c-1.017-2.23-5.764-14.61-8.363-16.74-2.598-2.133-8.28-8.526-10.238-7.59-2.508 1.204-4.638 2.546-5.143 4.14"/>
        <path fill="#DFCAAA" d="M335.01 167.226c1 1.16 3.755 8.931 3.755 8.931s1.217 1.015 2.74 0c1.522-1.015 2.74-3.813 2.433-4.24-.301-.428-7.107-8.443-7.107-8.443l-1.821 3.752"/>
        <path fill="#979894" d="M343.02 210.068l-.088-.477.088.477 18.715-.447-18.715.447"/>
        <path fill="#272769" d="M342.932 209.59a105.509 105.509 0 0 1 0 0m-4.19-23.287l-.448-1.574.447 1.574"/>
        <path fill="#C1E3EE" d="M343.02 210.068l-.088-.477c-.183-.969-.658-3.34-1.428-6.342-.07-.271-.134-.547-.192-.827-.797-3.834-.647-8.537-1.025-10.334-.197-.93-.862-3.363-1.546-5.785-.15-.531-.3-1.062-.447-1.574l6.963-3.454c.865 2.24.865 5.61 1.625 6.435.15.162.294.222.438.222.211 0 .422-.13.651-.26.228-.131.476-.261.76-.261.22 0 .464.079.738.299 1.219.98 1.112 4.786 3.6 8.437 1.784 2.62 6.265 9.675 8.666 13.474l-18.715.447"/>
        <path fill="#DEF1F6" d="M320.094 197.364c6.949-1.115 9.132-2.942 10.857-3.753 1.724-.813 13.592-6.597 14.306-7.408.712-.811 7.207-2.334 6.395-4.928-1.159-3.708-8.117-4.71-9.742-3.595-1.625 1.115-7.204 5.48-7.916 5.987-.709.508-13.089 7.914-14.104 8.22-1.013.303.204 5.477.204 5.477"/>
        <path fill="#F0D9B4" d="M325.775 158.703c.916 1.22 1.785 2.03 2.03 4.091.16 1.324.225 3.32-.24 3.725-.469.404 4.197 3.56 4.909 3.707.711.148 4.77-2.388 5.579-3.707.814-1.32-1.623-11.265-3.753-11.163-2.132.102-7.306 1.117-7.711 1.52-.406.409-.814 1.827-.814 1.827"/>
        <path fill="#27283B" d="M324.723 160.935s2.858.51 3.815 0c.955-.505 2.68-2.334 3.187-2.635.508-.306 2.334 1.013 3.145 2.232.814 1.217 3.044 7.339 2.937 8.305-.104.97 5.239-1.31 6.18-3.639.431-1.07-1.405-2.07-1.606-2.202-.202-.132 2.02.436 2.584 0 .561-.436 1.71-7.672 1.623-6.458-.033.42-2.71.042-3.966-.368-3.086-1.015-4.328-7.814-11.81-5.788-5.7 1.544-6.39 6.495-6.09 10.553"/>
        <path fill="#F0D9B4" d="M503.824 493.8v11.954h5.023v-12.69l-5.023.736M526.198 493.063l1.644 12.69 5.025-1.168-.98-11.522h-5.689"/>
        <path fill="#282933" d="M492.18 508.651c.205.478.67.793 1.187.804l14.803.378a1.325 1.325 0 0 0 1.33-1.583l-.496-5.208-15.929 3.801a1.324 1.324 0 0 0-.894 1.808M515.772 508.927c.204.475.668.79 1.187.802l15.229.104a1.325 1.325 0 0 0 1.333-1.583l-.654-5.208-16.2 4.075a1.326 1.326 0 0 0-.895 1.81"/>
        <path fill="#34529A" d="M530.512 401.19l3.011 16.617c.116.635.04 1.289-.218 1.88l-1.043 2.385 1.44 75.305h-8.72l-10.005-56.993 6.583-40.327 8.952 1.133"/>
        <path fill="#F0D9B4" d="M517.82 317.722c-2.321-.118-6.498-.339-7.515 2.475-1.02 2.819-2.353 11.203-2.077 11.812.278.612 3.752 5 4.343 5.835.592.832.165 4.617.165 4.617l11.508 1.616.52-15.146-6.945-11.21"/>
        <path fill="#151717" d="M518.913 464.32l-3.822-21.776c.058-.178.114-.357.172-.538l3.65 20.797c-.109.878-.004 1.502 0 1.518"/>
        <path fill="#101112" d="M518.913 462.803l-3.65-20.797c2.642-8.321 6.26-19.75 6.587-20.472.086-.187.218-.938.378-2.06.568.913 1.537 2.332 2.763 3.56 1.372 1.37-3.03 7.452-3.03 8.755 0 3.428 4.212 6.74 2.38 12.011-.982 2.824 2.319 5.431 1.804 9.56-.385 3.061-5.978 5.966-6.743 7.672a6.222 6.222 0 0 0-.489 1.77" opacity=".1"/>
        <path fill="#34529A" d="M524.527 398.958H503.85l-3.641 7.816c-.11.236-.179.489-.202.749-.357 4.16-3.451 40.165-3.257 42.051.207 2 5.144 46.514 5.556 47.198.41.684 8.002.79 8.002.79s2.594-29.94 2.594-30.661c0-.652-.339-11.868-.401-13.963l-.32-.42c-.473-.141-1.315-.459-1.298-.904.014-.35 1.402-.556 1.608-.966.204-.41 8.848-27.982 9.36-29.114.517-1.13 2.677-22.576 2.677-22.576"/>
        <path fill="#F1CE2B" d="M539.666 355.087l5.553 26.239a7.732 7.732 0 0 1-3.632 7.702l-7.269 3.417 5.348-37.358"/>
        <path fill="#979894" d="M534.772 392.231l.05-.023a.114.114 0 0 1-.05.023"/>
        <path fill="#EBAB2C" d="M534.77 392.231c.364-2.292.742-4.582.988-5.857.42-2.165 2.267-16.935 3.407-26.17.75 4.831 1.859 8.684 1.326 10.225-.617 1.785-1.296 5.213-.684 6.652.614 1.44-1.511 2.198-1.991 3.086-.48.892.892 3.363.892 5.145 0 1.725-3.293 6.514-3.887 6.896l-.049.023h-.002"/>
        <path fill="#F1CE2B" d="M536.956 351.209l-10.56-5.16-18.001-.412s-25.671-2.803-27.046-3.104l-.023-.003-.056-.041-.296-.237c-2.323-2.429-12.735-19.744-12.735-19.744s-3.053 2.142-2.846 3.171c.148.742 3.226 12.67 5.363 19.774l-.076.072c.683 2.119 1.265 3.783 1.64 4.597.11.243.2.415.272.496.283.32 1.68 1.1 3.644 2.104 3.929 2 10.134 4.884 14.267 6.72 2.067.918 3.615 1.576 4.105 1.73.245.076.51.192.788.34 1.942 1.031 4.485 3.62 4.666 5.42l.018.175.021.211c.28 2.522 1.68 14.302 2.668 22.586.032.285.067.57.1.848l.269 2.247c.05.445.104.876.15 1.284.053.435.102.846.149 1.221l.222 1.862.026.234.164 1.358 26.663 2.232 1.363-.878a4.825 4.825 0 0 0 2.151-3.324c.464-3.014 1.3-8.377 1.732-10.614.489-2.522 2.91-22.118 3.9-30.186a4.885 4.885 0 0 0-2.702-4.98"/>
        <path fill="#2A2A41" d="M530.007 318.605c1.367 3.203-2.56 10.806-2.7 11.826-.144 1.02-.316 4.837-2.12 5.468-1.802.628-6.568-.195-7.843-1.103-1.277-.904-1.673-5.48-1.625-6.929.047-1.446-2.244-1.768-2.577-.88-.332.887.227 3.2-.135 3.928-.361.728-.904 1.535-.827 2.69.079 1.154.869 5.316.695 5.81-.174.496-3.169 1.685-4.32 1.368-1.15-.318-2.091-2.476-1.59-4.585.505-2.112 1.059-4.944 1.474-4.937.415.007 2.728-.188 3.008-1.085.283-.895.71-5.041.897-5.64.188-.595 1.108-1.972 1.15-2.642.042-.67-1.509-4.056-1.365-5.076.141-1.018 1.022-3.96 4.385-4.214 3.359-.253 5.473.463 6.008.844 1.465 1.038 1.28 2.364 2.54 3.37.576.461 4.222.093 4.945 1.787"/>
        <path fill="#151717" d="M517.513 332.818c1.12-.275 1.785.765 2.951 0 1.166-.765 1.78-.813 3.016-.127 1.235.686 2.47-1.579 3.018-2.881.366-.872 1.409-2.422 2.412-3.595-.75 2.056-1.541 3.769-1.604 4.216-.143 1.02-.315 4.837-2.118 5.468-1.803.628-6.57-.195-7.844-1.103-.366-.26-.658-.828-.89-1.533.355-.21.742-.368 1.06-.445"/>
        <path fill="#F0D9B4" d="M477.629 337.487c-3.82-5.93-9.385-14.97-9.39-14.976l-.334-.742c-.616-1.49-.983-4.054-2.318-5.804-1.337-1.748-2.728-4.448-3.372-4.096-.6.325.482 2.394.943 3.05.573.816-.767 1.618-1.013 2.02-.89 1.443.498 4.28 1.324 5.004.82.725 1.919 3.831 1.919 3.831l.023-.018c.23 1.038 2.751 10.806 4.784 17.806l7.434-6.075"/>
        <path fill="#FFFFFE" d="M503.768 398.279s-.019-.137-.049-.394l.049.394m-.095-.79l-.292-2.44c.018.156.037.31.056.455l.222 1.862.014.122m-.443-3.713l-.287-2.397c.07.564.134 1.104.195 1.62.03.265.062.524.092.777m-.382-3.194c-.413-3.47-.911-7.65-1.37-11.532l1.291 10.855c.025.227.053.452.079.677"/>
        <path fill="#E2756B" d="M500.076 367.077a4.042 4.042 0 0 0-.014-.146l.014.146m-1.8-3.268c-1.142-1.233-2.602-2.302-3.668-2.638.245.077.51.193.788.34.931.495 2 1.348 2.88 2.298m-23.605-11.905c-1.122-.603-1.877-1.06-2.079-1.286.202.227.957.683 2.08 1.286m-2.096-1.307c-.322-.406-1.036-2.404-1.896-5.072.683 2.119 1.265 3.783 1.64 4.597.1.225.186.387.256.475m42.86-4.8l-7.041-.16 7.041.16m-7.044-.16h-.002.002m-.002 0"/>
        <path fill="#F1D652" d="M507.771 398.334c-2.332 0-3.978-.055-4.003-.055l-.049-.394a29.433 29.433 0 0 0-.046-.397l-.014-.122c-.063-.515-.137-1.14-.222-1.862a61.959 61.959 0 0 1-.056-.454l-.15-1.275c-.03-.253-.063-.512-.093-.776a241.39 241.39 0 0 0-.195-1.62c-.03-.263-.063-.53-.095-.798-.026-.225-.054-.45-.079-.677l-1.291-10.855c-.68-5.72-1.275-10.792-1.402-11.972l-.014-.146c-.095-.936-.83-2.088-1.785-3.122-.881-.95-1.95-1.803-2.881-2.297a4.628 4.628 0 0 0-.788-.34c-1.607-.508-14.717-6.463-19.937-9.268-1.122-.603-1.877-1.06-2.079-1.286l-.014-.017-.002-.004a2.462 2.462 0 0 1-.255-.475c-.376-.814-.958-2.478-1.641-4.597 2.478-2.1 4.728-4.425 6.965-6.78l.438-.44c1.567 2.39 2.828 4.128 3.243 4.225.484.112 4.705.608 9.677 1.173 7.689.874 17.171 1.91 17.387 1.934h.005l7.041.16c-.778 1.87.636 4.362 1.843 6.596 1.335 2.467 5.174 6.706 5.45 9.457.273 2.752-2.026 6.477-1.688 9.52.369 3.308 3.901 5.818 4.842 7.969 4.993 11.425-1.815 14.431-2.366 16.501-.58 2.175-10.144 2.494-15.746 2.494"/>
        <path fill="#F1CE2B" d="M527.67 347l-.53-3.285a1.824 1.824 0 0 0-1.7-1.528l-11.835-.66a1.823 1.823 0 0 0-1.88 1.425l-.695 3.12 16.64.927"/>
        <path d="M510.39 399.904c-2.102 3.37-3.419 11.636-4.44 19.711-1.011 8.055-1.705 15.922-2.405 18.191-.667 2.181-.938 4.402-.938 6.432 0 2.409.38 4.546.945 6.053.353.936.485 2.317.483 3.829 0 2.575-.364 5.528-.501 7.463-.01.153-.014.362-.014.629 0 5.435 1.989 35.176 1.989 35.183l.577-.04c0-.004-.123-1.858-.31-4.732-.56-8.618-1.679-26.383-1.677-30.411 0-.26.005-.46.014-.59.132-1.907.501-4.876.501-7.502-.002-1.546-.123-2.972-.52-4.033-.535-1.417-.908-3.503-.908-5.849 0-1.977.264-4.144.913-6.263.74-2.429 1.41-10.226 2.425-18.288 1.004-8.04 2.374-16.341 4.355-19.475l-.489-.308"/>
        <path fill="#0181D1" d="M442.264 453.916l-22.961-12.603v-7.26h25.562l-7.41-4.065h9.635l28.446 15.611 1.328 4.337a4.686 4.686 0 0 0 3.162 3.122l-.193.19-30.745-16.877h-29.15l24.558 13.48-2.232 4.065"/>
        <path fill="#41A3E6" d="M442.867 427.67h-7.89v-17.317h-15.7a14.098 14.098 0 0 0-.324-2.318h16.024v-6.446c.802.102 2.598.178 4.636.218v24.076l3.254 1.787m-7.89-27.583v-17.308h-34.152v14.056h-4.636v-86.331h4.636v14.811h27.383v2.318h-27.383v25.256h18.262c.432.763.877 1.54 1.33 2.318h-19.592v25.254h34.152v-2.656a12.993 12.993 0 0 0 4.636 1.532V398.9c-1.618.369-3.134.593-3.681.635-.47.037-.765.262-.955.552"/>
        <path fill="#2CBA71" d="M439.613 379.337a12.993 12.993 0 0 1-4.636-1.532v-.872h4.636v2.404m-4.636-49.381v-2.323h-6.769v-2.318h6.769v-3.393h.4c.056.317.082.756.082 1.282 0 1.72-.262 4.376-.482 6.752"/>
        <path fill="#0181D1" d="M447.09 429.988h-9.635l-2.478-1.36v-.958h7.89l4.223 2.318"/>
        <path fill="#FFFFFE" d="M419.303 441.313l-1.159-.637v-6.622h1.159v7.26zm-.025-30.96h-1.16a13.344 13.344 0 0 0-.354-2.318h1.189c.17.75.28 1.525.325 2.318zm-23.09-12.36h4.637v-1.158h-4.636v1.159z"/>
        <path fill="#2D8FD1" d="M416.985 440.04l-18.316-10.052h9.635l7.41 4.066h1.271v5.987"/>
        <path fill="#3497DA" d="M404.079 427.67h-7.89v-28.517h4.636v8.882h15.738c.204.746.339 1.52.392 2.318h-16.13v15.53l3.254 1.787"/>
        <path fill="#2D8FD1" d="M408.304 429.988h-9.635l-2.48-1.36v-.958h7.89l4.225 2.318"/>
        <path fill="#FFFFFE" d="M418.144 440.676l-1.159-.635v-5.987h1.16v6.622zm-.025-30.323h-1.164a11.757 11.757 0 0 0-.392-2.318h1.2c.184.749.305 1.523.356 2.318zm-21.93-11.2h4.636v-1.16h-4.636v1.16z"/>
        <path fill="#2CBA71" d="M439.613 374.328h-4.636v-.214c.243-.166.477-.44.375-.848-.06-.241-.197-.58-.375-.953v-17.106h-5.148c-.276-.816-.545-1.6-.8-2.318h5.948v-3.46h4.636v24.899m-4.636-37.486v-.354c.025.11.05.22.079.331l-.08.023"/>
        <path fill="#3A3740" d="M476.864 449.936L432.85 306.3l6.65-2.037 45.652 148.984h-3.81a4.684 4.684 0 0 1-4.48-3.312"/>
        <path fill="#28282A" d="M458.478 375.628c0-.623-.378-1.124-.87-1.25v-.05h-37.802v2.605h37.803v-.056c.491-.12.87-.62.87-1.249M450.365 348.126c0-.626-.377-1.127-.869-1.25v-.053h-37.803v2.606h37.803v-.054c.492-.125.87-.623.87-1.25M442.253 320.622c0-.629-.378-1.127-.87-1.25v-.055h-37.802v2.605h37.803v-.051c.49-.125.869-.624.869-1.25"/>
        <path fill="#F0D9B4" d="M448.585 392.679s.095 4.346 0 5.118c-.097.774.278 3.092.042 3.671-.236.58-14.237.385-14.095 0 .146-.387.146-1.836 1.4-1.933 1.256-.095 7.63-1.159 8.597-2.703.964-1.546 1.738-4.733 1.738-4.733l2.318.58M431.683 365.54s1.159 3.477 1.836 4.347c.674.869 1.64 2.607 1.833 3.38.195.771-.82 1.06-.82 1.06H421.06s-.677-1.448 0-1.543c.675-.097 5.505-.87 6.18-1.256.676-.387 2.125-1.062 2.125-1.595 0-.53-.192-3.523-.192-3.523l2.51-.87"/>
        <path fill="#34529A" d="M441.727 334.847c-5.596 1.638-25.11 7.417-26.849 8.384-1.738.964 12.749 23.95 13.425 24.722.675.775 4.926-.192 5.118-.771.193-.58-5.48-18.407-6.084-18.303-.255.044.171.042.834.04.909-.003 2.263-.007 2.933.106 1.159.193 9.079.193 11.59 0 2.51-.194 7.532-1.738 7.92-5.602.384-3.864-5.353-9.613-8.887-8.576"/>
        <path fill="#CF232A" d="M433.421 367.182v-.005.005m0-.005h.003-.003m.003-.002v-.003.003m0-.003v-.002.002m0-.002v-.002.002m0-.002v-.003.003m0-.003c0-.002 0-.002.002-.002-.002 0-.002 0-.002.002m.002-.002v-.002.002m0-.005v-.002.002m0-.002v-.002.002m0-.002c0-.016 0-.035-.002-.058.002.023.002.042.002.058m-.035-.274l-.002-.014.002.014m-.002-.016c-.002-.005-.002-.01-.002-.014 0 .005 0 .01.002.014m-.005-.016c0-.005 0-.007-.002-.012.002.005.002.01.002.012m-.002-.016l-.002-.012.002.012m-.002-.017c-.003 0-.003-.002-.003-.002s0 .002.003.002m-.003-.007c0-.002 0-.004-.002-.004.002 0 .002.002.002.004m-.002-.009v-.005.005m-.002-.01v-.001.002m0-.007c-.003-.002-.003-.002-.003-.005 0 .003 0 .003.003.005"/>
        <path fill="#272769" d="M433.326 367.27c-2.304-2.824-6.715-4.492-6.279-9.988.137-1.762-3.98-4.393-3.894-9.226.065-3.762 9.017-1.522 14.499-4.682a22.182 22.182 0 0 0 2.348-1.557l.795 7.296c-1.287.037-2.877.056-4.404.056-2.439 0-4.708-.049-5.287-.144-.019-.002-.038-.007-.056-.009-.005 0-.01 0-.014-.002h-.007c-.002 0-.005 0-.007-.003-.584-.083-1.585-.095-2.404-.095-.146 0-.287 0-.417.003h-.373c-.21 0-.37-.003-.459-.007.651.264 5.408 15.08 5.999 17.843l.002.01.002.013c0 .003 0 .003.003.005v.007l.002.004v.01c.002 0 .002.002.002.004v.005s0 .002.003.002v.005l.002.012v.004c.002.005.002.007.002.012 0 .002.003.002.003.002 0 .005 0 .01.002.014v.002l.002.014c.019.09.028.165.033.216.002.023.002.042.002.058V367.163c-.002 0-.002 0-.002.002v.012h-.003v.005l-.095.088m6.92-25.643c.183-.142.359-.286.535-.432.32.007.647.012.976.017l-1.512.415" opacity=".2"/>
        <path fill="#34529A" d="M454.09 337.82c0 4.734-.387 24.339-.774 25.208-.385.87.589 13.09-.69 19.127-.763 3.598-2.882 11.972-2.882 11.972l-4.925-.771s-.098-19.22 0-21.152c.095-1.933-1.836-3.191-1.933-3.963-.096-.77-2.898-26.543-2.898-26.543l14.102-3.878"/>
        <path fill="#D3232A" d="M444.812 372.37"/>
        <path fill="#272769" d="M445.287 393.427l-.468-.071c-.021-4.14-.081-18.685-.007-20.987.002-.065.004-.118.007-.165.002-.046.002-.09.002-.134.002-1.857-1.84-3.076-1.935-3.83a7102.9 7102.9 0 0 1-2.056-18.811l-.035-.316a21182.41 21182.41 0 0 0-.807-7.415l1.771-.486c1.05.014 2.135.023 3.132.023.843 0 1.624-.007 2.264-.023-.677 4.721-.848 9.079-.116 10.27 1.16 1.89 1.695 6.208.63 7.019-1.066.809-1.355 2.274-.63 5.308.723 3.034 1.405 5.352.63 7.38-.776 2.028-1.107 11.458-1.107 11.458l-1.275 10.78" opacity=".2"/>
        <path fill="#E2E7EF" d="M421.64 316.477c2.18.09 4.297-.417 5.987-.925 1.903-.572 3.266-1.143 3.574-.862.58.53 3.79 5.106 4.177 7.232.387 2.125-.733 9.844-.7 12.422.03 2.58 1.833 6.761 1.833 6.761s10.741.294 12.17 0c1.43-.294 5.641-1.356 6.316-2.128.676-.774.085-5.13-.907-6.951-3.458-6.344-3.229-15.231-3.961-18.036-.776-2.979-5.31-13.738-5.795-13.836-.482-.095-8.112 2.126-9.8 3.477-1.004.807-7.167 5.352-10.866 5.7-3.092.29-14.082.702-14.082.702l-2.628 5.253s13.015 1.122 14.681 1.191"/>
        <path fill="#F0D9B4" d="M434 284.476c.24 1.256.532 3.51-.145 4.62-.485.792-1.954 1.835-1.93 2.51.01.35 2.59 5.282 3.353 5.683 1.233.645 3.746.258 4.71-.224.967-.483 2.513-4.49 2.705-5.575.193-1.09 1.449-5.823 0-6.595-1.449-.771-8.692-.42-8.692-.42"/>
        <path fill="#27283B" d="M433.758 285.232c-.24-.724-.153-2.74 1.448-3.96 1.762-1.337 3.862-2.303 5.844-2.146 7.39.58 7.728 6.277 7.728 8.257 0 2.51-2.168 5.99-2.747 6.715-.58.723-1.166 2.58-.538 3.836.628 1.256 1.787 3.718 1.449 4.2-.339.482-.721.614-1.229.621-.51.007-4.005-1.926-5.532-1.449-1.53.478-4.792 1.915-4.588 1.449 1.595-3.637.119-5.299.119-5.299 1.395-1.29 4.953-5.945 4.735-8.697-.25-3.187-2.916-3.694-4.056-3.548-1.987.25-2.39.746-2.633.02"/>
        <path fill="#151717" d="M426.34 371.808c-1.613.396-4.745.9-5.28.976-.677.095 0 1.544 0 1.544h13.472s1.015-.29.82-1.062c-.111-.447-.486-1.214-.913-1.952-1.52.529-3.653 1.245-4.107 1.275-.594.04-2.837-.215-3.992-.78M448.615 399.095c-.78.27-1.571.544-1.82.635-.528.192-4.345.385-5.407.385-.742 0-1.954-.462-2.913-.979-1.146.223-2.128.367-2.543.4-1.254.096-1.254 1.545-1.4 1.932-.142.385 13.859.58 14.095 0 .15-.368.053-1.442-.012-2.373"/>
        <path fill="#28282A" d="M438.442 450.142l-42.365-137.92c-.737-2.397 1.055-4.82 3.56-4.82 1.39 0 2.62.907 3.026 2.237l44.376 144.821-2.413.086a6.235 6.235 0 0 1-6.184-4.404"/>
        <path fill="#28282A" d="M466.59 403.135c0-.628-.377-1.127-.868-1.25v-.053h-37.803v2.605h37.803v-.053c.491-.123.869-.623.869-1.25M474.63 430.695c0-.626-.378-1.124-.87-1.25v-.05h-37.803V432h37.803v-.056c.492-.12.87-.621.87-1.25"/>
        <path fill="#F0D9B4" d="M409.127 310.947c-2.633-.87-3.203-1.672-3.929-3.164-.723-1.495-.723-2.636-1.448-2.138-.723.499-.58 1.748-1.013 2.138-.436.389-3.023-1.405-4.182-1.447-1.159-.044-2.049.719-.89 2.29 1.16 1.574 3.81 3.718 4.56 3.934 1.251.361 5.389 1.414 5.389 1.414l1.513-3.027"/>
        <path fill="#2A2B72" d="M436.558 341.105h-.005.005m-.03 0h-.003.002m-.009 0h-.004.004"/>
        <path fill="#9B9DA7" d="M422.152 316.486a12.662 12.662 0 0 0 0 0c1.998 0 3.917-.466 5.475-.934.201-.06.394-.12.581-.178-.187.058-.38.118-.581.178-1.558.468-3.477.934-5.475.934"/>
        <path fill="#C7D1E1" d="M443.915 341.232a384.34 384.34 0 0 1-7.357-.127h-.031-.002H436.511s-1.803-4.182-1.833-6.761v-.11c-.003-2.276.779-8.056.78-11.03 0-.526-.025-.965-.08-1.282-.125-.684-.545-1.627-1.073-2.605-1.113-2.052-2.712-4.268-3.104-4.627-.056-.051-.146-.074-.269-.074-.48 0-1.451.357-2.724.758-.187.058-.38.118-.581.178-1.558.468-3.477.934-5.475.934-.17 0-.341-.002-.513-.009a30.571 30.571 0 0 1-.843-.053 756.48 756.48 0 0 1-7.499-.6c1.213-.564 2.304-1.146 3.463-1.287a15.796 15.796 0 0 1 1.961-.128c1.122 0 2.135.121 4.196.128h.023c3.11 0 6.548-1.73 9.742-2.019 1.055-.095 1.996-.206 2.775-.206 1.587 0 2.51.459 2.37 2.452-.205 2.97.761 5.607 2.161 7.621 1.4 2.012 5.097 3.809 3.394 6.822-1.704 3.013-2.729 4.752-1.13 6.924.96 1.302 1.433 3.52 1.663 5.101"/>
        <path fill="#151717" d="M436.293 299.132c.093.862-.009 2.044-.7 3.623-.204.466 3.058-.971 4.588-1.449 1.527-.477 5.022 1.456 5.532 1.449.508-.007.89-.14 1.229-.621.338-.482-.82-2.944-1.449-4.2-.324-.65-.317-1.458-.16-2.188-2.73 1.372-6.416 2.816-9.04 3.386"/>
        <path fill="#3F97E7" d="M198.901 212.345v-6.405l35.3-1.25a13.17 13.17 0 0 0 4.629 5.888l-39.929 1.767"/>
        <path fill="#5D4BE1" d="M250.913 210.045a13.139 13.139 0 0 1-4.107-5.8l42.673-1.51c.25-.007.496-.024.741-.047 5.86-.533 10.58-4.893 11.69-10.53 1.467.382 3.129.589 3.627.589h.021c.399-.007 1.542-.443 2.689-.928l.028 3c.062 7.076-5.49 12.934-12.559 13.244l-44.803 1.982"/>
        <path fill="#4F3DD1" d="M238.83 210.578a13.17 13.17 0 0 1-4.629-5.887l12.605-.445a13.139 13.139 0 0 0 4.107 5.8l-12.083.532"/>
        <path fill="#4F5795" d="M290.22 202.688c5.86-.533 10.577-4.893 11.69-10.53-1.11 5.637-5.83 9.997-11.69 10.53"/>
        <path fill="#9B9DA7" d="M301.367 153.785a13.268 13.268 0 0 0-.966-2.07c1.11.519 2.141 1.189 3.06 1.984l-2.094.086"/>
        <path fill="#5D4BE1" d="M302.158 189.59v-31.304-.04-.009-.032-.012-.027-.017-.016c0-.014 0-.028-.003-.044a13.1 13.1 0 0 0-.788-4.304l2.093-.086a13.09 13.09 0 0 1 4.539 9.805l.213 24.368c-.23-.06-.45-.134-.663-.209-.47-.162-.918-.326-1.414-.326h-.041c-1.132.02-.242 1.316-.32 1.757-.044.24-1.915.285-3.616.496"/>
        <path fill="#D6D7D7" d="M301.36 153.785a12.971 12.971 0 0 0-.976-2.077l.017.007c.378.656.702 1.346.966 2.07h-.007"/>
        <path fill="#4F5795" d="M302.158 158.247v-.01.01m0-.042v-.012.012m0-.04v-.016.017m0-.033c0-.014 0-.028-.003-.044.003.016.003.03.003.044m-.003-.044a12.974 12.974 0 0 0-.795-4.304h.007a13.1 13.1 0 0 1 .788 4.304"/>
        <path fill="#E4BD92" d="M305.537 192.747c-.498 0-2.16-.207-3.627-.59.162-.827.248-1.68.248-2.556v-.011c1.701-.211 3.572-.255 3.616-.496.078-.44-.812-1.737.32-1.757h.041c.496 0 .944.164 1.414.326.213.075.434.149.663.209l.035 3.947c-1.147.485-2.29.92-2.689.928h-.02"/>
        <path fill="#FFFFFE" d="M288.533 146.316l-123.61 4.984a11.95 11.95 0 0 0-11.5 11.972v30.7c0 3.28 1.301 6.345 3.66 8.623 2.36 2.279 5.436 3.512 8.746 3.352l123.61-4.37A11.936 11.936 0 0 0 301 189.604v-31.317c0-3.291-1.308-6.36-3.681-8.641-2.374-2.279-5.512-3.48-8.785-3.329zm-123.144 61.958a14.179 14.179 0 0 1-9.914-4.01 14.183 14.183 0 0 1-4.37-10.291v-30.701c0-7.7 6.03-13.977 13.723-14.29l123.61-4.984c3.938-.122 7.654 1.257 10.486 3.978a14.165 14.165 0 0 1 4.393 10.31v31.317a14.25 14.25 0 0 1-13.797 14.293l-123.61 4.369-.521.01z"/>
        <path fill="#FFF" d="M192.128 178.447c0 6.001-4.603 10.867-10.284 10.867-5.68 0-10.287-4.866-10.287-10.867 0-6 4.608-10.864 10.287-10.864 5.681 0 10.284 4.863 10.284 10.864"/>
        <path fill="#EFFBFF" d="M210.164 174.618a4.63 4.63 0 0 1-4.629-4.448 4.63 4.63 0 0 1 4.441-4.819l66.48-2.684.19-.005a4.632 4.632 0 0 1 4.63 4.448 4.63 4.63 0 0 1-4.444 4.82l-66.478 2.683-.19.005M210.164 192.278a4.63 4.63 0 0 1-4.629-4.448 4.63 4.63 0 0 1 4.441-4.819l41.741-1.685.19-.004a4.632 4.632 0 0 1 4.63 4.448 4.63 4.63 0 0 1-4.444 4.819l-41.739 1.685-.19.004" opacity=".7"/>
        <path fill="#FFF" fill-rule="nonzero" d="M56.386 84.025l99.091-2.898c-6.181-17.384-17.577-23.952-34.19-19.702-5.794-7.727-13.134-11.59-22.02-11.59-8.885 0-16.997 6.954-24.338 20.862-12.362-5.023-18.543-.58-18.543 13.328zM551.283 34.769l98.511-2.898c-2.318-7.726-7.533-11.782-15.646-12.169-3.863-7.34-10.044-9.85-18.543-7.533C611.742 4.056 606.14 0 598.8 0c-11.01 0-16.226 11.59-16.226 13.908-5.794-.387-10.237 2.124-13.328 7.533-11.83-2.294-17.818 2.149-17.963 13.328zM712.237 97.353l68.958-1.16c-2.704-7.34-8.113-9.85-16.225-7.533-3.864-5.794-9.658-8.692-17.385-8.692-7.726 0-13.135 4.057-16.225 12.17-10.817-1.932-17.191-.194-19.123 5.215z"/>
        <path fill="#4ABCFF" fill-rule="nonzero" d="M165 486.73h18l-11 18h-18z"/>
        <path fill="#65D7FF" fill-rule="nonzero" d="M775 359h18l-11 18h-18z"/>
        <path fill="#2DB0FF" fill-rule="nonzero" d="M434 3h18l-11 18h-18z"/>
    </g>
</svg>
