<svg xmlns="http://www.w3.org/2000/svg" width="250" height="174" viewBox="0 0 250 174">
    <g fill="none" fill-rule="evenodd">
        <path fill="#32327B" d="M101.82 172.393l-29.355-.228c.33-1.789 1.267-7.188 1.905-13.818 2.528 1.168 5.034 1.66 7.454 1.66 9.765 0 18.09-7.883 20.577-10.49.778 7.415-.34 20.286-.582 22.876zm-59.257-.345c-.055-.052-5.529-6.146-10.209-10.052-3.388-2.83-12.543-5.949-14.715-6.664.362-1.21.871-2.145 1.533-2.656 2.342-1.808 4.769-1.012 7.115-.243 2.317.759 4.714 1.545 6.185-1.084.69-1.233 1.436-3.197 2.3-5.472 2.367-6.23 5.608-14.76 10.583-16.005.258-.064.516-.11.772-.143l.02 1.34c.099 6.944.136 9.542 1.04 13.676.865 3.946 8.226 22.606 10.09 27.303H42.563zm-25.201-6.623c1.47.587 3.921 1.02 6.418 1.02 1.496 0 3.007-.156 4.33-.526 1.938-.541 3.305-1.46 4.077-2.737 3.58 3.057 7.315 7.272 8.813 8.866l-21.5-.115c-.859-1.841-1.782-4.239-2.138-6.508zm.027-9.108c2.167.72 10.59 3.619 14 6.208-.62 1.116-1.808 1.93-3.552 2.418-3.874 1.081-9.09.194-10.641-.718-.335-2.856-.273-5.704.193-7.908zm29.772-25.263l-.02-1.375c3.165.053 6.178 2.156 8.687 3.94-.317 4.512-3.46 8.98-7.646 10.922-.886-4.047-.923-6.617-1.02-13.487zm14.936 5.143c.883-.358 1.928-.922 3.035-1.519 2.154-1.161 4.66-2.507 7.16-3.046 3.918 13.085-.232 37.095-.858 40.525l-13.062-.101c-1.434-3.611-8.306-20.999-9.927-26.523 4.398-1.967 7.765-6.524 8.342-11.236 2.044 1.43 3.829 2.5 5.31 1.9zm13.877-4.65c3.7.791 4.513 2.834 5.374 4.996.702 1.762 1.428 3.584 3.758 4.505 1.725.682 4.006.757 6.421.836 4.444.146 9.038.297 10.269 4.296.177.574.32 1.259.438 2.025-1.51 1.696-14.44 15.545-27.765 9.07.753-8.444.957-18.604-1.17-25.816.904-.11 1.801-.098 2.675.088zm15.587 9.324c-2.325-.077-4.521-.149-6.082-.766-1.923-.76-2.51-2.233-3.189-3.938-.879-2.207-1.875-4.707-6.104-5.611-3.968-.85-8.165 1.413-11.535 3.23-1.082.583-2.103 1.134-2.934 1.47-1.17.476-3.039-.854-5.203-2.394-3.164-2.25-7.1-5.052-11.405-3.974-5.488 1.373-8.838 10.19-11.284 16.629-.85 2.237-1.585 4.17-2.238 5.337-1.013 1.811-2.48 1.437-4.984.615-2.354-.77-5.282-1.73-8.05.404-3.595 2.772-3.162 14.467-.145 20.607L19 173l83.785-.046c.083-.833 2.015-20.458-.02-27.072-1.443-4.69-6.63-4.861-11.204-5.011zM230.96 159.575c-1.566 6.42-5.91 11.394-8.383 12.457h-41.95c.85-2.976 1.75-5.654 2.697-8.069.615.01 1.246.015 1.9.015 14.042 0 36.347-2.134 45.265-14.716 1.449 3.8 1.153 7.517.47 10.313m-68.626-55.049c1.517.251 3.116.567 4.669.873 4.42.871 8.594 1.694 10.695 1.041 1.106-.344 2.088-2.251 3.871-5.875 2.819-5.726 6.679-13.569 12.218-13.569 4.446 0 9.86 1.42 12.28 12.497.449 2.057.86 4.138 1.257 6.15 1.452 7.362 2.707 13.72 5.183 15.813 1.298 1.098 3.491 1.248 5.813 1.408 2.17.149 4.384.303 5.98 1.202-.613 1.189-2.652 4.825-6.012 7.779-3.316 2.914-7.09 4.576-11.086 6.337-9.672 4.261-20.625 9.09-27.628 33.85h-17.24v-67.506m63.998 22.022c.84 2.628.439 5.549.05 8.373-.495 3.595-.963 6.99 1.164 9.454a16.665 16.665 0 0 1 2.473 3.786c-8.703 13.141-32.425 14.943-46.29 14.792 6.65-16.247 15.388-20.1 23.882-23.843 4.069-1.793 7.913-3.487 11.346-6.504 3.402-2.99 5.463-6.57 6.18-7.945.528.476.94 1.09 1.195 1.887m1.981 17.165c-1.826-2.118-1.39-5.293-.927-8.654.405-2.937.823-5.973-.088-8.82-1.236-3.86-5.312-4.14-8.909-4.387-2.15-.148-4.183-.287-5.227-1.17-2.204-1.864-3.487-8.36-4.844-15.236-.398-2.017-.81-4.102-1.261-6.17-2.574-11.783-8.444-13.294-13.27-13.294-6.17 0-10.191 8.17-13.127 14.135-1.24 2.52-2.523 5.124-3.263 5.355-1.855.577-6.097-.26-10.198-1.068-1.764-.348-3.587-.707-5.294-.974l-.585-.091v69.708h61.456l.091-.036c3.137-1.254 7.533-6.856 9.08-13.196 1.031-4.229 1.238-10.455-3.634-16.102" opacity=".1"/>
        <path fill="#B6A786" d="M229.08 102.641c.687-.56 1.449-.451 1.965-.824 2.083-1.499 2.292-2.472 3.56-2.662.733-.11-.615 1.373-.802 1.692-.317.539.616 1.256 1.426.749.462-.29 1.85-1.43 2.44-1.744 1.332-.702 2.791-.171 2.411.336-.38.507-4.514 3.88-5.865 4.292-1.352.412-3.899 1.458-3.899 1.458l-1.236-3.297"/>
        <path fill="#34529A" d="M216.514 81.36c5.627.7 5.754 8.644 5.839 10.588.084 1.943.588 9.812.866 10.269.444.729 7.1-1.458 7.1-1.458l2.345 4.754s-7.925 4.674-11.347 4.105c-2.408-.4-3.447-4.323-3.785-5.948-.338-1.624-1.349-7.835-.842-9.44.507-1.606-.176-12.87-.176-12.87"/>
        <path fill="#34529A" d="M182.3 140.026c2.082 2.895 8.367 9.375 10.396 10.304 2.028.93 7.353 2.197 10.48.76 3.127-1.436 8.536-6.338 8.536-6.338l6.846-36.765s3.03-22.997 1.762-23.926c-1.267-.93-6.03-3.579-6.96-2.311-.93 1.268-31.06 58.276-31.06 58.276"/>
        <path fill="#28427F" d="M196.402 151.418c-1.53-.286-2.887-.713-3.706-1.088a5.16 5.16 0 0 1-.782-.474c2.828-2.262 6.167-4.428 6.522-4.664.496-.33 4.427-6.386 7.79-11.64l.432.736c.037.91.044 1.886-.017 2.942-.254 4.395-4.48 3.296-6.339 5.524-1.686 2.019-1.919 6.253-3.9 8.664m-10.243-6.903a72.475 72.475 0 0 1-2.12-2.334c1.727-1.897 4.74-5.013 6.882-7.31.583-.626 1.63-1.296 2.939-1.991-1.511 3.386-2.734 6.167-3.007 6.898-.2.534-2.276 2.472-4.694 4.737m27.158-25.073l-.581-2.079c.122-.963.227-1.852.31-2.568.594-1.945 1.058-3.627 1.312-4.526.679-2.406 2.563-19.837 3.923-25.044.771.569-2.428 27.158-3.188 30.96-.36 1.804-1.007 2.677-1.776 3.257"/>
        <path fill="#27204F" d="M204.392 164.792l-1.366 4.414c-.258 1.05.64 1.495 1.12 1.804l11.914.39a.6.6 0 0 0 .514-.934c-.144-.214-.312-.38-.49-.383-.506-.01-6.551-2.031-7.137-2.518-.707-.587.027-3.701.027-3.701l-4.582.928"/>
        <path fill="#3CA4D0" d="M201.584 124.232c1 3.665 7.242 13.654 7.681 14.377.439.722-1.3 3.74-1.903 4.7s-1.68 8.498-2.143 11.51c-.464 3.012-2.114 10.833-2.114 10.833s.997 1.456 2.79 1.801c1.792.345 3.554-.698 3.554-.698s4.873-16.412 6.78-21.645c.958-2.623 2.416-4.96 2.267-5.6-.511-2.194-1.506-7.025-1.69-7.676-2.023-7.118-5.418-19.296-5.418-19.296l-9.804 11.694"/>
        <path fill="#C7BA8C" d="M212.156 73.483c0 1.712-.444 2.726-.761 2.79-.317.063 1.772 2.483 2.72 3 .31.17.826 3.788 1.243 3.844.936.124 1.953.694 2.777.36.415-.167-.433-4.693-.155-4.872 2.34-1.509 1.212-5.946 1.212-5.946l-7.036.824"/>
        <path fill="#6957EE" d="M206.26 76.613s7.478-.293 9.954-.58c3.83-.444 10.457-1.322 10.457-1.322l-.212-.237a1.348 1.348 0 0 0-.89-.44l-4.419-.356a1.472 1.472 0 0 1-1.274-.99l-1.363-3.98a1.129 1.129 0 0 0-1.532-.578l-1.513.56-1.897-1.488a.72.72 0 0 0-1.08.502l-.878 5.369a1.461 1.461 0 0 1-1.077 1.179l-4.4 1.133a.505.505 0 0 0-.242.836l.367.392"/>
        <path fill="#202228" d="M205.219 154.819c.198-1.291.51-3.413.848-5.492-.338 2.08-.65 4.201-.848 5.492"/>
        <path fill="#1B1D21" d="M206.067 149.327c.445-2.734.937-5.395 1.28-5.994-.343.599-.835 3.26-1.28 5.994"/>
        <path fill="#3B93C4" d="M206.22 167.497a3.15 3.15 0 0 1-.325-.044c-1.793-.345-2.789-1.8-2.789-1.8s1.649-7.822 2.113-10.834c.198-1.29.51-3.413.848-5.492.445-2.735.937-5.395 1.28-5.994l.015-.023c.538-.856 1.975-3.343 1.973-4.388a.604.604 0 0 0-.07-.313c-.176-.29-1.28-2.063-2.607-4.321-.142-.24-.285-.486-.431-.737 1.305-2.04 2.526-3.96 3.426-5.376.963 3.803 3.98 7.342 4.62 10.248.762 3.471-3.848 7.861-3.7 9.829.148 1.967-.452 10.273-1.76 12.353-.955 1.523-2.067 5.088-2.593 6.892"/>
        <path fill="#3CA4D0" d="M198.436 145.192c.847-.563 11.686-17.783 12.658-19.278.972-1.494 2.14-12.833 2.14-12.833l-12.156 3.777s-9.405 20.724-10.225 22.92c-.452 1.208-10.514 9.606-12.394 12.711-.729 1.206-.435 5.829.88 13.87 1.028-3.437 9.037-13.614 12.194-16.195 2.9-2.37 6.532-4.725 6.903-4.972z"/>
        <path fill="#3B93C4" d="M183.236 154.402v-7.124c3.413-3.283 7.339-6.756 7.617-7.5.273-.73 1.496-3.512 3.007-6.898 2.665-1.416 6.41-2.931 9.495-4.363-.535.518-1.095.937-1.67 1.189-2.212.972-2.19 5.688-3.384 9.036-1.193 3.348-4.53 4.69-6.25 5.74-1.721 1.051-3.053 3.296-4.061 6.058-.725 1.985-2.685 2.843-4.754 3.862"/>
        <path fill="#34529A" d="M214.358 110.27c-.764 2.705-3.427 12.508-5.879 15.212-2.45 2.705-14.885 6.522-17.558 9.388-2.994 3.212-7.69 8.022-8.198 8.868-.507.845-.151-6.206-3.223-8.868-2.535-2.197-.409-15.37-1-21.37 0 0 3.992 2.147 16.585-7.657 1.948-1.516 16.48-25.27 16.48-25.27l7.197 3.329c-1.353 1.957-3.64 23.66-4.404 26.367z"/>
        <path fill="#ACAEAF" d="M183.236 111.648c4.135-1.204 8.292-3.035 11.849-5.805 1.312-1.021 8.329-12.123 12.774-19.268-4.445 7.145-11.462 18.247-12.774 19.268-3.557 2.77-7.714 4.602-11.85 5.805m25.186-25.978a1080.785 1080.785 0 0 1 0 0"/>
        <path fill="#C4DDE3" d="M207.859 86.575l.561-.905-.561.905"/>
        <path fill="#304B8C" d="M183.236 124.263v-12.615c4.135-1.203 8.292-3.035 11.85-5.805 1.31-1.021 8.328-12.123 12.773-19.268a1200.809 1200.809 0 0 0 3.192-5.162c.015-.003.25-.044.599-.044.453 0 1.1.07 1.71.381.782.4 1.19 1.044 1.998 1.367-1.412 4.163-4.587 13.418-5.483 15.12-2.493 4.733-6.212 3.465-9.381 7.48-1.636 2.072-2.623 9.716-4.31 11.494-.514.541-1.145.734-1.852.734-.874 0-1.864-.295-2.89-.59-1.026-.294-2.088-.589-3.107-.589-.933 0-1.831.248-2.632.969-1.72 1.551-.6 4.99-2.467 6.528"/>
        <path fill="#34529A" d="M220.63 81.069l2.37-3.454a1.03 1.03 0 0 0-1.228-.983l-2.308.32c-.516.1-.795.926-1.192.82l-7.14-.995a.878.878 0 0 0-1.103.888l1.021 3.748s1.215-.223 2.31.337c3.296 1.685 7.413 2.742 7.413 2.742l-.143-3.423"/>
        <path fill="#272342" d="M215.358 83.117l.133-.395.266.107c-.162.114-.346.244-.399.288"/>
        <path fill="#26273B" d="M215.358 83.117c-.808-.323-1.216-.967-1.998-1.367-.61-.312-1.257-.38-1.71-.38.453 0 1.1.068 1.71.38.69.352 1.415.677 2.131.972l-.133.395"/>
        <path fill="#ACAEAF" d="M211.664 76.85l-.531-.073.526.068.005.006"/>
        <path fill="#B7A773" d="M214.577 77.257l-2.913-.406a24.108 24.108 0 0 0-.005-.006l2.918.378v.034"/>
        <path fill="#304B8C" d="M215.757 82.83l-.266-.108a28.588 28.588 0 0 1-2.131-.972c-.61-.312-1.257-.38-1.71-.38-.35 0-.584.04-.6.043l-1.02-3.748-.002-.041a.88.88 0 0 1 1.105-.847l3.444.48c.006.675.477 1.152 1.135 1.741.85.76 1.61 1.14 1.261 2.06-.348.92-.285 1.111-.95 1.585-.03.02-.142.098-.266.186"/>
        <path fill="#C7BA8C" d="M208.48 85.147c.57-1.965 1.628-3.055 1.9-4.12.275-1.066.846-1.352 1.185-.454.34.897 1.71.25 2.386-.535.677-.786 2.044-.683 1.709.248-.335.93-.483 2.536-1.709 3.54-1.225 1.004-3.507 3.222-3.507 3.222l-1.965-1.901"/>
        <path fill="#34529A" d="M194.566 103.846c.423 1.183 1.426 2.198 2.271 2.198.846 0 8.62-7.66 9.889-8.774 1.075-.946 4.34-8.214 5.306-10.397a.82.82 0 0 0-.281-1.005l-2.76-1.93a.733.733 0 0 0-.946.09c-1.375 1.417-5.607 5.787-6.734 7.056-1.353 1.521-6.249 8.451-6.333 9.128-.084.676-.412 3.634-.412 3.634"/>
        <path fill="#27204F" d="M235.321 104.685l-2.41-1.391a.494.494 0 0 1-.18-.676l3.15-5.456a.495.495 0 0 1 .675-.182l2.41 1.392c.236.137.317.439.181.675l-3.15 5.457a.495.495 0 0 1-.676.181"/>
        <path fill="#B6A786" d="M236.56 103.624c.539.222.983-.095 1.553-.666.57-.57 1.337-2.096.856-2.111-.48-.015-1.363-.075-1.839.242-.475.317-.76.443-.982.982-.222.539-.666.92-.253 1.268.411.349.665.285.665.285"/>
        <path fill="#B7A773" d="M211.984 76.342a216.692 216.692 0 0 1 0 0"/>
        <path fill="#5F4DE2" d="M206.26 76.613l-.366-.392a.504.504 0 0 1 .234-.833l.008-.003 4.4-1.133.007-.002a1.462 1.462 0 0 0 1.07-1.177l.879-5.369a.72.72 0 0 1 1.079-.502l1.695 1.328c.278 1.294.674 2.436.948 3.326.442 1.437.075 2.768-.502 2.832-.577.063-2.482.575-2.479 1.077.001.119.02.297.046.5-.42.027-.857.052-1.295.077-2.696.15-5.511.262-5.712.27H206.26"/>
        <path fill="#E4F2F9" d="M172.081.208l-4.87.14c5.141.834 9.094 5.294 9.094 10.702v161.254h6.93V11.05c0-6.111-5.045-11.016-11.154-10.842"/>
        <path fill="#F3FAFF" d="M176.306 172.304H69.44V13.474c0-5.869 4.67-10.673 10.538-10.84L165.15.207c6.109-.174 11.155 4.73 11.155 10.842v161.254"/>
        <path fill="#7461FF" d="M154.782 139.768l-63.722.71a4.312 4.312 0 0 1-4.36-4.312v-21.43a4.313 4.313 0 0 1 4.265-4.312l63.721-.709a4.312 4.312 0 0 1 4.36 4.312v21.428a4.312 4.312 0 0 1-4.264 4.313"/>
        <path fill="#F1CE2B" d="M159.047 172.047H86.7V153.21c0-2.362 1.9-4.284 4.262-4.312l63.722-.744a4.312 4.312 0 0 1 4.363 4.312v19.581"/>
        <path fill="#FFFFFE" d="M125.611 79.3l-34.666.54A4.312 4.312 0 0 0 86.7 84.15v14.221a4.312 4.312 0 0 0 4.38 4.312l34.667-.538a4.313 4.313 0 0 0 4.245-4.313l-.002-14.221a4.312 4.312 0 0 0-4.379-4.312M135.563 97.61a4.312 4.312 0 0 0 4.38 4.312l14.858-.229a4.312 4.312 0 0 0 4.246-4.312V83.16a4.313 4.313 0 0 0-4.38-4.312l-14.858.232a4.312 4.312 0 0 0-4.246 4.311v14.22"/>
        <path fill="#EDCB26" d="M154.801 70.76l-63.721.99a4.312 4.312 0 0 1-4.38-4.312v-37.04a4.312 4.312 0 0 1 4.245-4.311l63.722-.992a4.313 4.313 0 0 1 4.38 4.312v37.04a4.313 4.313 0 0 1-4.246 4.312"/>
        <path fill="#4C99C0" d="M149.516 15.333a2.283 2.283 0 0 1 2.227-2.337l4.967-.119a2.282 2.282 0 1 1 .11 4.563l-4.968.12a2.281 2.281 0 0 1-2.336-2.227M86.7 16.844a2.282 2.282 0 0 1 2.227-2.336l52.672-1.267a2.282 2.282 0 1 1 .11 4.563L89.036 19.07a2.282 2.282 0 0 1-2.337-2.227" opacity=".3"/>
        <path fill="#ACAEAF" d="M69.441 110.486v-5.131 5.131"/>
        <path fill="#E0EEEE" d="M69.441 110.486v-5.131l31.092-.483h.065c1.384 0 2.674.705 3.42 1.874l2.024 3.17-36.6.57m44.731-.32l-.027-7.84 8.657-.135.027 7.878-8.657.097m-.053-30.687v-8.087l8.674-.135v8.087l-8.674.135"/>
        <path fill="#5E4CE1" d="M121.185 123.641c-.523 0-1.051-.24-1.393-.777l-5.604-8.778-.015-3.92 8.657-.097.043 11.892c.004 1.04-.835 1.68-1.688 1.68"/>
        <path fill="#F2F6F6" d="M114.146 102.326c-.015-4.306-.026-7.889-.026-8.988v-13.86l8.674-.134v18.99c0 .614.004 2.002.01 3.857l-8.658.135"/>
        <path fill="#EABF28" d="M114.12 71.392V49.096c0-2.403-.737-4.631-1.994-6.474 5.953.424 10.668 5.39 10.668 11.47v17.165l-8.674.135"/>
        <path fill="#43E892" d="M100.533 104.872l-64.171.998c-6.42.1-11.678-5.078-11.678-11.499V50.13c0-6.282 5.04-11.4 11.32-11.498l66.437-1.034c6.42-.1 11.679 5.078 11.679 11.499v44.242c0 2.323.049 15.748.079 23.627.006 1.675-2.18 2.314-3.082.903l-7.1-11.122a4.057 4.057 0 0 0-3.484-1.874"/>
        <path fill="#E0EEEE" d="M176.305 62.174c-8.058-2.43-13.928-9.907-13.928-18.757 0-8.85 5.87-16.327 13.928-18.756v37.513"/>
        <path fill="#FFFFFE" d="M201.56 35.93c0 10.82-8.772 19.591-19.592 19.591-10.82 0-19.591-8.77-19.591-19.59s8.771-19.591 19.591-19.591 19.591 8.771 19.591 19.59"/>
        <path fill="#D1E6E9" d="M182.08 43.417c-6.698 0-11.985-6.348-12.207-6.618l-.713-.868.713-.87c.222-.27 5.51-6.617 12.207-6.617 6.698 0 11.985 6.348 12.207 6.618l.713.869-.713.868c-.222.27-5.51 6.618-12.207 6.618z"/>
        <path fill="#FFF" d="M185.535 35.93a3.567 3.567 0 1 1-7.134 0 3.567 3.567 0 0 1 7.134 0M50.35 64.846c-.016 3.338-2.592 6.03-5.752 6.014-3.16-.016-5.708-2.735-5.69-6.073.016-3.338 2.592-6.03 5.752-6.014 3.16.016 5.708 2.735 5.69 6.073"/>
        <path fill="#FFF" d="M63.141 61.085a2.566 2.566 0 0 1-2.49-2.537 2.565 2.565 0 0 1 2.537-2.596l36.839-.414h.105a2.566 2.566 0 0 1 2.49 2.537 2.565 2.565 0 0 1-2.536 2.595l-36.84.415h-.105M63.458 70.86a2.567 2.567 0 0 1 .047-5.133l23.13-.26h.105a2.565 2.565 0 0 1 2.49 2.537 2.564 2.564 0 0 1-2.536 2.596l-23.13.26h-.106M63.141 81.62a2.566 2.566 0 0 1-2.49-2.536 2.565 2.565 0 0 1 2.537-2.596l36.839-.414h.105a2.565 2.565 0 0 1 2.49 2.537 2.565 2.565 0 0 1-2.536 2.596l-36.84.414h-.105" opacity=".7"/>
        <path fill="#33CE7E" d="M36.18 105.87h-.004c-6.335-.002-11.492-5.14-11.492-11.499V70.852c.112-.006.223-.02.336-.022l17.801-.277a5.431 5.431 0 0 0 1.805.308c.69 0 1.352-.13 1.964-.366l1.174-.018a8.44 8.44 0 0 1 .16-.002c5.545 0 10.058 4.498 10.058 10.062v24.39c0 .204-.018.405-.03.606l-21.59.337h-.182" opacity=".5"/>
        <path fill="#B2C1C3" d="M44.626 70.86h-.028a5.431 5.431 0 0 1-1.777-.307l3.77-.058a5.444 5.444 0 0 1-1.965.366"/>
        <path fill="#FFFFFE" d="M41.991 111.612l-22.743.354c-5.618.087-10.219-4.443-10.219-10.061V77.516c0-5.496 4.41-9.975 9.906-10.061l22.743-.354c5.618-.087 10.22 4.443 10.22 10.06v24.39c0 5.497-4.411 9.976-9.907 10.061"/>
        <path fill="#D1E6E9" d="M29.916 75.812c-.284 0-.572.055-.87.18a28.72 28.72 0 0 0-4.278 2.239c-1.295.824-2.58 1.667-3.994 2.28-.689.297-1.394.523-2.158.567-.62.036-1.09.272-1.268.932-.067.249-.05.527-.035.788.047.754.09 1.509.177 2.258.115.994.263 1.983.406 2.973.218 1.51.572 2.991 1.07 4.431.387 1.12.824 2.227 1.297 3.314.293.676.68 1.313 1.051 1.952.77 1.32 1.69 2.531 2.743 3.638.394.414.792.828 1.216 1.211.48.433.972.859 1.495 1.236a43.596 43.596 0 0 0 2.226 1.483c.283.178.61.286.917.427.19-.084.355-.089.485-.159.436-.236.871-.478 1.288-.748 1.47-.952 2.851-2.018 4.026-3.324.666-.74 1.338-1.482 1.916-2.29a21.848 21.848 0 0 0 2.459-4.417 30.244 30.244 0 0 0 1.446-4.412c.343-1.419.625-2.85.765-4.304.078-.818.159-1.634.233-2.452.03-.318.023-.642.068-.958.105-.733-.295-1.441-1.056-1.532-.22-.026-.445-.025-.663-.065a8.055 8.055 0 0 1-2.424-.867c-1-.549-1.994-1.114-2.954-1.728a33.343 33.343 0 0 0-4.35-2.351c-.411-.184-.817-.302-1.234-.302z"/>
        <path fill="#E4F2F9" d="M41.991 111.612l-.023-1.521-22.81.355.067-.001h-.136a8.507 8.507 0 0 1-6.034-2.498 8.506 8.506 0 0 1-2.504-6.042V77.516a8.509 8.509 0 0 1 2.455-5.992 8.511 8.511 0 0 1 5.953-2.548l22.743-.354h.136c2.357 0 4.482.951 6.034 2.498a8.506 8.506 0 0 1 2.504 6.042v24.39a8.508 8.508 0 0 1-2.455 5.992 8.509 8.509 0 0 1-5.953 2.547l.047 3.042a11.553 11.553 0 0 0 8.074-3.455 11.555 11.555 0 0 0 3.33-8.127v-24.39a11.553 11.553 0 0 0-3.397-8.193 11.555 11.555 0 0 0-8.367-3.388l-22.744.354a11.557 11.557 0 0 0-8.073 3.455 11.557 11.557 0 0 0-3.33 8.127v24.389c0 3.198 1.302 6.104 3.397 8.194a11.552 11.552 0 0 0 8.184 3.39c.06 0 .121 0 .182-.002h.07l22.674-.354-.024-1.52M201.56 35.93h-1.522a18.009 18.009 0 0 1-5.293 12.778A18.005 18.005 0 0 1 181.968 54c-4.994 0-9.502-2.02-12.777-5.292a18.009 18.009 0 0 1-5.293-12.777 18.007 18.007 0 0 1 5.293-12.777 18.006 18.006 0 0 1 12.777-5.293c4.995 0 9.503 2.02 12.777 5.293a18.007 18.007 0 0 1 5.293 12.777h3.043a21.055 21.055 0 0 0-6.184-14.929 21.054 21.054 0 0 0-14.929-6.184 21.052 21.052 0 0 0-14.928 6.184 21.053 21.053 0 0 0-6.185 14.929 21.054 21.054 0 0 0 6.184 14.928 21.052 21.052 0 0 0 14.93 6.184 21.052 21.052 0 0 0 14.928-6.184 21.054 21.054 0 0 0 6.184-14.928h-1.522"/>
        <path fill="#D8DDE9" d="M0 173v-1h250v1z"/>
    </g>
</svg>
