<svg xmlns="http://www.w3.org/2000/svg" width="250" height="176" viewBox="0 0 250 176">
    <g fill="none" fill-rule="evenodd">
        <path fill="#32327B" d="M247.878 124.439c-.202 3.03-1.906 7.113-3.46 10.224-3.216 2.555-7.272 4.112-11.456 5.019-11.644 2.526-20.977.095-21.07.07-.179.059-.326.025-.46-.009 1.77-4.571 4.651-7.366 7.688-9.768 1.978-1.647 6.384-5.219 8.335-7.452 2.528-2.892 3.941-6.496 4-6.648.674-1.367 1.409-2.85 2.192-4.432l.453-.915c4.553-.023 6.784-2.093 8.94-4.098.248-.232.493-.457.737-.678-.924 2.671-1.598 5.066-1.598 6.835 0 1.75 1.288 3.445 2.652 5.241 1.577 2.076 3.206 4.222 3.047 6.61zm-5.628 14.166c-.818 1.31-.767 3.293-.71 5.59.06 2.314.126 4.937-.813 6.97-1.455 3.154-13.827 6.897-18.55 8.095H205.09c.365-1.122 1.191-3.659 2.136-6.572l.115.034 1.763-5.94a313.261 313.261 0 0 0 1.853-5.696c.05-.157.106-.304.158-.457.65.167 1.528.34 2.58.497.015-.016 4.675.612 8.197.612 3.044 0 6.598-.27 10.41-1.06l-.037.071c3.989-.773 7.913-2.09 11.198-4.25a41.93 41.93 0 0 1-1.213 2.106zm-48.833 20.655c-.262-2.424-1.315-15.022 4.197-20.445 5.587-5.495 12.087-14.921 12.425-19.313.032-.413.026-1 .003-1.714h-.939c.024.697.03 1.262 0 1.642-.289 3.764-6.192 12.86-12.146 18.716-5.82 5.725-4.79 18.368-4.486 21.127l-4.658.113c.19-2.7 1.14-15.344 2.513-20.841 1.182-4.726 5.168-10.468 7.805-14.266.811-1.17 1.512-2.18 1.989-2.95 1.49-2.412 2.282-10.739 2.918-17.43.268-2.823.5-5.261.744-6.9.767-5.152 5.029-9.768 7.319-12.249l.38-.411c4.565-4.974 9.466-12.203 10.125-17.14.425-3.19 2.853-6.606 4.995-9.621.922-1.298 1.793-2.524 2.45-3.65.319-.547.697-1.213 1.123-1.963 2.392-4.207 6.335-11.138 9.683-14.457-4.289 9.236-5.085 15.645-5.785 21.329-.381 3.087-.74 6.004-1.653 8.955-1.364 4.414-4.53 8.573-7.883 12.977-2.023 2.657-4.111 5.404-5.784 8.228a4.34 4.34 0 0 0-.724.16c-7.305 2.338-8.929 11.373-9.137 19.093l.212 9.538h.939l-.213-9.538c.203-7.436 1.735-16.04 8.484-18.2.74-.237 1.49-.2 2.241.009-.06 1.042-.162 2.218-.272 3.464-.278 3.139-.595 6.892-.447 10.81-.238 7.002-1.54 18.322-2.09 20.697-.503 2.181-.406 4.56-.371 5.158-2.996 2.528-5.735 5.612-7.312 10.616-.35 1.11-.814 2.562-1.328 4.166l-2.157 7.028c-1.194 3.332-2.164 6.309-2.475 7.262h-10.685zm47.84-122.516c1.471 1 .798 10.078.508 13.992a192.69 192.69 0 0 0-.142 1.987c-.082 1.328-.02 2.856.046 4.474.184 4.521.393 9.645-2.423 12.682-2.533 2.733-5.145 9.477-5.478 14.152-.109 1.514-.74 5.526-2.001 8.412-1.108.718-2.05 1.227-2.581 1.227-1.12-.063-2.458-1.008-3.873-2.009-1.678-1.186-3.528-2.492-5.45-2.687 1.593-2.604 3.533-5.16 5.42-7.637 3.404-4.471 6.619-8.695 8.032-13.268.937-3.03 1.302-5.987 1.687-9.117.721-5.85 1.544-12.475 6.256-22.208zM235 91.347c3.872-2.757 9.1-6.476 12.126-5.02-4.39 4.638-9.88 15.731-14.32 24.7a580.66 580.66 0 0 1-2.64 5.291c-.486 1.235-1.69 3.613-3.416 5.587-1.963 2.247-6.66 6.028-8.464 7.453-.013-.985.03-2.623.375-4.117.531-2.302 1.76-12.864 2.005-19.952.053.04.11.071.16.115-.264-4.268.09-8.399.391-11.798.102-1.144.196-2.23.259-3.216 1.105.49 2.21 1.27 3.297 2.038 1.528 1.08 2.971 2.1 4.317 2.178 1.244.073 3.297-1.399 5.91-3.26zm10.285 10.265c-.302.808-.6 1.608-.885 2.391-.709.544-1.365 1.15-1.998 1.74-2.035 1.892-3.953 3.68-7.831 3.836 4.267-8.604 9.32-18.544 13.327-22.7 2.053 2.212-.419 8.847-2.613 14.733zm.878.328c2.527-6.774 5.138-13.78 1.994-16.088-3.472-2.55-9.144 1.487-13.701 4.73-.44.314-.884.63-1.319.933 1.046-2.982 1.49-6.332 1.567-7.417.316-4.422 2.858-11.022 5.231-13.581 3.081-3.323 2.864-8.654 2.672-13.358-.065-1.593-.126-3.098-.046-4.377.034-.553.084-1.224.14-1.976.545-7.336.87-14-1.104-14.954-.587-.283-1.265-.08-2.011.609-3.528 3.256-7.721 10.633-10.226 15.04-.424.747-.8 1.41-1.118 1.954-.636 1.09-1.495 2.3-2.405 3.58-2.205 3.103-4.704 6.62-5.16 10.04-.631 4.735-5.42 11.764-9.887 16.63l-.378.41c-2.358 2.553-6.747 7.308-7.557 12.746-.248 1.663-.48 4.113-.75 6.949-.594 6.246-1.407 14.8-2.782 17.026-.464.75-1.158 1.75-1.962 2.907-2.676 3.856-6.72 9.682-7.943 14.575-1.556 6.223-2.535 20.897-2.576 21.519h35.336c11.636-2.706 18.104-5.466 19.403-8.28 1.03-2.23.96-4.97.898-7.385-.052-2.057-.1-4 .567-5.07 1.393-2.228 5.441-9.694 5.769-14.601.182-2.74-1.634-5.13-3.236-7.24-1.266-1.667-2.461-3.24-2.461-4.674 0-2.478 1.48-6.446 3.045-10.647z" opacity=".1"/>
        <path fill="#EDCB26" d="M67.154 39.785l.075-.006a7.906 7.906 0 0 0 2.726-1.024c.083-.052.119-.106.109-.204-.033-.42-.047-.848-.097-1.264-.043-.346-.028-.643.314-.835.055-.03.1-.088.139-.137.051-.06.102-.082.164-.079l.067.01c.507.114 1.01.217 1.518.33l.07.01c.057.004.105-.014.152-.082a8.96 8.96 0 0 0 1.328-2.743c.025-.096.013-.161-.07-.23-.314-.263-.609-.556-.933-.804-.266-.199-.417-.416-.313-.777.019-.064-.002-.135.021-.2.024-.077.062-.173.119-.212.44-.313.887-.612 1.335-.91.093-.06.125-.13.107-.237a8.376 8.376 0 0 0-.844-2.784c-.048-.092-.093-.154-.18-.158l-.087.011c-.135.035-.276.038-.414.05l-1.22.14-.076-.055c-.137-.16-.27-.32-.402-.485-.024-.034-.027-.103-.019-.15.123-.542.242-1.084.373-1.622.037-.138.004-.209-.096-.283a7.361 7.361 0 0 0-2.5-1.252l-.081-.015c-.066-.004-.115.023-.172.096-.31.398-.637.782-.938 1.185-.106.137-.208.2-.351.194l-.079-.01a.844.844 0 0 0-.145-.018 2.528 2.528 0 0 0-.198 0l-.043.002c-.086-.004-.143-.047-.194-.134a63.175 63.175 0 0 0-.812-1.369.246.246 0 0 0-.164-.094l-.023.002a7.78 7.78 0 0 0-2.761 1.026c-.089.057-.106.107-.1.204.043.556.082 1.115.112 1.67a.297.297 0 0 1-.068.187c-.134.138-.277.27-.424.393a.277.277 0 0 1-.172.057h-.013a90.355 90.355 0 0 1-1.55-.337l-.056-.009c-.066-.003-.11.024-.161.091a8.87 8.87 0 0 0-1.324 2.738c-.03.096-.017.157.058.217.351.3.683.619 1.04.896.204.16.296.326.222.592a.817.817 0 0 0-.017.274c.007.125-.043.198-.145.262-.443.294-.882.594-1.322.897-.051.04-.108.139-.1.2a8.094 8.094 0 0 0 .87 2.864c.037.069.08.102.144.105l.05-.003c.473-.06.944-.102 1.418-.172a.81.81 0 0 1 .154-.01c.134.006.237.062.32.21.062.105.166.18.233.285.035.054.06.143.045.202-.12.552-.247 1.1-.379 1.646-.021.101-.003.153.071.212a7.435 7.435 0 0 0 2.541 1.282l.07.013c.074.004.128-.03.185-.103.27-.349.566-.683.82-1.043.152-.215.309-.348.535-.337a.612.612 0 0 1 .135.022l.05.008.073-.002h.051l.067.01c.07.022.159.06.198.121.278.45.55.91.813 1.37.042.073.088.101.15.105m-.593-11.56h.016c1.833.1 3.182 1.76 3.018 3.703-.165 1.892-1.79 3.385-3.59 3.296h-.016c-1.846-.1-3.2-1.751-3.036-3.686.162-1.915 1.782-3.403 3.608-3.313"/>
        <path fill="#32327B" d="M50.95 32v-1H43v1h7.95zM49 27v-1H39v1h10zM47 36v-1H35v1h12z" opacity=".2"/>
        <path fill="#32327B" d="M127.602 153.64c-1.923 2.074-4.213 3.483-6.654 4.352-.667-1.033-3.125-5.046-5.127-11.023-.86-2.567-1.356-6.74-1.704-11.265l.146.444c3.058-1.004 10.822-4.9 13.472-9.063.169 1.177-.187 2.229-.552 3.304-.412 1.22-.84 2.481-.52 3.935.367 1.665 1.81 2.743 3.34 3.885 1.688 1.261 3.435 2.566 3.631 4.722.235 2.574-1.738 6.076-6.032 10.709zm-21.678 3.87c-5.228-2.085-8.509-5.676-8.693-9.446 2.68 2.057 7.56 3.486 12.569 3.486 2.207 0 4.436-.28 6.513-.903 1.589 3.898 3.183 6.581 3.833 7.61-4.782 1.453-10.043.922-14.222-.746zm-5.043-16.874c1.55-2.022 2.889-3.768 2.596-5.083-.218-.982-1.01-2.075-1.93-3.341-1.37-1.89-2.9-4.008-2.843-6.196 2.81 1.94 5.074 2.793 7.587 2.793.692 0 1.402-.065 2.148-.189 2.144-.358 3.538-1.364 4.292-2.084l.065 1.16c.4 7.2.851 15.36 2.249 19.532.313.935.637 1.82.964 2.657-6.737 1.985-15.4.155-18.74-2.848.32-2.1 2.057-4.373 3.612-6.401zm.476-21.098c1.4-2.478 2.61-4.618 2.11-6.122-.25-.748-.718-1.834-1.261-3.091-1.259-2.92-2.983-6.917-3.36-9.925-.052-.428-.115-.877-.179-1.343-.557-4.033-1.242-9.006 2.126-10.192.092 3.637 1.123 6.902 3.402 10.802.36.615.75 1.264 1.157 1.942 2.31 3.841 5.183 8.622 6.33 13.664.477 2.105.742 5.9.985 10.124-.325.414-1.701 1.972-4.364 2.416-2.823.47-5.41.17-9.478-2.715.381-1.742 1.47-3.68 2.532-5.56zm.531-30.883c2.554 0 3.961 3.739 4.825 6.038.26.687.463 1.23.652 1.544.603 1.005 2.03.892 3.683.761 1.083-.086 2.312-.183 3.407.036 1.345.269 1.583 2.155 1.814 3.98.17 1.351.331 2.627.978 3.273.253.253.548.503.864.757 1.113 5.961-.986 8.926-5.294 12.03-.1-.756-.211-1.427-.338-1.983-1.175-5.17-4.086-10.012-6.426-13.904-.405-.675-.794-1.32-1.151-1.933-2.241-3.834-3.234-7.023-3.294-10.583.095-.01.188-.016.28-.016zm20.05 20.638c.252.882-.07 2.627-.382 4.314-.545 2.946-1.108 5.992.547 7.098 3.088 2.063 4.602 3.702 5.253 5.123-1.854 4.105-10.138 8.327-13.275 9.391-.186-2.5-.33-5.09-.468-7.568-.199-3.585-.39-7.03-.683-9.653 4.497-3.163 6.963-6.274 6.132-12.206 1.2.942 2.452 2.022 2.875 3.501zm12.511 33.564c-.23-2.52-2.21-4-3.957-5.304-1.403-1.048-2.728-2.038-3.03-3.405-.27-1.231.102-2.331.497-3.496.953-2.814 1.939-5.724-5.4-10.627-1.209-.806-.672-3.709-.199-6.27.345-1.861.67-3.62.364-4.687-.54-1.885-2.122-3.117-3.519-4.204-.519-.403-1.01-.786-1.38-1.156-.448-.448-.598-1.642-.744-2.796-.255-2.014-.543-4.297-2.466-4.68-1.206-.243-2.495-.14-3.632-.05-1.381.11-2.574.204-2.916-.366-.151-.25-.353-.79-.588-1.412-.956-2.544-2.74-7.28-6.373-6.48-4.662 1.027-3.846 6.933-3.25 11.245.064.462.126.908.179 1.333.39 3.123 2.14 7.182 3.42 10.147.535 1.24.997 2.31 1.235 3.025.386 1.16-.795 3.25-2.046 5.462-1.146 2.028-2.331 4.125-2.683 6.066-.501 2.767 1.398 5.386 2.925 7.49.828 1.143 1.612 2.222 1.793 3.038.209.943-1.081 2.626-2.447 4.408-1.785 2.328-3.807 4.966-3.837 7.501-.05 4.268 3.484 8.342 9.226 10.632a23.62 23.62 0 0 0 8.655 1.65c4.99 0 10.134-1.633 13.926-5.724 4.523-4.88 6.508-8.484 6.247-11.34z" opacity=".1"/>
        <path fill="#EDCB26" d="M47.864 92.539l-2.904 8.901s2.122 1.995 3.13 2.399c1.008.403 2.36.456 2.36.456l-1.788-11.4-.798-.356"/>
        <path fill="#F3FAFF" d="M192.547 159.548h-73.56c-4.834 0-8.508-4.348-7.701-9.115l23.913-141.3a8.059 8.059 0 0 1 7.717-6.711L213.685.407c4.975-.142 8.869 4.247 8.136 9.17l-21.312 143.106a8.051 8.051 0 0 1-7.962 6.865"/>
        <path fill="#E4F2F9" d="M213.685.407l-6.768.192c3.973.891 6.78 4.735 6.149 8.978l-21.312 143.106a8.05 8.05 0 0 1-7.963 6.865h8.756a8.05 8.05 0 0 0 7.962-6.865L221.821 9.577c.733-4.923-3.161-9.312-8.136-9.17"/>
        <path fill="#D8DDE9" d="M6 160v-1h242v1z"/>
        <path fill="#7461FF" d="M194.236 42.589l-48.498 1.334c-3.344.092-5.941-2.888-5.393-6.188l2.457-14.776a5.319 5.319 0 0 1 5.1-4.444L196.4 17.18c3.343-.092 5.941 2.889 5.392 6.188l-2.456 14.776a5.319 5.319 0 0 1-5.1 4.445"/>
        <path fill="#EDCB26" d="M181.605 113.206l-49.734.79c-3.36.053-5.927-2.985-5.313-6.29l2.14-11.513a5.319 5.319 0 0 1 5.083-4.345l49.39-1.344c3.306-.09 5.891 2.828 5.405 6.1l-1.796 12.067a5.318 5.318 0 0 1-5.175 4.535"/>
        <path fill="#43E892" d="M188.018 79.129l-49.17 1.49c-3.392.103-6.01-2.952-5.391-6.287l2.282-12.282a5.319 5.319 0 0 1 5.083-4.345l48.693-1.34c3.307-.091 5.894 2.827 5.407 6.1l-1.805 12.13a5.318 5.318 0 0 1-5.1 4.534"/>
        <path fill="#EDCB26" d="M175.203 149.311l-50.498.68c-3.314.045-5.861-2.92-5.318-6.19l2.461-14.804a5.318 5.318 0 0 1 5.175-4.445l50.017-.674a5.318 5.318 0 0 1 5.343 6.023l-1.98 14.797a5.318 5.318 0 0 1-5.2 4.613"/>
        <path fill="#FFFFFE" d="M143.337 73.377l-61.414 1.388c-3.334.076-5.914-2.9-5.367-6.189l2.459-14.786a5.317 5.317 0 0 1 5.125-4.444l61.415-1.39c3.333-.074 5.913 2.9 5.367 6.19l-2.459 14.786a5.318 5.318 0 0 1-5.126 4.445M173.815 37.372l-61.414 1.388c-3.334.076-5.914-2.9-5.367-6.189l2.458-14.785a5.319 5.319 0 0 1 5.126-4.445l61.415-1.389c3.333-.075 5.913 2.9 5.366 6.19l-2.458 14.785a5.32 5.32 0 0 1-5.126 4.445"/>
        <path fill="#D1E6E9" d="M123.11 30.234l-.023-.704-3.068.099-.088.002a2.6 2.6 0 0 1-1.857-.775 2.613 2.613 0 0 1-.726-2.276l.534-3.208a2.621 2.621 0 0 1 2.501-2.19l3.068-.099.087-.001a2.6 2.6 0 0 1 1.858.774 2.61 2.61 0 0 1 .725 2.277l-.533 3.208a2.621 2.621 0 0 1-2.501 2.19l.045 1.406a4.028 4.028 0 0 0 3.844-3.366l.533-3.207a4.02 4.02 0 0 0-1.114-3.497 4.01 4.01 0 0 0-2.99-1.19l-3.067.099a4.03 4.03 0 0 0-3.845 3.365l-.008.053-.525 3.155a4.018 4.018 0 0 0 1.114 3.497 4.007 4.007 0 0 0 2.99 1.19l3.068-.1-.023-.702M91.106 66.238l-.022-.703-3.068.1h-.087a2.6 2.6 0 0 1-1.858-.774 2.61 2.61 0 0 1-.725-2.276l.533-3.208a2.621 2.621 0 0 1 2.501-2.19l3.068-.099.088-.001c.734 0 1.382.297 1.857.775a2.61 2.61 0 0 1 .725 2.276l-.533 3.208a2.62 2.62 0 0 1-2.502 2.19l.023.702.023.704a4.029 4.029 0 0 0 3.844-3.366l.533-3.207a4.02 4.02 0 0 0-1.114-3.498 4.009 4.009 0 0 0-2.99-1.19l-3.067.1a4.029 4.029 0 0 0-3.844 3.365l-.533 3.208a4.018 4.018 0 0 0 1.114 3.498 4.01 4.01 0 0 0 2.99 1.189l3.067-.1-.023-.703"/>
        <path fill="#E4F2F9" d="M143.337 73.377l-.031-1.407-61.415 1.388-.092.001a3.875 3.875 0 0 1-2.773-1.156 3.895 3.895 0 0 1-1.082-3.396l2.458-14.786a3.91 3.91 0 0 1 3.77-3.269l61.415-1.388.092-.001c1.099 0 2.063.442 2.773 1.156a3.896 3.896 0 0 1 1.081 3.397L147.076 68.7a3.911 3.911 0 0 1-3.77 3.269l.063 2.813a6.725 6.725 0 0 0 6.482-5.62l2.459-14.786a6.713 6.713 0 0 0-1.858-5.838 6.697 6.697 0 0 0-4.929-1.989L84.11 47.94a6.725 6.725 0 0 0-6.483 5.62l-2.458 14.787a6.713 6.713 0 0 0 1.857 5.837 6.696 6.696 0 0 0 4.93 1.989l61.414-1.389-.032-1.406M173.815 37.372l-.032-1.407-61.414 1.389h-.092c-1.1 0-2.063-.442-2.773-1.156a3.897 3.897 0 0 1-1.082-3.395l2.458-14.787a3.911 3.911 0 0 1 3.77-3.269l61.415-1.388.092-.001a3.875 3.875 0 0 1 2.773 1.157 3.897 3.897 0 0 1 1.081 3.396l-.023.139-2.435 14.647a3.91 3.91 0 0 1-3.77 3.268l.064 2.814a6.726 6.726 0 0 0 6.482-5.62l2.459-14.787a6.713 6.713 0 0 0-1.858-5.837 6.696 6.696 0 0 0-4.93-1.99l-61.414 1.389a6.725 6.725 0 0 0-6.482 5.62l-2.458 14.787a6.711 6.711 0 0 0 1.858 5.838 6.695 6.695 0 0 0 4.928 1.988l61.415-1.388-.032-1.407"/>
        <path fill="#27204F" d="M77.966 119.604l-2.671-3.195a1.22 1.22 0 0 1 .153-1.72l7.33-6.129a1.22 1.22 0 0 1 1.72.153l2.67 3.196a1.221 1.221 0 0 1-.152 1.719l-7.33 6.129a1.221 1.221 0 0 1-1.72-.153"/>
        <path fill="#2A2A41" d="M48.918 168.953l-1.107 4.598a1.775 1.775 0 0 0 .44 1.64l10.236.318s0-1.528-1.153-1.668c-.53-.065-3.084-.717-4.672-1.084a1.386 1.386 0 0 1-1.064-1.182l-.262-2.113-2.418-.509"/>
        <path fill="#87764A" d="M47.623 87.45c-.339 1.443-3.734 11.521-3.903 12.635-.17 1.114.547 1.878.656 2.217.108.34 5.963 2.461 5.963 2.461l-2.716-17.312M58.75 63.228c1.382-.232 3.867-.656 4.673.96.213.427.056 1.606.388 2.1 1.225 1.817 1.767 4.545 1.676 4.828-.124.385-1.9 3.255-2.195 3.795-.295.54.329 4.774.329 4.774l-6.886-.23-.275-4.8-1.088-4.233 3.379-7.194"/>
        <path fill="#2A2A41" d="M52.037 66.955c-.426 2.058 1.76 3.942 1.917 4.542.157.6.526 2.875 1.65 3.126 1.122.253 3.919-.573 4.62-1.205.7-.63.619-3.398.49-4.261-.13-.864 1.22-1.216 1.482-.707.26.508.087 1.931.355 2.342.267.411.647.857.68 1.553.034.696-.15 3.245-.011 3.529.138.285 2.015.787 2.682.517.666-.27 1.081-1.628.632-2.857-.449-1.228-.977-2.885-1.225-2.852-.248.032-1.646.076-1.877-.44-.23-.516-.774-2.97-.929-3.315-.154-.344-.762-1.113-.872-1.503-.27-.95 1.255-1.825 1.098-2.425-.156-.6-1.216-2.903-3.245-2.822-2.03.081-2.514.753-2.81 1.019-.804.722-.388 1.822-1.073 2.514-.313.315-3.072.865-3.564 3.245"/>
        <path fill="#151717" d="M59.984 72.244c-.689-.086-1.014.582-1.766.206-.751-.377-1.124-.363-1.816.134-.69.496-1.588-.773-2.007-1.515-.28-.496-1.128-.984-1.812-1.617.594 1.178 1.303 1.782 1.371 2.045.157.6.526 2.875 1.65 3.126 1.122.253 3.919-.573 4.62-1.205.2-.181.336-.542.426-.98-.227-.1-.47-.168-.666-.194"/>
        <path fill="#EDCB26" d="M73.508 97.113S71.81 85.995 71.64 84.468c-.17-1.528-.848-2.886-1.867-3.395-.602-.301-1.74-.395-2.885-.527v-.001s-1.953-.202-2.503-.406c-.51-.188-.976-1.97-.976-1.97l-6.788.177c.04 1.435-.794 1.486-1.996 2.199-1.256.744-5.474 2.97-6.068 3.352-.594.382-1.527 2.333-1.867 3.437-.34 1.103 2.529 20.033 2.716 20.622.594 1.867 2.257 2.915 2.681 3.057.424.14 13.273.027 14.589-.651 1.086-.56 1.485-2.958 1.485-2.958l-1.02-7.768 6.367-2.523"/>
        <path fill="#87764A" d="M71.775 97.8s.035 4.98.544 5.489c.51.509 1.952 2.874 3.14 4.243 1.188 1.369 4.838 6.704 5.771 7.213.934.51 2.314-.678 3.162-.763.85-.085-.192 1.527-.192 1.527s.34 0 .68.51c.339.508-.34 2.206-.934 2.63-.594.425-2.63.627-2.97.525-.34-.1-2.201-1.883-2.67-2.392-.47-.509-5.477-4.643-6.666-5.716-1.188-1.073-3.582-4.443-3.717-5.477l-.782-5.953 4.634-1.837"/>
        <path fill="#2A2A41" d="M62.832 169.462a.177.177 0 0 0-.177.166l-.278 4.407a1.444 1.444 0 0 0 1.382 1.534l8.678.322c.12.005.215-.111.179-.225-.373-1.185-1.45-1.652-2.758-1.684l-2.42-.298a2.262 2.262 0 0 1-1.962-1.925l-.306-2.145a.176.176 0 0 0-.175-.152h-2.163"/>
        <path fill="#ACAEAF" d="M66.665 110.36699999999999h.001m.002-.001l.001-.001h-.001m.003 0l.001-.001h-.001m.002-.001l.003-.001c1.086-.56 1.485-2.958 1.485-2.958s-.4 2.397-1.485 2.958l-.003.001"/>
        <path fill="#EABF28" d="M61.452 110.909l.09-1.85-3.598-.654a4.028 4.028 0 0 0 .161-2.4c-.382-1.592-.498-2.865 1.247-3.692 1.745-.828 2.827-1.58 2.572-4.514-.254-2.933-.318-5.161.7-6.243 1-1.063 3.35-2.739 3.797-2.739l.022.002c.382.064.698 10.817.698 10.817l.003.02v.01l.001.004.001.004 1.015 7.73s-.4 2.397-1.485 2.958l-.003.001-.002.001h-.002l-.001.002h-.002a.087.087 0 0 1-.01.005c-.54.254-2.702.428-5.204.538"/>
        <path fill="#DB4D49" d="M51.296 110.542l-1.912 10.44a2.996 2.996 0 0 0 .136 1.577l.82 2.222s-.85 11.605-1.104 13.642c-.255 2.037.424 14.427 0 16.803-.113.63-.281 1.963-.47 3.583-.519 4.491-1.182 11.184-1.182 11.184s4.622 1.357 5.216.679c.286-.326 1.494-5.518 2.67-10.821a1293.488 1293.488 0 0 0 2.507-11.584l2.206-11.032 1.358-28.176-5.6-1.018-4.645 2.5"/>
        <path fill="#ACAEAF" d="M52.03 170.862c.372 0 .652-.055.77-.19.057-.066.151-.325.274-.74-.123.415-.217.674-.274.74-.118.136-.398.19-.77.19"/>
        <path fill="#292B39" d="M51.507 170.85"/>
        <path fill="#ACAEAF" d="M55.436 160.006l.034-.155a1293.488 1293.488 0 0 0 2.507-11.584l2.206-11.032.823-17.068-.822 17.068-2.207 11.032s-1.235 5.857-2.507 11.584c-.01.051-.023.103-.034.155"/>
        <path fill="#D42435" d="M52.03 170.862c-.16 0-.336-.01-.523-.028-.466-.044-1-.137-1.524-.244.474-2.476 1.335-10.102 1.566-11.78.255-1.85 3.225-11.985 3.65-14.362.424-2.376-.425-5.007-.636-7.129-.211-2.121 1.4-4.837 2.248-6.789.848-1.951 1.018-5.516 0-9.165l4.257-2.487-.885 18.357-2.206 11.032s-1.235 5.857-2.507 11.584c-.01.051-.023.103-.034.155-.93 4.19-1.875 8.282-2.362 9.926-.123.415-.217.674-.274.74-.118.135-.398.19-.77.19"/>
        <path fill="#DB4D49" d="M55.94 121.45c1.528 2.546 4.145 11.499 4.145 12.178 0 .68.65 11.584-.071 12.433-.382.45.07 7.378.581 13.798.453 5.702.952 11.003.952 11.003s4.238.699 4.747 0c.206-.283 1.021-4.976 1.92-10.882 1.325-8.701 2.83-20.034 2.832-23.764.006-9.992-3.905-26.247-3.905-26.247l-11.2-1.928v13.408"/>
        <path fill="#27204F" d="M51.162 110.943l-.342-.439a.457.457 0 0 1 .095-.65c1.52-1.116 2.96-1.688 6.144-1.863 4.54-.252 10.293 1.275 10.534 1.34l-.263.984c-.058-.015-5.833-1.547-10.216-1.307-3.195.175-4.418.739-5.952 1.935"/>
        <path fill="#F0D9B4" d="M40.927 85.539s1.36-.84 1.6-1.2c.239-.36 1.678-2.758 1.998-2.957.32-.2.24.8.24 1.039 0 .24 1.24-.28 1.56-.6.319-.32 1.478-1.479 1.918-1.399.44.08-.04 1.72-.32 1.999-.28.28-5.597 5.077-5.597 5.077l-1.399-1.96"/>
        <path fill="#DBC39E" d="M12.265 81.182s.76-1.92.92-2.639c.16-.72.88-4.637.88-4.637l4.476 2.809s-.84 1.788-.919 2.228c-.08.44-.24 4.318-.24 4.318l-5.117-2.08"/>
        <path fill="#F0D9B4" d="M15.823 73.546s.08 3.038.72 3.718c.639.68 3.717 1.919 4.277 1.759.56-.16 2.478-3.917 2.598-4.278.12-.359-.68-1.079-.72-1.678-.04-.6.27-1.528.08-2.599-.12-.68-1.479-2.278-2.078-2.278-.6 0-5.048 1.639-5.482 2.118-.435.48.605 3.238.605 3.238"/>
        <path fill="#DB4D49" d="M18.901 71.548c.52-.6 2.017-1.784 2.56-2.08.543-.294 2.277-.24 2.557-.879.28-.64.56-1.679 0-2.478-.56-.8-2.195-.88-2.397-1.28-.202-.399-1.84-1.838-3.08-1.558-1.239.28-2.929 2.279-3.323 2.358-.394.08-2.713 0-3.433.44-.72.44-1.124 3.158-.922 3.718.203.559-1.236 1.878-1.196 2.558.04.68 1.674 1.319 1.836 1.88.163.559.799 3.921 3.715 3.077 2.916-.845 2.604-3.024 2.364-3.69-.24-.667-.797-1.906-.579-2.226.219-.32 1.898.16 1.898.16"/>
        <path fill="#2A2A41" d="M1.751 166.289s-.56 2.878-.839 3.558a47.326 47.326 0 0 1-.835 1.806.774.774 0 0 0 .422 1.06c1.538.588 4.955 1.81 6.737 1.81h4.11c.84-.399-.113-1.46-.78-1.538-.436-.052-2.967-.681-3.637-.84-1.042-.246-2.659-1.898-2.659-2.298 0-.4.36-2.758.36-2.758l-2.879-.8M18.101 167.568s-.04 4.238 0 4.558c.04.32-.24 2.038-.24 2.158 0 .12-.032.4.245.4.275 0 5.233.48 6.432.48.96-.001 5.556-1 5.636-1.16.08-.16-.4-.92-.68-.88-.23.034-4.663-.572-6.208-.785a.928.928 0 0 1-.733-.57c-.26-.633-.68-1.687-.734-2.042-.08-.52-.358-2.878-.358-2.878l-3.36.72"/>
        <path fill="#3688B6" d="M8.788 88.538S5.549 95.212 4.23 97.45c-1.32 2.24-1.919 4.158-1.679 4.638.24.48 5.397 4.797 6.237 5.156.839.36 3.477-5.756 3.477-5.756L8.788 88.538"/>
        <path fill="#32327B" d="M13.704 112.163l8.515-2.519s.6 6.836.84 8.874c.24 2.04.12 17.03 0 19.069-.12 2.039-.72 3.478-.84 4.077-.12.6.978 25.425.978 25.425s-3.496 1.807-3.976 1.803c-.48-.005-2.399-.604-2.399-.604s-.6-5.876-.84-7.436c-.239-1.558-2.158-15.11-2.278-17.749-.12-2.638 0-30.94 0-30.94"/>
        <path fill="#28296E" d="M19.222 168.892h-.001c-.48-.005-2.399-.604-2.399-.604s-.6-5.876-.84-7.436c-.169-1.1-1.176-8.184-1.795-13.18 1.966-4.297 3.98-8.683 4.314-9.486.6-1.438-.48-14.39 0-15.47l.003-.007c.232.589.401 1.051.458 1.366.36 2.006 1.098 9.114 1.458 11.033.36 1.92-.84 9.794-1.079 10.754-.24.959-.275.72-.917.959-.643.24-.318 1.08 0 1.679.317.6-.935 4.078-.789 6.356.146 2.28 1.225 8.47 2.305 10.89.375.84.67 1.716.9 2.507-.74.346-1.417.636-1.615.639h-.003"/>
        <path fill="#32327B" d="M9.507 109.644c-1.2 2.758-2.878 6.716-2.878 6.716s.48 4.797.719 7.076c.24 2.278 2.399 9.594 2.159 10.193-.24.6 0 1.32-.72 1.919-.72.6-1.319 1.08-1.2 1.439.12.36.14 1.2.49 1.919.35.72-2.528 5.996-3.367 8.275C3.87 149.46-.087 165.17.033 166.37c.12 1.2 5.636 2.278 5.876 2.518.24.24 3.118-9.667 4.557-12.988 1.44-3.321 7.436-16.273 8.035-17.713.6-1.438-.48-14.39 0-15.47s1.919-10.434 1.919-10.434l-10.913-2.638"/>
        <path fill="#28296E" d="M3.083 168.037c-1.222-.378-2.47-.848-2.897-1.35l-.003-.004-.003-.003-.002-.003-.002-.002a.583.583 0 0 1-.143-.303v-.003a.641.641 0 0 1-.003-.064c.002-1.608 3.853-16.88 4.68-19.124.791-2.15 3.398-6.968 3.396-8.11a.385.385 0 0 0-.03-.165c-.35-.72-.368-1.559-.488-1.92a.295.295 0 0 1-.015-.094c0-.348.556-.796 1.215-1.344.719-.6.479-1.32.719-1.919a.432.432 0 0 0 .018-.15c0-1.207-1.95-7.885-2.177-10.043-.24-2.28-.72-7.076-.72-7.076s.898-2.116 1.849-4.33h5.928c-.243 3.602-1.874 8.129-2.26 9.163-.48 1.283 2.426 11.357 2.293 12.556-.134 1.2-3.252 2.039-3.012 3.118.24 1.08 1.319 1.932.839 3.245-.48 1.312-3.957 4.31-4.797 6.709-.673 1.923-3.35 15.79-4.385 21.216"/>
        <path fill="#3CA4D0" d="M6.508 110.504s2.28-6.496 2.28-7.456-1.544-15.11-1.552-15.71c-.008-.6 2.508-4.97 2.989-5.064.348-.067.759-1.656.958-2.53a.439.439 0 0 1 .634-.29c.882.464 2.681 1.382 3.566 1.648 1.2.36 3.04 1.172 3.04 1.172s3.796 10.72 3.676 12.57c-.12 1.848-.474 4.606.003 7.485.477 2.878 1.095 7.315 1.095 7.315l-3.824 2.386H8.477l-1.969-1.526"/>
        <path fill="#3B93C4" d="M12.492 112.03H8.477l-1.969-1.526s2.28-6.496 2.28-7.456-1.544-15.11-1.552-15.71v-.004c.002-.613 2.509-4.966 2.989-5.06.085-.016.173-.122.261-.287l.003-.005.004-.007v-.003c.264-.5.524-1.508.676-2.165a.488.488 0 0 1 .704-.323l.012.006c.237.124.532.277.854.44.528.266 1.129.557 1.663.792-1.191 2.46-2.128 4.983-2.377 5.896-.072.266-.055.652.025 1.115-.541 1.025-.611 2.085-.507 2.71l.002.006v.007c.13.747.757 2.998 2.897 3.477.941 1.68.96 3.478.41 4.438-.548.96-1.434 1.44-.811 2.399.623.959.881 2.058.812 2.828-.07.77-3.476 3.048-3.667 4.727-.102.892.613 2.443 1.306 3.705"/>
        <path fill="#3CA4D0" d="M14.697 85.453c-2.947 1.153-3.351 3.844-3.152 5.003.13.747.757 2.998 2.897 3.477 2.14.48 13.174 2.266 15.692 1.673 2.518-.593 13.192-8.148 13.192-8.148l-2.039-3.118s-3.118 1.798-5.037 2.518c-1.918.72-4.317 1.56-4.317 1.68 0 .119-.12.839-.12.839l-.96-.84h-1.199s-12.112-4.197-14.957-3.084"/>
        <path fill="#26273B" d="M14.442 93.933c-2.14-.479-2.768-2.73-2.897-3.477.13.747.757 2.998 2.897 3.477"/>
        <path fill="#3B93C4" d="M28.626 95.725c-3.922 0-12.343-1.378-14.184-1.792-2.14-.479-2.768-2.73-2.897-3.477v-.007l-.002-.006c-.092-.555-.043-1.451.345-2.363.98 1.829 3.648 4.61 6.373 4.775.196.011.39.016.582.016 1.477 0 2.855-.325 3.997-.651 1.14-.326 2.046-.652 2.577-.652.042 0 .082.003.12.007.958.11 3.954 1.716 5.513 1.716.132 0 .254-.012.363-.037 1.4-.32 7.276-3.398 8.035-4.237.504-.557 2.146-1.813 3.198-2.6l.68 1.04s-10.674 7.556-13.192 8.149c-.352.083-.87.12-1.508.12"/>
        <path fill="#D42435" d="M14.332 77.44c-.336 0-.633-.066-.894-.179-1.423-.611-1.813-2.615-1.935-3.035-.162-.56-1.796-1.2-1.836-1.879-.022-.364.38-.911.728-1.427.427 1.018 1.203 1.947 1.83 1.947.077 0 .15-.014.22-.043a.952.952 0 0 1 .36-.071c.72 0 1.324.815 1.84.86.02.002.039.003.059.003.581 0 1.175-.755 1.02-2.108-.153-1.335.422-2.487 1.377-2.487.046 0 .094.002.141.008.126.015.244.021.356.021.814 0 1.31-.368 2.084-.86.67-.427 1.177-.737 1.91-.737.23 0 .482.03.768.097a.78.78 0 0 0 .18.022c.74 0 .953-1.181 1.16-1.775a1.448 1.448 0 0 1 .318.314c.56.8.28 1.839 0 2.478-.205.47-1.192.565-1.918.699-.265.048-.494.102-.639.18a.334.334 0 0 0-.013.008c-.553.306-2.031 1.476-2.547 2.072 0 0-.944-.27-1.509-.27-.188 0-.334.03-.389.11a.246.246 0 0 0-.019.035.449.449 0 0 0-.03.18c0 .482.426 1.45.628 2.01.07.196.146.52.146.904 0 .851-.379 1.99-2.045 2.631-.145.056-.3.108-.465.156a3.182 3.182 0 0 1-.886.135"/>
        <path fill="#7461FF" d="M90.584 64.385l-1.902.062a2.062 2.062 0 0 1-2.1-2.399l.33-1.988c.162-.97.986-1.691 1.968-1.723l1.902-.061a2.061 2.061 0 0 1 2.1 2.398l-.33 1.989a2.06 2.06 0 0 1-1.968 1.722M122.63 28.11l-1.902.062a2.062 2.062 0 0 1-2.1-2.398l.331-1.99c.161-.97.985-1.69 1.967-1.721l1.902-.062a2.061 2.061 0 0 1 2.1 2.398l-.33 1.99a2.06 2.06 0 0 1-1.967 1.721"/>
    </g>
</svg>
