<svg xmlns="http://www.w3.org/2000/svg" width="737" height="509" viewBox="0 0 737 509">
    <g fill="none" fill-rule="evenodd">
        <path fill="#32327B" d="M652.022 386.444l-2-.032c.038-2.49 1.174-61.286 18.304-87.798 9.532-14.754 8.104-42.3 7.046-53.458-1.686-17.808 16.284-41.448 29.948-57.684l1.532 1.29c-13.434 15.956-31.104 39.146-29.488 56.206 1.338 14.118 2.16 39.998-7.358 54.732-16.818 26.03-17.974 86.14-17.984 86.744" opacity=".07"/>
        <path fill="#32327B" d="M687.696 386.284c2.26-3.41 16.83-25.766 19.41-38.888 1.592-8.102-1.358-20.604-3.726-30.652-1.926-8.172-3.448-14.626-2.588-17.846.77-2.872 3.026-6.136 5.64-9.912 3.96-5.728 8.89-12.86 10.482-21.448 2.486-13.424-7.122-33.064-13.192-42.55-3.008-4.698-.542-12.946 1.84-20.922 1.93-6.458 3.926-13.136 1.816-15.24-1.196-1.196-2.348-1.802-3.632-1.72-3.112.098-6.514 3.952-9.802 7.682-2.192 2.482-4.458 5.05-6.798 6.724-2.852 2.04-6.702 3.738-10.428 5.378-6.024 2.654-12.256 5.4-14.538 9.602-1.368 2.516-2.558 8.614-3.932 15.674-2.434 12.49-5.464 28.036-11.526 33.592-2.608 2.394-8.448 2.846-15.21 3.37-9.096.706-19.404 1.504-21.96 7.346-16.41 37.532 13.924 103.074 17.138 109.81h61.006zM625.5 388l-.336-.274c-1.44-2.914-35.038-71.81-17.444-112.052 3.036-6.942 13.982-7.792 23.638-8.54 6.126-.474 11.912-.924 14.012-2.848 5.578-5.114 8.536-20.3 10.916-32.502 1.408-7.224 2.622-13.462 4.136-16.246 2.612-4.804 9.158-7.688 15.49-10.478 3.798-1.674 7.386-3.254 10.07-5.174 2.154-1.542 4.344-4.022 6.462-6.424 3.736-4.232 7.264-8.23 11.238-8.356 1.848-.068 3.522.718 5.11 2.302 2.956 2.95.978 9.568-1.314 17.232-2.148 7.192-4.584 15.346-2.072 19.27 6.228 9.734 16.074 29.956 13.472 43.992-1.668 9.01-6.732 16.336-10.802 22.22-2.506 3.626-4.672 6.754-5.35 9.292-.732 2.734.888 9.602 2.6 16.874 2.54 10.764 5.416 22.968 3.74 31.496-2.86 14.558-19.308 39.024-20.008 40.06l-.296.44L625.5 388z" opacity=".07"/>
        <path fill="#DAEDF7" d="M628.079 66.55l-3.124 321.284L406 388l-1.704-311.518z"/>
        <path fill="#32327B" d="M134.274 128.572c-1.818 5.194-6.56 21.868-7.228 38.484-.63 15.656 2.31 37.706 7.168 53.936 16.202-.484 34.15-2.18 35.418-4.136.71-3.268-4.164-35.13-9.296-45.394-5.994-11.99-22.076-40.284-26.062-42.89zm-1.528 94.464l-.224-.73c-5.048-16.486-8.122-39.238-7.476-55.332.698-17.336 5.77-34.756 7.494-39.49.234-.646.728-1.038 1.354-1.074l.052-.002c5.258 0 27.956 43.716 28.18 44.158 5.132 10.264 10.342 42.66 9.434 46.788-.888 4.034-24.224 5.276-38.054 5.66l-.76.022z" opacity=".07"/>
        <path fill="#32327B" d="M152.744 222.18c-.05-.304-5.192-30.482-12.534-41.77-2.524-3.878-2.936-13.06-3.416-23.692-.482-10.738-1.028-22.912-4.182-28.394l1.734-.996c3.394 5.904 3.93 17.8 4.446 29.3.446 9.908.868 19.268 3.094 22.692 7.572 11.636 12.62 41.272 12.83 42.528l-1.972.332M103.276 163.14c-2.774 3.87-7.534 36.068-8.786 49.41-1.072 11.426 5.908 42.896 7.8 45.742 1.848 1.296 19.184-3.6 34.468-9.01-1.342-16.892-6.576-38.51-12.826-52.878-6.638-15.262-17.09-29.092-20.656-33.264zm.37 97.152c-1.544 0-2.606-.272-3.02-.894-2.34-3.52-9.2-35.608-8.128-47.034.046-.494 5.436-49.79 10.35-51.378.59-.198 1.198-.008 1.65.512 3.318 3.79 14.346 18.19 21.27 34.11 6.422 14.766 11.784 37.09 13.042 54.286l.056.758-.718.256c-10.676 3.806-27.508 9.384-34.502 9.384z" opacity=".07"/>
        <path fill="#32327B" d="M117.956 257.494c-.258-1.246-6.272-30.704-3.422-44.288.838-3.998-2.156-12.876-5.326-22.276-3.676-10.91-7.48-22.192-6.45-28.924l1.976.3c-.956 6.252 2.936 17.8 6.372 27.986 3.398 10.084 6.336 18.792 5.384 23.324-2.764 13.178 3.362 43.174 3.422 43.476l-1.956.402M28.742 266.886c-.734 0-1.246.082-1.5.256-2.826 2.07-7.134 21.576-6.098 30.514.578 4.976 3.27 11.276 5.644 16.832 1.65 3.864 3.208 7.51 3.836 10.222.732 3.144.258 9.26-.29 16.342-.584 7.576-1.246 16.164-.206 20.77 1.92 8.51 29.168 23.914 39.282 23.914l.302-.006c9.152-.29 21.39-.712 24.208-.81l17.664-35.542c-6.358-22.58-25.112-63.746-34.812-68.694-10.476-5.344-40.58-13.798-48.03-13.798m40.7 120.848c-10.892 0-39.158-16.142-41.266-25.47-1.106-4.9-.46-13.27.166-21.366.512-6.628.994-12.892.336-15.734-.592-2.542-2.116-6.112-3.73-9.888-2.428-5.684-5.18-12.126-5.79-17.39-1.004-8.666 2.952-29.464 6.902-32.356 4.224-3.106 41.768 8.346 51.622 13.372 11.218 5.726 30.018 49.036 35.932 70.31l.102.37-18.534 37.294-.596.022s-14.402.5-24.81.832l-.334.004" opacity=".07"/>
        <path fill="#32327B" d="M94.87 387.628c-.058-.052-5.766-5.34-11.022-7.124-6.402-2.176-18.384-34.118-19.682-41.772-1.452-8.55-11.332-40.758-15.846-47.496l-.85-1.276c-4.43-6.652-11.124-16.706-20.3-21.748l.962-1.752c9.608 5.278 16.464 15.578 21.002 22.392l.848 1.27c4.618 6.896 14.684 39.612 16.156 48.274 1.65 9.718 13.704 38.636 18.354 40.214 5.666 1.926 11.496 7.328 11.74 7.558l-1.362 1.46" opacity=".07"/>
        <path fill="#A2C4DD" d="M526.71 386.56V194.114l48.104 192.303-48.103.145" opacity=".2"/>
        <path fill="#DAEDF7" d="M628.079 66.55l7.301 5.87 5.614-5.1L659.255 387.1l-34.3.735 3.124-321.285"/>
        <path fill="#494844" d="M631.018 387.834l-.001-.13 4.319-.093.065.132-4.383.09"/>
        <path fill="#28296D" d="M635.401 387.743l-.065-.132 7.168-.153.003.137-7.106.148"/>
        <path fill="#AACAE0" d="M631.017 387.703L628.079 66.55l7.301 5.871 7.124 315.038-7.168.153-4.32.092"/>
        <path fill="#FFF" d="M567.888 91.125a5.012 5.012 0 1 1-10.023 0 5.012 5.012 0 0 1 10.023 0"/>
        <path fill="#DAEDF7" d="M82.484 205.492l-6.527 182.105h133.907l-5.41-191.85-114.975 2.828a7.175 7.175 0 0 0-6.995 6.917"/>
        <path fill="#FFFFFE" d="M526.71 388H180.944V166.763c0-5.553 4.459-10.08 10.012-10.163l325.442-4.85c5.671-.086 10.314 4.49 10.314 10.163V388z"/>
        <path fill="#04A3F3" d="M516.397 151.75l-325.442 4.85c-5.553.083-10.012 4.61-10.012 10.163v5.333l.028.025 37.923-.67a3.477 3.477 0 0 0 2.767-1.451l3.702-5.168a3.475 3.475 0 0 1 2.773-1.452l28.177-.445a3.483 3.483 0 0 1 2.93 1.519l3.17 4.656a3.475 3.475 0 0 0 2.935 1.52l261.363-4.622v-4.097c0-5.672-4.643-10.247-10.314-10.161"/>
        <path fill="#DAEDF7" d="M397.852 358.28l-46.707.295c-2.678 0-4.869-2.193-4.869-4.871V307.09c0-2.678 2.19-4.87 4.87-4.87l46.706-.294c2.678 0 4.869 2.19 4.869 4.87v46.614c0 2.677-2.19 4.87-4.87 4.87"/>
        <path fill="#FFFFFE" d="M357.804 358.575h-6.659l6.051-.04c.2.026.402.04.608.04"/>
        <path fill="#A2C4DD" d="M351.145 358.575c-2.48-.002-4.54-1.88-4.835-4.284a5.137 5.137 0 0 1-.034-.587V307.09c0-2.678 2.19-4.87 4.87-4.87h6.658a4.885 4.885 0 0 0-4.87 4.87v46.614c0 2.472 1.867 4.53 4.262 4.831l-6.05.04" opacity=".2"/>
        <path fill="#DAEDF7" d="M470.053 286.688l-46.614 1.194c-2.68 0-4.87-2.19-4.87-4.871v-46.614c0-2.677 2.19-4.869 4.87-4.869l46.614-1.196c2.677 0 4.87 2.19 4.87 4.871v46.614c0 2.677-2.193 4.87-4.87 4.87"/>
        <path fill="#A2C4DD" d="M423.44 287.882c-2.681 0-4.872-2.19-4.872-4.871v-46.614c0-.036 0-.072.002-.11a4.884 4.884 0 0 1 4.87-4.759l.061-.002h6.596c-2.68 0-4.87 2.194-4.87 4.871v46.614c0 2.28 1.585 4.206 3.708 4.73l-5.496.14" opacity=".2"/>
        <path fill="#DAEDF7" d="M470.053 358.427l-46.614.66c-2.68 0-4.87-2.19-4.87-4.871v-46.612c0-2.679 2.19-4.87 4.87-4.87l46.614-.66c2.677 0 4.87 2.19 4.87 4.868v46.614c0 2.679-2.193 4.87-4.87 4.87"/>
        <path fill="#FFFFFE" d="M430.097 359.087h-6.658l5.768-.081a4.9 4.9 0 0 0 .89.08"/>
        <path fill="#A2C4DD" d="M423.44 359.087c-2.681 0-4.872-2.19-4.872-4.871v-46.612c0-2.679 2.191-4.87 4.871-4.87h6.658c-2.68 0-4.87 2.191-4.87 4.87v46.612c0 2.376 1.722 4.369 3.98 4.79l-5.768.08" opacity=".2"/>
        <path fill="#43E892" d="M304.135 358.547l-67.841.675a4.884 4.884 0 0 1-4.883-4.857l-.32-117.9a4.882 4.882 0 0 1 4.856-4.884l67.84-.677c2.679-.006 4.876 2.18 4.885 4.858l.321 117.9a4.888 4.888 0 0 1-4.858 4.885"/>
        <path fill="#33CE7E" d="M236.282 359.222h-.009c-2.668-.003-4.855-2.185-4.862-4.857l-.096-35.288 7.776-.824.1 36.092c.006 2.441 1.83 4.472 4.183 4.807l-7.08.07h-.012m2.642-87.013c-2.218-.172-3.924-1.342-5.065-2.451a28.753 28.753 0 0 1 5.1-.562l.008 3.01c-.014.002-.03.002-.043.003m-6.343-3.93c-.27-.375-.407-.618-.407-.618l-.997.342-.086-31.539v-.015c0-2.67 2.182-4.86 4.856-4.868l7.78-.02c-2.678.007-4.865 2.204-4.858 4.883l.055 20.321c-.727.622-1.234 1.627-1.234 2.98l-.006 5.09a2.987 2.987 0 0 1-2.548 2.96c-.85.124-1.703.286-2.555.483"/>
        <path fill="#DAEDF7" d="M304.68 211.509l-68.783 1.173a4.886 4.886 0 0 1-4.885-4.857l-.027-9.762c-.007-2.678 2.18-4.876 4.857-4.883l68.784-1.175c2.678-.007 4.876 2.18 4.883 4.857l.027 9.762a4.886 4.886 0 0 1-4.857 4.885M470.053 210.244l-118.908 2.344c-2.678 0-4.869-2.192-4.869-4.871v-9.762c0-2.677 2.19-4.871 4.87-4.871l118.907-2.342c2.677 0 4.87 2.19 4.87 4.871v9.762a4.884 4.884 0 0 1-4.87 4.87M397.76 286.688l-46.615.68c-2.678 0-4.869-2.192-4.869-4.87v-46.614c0-2.677 2.19-4.871 4.87-4.871l46.615-.68c2.676 0 4.869 2.19 4.869 4.87v46.614c0 2.677-2.193 4.87-4.87 4.87"/>
        <path fill="#A2C4DD" d="M351.145 212.588c-2.48-.002-4.54-1.88-4.835-4.283a5.092 5.092 0 0 1-.034-.588v-9.762a4.886 4.886 0 0 1 2.577-4.294h.002l.002-.001a4.842 4.842 0 0 1 2.29-.576h6.657a4.885 4.885 0 0 0-4.87 4.87v9.763c0 2.325 1.649 4.283 3.838 4.76l-5.627.11" opacity=".2"/>
        <path fill="#FFFFFE" d="M357.804 287.368h-6.659l5.757-.084c.293.055.595.084.902.084m-8.946-.574l-.003-.001.003.001M346.276 235.883"/>
        <path fill="#A2C4DD" d="M351.145 287.368a4.827 4.827 0 0 1-2.287-.574l-.003-.001h-.002a4.887 4.887 0 0 1-2.577-4.296v-46.613a4.89 4.89 0 0 1 2.703-4.36 4.844 4.844 0 0 1 2.168-.511h6.657a4.885 4.885 0 0 0-4.87 4.87v46.614c0 2.373 1.716 4.36 3.968 4.787l-5.757.084" opacity=".2"/>
        <path fill="#32327B" d="M216.05 165.234c.03 1.852-1.312 3.38-3 3.41-1.69.03-3.084-1.448-3.119-3.3-.03-1.853 1.311-3.378 3-3.41 1.689-.028 3.084 1.447 3.118 3.3"/>
        <path fill="#F1CE2B" d="M206.014 165.412c.033 1.852-1.311 3.38-3 3.409-1.687.03-3.084-1.448-3.118-3.3-.031-1.853 1.31-3.377 3.001-3.407 1.687-.031 3.084 1.446 3.117 3.298"/>
        <path fill="#BF252B" d="M195.979 165.591c.032 1.852-1.31 3.378-3 3.409-1.687.029-3.084-1.449-3.117-3.3-.034-1.853 1.31-3.379 2.998-3.41 1.689-.029 3.086 1.449 3.119 3.301"/>
        <path fill="#FFF" d="M474.88 94.884a5.011 5.011 0 1 1-10.02-.003 5.011 5.011 0 0 1 10.02.003"/>
        <path fill="#5A78C0" d="M513.296 142.757c-12.303 0-23.59-4.152-31.776-11.691-9.306-8.574-14.226-21.085-14.226-36.182a2.578 2.578 0 0 1 5.154 0c0 13.62 4.345 24.818 12.564 32.39 7.232 6.661 17.276 10.33 28.284 10.33 22.785 0 47.004-15.857 47.004-45.245a2.578 2.578 0 0 1 5.154 0c0 32.735-26.875 50.398-52.158 50.398"/>
        <path fill="#91B6D0" d="M640.994 67.32l-12.915-.77 7.301 5.87 5.614-5.1"/>
        <path fill="#D8DDE9" d="M7 388h711v-2H7z"/>
        <path fill="#0C0E0F" d="M138.347 267.579a3.001 3.001 0 0 1-2.737-2.991l.005-4.844c0-2.57 2.859-2.86 2.859.244a.858.858 0 1 0 1.718 0c0-5.461-6.295-5.004-6.295-.244l-.005 5.091a2.986 2.986 0 0 1-2.548 2.96c-4.857.714-9.76 2.607-14.511 5.71l.94 1.44c11.61-7.579 24.158-7.675 34.415-.263l1.006-1.392c-4.606-3.331-9.642-5.232-14.847-5.711"/>
        <path fill="#27283B" d="M152.995 287.992l7.307-8.285-8.72-7.774a6.798 6.798 0 0 0-2.793-1.827l-7.104-2.445s-2.381 4.21-6.75 4.548c-4.371-.338-6.753-4.548-6.753-4.548l-7.104 2.445a6.787 6.787 0 0 0-2.794 1.827l-8.956 8.614 7.544 7.445 3.436-2.58s.2 11.991-.144 16.18c-.335 4.115-2.577 17.039-2.577 17.039l7.204.714 18.899-2.003 8.59 1.289s-2.24-12.924-2.577-17.039c-.343-4.189-.144-16.18-.144-16.18l3.436 2.58"/>
        <path fill="#17191A" d="M133.266 309.946c.572-3.292 4.725-5.01 6.873-6.586 2.147-1.575.572-8.877-.69-12.027-1.26-3.149-.742-7.588.977-9.736 1.376-1.72 3.577-7.58 3.955-13.008l4.408 1.517a6.798 6.798 0 0 1 2.794 1.827l1.682 1.5a.735.735 0 0 1-.09.072l-7.307 7.042 7.321 7.223-.194.222-3.436-2.58s-.058 3.473-.058 7.334c0 3.312.042 6.912.202 8.846.337 4.115 2.577 17.039 2.577 17.039l-8.59-1.289-12.568 1.332c.723-2.64 1.78-6.636 2.144-8.728z"/>
        <path fill="#0C0E0F" d="M174.691 267.579a3.001 3.001 0 0 1-2.738-2.991l.006-4.844c0-2.57 2.858-2.86 2.858.244a.858.858 0 1 0 1.718 0c0-5.461-6.294-5.004-6.294-.244l-.006 5.091a2.986 2.986 0 0 1-2.548 2.96c-4.857.714-9.76 2.607-14.511 5.71l.94 1.44c11.612-7.579 24.16-7.675 34.415-.263l1.006-1.392c-4.606-3.331-9.642-5.232-14.846-5.711"/>
        <path fill="#0C0E0F" d="M207.787 267.579a3.001 3.001 0 0 1-2.737-2.991l.005-4.844c0-2.57 2.86-2.86 2.86.244a.858.858 0 1 0 1.717 0c0-5.461-6.295-5.004-6.295-.244l-.005 5.091a2.986 2.986 0 0 1-2.548 2.96c-4.857.714-9.76 2.607-14.511 5.71l.94 1.44c11.61-7.579 24.158-7.675 34.415-.263l1.007-1.392c-4.606-3.331-9.64-5.232-14.848-5.711"/>
        <path fill="#0C0E0F" d="M242.139 267.579a3.001 3.001 0 0 1-2.737-2.991l.007-4.844c0-2.57 2.857-2.86 2.857.244a.858.858 0 1 0 1.718 0c0-5.461-6.294-5.004-6.294-.244l-.006 5.091a2.987 2.987 0 0 1-2.548 2.96c-4.857.714-9.76 2.607-14.511 5.71l.94 1.44c11.612-7.579 24.158-7.675 34.415-.263l1.006-1.392c-4.607-3.331-9.642-5.232-14.847-5.711"/>
        <path fill="#0C0E0F" d="M271.21 267.579a3.001 3.001 0 0 1-2.735-2.991l.004-4.844c0-2.57 2.859-2.86 2.859.244a.858.858 0 1 0 1.718 0c0-5.461-6.294-5.004-6.294-.244l-.005 5.091a2.987 2.987 0 0 1-2.55 2.96c-4.855.714-9.758 2.607-14.51 5.71l.94 1.44c11.61-7.579 24.158-7.675 34.415-.263l1.006-1.392c-4.606-3.331-9.64-5.232-14.847-5.711"/>
        <path fill="#0C0E0F" d="M119.092 260.05H283.6v-1.718H119.092z"/>
        <path fill="#F1CE2B" d="M189.537 287.992l7.307-8.285-8.719-7.774a6.804 6.804 0 0 0-2.792-1.827l-7.108-2.445s-2.38 4.21-6.75 4.548c-4.37-.338-6.75-4.548-6.75-4.548l-7.106 2.445a6.798 6.798 0 0 0-2.794 1.827l-8.957 8.614 7.546 7.445 3.437-2.58s.199 11.991-.143 16.18c-.337 4.115-2.577 17.039-2.577 17.039l7.2.714 18.9-2.003 8.59 1.289s-2.24-12.924-2.577-17.039c-.344-4.189-.143-16.18-.143-16.18l3.436 2.58"/>
        <path fill="#AACAE0" d="M180.943 268.596l-1-.343.03-.109.97.334v.118"/>
        <path fill="#FFFFFE" d="M188.024 313.897c-.679-4.123-1.576-9.82-1.78-12.305-.253-3.082-.212-10.387-.17-14.033l.048.048c-.04 3.692-.078 10.845.172 13.886.202 2.463 1.087 8.087 1.764 12.201l-.034.203m0-42.07a6.81 6.81 0 0 0-2.69-1.72l-4.39-1.51v-.12l4.437 1.53a6.795 6.795 0 0 1 2.717 1.744l-.074.075"/>
        <path fill="#EBB32A" d="M165.001 318.863c-.019-1.485-.01-3.093.088-4.005.215-2.005 3.589-5.058 8.767-8.419 5.18-3.359 1.756-10.625-.391-15.35-2.148-4.724-4.978-10.207-1.112-13.425 4.17-3.469 5.781-2.728 7.59-9.411l1 .343 4.39 1.51a6.81 6.81 0 0 1 2.69 1.72l-.099.107-8.958 8.614 7.108 7.012c-.042 3.646-.083 10.95.17 14.033.204 2.485 1.101 8.182 1.78 12.305-.337 2.05-.62 3.711-.74 4.395l-7.002-1.05-15.28 1.62m24.587-30.972l-1.473-1.103 1.83-1.374s.014.792.028 2.04l-.385.437"/>
        <path fill="#F1CE2B" d="M222.635 287.992l7.307-8.285-8.718-7.774a6.81 6.81 0 0 0-2.793-1.827l-7.106-2.445s-2.382 4.21-6.753 4.548c-4.369-.338-6.75-4.548-6.75-4.548l-7.106 2.445a6.804 6.804 0 0 0-2.792 1.827l-8.958 8.614 7.544 7.445 3.436-2.58s.203 11.991-.14 16.18c-.34 4.115-2.58 17.039-2.58 17.039l7.203.714 18.899-2.003 8.59 1.289s-2.24-12.924-2.577-17.039c-.342-4.189-.142-16.18-.142-16.18l3.436 2.58"/>
        <path fill="#FFFFFE" d="M221.748 317.643c-.527-3.1-2.127-12.627-2.407-16.05-.285-3.485-.194-12.37-.156-15.258l.03.028c-.04 3.015-.125 11.695.155 15.13.28 3.41 1.868 12.872 2.402 16.01-.008.049-.015.095-.024.14m.02-45.224l-.544-.486a6.81 6.81 0 0 0-2.793-1.827l-5.452-1.876.072-.086 5.409 1.863a6.816 6.816 0 0 1 2.793 1.826l.583.52-.067.066"/>
        <path fill="#EBB32A" d="M198.08 318.863c-.02-1.485-.553-3.347.086-4.005 3.18-3.265 4.444-6.132 9.623-9.493 5.18-3.359 0-11.762-1.074-17.483-.957-5.101 1.026-5.923 3.007-10.218 1.625-3.524-.251-5.231 3.257-9.434l5.452 1.876a6.81 6.81 0 0 1 2.793 1.827l.545.486-8.451 8.128 5.867 5.788c-.038 2.889-.129 11.773.156 15.257.28 3.424 1.88 12.951 2.407 16.05l-.142.837-8.249-1.237-15.277 1.62m24.584-30.972l-.833-.625 2.469-1.852.008.615-1.644 1.862"/>
        <path fill="#27283B" d="M256.986 287.992l7.308-8.285-8.72-7.774a6.81 6.81 0 0 0-2.793-1.827l-7.107-2.445s-2.38 4.21-6.75 4.548c-4.37-.338-6.75-4.548-6.75-4.548l-7.106 2.445a6.798 6.798 0 0 0-2.794 1.827l-8.956 8.614 7.545 7.445 3.437-2.58s.199 11.991-.143 16.18c-.338 4.115-2.577 17.039-2.577 17.039l7.2.714 18.9-2.003 8.59 1.289s-2.24-12.924-2.577-17.039c-.344-4.189-.143-16.18-.143-16.18l3.436 2.58"/>
        <path fill="#28296D" d="M252.78 270.106l-5.41-1.862 5.41 1.862"/>
        <path fill="#17191A" d="M232.4 318.962c-.018-1.483-.01-3.092.086-4.005.215-2.005 1.14-8.594 6.32-11.954 5.178-3.36 4.204-7.087 2.056-11.812-2.148-4.725-2.09-7.087-.106-11.383 1.635-3.547 3.011-7.298 6.614-11.564l5.41 1.862a6.81 6.81 0 0 1 2.794 1.827l8.718 7.774-7.306 8.285-3.436-2.58s-.058 3.499-.058 7.375c0 3.302.043 6.88.2 8.805.338 4.115 2.578 17.039 2.578 17.039l-8.59-1.289-15.28 1.62"/>
        <path fill="#CDE1EC" d="M286.058 287.992l7.307-8.285-8.717-7.774a6.81 6.81 0 0 0-2.794-1.827l-7.106-2.445s-2.381 4.21-6.752 4.548c-4.37-.338-6.749-4.548-6.749-4.548l-7.106 2.445a6.798 6.798 0 0 0-2.793 1.827l-8.957 8.614 7.544 7.445 3.437-2.577s.2 11.988-.143 16.179c-.338 4.113-2.577 17.037-2.577 17.037l7.202.716 18.9-2.005 8.59 1.289s-2.242-12.924-2.577-17.037c-.344-4.19-.145-16.18-.145-16.18l3.436 2.578"/>
        <path fill="#FFFFFE" d="M125.232 285.124h1.148v-5.891h-1.148zM127.078 285.124h1.147v-5.891h-1.147zM128.921 285.124h1.148v-5.891h-1.148zM161.075 285.124h1.148v-5.891h-1.148zM162.919 285.124h1.148v-5.891h-1.148zM164.762 285.124h1.148v-5.891h-1.148zM194.427 285.124h1.148v-5.891h-1.148zM196.27 285.124h1.148v-5.891h-1.147zM198.114 285.124h1.148v-5.891h-1.148zM228.78 285.124h1.148v-5.891h-1.148zM230.624 285.124h1.148v-5.891h-1.148zM232.47 285.124h1.145v-5.891h-1.146zM257.559 285.124h1.147v-5.891h-1.147zM259.402 285.124h1.148v-5.891h-1.148zM261.247 285.124h1.146v-5.891h-1.146z"/>
        <path fill="#FFF" d="M513.655 161.7l-1.66-.76a1.067 1.067 0 0 0-.99.057l-1.565.938.208-1.813a1.077 1.077 0 0 0-.359-.924l-1.376-1.2 1.789-.362c.341-.07.628-.302.766-.627l.715-1.677.898 1.588c.172.304.485.505.833.536l1.818.161-1.233 1.346a1.067 1.067 0 0 0-.255.958l.41 1.778"/>
        <path fill="#CDDAE1" d="M495.2 397.27l-3.164-13.029 14.162-8.585 19.578 9.874 21.981 2.806-3.15 6.214a4.98 4.98 0 0 1-4.426 2.73l-44.98-.01"/>
        <path fill="#BCA06C" d="M280.131 439.176l-30.386-8.735v-31.579l30.386 4.158v36.156"/>
        <path fill="#E8D3A1" d="M280.131 439.176l28.85-9.051v-33.238l-28.85 6.133v36.156"/>
        <path fill="#D2B981" d="M249.745 398.862l30.386-4.805 28.85 2.83-28.85 6.133-30.386-4.158"/>
        <path fill="#987C4D" d="M253.02 398.862l27.111-4.482 26.155 2.79-26.155 5.477-27.112-3.785"/>
        <path fill="#867054" d="M466.29 343.58l-9.734-7.732s.859-11.168 1.86-12.886c1.002-1.718 1.432.574 1.576 1.575.142 1.002.572 8.424.572 8.424l7.589 6.467-1.863 4.151M454.98 381.664c.717-.43 7.874-7.874 7.874-7.874l-3.006-4.295-7.445 7.874s-6.013-2.72-7.16-3.723c-1.144-1.002-3.865-1.574-4.15-.572-.287 1.001 10.88 11.167 10.88 11.167l3.007-2.577"/>
        <path fill="#A42730" d="M463.3 342.978l3.307-6.613s7.002 3.472 8.99 4.802c8.823 5.9 34.505 23.603 34.505 23.603s.766 13.534-2.826 13.942c-9.596 1.097-27.705-20.598-34.685-28.188-1.966-2.138-9.292-7.546-9.292-7.546"/>
        <path fill="#BF252B" d="M456.556 367.777s24.87-21.049 25.874-21.516c1.002-.47 2.76-.82 6.196.47 3.436 1.288 32.5 18.324 32.5 18.324s9.737 16.61 8.449 18.04c-1.289 1.433-11.168 3.723-12.6 3.723-1.432 0-11.454-4.489-13.888-6.872-.789-.771-16.752-23.91-17.324-23.766-.574.142-22.192 19.9-22.909 20.33-.715.43-6.298-8.733-6.298-8.733"/>
        <path fill="#B3272C" d="M525.54 372.984c-3.133 1.806-9.08 5.038-11.858 5.244-3.865.287-7.875-6.73-8.877-11.168-1.002-4.437-5.012-3.436-7.874-3.477-2.864-.043-4.15-3.565-4.582-5.543-1.002-4.582-6.825-8.126-10.69-4.936-3.667 3.026-5.575 11.144-20.949 21.059 1.017 1.431 1.892 2.5 2.144 2.347.717-.43 22.335-20.188 22.91-20.33.571-.145 16.534 22.995 17.323 23.766 2.434 2.383 12.456 6.872 13.887 6.872 1.433 0 11.312-2.29 12.6-3.723.673-.747-1.655-5.618-4.033-10.11"/>
        <path fill="#2C2C74" d="M526.71 360.676c1.719-2.005 12.027-8.649 12.886-9.795.86-1.144 7.015-10.451 8.019-11.453 1.001-1.003 6.585-4.221 8.016-3.65 1.433.575 5.3 7.624 5.155 10.057-.143 2.435-4.151 15.72-5.584 17.327-1.431 1.608-9.192 6.415-10.48 7.704-1.289 1.289-13.43 14.664-17.295 14.664-.697 0-2.977-5.304-5.135-10.747-2.272-5.735-4.405-11.621-4.405-11.621 3.006-1.289 7.106-.483 8.824-2.486z"/>
        <path fill="#292A6C" d="M557.757 360.8c-.708 1.774-1.624 4.087-2.629 6.64-1.273.168-4.407.51-8.731.892 1.223-4.005 2.182-7.173 2.572-8.47 3.111-.07 5.905-.136 8.011-.186.244.012.531.119.69.349.16.23.192.512.087.775zm-17.961 36.47h-2.619c.574-1.54 1.42-4.065 2.404-7.105 3.31-.32 5.843-.625 7.26-.823-.49 1.442-.848 2.584-.996 3.24-.608 2.717-3.15 4.688-6.05 4.688zm-45.887-3.842a262.92 262.92 0 0 1-.725-3.178c2.393.372 4.926.65 7.546.85.345 2.618.699 4.787 1.048 6.17h-2.842c-2.426 0-4.493-1.581-5.027-3.842zm-4.19-33.482a.866.866 0 0 1 .628-.267l.033.002c1.87.062 4.517.15 7.472.242.113 1.602.376 5.237.74 9.696-3.011-.198-5.86-.483-8.48-.866a758.142 758.142 0 0 1-.634-8.132.878.878 0 0 1 .24-.675zm30.413.455l-.579 9.496c-2.962.077-5.953.113-8.912.101l-.357-9.726c3.386.08 6.414.134 8.408.134.418 0 .902-.002 1.44-.005zm13.92 8.852l1.813-9.11c3.8-.077 7.709-.161 11.298-.242-.483 1.594-1.436 4.74-2.613 8.59-3.083.258-6.64.526-10.498.762zm7.376 9.37c-2.756.224-5.927.455-9.372.656l1.65-8.29c3.757-.226 7.246-.482 10.304-.735-.807 2.634-1.692 5.503-2.582 8.37zm9.724-.959c-1.176.157-3.987.463-7.875.801.896-2.89 1.78-5.756 2.579-8.365 3.85-.334 6.84-.641 8.557-.844-1.058 2.703-2.18 5.59-3.26 8.408zm-21.07 11.529l1.622-8.144c3.34-.196 6.442-.417 9.166-.639a956.146 956.146 0 0 1-2.572 8.137c-2.425.223-5.201.448-8.216.646zm-1.607 8.077l1.254-6.31c2.906-.186 5.603-.401 7.99-.618-1.026 3.16-1.878 5.67-2.378 6.928h-6.866zm-18.761-5.765l.21 5.765h-6.377c-.342-1.114-.708-3.27-1.077-6.045 2.375.15 4.802.24 7.244.28zm-8.352-10.166c2.608.147 5.287.232 7.987.274l.301 8.154c-2.502-.043-4.986-.13-7.403-.285a357.419 357.419 0 0 1-.885-8.143zm-1.905-1.852c-2.962-.2-5.789-.488-8.412-.874-.045-.364-.096-.742-.133-1.088-.228-2.232-.451-4.67-.654-7.016 2.629.369 5.475.64 8.475.831.217 2.588.46 5.373.724 8.147zm19.493.334c-2.63.058-5.293.087-7.943.07l-.302-8.181c.314 0 .627.005.943.005 2.593 0 5.21-.036 7.802-.103l-.5 8.209zm1.12 9.858l.497-8.15a350.93 350.93 0 0 0 9.365-.38l-1.623 8.154c-2.624.158-5.397.288-8.239.376zm-8.698.11l-.301-8.16c.587.003 1.177.01 1.766.01 2.01 0 4.017-.026 6.007-.071l-.497 8.158c-2.306.054-4.642.079-6.975.063zm.274 7.48l-.21-5.745c.539.006 1.08.012 1.62.012 1.74 0 3.47-.025 5.185-.065l-.354 5.799h-6.24zm7.962 0l.356-5.84a287.62 287.62 0 0 0 7.992-.357l-1.233 6.198h-7.115zm1.67-27.422l.576-9.463c3.18-.036 7.563-.114 12.253-.206l-1.83 9.183c-3.505.2-7.217.373-10.999.486zm10.656 1.247l-1.651 8.289c-3.059.166-6.297.305-9.61.396l.5-8.216c3.696-.11 7.321-.276 10.76-.469zm-31.608-1.376c-.31-3.747-.565-7.173-.75-9.741 2.92.089 6.04.177 8.986.252l.36 9.759a196.86 196.86 0 0 1-8.596-.27zm8.657 1.981l.303 8.171c-2.744-.037-5.46-.121-8.09-.27-.26-2.716-.504-5.494-.727-8.158 2.754.144 5.61.228 8.514.257zm-17.693 8.683c2.622.373 5.421.65 8.335.846.278 2.85.575 5.639.881 8.13-2.699-.211-5.291-.509-7.712-.907-.55-2.58-1.108-5.448-1.504-8.069zm56.19 7.127c-.863.146-3.513.486-7.32.86a1163.63 1163.63 0 0 0 2.562-8.115c3.436-.3 6.145-.581 7.736-.772a404.557 404.557 0 0 0-2.977 8.027zm-17.787 32.24a3.332 3.332 0 0 1-3.33-3.328 3.332 3.332 0 0 1 3.33-3.328 3.332 3.332 0 0 1 3.327 3.328 3.332 3.332 0 0 1-3.327 3.328zm-29.828 0a3.332 3.332 0 0 1-3.328-3.328 3.332 3.332 0 0 1 3.328-3.328 3.332 3.332 0 0 1 3.328 3.328 3.332 3.332 0 0 1-3.328 3.328zm72.947-74.452c-.738 0-1.367.375-1.786.92-4.687 1.982-12.692 9.976-14.434 11.75-9.49.223-31.376.721-37.9.721-6.257 0-23.21-.553-28.255-.725a2.67 2.67 0 0 0-1.957.792 2.605 2.605 0 0 0-.717 1.99c.222 3.044.806 10.79 1.442 16.956.517 5.025 2.123 12.256 3.034 16.119.716 3.044 3.47 5.168 6.697 5.168h7.731a1.376 1.376 0 0 0-.144.598c0 .778.629 1.407 1.407 1.407h21.526c.395 0 .751-.167 1.007-.43h8.244c.742 0 1.432.3 1.94.84.506.543.76 1.251.733 1.847a10.266 10.266 0 0 1-10.017 7.909h-31.498v.216a5.05 5.05 0 0 0-5.046 5.046 5.05 5.05 0 0 0 5.046 5.046 5.052 5.052 0 0 0 5.047-5.046 5.02 5.02 0 0 0-1.463-3.544h22.659a5.02 5.02 0 0 0-1.462 3.544 5.051 5.051 0 0 0 5.047 5.046 5.05 5.05 0 0 0 5.045-5.046c0-1.462-.634-2.77-1.63-3.692 4.815-.7 8.786-4.238 9.966-9.223a4.384 4.384 0 0 0-1.174-3.276 4.368 4.368 0 0 0-2.144-1.242h.04c3.695 0 6.944-2.538 7.728-6.03.855-3.834 9.27-25.097 11.829-31.521a2.536 2.536 0 0 0-.273-2.393c-.162-.23-.36-.41-.576-.569 3.625-3.623 8.881-8.352 12.157-10.199.296.925 1.13 1.603 2.151 1.603a2.291 2.291 0 1 0 0-4.582z"/>
        <path fill="#2C2C74" d="M560.786 345.835c.144-2.433-3.722-9.482-5.155-10.056-1.43-.572-7.015 2.646-8.016 3.65-.36.358-1.383 1.79-2.586 3.523 3.297 8.927-5.1 6.283-4.424 8.968.677 2.684 1.618 5.69-1.974 7.096-3.347 1.31-7.027 1.01-7.768 4.25-.738 3.241 0 5.512-4.295 6.243-3.185.54-4.04-2.449-6.994-1.785.173.44 2.543 6.618 2.718 7.06 2.158 5.442 4.438 10.746 5.135 10.746 3.864 0 16.006-13.375 17.295-14.664 1.288-1.289 9.049-6.096 10.48-7.704 1.433-1.606 5.441-14.892 5.584-17.327"/>
        <path fill="#867054" d="M540.346 356.34c-4.361-.71-9.483-1.378-12.561-.018-.707.313-3.81.724-4.14 1.361-.786 1.522 4.926 1.789 7.218 1.613 2.275-.172 6.052 1.098 7.785 1.383 1.732.286 3.91-3.98 1.698-4.34"/>
        <path fill="#6E5C47" d="M547.611 330.9c.767 1.919 1.141 6.525 1.971 6.826.591.213 1.548.338 3.366-.32 1.166-.424 1.881-1.576 1.436-2.735l-2.795-7.254-3.978 3.483"/>
        <path fill="#867054" d="M542.517 321.57c.175 1.447-.027 4.603-.656 5.072-.629.466 3.127 6.419 3.527 6.909.404.49 3.792-.605 5.142-1.162 1.354-.555 4.517-2.424 5.455-4.51.937-2.087-1.26-8.522-2.511-9.544-1.248-1.022-5.763-3.558-7.524-3.147-1.761.408-3.433 6.382-3.433 6.382"/>
        <path fill="#27283B" d="M545.349 319.926c-.844.223-1.285 1.735-2.864 1.634-1.578-.101-3.687-2.59-3.555-3.926.35-3.618 3.749-4.441 4.927-3.665.103-2.173 3.703-4.26 5.785-1.615 2.82-1.415 4.314-.881 5.405 1.332 2.253-1.22 4.337.656 3.055 3.074 2.493-.418 4.098 4.747.921 5.632 1.082.847 3.25 2.197 2.302 4.857-.95 2.66-6.23 3.656-7.348 2.22-1.835-1.693-2.266 1.38-2.948.099-.684-1.28 1.398-5.15-.084-6.833-.683-.773-2.399-.28-2.753-.636-.352-.357-.993-2.66-2.843-2.173"/>
        <path fill="#3A3A86" d="M547.611 338.725c.157 2.081 5.443 17.74 5.588 18.599.142.859-.287-.143-1.718 0-.902.09-7.668-1.503-12.76-2.38-2.983-.512-4.126 6.397-1.777 7.36 6.408 2.636 18.5 7.505 19.547 7.19 1.432-.429 7.66-2.038 8.233-3.167.572-1.127-2.505-11.723-3.509-13.87-1.001-2.148-5.513-17.087-7.087-17.455-2.147-.501-6.625 2.285-6.517 3.723"/>
        <path fill="#27283B" d="M453.94 382.558c-1.324-1.117-3.324-4.236-4.539-6.601-1.685-.823-3.566-1.794-4.157-2.311-1.145-1.002-3.866-1.574-4.151-.572-.287 1.001 10.88 11.167 10.88 11.167l1.968-1.683M460.361 329.594c-.132-2.105-.292-4.515-.37-5.057-.143-1.001-.573-3.293-1.575-1.575-1.001 1.718-1.86 12.886-1.86 12.886l1.323 1.051c.067-2.914.524-5.76 1.396-6.773.385-.446.763-.56 1.086-.532"/>
        <path fill="#BCA06C" d="M330.59 447.955l-30.385-10.14v-54.21l30.385 5.889v58.461"/>
        <path fill="#E8D3A1" d="M330.59 447.955l28.85-12.288-.333-53.62-28.517 7.447v58.461"/>
        <path fill="#D2B981" d="M300.205 383.606l28.777-6.356 30.125 4.797-28.517 7.447-30.385-5.888"/>
        <path fill="#27283B" d="M349.319 401.805l-2.069.786v-10.622l2.069-.785v10.621M352.643 400.668l-2.067.893v-10.62l2.067-.75v10.477M355.753 399.845l-2.069.75v-10.62l2.07-.751v10.621"/>
        <path fill="#B09261" d="M249.947 398.83l-9.483 9.145a.525.525 0 0 0 .252.892l27.807 6.013a.526.526 0 0 0 .49-.151l11.118-11.654-30.184-4.245"/>
        <path fill="#BCA06C" d="M137.886 392.992h-14.903a2.349 2.349 0 0 1-2.347-2.347v-14.903a2.348 2.348 0 0 1 2.347-2.349h14.903a2.349 2.349 0 0 1 2.349 2.349v14.903a2.35 2.35 0 0 1-2.349 2.347"/>
        <path fill="#E8D3A1" d="M162.838 392.992h-24.495a2.348 2.348 0 0 1-2.347-2.347v-24.497a2.346 2.346 0 0 1 2.347-2.347h24.495a2.346 2.346 0 0 1 2.347 2.347v24.497a2.348 2.348 0 0 1-2.347 2.347M98.234 331.3c2.997 5.75 8.878 8.98 10.305 8.671 1.426-.31-.632-2.519-1.66-4.017-1.027-1.498.439-.546.856-1.268.418-.723-.957-.972-2.615-1.675-2.123-.902-3.83-2.883-4.84-3.36-1.012-.478-2.046 1.649-2.046 1.649"/>
        <path fill="#9ECFE5" d="M83.299 300.64s12.599 23.482 15.463 26.059a277.344 277.344 0 0 1 4.867 4.48l-4.867 3.767s-15.75-17.984-17.181-19.989c-1.433-2.003 1.718-14.317 1.718-14.317"/>
        <path fill="#5CABD3" d="M98.762 334.946s-8.991-10.268-14.005-16.15c.26-5.016.493-10.019.68-14.218 3.724 6.802 11.201 20.209 13.325 22.12a277.344 277.344 0 0 1 4.867 4.482l-.674.522-4.193 3.244"/>
        <path fill="#D2B981" d="M99.763 410.384s4.582 12.886 6.156 12.886c1.576 0 14.247-6.443 14.247-6.443s-1.718-1.933-3.007-1.933c-1.289 0-6.3 1.503-7.66 1.933-1.36.43-5.87-7.946-5.87-7.946l-3.866 1.503"/>
        <path fill="#2E2E67" d="M67.836 354.188c2.29 4.868 10.308 20.903 12.312 24.626 2.005 3.723 5.728 17.18 8.018 21.19 2.29 4.01 10.88 14.89 10.88 14.89l6.873-3.723s-4.58-8.876-5.154-11.168c-.572-2.29-3.721-18.04-4.295-20.043-.572-2.005-16.035-34.936-18.04-37.226-2.004-2.29-15.003 1.146-15.003 1.146l4.409 10.308"/>
        <path fill="#D2B981" d="M75.954 293.82l2.763-12.938h4.008l-1.519 14.604-5.252-1.666"/>
        <path fill="#E8D3A1" d="M72.327 277.393c3.627 9.985 13.72 9.592 14.659 8 1.498-2.545 1.704-6.586 1.493-7.944-.268-1.718-3.266-3.063-4.876-7.252-.395-1.03-7.917-1.946-8.805.109-.889 2.053-2.471 7.087-2.471 7.087"/>
        <path fill="#32327B" d="M96.47 379.958c-.572-2.003-13.804-37.659-15.809-39.95-.814-.932-5.67 2.291-8.489 3.202 4.093 8.674 8.924 23.866 10.553 26.799 1.79 3.221 5.441 10.952 7.16 14.818 1.717 3.866 6.013 14.175 7.516 16.752.984 1.685 4.807 6.851 7.341 10.23l1.177-.638s-4.58-8.878-5.154-11.168c-.572-2.29-3.721-18.04-4.295-20.045"/>
        <path fill="#D2B981" d="M49.294 406.089c-.586 3.006-4.543 9.02-4.202 10.308.336 1.289 7.209 7.946 9.571 8.59 2.363.645 4.703.506 5.154 0 .835-.93-5.126-4.867-6.585-7.793-1.431-2.872 1.289-8.313 1.289-8.313l-5.227-2.792"/>
        <path fill="#2E2E67" d="M63.427 334.946c-1.431 7.745-7.33 36.995-8.19 42.722-.859 5.728-7.446 28.635-8.018 29.781-.572 1.145 7.874 5.155 7.874 5.155s4.724-9.165 5.298-10.883c.572-1.718 3.722-12.885 4.58-15.463.86-2.577 9.45-20.902 10.881-24.338 1.433-3.436-12.425-26.974-12.425-26.974"/>
        <path fill="#32327B" d="M69.685 340.832c0 8.114-2.256 22.318-3.947 26.385-2.055 4.94-5.706 7.731-5.491 12.67.215 4.94-1.289 10.739-3.651 13.96-1.766 2.409-4.854 11.704-6.299 16.238 2.213 1.29 4.796 2.517 4.796 2.517s4.724-9.163 5.298-10.88c.572-1.719 3.722-12.886 4.58-15.464.86-2.577 9.54-20.868 10.881-24.34.801-2.067 3.265-5.202 2.88-7.444-.998-5.83-7.386-10.773-9.047-13.642"/>
        <path fill="#9ECFE5" d="M71.2 293.582c-4.01 2.578-24.84 15.649-25.986 17.367-1.145 1.718 6.013 18.701 7.159 20.23 1.146 1.533 4.867 1.908 4.867 0 0-1.903-2.29-16.222-1.144-16.794 1.144-.572 5.075-4.333 6.22-4.62 1.146-.287-.74 28.244-.74 28.244s4.035 5.34 10.596 5.2c2.431-.05 4.665.222 6.464.497 2.013.306 3.484.612 4.089.462 1.146-.287 3.15-49.202 3.15-50.348 0-2.29-6.44-2.437-7.102-2.63-1.424-.413-6.348-3.006-6.6-3.006-.86 0-.973 5.398-.973 5.398"/>
        <path fill="#28296D" d="M73.746 343.227a34.536 34.536 0 0 0-1.125-.022c-.148 0-.297.001-.449.005a30.04 30.04 0 0 1 1.577.01.013.013 0 0 0-.003.007"/>
        <path fill="#22262F" d="M67.652 342.421c-2.292-.87-4.013-2.271-5.027-3.263 1.014.99 2.733 2.394 5.027 3.261v.002"/>
        <path fill="#28296D" d="M71.528 343.206"/>
        <path fill="#494844" d="M57.24 331.217v-.003.003m0-.008v-.005.005m0-.01v-.006.005m0-.008v-.01.01m0-.01c0-1.523-1.465-10.988-1.465-15.008 0 4.02 1.465 13.484 1.465 15.008m5.445-17.666c0-2.275-.098-3.75-.352-3.75l-.017.001c-.311.08-.83.414-1.442.873.612-.459 1.13-.794 1.442-.873l.017-.002c.254 0 .352 1.476.352 3.751m6.625-18.725s.002 0 0 0c.802-.51 1.448-.921 1.89-1.207-.442.286-1.088.696-1.89 1.207"/>
        <path fill="#28296D" d="M67.6 295.874c.626-.397 1.2-.76 1.71-1.085.002 0 0 0 0 0l-1.71 1.085"/>
        <path fill="#5CABD3" d="M73.75 343.22a30.04 30.04 0 0 0-.971-.017c-.201 0-.404.003-.607.007l-.252.003a11.836 11.836 0 0 1-3.342-.483 12.448 12.448 0 0 1-.926-.31c-2.294-.868-4.013-2.272-5.027-3.262-.687-.668-1.05-1.149-1.05-1.149s1.112-16.813 1.11-24.495c0-2.275-.098-3.75-.352-3.75l-.017.001c-.311.08-.83.414-1.442.873-1.637 1.225-3.945 3.33-4.778 3.747a.065.065 0 0 0-.026.016c-.211.15-.295.804-.295 1.771 0 4.02 1.465 13.485 1.465 15.008V331.217c-.019.715-.577 1.093-1.317 1.208l-3.263-24.912.572-2.366a625.645 625.645 0 0 1 6.177-4.032 1440.154 1440.154 0 0 1 9.901-6.326c.802-.51 1.448-.921 1.89-1.207 0 0 .113-5.398.972-5.398h.002c.04.002.16.05.342.132.464.21 1.33.638 2.288 1.105l.28.136c-2.054 4.51-2.238 12.905-.09 16.525 2.38 4.008 3.723 6.769 1.575 10.114-2.148 3.343-4.785 6.35-4.397 9.357.389 3.006 2.679 6.585 3.108 10.738.236 2.266-.665 4.951-1.53 6.929" opacity=".3"/>
        <path fill="#0C0E0F" d="M72.327 282.707c1.02.43 2.529 1.36 3.221.967.694-.395 1.236-.752 1.182-1.771-.053-1.02-.268-1.88.86-2.792 1.127-.914 2.212-2.524 1.75-4.08-.462-1.559.665-3.684.665-4.339 0-.656-1.665-3.218-3.06-2.716-1.397.503-3.383.718-4.08 2.436-.698 1.718-1.835 2.51-1.289 5.154.546 2.645.751 7.14.751 7.14"/>
        <path fill="#27245B" d="M72.03 278.735c-2.978-4.94-2.849-10.555.996-12.565 3.49-1.824 7.766-.45 9.986 1.742 2.22 2.193 7.786-1.902 8.59-.606.995 1.601-19.572 11.429-19.572 11.429"/>
        <path fill="#27283B" d="M36.477 324.618l9.776 25.97a2.316 2.316 0 0 0 2.926 1.372l34.24-11.874a2.315 2.315 0 0 0 1.381-3.068l-10.279-25.004a2.318 2.318 0 0 0-2.854-1.323L37.931 321.6a2.316 2.316 0 0 0-1.454 3.02"/>
        <path fill="#FFFFFE" d="M67.57 331.288l-2.005.72-3.693-10.297 2.005-.72 3.693 10.297M70.793 330.132l-2.005.72-3.694-10.297 2.006-.718 3.693 10.295M74.016 328.975l-2.007.72-3.69-10.296 2.005-.719 3.692 10.295"/>
        <path fill="#E8D3A1" d="M52.66 329.561c1.216 6.373 5.922 11.156 7.377 11.267 1.456.114.119-2.592-.434-4.322-.554-1.73 1.183-.971 1.792-1.543.608-.572-.347-1.436-2.629-1.784-2.283-.345-2.842-3.862-3.673-4.607-.83-.75-2.433.99-2.433.99"/>
        <path fill="#9ECFE5" d="M71.2 293.582c-4.01 2.578-24.84 15.649-25.986 17.367-1.145 1.718 6.013 18.701 7.159 20.23 1.146 1.533 4.867 1.908 4.867 0 0-1.903-2.29-16.222-1.144-16.794 1.144-.572 5.044-4.513 6.22-4.62 10.817-.964 8.884-16.183 8.884-16.183"/>
        <path fill="#27283B" d="M54.663 424.988c2.363.644 4.703.507 5.154 0 .835-.931-5.126-4.87-6.585-7.792a3.883 3.883 0 0 1-.323-1.034c-2.065-1.129-4.68-2.878-6.154-4.093-.983 1.966-1.828 3.705-1.663 4.328.336 1.289 7.209 7.946 9.571 8.59M117.159 414.894c-1.289 0-6.3 1.503-7.66 1.933-.425.134-1.162-.596-1.97-1.662a765.853 765.853 0 0 0-5.055 2.188c1.287 3.035 2.703 5.917 3.445 5.917 1.576 0 14.247-6.443 14.247-6.443s-1.718-1.933-3.007-1.933"/>
        <path fill="#BF252B" d="M383.183 247.951c-.604.808-1.23 1.598-1.811 2.421-1.464 2.084-2.91 4.18-4.363 6.273-.194.282-.395.564-.551.866-.28.545-.553 1.094-.784 1.661a49.779 49.779 0 0 0-.893 2.404c-.285.818-.823 1.388-1.61 1.728a3.47 3.47 0 0 1-1.891.255c-.889-.127-1.695.062-2.45.496-1.262.722-2.615 1.237-3.931 1.832-.708.32-1.399.677-2.088 1.032-.371.19-.7.437-.806.878v.334c.088.171.19.336.258.515.096.254.28.393.53.459.606.158 1.205.33 1.815.467 1.754.397 3.538.63 5.321.856.976.123 1.957.137 2.938.106a11.3 11.3 0 0 0 2.117-.261c.936-.206 1.601-.727 2.025-1.588.318-.642.578-1.302.792-1.98.394-1.25.755-2.505 1.176-3.744a19.753 19.753 0 0 1 1.864-3.972c.247-.408.517-.538.91-.432l.165.03c.217.044.438.073.65.133.24.07.381.229.385.495.001.182.024.361.03.542.057 1.706.141 3.41.159 5.116.013 1.35-.059 2.7-.093 4.05l-.002.122.165.206c.29.015.582.012.871-.017.186-.021.21-.088.206-.277-.007-.572-.03-1.146-.013-1.72.051-1.728.21-3.45.448-5.164.19-1.387.515-2.743.957-4.072.314-.947.69-1.873 1.125-2.773l.069-.301.027-.397c.162-.63.095-1.254-.094-1.86-.577-1.846-1.69-3.301-3.264-4.411l-.33-.308h-.03"/>
        <path fill="#CDE1EC" d="M412.577 64.43l-33.09 19.766a4.04 4.04 0 0 1-5.501-1.472L354.705 49.35a4.037 4.037 0 0 1 1.472-5.5l33.091-19.77a4.04 4.04 0 0 1 5.501 1.473l19.28 33.372a4.041 4.041 0 0 1-1.472 5.503"/>
        <path fill="#856E58" d="M297.183 186.602c-1.62 2.283-5.369 8.16-5.369 9.45 0 1.288 3.007 10.308 5.37 11.811 2.361 1.503 3.22-.43 2.361-2.362-.859-1.933-3.006-5.263-2.791-8 .214-2.738 3.118-9.181 3.118-9.181l-2.689-1.718M365.49 95.49c1.503-1.291 4.714-22.712 3.853-24.001-.189-.285-.404-.273-.675-.263-.277.01-.612.022-1.043-.275-1.07-.735-2.525-2.616-2.845-2.469-.698.322.914 4.187.914 5.046 0 .86-3.5 17.27-3.5 17.27l-5.331 3.081v7.115l8.627-5.505"/>
        <path fill="#32327B" d="M329.827 154.329c4.285-.064 29.483-2 31.493-2.58 2.012-.583 7.599-3.466 7.384-5.829-.12-1.336-.118-3.231-1.185-4.097-.818-.662-2.63-1.172-3.41-1.504-1.583-.668-25.262-4.83-26.98-4.401-1.718.43-7.302 18.41-7.302 18.41"/>
        <path fill="#27283B" d="M329.827 154.329c3.873-.057 24.832-1.644 30.307-2.378 1.236-1.83 2.876-4.397 3.053-5.367.285-1.576-5.297-2.148-6.587-2.68-.582-.241-1.984-.068-3.532.106-1.873.21-3.959.42-5.057-.107-1.446-.694-7.728-3.833-12.06-6.387-2.291 4.475-6.124 16.813-6.124 16.813" opacity=".3"/>
        <path fill="#856E58" d="M339.101 89.172c-.314 1.573.578 9.09.438 11.095-.139 2.005-7.846 1.378-8.96.519-1.115-.859 1.18-2.417 2.04-4.135.859-1.719.8-8.484.8-8.484l5.682 1.005"/>
        <path fill="#32327B" d="M318.23 137.85c-1.933 2.792-6.012 24.913-7.086 25.557-1.075.645-17.827 22.55-17.827 22.55s4.727 6.443 6.015 6.873c1.287.43 25.772-27.49 25.772-27.49s9.001-20.088 8.58-22.392c-.42-2.306-15.454-5.097-15.454-5.097"/>
        <path fill="#9ECFE5" d="M330.9 98.226c-3.592 2.256-5.834 6.872-6.693 8.376-.859 1.503-.821 5.048-1.038 6.98-.213 1.933-6.228 23.624-6.44 24.269-.217.644 3.435 5.154 6.549 6.228 3.113 1.073 14.71 1.843 16.643 1.03 1.933-.816 1.288-22.936 1.718-25.728.431-2.792 1.718-9.88 2.792-10.738 1.075-.86 12.27-6.98 12.994-7.196.721-.214.082-8.406-.562-8.406s-11.357 4.111-12.217 4.326c-.858.215-5.213-.285-5.213-.285-.009 1.216-.048 3.113-2.203 3.704-2.687.737-6.33-2.56-6.33-2.56"/>
        <path fill="#CDE1EC" d="M356.863 93.04c-.644 0-11.357 4.112-12.217 4.327-.32.08-.432 7.97-.057 11.164 1.639-1.144 12.137-6.876 12.836-7.084.721-.214.082-8.406-.562-8.406"/>
        <path fill="#4CAAD3" d="M336.232 145.448c-2.457 0-5.644-.203-8.33-.519 1.191-1.577 1.851-3.467 1.066-5.04-1.289-2.576-4.294-7.837-.86-9.878 3.437-2.04 8.055-2.899 6.337-7.946-1.718-5.046-3.544-8.483-.108-9.665 3.436-1.18 8.16-6.12 9.987-8.375l.038-.047c.024 1.734.096 3.43.227 4.55a3.1 3.1 0 0 0-.158.115c-1.074.859-2.36 7.946-2.792 10.738-.254 1.655-.13 10.096-.392 16.868-.179 4.658-.538 8.527-1.326 8.86-.562.236-1.94.339-3.689.339" opacity=".3"/>
        <path fill="#27245B" d="M344.733 108.433c.885-.582 3.277-1.943 5.752-3.312.006-.004.014-.007.021-.01a310.313 310.313 0 0 1 4.632-2.514c.003-.004.009-.005.012-.007l.019-.01c1.204-.638 2.072-1.078 2.256-1.133-4.57 2.301-11.1 5.96-12.692 6.986"/>
        <path fill="#4CAAD3" d="M350.485 105.12l.021-.01-.02.01M355.15 102.59l.019-.01-.019.01"/>
        <path fill="#9FCAE2" d="M344.589 108.53v-.002c-.13-1.12-.203-2.816-.227-4.55 1.811-2.211 3.52-2.426 5.546-2.852.454-.096 1.076-.132 1.771-.132 2.433 0 5.746.453 5.746.453-.184.055-1.052.495-2.256 1.133l-.019.01c-.003.002-.009.003-.012.007a310.313 310.313 0 0 0-4.632 2.513l-.02.01c-2.476 1.37-4.868 2.73-5.753 3.313l-.144.096" opacity=".3"/>
        <path fill="#856E58" d="M332.19 124.965c.858 2.792 2.845 12.583 5.798 14.389 2.953 1.806 14.971 3.02 17.236 2.218 3.328-1.182 6.901-.546 6.257-2.05-.644-1.503-5.99-1.135-7.922-.92-1.933.214-9.197-2.5-10.83-2.715-1.633-.215-5.17-14.358-5.17-14.358l-5.37 3.436"/>
        <path fill="#CDE1EC" d="M328.586 104.992c-1.932 1.395-3.006 5.369-2.147 8.805s1.61 10.845 1.61 10.845 4.58.964 7.16-.215c2.58-1.177 4.33-4.831 4.33-4.831s-5.406-12.456-6.247-13.1c-.84-.645-3.484-2.387-4.706-1.504"/>
        <path fill="#9F856D" d="M327.45 86.167c1.872 5.078 8.734 6.443 11.311 6.156 2.577-.286 4.438-1.718 3.866-4.438-.574-2.72-1.576-6.014-1.863-6.586-.285-.574-1.343-1.113-2.891-1.271-1.546-.162-3.969-4.6-5.407-3.31-1.436 1.288-6.019 6.729-5.017 9.449"/>
        <path fill="#27283B" d="M333.698 90.258c-.69 1.522-1.753 1.754-3.42 1.443-.668-.124-.997 1.256-2.97.658-2.491-.755-1.158-2.378-1.785-3.5-1.4-2.5-1.826-6.326-.993-8.1 1.7-3.62 4.83-3.612 4.495-6.047-.337-2.433-2.078-1.271-1.717-3.15.658-3.437 9.43-.685 9.922 3.291.643 5.175-3.433 5.249-4.391 6.587-1.655 2.31 1.46 7.49.859 8.818M293.374 192.587c-.892 1.56-1.56 2.92-1.56 3.464 0 1.289 3.007 10.309 5.37 11.812 2.361 1.503 3.22-.43 2.361-2.362-.859-1.933-3.006-5.263-2.791-8 .046-.598.225-1.378.47-2.223-1.235-.677-2.685-1.6-3.85-2.69"/>
        <path fill="#3A3A86" d="M384.564 42.726c-.1.827-.22 1.653-.294 2.481-.187 2.098-.357 4.198-.53 6.297-.023.282-.05.565-.037.847.026.505.057 1.012.127 1.514.096.699.22 1.397.352 2.09a2.322 2.322 0 0 1-.436 1.904 2.882 2.882 0 0 1-1.247.964c-.691.277-1.19.744-1.552 1.37-.603 1.036-1.359 1.965-2.056 2.937-.375.52-.72 1.062-1.067 1.6-.188.29-.32.603-.213.964l.137.239.399.26a.59.59 0 0 0 .57.11c.498-.137.998-.262 1.49-.415 1.422-.443 2.795-1.012 4.166-1.59.748-.314 1.457-.71 2.148-1.137.5-.31.969-.665 1.405-1.063.584-.536.847-1.182.796-1.974a11.702 11.702 0 0 0-.255-1.748c-.233-1.054-.496-2.106-.706-3.166a16.34 16.34 0 0 1-.309-3.613c.01-.395.146-.6.474-.687l.129-.045c.174-.06.344-.129.522-.175.2-.05.368.007.48.197l.245.373c.746 1.2 1.512 2.385 2.23 3.598.567.962 1.076 1.957 1.609 2.938l.05.09.204.078c.213-.11.42-.234.613-.374l.035-.282c-.243-.406-.497-.81-.72-1.225a39.32 39.32 0 0 1-1.816-3.885 18.64 18.64 0 0 1-.999-3.309 18.702 18.702 0 0 1-.341-2.452l-.076-.244-.144-.297c-.145-.515-.452-.936-.84-1.292-1.176-1.082-2.574-1.663-4.158-1.807l-.365-.083-.02.012"/>
        <path fill="#867054" d="M431.214 263.794v1.179c.331.134.65.316.993.395 1.196.268 2.393.532 3.6.74 2.08.36 4.157.734 6.287.64 2.748-.123 5.495-.193 8.242-.29 2.308-.083 4.613-.157 6.917-.259 1.424-.063 2.844-.17 4.264-.262.255-.016.557 0 .557-.392v-2.117c-.321 0-.58-.01-.837.002-1.797.08-3.594.163-5.39.252-2.485.122-4.985.114-7.449.413-3.244.397-6.479.66-9.742.49-1.264-.068-2.523-.265-3.786-.403.065-.556.31-.6.7-.558 1.332.14 2.669.256 4.007.345 2.382.158 4.739-.172 7.101-.397 4.905-.467 9.812-.884 14.748-.783.382.005.672-.825.732-1.31.143-1.125.255-2.234-.273-3.317-.59-1.204-1.113-2.44-1.672-3.66a3.555 3.555 0 0 0-.34-.592c-.3-.413-.577-.45-1.008-.174-.404.26-.538.667-.528 1.103.016.676-.306 1.119-.915 1.285-1.004.275-2.02.597-3.045.674-1.26.094-2.194-.665-3.101-1.648.42-.376.797-.72 1.179-1.055.347-.307.355-.646.08-.994-.158-.205-.35-.385-.53-.573-.43-.445-.885-.867-1.284-1.338-.225-.265-.416-.335-.701-.143-.802.538-1.61 1.067-2.404 1.614-.436.3-.85.629-1.271.943.59.344 1.14.63 1.648.98.285.193.43.525.199.858-.22.32-.512.134-.744.009-.56-.304-1.094-.653-1.658-.952-.146-.077-.357-.033-.54-.045l-.017.157c.37.297.774.562 1.093.904.138.144.194.484.124.678-.11.304-.41.339-.698.162-.417-.256-.849-.497-1.244-.784-.403-.288-.725-.25-1.024.136.316.14.636.265.942.423.264.135.374.364.247.656-.132.297-.374.278-.622.172-.42-.177-.83-.394-1.26-.536-.22-.07-.482-.012-.784-.012.37.342.661.568.893.845l.069.496-.502-.017c-.268-.113-.503-.304-.764-.438-.411-.208-.798-.11-1.206.084.274.188.55.301.702.504.105.142.203.465.06.622-.122.135-.378.06-.54.005-.245-.08-.46-.246-.698-.35-.449-.196-.832-.087-1.165.22l.644.716c-.43.436-.76.177-1.105-.002-.154-.079-.333-.108-.501-.161-.012.168.388.902-.146 1.061-.188.057-.34-.196-.5-.307l-.165-.272c-.48.76-1.217.758-1.931.84-.633.073-1.26.22-1.896.253-.97.052-1.427.622-1.644 1.472-.15.6-.268 1.208-.398 1.813"/>
        <path fill="#B39660" d="M595.577 335.712c-2.433.716-17.466 8.127-18.325 8.283-.859.158-2.721-2.42-4.295-1.704-1.576.716-4.44 1.79-3.866 3.544.572 1.754 1.289-.179 3.007 0 1.718.179 4.15.3 5.584.74 1.43.44 13.583-2.422 15.095-3.139 1.512-.716 5.664-1.77 5.664-1.77l-2.864-5.954"/>
        <path fill="#BE9A57" d="M616.481 412.018s0 12.456-.859 12.741c-.859.287-18.88.43-18.88.43s.84-1.86 1.986-2.29c1.145-.43 9.412-2.005 10.986-4.296 1.575-2.29 2.615-6.585 2.615-6.585h4.152M697.804 395.552c.849 1.867-1.574 9.593-2.003 10.595-.43 1.002.488 2.72 1.032 2.72.542 0 7.129-10.164 8.13-12.027 1.002-1.86 1.719-3.866 1.576-4.438-.144-.572-13.03-6.872-13.03-6.872l-2.29 4.867s5.87 3.58 6.585 5.155"/>
        <path fill="#F1CE2B" d="M623.067 333.128c.572 6.544-10.022 33.216-10.88 36.08-.86 2.864.858 21.476 0 28.349-.86 6.872-2.865 17.18-2.865 17.18s3.436 2.578 4.582 2.29c1.146-.284 7.16-4.867 7.732-7.444.572-2.577 3.149-25.771 4.008-27.49.86-1.717 8.59-18.898 10.309-25.484 1.718-6.587-12.886-23.481-12.886-23.481"/>
        <path fill="#EAAF39" d="M635.953 356.61c.57-2.188-.664-5.516-2.562-8.983l-8.436-3.632s3.84 11.473.26 19.167c-1.133 2.435-4.483 4.962-5.01 8.48-.43 2.863 2.503 6.443.32 9.895-2.422 3.823-2.183 12.726-2.326 16.45-.142 3.722-3.149 10.308-3.865 12.313-.481 1.345-.51 3.924-.52 6.726l.09.002c1.146-.285 7.16-4.868 7.732-7.445.572-2.577 3.149-25.771 4.008-27.49.86-1.717 8.59-18.898 10.309-25.484" opacity=".4"/>
        <path fill="#32327B" d="M611.614 323.678c2.862 6.014 7.957 16.83 10.274 16.84 1.8.006 4.902-5.385 8.338-8.25 3.436-2.863-15.75-13.172-15.75-13.172l-2.862 4.582"/>
        <path fill="#A47731" d="M608.643 313.693c-4.008-3.651-7.552-8.376-8.197-9.665-.644-1.288 2.198-5.966 2.198-5.966l8.97 13.375-2.97 2.256"/>
        <path fill="#F1CE2B" d="M622.708 340.86c3.51 8.303 20.976 29.494 23.268 31.497 2.29 2.005 45.815 23.195 45.815 23.195s4.01-8.017 4.01-9.735-5.154-3.436-6.587-4.582c-1.432-1.146-17.181-11.74-18.9-11.455-1.718.287-5.154 1.576-5.154 1.576s1.146-4.725.287-5.297c-.859-.574-30.977-36.678-33.554-35.245-2.577 1.43-9.185 10.045-9.185 10.045"/>
        <path fill="#EAAF39" d="M670.315 369.78c-1.554.239-3.036-.634-3.687-2.008-.323-.679-.753-1.428-1.18-1.713-.67-.449-19.216-22.598-28.514-31.572 1.687 10.456 5.606 28.675 11.332 31.427 2.163 1.04 5.871.145 6.73 2.005.86 1.861 7.158 7.16 10.451 9.02 3.294 1.861 22.049 9.593 24.054 9.88.938.133 3.542-.047 6.176-.29.074-.288.124-.539.124-.712 0-1.718-5.154-3.436-6.587-4.582-1.432-1.146-17.181-11.74-18.9-11.455z" opacity=".4"/>
        <path fill="#6957EE" d="M598.154 342.864s8.129-8.841 13.618-13.944c2.289-2.128 29.909 26.186 31.053 26.758 1.146.572 9.45-8.805 9.45-9.951 0-1.145-13.745-18.612-18.04-21.762-4.296-3.15-22.336-16.895-24.913-16.036-2.577.859-11.453 22.04-12.312 23.333-.859 1.294.572 9.597 1.144 11.602"/>
        <path fill="#27283B" d="M616.313 419.79c-2.027-.077-4.507-.618-6.53-1.293l-.07.106c-1.573 2.29-9.84 3.866-10.985 4.296-1.146.43-1.986 2.29-1.986 2.29s18.021-.143 18.88-.43c.361-.118.569-2.384.691-4.968M699.605 388.568c-.581 1.845-1.418 4.19-2.41 6.188.286.296.506.569.61.796.848 1.867-1.575 9.593-2.004 10.595-.43 1.002.488 2.72 1.032 2.72.542 0 7.129-10.164 8.13-12.027 1.002-1.86 1.719-3.866 1.576-4.438-.076-.297-3.579-2.134-6.934-3.834"/>
        <path fill="#B39660" d="M595.005 294.47c-1.998 1.332.789 5.097-.07 6.385-.86 1.289-.466 1.797-.68 1.84-.215.045 4.04 5.306 5.114 5.95 1.074.644 3.507-1.282 4.55-3.108 1.04-1.826.43-7.737 0-9.884-.43-2.148-6.981-2.47-8.914-1.182"/>
        <path fill="#27245B" d="M592.777 295.545c-.095 2.053 4.783 1.295 7.061 1.304 2.28.008 5.584 5.461 5.402 10.042-.187 4.771 4.584 8.626 9.664 7.553 3.792-.801 13.492 7.044 15.877 6.006 4.813-2.094.73-6.649.627-9.55-.14-3.973 3.113-6.662.062-11.814-4.288-7.242-16.157-3.327-18.52-5.26-2.362-1.932-8.172-7.516-14.225-5.681-4.32 1.309-5.771 3.664-5.948 7.4"/>
        <path fill="#27283B" d="M630.639 317.558c-1.091.322-2.99-1.073-3.42-2.255-.429-1.18-6.228-4.08-9.664-3.973-3.436.107-3.757-2.04-4.606-5.453-.849-3.414-3.984-2.278-6.238-3.352-2.256-1.074-2.148-5.369-3.222-6.336-.888-.8-3.457-.766-5.74.742.78-.04 1.517-.084 2.09-.082 2.28.008 5.583 5.461 5.4 10.042-.186 4.771 4.585 8.626 9.665 7.553 3.74-.79 13.209 6.81 15.757 6.028.338-1.445.605-3.1-.022-2.914"/>
        <path fill="#5F4DE2" d="M633.121 341.289l6.163-5.168 6.764 7.807a1.61 1.61 0 0 1-.1 2.213l-3.168 3.043a1.61 1.61 0 0 1-2.285-.057l-7.374-7.838M593.71 335.136c-2.93-.506 1.854-4.077 3.142-3.176 1.289.902 4.668 3.611 4.668 5.034 0 1.422.38 3.523.38 3.523s-3.067 3.931-3.816 3.413c-.75-.518-2.878-8.536-4.374-8.794M617.062 320.546c-.565-2.13-3.587-2.594-4.113-1.45a34.181 34.181 0 0 1-3.627 6.158c-2.003 2.72-2.433 2.72-3.34 4.553-.555 1.125-.2 2.93-.326 5.147 3.816-3.914 8.044-8.047 9.968-9.23.498-.303.89-.748 1.057-1.307.3-.996.79-2.326.381-3.87"/>
        <path fill="#FFF" fill-rule="nonzero" d="M0 139.346l94.368-2.76c-5.887-16.555-16.74-22.81-32.56-18.762-5.519-7.359-12.509-11.038-20.97-11.038-8.462 0-16.188 6.623-23.179 19.867C5.886 121.87 0 126.101 0 139.346zM232.292 33.111l93.816-2.759c-2.208-7.358-7.174-11.22-14.9-11.589-3.68-6.99-9.566-9.381-17.66-7.174C289.87 3.863 284.535 0 277.544 0c-10.485 0-15.452 11.037-15.452 13.245-5.518-.368-9.749 2.023-12.692 7.174-12.51-4.415-18.212-.184-17.108 12.692zM624.08 38.423l65.672-1.104c-2.576-6.99-7.726-9.382-15.452-7.174-3.68-5.519-9.198-8.278-16.556-8.278-7.358 0-12.509 3.863-15.452 11.589-10.302-1.84-16.372-.184-18.212 4.967z"/>
        <path fill="#4ABCFF" fill-rule="nonzero" d="M321 491h18l-11 18h-18z" opacity=".7"/>
        <path fill="#2DB0FF" fill-rule="nonzero" d="M719 126h18l-11 18h-18z" opacity=".4"/>
        <path fill="#2DB0FF" fill-rule="nonzero" d="M137 40h18l-11 18h-18z"/>
    </g>
</svg>
