<svg xmlns="http://www.w3.org/2000/svg" width="252" height="190" viewBox="0 0 252 190">
    <g fill="none" fill-rule="evenodd">
        <path fill="#F3FAFF" d="M216.054 94.866c0 49.498-40.126 89.624-89.624 89.624-49.5 0-89.625-40.126-89.625-89.624 0-49.5 40.126-89.626 89.625-89.626 49.498 0 89.624 40.127 89.624 89.626"/>
        <path fill="#FFF" d="M193.31 62.83a5.622 5.622 0 0 0-5.622-5.623H45.083c-5.31 11.45-8.278 24.207-8.278 37.659 0 49.498 40.126 89.624 89.625 89.624 26.587 0 50.466-11.58 66.88-29.97V62.83"/>
        <path fill="#ECF6F6" d="M171.422 83.315H36.657a2.526 2.526 0 1 1 0-5.052h134.765a2.526 2.526 0 0 1 0 5.052M169.45 175.982h-64.48a4.498 4.498 0 0 1-4.498-4.498v-11.222a4.498 4.498 0 0 1 4.497-4.498h64.482a4.498 4.498 0 0 1 4.498 4.498v11.222a4.498 4.498 0 0 1-4.498 4.498M169.45 146.26h-64.48a4.498 4.498 0 0 1-4.498-4.498v-11.223a4.497 4.497 0 0 1 4.497-4.497h64.482a4.498 4.498 0 0 1 4.498 4.497v11.223a4.498 4.498 0 0 1-4.498 4.498M169.45 116.537h-64.48a4.497 4.497 0 0 1-4.498-4.498v-11.222a4.497 4.497 0 0 1 4.497-4.497h64.482a4.497 4.497 0 0 1 4.498 4.497v11.222a4.498 4.498 0 0 1-4.498 4.498M80.063 96.32h-42.13c-.383 0-.753.052-1.108.143.587 33.567 19.625 62.632 47.408 77.487.21-.519.328-1.085.328-1.679v-71.454a4.498 4.498 0 0 0-4.498-4.498"/>
        <path fill="#E4F2F9" d="M193.31 63c0-3.199-2.594-5.793-5.794-5.793H45.083a88.917 88.917 0 0 0-4.957 13.412H71.79l1.806-3.037a4.455 4.455 0 0 1 3.83-2.179h25.242c1.571 0 3.026.828 3.83 2.179l1.804 3.037h85.009v-7.618"/>
        <path fill="#E05A54" d="M47.758 64.555a1.554 1.554 0 1 1-3.109 0 1.554 1.554 0 0 1 3.109 0"/>
        <path fill="#F5CD2F" d="M53.975 64.555a1.554 1.554 0 1 1-3.108 0 1.554 1.554 0 0 1 3.108 0"/>
        <path fill="#519DC8" d="M60.193 64.555a1.554 1.554 0 1 1-3.109 0 1.554 1.554 0 0 1 3.11 0"/>
        <path fill="#E4F2F9" d="M126.43.084c-12.794 0-25.207 2.507-36.895 7.45-11.287 4.775-21.423 11.608-30.126 20.311-8.703 8.703-15.536 18.839-20.31 30.126-4.944 11.688-7.45 24.101-7.45 36.895 0 12.793 2.506 25.206 7.45 36.894 4.774 11.287 11.607 21.423 20.31 30.126 8.703 8.703 18.839 15.536 30.126 20.31 11.688 4.944 24.101 7.451 36.895 7.451 12.793 0 25.206-2.507 36.895-7.45 11.286-4.775 21.422-11.608 30.125-20.311s15.536-18.839 20.31-30.126c4.944-11.688 7.451-24.101 7.451-36.894 0-12.794-2.507-25.207-7.45-36.895-4.775-11.287-11.608-21.423-20.311-30.126-8.703-8.703-18.839-15.536-30.125-20.31C151.635 2.59 139.223.084 126.43.084m0 5.156c49.498 0 89.624 40.127 89.624 89.626 0 49.498-40.126 89.624-89.624 89.624-49.5 0-89.625-40.126-89.625-89.624 0-49.5 40.126-89.626 89.625-89.626"/>
        <path fill="#EBD29D" d="M215.626 103.644a122.535 122.535 0 0 1-2.779-5.697c-2.134-4.72-1.814-17.955-3.74-19.87-1.928-1.915-9.243-.335-12.458 11.265-1.627 5.875-11.042 68.325-11.042 68.325s-36.042 14.815-36.116 20.886c-.01.762 1.042 1.477 2.915 2.109 34.134-10.321 59.664-40.45 63.22-77.018"/>
        <path fill="#A8CAE0" d="M179.944 166.76l.008-.005a.066.066 0 0 1-.008.006m.039-.03l.037-.027-.037.028m.042-.032a90.149 90.149 0 0 0 1.946-1.496 89.963 89.963 0 0 0-1.946 1.496"/>
        <path fill="#DAEFF0" d="M173.949 170.864a89.868 89.868 0 0 0 6.076-4.164l-.005.004-.037.028-.03.023-.01.006a89.834 89.834 0 0 1-5.994 4.103m8.022-5.66"/>
        <path fill="#9AC2CD" d="M170.565 172.881a89.11 89.11 0 0 1 .002 0h-.002"/>
        <path fill="#DAEFF0" d="M173.949 162.79v-.14l15.124-27.648c-1.935 12.508-3.466 22.665-3.466 22.665s-5.202 2.138-11.658 5.124"/>
        <path fill="#9AC2CD" d="M173.845 162.888l.13-.238v.178l-.13.06"/>
        <path fill="#A8CAE0" d="M185.028 162.694l.043-.037-.043.037m.1-.086l.004-.004-.005.004"/>
        <path fill="#D8B25E" d="M168.277 173.018l5.568-10.18.104-.047c6.456-2.986 11.658-5.124 11.658-5.124s1.531-10.157 3.466-22.665l1.265-2.313c1.503-10.284 3.168-21.407 4.563-30.033 7.935 3.773 14.403 9.714 18.082 15.53-4.704 17.502-14.573 32.886-27.872 44.418l-.004.003-.045.04-.034.028a89.963 89.963 0 0 1-3.056 2.528l-.001.001-.037.03a89.868 89.868 0 0 1-11.37 7.647c-1.454.09-2.287.137-2.287.137"/>
        <path fill="#32327B" d="M210.073 127.11L165.41 34.923a9.52 9.52 0 0 0-12.718-4.417l-52.31 25.343a9.52 9.52 0 0 0-4.416 12.718l51.44 106.175a9.508 9.508 0 0 0 7.106 5.255c25.505-8.41 45.944-27.957 55.561-52.887"/>
        <path fill="#FFFFFE" d="M163.18 38.731a7.867 7.867 0 0 0-10.51-3.65l-48.683 23.587a7.867 7.867 0 0 0-3.65 10.51l49.427 102.02a7.867 7.867 0 0 0 10.51 3.65l24.275-11.762a89.904 89.904 0 0 0 23.64-31.454l-45.01-92.901"/>
        <path fill="#ECF6F6" d="M167.53 91.17l-29.376 14.233a4.363 4.363 0 0 1-5.83-2.024l-14.856-30.664a4.363 4.363 0 0 1 2.024-5.83l29.377-14.232a4.363 4.363 0 0 1 5.83 2.024l14.856 30.665a4.363 4.363 0 0 1-2.024 5.829M181.737 101.428l-43.745 21.194c-.88.427-1.94.059-2.367-.821l-.169-.35a1.771 1.771 0 0 1 .822-2.366l43.746-21.195a1.772 1.772 0 0 1 2.366.823l.17.349c.426.88.058 1.94-.823 2.366M184.211 112.309l-39.213 18.998c-.88.427-1.94.059-2.367-.822l-.17-.349a1.771 1.771 0 0 1 .823-2.366l39.213-18.999a1.772 1.772 0 0 1 2.367.822l.169.35c.427.88.059 1.94-.822 2.366"/>
        <path fill="#95C3C8" d="M153.898 80.38c-.343.009-.71.03-1.116.065-1.1.094-2.272.082-3.348-.169-.624-.146-1.075-.46-1.366-.874-.155-.502-.165-1.1-.03-1.727.325-1.496.434-3.038.58-4.563a1.72 1.72 0 0 0-.203-.935 1.34 1.34 0 0 0-.152-.292c-1.051-1.463-2.08-2.95-3.258-4.32-1.764-2.052-4.442-2.661-6.962-1.732a9.127 9.127 0 0 0-.443.18 8.796 8.796 0 0 0-.415.236c-2.29 1.4-3.473 3.88-2.955 6.536.345 1.774.874 3.504 1.37 5.235.029.101.078.202.135.3.12.284.353.575.608.74 1.288.83 2.566 1.7 3.94 2.372.577.283 1.04.66 1.337 1.094.145.485.112 1.034-.16 1.613-.47 1.001-1.188 1.928-1.943 2.732-.279.297-.523.572-.743.836-1.638 1.548-1.811 2.633-.768 4.67.187.402.42.833.709 1.316.625 1.048 1.465 1.493 2.462 1.131.044-.012.088-.024.133-.04.814-.298 4.579-2.106 8.322-3.937 3.757-1.804 7.51-3.637 8.248-4.092.04-.024.077-.052.115-.079.9-.557 1.073-1.493.637-2.633-.2-.525-.394-.976-.593-1.372-.952-2.08-1.91-2.617-4.141-2.291"/>
        <path fill="#ECF6F6" d="M198.355 142.99l-38.046 18.433a4.497 4.497 0 0 1-6.009-2.087l-2.122-4.38a4.498 4.498 0 0 1 2.086-6.01l38.047-18.432a4.498 4.498 0 0 1 6.008 2.086l2.123 4.38a4.498 4.498 0 0 1-2.087 6.01"/>
        <path fill="#61E3F0" d="M103.068 42.103c.883 1.896 1.843 3.165 2.67 3.479.285.108.639.143 1.116-.414-.014-.286-.68-1.248-2.677-2.45a17.938 17.938 0 0 0-1.109-.615zm-38.296 58.904a.793.793 0 0 1-.79-.719c-4.099-43.38 7.908-57.232 18.702-61.212 6.142-2.265 12.667-1.531 17.604.151-1.063-3.499-1.7-7.7-1.593-11.656.201-7.477 2.989-12.451 7.848-14.004 2.79-.89 5.89-.379 8.965 1.483 6.92 4.19 13.087 14.763 14.997 25.712a.794.794 0 0 1-.645.918.798.798 0 0 1-.918-.645c-1.836-10.531-7.699-20.659-14.255-24.628-2.71-1.64-5.287-2.088-7.66-1.328-5.625 1.796-6.64 8.625-6.746 12.535-.122 4.536.738 8.993 1.92 12.343 2.808 1.194 4.884 2.654 5.738 3.87.87 1.237.39 2.051.145 2.344-1.11 1.318-2.299 1.126-2.909.894-1.562-.593-3.067-2.847-4.234-5.917-5.362-2.114-13.93-3.48-21.525 1.295-8.313 5.229-17.465 19.483-13.854 57.696a.793.793 0 0 1-.715.864l-.075.004z"/>
        <path fill="#CAB388" d="M146.174 171.288s-13.288-9.337-18.889-3.49c-.975 1.019-2.24 13.157 3.316 16.588l.006.004a89.329 89.329 0 0 0 23.884-4.387c-2.993-3.955-7.365-7.998-8.317-8.715"/>
        <path fill="#D8BF8C" d="M138.38 155.633c1.671 1.26 13.898 12.78 10.66 16.063-4.634 4.7-20.619.505-26.234-2.964-5.555-3.432-4.29-15.57-3.315-16.588 5.6-5.847 18.888 3.489 18.888 3.489"/>
        <path fill="#EBD29D" d="M123.172 125.952c-2.76 1.62-9.32 10.475-9.458 14.696-.137 4.222 6.128 12.469 9.997 14.747 6.42 3.78 12.933 6.809 18.061 6.16 3.652-.461 8.4-4.48.7-15.26-1.366-1.913-9.647-6.532-13.701-9.327-1.38-.95-1.718-2.372-2.19-3.98l-3.409-7.036"/>
        <path fill="#F8F9FB" d="M137.861 160.039c-3.577-.23-8.201-2.577-9.086-5.4-.934-2.98 3.213-7.388 7.557-5.11 8.48 4.448 7.776 10.912 1.53 10.51M142.055 173.397c-3.578-.23-7.818-.604-8.704-3.428-.934-2.98 3.213-7.388 7.557-5.11 8.48 4.448 7.394 8.94 1.147 8.538"/>
        <path fill="#DAEFF0" d="M77.846 170.193c-17.891-11.564-31.401-29.33-37.487-50.255a.078.078 0 0 0 .005-.002c6.085 20.923 19.595 38.69 37.486 50.253l-.004.004"/>
        <path fill="#3E3F3C" d="M60.538 162.997a94.416 94.416 0 0 1-21.44-31.237c4.775 11.287 11.608 21.423 20.311 30.126.373.374.75.744 1.129 1.11"/>
        <path fill="#DAEFF0" d="M84.56 158.346v-18.9a31.91 31.91 0 0 1 1.425 9.453c0 3.287-.499 6.46-1.424 9.447"/>
        <path fill="#D1E6E8" d="M77.85 170.19c-17.891-11.564-31.4-29.33-37.486-50.254a31.777 31.777 0 0 1 13.611-3.046c14.361 0 26.544 9.506 30.586 22.557v18.9a32.012 32.012 0 0 1-6.711 11.842"/>
        <path fill="#D4E9EB" d="M74.003 173.842a95.31 95.31 0 0 1-14.594-11.956c-8.703-8.703-15.536-18.839-20.31-30.126a94.61 94.61 0 0 1-3.33-9.168 32.085 32.085 0 0 1 4.59-2.654c6.086 20.925 19.596 38.691 37.487 50.255a32.333 32.333 0 0 1-3.843 3.65"/>
        <path fill="#FFFFFE" d="M16.574 140.18c0-16.365 13.265-29.63 29.63-29.63 16.363 0 29.629 13.265 29.629 29.63 0 16.363-13.266 29.628-29.63 29.628-16.364 0-29.63-13.265-29.63-29.629"/>
        <path fill="#E4F2F9" d="M46.203 112.93c-15.025 0-27.25 12.224-27.25 27.25 0 15.024 12.225 27.248 27.25 27.248s27.25-12.224 27.25-27.249c0-15.025-12.225-27.25-27.25-27.25zm0 59.258c-17.65 0-32.009-14.36-32.009-32.009 0-17.65 14.359-32.01 32.01-32.01 17.65 0 32.008 14.36 32.008 32.01s-14.359 32.009-32.009 32.009z"/>
        <path fill="#75E5AA" d="M33.697 146.102h10.391a2.9 2.9 0 0 1 2.9 2.9c0 2.583 3.123 3.876 4.95 2.05l8.822-8.823a2.9 2.9 0 0 0 0-4.1l-8.823-8.823c-1.826-1.827-4.95-.533-4.95 2.05a2.9 2.9 0 0 1-2.899 2.9H33.697a2.9 2.9 0 0 0-2.9 2.9v6.047a2.9 2.9 0 0 0 2.9 2.9"/>
        <path fill="#F0F8FD" d="M0 30.622s.311-9.519 6.028-9.605c3.907-.06 4.378 1.998 5.234 1.713 1.554-2.866 4.669-4.247 8.19-4.437.38-3.522 4.092-8.294 9.041-8.224 7.519-.887 9.78 7.047 10.464 7.331 3.236-1.047 7.999-.82 11.235 4.509 8.66-.095 9.654 6.864 9.654 6.864L0 30.622zM206 182.85s.24-7.316 4.633-7.382c3.003-.046 3.365 1.536 4.023 1.317 1.195-2.203 3.589-3.264 6.295-3.41.293-2.708 3.146-6.376 6.95-6.322 5.779-.682 7.516 5.417 8.042 5.635 2.488-.805 6.149-.63 8.636 3.466 6.657-.073 7.421 5.276 7.421 5.276l-46 1.42z"/>
    </g>
</svg>
