<svg xmlns="http://www.w3.org/2000/svg" width="125" height="14" viewBox="0 0 125 14">
    <g fill="#FFF" fill-rule="nonzero">
        <path d="M57.857.7h2.936a3.85 3.85 0 1 1 0 7.7h-2.936v4.9h-3.214V.7h3.214zm-20 2.8V.7h6.15a3.85 3.85 0 0 1 1.363 7.452l2.793 5.148h-3.64l-2.66-4.9h-.792v4.9h-3.214V3.5zm81.429 2.1H125v2.8h-5.714v2.1H125v2.8h-8.929V.7H125v2.8h-5.714v2.1zm-39.643 0h5.714v2.8h-5.714v2.1h5.714v2.8H76.43V.7h8.928v2.8h-5.714v2.1zm-10 4.55h5v3.15h-8.214V.7h3.214v9.45zm41.428 3l-5.357-7.226V13.3H102.5V.7h3.214v.071l.1-.071 5.257 7.09V.7h3.215v12.6h-3.05l-.035.024-.018-.024h-.112v-.15zM32.5 3.5v9.8h-3.214V3.5h-3.572V.7h10.357v2.8H32.5zM49.643.7h3.214v12.6h-3.214V.7zM41.07 3.15v2.8h2.172a1.4 1.4 0 1 0 0-2.8H41.07zm16.786 0v2.8h2.172a1.4 1.4 0 1 0 0-2.8h-2.172zM93.93 13.3c-3.55 0-6.429-2.82-6.429-6.3S90.378.7 93.929.7c3.55 0 6.428 2.82 6.428 6.3s-2.878 6.3-6.428 6.3zm0-3.15c1.775 0 3.214-1.41 3.214-3.15s-1.44-3.15-3.214-3.15c-1.776 0-3.215 1.41-3.215 3.15s1.44 3.15 3.215 3.15zM9.286 3.5V14H5.714V3.5H0V0h15v3.5H9.286zM0 5.6h3.571V14H0V5.6zm11.429 0H15V14h-3.571V5.6z"/>
    </g>
</svg>
