<svg xmlns="http://www.w3.org/2000/svg" width="120" height="22" viewBox="0 0 120 22">
    <g fill="none" fill-rule="evenodd">
        <path fill="#FFF" d="M29.693 18V7.398h-4.047V4.7h11.02v2.698h-4.047V18h-2.926zm8.911 0V7.816h2.888v2.052c.589-1.406 1.539-2.318 3.249-2.242v3.021h-.152c-1.919 0-3.097 1.159-3.097 3.591V18h-2.888zm7.999-11.305V4.13h3.04v2.565h-3.04zM46.679 18V7.816h2.888V18h-2.888zm5.605 3.04V7.816h2.888v1.463c.703-.95 1.672-1.653 3.173-1.653 2.375 0 4.636 1.862 4.636 5.301 0 3.401-2.223 5.263-4.636 5.263-1.539 0-2.489-.703-3.173-1.52v4.37h-2.888zm5.32-5.301c1.349 0 2.489-1.102 2.489-2.85 0-1.691-1.14-2.812-2.489-2.812s-2.47 1.121-2.47 2.85c0 1.691 1.121 2.812 2.47 2.812zM65.242 18V4.13h2.888V18h-2.888zm10.431.228c-3.059 0-5.32-2.147-5.32-5.301 0-2.907 2.071-5.301 5.035-5.301 3.401 0 4.959 2.641 4.959 5.529 0 .228-.019.494-.038.76h-7.087c.285 1.311 1.197 1.995 2.489 1.995.969 0 1.672-.304 2.47-1.045l1.653 1.463c-.95 1.178-2.318 1.9-4.161 1.9zm-2.489-6.118h4.351c-.171-1.292-.931-2.166-2.147-2.166-1.197 0-1.976.855-2.204 2.166zm16.074 6.118c-4.104 0-7.049-3.059-7.049-6.878 0-3.781 2.983-6.878 7.087-6.878 4.104 0 7.049 3.059 7.049 6.878 0 3.781-2.983 6.878-7.087 6.878zm.038-2.698c2.356 0 3.99-1.862 3.99-4.18 0-2.28-1.672-4.18-4.028-4.18s-3.99 1.862-3.99 4.18c0 2.28 1.672 4.18 4.028 4.18zM98.644 18V7.816h2.888V9.26c.665-.855 1.52-1.634 2.983-1.634 2.185 0 3.458 1.444 3.458 3.781V18h-2.888v-5.681c0-1.368-.646-2.071-1.748-2.071-1.102 0-1.805.703-1.805 2.071V18h-2.888zm16.663.228c-3.059 0-5.32-2.147-5.32-5.301 0-2.907 2.071-5.301 5.035-5.301 3.401 0 4.959 2.641 4.959 5.529 0 .228-.019.494-.038.76h-7.087c.285 1.311 1.197 1.995 2.489 1.995.969 0 1.672-.304 2.47-1.045l1.653 1.463c-.95 1.178-2.318 1.9-4.161 1.9zm-2.489-6.118h4.351c-.171-1.292-.931-2.166-2.147-2.166-1.197 0-1.976.855-2.204 2.166z"/>
        <path fill="#22AFFF" fill-rule="nonzero" d="M0 0h3v22H0zM12 0h3v22h-3zM6 0h3v22H6z"/>
    </g>
</svg>
