<svg xmlns="http://www.w3.org/2000/svg" width="119" height="22" viewBox="0 0 119 22">
    <g fill="none" fill-rule="evenodd">
        <path fill="#292424" d="M30.392 7.446V17h-2.907V7.446h-3.4V4.964h9.707v2.482h-3.4zM41.561 17l-2.601-4.777h-.986V17h-2.856V4.964h4.59c.578 0 1.142.06 1.692.178.55.12 1.042.32 1.479.604.436.283.784.657 1.045 1.122.26.465.391 1.043.391 1.734 0 .816-.221 1.502-.663 2.057-.442.555-1.054.952-1.836 1.19L44.961 17h-3.4zm-.119-8.347c0-.283-.06-.513-.178-.689a1.223 1.223 0 0 0-.46-.408 1.994 1.994 0 0 0-.629-.195 4.639 4.639 0 0 0-.671-.051h-1.547v2.805h1.377c.238 0 .482-.02.731-.06.25-.04.476-.11.68-.212.204-.102.371-.25.502-.442.13-.193.195-.442.195-.748zM46.389 17V4.964h2.924V17h-2.924zm14.535-8.33c0 .703-.13 1.295-.391 1.777-.26.481-.612.87-1.054 1.164-.442.295-.952.51-1.53.646a7.842 7.842 0 0 1-1.802.204h-1.445V17h-2.907V4.964h4.42c.657 0 1.272.065 1.844.196a4.35 4.35 0 0 1 1.497.628c.425.29.759.67 1.003 1.14.243.47.365 1.05.365 1.742zm-2.907.017c0-.283-.057-.516-.17-.697a1.184 1.184 0 0 0-.459-.425 1.97 1.97 0 0 0-.654-.204 5.47 5.47 0 0 0-.757-.051h-1.275v2.839h1.224c.272 0 .533-.023.782-.068a2.1 2.1 0 0 0 .672-.238c.198-.113.354-.263.467-.45.113-.188.17-.423.17-.706zM62.675 17V4.964h2.924v9.503h4.658V17h-7.582zm8.942 0V4.964h8.092v2.465h-5.287V9.69h4.998v2.329h-4.998v2.499h5.593V17h-8.398zm22.865-6.069c0 .952-.164 1.822-.493 2.61a5.942 5.942 0 0 1-1.368 2.022 6.089 6.089 0 0 1-2.083 1.301 7.305 7.305 0 0 1-2.618.459c-.94 0-1.81-.153-2.61-.459a6.106 6.106 0 0 1-2.073-1.3 5.942 5.942 0 0 1-1.369-2.024c-.329-.787-.493-1.657-.493-2.609 0-.963.164-1.833.493-2.61a5.713 5.713 0 0 1 1.369-1.98 6.097 6.097 0 0 1 2.074-1.258 7.486 7.486 0 0 1 2.609-.442c.94 0 1.813.147 2.618.442a6.08 6.08 0 0 1 2.083 1.258 5.713 5.713 0 0 1 1.368 1.98c.329.777.493 1.647.493 2.61zm-3.111 0a4.13 4.13 0 0 0-.255-1.462 3.484 3.484 0 0 0-.706-1.164 3.257 3.257 0 0 0-1.087-.765 3.444 3.444 0 0 0-1.403-.281c-.51 0-.975.093-1.394.28-.42.188-.782.442-1.088.766a3.309 3.309 0 0 0-.706 1.164c-.164.453-.246.94-.246 1.462a4.3 4.3 0 0 0 .255 1.505c.17.459.405.852.706 1.181.3.329.66.586 1.079.773.42.188.884.281 1.394.281.51 0 .975-.093 1.394-.28.42-.188.782-.445 1.088-.774.306-.329.544-.722.714-1.182a4.3 4.3 0 0 0 .255-1.504zM104.053 17l-4.845-7.871h-.051L99.225 17h-2.822V4.964h3.315l4.828 7.854h.051l-.068-7.854h2.822V17h-3.298zm5.78 0V4.964h8.092v2.465h-5.287V9.69h4.998v2.329h-4.998v2.499h5.593V17h-8.398z"/>
        <path fill="#22AFFF" fill-rule="nonzero" d="M0 0h3v22H0zM12 0h3v22h-3zM6 0h3v22H6z"/>
    </g>
</svg>
