<svg xmlns="http://www.w3.org/2000/svg" width="800" height="350" viewBox="0 0 800 350">
    <g fill="none" fill-rule="evenodd">
        <path fill="#FFF" fill-rule="nonzero" d="M0 0h800v350H0z"/>
        <path fill="#292424" d="M313.176 162.338V191h-8.721v-28.662h-10.2v-7.446h29.121v7.446h-10.2zM346.683 191l-7.803-14.331h-2.958V191h-8.568v-36.108h13.77c1.734 0 3.425.178 5.074.536 1.65.357 3.128.96 4.437 1.81a9.47 9.47 0 0 1 3.137 3.366c.782 1.394 1.173 3.128 1.173 5.202 0 2.448-.663 4.505-1.989 6.171-1.326 1.666-3.162 2.856-5.508 3.57L356.883 191h-10.2zm-.357-25.041c0-.85-.178-1.538-.536-2.066a3.669 3.669 0 0 0-1.377-1.223 5.981 5.981 0 0 0-1.887-.587 13.917 13.917 0 0 0-2.014-.153h-4.641v8.415h4.131c.714 0 1.445-.06 2.193-.178a6.988 6.988 0 0 0 2.04-.638 3.894 3.894 0 0 0 1.504-1.326c.392-.578.587-1.326.587-2.244zM361.167 191v-36.108h8.772V191h-8.772zm43.605-24.99c0 2.108-.391 3.884-1.173 5.33-.782 1.445-1.836 2.609-3.162 3.493-1.326.884-2.856 1.53-4.59 1.938a23.527 23.527 0 0 1-5.406.612h-4.335V191h-8.721v-36.108h13.26c1.972 0 3.816.195 5.534.586 1.717.392 3.212 1.02 4.488 1.887 1.275.868 2.277 2.006 3.009 3.417.73 1.412 1.096 3.154 1.096 5.228zm-8.721.051c0-.85-.17-1.547-.51-2.091a3.553 3.553 0 0 0-1.377-1.275 5.907 5.907 0 0 0-1.963-.612 16.41 16.41 0 0 0-2.27-.153h-3.825v8.517h3.672c.816 0 1.598-.068 2.346-.204a6.297 6.297 0 0 0 2.014-.714 3.825 3.825 0 0 0 1.403-1.352c.34-.56.51-1.266.51-2.116zM410.025 191v-36.108h8.772v28.509h13.974V191h-22.746zm26.826 0v-36.108h24.276v7.395h-15.861v6.783h14.994v6.987h-14.994v7.497h16.779V191h-25.194zm68.595-18.207c0 2.856-.493 5.465-1.479 7.828-.986 2.364-2.354 4.386-4.105 6.07-1.752 1.683-3.834 2.983-6.248 3.901-2.414.918-5.032 1.377-7.854 1.377s-5.431-.459-7.828-1.377c-2.398-.918-4.471-2.218-6.222-3.902-1.752-1.683-3.12-3.705-4.106-6.069-.986-2.363-1.479-4.972-1.479-7.828 0-2.89.493-5.5 1.479-7.829.986-2.329 2.354-4.309 4.106-5.941 1.75-1.632 3.824-2.89 6.222-3.774 2.397-.884 5.006-1.326 7.828-1.326s5.44.442 7.854 1.326c2.414.884 4.496 2.142 6.248 3.774 1.75 1.632 3.119 3.612 4.105 5.942.986 2.329 1.479 4.938 1.479 7.828zm-9.333 0c0-1.564-.255-3.026-.765-4.386-.51-1.36-1.215-2.524-2.116-3.494a9.77 9.77 0 0 0-3.264-2.295c-1.276-.56-2.678-.841-4.208-.841-1.53 0-2.924.28-4.182.841a10.125 10.125 0 0 0-3.264 2.295c-.918.97-1.623 2.134-2.116 3.494-.494 1.36-.74 2.822-.74 4.386 0 1.632.255 3.136.765 4.513.51 1.378 1.215 2.559 2.117 3.545a9.664 9.664 0 0 0 3.238 2.32c1.258.562 2.652.842 4.182.842 1.53 0 2.924-.28 4.182-.842a9.94 9.94 0 0 0 3.264-2.32c.918-.986 1.632-2.167 2.142-3.545.51-1.377.765-2.881.765-4.513zM534.159 191l-14.535-23.613h-.153l.204 23.613h-8.466v-36.108h9.945l14.484 23.562h.153l-.204-23.562h8.466V191h-9.894zm17.34 0v-36.108h24.276v7.395h-15.861v6.783h14.994v6.987h-14.994v7.497h16.779V191h-25.194z"/>
        <g fill="#22AFFF" fill-rule="nonzero">
            <path d="M222 140h9v66h-9zM258 140h9v66h-9zM240 140h9v66h-9z"/>
        </g>
    </g>
</svg>
