<svg xmlns="http://www.w3.org/2000/svg" width="281" height="250" viewBox="0 0 281 250">
    <g fill="none" fill-rule="evenodd">
        <path fill="#D0E7EC" d="M227.46 196.228h6.803"/>
        <path fill="#F3FAFF" d="M218.72 196.228H16.314V39.975a7.523 7.523 0 0 1 7.523-7.523h187.361a7.523 7.523 0 0 1 7.522 7.523v156.253"/>
        <path fill="#D8DDE9" d="M12 197v-1h210v1zM0 197v-1h3v1zM5 197v-1h5v1zM231 197v-1h3v1zM224 197v-1h5v1z"/>
        <path fill="#FFFFFE" d="M16.314 39.975v-.27a7.254 7.254 0 0 1 7.254-7.253h.269a7.523 7.523 0 0 0-7.523 7.523"/>
        <path fill="#E4F2F9" d="M177.686 49.244h-65.399l-2.26-3.802a5.577 5.577 0 0 0-4.795-2.728H73.628a5.577 5.577 0 0 0-4.795 2.728l-2.26 3.802H16.314v-9.27a7.523 7.523 0 0 1 7.523-7.522h157.417a50.915 50.915 0 0 0-3.568 16.792"/>
        <path fill="#E05A54" d="M36.484 41.652a1.946 1.946 0 1 1-3.892 0 1.946 1.946 0 0 1 3.892 0"/>
        <path fill="#F5CD2F" d="M44.27 41.652a1.946 1.946 0 1 1-3.894 0 1.946 1.946 0 0 1 3.893 0"/>
        <path fill="#519DC8" d="M52.054 41.652a1.946 1.946 0 1 1-3.893 0 1.946 1.946 0 0 1 3.893 0"/>
        <path fill="#E4F2F9" d="M122.027 92.961H42.503a6.018 6.018 0 0 1-6.019-6.018V74.676a6.019 6.019 0 0 1 6.019-6.018h79.524a6.018 6.018 0 0 1 6.018 6.018v12.267a6.018 6.018 0 0 1-6.018 6.018"/>
        <path fill="#75E5AA" d="M122.027 122.273H42.503a6.018 6.018 0 0 1-6.019-6.018v-12.267a6.019 6.019 0 0 1 6.019-6.018h79.524a6.018 6.018 0 0 1 6.018 6.018v12.267a6.018 6.018 0 0 1-6.018 6.018"/>
        <path fill="#E4F2F9" d="M122.027 180.897H42.503a6.018 6.018 0 0 1-6.019-6.018v-12.267a6.019 6.019 0 0 1 6.019-6.019h79.524a6.018 6.018 0 0 1 6.018 6.019v12.267a6.018 6.018 0 0 1-6.018 6.018M121.136 151.585H41.613a6.018 6.018 0 0 1-6.019-6.018V133.3a6.018 6.018 0 0 1 6.02-6.018h79.522a6.018 6.018 0 0 1 6.019 6.018v12.267a6.018 6.018 0 0 1-6.019 6.018M188.994 151.585h-34.319a6.018 6.018 0 0 1-6.018-6.018v-70.89a6.018 6.018 0 0 1 6.018-6.02h34.32a6.019 6.019 0 0 1 6.017 6.02v70.89a6.018 6.018 0 0 1-6.018 6.018"/>
        <path fill="#D1E5E6" d="M119.14 97.97h-7.638V92.96h10.525a6.018 6.018 0 0 0 6.018-6.018V78.85h20.612v17.268h-24.42a7.93 7.93 0 0 0-4.95 1.735l-.147.118"/>
        <path fill="#ABCCD5" d="M122.027 92.961h-10.525v-6.589a7.523 7.523 0 0 1 7.523-7.523h9.02v8.094a6.018 6.018 0 0 1-6.018 6.018"/>
        <path fill="#59DD98" d="M112.764 102.72c-.65 0-1.262-.51-1.262-1.258V97.97h7.638l-5.598 4.474a1.236 1.236 0 0 1-.778.277"/>
        <path fill="#D1E6E9" d="M155.996 96.117h-7.339V78.849h7.34a7.523 7.523 0 0 1 7.522 7.523v2.222a7.523 7.523 0 0 1-7.523 7.523"/>
        <path fill="#7461FF" d="M151.611 91.437h-31.758a7.933 7.933 0 0 0-4.95 1.735l-5.745 4.591c-.823.658-2.04.072-2.04-.98V81.691a7.523 7.523 0 0 1 7.522-7.523h36.971a7.523 7.523 0 0 1 7.523 7.523v2.222a7.523 7.523 0 0 1-7.523 7.523"/>
        <path fill="#FFFFFE" d="M127.287 83.239a1.947 1.947 0 1 1-3.893 0 1.947 1.947 0 0 1 3.893 0M135.072 83.239a1.947 1.947 0 1 1-3.893 0 1.947 1.947 0 0 1 3.893 0M142.857 83.239a1.947 1.947 0 1 1-3.894-.001 1.947 1.947 0 0 1 3.894 0"/>
        <path fill="#334086" d="M167.49 118.701a5.527 5.527 0 0 0-3.945 1.63c-2.057 2.063-2.558 5.646-1.373 9.829.956 3.377 3.956 6.07 8.093 7.606 3.624-3.913 5.507-8.346 4.673-11.796-.89-3.687-3.013-6.253-5.822-7.042a6.003 6.003 0 0 0-1.627-.227zm-19.767 29.252c-.917 0-1.86-.038-2.827-.122-8.216-.71-16.217-4.46-23.78-11.146l.351-.398c20.088 17.758 37.546 9.567 42.418 6.631a29.603 29.603 0 0 0 5.988-4.737c-4.188-1.611-7.227-4.395-8.212-7.877-1.238-4.373-.689-8.145 1.508-10.347 1.586-1.59 3.861-2.166 6.091-1.54 2.999.841 5.256 3.549 6.194 7.429.86 3.561-1.014 8.1-4.654 12.11 2.559.87 5.525 1.308 8.677 1.214 11.15-.333 24.55-7.457 28.723-26.45l.518.114c-4.238 19.292-17.876 26.527-29.225 26.866-3.32.102-6.416-.38-9.084-1.322a29.872 29.872 0 0 1-6.25 4.995c-3.598 2.167-9.226 4.58-16.436 4.58z"/>
        <path fill="#0E111B" d="M218.72 110.533v-8.91 8.91"/>
        <path fill="#D0E7EC" d="M218.72 110.533c-9.315-2.792-17.501-8.196-23.708-15.362v-5.375c6.614 5.843 14.74 10.008 23.708 11.827v8.91"/>
        <path fill="#D1E6E9" d="M195.012 95.17a50.53 50.53 0 0 1-9.631-16.749 51.67 51.67 0 0 0 9.631 11.375v5.375"/>
        <path fill="#7461FF" d="M228.928 99.723c-26.669 0-48.365-21.696-48.365-48.365s21.696-48.365 48.365-48.365c26.668 0 48.364 21.696 48.364 48.365 0 26.67-21.696 48.365-48.364 48.365"/>
        <path fill="#E4F2F9" d="M228.928.074c-28.278 0-51.285 23.006-51.285 51.284s23.007 51.285 51.285 51.285c28.278 0 51.284-23.007 51.284-51.285 0-28.278-23.006-51.284-51.284-51.284m0 5.838c25.099 0 45.445 20.348 45.445 45.446 0 25.099-20.346 45.446-45.445 45.446-25.1 0-45.446-20.347-45.446-45.446 0-25.098 20.347-45.446 45.446-45.446"/>
        <path fill="#2A2A5B" d="M218.317 66.794c-3.377-1.834-1.587-8.73-.794-10 .794-1.27-3.334-6.508-3.492-9.682-.158-3.175 2.262-6.995 3.056-7.47.794-.477-.247-7.22 4.761-9.921 4.916-2.65 7.917-1.733 9.766-.815 1.196.593 1.91 1.187 2.346.815 1.11-.947 4.41-.516 6.578 1.587 6.666 6.468 2.936 9.564 5 11.785 1.148 1.237 4.44 3.198 5.475 6.072 3.493 9.684 0 7.312.16 9.375.158 2.064 1.428 7.777.158 10.635-1.27 2.856-21.904 3.65-33.014-2.381"/>
        <path fill="#0C0F18" d="M247.005 64.003c-.648-2.33-1.142-3.835-1.348-3.886l-.003-.001c-.266-.066-1.277-.178-2.689-.303-3.34-.296-8.927-.665-12.207-.665-.385 0-.738.005-1.053.016-2.002.07-4.977.536-7.917 1.118-.1-1.924-.598-3.69.219-5.324 1.27-2.54-1.428-3.968-1.746-6.507-.318-2.54 4.53-7.66 8.086-7.976.52-.047.959-.075 1.337-.075 2.204 0 2.387.958 5.232 4.836.656.894 1.48 1.122 2.446 1.122.507 0 1.053-.062 1.634-.126a17.017 17.017 0 0 1 1.846-.125c.66 0 1.354.065 2.077.262 3.492.953 4.325 6.339 2.261 8.034-2.063 1.695 4.023 4.84 4.393 6.904.142.798-1.05 1.785-2.568 2.696"/>
        <path fill="#9DE6FF" d="M253.282 89.732c-1.604-6.981-6.821-29.415-7.625-29.615-.952-.239-11.828-1.096-15.952-.953-4.123.143-12.362 1.964-15.952 3.038-.987.295-3.452 5.414-4.404 7.2-.795 1.49-5.983 14.17-7.677 18.324a45.453 45.453 0 0 0 7.706 4.668l5.958-14.659s1.274 4.642 1.751 5.476c.476.833 3.095 3.095 3.095 3.095l1.519 9.924c2.353.376 4.767.574 7.227.574 4.45 0 8.75-.643 12.815-1.835.015-.849.045-1.803.105-2.21.119-.807-1.548-13.278-1.548-13.278l4.145 14.604a45.279 45.279 0 0 0 8.837-4.353"/>
        <path fill="#BDAE85" d="M224.57 48.147s1.564 5.84 1.325 7.865c-.237 2.024-3.872 3.914-4.11 4.271-.237.357 5.692 7.276 7.92 7.276 2.381 0 3.928-5.062 4.285-5.895.358-.833.926-2.396.926-2.396s-2.235-.645-2.711-1.415-1.072-11.484-1.072-11.484l-6.563 1.778"/>
        <path fill="#C7B88A" d="M221.64 36.013c2.289-1.145 2.46.912 4.523-.357 2.064-1.27 1.552 3.033 3.661 3.866 3.822 1.51 3.474 2.62 3.403 6.41-.056 2.954-3.77 6.885-5.337 7.342-1.71.497-6.157-4.339-7.56-8.928-.414-1.358.873-2.163.715-3.274-.159-1.111-.992-4.266.595-5.06"/>
        <path fill="#F4B92A" d="M228.928 96.804h-.041.04"/>
        <path fill="#0D0F13" d="M245.657 60.117l-.003-.001h.003m-.003 0c-.266-.066-1.277-.178-2.689-.303 1.412.125 2.423.237 2.689.303"/>
        <path fill="#8CD9F2" d="M228.928 96.804h-.041a45.963 45.963 0 0 1-2.458-.077c1.572-1.92 2.95-5.027 2.499-6.612-3.033-10.634 7.086-8.531 7.086-13.809 0-2.454 2.22-6.865 3.571-7.856 2.382-1.747-.713-2.977-.713-5.238 0-1.032.595-2.42 1.24-3.627 1.045.076 2.02.154 2.853.228 1.412.125 2.423.237 2.689.303h.003c.804.201 6.02 22.635 7.625 29.616a45.279 45.279 0 0 1-8.837 4.353L240.3 79.48s1.555 11.633 1.554 13.156a.99.99 0 0 1-.006.123c-.06.406-.09 1.36-.105 2.209a45.44 45.44 0 0 1-12.604 1.835H228.928"/>
        <path fill="#FFFFFE" d="M201.205 27.852c0 8.11-6.575 14.685-14.685 14.685s-14.685-6.575-14.685-14.685 6.574-14.685 14.685-14.685c8.11 0 14.685 6.575 14.685 14.685"/>
        <path fill="#E4F2F9" d="M201.205 27.852h-2.123a12.512 12.512 0 0 1-3.68 8.882 12.514 12.514 0 0 1-8.882 3.68 12.514 12.514 0 0 1-8.883-3.68 12.512 12.512 0 0 1-3.679-8.882 12.513 12.513 0 0 1 3.679-8.883 12.514 12.514 0 0 1 8.883-3.68 12.514 12.514 0 0 1 8.882 3.68 12.513 12.513 0 0 1 3.68 8.883h4.246a16.766 16.766 0 0 0-4.923-11.885 16.766 16.766 0 0 0-11.885-4.923 16.766 16.766 0 0 0-11.886 4.923 16.766 16.766 0 0 0-4.922 11.885 16.765 16.765 0 0 0 4.922 11.885 16.766 16.766 0 0 0 11.886 4.923 16.766 16.766 0 0 0 11.885-4.923 16.766 16.766 0 0 0 4.923-11.885h-2.123"/>
        <path fill="#75E5AA" d="M186.52 26.938l6.59-4.625-.09-.009h-13l-.12.012 6.62 4.622"/>
        <path fill="#75E5AA" d="M186.675 28.49a.27.27 0 0 1-.31.001l-7.007-4.893a.896.896 0 0 0-.24.608v8.125c0 .499.403.903.902.903h13a.903.903 0 0 0 .902-.903v-8.125a.898.898 0 0 0-.253-.624l-6.994 4.908"/>
        <path fill="#C7B88A" d="M141.015 237.15l5.432 5.46-2.359 2.943-6.476-5.19 3.403-3.212M71.208 129.474l8.567-14.71 2.664 3.93-5.824 15.43-5.407-4.65"/>
        <path fill="#C7B88A" d="M79.942 121.373c2.497 2.133 6.54 4.128 8.423 3.07 1.884-1.057 5.112-7.406 5.47-8.12.357-.715-1.896-2.17-1.538-3.563.357-1.393-.371-7.29-1.347-7.827-.976-.536-6.93-.894-8.51 1.072-1.581 1.966-2.498 15.368-2.498 15.368"/>
        <path fill="#2A2A5B" d="M83.39 100.758a3.942 3.942 0 0 1 1.953-.117c2.316.444 5.452 1.23 7.311 1.075 2.145-.179 4.94.621 4.047 2.795-.894 2.174-3.138 4.441-4.568 4.084-1.43-.358-5.416-.602-6.002.449-.235.421-.952 1.23-1.036 2.236a1.51 1.51 0 0 1-1.96 1.317c-.254-.081-.496-.05-.696.163-.866.93-.742 4.148 0 4.684.743.536-2.488 4.376-4.501 4.468-2.391.11-4.943-.745-5.48-2.144-.536-1.4 3.263-2.503 3.039-5.005-.225-2.502.165-8.937 2.055-10.724 1.406-1.328 4.149-2.737 5.838-3.28"/>
        <path fill="#C7B88A" d="M87.154 230.23l-4.75 6.587-4.189-2.152 5.6-7.373 3.34 2.938"/>
        <path fill="#2A2A5B" d="M83.07 236.248c.007 1.669 8.136 10.774 9.033 11.414.898.64.327 2.412-.689 1.985-1.016-.427-15.051-9.505-15.757-10.915-.917-1.834 3.397-5.25 3.397-5.25l4.017 2.766"/>
        <path fill="#32327B" d="M88.033 234.335l32.441-41.046a3.793 3.793 0 0 0-.208-4.946l-.122-.13a8.12 8.12 0 0 0-6.371-2.554l-11.923.658-22.312 43.297 8.495 4.721"/>
        <path fill="#0E111B" d="M81.306 230.596l-1.768-.982 1.768.982"/>
        <path fill="#957C47" d="M83.587 231.864l-2.281-1.268 2.281 1.268"/>
        <path fill="#2A2B72" d="M83.587 231.864l-4.049-2.25 16.471-31.962c2.575.261 4.864.49 6.648.664-3.09 3.362-5.426 6.29-5.69 7.692-.844 4.493-8.612 16.317-10.904 18.591-1.645 1.634-2.14 4.04-2.476 7.265"/>
        <path fill="#2A2A5B" d="M157.661 237.923c.799.471-1.685 2.792-2.696 3.364-1.01.571-5.243 2.75-6.78 3.636-1.539.884-3.105 1.978-3.66 1.809-.555-.17-2.119-2.527-2.119-2.527l3.143-2.498s11.456-4.172 12.112-3.784"/>
        <path fill="#6957EE" d="M71.377 122.202c-.485 1.219-.154 3.06-1.46 4.964-4.77 6.958-11.067 17.41-11.344 23.633-.256 5.758 0 21.788 0 21.788s15.993 2.998 18.853 1.569c2.86-1.43 4.497-35.153 3.782-39.085-.715-3.932-1.43-7.15-1.43-7.15l-8.4-5.719"/>
        <path fill="#D0E7EC" d="M80.577 156.593"/>
        <path fill="#A4CEDF" d="M79.182 168.857c.565-3.267 1.037-7.687 1.395-12.264-.358 4.577-.83 8.997-1.395 12.264M80.924 151.585c.465-7.707.589-14.817.285-16.509.304 1.692.18 8.802-.285 16.509"/>
        <path fill="#5F4DE2" d="M77.708 173.907a457.094 457.094 0 0 0-8.62-1.719c.658-2.996.844-5.636 3.72-8.52 3.301-3.312-.775-8.222-1.163-13.226-.388-5.005-2.949-7.328-2.859-11.797.076-3.812 5.682-7.494 10.517-11.046l.475.322s.715 3.218 1.43 7.15v.005c.305 1.692.18 8.802-.284 16.509-.1 1.658-.216 3.344-.347 5.008-.358 4.577-.83 8.997-1.395 12.264-.438 2.527-.932 4.364-1.474 5.05"/>
        <path fill="#6957EE" d="M74.037 135.972c-3.365 2.004-2.928 11.163-1.23 14.202 1.698 3.038 17.158 25.825 18.23 26.094 1.073.268 21.336 3.329 22.23 3.239.893-.09 2.16-5.447 2.16-5.447l-15.33-4.642a4.771 4.771 0 0 1-3.583-2.946c-2.224-5.65-11.207-19.63-12.475-21.813-1.608-2.771-4.254-12.11-10.002-8.687"/>
        <path fill="#32327B" d="M62.262 171.174c-11.105.786-3.932 21.09 1.43 22.52 5.362 1.43 42.895 5.004 42.895 5.004s5.427 11.796 10.756 18.588c5.33 6.791 21.057 24.664 21.057 24.664l5.004-3.217s-13.94-25.737-15.012-28.239c-1.073-2.502-12.322-26.206-13.785-27.636-1.462-1.43-48.828-11.933-52.345-11.684"/>
        <path fill="#0E111B" d="M138.4 241.95s-15.727-17.873-21.057-24.664c5.33 6.791 21.057 24.664 21.057 24.664l.662-.425-.662.425"/>
        <path fill="#957C47" d="M139.062 241.525l1.425-.916-1.425.916"/>
        <path fill="#A4CEDF" d="M56.417 178.577c.001-2.46.623-4.64 2.156-5.992-1.533 1.352-2.155 3.533-2.156 5.992"/>
        <path fill="#EFA62D" d="M58.573 172.585c.861-.76 2.01-1.257 3.496-1.396-1.486.139-2.635.637-3.496 1.396m3.69-1.411h.003-.004m.006 0h0"/>
        <path fill="#2A2B72" d="M138.4 241.95s-15.727-17.873-21.057-24.664c-5.33-6.792-10.756-18.588-10.756-18.588s-36.117-3.44-42.554-4.92a10.4 10.4 0 0 1-.349-.087c-3.294-.89-7.269-8.893-7.267-15.114.001-2.46.623-4.64 2.156-5.992.861-.76 2.01-1.257 3.496-1.396l.193-.015h.008c.034-.003.072-.004.115-.004.4 0 1.162.098 2.207.275-2.207 4.398-4.108 10.583-2.15 12.24.758.642 1.9.808 3.167.808.671 0 1.378-.047 2.082-.093a31.914 31.914 0 0 1 2.067-.093c1.247 0 2.349.165 3.05.808 2.144 1.966 7.506 6.791 13.404 6.97.355.01.716.016 1.08.016 1.9 0 3.9-.134 5.853-.268 1.954-.133 3.862-.267 5.582-.267 1.696 0 3.207.13 4.394.519 3.823 1.251 7.22 4.348 8.291 7.982 1.073 3.635 9.652 12.572 11.618 15.431 1.966 2.86 3.038 9.116 6.077 11.797 2.047 1.806 7.827 8.887 11.38 13.314l-2.087 1.341"/>
        <path fill="#A6BFCE" d="M103.016 179.712l13.708-20.894a1.808 1.808 0 0 1 1.796-.794l13.855 2.211a.904.904 0 0 1 .627 1.367l-13.197 21.387-16.79-3.277"/>
        <path fill="#B2CDE0" d="M104.374 179.928l13.67-20.836a1.914 1.914 0 0 1 1.902-.84l12.29 1.961a.997.997 0 0 1 .692 1.508l-13.123 21.268-15.431-3.06"/>
        <path fill="#A6BFCE" d="M103.584 179.825l-13.783-2.2a.795.795 0 0 1-.66-.911l.002-.016a.795.795 0 0 1 .912-.66l13.783 2.198c.434.07.73.478.66.912l-.002.016a.796.796 0 0 1-.912.66"/>
        <path fill="#F0F8FD" d="M56 22.622s.311-9.519 6.028-9.605c3.907-.06 4.378 1.998 5.234 1.713 1.554-2.866 4.669-4.247 8.19-4.437.38-3.522 4.092-8.294 9.041-8.224 7.519-.887 9.78 7.047 10.464 7.331 3.236-1.047 7.999-.82 11.235 4.509 8.66-.095 9.654 6.864 9.654 6.864L56 22.622zM214 138.64s.237-3.115 4.6-3.153c3.557-.031 3.34.656 3.993.562 1.356-2.836 3.171-5.457 7.892-5.45 4.575-.022 6.91 3.816 7.433 3.908 2.469-.343 4.259-1.076 6.22.522 1.336 1.09 1.313 2.881 1.313 2.881l-31.451.73z"/>
    </g>
</svg>
