<svg xmlns="http://www.w3.org/2000/svg" width="381" height="250" viewBox="0 0 381 250">
    <g fill="none" fill-rule="evenodd">
        <path fill="#E4F2F9" d="M290.866 239.632H184.109V37.038a6.868 6.868 0 0 1 6.867-6.868H284a6.868 6.868 0 0 1 6.867 6.868v202.594"/>
        <path fill="#F3FAFF" d="M279.252 239.632h-130.33V37.038a6.868 6.868 0 0 1 6.866-6.868h116.596a6.868 6.868 0 0 1 6.868 6.868v202.594"/>
        <path fill="#D8DDE9" d="M12 240v-1h357v1zM0 240v-1h3v1zM5 240v-1h5v1zM378 240v-1h3v1zM371 240v-1h5v1z"/>
        <path fill="#F0F8FD" d="M220 92.622s.311-9.519 6.028-9.605c3.907-.06 4.378 1.998 5.234 1.713 1.554-2.866 4.669-4.247 8.19-4.437.38-3.522 4.092-8.294 9.041-8.224 7.519-.887 9.78 7.047 10.464 7.331 3.236-1.047 7.999-.82 11.235 4.509 8.66-.095 9.654 6.864 9.654 6.864L220 92.622zM327 128.853s.32-4.204 6.208-4.256c4.802-.041 4.509.886 5.39.76 1.83-3.828 4.28-7.366 10.652-7.357 6.175-.03 9.329 5.15 10.034 5.276 3.332-.464 5.747-1.453 8.394.704 1.805 1.47 1.773 3.89 1.773 3.89l-42.451.983zM53 20.622s.311-9.519 6.028-9.605c3.907-.06 4.378 1.998 5.234 1.713 1.554-2.866 4.669-4.247 8.19-4.437.38-3.522 4.092-8.294 9.041-8.224 7.519-.887 9.78 7.047 10.464 7.331 3.236-1.047 7.999-.82 11.235 4.509 8.66-.095 9.654 6.864 9.654 6.864L53 20.622zM11 203.853s.32-4.204 6.208-4.256c4.802-.041 4.509.886 5.39.76 1.83-3.828 4.28-7.366 10.652-7.357 6.175-.03 9.329 5.15 10.034 5.276 3.332-.464 5.747-1.453 8.394.704 1.805 1.47 1.773 3.89 1.773 3.89L11 203.852z"/>
        <path fill="#D7EBEF" d="M279.252 126.642h-65.73a3.434 3.434 0 0 1-3.434-3.433V104.01a3.434 3.434 0 0 1 3.434-3.434h65.73v26.066"/>
        <path fill="#D1E6E8" d="M262.005 50.98h-95.837a3.436 3.436 0 0 1 0-6.872h95.837a3.436 3.436 0 1 1 0 6.872"/>
        <path fill="#E4F2F9" d="M261.857 86.043h-95.692a3.433 3.433 0 0 1-3.433-3.434V63.411a3.433 3.433 0 0 1 3.433-3.433h95.692a3.433 3.433 0 0 1 3.433 3.433V82.61a3.433 3.433 0 0 1-3.433 3.434"/>
        <path fill="#61E3F0" d="M178.607 79.143h-8.831c-.949 0-1.717-.769-1.717-1.717v-8.83c0-.95.768-1.717 1.717-1.717h8.83c.949 0 1.717.768 1.717 1.716v8.831c0 .948-.768 1.717-1.716 1.717"/>
        <path fill="#D1E6E8" d="M255.7 70.947h-66.52a1.717 1.717 0 0 1-1.717-1.716v-.049c0-.948.768-1.717 1.716-1.717h66.52c.949 0 1.717.769 1.717 1.717v.049c0 .948-.768 1.716-1.717 1.716M230.996 79.14h-41.817c-.948 0-1.716-.769-1.716-1.717v-.049c0-.948.768-1.716 1.716-1.716h41.817c.948 0 1.717.768 1.717 1.716v.05c0 .947-.769 1.716-1.717 1.716"/>
        <path fill="#E4F2F9" d="M304.85 122.254h-95.692a3.434 3.434 0 0 1-3.434-3.433V99.622a3.434 3.434 0 0 1 3.434-3.434h95.691a3.434 3.434 0 0 1 3.434 3.434v19.199a3.433 3.433 0 0 1-3.434 3.433"/>
        <path fill="#75E5AA" d="M221.599 115.354h-8.83c-.95 0-1.718-.77-1.718-1.717v-8.83c0-.95.769-1.718 1.717-1.718h8.83c.95 0 1.718.768 1.718 1.717v8.83c0 .949-.769 1.718-1.717 1.718"/>
        <path fill="#D1E6E8" d="M298.692 107.159h-66.52c-.948 0-1.717-.77-1.717-1.717v-.05c0-.948.77-1.716 1.717-1.716h66.52c.949 0 1.717.768 1.717 1.717v.049c0 .948-.768 1.717-1.717 1.717M273.989 115.35h-41.817c-.948 0-1.717-.768-1.717-1.716v-.049c0-.948.77-1.717 1.717-1.717h41.817c.948 0 1.717.769 1.717 1.717v.049c0 .948-.769 1.717-1.717 1.717"/>
        <path fill="#E4F2F9" d="M135.26 194.4l-12.536-16.293a5.15 5.15 0 0 0-4.082-2.01H25.657a5.15 5.15 0 0 1-5.15-5.15v-41.854a5.15 5.15 0 0 1 5.15-5.15h107.53a5.15 5.15 0 0 1 5.151 5.15v64.26c0 1.64-2.078 2.346-3.077 1.047"/>
        <path fill="#7461FF" d="M46.742 153.37H32.557a1.716 1.716 0 0 1-1.717-1.716V137.47c0-.948.769-1.717 1.717-1.717h14.185c.949 0 1.717.769 1.717 1.717v14.185c0 .949-.768 1.717-1.717 1.717"/>
        <path fill="#D1E6E8" d="M126.288 141.598H60.433c-.949 0-1.717-.77-1.717-1.717v-1.57c0-.948.768-1.717 1.717-1.717h65.855c.948 0 1.716.769 1.716 1.717v1.57c0 .948-.768 1.717-1.716 1.717M107.65 165.145H60.434a1.717 1.717 0 0 1-1.717-1.717v-1.57c0-.948.768-1.717 1.717-1.717h47.218c.947 0 1.716.77 1.716 1.717v1.57c0 .948-.769 1.717-1.716 1.717M126.288 153.37H60.433a1.716 1.716 0 0 1-1.717-1.715v-1.57c0-.949.768-1.717 1.717-1.717h65.855c.948 0 1.716.768 1.716 1.717v1.57c0 .948-.768 1.716-1.716 1.716"/>
        <path fill="#E4F2F9" d="M262.254 158.465h-95.69a3.434 3.434 0 0 1-3.435-3.434v-19.198a3.434 3.434 0 0 1 3.434-3.433h95.69a3.433 3.433 0 0 1 3.434 3.433v19.198a3.434 3.434 0 0 1-3.433 3.434"/>
        <path fill="#7461FF" d="M179.004 151.565h-8.83a1.717 1.717 0 0 1-1.718-1.718v-8.83c0-.948.769-1.717 1.717-1.717h8.831c.948 0 1.717.77 1.717 1.717v8.83c0 .949-.769 1.718-1.717 1.718"/>
        <path fill="#D1E6E8" d="M256.097 143.37h-66.52c-.948 0-1.717-.77-1.717-1.718v-.048c0-.949.77-1.717 1.717-1.717h66.52c.949 0 1.717.768 1.717 1.717v.048c0 .948-.768 1.717-1.717 1.717M231.394 151.561h-41.817a1.717 1.717 0 0 1-1.717-1.717v-.048c0-.948.77-1.717 1.717-1.717h41.817c.948 0 1.717.77 1.717 1.717v.048c0 .95-.769 1.717-1.717 1.717"/>
        <path fill="#E4F2F9" d="M268.51 194.676h-95.692a3.433 3.433 0 0 1-3.433-3.433v-19.2a3.433 3.433 0 0 1 3.433-3.432h95.692a3.433 3.433 0 0 1 3.433 3.433v19.199a3.433 3.433 0 0 1-3.433 3.433"/>
        <path fill="#75E5AA" d="M185.26 187.775h-8.831a1.716 1.716 0 0 1-1.717-1.716v-8.831c0-.948.768-1.717 1.717-1.717h8.83c.949 0 1.717.769 1.717 1.717v8.83c0 .95-.768 1.717-1.717 1.717"/>
        <path fill="#D1E6E8" d="M262.353 179.58h-66.52a1.717 1.717 0 0 1-1.717-1.716v-.05c0-.948.768-1.717 1.716-1.717h66.52c.949 0 1.718.769 1.718 1.717v.05c0 .947-.769 1.716-1.717 1.716M262.154 187.772h-66.322a1.716 1.716 0 0 1-1.716-1.716v-.05c0-.947.768-1.716 1.716-1.716h66.322c.948 0 1.716.769 1.716 1.717v.049c0 .948-.768 1.716-1.716 1.716"/>
        <path fill="#E4F2F9" d="M262.652 230.887h-95.69a3.433 3.433 0 0 1-3.434-3.434v-19.197a3.434 3.434 0 0 1 3.433-3.435h95.691a3.434 3.434 0 0 1 3.434 3.435v19.197a3.434 3.434 0 0 1-3.434 3.434"/>
        <path fill="#7461FF" d="M179.402 223.986h-8.831a1.717 1.717 0 0 1-1.717-1.717v-8.83c0-.949.769-1.717 1.717-1.717h8.83c.949 0 1.718.768 1.718 1.716v8.831c0 .949-.77 1.717-1.717 1.717"/>
        <path fill="#D1E6E8" d="M256.495 215.791h-66.52c-.949 0-1.716-.769-1.716-1.717v-.049c0-.948.767-1.716 1.717-1.716h66.52c.947 0 1.716.768 1.716 1.716v.05c0 .947-.769 1.716-1.717 1.716M256.097 223.983h-66.121c-.95 0-1.717-.768-1.717-1.717v-.049c0-.948.767-1.716 1.717-1.716h66.121c.949 0 1.717.768 1.717 1.716v.05c0 .948-.768 1.716-1.717 1.716"/>
        <path fill="#2A2A5B" d="M82.683 163.201c-2.272 1.916-3.638 4.976-7.012 4.804l-1.644 1.834a.755.755 0 0 0-.141.225c-.278.689.485 1.332 1.116.943l8.015-4.937a.77.77 0 0 0 .326-.9l-.66-1.969"/>
        <path fill="#C7B88A" d="M82.683 163.201l-3.117-9.305a.77.77 0 0 0-1.094-.433l-1.485.799a.77.77 0 0 0-.383.864l2.215 8.865a.77.77 0 0 1-.174.7l-2.974 3.314c3.374.172 4.74-2.888 7.012-4.804"/>
        <path fill="#AEA077" d="M80.853 78.618c-2.106 3.263-8.222 16.552-7.629 18.78.594 2.23 3.368 3.04 3.368 3.04L84.307 87.8l-3.454-9.18"/>
        <path fill="#2A2A5B" d="M83.656 74.563c-2.524-2.067-3.822-3.683-2.82-6.509 1.003-2.826-.036-3.859-.007-7.089.03-3.23 2.67-3.23 3.478-4.542.807-1.313 1.637-5.653 5.675-6.461 4.038-.807 5.69 3.432 8.112 3.836 2.422.404 5.493 2.019 7.135 5.249 1.64 3.23 2.12 5.409 3.23 7.832 1.11 2.422 7.195 3.396 7.801 7.13.606 3.736-.403 14.537-4.643 15.445-4.24.909-26.649-6.763-26.75-9.69-.101-2.928-1.211-5.2-1.211-5.2"/>
        <path fill="#101028" d="M110.761 87.669c-.07-1.521-.2-2.85-.406-3.896-.39-1.981-2.285-4.996-4.722-6.556-4.264-2.729-10.113-4.377-14.381-4.377-.785 0-1.516.056-2.175.171-1.952.34-3.84.756-5.454 1.526-.233-.191-.451-.378-.662-.562.665-.56 1.027-1.255.695-2.186-.505-1.413-.909-5.451.605-7.066 1.514-1.615 2.24-3.837 3.831-4.745.4-.228 1.022-.324 1.747-.324 2.165 0 5.234.857 5.915 1.614.909 1.01 2.135 2.647 4.053 4.06 1.917 1.414 4.24 1.111 5.047 2.524.807 1.414-1.313 3.41.706 4.835 2.02 1.424 6.158 1.827 7.167 4.15 1.01 2.32.909 8.58-.707 10.093-.207.195-.648.448-1.259.739"/>
        <path fill="#3CA4D0" d="M84.041 113.052c-9.701 4.845-19.796 8.782-19.796 10.397 0 1.615 10.902 36.692 10.902 36.692l7.47-4.224s-2.958-7.58-3.194-10.485c-.238-2.905-2.257-14.816-2.862-15.22-.606-.403 28.062-9.69 28.062-9.69l-20.582-7.47"/>
        <path fill="#75E5AA" d="M79.423 79.14c1.478-4.295 5.415-5.39 9.654-6.129 4.24-.74 11.508.976 16.556 4.206 2.437 1.56 4.332 4.575 4.722 6.556 1.573 7.977-1.29 32.496-1.29 32.496l-21.956-6.901s-2.17-19.079-2.372-20.441c-.202-1.363-5.314-9.787-5.314-9.787"/>
        <path fill="#C7B88A" d="M56.039 150.497l-1.131-1.256a.787.787 0 0 0-1.294.185l-4.881 10.148a.788.788 0 0 1-.887.426l-2.908-.675c2.004 1.395 3.815 3.39 6.189 3.908l5.05-11.902a.788.788 0 0 0-.138-.834"/>
        <path fill="#2A2A5B" d="M41.318 158.485a.763.763 0 0 0-.177-.02c-.816 0-1.093 1.088-.377 1.478l8.79 4.787a.787.787 0 0 0 1.1-.384l.473-1.113c-2.374-.518-4.185-2.513-6.189-3.908l-3.62-.84"/>
        <path fill="#3B93C3" d="M78.319 158.347a292.73 292.73 0 0 0-1.517-2.43c-1.171-1.853-1.352-6.021-.622-8.14.731-2.12-.427-9.691-2.353-12.026-1.926-2.333-2.717-5.842-2.01-7.457.528-1.207 3.425-3.486 6.246-5.403 2.794.69 7.327 1.717 11.432 2.616-6.639 2.227-12.95 4.416-12.944 4.69 0 .006.003.01.01.015.605.404 2.624 12.315 2.862 15.22.236 2.906 3.194 10.485 3.194 10.485l-4.298 2.43"/>
        <path fill="#AEA077" d="M89.982 64.397c.509 3.331.71 10.6.71 11.205 0 .606 1.515 2.725 3.332 2.22 1.817-.504 3.104-3.288 3.517-3.713.413-.425-2.616-11.832-2.616-11.832l-4.943 2.12"/>
        <path fill="#C7B88A" d="M88.416 57.195c-1.309 2.322-1.483 3.331-1.309 5.653.175 2.322 2.53 7.57 3.664 8.176 1.135.606 5.584-3.33 6.02-4.44.436-1.111-.395-1.71.349-2.625s1.134-1.843.873-2.638c-.262-.795-1.574-1.245-2.259-.86-2.766 1.548-7.338-3.266-7.338-3.266"/>
        <path fill="#59DD98" d="M109.123 114.789c-.161-.319-.492-.57-1.068-.728-.791-.215-2.884-1.02-5.25-1.968-.392-1.793-.944-3.665-1.65-4.492-1.551-1.817-4.607-4.845-5.213-6.662-.606-1.817.303-3.634 2.046-5.161 1.38-1.21 2.203-2.71 2.768-5.384.263-1.246.925-2.595 2.119-2.595.076 0 .154.006.234.017l7.036 1.232-1.022 25.74"/>
        <path fill="#3CA4D0" d="M94.494 108.681a6.153 6.153 0 0 0-2.376-.474c-6.571.005-28.422.073-30.295 1.01-2.019 1.008-11.508 42.348-11.508 42.348l6.259 4.352s7.066-18.749 8.277-21.015c1.211-2.267 5.386-12.233 5.184-13.848-.202-1.616 2.488.275 5.92 1.284 3.432 1.01 20.996 4.846 22.611 5.048 1.616.202 8.681-7.066 9.49-8.883.806-1.817 2.22-3.836 0-4.442-1.812-.493-10.437-4.073-13.562-5.38"/>
        <path fill="#4993B5" d="M108.06 118.492"/>
        <path fill="#A1C8D4" d="M56.574 155.917l-1.808-1.258 1.808 1.258s.915-2.427 2.142-5.64c-1.227 3.213-2.142 5.64-2.142 5.64"/>
        <path fill="#A7915D" d="M54.766 154.66l-.776-.54.776.54"/>
        <path fill="#3B93C3" d="M56.574 155.917l-2.584-1.797c1.287-1.256 2.585-2.37 2.049-3.623-.777-1.812-.373-5.345 1.342-7.364 1.716-2.02 3.836-12.214 4.139-14.031.303-1.817 3.13-3.23 3.937-4.845.808-1.616-.202-6.891 1.716-7.988.185-.107.401-.154.64-.154 1.077 0 2.648.956 4.223 1.912 1.575.955 3.155 1.912 4.249 1.911.095 0 .187-.007.276-.022 2.278-.396 6.887-2.93 8.395-2.93.03 0 .057 0 .084.003 1.402.1 9.254 5.956 11.158 5.956l.047-.001c1.575-.087 9.183-5.94 12.016-8.812 1.904.676.58 2.608-.201 4.36l-.005.01c-.797 1.793-7.682 8.889-9.42 8.888a.51.51 0 0 1-.069-.004c-.724-.09-4.65-.911-9.07-1.88-4.106-.898-8.639-1.925-11.433-2.615a54.439 54.439 0 0 1-2.108-.553c-2.474-.727-4.563-1.913-5.46-1.913-.304 0-.471.136-.47.473 0 .047.003.1.01.156.005.037.007.08.007.127 0 1.386-2.022 6.608-3.617 10.31-.651 1.511-1.231 2.77-1.574 3.41-.16.302-.425.893-.762 1.693-.53 1.26-1.242 3.035-2.017 5.004a918.442 918.442 0 0 0-2.797 7.22l-.56 1.46c-1.226 3.212-2.141 5.639-2.141 5.639"/>
        <path fill="#C7B88A" d="M102.503 87.614c1.489-2.321 3.885-5.047 6.737-4.381.796.185 2.954 19.119 2.954 21.44 0 2.322.404 14.94 1.21 16.252.808 1.313 4.745 3.018 5.956 3.018 1.212 0 2.221 2.03.909 1.929-1.312-.101-6.258-1.514-6.864-1.514-.606 0 .303 1.312.101 2.018-.202.707-3.028-1.334-3.08-2.433-.05-1.1-1.16-5.87-1.362-7.674-.202-1.804-6.56-28.655-6.56-28.655"/>
        <path fill="#334086" d="M86.347 72.935l2.8-.654a.993.993 0 0 1 1.198.76l1.6 7.527a.993.993 0 0 1-.765 1.178l-2.663.565a.992.992 0 0 1-1.172-.745l-1.739-7.438a.993.993 0 0 1 .741-1.193"/>
        <path fill="#C7B88A" d="M71.604 98.302c.578-4.868 4.152-7 6.495-9.333 2.343-2.332 6.839-5.372 6.839-5.372s.778-5.295 1.775-6.193c.997-.898 3.544-2.654 3.376-1.238-.168 1.415-.45 4.65-.645 5.433-.195.782-1.254 2.791-1.787 3.896-.535 1.106-6.64 11.268-8.592 12.81-1.952 1.542-3.35 4.334-4.89 4.248-1.54-.086-2.871-1.722-2.57-4.25"/>
        <path fill="#7D6A56" d="M317.973 238.425l-.473 4.686c8.686-.593 8.092-1.092 11.952.47.457.185.939.413 1.434.666-1.113-1.993-2.174-3.934-3.438-6.077l-9.475.255"/>
        <path fill="#2A2A5B" d="M339.741 246.839c-1.285-1.486-8.41-8.774-8.41-8.774l-3.883.105c1.264 2.143 2.325 4.084 3.438 6.077 3.692 1.885 8.158 5.292 8.855 4.768.792-.594 1.287-.693 0-2.176"/>
        <path fill="#32327B" d="M307.767 223.246c-5.374-7.37-26.033-20.202-27.664-20.202-1.632 0-4.899 1.91-5.79 3.554-.89 1.644.921 15.705 1.813 18.526.89 2.822 3.126 13.12 3.126 13.12l23.323-.2s7.497-11.637 5.192-14.798"/>
        <path fill="#2A2B72" d="M302.977 236.708l.308-.098.024.093-.332.005m-20.783-5.705c-1.459-2.949-3.086-7.037-1.752-9.836 1.485-3.12-.149-8.659 2.227-8.858.042-.004.085-.006.127-.006 2.357 0 5.326 5.36 8.07 5.551 2.356.164 5.158 1.036 6.867 2.554-4.74 2.99-10.582 6.839-15.539 10.595"/>
        <path fill="#32327B" d="M318.013 214.05c2.228 6.225 4.571 11.41 3.235 14.38-1.337 2.97-18.271 8.278-18.271 8.278l20.189-.303-1.826 10.498h-43.952c-2.578 0-4.91-1.722-5.484-4.236-.135-.59-.15-1.092-.018-1.417 3.23-7.975 34.84-26.32 34.84-26.32l11.287-.88"/>
        <path fill="#625242" d="M292.96 165.461c3.202 6.057 2.446 12.018 2.446 12.018l8.093-4.265-4.876-11.104-5.662 3.351"/>
        <path fill="#7D6A56" d="M288.265 154.303c-.217 2.695-.152 5.073-1.136 5.678-.984.606-1.817 1.363-1.817 1.363s3.322 6.566 6.489 8.539c1.944 1.211 9.031-5.36 8.804-8.615-.227-3.255-6.814-10.523-9.236-9.16-2.423 1.363-2.953.303-3.104 2.195"/>
        <path fill="#2A2A5B" d="M288.567 155.246c-1.59.303-2.498-1.943-1.135-4.214 1.362-2.272 3.028-3.76 6.217-3.508 1.733.137 1.96-.757 2.64-2.12.682-1.362 3.425-3.26 5.577-2.574 5.073 1.615 4.76 6.36 4.588 7.117-.171.757 2.58 1.16 2.58 3.482-.003 3.433-1.9 4.199-1.818 5.307.041.556.415 3.495-.762 5.09-2.094 2.841-7.464 3.331-7.313 2.12.151-1.211.475-8.126-1.491-7.974-1.966.151-3.434-1.514-5.121-2.303-1.147-.535-3.44-.522-3.962-.423"/>
        <path fill="#2A2B72" d="M305.089 240.749c-.098 0-.194-.002-.29-.004-3.797-.088-4.51-1.184-6.423-1.184-.27 0-.566.022-.896.071-.339.051-.675.075-1.004.075-2.268 0-4.199-1.108-4.199-1.99 0-1.01 3.028-.707 3.129-2.322.1-1.615 7.57-3.13 11.81-3.23 4.24-.101 8.48-3.735 9.69-5.567 1-1.511.009-6.627-.992-9.877 1.051-.345 2.006-.677 2.731-.934 1.556 4.227 2.992 7.885 2.993 10.569 0 .776-.12 1.47-.39 2.074-.262.58-1.12 1.25-2.33 1.953-.445.258-.939.521-1.467.785-5.386 2.691-14.474 5.54-14.474 5.54l20.189-.303-.352 2.02a59.984 59.984 0 0 0-2.03-.038c-.545 0-1.064.01-1.54.034-3.52.174-9.825 2.328-14.155 2.328"/>
        <path fill="#7D6A56" d="M271.943 187.772c-1.672-2.041-4.702-7.048-3.514-8.526 1.439-1.793 1.469-.862.409-4.073-.844-2.558.11-3.154 1.12-1.842 1.01 1.313 3.341 6.142 3.846 7.15.505 1.01 1.413 4.543 1.413 4.543l-3.274 2.748"/>
        <path fill="#61E3F0" d="M315.065 199.308c-1.71-4.225-4.618-18.018-6.206-21.47-1.588-3.45-5.907-7.652-5.907-7.652s-.592.28-.588.443c.032 1.702-1.007 2.9-1.91 3.241-2.446.926-3.913.777-4.972.757-.566-.01-.985-.406-1.43.292-.34.534-2.28 2.56-3.098 4.299l-7.061 13.428-8.423-9.69-4.694 4.816c2.877 3.36 12.643 14.709 14.006 15.166.643.217 4.36-3.107 8.104-6.673 1.812 9.943 3.99 21.33 4.267 21.589.486.452 8.07 1.29 11.706.766 3.636-.524 11.177-3.335 11.177-3.335s-3.262-11.752-4.971-15.977"/>
        <path fill="#48D8E6" d="M301.695 218.591c-2.16-.184-3.98-.464-4.449-.68l-.005-.003h-.001l-.003-.002-.004-.002h-.002l-.002-.002-.003-.001h-.002c0-.002-.002-.002-.002-.002h-.002l-.003-.003-.008-.004a6.152 6.152 0 0 1-.008-.004l-.004-.002-.007-.005-.016-.01-.006-.004-.005-.004-.003-.003-.002-.002-.002-.002-.003-.002c-.113-.105-.542-2.062-1.134-5.018a967.8 967.8 0 0 1-2.505-13.15l-.367-1.994-.26-1.427c3.228-4.062 4.763-4.255 6.213-6.558.046-.074.088-.108.126-.108.347 0 .446 2.724 1.39 3.904 1.049 1.313 2.966 2.39 3.673 4.173.707 1.784-4.116 7.032-3.673 8.749.443 1.715 1.755 5.081 2.058 6.78.157.881-.403 3.28-.979 5.386"/>
    </g>
</svg>
