<svg xmlns="http://www.w3.org/2000/svg" width="381" height="246" viewBox="0 0 381 246">
    <g fill="none" fill-rule="evenodd">
        <path fill="#F3FAFF" d="M314.141 245.074H68.11V65.46a9.25 9.25 0 0 1 9.25-9.25h227.533a9.25 9.25 0 0 1 9.25 9.25v179.614"/>
        <path fill="#D8DDE9" d="M12 245v-1h357v1zM0 245v-1h3v1zM5 245v-1h5v1zM378 245v-1h3v1zM371 245v-1h5v1z"/>
        <path fill="#E4F2F9" d="M229.466 73.395h-53.87V56.211h-46.549v17.184H68.11V65.46a9.25 9.25 0 0 1 9.25-9.25h159.795a45.52 45.52 0 0 0-7.688 17.185M168.321 134.522h-65.26a3.589 3.589 0 0 1-3.589-3.589V95.001a3.59 3.59 0 0 1 3.59-3.59h65.259a3.59 3.59 0 0 1 3.59 3.59v35.932a3.59 3.59 0 0 1-3.59 3.589M168.321 191.98h-65.26a3.589 3.589 0 0 1-3.589-3.588v-35.933a3.589 3.589 0 0 1 3.59-3.589h65.259a3.59 3.59 0 0 1 3.59 3.59v35.932a3.59 3.59 0 0 1-3.59 3.588M168.321 218.053h-65.26a3.59 3.59 0 0 1-3.589-3.588v-.01a3.589 3.589 0 0 1 3.59-3.588h65.259a3.589 3.589 0 0 1 3.59 3.589v.009a3.59 3.59 0 0 1-3.59 3.588M278.935 134.503h-81.003a3.589 3.589 0 0 1-3.589-3.588V94.982a3.589 3.589 0 0 1 3.589-3.589h81.003a3.59 3.59 0 0 1 3.59 3.589v35.933a3.59 3.59 0 0 1-3.59 3.588M197.932 218.053a3.589 3.589 0 0 1-3.589-3.588v-62.006a3.588 3.588 0 0 1 3.589-3.588h81.003a3.589 3.589 0 0 1 3.59 3.588v62.006a3.59 3.59 0 0 1-3.59 3.588h-81.003zM86.324 182.357H68.109v-37.699h18.215a5.55 5.55 0 0 1 5.55 5.55v26.6a5.55 5.55 0 0 1-5.55 5.55"/>
        <path fill="#FFFFFE" d="M50.01 119.284H16.409a5.55 5.55 0 0 1-5.55-5.55V87.136a5.55 5.55 0 0 1 5.55-5.549H50.01a5.55 5.55 0 0 1 5.55 5.549v26.6a5.55 5.55 0 0 1-5.55 5.55"/>
        <path fill="#E4F2F9" d="M50.01 119.284v-1.631H16.409a3.897 3.897 0 0 1-2.77-1.147 3.898 3.898 0 0 1-1.149-2.771v-26.6c.001-1.087.436-2.056 1.148-2.77a3.897 3.897 0 0 1 2.77-1.147h33.604a3.9 3.9 0 0 1 2.77 1.147 3.897 3.897 0 0 1 1.148 2.77v26.6a3.9 3.9 0 0 1-1.147 2.77 3.9 3.9 0 0 1-2.771 1.148v3.263a7.181 7.181 0 0 0 7.18-7.181v-26.6a7.181 7.181 0 0 0-7.18-7.18H16.408a7.165 7.165 0 0 0-5.078 2.102 7.17 7.17 0 0 0-2.104 5.078v26.6c0 1.978.807 3.783 2.104 5.077a7.165 7.165 0 0 0 5.078 2.104H50.01v-1.632"/>
        <path fill="#61E3F0" d="M15.564 100.857h4.58v-5.001h2.173v5.001h4.559v2.09h-4.559v4.98h-2.173v-4.98h-4.58v-2.09M28.503 106.598c0-5.403 7.007-6.268 7.007-9.244 0-1.309-1.013-2.09-2.28-2.09-1.14 0-2.152.802-2.701 1.773l-2.026-1.35c.865-1.605 2.554-2.997 4.96-2.997 2.616 0 4.874 1.604 4.874 4.432 0 4.811-6.71 5.634-6.837 8.462h7.07v2.343h-9.94a7.642 7.642 0 0 1-.127-1.33M42.054 104.107c.675.74 1.815 1.499 3.187 1.499 1.456 0 2.807-.971 2.807-2.554 0-1.561-1.287-2.596-2.997-2.596-.802 0-1.646.233-2.322.633l-1.52-.548.697-7.598H49.8v2.343h-5.53l-.23 2.469c-.043.401-.106.696-.106.696h.042c.274-.148 1.055-.337 1.604-.337 3.313 0 5.276 2.216 5.276 4.917 0 2.955-2.3 5.15-5.403 5.15-1.794 0-3.588-.697-4.812-2.027l1.414-2.047"/>
        <path fill="#D1E6E9" d="M267.515 163.508a.652.652 0 0 0-.653.652v40.787H253.73V164.16a.653.653 0 0 0-1.305 0v40.787H239.29V164.16a.653.653 0 0 0-1.305 0v40.787h-13.133V164.16a.653.653 0 0 0-1.305 0v40.787h-13.134V164.16a.653.653 0 0 0-1.305 0v41.44c0 .36.292.652.653.652h57.754c.36 0 .652-.291.652-.652v-41.44a.653.653 0 0 0-.652-.652"/>
        <path fill="#61E3F0" d="M202.42 197.977a.98.98 0 0 1-.466-1.841l16.314-8.81a.978.978 0 0 1 .985.032l8.1 5.073 17.906-12.39a.981.981 0 0 1 1.027-.053l4.502 2.468 20.377-15.442a.98.98 0 0 1 1.182 1.56L251.464 184.4a.977.977 0 0 1-1.061.078l-4.528-2.483-17.938 12.412a.977.977 0 0 1-1.076.025l-8.164-5.112-15.813 8.54a.98.98 0 0 1-.464.117"/>
        <path fill="#FFFFFE" d="M77.897 176.128h-26.6a5.55 5.55 0 0 1-5.55-5.55v-26.6a5.55 5.55 0 0 1 5.55-5.549h26.6a5.55 5.55 0 0 1 5.55 5.55v26.599a5.55 5.55 0 0 1-5.55 5.55"/>
        <path fill="#E4F2F9" d="M77.897 176.128v-1.632h-26.6a3.897 3.897 0 0 1-2.77-1.147 3.901 3.901 0 0 1-1.148-2.771v-26.6a3.9 3.9 0 0 1 1.148-2.77 3.897 3.897 0 0 1 2.77-1.147h26.6c1.087 0 2.056.436 2.77 1.147a3.898 3.898 0 0 1 1.148 2.77v26.6a3.898 3.898 0 0 1-1.148 2.77 3.897 3.897 0 0 1-2.77 1.148v3.263a7.165 7.165 0 0 0 5.077-2.103 7.167 7.167 0 0 0 2.104-5.078v-26.6a7.167 7.167 0 0 0-2.104-5.077 7.163 7.163 0 0 0-5.077-2.103h-26.6a7.163 7.163 0 0 0-5.078 2.103 7.167 7.167 0 0 0-2.103 5.077v26.6a7.181 7.181 0 0 0 7.181 7.181h26.6v-1.631"/>
        <path fill="#75E5AA" d="M53.913 157.554h4.257v-4.65h2.021v4.65h4.238v1.942h-4.238v4.63h-2.02v-4.63h-4.258v-1.942M67.1 160.574c.627.688 1.687 1.394 2.962 1.394 1.354 0 2.61-.903 2.61-2.374 0-1.452-1.197-2.413-2.787-2.413-.745 0-1.53.215-2.158.588l-1.413-.51.648-7.063H74.3v2.178h-5.14l-.216 2.295c-.04.373-.099.647-.099.647h.04c.255-.137.98-.313 1.491-.313 3.08 0 4.906 2.06 4.906 4.572 0 2.746-2.14 4.787-5.023 4.787-1.668 0-3.336-.647-4.474-1.884l1.315-1.904"/>
        <path fill="#E05A54" d="M83.701 65.13a2.393 2.393 0 1 1-4.785 0 2.393 2.393 0 0 1 4.785 0"/>
        <path fill="#5FB676" d="M95.26 65.13a2.393 2.393 0 1 1 4.786 0 2.393 2.393 0 0 1-4.786 0"/>
        <path fill="#F8D030" d="M87.088 65.13a2.393 2.393 0 1 1 4.785-.001 2.393 2.393 0 0 1-4.785 0"/>
        <path fill="#D1E6E9" d="M185.453 234.942a2.522 2.522 0 1 1-5.044 0 2.522 2.522 0 0 1 5.044 0M196.865 234.942a2.522 2.522 0 1 1-5.044 0 2.522 2.522 0 0 1 5.044 0M208.275 234.942a2.521 2.521 0 1 1-5.042.001 2.521 2.521 0 0 1 5.042 0"/>
        <path fill="#E4F2F9" d="M171.897 77.692h-39.15a3.7 3.7 0 0 1-3.7-3.7v-.597h46.55v.597a3.7 3.7 0 0 1-3.7 3.7"/>
        <path fill="#D0E7EC" d="M129.047 73.395h46.55V56.211h-46.55z"/>
        <path fill="#FFFFFE" d="M162.186 68.913h-39.15a3.7 3.7 0 0 1-3.7-3.7v-39.15a3.7 3.7 0 0 1 3.7-3.7h39.15a3.7 3.7 0 0 1 3.7 3.7v39.15a3.7 3.7 0 0 1-3.7 3.7"/>
        <path fill="#E4F2F9" d="M162.186 68.913V67.28h-39.15a2.058 2.058 0 0 1-1.463-.606 2.054 2.054 0 0 1-.605-1.462v-39.15c0-.576.229-1.083.605-1.463.38-.377.887-.604 1.463-.605h39.15c.576 0 1.083.228 1.462.605.377.38.605.887.606 1.463v39.15c0 .576-.229 1.083-.606 1.462-.379.377-.886.605-1.462.606v3.263a5.332 5.332 0 0 0 5.331-5.331v-39.15a5.33 5.33 0 0 0-5.331-5.331h-39.15a5.322 5.322 0 0 0-3.77 1.56 5.322 5.322 0 0 0-1.561 3.77v39.15c0 1.468.599 2.811 1.561 3.77a5.325 5.325 0 0 0 3.77 1.562h39.15v-1.631"/>
        <path fill="#7461FF" d="M144.817 40.753h7.247c.759 0 1.518-.004 2.277.001 1.268.008 2.203.603 2.607 1.652.419 1.088.159 2.093-.783 2.98-.087.082-.218.116-.284.149.9 1.83.724 2.866-.599 4.038.888 2.19.643 3.078-.975 4.123.016.879.159 1.658.013 2.378-.212 1.054-1.237 1.791-2.324 1.796-4.26.017-8.522.017-12.783-.003-1.214-.005-1.911-.777-1.911-1.999 0-4.139-.008-8.277.011-12.416.002-.45.119-.91.25-1.346.17-.558.364-1.12.625-1.64 1.474-2.93 2.075-6.012 1.773-9.284-.081-.875.13-.902 1.02-1.03 2.071-.296 3.166.818 4.012 2.483 1.052 2.074 1.062 4.172.342 6.329-.182.55-.324 1.113-.518 1.789M134.014 54.25c-.02-.54-.53-.998-1.075-.964a.974.974 0 0 0-.926 1.015c.015.56.504 1.015 1.051.976.52-.037.97-.522.95-1.026zm1.966-4.858c0 2.497.002 4.994-.002 7.49-.001.844-.146.993-.977.995-1.21.004-3.02.005-4.039.005a.767.767 0 0 1-.767-.77v-15.59c0-.425.342-.77.768-.77.908.004 2.5.006 4.116-.006.672-.004.91.296.906.936-.014 2.57-.006 5.14-.005 7.71z"/>
        <path fill="#7D6A56" d="M135.706 193.716a.588.588 0 0 0-.375-.471l-1.094-.416a.588.588 0 0 0-.795.5l-.343 4.003 2.959-.985-.352-2.63"/>
        <path fill="#2A2A5B" d="M133.099 197.332l-.064.745a.586.586 0 0 1-.135.327c-.708.842-4.366 5.203-5.102 6.331-.816 1.25.326 1.523.979 1.36.584-.147 6.268-5.523 7.453-6.648.136-.13.2-.315.175-.502l-.347-2.598c-.987.327-1.973.656-2.96.985"/>
        <path fill="#7D6A56" d="M147.186 185.248l1.365-2.8a.348.348 0 0 0-.11-.437l-1.062-.76a.35.35 0 0 0-.451.038l-1.957 1.979c.576.821 1.37 1.425 2.215 1.98"/>
        <path fill="#2A2A5B" d="M150.23 190.588l-3.15-4.728a.348.348 0 0 1-.024-.346l.13-.266c-.844-.555-1.64-1.159-2.215-1.98l-1.454 1.47a.349.349 0 0 0-.023.464l6.175 7.6a.35.35 0 0 0 .62-.209c.024-.8.037-1.849-.058-2.005"/>
        <path fill="#75E5AA" d="M133.278 105.777c-2.62 2.545-7.097 13.871-7.097 13.871l6.266 4.558 2.4-3.557c.232-.345.771-.187.778.23.032 1.95.085 5.605.085 8.165 0 3.646-1.617 8.39-1.617 8.39l22.827 2.108s-2.72-5.656-2.937-10.498c-.128-2.857 2.176-11.473 2.176-11.473l2.61 7.614 6.96-3.154s-2.61-9.898-5.22-12.508c-2.61-2.61-12.882-6.884-12.882-6.884s-12.674 1.511-14.35 3.138"/>
        <path fill="#5D4E40" d="M140.81 103.645c.447 2.19 2.12 4.899 5.145 5.225 3.025.327 5.895-2.692 6.364-4.135.076-.236-1.207-.364-2.047-1.004-.353-.269-.123-2.184-.898-3.222-1.033-1.385-3.481-1.021-4.364-1.101-1.078-.099-.214 3.595-1.082 3.735-1.62.262-3.118.502-3.118.502"/>
        <path fill="#7D6A56" d="M141.712 98.02c0 1.962 1.087 6.31 3.045 7.288 1.958.98 4.168.171 5.147-1.786.98-1.958 1.923-8.547-1.014-10.396-2.937-1.848-7.178-2.61-7.178 4.895"/>
        <path fill="#2A2A5B" d="M142.268 101.31c-.001-.017-.974-.499-1.09-.533-.441-.133-.92-.058-1.374-.21-.942-.315-1.755-1.06-2.068-2.013-.099-.299-.151-.626-.062-.928.089-.302.348-.57.662-.591.092-.007.196.005.268-.054.113-.092.062-.272 0-.404l-.968-2.115c-.265-.577-.498-1.34-.036-1.775.331-.312.846-.268 1.3-.304.09-.006.187-.02.256-.078.076-.064.103-.167.12-.264.129-.741-.135-1.538.14-2.238.288-.731 1.2-1.148 1.941-.887.25.087.546.234.753.068.075-.06.118-.15.162-.238a4.834 4.834 0 0 1 1.784-1.957c.535-.33 1.209-.553 1.788-.308.498.212.81.732.914 1.264.104.53.033 1.078-.038 1.615l1.258-.494c.546-.214 1.14-.43 1.705-.277.583.158 1.006.693 1.189 1.269.183.577.165 1.195.131 1.799.652-.257 1.42-.104 2 .289.581.392.992.996 1.27 1.64.142.326.254.686.18 1.036-.074.348-.393.666-.747.623.717.333 1.202 1.022 1.563 1.725.438.85.712 1.979.073 2.69-.528.59-1.597.552-2.082-.075.374.55.245 1.383-.279 1.794-.509.399-1.297.403-1.724-.044-.363-.378-.651-.362-.639-.26.092.751.317-2.668-.532-3.054-1.196-.544-2.16-.544-3.527-.979-1.367-.435-3.408-2.432-3.996-2.058-1.193.759-.298 6.28-.295 6.326"/>
        <path fill="#59DD98" d="M145.54 136.61c-2.123 0-4.705-.35-6.734-.7a63.813 63.813 0 0 1-1.176-.213c.518-3.373-.077-5.927 2.16-6.779 3.425-1.305 7.83.214 8.32-4.298.489-4.512-.524-5.654 2.755-7.285 3.281-1.632 4.948-2.61 4.948-2.61s1.922 1.794 2.249 2.936c.326 1.142 1.794 4.365 1.794 4.711v2.32l-1.087.493-2.61-7.614s-2.18 8.152-2.181 11.226c0 .086.002.168.005.247.098 2.185.706 4.536 1.344 6.458-.08-.16-.129-.26-.142-.295-.007-.016-.036-.024-.085-.024-.644 0-4.77 1.32-9.145 1.422-.136.003-.274.005-.415.005"/>
        <path fill="#32327B" d="M133.094 141.083l-8.513 25.108a.775.775 0 0 0-.017.437l7.281 28.489a.77.77 0 0 0 .84.573l4.549-.569s-.327-20.013-.436-21.97c-.109-1.958-1.849-6.526-1.74-7.07.09-.448 7.409-12.013 10-16.098a1.264 1.264 0 0 1 2.013-.161l11.15 12.516a.765.765 0 0 1 .13.824c-.433.964-1.444 3.173-1.866 3.68-.478.573-8.851 11.057-10.874 13.591a.767.767 0 0 0 .071 1.035l3.125 2.986a.77.77 0 0 0 1.069-.005l20.226-19.706a.768.768 0 0 0 .142-.912c-1.2-2.253-5.996-11.252-6.472-12.107-.544-.979-8.388-16.011-8.587-16.517-.093-.236-4.519 1.289-9.23 1.398-2.194.051-4.987-.321-7.15-.695-2.081-.359-3.58-.718-3.396-.698.372.04-.718.196-.82.557l-1.483 5.276-.012.038"/>
        <path fill="#2A2A5B" d="M147.91 140.57H144a1.39 1.39 0 0 1-1.39-1.39v-7.994c0-.768.623-1.39 1.39-1.39h3.91c.768 0 1.39.622 1.39 1.39v7.994a1.39 1.39 0 0 1-1.39 1.39"/>
        <path fill="#7D6A56" d="M127.638 120.708c-2.46 4.35-2.1 7.643-1.934 8.336.373 1.557 7.86 7.683 13.038 10.498 1.452.79 3.704 1.289 4.585 1.384 1.695.183 1.838-.662 1.403-2.3-.12-.458-.832-.766-1.106-1.159-.314-.45-.737-.668-.898-1.207-.197-.659-.076-1.41-.054-2.093-.061-.816-.32-.877-.462-.735-.143.143-.457 1.058-.571 1.224-.952 1.374-2.544.92-3.645.272-1.106-.653-5.606-4.41-6.525-5.884-1.197-1.919.33-5.31.33-5.31l-4.161-3.026M160.434 124.43l.401 2.277c.269 1.543-1.161 2.9-2.46 3.775l-5.971 4.025-1.137.766c-.313.211-1.023 1.174-1.335.58-.088-.168-.098-.484-.136-.67-.038-.186-.54-.093-.599.126-.165.624-.117.973-.57 1.25-.239.146-3.252-.165-3.427.19-.194.396.357 1.36.582 1.738.94 1.58 4.421 1.153 4.985.827.362-.21 5.119-2.211 5.867-2.668l4.595-2.805 3.474-2.12a3.682 3.682 0 0 0 1.645-4.07l-1.372-5.279-4.542 2.059"/>
        <path fill="#8DBDCE" d="M135.053 166.139c0-.023.002-.042.005-.058.09-.448 7.409-12.013 10-16.098-2.591 4.085-9.91 15.65-10 16.098a.295.295 0 0 0-.005.058"/>
        <path fill="#2A2B72" d="M135.443 195.344c.109-3.343-.215-6.397-.865-8.454-.825-2.61-2.351-6.2-1.48-9.245.873-3.045-1.185-8.592-1.135-10.876.05-2.284 1.156-6.961 2.615-9.354 1.459-2.393 3.61-4.786 6.232-7.07 1.933-1.683 3.894-2.489 4.976-2.489.386 0 .66.103.78.305.456.77 2.734 4.162 2.734 4.163l-2.229-2.502a1.26 1.26 0 0 0-.946-.425c-.412 0-.822.199-1.067.586-2.591 4.085-9.91 15.65-10 16.098a.295.295 0 0 0-.005.058c-.003.75 1.64 5.111 1.745 7.011.11 1.958.436 21.971.436 21.971l-1.79.223"/>
        <path fill="#28337C" d="M149.338 184.667a.766.766 0 0 1-.53-.213l-1.308-1.25c1.761-2.333 3.344-4.285 5.722-5.56 3.045-1.63 6.308-6.09 7.94-8.483 1.314-1.926 6.458-5.333 8.412-6.587l.67 1.257a.767.767 0 0 1-.142.912l-20.226 19.706a.767.767 0 0 1-.538.218"/>
        <path fill="#D0E7EC" d="M276.632 138.43a45.576 45.576 0 0 1-18.567-3.927h20.87a3.59 3.59 0 0 0 3.59-3.588v-2.863c13.602-2.507 25.094-11.03 31.616-22.711v13.51c-8.267 11.832-21.98 19.578-37.509 19.578"/>
        <path fill="#D1E6E9" d="M278.935 134.503h-20.87c-14.126-6.283-24.481-19.515-26.72-35.354 6.47 17.225 23.035 29.514 42.485 29.66l.04.001H274.56l.045-.001h.07l.056-.001h.014a45.994 45.994 0 0 0 7.78-.756v2.863a3.59 3.59 0 0 1-3.59 3.588"/>
        <path fill="#61E3F0" d="M319.919 83.071c0 25.261-20.479 45.74-45.74 45.74-25.26 0-45.739-20.479-45.739-45.74 0-25.26 20.479-45.738 45.74-45.738 25.26 0 45.739 20.477 45.739 45.738"/>
        <path fill="#AFA17D" d="M243.586 92.973c.436 5.22 2.393 14.575 3.263 16.315.87 1.74 10.006 3.915 10.006 3.915l-2.881-22.731-10.388 2.501M305.8 83.39l1.523 27.638-9.354-4.024-3.796-1.827-.501-20.969 12.128-.819"/>
        <path fill="#7461FF" d="M267.189 59.474c-5.762 1.403-19.144 6.619-21.537 8.973-3.37 3.317-4.745 14.942-2.066 28.192.599 2.96 10.388-6.167 10.388-6.167l1.773 34.46a45.566 45.566 0 0 0 18.433 3.879c6.403 0 12.497-1.321 18.03-3.697l2.061-1.36-.816-38.014s12.563 1.142 12.726.49c.163-.653-2.937-17.783-5.058-19.904-2.121-2.121-21.209-9.952-33.934-6.852"/>
        <path fill="#B4A77F" d="M277.304 32.717c-7.505.327-10.279 10.279-10.279 10.279-.326.979-.326 19.904 0 21.535.327 1.632 3.758 3.753 6.611 4.079 2.852.326 6.278-2.937 6.768-4.242.198-.53.478-4.567.74-9.171 2.582-2.735 4.88-9.634 5.296-11.712.49-2.447-3.086-11.03-9.136-10.768"/>
        <path fill="#2A2A5B" d="M266.78 47.89c-2.039-4.079-4.975-11.106-1.386-15.178 3.59-4.073 9.136-11.252 14.52-9.457 5.384 1.794 5.472 6.363 6.57 7.505 1.098 1.142 6.808 2.12 5.992 6.362-.815 4.242-3.589 5.874-6.036 6.363-2.447.49-8.484-6.852-10.605-6.689-2.12.163-2.936 1.632-3.589 4.079-.652 2.447-1.958 9.3-.652 10.604 1.305 1.306 6.362-.652 8.32 0 .892.298 1.74.81 2.397 1.28a2.12 2.12 0 0 1 .703 2.596c-1.063 2.357-3.577 6.488-7.831 5.424-5.874-1.469-5.874-8.467-6.037-10.107-.163-1.64.327-10.94-.652-10.45-.98.49-1.713 7.668-1.713 7.668"/>
        <path fill="#5F4DE2" d="M274.18 128.81h-.04-.002a45.873 45.873 0 0 1-9.814-1.075c6.748-3.383 11.893-8.181 12.308-10.36.672-3.519-1.106-7.825 0-12.198s9.461-4.001 9.852-8.538c.39-4.536.39-10.68 2.566-13.699 2.175-3.019 3.505-3.453 3.505-3.453s.607 2.562 1.49 6.306l-.336-.03-.061-.005-.19-.017h-.001-.001l.815 38.013-2.06 1.36a45.584 45.584 0 0 1-18.031 3.697"/>
        <path fill="#C7B88A" d="M246.632 99.499s19.415-19.795 20.149-21.1c.734-1.305 3.972-7.145 5.955-8.484 1.982-1.339 4.68-5.435 5.926-4.46.962.754-2.881 5.765-3.099 6.853-.217 1.087 2.356 5.003 1.07 6.09-1.287 1.089-5.42 4.991-5.42 4.991l-14.358 29.814s-7.83-1.087-10.006-3.915c-2.175-2.828-.217-9.789-.217-9.789"/>
        <path fill="#2A2A5B" d="M286.388 85.865L281.23 83.4a1.795 1.795 0 0 1-.844-2.394l6.194-12.951a1.795 1.795 0 0 1 2.393-.845l5.158 2.467a1.794 1.794 0 0 1 .844 2.393l-6.194 12.952a1.795 1.795 0 0 1-2.393.844"/>
        <path fill="#C7B88A" d="M283.83 70.132c-1.908 2.648-3.263 4.569-2.61 6.309.652 1.74 4.589 5.926 5.264 9.136.675 3.211 3.872 15.336 6.856 21.013.91 1.733 1.4 3.437 3.976 5.2 2.894 1.98 9.746 1.219 10.007-.762.26-1.98-1.088-9.415-2.828-12.103-1.74-2.689-11.94-15.985-11.94-15.985l1.26-5.888c.172-.81-.672-1.461-1.41-1.084-.719.367-1.458.69-1.832.69-.87 0-5.438-8.337-6.743-6.526"/>
        <path fill="#FFFFFE" d="M303.957 56.049c-.99 0-1.909-.546-2.396-1.425a2.704 2.704 0 0 1 .075-2.778l3.345-5.365c.147-.238.226-.511.226-.79V19.996a4.763 4.763 0 0 1 4.757-4.757h32.001a4.763 4.763 0 0 1 4.758 4.757V48.3a4.764 4.764 0 0 1-4.758 4.758h-29.983c-.197 0-.391.039-.575.115l-6.384 2.661a2.761 2.761 0 0 1-1.066.216"/>
        <path fill="#E4F2F9" d="M341.965 13.608h-32.001a6.396 6.396 0 0 0-6.389 6.39v25.654l-3.323 5.33a4.382 4.382 0 0 0 3.704 6.698c.581.001 1.15-.115 1.694-.341l6.36-2.65h29.955a6.397 6.397 0 0 0 6.39-6.39V19.997a6.397 6.397 0 0 0-6.39-6.389zm0 3.263c1.726 0 3.127 1.4 3.127 3.126V48.3c0 1.727-1.4 3.127-3.127 3.127h-29.982c-.413 0-.822.081-1.203.24l-6.385 2.661c-.148.062-.297.091-.439.091-.811 0-1.424-.925-.936-1.71l3.345-5.364a3.13 3.13 0 0 0 .473-1.654V19.997c0-1.726 1.4-3.126 3.126-3.126h32.001z"/>
        <path fill="#7461FF" d="M311.357 34.503h3.845v-4.199h1.824v4.199h3.826v1.753h-3.826v4.18h-1.824v-4.18h-3.845v-1.753M322.289 38.47h2.745v-6.979c0-.425.019-.85.019-.85h-.036s-.16.301-.567.709l-1.01.956-1.346-1.417 3.153-3.03h2.002v10.612h2.728v1.966h-7.688V38.47M338.234 34.13c0-2.444-.496-4.375-2.215-4.375-1.718 0-2.214 1.931-2.214 4.376 0 2.48.496 4.428 2.214 4.428 1.719 0 2.215-1.948 2.215-4.428zm-6.785 0c0-3.613 1.134-6.483 4.57-6.483 3.437 0 4.553 2.87 4.553 6.484 0 3.613-1.116 6.519-4.553 6.519-3.436 0-4.57-2.906-4.57-6.52z"/>
        <path fill="#F0F8FD" d="M36 20.732s.311-9.519 6.028-9.605c3.907-.06 4.378 1.998 5.234 1.713 1.554-2.866 4.669-4.247 8.19-4.437.38-3.522 4.092-8.294 9.041-8.224 7.519-.887 9.78 7.047 10.464 7.331 3.236-1.047 7.999-.82 11.235 4.509 8.66-.095 9.654 6.864 9.654 6.864L36 20.732zM328 154.853s.32-4.204 6.208-4.256c4.802-.041 4.509.886 5.39.76 1.83-3.828 4.28-7.366 10.652-7.357 6.175-.03 9.329 5.15 10.034 5.276 3.332-.464 5.747-1.453 8.394.704 1.805 1.47 1.773 3.89 1.773 3.89l-42.451.983zM13 209.041s.237-3.115 4.6-3.153c3.557-.031 3.34.656 3.993.562 1.356-2.836 3.171-5.457 7.892-5.45 4.575-.022 6.91 3.816 7.433 3.909 2.469-.344 4.259-1.077 6.22.521 1.336 1.09 1.313 2.882 1.313 2.882L13 209.04z"/>
    </g>
</svg>
