<svg xmlns="http://www.w3.org/2000/svg" width="381" height="250" viewBox="0 0 381 250">
    <g fill="none" fill-rule="evenodd">
        <path fill="#75E5AA" d="M122.049 248.82h-70.47v-58.134l70.47-1.444v59.578"/>
        <path fill="#61E3F0" d="M324.87 248.82h-70.472v-38.468l70.471-1.399v39.867"/>
        <path fill="#7461FF" d="M243.506 248.82H133.16v-85.712l110.345-1.083v86.795"/>
        <path fill="#F0F8FD" d="M111.987 68.622s.31-9.519 6.028-9.605c3.907-.06 4.377 1.998 5.234 1.713 1.554-2.866 4.669-4.247 8.19-4.437.38-3.522 4.092-8.294 9.04-8.224 7.52-.887 9.78 7.047 10.464 7.331 3.237-1.047 8-.82 11.236 4.509 8.66-.095 9.654 6.864 9.654 6.864l-59.846 1.849zM233 118.853s.32-4.204 6.208-4.256c4.802-.041 4.509.886 5.39.76 1.83-3.828 4.28-7.366 10.652-7.357 6.175-.03 9.329 5.15 10.034 5.276 3.332-.464 5.747-1.453 8.394.704 1.805 1.47 1.773 3.89 1.773 3.89l-42.451.983zM93 142.853s.32-4.204 6.208-4.256c4.802-.041 4.509.886 5.39.76 1.83-3.828 4.28-7.366 10.652-7.357 6.175-.03 9.329 5.15 10.034 5.276 3.332-.464 5.747-1.453 8.394.704 1.805 1.47 1.773 3.89 1.773 3.89L93 142.852z"/>
        <path fill="#5F4DE2" d="M254.618 248.82h-11.112v-86.795l11.112 4.448v82.347"/>
        <path fill="#48D8E6" d="M335.982 248.82h-11.113v-39.867l11.113 6.082v33.785"/>
        <path fill="#59DD98" d="M133.161 248.82H122.05v-59.727l11.112 4.502v55.225"/>
        <path fill="#9A826E" d="M219.484 44.892c1.151-1.307 10.266-6.117 13.972-11.192 9.07-12.417 6.255-30.39 6.255-30.39l-3.6 1.5s-.181 10.497-1.51 14.675c-1.717 5.392-7.218 11.982-10.051 13.725-2.832 1.743-8.253 4.82-8.253 4.82l3.187 6.862"/>
        <path fill="#9A826E" d="M241.042 2.524c.311 1.27-.876 2.653-2.65 3.087-1.776.435-3.468-.244-3.779-1.515-.31-1.27.876-2.652 2.651-3.087 1.776-.435 3.467.244 3.778 1.515M180.13 45.83c-1.152-1.307-10.267-6.117-13.973-11.192-9.07-12.417-6.172-32.42-6.172-32.42l3.6 1.5s.642 12.488 1.971 16.666c1.716 5.392 6.81 11.491 9.642 13.234 2.832 1.743 8.118 5.35 8.118 5.35l-3.187 6.862"/>
        <path fill="#9A826E" d="M158.971 1.826c-.31 1.271.876 2.653 2.651 3.088 1.776.434 3.467-.244 3.778-1.515.311-1.271-.876-2.653-2.651-3.088-1.775-.434-3.467.245-3.778 1.515"/>
        <path fill="#12132C" d="M195.847 26.495c-4.27 2.941-7.505-.31-8.373-3.742-.868-3.431-.162-11.764 2.4-12.744 2.564-.98 5.8-4.11 7.72-4.927 1.92-.817 8.869.516 9.7.025.833-.49 2.558 6.21 1.45 7.68-1.108 1.47-1.776 2.26-1.45 3.731.327 1.47 2.722 2.804 1.45 5.255-1.271 2.45-1.925 1.307-2.905 4.901-.98 3.595-9.992-.179-9.992-.179"/>
        <path fill="#8F7866" d="M194.145 41.818l2.483-10.293h4.224l2.98 10.293-5.695 4.133-3.992-4.133"/>
        <path fill="#9A826E" d="M193.356 26.163c.661 4.692 3.005 6.019 5.328 6.393 2.323.375 4.04-4.333 5.165-8.455 1.124-4.12-1.158-9.215-4.344-9.027-3.184.187-6.337.597-6.15 3.594.187 2.998-.26 5.64 0 7.495"/>
        <path fill="#BB955B" d="M207.216 157.685c-.891 1.436-7.298 3.31-8.182 3.475-.884.165-1.64 1.58-1.392 1.953.248.372 10.233.234 11.968.069 1.735-.165 3.437-.592 3.764-.952.327-.36-1.252-12.077-1.252-12.077l-4.387.658s.233 5.662-.519 6.874"/>
        <path fill="#12132C" d="M212.83 155.721c-1.532.448-3.523.946-5.347 1.181-.072.331-.158.607-.267.783-.891 1.436-7.298 3.31-8.182 3.475-.883.165-1.64 1.58-1.392 1.953.248.372 10.233.234 11.968.069 1.735-.165 3.437-.592 3.764-.952.17-.187-.174-3.43-.544-6.509"/>
        <path fill="#BB955B" d="M180.244 150.907s0 11.864-.818 12.136c-.819.274-17.987.41-17.987.41s.8-1.773 1.892-2.182c1.091-.41 8.965-1.91 10.465-4.092 1.501-2.18 2.492-6.272 2.492-6.272h3.956"/>
        <path fill="#12132C" d="M180.083 158.311c-1.932-.075-4.294-.589-6.221-1.234l-.066.102c-1.5 2.182-9.374 3.683-10.465 4.092-1.091.41-1.892 2.181-1.892 2.181s17.168-.135 17.987-.409c.343-.114.541-2.27.657-4.732"/>
        <path fill="#32327B" d="M174.3 114.634c-.349 1.665.053 33.11-.164 35.506-.218 2.396 6.972 1.089 7.626.871.654-.218 4.187-26.524 5.712-30.88 1.26-3.601 8.143-14.365 10.739-19.34a.694.694 0 0 1 1.293.166c.988 4.282 3.448 14.914 4.48 19.173 1.308 5.393 1.744 30.676 1.962 31.432.218.756 6.973.768 7.844 0 .871-.769 4.358-31.703 3.486-33.01-.871-1.308-2.179-5.096-1.961-6.469.218-1.374 2.892-6.908 2.1-8.497-.793-1.59-3.19-24.682-4.932-28.168-1.744-3.486-3.74-5.01-3.74-5.01l-15 1.624c-2.832 9.05-18.569 38.406-19.446 42.602z"/>
        <path fill="#0E111B" d="M181.677 151.036l.085-.025c.526-.175 2.913-17.225 4.622-26.16-1.709 8.935-4.096 25.985-4.622 26.16a1.31 1.31 0 0 1-.085.025"/>
        <path fill="#2A2B72" d="M181.386 151.104c-.47-6.171-1.013-16.171-.877-19.778.163-4.333-1.001-13.952.561-14.697 1.563-.746 2.87-3.288 3.851-6.183.98-2.896 4.25-9 6.537-12.075 2.288-3.075 6.897-3.899 7.452-4.549.034-.04.063-.059.09-.059.392 0-.12 4.446.5 7.168a.69.69 0 0 0-.674-.514c-.23 0-.46.11-.596.343 0 .002-.002.004-.003.005l-.014.026c-1.39 2.663-4.008 6.985-6.334 10.98-.225.384-.446.766-.664 1.144-1.741 3.018-3.22 5.728-3.741 7.215-.299.853-.674 2.547-1.09 4.722-1.709 8.934-4.096 25.984-4.622 26.159-.022.007-.05.016-.085.025-.072.019-.17.042-.291.068"/>
        <path fill="#823D25" d="M210.654 152.114a18.139 18.139 0 0 1 0 0"/>
        <path fill="#2A2B72" d="M210.654 152.114c1.145-6.188 3.914-21.293 4.173-24.123.326-3.575-1.308-11.781-1.308-15.866 0-4.084-2.288-10.293-3.359-13.754-1.071-3.46 1.235-6.342 2.284-9.543.889-2.713-2.596-8.739-5.769-13.2 2.267-1.085 4.164-1.997 4.566-2.19h.002l.039-.02a.032.032 0 0 0 .004-.002.023.023 0 0 1 .006-.002l.002-.001.006-.003h.001l.01-.005v-.001h.002v-.001h.003l.002-.002h.002v-.005c.384.581.78 1.254 1.165 2.022.12.241.245.577.37.994 1.697 5.59 3.824 25.694 4.562 27.174.047.094.082.203.106.323.027.142.04.3.04.47-.003 2.154-2.056 6.507-2.246 7.704a2.197 2.197 0 0 0-.024.343c-.002 1.446.987 4.365 1.774 5.776.072.13.143.247.21.35.096.143.14.64.14 1.414.001 6.299-2.85 30.912-3.625 31.596l-.004.003-.004.003-.001.002-.004.002v.001a.014.014 0 0 0-.003.003l-.002.001-.004.003h-.001c0 .002-.002.002-.003.003v.001a.014.014 0 0 0-.004.002l-.003.002-.002.001-.003.003-.001.001c-.002 0-.002 0-.003.002a.011.011 0 0 1-.003.002l-.003.002h-.001a.014.014 0 0 1-.005.004l-.01.007c-.24.157-.735.279-1.366.365a17.91 17.91 0 0 1-1.708.14"/>
        <path fill="#61E3F0" d="M181.762 37.294s5.665 2.615 6.972 2.615c1.307 0 5.448-1.307 5.448-1.307s1.96 3.267 4.357 3.485c2.397.218 6.537-4.793 6.537-4.793s2.325 3.057 3.668 2.4c1.344-.657 10.277-3.489 10.277-3.489l2.615 8.046s-9.805 7.421-10.676 8.946c-.872 1.525.36 20.203.36 20.203s-12.201 5.866-13.727 6.538c-.572.253-2.59-.738-3.89-.758-2.483-.04-4.426-2.158-4.297-4.638.24-4.608.56-11.345.418-12.195-.218-1.307-4.14-10.892-4.14-10.892s-9.151-6.566-9.805-7.204c-.654-.639 5.883-6.957 5.883-6.957"/>
        <path fill="#0E111B" d="M209.073 39.55c2.01-.823 9.46-3.19 9.925-3.338-.464.147-7.914 2.516-9.925 3.338m9.925-3.338l.014-.004c-.004 0-.008.002-.014.004m.014-.004l.003-.001h-.003m.008-.001v-.001m0 0h.001"/>
        <path fill="#28337C" d="M202.8 77.481"/>
        <path fill="#232356" d="M206.675 75.629c2.267-1.086 4.164-1.998 4.566-2.191-.402.193-2.3 1.105-4.566 2.19m4.568-2.19l.039-.02-.04.02M211.295 73.412l.006-.003-.006.003m.007-.004l.01-.004-.01.004m.01-.005h.001m.004-.001l.002-.002-.002.001m.002 0l.002-.002-.002.001m.002 0"/>
        <path fill="#48D8E6" d="M202.8 77.481c-1.658-3.819-3.663-8.207-4.065-11.104-.568-4.085 3.835-10.293 6.45-13.07 2.094-2.225 3.868-7.177 3.888-13.757 2.01-.822 9.461-3.19 9.925-3.338l.014-.004.003-.001h.001a.01.01 0 0 1 .004-.001v-.001h.001l2.615 8.046s-9.805 7.421-10.676 8.946c-.229.4-.313 1.973-.312 4.08 0 5.943.672 16.123.672 16.123l-.002.001-.002.001h-.002v.001l-.002.001h-.001l-.01.005-.007.004h-.002a.023.023 0 0 0-.006.003.032.032 0 0 1-.004.002l-.04.02c-.403.193-2.3 1.105-4.567 2.19-1.242.596-2.596 1.244-3.875 1.853"/>
        <path fill="#FFF" d="M197.694 62.486l-1.646.204-1.562-12.54 1.647-.205 1.56 12.54M200.288 62.163l-1.646.205-1.561-12.54 1.646-.205 1.561 12.54M202.882 61.84l-1.646.205-1.561-12.54 1.646-.205 1.561 12.54"/>
        <path fill="#C4B48F" d="M86.328 156.009s-.024 7.357 0 10.066c.025 2.71 1.864 20.75 1.864 20.75h2.526V156.01h-4.39M77.583 154.6s-.26 8.02 0 10.716c.38 3.969 2.333 21.551 2.333 21.551h2.526v-30.815l-4.86-1.452"/>
        <path fill="#3B93C3" d="M77.389 105.93c-1.708 3.859-1.708 3.859-3.26 10.067-1.227 4.908-4.658 28.921-7.436 32.882-2.778 3.962-3.105 7.601-1.96 8.151 1.143.55 6.863.45 9.15-.072 1.24-.283 2.65.26 4.337.805 1.426.46 3.05.92 4.939.88 4.125-.084 12.31-1.377 15.074-2.342 2.764-.967 6.863-2.357 6.863-2.357S97.52 140 96.027 132.288c-.577-2.986-2.86-14.575-2.86-17.026 0-2.45-2.449-9.851-2.449-9.851l-13.33.52"/>
        <path fill="#C4B48F" d="M91.562 87.247c1.306 1.442 1.257 4.037 1.46 5.359.2 1.32 1.482 8.038 2.462 12.098 1.09 4.509 3.747 6.698 4.142 7.67.693 1.702 1.384 3.122 1.238 3.808-.147.687-1.096 1.868-1.253 2.285-.157.416-2.608.818-2.82.081-.211-.737-5.83-14.334-6.412-16.246-.581-1.912-2.434-7.419-3.408-9.97-.482-1.265 2.74-7.13 4.591-5.085M68.175 90.742c-1.878 1.034-7.503 4.268-8.005 4.372-.501.103-.865-.16-1.439-.613-1.922-1.517-3.665-7.025-3.665-12.737 0-7.298-.056-13.121 1.142-13.686.38-.178 1.617-.878 2.235-1.563.619-.686-.04 9.523.234 10.93 1.291 6.607 1.433 9.854 1.76 10.508.326.653 5.074-3.086 5.074-3.086l2.664 5.875"/>
        <path fill="#5F4DE2" d="M90.368 78.427c-.398-2.255-3.08-3.829-5.343-3.473-3.903.615-8.7 1.516-9.33 1.648-3.73.782-14.075 9.743-14.075 9.743l4.572 6.013 5.76-3.078c.737-.333.596.98.85 1.749l4.58 14.018.007.883c2.207.235 5.1.468 6.532.259.88-.128 3.57-1.172 6.657-2.46-.085-1.479-.072-3.085.154-4.635.823-5.68 3.64-7.524 3.73-10.14.034-.969-3.129-6.127-3.67-8.383a40.966 40.966 0 0 1-.424-2.144"/>
        <path fill="#B7A888" d="M82.431 78.467c2.587-.301 3.79-1.143 4.21-1.684.421-.541-.856-1.905-1.082-2.436-.226-.53.541-6.163.42-6.404-.12-.24-6.495-.902-6.916 0-.421.902.361 5.833-.06 6.555-.42.722-2.16 1.808-2.16 1.808-.186.477 2.209 2.554 5.588 2.161"/>
        <path fill="#C4B48F" d="M77.98 66.8c.931 1.086 7.466 3.226 9.754 1.149 1.133-1.028 2.456-4.155 2.456-7.463 0-1.702-4.33-3.187-4.39-8.478-.012-.934-3.128-1.083-5.113-.121-1.985.962-4.33 3.788-4.51 5.953-.181 2.165.076 6.944 1.803 8.96"/>
        <path fill="#10100F" d="M77.123 104.252c3.32.694 11.45.121 13.406-2.056l.19 3.215s-3.448 1.479-6.268 1.742c-2.82.263-7.18-.452-7.18-.452l-.148-2.45"/>
        <path fill="#12132C" d="M94.961 58.656c-1.606-1.578-2.137-.576-2.465-2.446-.17-.977-.146-2.915-1.355-4.403-1.52-1.872-2.35-.944-3.221-1.812.342-1.42-.205-2.962-1.732-3.934-3.828-2.437-6.327 2.206-7.759 3.909-1.18 1.402-2.253-.025-4.298 2.494-1.555 1.915-1.523 4.407-1.743 5.663-.42 2.406-1.09 1.132-3.17 3.146-2.333 2.256-.239 8.752 4.041 10.797 2.452 1.171 5.396 2.269 6.973-1.743.535-1.36-.547-1.474-.42-2.617.127-1.143-1.68-3.45-1.674-4.953.006-1.504 3.238-2.985 3.118-4.188-.113-1.131-.655-4.604 1.903-5.778 1.038 1.095 2.258-.002 2.284 2.46.018 1.679 4.02 3.614 4.14 4.776.607 5.943-2.71 7.8-2.16 8.795 4.104 7.421 11.33-6.447 7.538-10.166"/>
        <path fill="#FFFFFE" d="M79.428 89.066l-.841.247-1.89-6.411.841-.248 1.89 6.412M80.754 88.674l-.84.248-1.891-6.41.841-.249 1.89 6.411M82.08 88.283l-.84.248-1.891-6.41.841-.248 1.89 6.41"/>
        <path fill="#C4B48F" d="M56.264 64.663c-2.328 1.784-1.608 6.4-1.064 7.518.546 1.117 3.134 1.858 4.115.818.98-1.038 1.525-3.94.762-4.177-.762-.238-.98 1.07-1.416.852-.436-.218.218-1.017.435-3.196.218-2.178 1.14-3.943-.544-4.103-.545-.05-1.953 2.03-2.288 2.288"/>
        <path fill="#10100F" d="M79.276 188.17c0 1.088 5.368 1.869 7.042 1.433 1.674-.436-3.876-3.812-4.971-3.812-1.392 0-2.07 1.164-2.07 2.378M88.192 188.17c0 1.088 4.607 1.981 6.282 1.545 1.674-.436-4.249-3.213-4.902-3.213-.654 0-1.38.453-1.38 1.667"/>
        <path fill="#3CA4D0" d="M82.935 158.646c-.166 0-.33-.004-.493-.011-1.587-.071-2.98-.472-4.222-.872l-.71-.232c-1.075-.353-2.032-.651-2.905-.651-.247 0-.487.024-.721.078-1.236.281-3.471.44-5.447.44-1.684 0-3.179-.116-3.705-.368-.398-.19-.617-.755-.619-1.577-.001-1.542.768-3.99 2.58-6.574 2.778-3.961 6.209-27.974 7.436-32.882 1.507-6.029 1.551-6.203 3.115-9.741l.028.445s2.493.409 4.928.494c.202.939.452 1.798.744 2.53 1.175 2.94-1.058 11.131-2.23 16.512-1.17 5.38 3.445 17.307 5.604 20.82 1.232 2.005.697 7.245.009 11.374a42.85 42.85 0 0 1-3.168.213l-.224.002z"/>
        <path fill="#7461FF" d="M80.565 104.53c-1.349 0-2.565-.094-3.442-.278l-4.321-13.223c-.226-.685-.139-1.802-.639-1.802-.06 0-.13.016-.21.053l-5.761 3.078-.27-.353-4.302-5.66s10.346-8.96 14.075-9.743a28.696 28.696 0 0 1 .563-.11c1.259 1.824 2.622 3.673 3.87 5.399l-.779.23 1.89 6.41.842-.248-1.84-6.234c1.57 2.173 2.944 4.142 3.68 5.61 1.506 3.003-1.65 6.27-2.142 10.192-.26 2.07-.248 4.443-.007 6.655-.41.016-.814.024-1.207.024m-3.027-21.876l-.842.248 1.89 6.411.842-.247-1.89-6.412m1.326-.39l-.841.247 1.89 6.411.841-.248-1.89-6.41"/>
        <path fill="#0B0C0B" d="M82.2 107.195c-2.435-.085-4.928-.494-4.928-.494l-.028-.445.145-.326-.007-.883-.26-.795c.878.184 2.094.278 3.443.278.393 0 .797-.008 1.207-.024.103.937.247 1.845.428 2.69"/>
        <path fill="#FFFFFE" d="M78.587 89.313l-1.89-6.411.841-.248 1.89 6.412-.841.247M79.913 88.922l-1.89-6.41.841-.249 1.89 6.411-.84.248M81.24 88.53l-1.891-6.41.779-.23.114.16 1.839 6.233-.842.248"/>
        <path fill="#BB955B" d="M313.729 203.942c-.892 1.436.658 5.662 2.394 5.497 1.734-.165 3.437-.591 3.763-.951.328-.361-1.252-12.077-1.252-12.077l-4.387.657s.234 5.663-.518 6.874"/>
        <path fill="#12132C" d="M319.343 201.978c-1.531.449-3.524.947-5.347 1.181-.072.332-.144.618-.267.783-.904 1.21-1.34 1.408-2.16 1.778-2.335 1.055-1.842 3.352-1.594 3.724.249.372 4.413.16 6.148-.005 1.734-.165 3.437-.591 3.763-.951.17-.187-.173-3.43-.543-6.51"/>
        <path fill="#BB955B" d="M292.21 197.477s0 11.864-.818 12.137c-.819.272-17.987.409-17.987.409s.801-1.773 1.892-2.183c1.09-.409 8.965-1.909 10.465-4.09 1.5-2.182 2.493-6.273 2.493-6.273h3.955"/>
        <path fill="#12132C" d="M292.049 204.881c-1.932-.076-4.294-.59-6.22-1.234l-.067.102c-1.5 2.182-9.374 3.682-10.465 4.091-1.091.41-1.892 2.183-1.892 2.183s17.168-.137 17.987-.41c.343-.114.54-2.271.657-4.732"/>
        <path fill="#3CA4D0" d="M297.651 119.636c-.435 5.228-8.062 36.598-8.715 38.995-.654 2.396-2.397 9.15-2.615 11.545-.218 2.397-2.179 25.707-2.179 27.231 0 1.525 11.047 3.05 11.047 3.05l2.462-29.409a1.531 1.531 0 0 1-.042-2.36l.042-.037 1.307-1.089 6.756-24.181s1.742 18.893 1.742 20.993c0 2.1 1.09 2.1 1.744 3.842.653 1.743 3.05 12.432 3.05 18.197v12.955l8.28-.871s1.743-21.35 1.743-23.31c0-1.96-2.615-11.764-2.615-11.764l-1.307-3.377s1.743-1.198 2.179-3.158c.436-1.961 1.09-15.903-.436-20.914-1.525-5.01-5.883-18.299-5.883-18.299l-16.56 1.96"/>
        <path fill="#3B93C3" d="M318.17 198.745c-.28-6.034-.779-15.145-1.344-18.116-.872-4.579-2.397-11.106-2.615-13.938-.218-2.832 4.794-10.24 4.14-12.635-.654-2.397-7.844-7.407-7.626-10.457.218-3.05 1.09-3.703 1.09-6.718 0-3.016-1.744-5.7-3.8-8.096-.947-1.104-1.556-3.548-1.852-6.579.97-.143 1.946-.292 2.888-.441 2.566-.205 4.98-.77 6.14-1.094 1.376 4.22 3.835 11.793 4.903 15.303.72 2.369.955 6.732.955 10.883 0 4.631-.29 8.997-.52 10.03-.435 1.961-2.178 3.16-2.178 3.16l1.307 3.376s2.615 9.803 2.615 11.764c0 1.96-1.743 23.31-1.743 23.31l-1.6.168-.76.08"/>
        <path fill="#9A826E" d="M322.273 124.646c-.165.62-.24 2.89-.525 3.784-1.465 4.607-3.673 10.406-5.249 11.356-1.882 1.136-2.523-.673-1.634-2.831.888-2.158.66-4.914-.682-3.91-.983.738-2.335.209-1.801-.946.533-1.154 5.187-1.607 6.405-7.562.23-1.13 3.486.11 3.486.11"/>
        <path fill="#8F7866" d="M302.497 80.05c-2.659.535-4.122.088-4.713-.312-.592-.401.235-2.163.287-2.762.053-.598-2.521-5.932-2.48-6.209.042-.277 6.145-2.986 6.853-2.227.707.758 1.522 5.894 2.17 6.474.65.58 1.619 1.607 1.619 1.607.336.413-.261 2.73-3.736 3.429"/>
        <path fill="#9A826E" d="M302.596 67.437c-.572 1.375-6.04 6.965-8.976 5.645-1.454-.654-3.272-2.932-4.602-7.485-.498-1.702 3.34-3.708 1.618-9.813-.263-.937 2.75-2.081 5.026-1.767 2.275.314 5.51 2.358 6.386 4.446.877 2.086 1.61 6.421.548 8.974"/>
        <path fill="#12132C" d="M293.62 58.757c-.181-2.698-3.654-.408-4.657-3.968-.953-3.388 1.561-5.686 5.311-4.538 2.223.68 2.374-.057 4.527.652 3.273 1.08 4.665 1.37 7.91 4.41 2.676 2.509 2.872 7.947.354 9.765-2.38 1.719-.613 2.585-.45 3.328.383 1.744.473 3.9-3.066 3.43-2.26-.3-4.13-3.391-4.138-4.533-.007-1.142.672-2.615 0-3.996-.875-1.801-2.782-.96-3.82-.96-.936 0-1.855-1.86-1.971-3.59"/>
        <path fill="#9A826E" d="M269.273 64.162c.602-1.888 2.117-5.467 1.059-5.797-1.059-.33-1.361 1.484-1.966 1.182-.605-.303-.491-.718-.19-3.74.303-3.024 1.254-4.682-1.083-4.903-.755-.07-1.414 2.617-1.798 3.06-2.724 3.15-1.649 9.407-1.311 9.66.31 2.299 1.089 5.059 1.033 8.278l3.518-.67s.126-5.148.738-7.07"/>
        <path fill="#75E5AA" d="M264.096 70.113c3.269-1.038 6.101-1.773 5.883.239-.217 2.01 2.397 10.847 3.705 12.202 1.307 1.354 2.178 4.622 3.703 4.405 1.526-.218 2.833.01 2.833.01s1.308.207 2.833-1.318c1.525-1.524 6.972-3.92 10.24-4.792 3.27-.872 1.743-1.42 1.962-2.78.148-.924 1.504-.835 3.317-.745.853.042 1.807.084 2.784.02 3.05-.199 5.883-1.466 6.754-1.486.872-.02.654.739 1.743 2.211 1.09 1.473 5.883.82 7.844 2.344 1.961 1.525 8.062 16.9 7.844 19.125-.217 2.224-.206 12.463.006 13.988.212 1.525-.66 9.15-1.313 11.764-.654 2.614-6.973 0-6.973 0s1.09-3.921 1.308-5.228c.218-1.307.653-3.985-.654-4.172-1.307-.186-.218 3.953-2.179 4.607-1.96.653-15.887 2.723-18.085 2.723-2.197 0-5.665-9.259-5.883-11.654-.218-2.397-.435-14.597-.871-15.25-.436-.654-5.012 2.91-10.895 3.222-5.883.31-11.358-4.284-13.074-7.66-1.343-2.642-2.832-21.775-2.832-21.775"/>
        <path fill="#B3252B" d="M309.05 121.765c2.62-.415 4.968-.829 6.136-1.108l.004.014c-1.16.324-3.573.89-6.14 1.094"/>
        <path fill="#59DD98" d="M309.048 121.765c.095-6.278-3.77-18.597-1.81-20.493 1.962-1.896 4.359-8.65 4.794-10.61.053-.236.143-.344.263-.344.868 0 3.25 5.684 3.441 8.486.218 3.186 1.308 6.454 1.744 9.068.226 1.364.444 4.95.6 8.068a.92.92 0 0 0-.165-.04h-.007a.606.606 0 0 0-.075-.006h-.002c-.911.003-.517 2.385-1.184 3.756-.172.354-.415.64-.768.8l-.006.004-.013.005a1.536 1.536 0 0 1-.1.04h-.002a7.334 7.334 0 0 1-.572.158c-1.168.28-3.516.693-6.135 1.108h-.003"/>
        <path fill="#FFF" d="M307.492 93.921l-.871.11-.826-6.634.87-.108.827 6.632M308.863 93.75l-.87.11-.826-6.634.871-.108.825 6.633M310.236 93.58l-.871.109-.826-6.633.87-.108.827 6.632"/>
        <path fill="#0E111B" d="M296.605 183.544l1.046-12.496-1.046 12.496"/>
        <path fill="#3B93C3" d="M296.605 183.544c-1.7-4.22-3.612-7.998-2.603-10.335 1.144-2.651 5.066-9.934 5.23-13.4.162-3.466-2.289-6.243 1.143-11.635 2.808-4.412 4.595-4.813 5.152-4.813.123 0 .187.02.187.02l-6.756 24.181-1.307 1.09-.042.035a1.526 1.526 0 0 0-.535 1.16c0 .447.192.894.577 1.201l-1.046 12.496"/>
        <path fill="#D8DDE9" d="M12 250v-1h357v1zM0 250v-1h3v1zM5 250v-1h5v1zM378 250v-1h3v1zM371 250v-1h5v1z"/>
    </g>
</svg>
