<svg xmlns="http://www.w3.org/2000/svg" width="381" height="250" viewBox="0 0 381 250">
    <g fill="none" fill-rule="evenodd">
        <path fill="#F3FAFF" d="M102.094 54.08v182.01h231.858V44.072a8.04 8.04 0 0 0-8.412-8.032L109.76 46.048a8.04 8.04 0 0 0-7.666 8.032"/>
        <path fill="#D8DDE9" d="M12 237v-1h357v1zM0 237v-1h3v1zM5 237v-1h5v1zM378 237v-1h3v1zM371 237v-1h5v1z"/>
        <path fill="#E4F2F9" d="M102.094 60.703V54.08a8.04 8.04 0 0 1 7.667-8.032L325.54 36.04a8.042 8.042 0 0 1 7.46 4.232c.28.732.435 1.527.435 2.36l.018 7.015-154.026 7.36a5.433 5.433 0 0 1-4.377-1.883l-2.577-2.996a5.432 5.432 0 0 0-4.336-1.885l-22.303.9a5.43 5.43 0 0 0-4.162 2.218l-2.606 3.557a5.43 5.43 0 0 1-4.123 2.215l-32.85 1.57"/>
        <path fill="#E05A54" d="M114.16 53.787c.052 1.112-.793 2.055-1.887 2.106-1.093.051-2.022-.809-2.074-1.92-.051-1.112.793-2.055 1.886-2.107 1.094-.05 2.023.81 2.075 1.921"/>
        <path fill="#F5CD2F" d="M121.117 53.486c.053 1.112-.792 2.055-1.886 2.106-1.093.05-2.021-.81-2.074-1.922-.051-1.11.793-2.054 1.887-2.105 1.093-.051 2.022.809 2.073 1.92"/>
        <path fill="#519DC8" d="M128.075 53.161c.052 1.112-.793 2.054-1.886 2.106-1.094.051-2.022-.81-2.074-1.921-.052-1.112.792-2.054 1.886-2.106 1.094-.05 2.022.81 2.074 1.921"/>
        <path fill="#E4F2F9" d="M297.52 60.797l-128.982 5.277a5.92 5.92 0 0 0-5.677 5.914v94.7a5.919 5.919 0 0 0 5.992 5.918l128.98-1.572a5.92 5.92 0 0 0 5.847-5.919V66.711c0-3.364-2.8-6.052-6.16-5.914M125.585 75.004c0 3.315-2.524 6.003-5.636 6.003-3.113 0-5.637-2.688-5.637-6.003 0-3.316 2.524-6.003 5.637-6.003 3.112 0 5.636 2.687 5.636 6.003"/>
        <path fill="#334086" d="M91.987 139.616L118.8 91.317l10.962 4.307s11.224-8.875 15.139-9.658c3.915-.783 13.442.914 16.052 1.306 2.61.391 12.137 3.262 16.966 2.48 4.828-.784 17.226-6.526 19.706-8.745 2.48-2.218 6.139-7.835 7.7-7.047 1.56.788 3.419 3.863 3.393 6.525-.044 4.524-1.61 11.502-6.003 16.313-2.49 2.726-11.354 8.222-11.615 9.397-.261 1.174 15.678 10.44 17.692 12.137 2.014 1.696 4.624 7.83 3.32 10.049-1.54 2.616-5.931 6.415-8.541 6.174 0 0 3.58 7.007.806 11.862-2.458 4.302-7.53 4.046-8.601 3.792-.26-.062-.284-.125.022-.12.652.005 2.965 7.527.26 12.484-2.348 4.307-9.004 4.176-8.09 3.785.913-.392 3.523 5.873-1.175 12.007-1.846 2.41-7.296 3.23-10.741 3.51a9.767 9.767 0 0 1-5.317-1.088l-78.747-41.171M106.923 85.966l7.96 4.046-26.362 47.534-7.439-3.684 25.84-47.896"/>
        <path fill="#0E111B" d="M91.987 139.616l10.107-18.206-10.107 18.206"/>
        <path fill="#D0E7EC" d="M102.094 121.41l13.203-23.786-13.203 23.786"/>
        <path fill="#28337C" d="M175.269 181.906h-.005a9.79 9.79 0 0 1-4.53-1.12l-78.747-41.17 23.31-41.992c.776 1.612 1.318 3.379 1.5 5.308.87 9.222-.521 15.66 2.263 18.619 2.784 2.958 15.138-.174 18.619 5.046 3.48 5.22 3.654 16.705 5.916 19.663 2.262 2.958 16.878 5.394 20.707 10.44 3.828 5.046 8.7 15.661 11.484 17.227 1.73.973 5.943 1.542 9.805 1.542 1.032 0 2.04-.04 2.969-.125a13.79 13.79 0 0 1-1.768 3.02c-1.846 2.41-7.296 3.23-10.741 3.51a9.65 9.65 0 0 1-.78.032h-.002"/>
        <path fill="#0E111B" d="M81.082 133.862l21.012-38.945-21.012 38.945"/>
        <path fill="#D0E7EC" d="M102.094 94.917l3.869-7.172-3.87 7.172"/>
        <path fill="#28337C" d="M88.521 137.546l-7.439-3.684 24.881-46.117c2.175 1.44 4.744 3.439 6.844 6.01l-24.286 43.791M191.279 117.486c-3.51 0-11.46-8.318-15.667-9.16-4.35-.87-9.397-1.566-9.048-4.326.348-2.76 8.874-6.288 12.354-6.376 3.48-.087 17.227-4.088 20.185-6.873 2.328-2.19 3.147-8.8 3.305-15.036.948-.998 1.815-1.739 2.468-1.822a.03.03 0 0 1 .008-.001l.007-.001h.002l.006-.001h.004l.002-.001c.03-.003.06-.004.09-.004.118 0 .228.024.329.075l.064.033c1.538.834 3.333 3.83 3.33 6.445l-.001.047c-.044 4.524-1.61 11.502-6.003 16.313-2.485 2.72-11.32 8.2-11.614 9.39l-.001.007v.003h-.001v.004l-.001.003v.008l-.001.003V106.247l.002.007v.005c.149.827 5.523 4.26 10.344 7.296-3.28 1.53-7.822 3.537-9.821 3.902-.109.02-.223.03-.342.03"/>
        <path fill="#E4F2F9" d="M332.569 36.039l-4.14.192c2.862.712 5.006 3.294 5.006 6.401l.517 193.458h6.04l-.517-193.458a6.601 6.601 0 0 0-6.906-6.593"/>
        <path fill="#D1E6E8" d="M321.528 97.101a5.847 5.847 0 0 1-5.843-5.846V59.828a5.847 5.847 0 0 1 5.646-5.843l12.133-.415.097 36.15v6.973l-11.83.405a6.586 6.586 0 0 1-.203.003"/>
        <path fill="#8DBDCE" d="M333.56 89.72l-.096-36.15.097-.003V89.72"/>
        <path fill="#FFFFFE" d="M347.987 84.999l-31.433 1.074a5.846 5.846 0 0 1-6.046-5.843V48.804a5.846 5.846 0 0 1 5.647-5.843l31.432-1.075a5.847 5.847 0 0 1 6.047 5.843v31.426A5.847 5.847 0 0 1 347.987 85"/>
        <path fill="#E4F2F9" d="M347.987 84.999l-.071-2.087-31.433 1.074-.133.003a3.735 3.735 0 0 1-2.651-1.099 3.734 3.734 0 0 1-1.103-2.66V48.804c0-1.019.398-1.929 1.055-2.612a3.739 3.739 0 0 1 2.575-1.144l31.433-1.075.132-.002c1.036 0 1.964.415 2.651 1.098a3.736 3.736 0 0 1 1.104 2.66v31.426a3.741 3.741 0 0 1-1.056 2.612 3.741 3.741 0 0 1-2.575 1.145l.144 4.174a7.921 7.921 0 0 0 5.434-2.417 7.921 7.921 0 0 0 2.229-5.514V47.73a7.918 7.918 0 0 0-2.33-5.616 7.917 7.917 0 0 0-5.876-2.314l-31.433 1.075a7.922 7.922 0 0 0-5.435 2.416 7.92 7.92 0 0 0-2.228 5.514V80.23a7.914 7.914 0 0 0 2.329 5.616 7.916 7.916 0 0 0 5.876 2.314l31.433-1.074-.071-2.087"/>
        <path fill="#7461FF" d="M337.644 71.306l-3.967-1.81a2.546 2.546 0 0 0-2.366.133l-3.74 2.242.496-4.332a2.545 2.545 0 0 0-.857-2.21l-3.288-2.863 4.273-.868a2.547 2.547 0 0 0 1.836-1.497l1.707-4.013 2.147 3.797a2.547 2.547 0 0 0 1.991 1.283l4.344.384-2.948 3.214a2.545 2.545 0 0 0-.604 2.29l.976 4.25"/>
        <path fill="#E4F2F9" d="M299.214 186.85l-128.98 2.02a5.918 5.918 0 0 0-5.827 5.919v11.271c0 3.29 2.684 5.95 5.974 5.92l128.981-1.196a5.918 5.918 0 0 0 5.864-5.919v-12.096a5.918 5.918 0 0 0-6.012-5.918"/>
        <path fill="#2A2A5B" d="M36.958 236.774a1.93 1.93 0 0 0-.133 2.582c2.084 2.567 6.47 7.943 7.063 8.438.783.652 4.568 1.125 5.351.864.783-.261 1.044-1.827 0-1.958-1.044-.13-3.263-1.517-3.98-2.43-.722-.918-3.002-3.833-3.002-4.96 0-1.126 2.855-4.176 2.855-4.176l-3.181-3.35-4.973 4.99M95.177 239.441l3.732 7.988a2.131 2.131 0 0 0 1.93 1.229h12.199c.98 0 1.33-1.38.43-1.77l-.02-.008c-.653-.261-8.483-2.219-9.136-2.219-.652 0-2.283-.897-2.675-1.33-.391-.431-3.98-5.325-3.98-5.325l-2.48 1.435"/>
        <path fill="#32327B" d="M50.848 161.573c-1.991 0-3.015 4.465-3.485 7.556a8.681 8.681 0 0 0 .843 5.227c3.664 7.239 14.592 28.806 15.171 29.674.696 1.044-1.044 1.393-2.436 2.437-1.392 1.044-2.52 4.524-2.52 4.524l-18.709 20.184 5.4 6.265 29.028-24.38a5.151 5.151 0 0 0 1.685-5.19l-10.708-42.986-14.269-3.311"/>
        <path fill="#0C0F18" d="M42.151 234.005l-1.129-1.31 1.129 1.31"/>
        <path fill="#2A2B72" d="M42.151 234.004l-2.439-2.829 18.709-20.184s1.128-3.48 2.52-4.524c1.175-.882 2.597-1.267 2.595-1.993 0-.135-.05-.28-.159-.444l-.016-.026c-.744-1.199-11.521-22.47-15.155-29.648a8.694 8.694 0 0 1-.843-5.228c.037-.243.078-.496.122-.755.42-2.444 1.167-5.395 2.414-6.42l2.022-.132 4.048.94.427 2.483-4.416-.36v4.606c1.289 4.897 8.176 16.157 11.113 17.946 1.474 3.839 2.798 7.249 3.242 8.286 1.175 2.74 3.654 7.7 3.132 11.615-.522 3.915-10.44 9.396-11.622 10.44-1.182 1.044-3.255 6.917-4.56 8.875-1.305 1.957-6.004 3.001-8.173 3.393-1.38.249-2.187 1.807-2.961 3.96"/>
        <path fill="#32327B" d="M51.98 169.49c1.305 4.96 8.352 16.444 11.223 18.01 2.244 1.223 12.137 10.03 16.355 13.823.9.81 1.637 1.06 1.743 1.819.104.738.44 1.422.88 2.023.593.807 1.179 1.862.859 2.563-.445.976-.417 3.175-.522 3.915-.261 1.828 8.613 28.32 10.44 29.364 1.828 1.044 6.526-2.088 6.526-2.088l-6.308-42.894a4.86 4.86 0 0 0-1.227-2.579l-25.092-27.349-14.877-1.213v4.606"/>
        <path fill="#EFA62D" d="M72.672 195.212c-3.99-3.487-8.117-6.976-9.469-7.712l-.007-.004.007.004c1.352.736 5.478 4.225 9.469 7.712m-9.479-7.718l-.004-.002.004.002m-.01-.006l-.003-.001.003.001m-.008-.004h-.001"/>
        <path fill="#2A2B72" d="M93.893 241.22c-.355 0-.674-.064-.935-.213-1.8-1.029-10.443-26.766-10.446-29.267 0-.038.002-.07.006-.097.105-.74.077-2.94.522-3.915.062-.137.09-.287.09-.447 0-.656-.472-1.466-.949-2.116a6.995 6.995 0 0 1-.11-.156c-.387-.563-.675-1.193-.77-1.868-.1-.719-.77-.982-1.607-1.7a685.223 685.223 0 0 0-7.022-6.23c-3.99-3.486-8.117-6.975-9.469-7.711l-.007-.004-.003-.002-.004-.002-.006-.004-.003-.001-.005-.003h-.001c-1.933-1.09-5.706-6.562-8.382-11.546 2.47 2.42 5.532 4.599 7.628 5.298 3.524 1.174 11.224 2.218 13.312 4.176 2.088 1.957 2.74 8.613 4.176 10.44 1.435 1.827 4.568 1.566 5.742 4.568 1.175 3.002.261 7.308 0 11.354-.26 4.046 9.736 26.08 11.132 28.635-.97.442-2.035.81-2.89.81"/>
        <path fill="#9E8F64" d="M62.42 123.552l3.002-9.266s5.611 2.219 5.35 2.61c-.26.392-3.132 8.558-3.132 8.558l-5.22-1.902"/>
        <path fill="#9E8F64" d="M64.77 107.37c.227 3.91 1.565 9.139 2.74 10.116 1.174.976 5.742 3.456 6.917 2.934 1.174-.522 4.823-5.425 4.786-7.775-.016-.993-2.307-3.188-2.176-4.232.13-1.044 1.305-5.22-.13-6.264-1.436-1.044-8.353-.13-9.528.653-1.174.783-2.662 3.67-2.61 4.567"/>
        <path fill="#2A2A5B" d="M63.725 114.286c.383-2.106-2.74-5.742-2.871-8.744-.13-3.001 3.654-7.483 4.829-7.918 1.174-.434 3.654-.304 4.437-.695.783-.392 6.395-5.481 8.744-5.09 2.349.392 4.176 4.96 3.132 7.048s-1.88 4.304-3.132 4.828c-1.252.525-2.74-1.326-3.654-.663-.914.663-2.183 2.751-3.115 2.882-.931.13-3.15-1.436-4.063-.653-.914.783-2.47 2.48-1.431 4.307 1.04 1.827 4.302 5.612 1.953 7.178-2.35 1.566-5.873 1.57-6.134.72-.26-.85 1.044-1.764 1.305-3.2"/>
        <path fill="#9E8F64" d="M105.617 141.562c1.3-.432 3.229-2.416 4.699-3.263 2.491-1.435 1.566.635 1.566 1.23 0 .597 2.51 1.412 3.784.989 2.262-.753 4.909.915 4.25 1.373-2.753 1.914-12.863 3.195-12.863 3.195l-1.436-3.524"/>
        <path fill="#7461FF" d="M59.549 121.55c-2.088 3.481-2.088 8.353-4.524 13.573-2.436 5.22-3.567 15.052-6.7 18.184-3.132 3.133-2.958 6.787-2.261 9.222.695 2.437 4.698 5.308 7.83 4.612 3.132-.696 12.528-1.188 12.528-1.188l1.131-5.076s-2.262-7.655-1.218-9.395c1.044-1.74 5.394-9.746 5.394-11.486 0-1.74-1.74-14.27-2.088-16.01-.347-1.739-10.092-2.435-10.092-2.435"/>
        <path fill="#7461FF" d="M62.42 127.895c-3.233 1.542-2.218 6.228-.783 8.186 1.436 1.957 25.057 15.269 26.493 15.4 1.435.13 20.098-5.612 20.62-6.004.522-.391-2.61-5.712-2.61-5.712s-16.836 1.77-17.358 2.552c-.522.783-1.305 2.268-1.435 1.656-.13-.612.391-.481 0-1.656-.392-1.174-19.158-17.173-24.927-14.422"/>
        <path fill="#C7B88A" d="M195.764 150.749c-2.806.28-4.717 2.058-2.642 2.232 2.074.174 8.69-.34 10.43-1.21 1.739-.87 0-3.132 0-3.132s-3.713-.313-5.08-.487c-1.366-.174.177 1.38.177 1.805 0 .423-2.165.72-2.885.792"/>
        <path fill="#2A2A5B" d="M240.531 239.354l-.464 6.93a2.544 2.544 0 0 1-2.539 2.374h-12.846s.174-2.344 1.74-2.866c1.566-.522 7.177-1.302 8.395-1.256 1.217.046 3.394-6.53 3.394-6.53l2.32 1.348M272.926 238.006c.347 1.566.391 5.028-.13 5.899-.523.87-8.788 3.106-9.31 3.453-.522.348-.87 2.263 0 2.436.87.174 15.313-2.088 15.313-2.088l-3.133-9.7h-2.74"/>
        <path fill="#3CA4D0" d="M258.787 154.438s4.873 12.181 5.569 14.27c.696 2.087 4.698 29.406 4.698 30.102 0 .696-1.566 1.914-1.392 2.61.174.697 1.392.306 1.392 1.632v3.588s1.21.05 1.823 1.939c.613 1.89 6.703 30.775 6.703 30.775h-5.916l-18.097-36.302-4.35-24.775v-18.27l9.57-5.569"/>
        <path fill="#3B93C3" d="M274.71 239.354h-3.046l-18.097-36.302-4.35-24.775v-9.023l5.22.497c1.044 7.656 1.218 19.663 2.61 20.881 1.393 1.218 3.395 1.566 3.786 3.654.39 2.088-1.35 8.178-1.002 9.744.349 1.566 8.005 15.139 9.397 18.967.955 2.627 3.794 11.22 5.482 16.357"/>
        <path fill="#3CA4D0" d="M245.39 154.438c-.01 2.901-2.96 7.657-3.307 9.57-.348 1.915-8.005 31.322-8.7 33.236-.697 1.914 2.088 43.154 2.088 43.154s5.046.87 6.612 0c1.566-.87 5.742-29.06 5.568-29.93-.174-.87-1.044-3.306-.87-3.828.174-.522 1.74-.347 1.914-1.217.174-.87-2.262-2.784-2.088-3.655.174-.87 7.308-10.962 8.352-12.876 1.044-1.914 2.784-12.18 2.784-12.18V160.18l-.696-4.001-11.658-1.74"/>
        <path fill="#75E5AA" d="M203.888 147.304c3.393-1.044 12.268-5.22 14.356-5.742 1.044-.261 1.892-.13 2.643 0 .75.13 1.403.26 2.055 0 1.305-.522 2.871-3.915 4.698-6.264 1.827-2.35 9.658-13.312 12.268-15.139 2.61-1.827 5.22-2.088 7.83-2.61 2.61-.522 9.136 1.218 9.658 4.002.522 2.784 1.827 15.574 1.305 18.184-.522 2.61.783 10.18 1.305 12.528.522 2.35 1.566 4.177 0 4.96-1.566.783-14.617.26-15.66 0-1.045-.261-2.35-11.485-2.611-12.529-.261-1.044-4.176-3.132-4.176-3.132s-6.265 4.698-8.092 5.742c-1.827 1.044-28.592 6.264-28.592 6.264l3.013-6.264"/>
        <path fill="#C7B88A" d="M242.257 98.06c-1.566 3.828-1.914 8.178 0 10.092 1.914 1.914 5.568 2.784 6.786.87 1.218-1.914 2.61-10.614.696-10.962-1.914-.348-7.482 0-7.482 0"/>
        <path fill="#2A2A5B" d="M238.777 97.905c-1.27 1.881 3.48 6.245 5.22 7.115 1.74.87 3.654 5.568 3.306 7.482-.348 1.915-1.218 1.915-2.175 4.003-.957 2.088.344 6.09 2.216 7.482 1.873 1.392 2.196 2.262 3.34 5.046 1.143 2.784 6.19 7.656 9.322 6.96 3.132-.695 7.482-7.308 6.96-10.788-.522-3.48-.61-4.872.043-6.786.653-1.914-2.827-6.382-4.567-8.325-1.74-1.942-4.35-6.466-5.22-9.25-.87-2.784-1.617-6.96-4.289-7.656-2.672-.696-7.022-1.74-8.936-.87-1.914.87-4.176 4.04-5.22 5.587"/>
        <path fill="#A4CEDF" d="M242.522 149.846c-.382-2.47-.677-4.713-.787-5.152-.261-1.044-4.176-3.132-4.176-3.132s-6.265 4.698-8.092 5.742c1.827-1.044 8.092-5.742 8.092-5.742s3.915 2.088 4.176 3.132c.11.44.405 2.682.787 5.151"/>
        <path fill="#59DD98" d="M213.68 150.994c2.422-1.777 4.83-3.516 5.608-3.516 1.392 0 8.178-2.61 9.396-4.176 1.218-1.566 3.48-4.9 5.916-5.756 2.437-.857 3.48-2.72 4.525-5.79.815-2.397 2.584-4.802 3.32-4.802.208 0 .334.19.334.624 0 1.977-1.044 7.692-.696 9.968.346 2.266.439 12.217.44 12.3-.383-2.47-.678-4.713-.788-5.152-.261-1.044-4.176-3.132-4.176-3.132s-6.265 4.698-8.092 5.742c-.949.542-8.627 2.21-15.787 3.69"/>
        <path fill="#0C0F18" d="M259.368 136.06c-.19 0-.385-.016-.584-.047-3.084-.482-7.096-4.536-8.1-6.98-1.144-2.784-1.467-3.654-3.34-5.046-1.437-1.07-2.537-3.675-2.539-5.773 0-.635.1-1.224.323-1.71.957-2.087 1.827-2.087 2.175-4.002.028-.153.041-.324.042-.51 0-.54-.113-1.205-.307-1.908-.57-2.066-1.847-4.467-3.041-5.064-.698-.349-1.88-1.26-2.963-2.347-1.307-1.311-2.471-2.88-2.47-4.028 0-.274.066-.523.213-.74l.119-.175c.327-.482.755-1.088 1.239-1.722 2.057 4.186 4.988 7.272 6.994 7.272 2.61 0 3.803 2.262 3.554 4.176-.248 1.914-.944 5.305 1.144 6.568 2.088 1.262 3.654 1.574 3.654 4.029 0 2.444-2.417 7.402-.029 7.402h.03c2.098-.036 3.616-.841 5.527-.841.306 0 .623.02.954.069.996.144 2.872 1.495 4.738 3.06-.955 3.322-3.951 7.339-6.373 8.16l-.029.009-.03.01-.014.005-.014.004h-.002l-.013.005h-.002l-.014.004a.144.144 0 0 0-.014.004h-.001l-.014.005-.014.004h-.002l-.013.004h-.001a.17.17 0 0 1-.013.004h-.001a.13.13 0 0 0-.014.004h-.002l-.013.004a.493.493 0 0 1-.014.003l-.003.001-.012.003h-.001l-.013.003h-.002l-.013.004h-.002a.39.39 0 0 1-.012.004h-.002l-.013.003h-.002a2.908 2.908 0 0 1-.65.07"/>
        <path fill="#F0F8FD" d="M211 20.622s.311-9.519 6.028-9.605c3.907-.06 4.378 1.998 5.234 1.713 1.554-2.866 4.669-4.247 8.19-4.437.38-3.522 4.092-8.294 9.041-8.224 7.519-.887 9.78 7.047 10.464 7.331 3.236-1.047 7.999-.82 11.235 4.509 8.66-.095 9.654 6.864 9.654 6.864L211 20.622zM336 156.853s.32-4.204 6.208-4.256c4.802-.041 4.509.886 5.39.76 1.83-3.828 4.28-7.366 10.652-7.357 6.175-.03 9.329 5.15 10.034 5.276 3.332-.464 5.747-1.453 8.394.704 1.805 1.47 1.773 3.89 1.773 3.89l-42.451.983zM15 87.853s.32-4.204 6.208-4.256c4.802-.041 4.509.886 5.39.76 1.83-3.828 4.28-7.366 10.652-7.357 6.175-.03 9.329 5.15 10.034 5.276 3.332-.464 5.747-1.453 8.394.704 1.805 1.47 1.773 3.89 1.773 3.89L15 87.852z"/>
    </g>
</svg>
