<svg xmlns="http://www.w3.org/2000/svg" width="400" height="250" viewBox="0 0 400 250">
    <g fill="none" fill-rule="evenodd">
        <path fill="#F0F8FD" d="M399.749 55.935s-6.062-10.736-12.829-11.125c-6.627-.38-10.62 3.433-16.528 2.874-4.163-.394-7.506-4.95-14.662-4.904-6.975.045-10.65-9.857-19.593-9.857-10.94 0-15.341 6.018-20.76 9.412-5.023 3.144-8.123 4.312-15.81 2.094C289.247 41.452 282 55.935 282 55.935h117.749"/>
        <path fill="#E4F2F9" d="M126.18 33.97H120c2.827.901 7.616 2.574 7.616 8.635v172.06H38.653v.537h97.98V43.142c0-5.215-5.284-9.851-10.454-9.173M353.867 4.332l-7.127-.075c3.036 1.319 7.496 5.05 7.496 8.636v201.772h9.388V12.893c0-5.215-4.587-9.24-9.757-8.561"/>
        <path fill="#F0F8FD" d="M74.76 6.867C64.91 9.07 62.464 0 54.64 0c-6.707 0-9.273 5.217-14.692 7.41-5.022 2.031-7.483 1.049-15.171-.383C14.456 5.103 12 16.194 12 16.194h77.293s-7.55-10.89-14.533-9.327"/>
        <path fill="#D8DDE9" d="M12 215v-1h357v1zM0 215v-1h3v1zM5 215v-1h5v1zM378 215v-1h3v1zM371 215v-1h5v1z"/>
        <path fill="#F3FAFF" d="M168.737 34.95v179.715h185.499V12.893c0-5.215-4.587-9.24-9.757-8.561l-168.23 22.056a8.634 8.634 0 0 0-7.512 8.561"/>
        <path fill="#D0E7EA" d="M168.737 131.042V60.854l82.779-7.575c.268-.025.535-.037.8-.037 4.708 0 8.621 3.826 8.621 8.635v55.945a8.634 8.634 0 0 1-8.163 8.62l-84.037 4.6"/>
        <path fill="#D0E7EC" d="M288.22 124.49c-4.733 0-8.626-3.842-8.626-8.635V58.589a8.634 8.634 0 0 1 7.848-8.598l39.145-3.583c.269-.025.536-.036.799-.036 4.71 0 8.623 3.825 8.623 8.635v58.705a8.635 8.635 0 0 1-8.163 8.622l-39.146 2.142a8.49 8.49 0 0 1-.48.013"/>
        <path fill="#F3FAFF" d="M29.636 53.186v161.479h97.98V42.605c0-5.214-4.587-9.239-9.757-8.562L37.148 44.626a8.634 8.634 0 0 0-7.512 8.56"/>
        <path fill="#75E5AA" d="M105.535 171.646l-56.598 1.706c-4.869.146-8.895-3.76-8.895-8.63v-79.26a8.635 8.635 0 0 1 7.835-8.598l56.807-5.288c4.989-.343 9.224 3.613 9.224 8.614v82.825a8.635 8.635 0 0 1-8.373 8.631"/>
        <path fill="#D8DDE9" d="M12 215v-1h357v1zM0 215v-1h3v1zM5 215v-1h5v1zM378 215v-1h3v1zM371 215v-1h5v1z"/>
        <path fill="#D1E6E8" d="M39.229 60.524l74.902-8.813a1.903 1.903 0 1 0-.445-3.781l-74.902 8.813a1.904 1.904 0 1 0 .445 3.78"/>
        <path fill="#E4F2F9" d="M168.737 43.753v-8.804a8.634 8.634 0 0 1 7.512-8.56L344.48 4.331c.383-.05.764-.075 1.139-.075 4.686 0 8.618 3.808 8.618 8.636v8.603l-185.5 22.257M245.938 49.409l-92.84 8.496a8.634 8.634 0 0 0-7.846 8.715l.709 52.49c.066 4.908 4.205 8.773 9.105 8.505l92.13-5.043a8.634 8.634 0 0 0 8.163-8.621V58.007c0-5.08-4.363-9.061-9.421-8.598M274.016 54.72v57.265c0 4.954 4.16 8.892 9.106 8.62l39.146-2.141a8.635 8.635 0 0 0 8.163-8.622V51.136c0-5.079-4.364-9.061-9.422-8.598l-39.146 3.582a8.634 8.634 0 0 0-7.847 8.6"/>
        <path fill="#C4DEE1" d="M185.504 104.344l-23.857 1.493a4.318 4.318 0 0 1-4.586-4.309V80.406a4.317 4.317 0 0 1 4.047-4.309l23.857-1.492a4.318 4.318 0 0 1 4.587 4.308v21.123a4.317 4.317 0 0 1-4.048 4.308"/>
        <path fill="#95C3C8" d="M180.21 97.026c-1-.246-2.02-.612-2.854-1.174-1.178-.79-1.055-2.196-.118-3.394.916-1.17 1.664-2.472 2.439-3.743.177-.29.267-.72.21-1.04-.3-1.683-.571-3.381-1.02-5.017-.672-2.448-2.756-3.829-5.352-3.727a7.7 7.7 0 0 0-.463.032 8.149 8.149 0 0 0-.463.032c-2.596.254-4.68 1.92-5.35 4.461-.45 1.698-.72 3.433-1.02 5.157-.058.328.032.745.209 1.012.774 1.165 1.523 2.363 2.44 3.407.936 1.07 1.058 2.458-.119 3.411-.835.676-1.854 1.183-2.855 1.565-3.287 1.257-3.886 2.224-3.59 5.624.108 1.239.697 2.006 1.821 2.05 1.398.054 16.18-.948 17.87-1.118 1.135-.114 1.699-1.154 1.806-2.407.296-3.44-.303-4.326-3.59-5.131"/>
        <path fill="#C4DEE1" d="M313.817 83.976l-23.856 1.492a4.318 4.318 0 0 1-4.587-4.31V60.038a4.317 4.317 0 0 1 4.048-4.309l23.856-1.492a4.317 4.317 0 0 1 4.588 4.308v21.123a4.317 4.317 0 0 1-4.049 4.309"/>
        <path fill="#95C3C8" d="M308.524 76.657c-1-.245-2.02-.612-2.855-1.174-1.178-.79-1.054-2.196-.117-3.394.916-1.17 1.664-2.472 2.438-3.742.178-.291.268-.72.21-1.041-.3-1.683-.57-3.38-1.019-5.017-.672-2.448-2.756-3.828-5.352-3.726a7.7 7.7 0 0 0-.463.032 8.149 8.149 0 0 0-.463.03c-2.596.255-4.679 1.922-5.352 4.463-.449 1.697-.719 3.432-1.019 5.156-.057.328.032.745.21 1.012.773 1.165 1.523 2.363 2.439 3.407.937 1.07 1.06 2.459-.118 3.411-.835.676-1.854 1.182-2.856 1.565-3.286 1.257-3.885 2.225-3.59 5.624.108 1.239.698 2.006 1.821 2.05 1.398.055 16.18-.948 17.87-1.118 1.136-.114 1.7-1.154 1.807-2.407.296-3.44-.303-4.325-3.59-5.131"/>
        <path fill="#D0E7EA" d="M29.636 187.306V92.398l10.406-.714v73.037c0 4.782 3.882 8.635 8.63 8.635.088 0 .176-.002.265-.004l33.11-.998v4.994c0 4.668-3.71 8.49-8.375 8.63l-44.036 1.328"/>
        <path fill="#59DD98" d="M48.672 173.356c-4.748 0-8.63-3.853-8.63-8.635V91.684l32.779-2.25a8.44 8.44 0 0 1 .602-.02c4.724 0 8.623 3.836 8.623 8.634v74.306l-33.109.998c-.089.002-.177.004-.265.004"/>
        <path fill="#E4F2F9" d="M69.47 181.284l-60.406 1.82c-4.868.148-8.894-3.76-8.894-8.63V97.5a8.634 8.634 0 0 1 8.043-8.613l60.405-4.146c4.99-.343 9.225 3.613 9.225 8.614v79.3c0 4.667-3.709 8.49-8.374 8.63"/>
        <path fill="#D1E6E8" d="M14.911 152.279a1.904 1.904 0 0 1-.084-3.805l48.165-2.19a1.906 1.906 0 0 1 1.987 1.816 1.901 1.901 0 0 1-1.814 1.987l-48.166 2.19-.088.002M26.909 168.509a1.903 1.903 0 0 1-.066-3.806l25.983-.913a1.904 1.904 0 0 1 .134 3.804l-25.983.914-.068.001"/>
        <path fill="#C4DEE1" d="M51.86 133.113l-23.857 1.493a4.318 4.318 0 0 1-4.587-4.309v-21.122a4.317 4.317 0 0 1 4.048-4.309l23.856-1.492a4.317 4.317 0 0 1 4.588 4.309v21.122a4.317 4.317 0 0 1-4.049 4.308"/>
        <path fill="#95C3C8" d="M46.567 125.795c-1.002-.246-2.021-.612-2.856-1.173-1.177-.79-1.054-2.196-.117-3.394.916-1.17 1.665-2.472 2.44-3.743.176-.29.265-.721.208-1.041-.3-1.683-.57-3.38-1.02-5.016-.672-2.448-2.755-3.83-5.351-3.728-.156.006-.31.018-.463.032a8.917 8.917 0 0 0-.463.032c-2.596.255-4.68 1.92-5.351 4.461-.45 1.698-.72 3.433-1.02 5.157-.057.328.032.745.21 1.012.774 1.165 1.523 2.363 2.439 3.409.937 1.068 1.059 2.457-.118 3.409-.835.676-1.855 1.183-2.855 1.566-3.287 1.256-3.886 2.224-3.59 5.623.107 1.239.697 2.006 1.82 2.05 1.399.054 16.18-.947 17.871-1.118 1.135-.114 1.698-1.154 1.806-2.407.296-3.44-.304-4.326-3.59-5.13"/>
        <path fill="#E4F2F9" d="M196.274 161.232a7.235 7.235 0 0 1-.226-14.465l125.331-3.998c3.959-.119 7.334 3.007 7.461 7a7.234 7.234 0 0 1-7 7.461l-125.33 3.998a8.084 8.084 0 0 1-.236.004M195.89 188.336a7.235 7.235 0 0 1-.112-14.468l123.622-1.974c3.999-.085 7.285 3.123 7.35 7.118a7.235 7.235 0 0 1-7.12 7.349l-123.622 1.975h-.117"/>
        <path fill="#E05A54" d="M180.795 34.35c0 1.212-.939 2.194-2.095 2.194-1.156 0-2.094-.982-2.094-2.193 0-1.212.938-2.194 2.094-2.194s2.095.982 2.095 2.194"/>
        <path fill="#F5CD2F" d="M192.645 32.923c0 1.211-.937 2.194-2.094 2.194-1.156 0-2.094-.983-2.094-2.194 0-1.212.938-2.194 2.094-2.194 1.157 0 2.094.982 2.094 2.194"/>
        <path fill="#5FB676" d="M204.496 31.447c0 1.212-.938 2.194-2.094 2.194s-2.094-.982-2.094-2.194.938-2.194 2.094-2.194 2.094.982 2.094 2.194"/>
        <path fill="#D1E6E8" d="M204.346 76.824a1.904 1.904 0 0 1-.173-3.8l39.027-3.617a1.903 1.903 0 1 1 .351 3.79l-39.027 3.618-.178.009M204.748 90.583a1.903 1.903 0 0 1-.14-3.803l38.912-2.898a1.908 1.908 0 0 1 2.04 1.757 1.905 1.905 0 0 1-1.758 2.04l-38.911 2.899-.143.005M204.346 107.077a1.905 1.905 0 0 1-.14-3.802l24.082-1.809a1.905 1.905 0 0 1 .286 3.798l-24.083 1.808-.145.005M289.437 99.175a1.904 1.904 0 0 1-.117-3.803l23.856-1.493a1.91 1.91 0 0 1 2.02 1.78 1.904 1.904 0 0 1-1.782 2.02l-23.857 1.493-.12.003"/>
        <path fill="#87705E" d="M101.47 215.426s-2.409 23.388-2.732 23.951c-.322.564-7.819 6.933-8.06 7.336-.242.403 1.45 1.371 2.498 1.371 1.048 0 10.319-4.192 10.56-4.353.242-.162-.483-3.79-.403-4.273.046-.272 2.136-8.64 3.468-15.211 1.037-5.113 1.396-8.82 1.396-8.82h-6.726M113.081 215.426c-.696 2.87-.267 8.073-.213 9.201.053 1.129 1.51 12.896 1.348 14.105-.107.8-.261 2.763-.354 4-.044.589.41 1.09.999 1.104 3.153.068 12.181.241 12.978-.025.968-.323-.564-1.854-1.209-1.935-.645-.08-7.847-2.689-8.089-3.414-.242-.726.572-13.167.572-14.215s.19-8.82.19-8.82h-6.222M109.593 128.787c-.271 2.64-.695 5.751-1.196 6.252a4014.7 4014.7 0 0 1-2.564 2.56s5.133 2.816 8.967 2.31c5.873-.773 2.473-4.406 2.473-4.406s-2.473-.543-2.509-7.333c-.004-.967-5.171.617-5.171.617"/>
        <path fill="#3CA4D0" d="M103.628 164.405l-11.353 49.542s6.732 4.653 9.688 4.348c2.5-.257 7.342-3.074 16.26.811 5.19 2.261 13.536-4.904 13.536-4.904l-12.923-49.797h-15.208"/>
        <path fill="#3B93C3" d="M101.522 218.3l-.138-.001a5.275 5.275 0 0 1-.852-.14l-.073-.02c-3.235-.808-8.174-4.184-8.184-4.192l8.217-35.857c1.633.119 3.823.246 5.753.246 1.824 0 3.417-.113 4.094-.451 2.03-1.016 3.3-2.285 3.3-2.285s-1.735-7.372-1.947-11.195h2.104c-.589 3.795 2.034 6.015 2.302 9.773.285 3.998-4.617 5.853-4.617 11.232 0 6.9-6.964 8.376-7.916 11.994-.952 3.617 1.713 12.628 1.46 14.659-.19 1.524-.49 3.295-1.429 5.887a5.976 5.976 0 0 1-2.074.351"/>
        <path fill="#12132C" d="M108.197 138.577c1.879.338 2.602.889 6.473.445 3.871-.445 4.188-.445 4.188-.445s2.412 10.661 2.539 11.804c.126 1.142-1.968 14.024-1.968 14.024h-11.232v-25.828"/>
        <path fill="#7461FF" d="M93.227 156.613l5.816-4.62s2.792 5.585 2.792 7.361c0 1.449-2.53 12.85-3.465 17.014a1.358 1.358 0 0 0 1.218 1.653c2.956.238 9.214.632 10.751-.136 2.03-1.016 3.3-2.285 3.3-2.285s-2.031-8.63-1.967-12.058c.063-3.426 1.459-17.514.697-19.672-.761-2.157-4.027-8.91-4.027-8.91s-7.1 2.287-8.242 3.009c-.893.564-8.214 9.718-12.543 14.85-1.713 2.03-3.022 5.104-2.141 6.7 2.744 4.972 8.63 13.453 10.327 13.837.792.179 2.92-5.132 2.92-5.132l-5.899-8.444a2.336 2.336 0 0 1 .463-3.167M116.7 134.96l4.443 3.086v1.357s.635-.889 1.142 0c.508.888 5.59 12.885 5.59 12.885l8.058-11.362 5.393 3.186-10.24 15.3a3.162 3.162 0 0 1-3.608.992L122 158.218s-.597 1.936-.597 4.283c0 3.695 1.264 14.723 1.264 14.723s-2.158.635-2.92.508c-.76-.128-1.141-15.611-.76-17.642.38-2.03 1.776-9.392.634-13.072-1.143-3.681-2.92-12.058-2.92-12.058"/>
        <path fill="#9A826E" d="M115.205 117.847c1.16.945.47.44 1.313 2.818.424 1.197 1.66 2.033 2.071 2.085.412.051-.926 5.97-1.878 6.38-.952.413-4.811.515-5.841-.566-1.029-1.08-2.779-6.844-2.11-8.233.67-1.39 3.41-4.953 6.445-2.484"/>
        <path fill="#12132C" d="M110.811 114.49c-2.936 0-5.565 1.857-6.619 4.098-.594 1.262-1.076 6.407-1.516 7.9-.256.87-.722 2.657-1.138 4.067a2.134 2.134 0 0 0 1.422 2.644c.12.038.253.079.408.125.635.195 1.593-1.22 1.593-1.22s1.201 1.976 1.686 2.052c.99.157 1.855.162 2.978.058 2.856-.263 4.788-1.186 4.788-1.186s-1.625-5.008-1.8-5.93c-.177-.923.854-1.25 1.525-1.922.67-.67-1.174-5.898-1.438-6.117-.264-.22 1.933.395 1.933.395l1.977-2.328s-3.014-2.636-5.799-2.636"/>
        <path fill="#DA313A" d="M92.764 159.78a2.336 2.336 0 0 1 .463-3.167l5.816-4.62s2.792 5.585 2.792 7.361c0-1.776-2.792-7.36-2.792-7.36l-5.816 4.62a2.337 2.337 0 0 0-.463 3.166"/>
        <path fill="#5F4DE2" d="M106.24 178.335c-2.314 0-4.997-.182-6.65-.314a1.358 1.358 0 0 1-1.22-1.654c.936-4.166 3.465-15.564 3.465-17.013 0-1.776-2.792-7.36-2.792-7.36l-5.816 4.62a2.336 2.336 0 0 0-.463 3.166l.05.071c-2.017-.727-2.57-.763-2.401-3.098.19-2.617 5.628-4.17 6.96-6.36 1.2-1.968 2.015-4.744 2.77-4.744.085 0 .17.035.253.11.904.809 3.629 4.616 3.629 6.234 0 1.619-.762 4.57-.334 6.95.472 2.618 3.28 3.33 3 8.329-.255 4.531 1.997 8.799 3.124 10.79-.815.201-2.122.273-3.576.273M128.605 160.613h-.002c-.377 0-.758-.069-1.125-.209L122 158.218c-.397-.81.118-2.426.604-4.252.809-3.046.967-3.824 1.3-3.871h.005c.16 0 .358 1.337.883 2.674.526 1.338 1.38 2.675 2.856 2.675.097 0 .198-.006.302-.018 3.236-.381 3.364-2.523 4.49-3.713.784-.828 3.628-2.44 5.764-2.935l-7.117 10.633-.026.034-.038.045c-.611.724-1.5 1.121-2.413 1.123h-.004"/>
        <path fill="#9A826E" d="M136.634 141.34c1.135-1.81 3.04-5.238 4.562-6.38 1.523-1.142 2.094-.634 1.84 0a1.665 1.665 0 0 0 .059 1.333c.068.127 2.543-2.078 3.622-2.403 1.078-.326 2.157-.389 2.094.436-.064.824-1.332 4.315-2.348 4.886-1.015.571-4.379 1.65-4.823 2.411-.444.762-1.26 1.93-1.26 1.93l-3.746-2.214M98.413 168.976c.964.192 2.169.064 3.058-.19.888-.253 1.967-.16 2.157.572.19.733 1.63 2.094.403 2.665-1.228.571-4.527 1.714-6.621 1.206-.309-.075-.958-.944-.958-.944l1.96-3.31"/>
        <path fill="#12132C" d="M103.736 243.73c.136-.09-.032-1.264-.192-2.368a40.666 40.666 0 0 1-6.982 3.336c-2.897 1.053-3.288.41-3.005-.606-1.508 1.33-2.782 2.46-2.88 2.621-.241.403 1.452 1.371 2.5 1.371 1.047 0 10.318-4.192 10.56-4.353M126.63 241.876c-.2-.025-.949-.251-1.895-.573-.48.438-1.096.858-1.732.895-1.096.065-6.193-.693-8.988-1.412-.063.754-.123 1.541-.166 2.123a.856.856 0 0 0 .836.923c2.977.066 12.342.25 13.154-.021.968-.323-.564-1.854-1.209-1.935"/>
        <path fill="#59DD98" d="M308.465 127.628c1.83.001 8.77 10.979 12.048 15.836l1.262 3.25a3.973 3.973 0 0 1-.2 3.308l-6.126 11.464-6.984-33.858"/>
        <path fill="#2A2A5B" d="M322.649 166.163l-17.858-5.398a1.856 1.856 0 0 1-1.24-2.314l3.8-12.574a1.856 1.856 0 0 1 2.315-1.24l17.858 5.399a1.855 1.855 0 0 1 1.24 2.314l-3.801 12.574a1.855 1.855 0 0 1-2.314 1.239"/>
        <path fill="#12132C" d="M297.107 241.368c-.276 1.226-.723 2.39-1.452 2.742-1.094.528-11.073-1.492-12.592 1.035-.995 1.656 10.51 3.227 15.513 3.92 1.196.164 2.287-.72 2.428-1.966l.57-5.017c-1.467-.308-3.048-.775-4.467-.714"/>
        <path fill="#D2B68F" d="M301.574 242.082l.476-4.191h-4.509s-.056 1.797-.434 3.477c1.419-.061 3 .406 4.467.714M327.907 219.022l-2.451 4.159c.916.423 2.697 1.83 4.038 3.225 1.109-1.104 1.77-2.616 2.284-4.092l-3.871-3.292"/>
        <path fill="#12132C" d="M331.778 222.314c-.514 1.476-1.175 2.988-2.284 4.092.778.808 1.409 1.613 1.635 2.22.62 1.665.623 10.788 1.292 11.122.669.335 1.911.215 2.135-.899.182-.916.773-9.255.976-12.192a2.05 2.05 0 0 0-.703-1.691l-3.051-2.652"/>
        <path fill="#32327B" d="M297.87 175.714l-3.405 24.7a5.385 5.385 0 0 0 2.338 5.21l29.89 20.014 3.376-5.977s-12.14-15.785-21.604-19.465l5.212-23.099-15.808-1.383"/>
        <path fill="#32327B" d="M302.001 174.305s-4.569 24.833-5.33 34.775c-.762 9.942-2.285 29.77-2.285 29.77h9.392s6.092-31.039 6.092-33.831c0-2.792 7.742-30.714 7.742-30.714h-15.61"/>
        <path fill="#2A2B72" d="M303.778 238.85h-3.055c.176-2.262-.025-4.98.77-9.59 1.27-7.361 3.173-10.026 3.3-12.692.127-2.665-.979-12.082-.217-15.381.761-3.3 3.113-8.642 3.889-13.302.652-3.911-1.098-8.967-.511-13.58h9.658s-5.126 18.488-7.036 26.88c-.437 1.921-.706 3.314-.706 3.834 0 .833-.544 4.186-1.306 8.48l-.162.905c-.084.475-.172.96-.26 1.452-1.802 9.938-4.364 22.993-4.364 22.993"/>
        <path fill="#D2B68F" d="M310.746 129.292c-1.176-1.603-1.942-2.812-2.369-5.152-.427-2.34-2.958-13.764-4.208-15.139-1.25-1.374-6.608-1.29-8.1-.558-1.49.73-1.81 3.201-1.977 4.27-.167 1.07.501 4.469.21 4.976-.29.508.228 1.401.595 1.675.366.274 1.068 1.49 1.279 1.895.211.404 2.646 1.761 3.91 1.717 1.263-.045 2.046-.173 2.103.614.057.787.217 7.906.217 7.906l3.806.012 4.534-2.216"/>
        <path fill="#2A2A5B" d="M292.63 108.62c.778 2.754 5.123 2.93 5.843 2.74.72-.188.15 1.429.476 2.727.327 1.298 1.004 3.503.727 4.32-.494 1.456-3.672 2.315-3.903 2.666-.23.35 1.813 3.734 2.63 3.78.817.047 4.47-1.991 4.746-3.302.275-1.309-.667-6.089-.076-6.702.442-.46 1.35-.046 1.575 1.255.122.699-.208 1.877.408 2.474.616.596 1.494 1.14 2.68.47 1.44-.814 1.656-4.434 1.183-6.279-.521-2.038-1.567-2.137-1.671-3.38-.104-1.242.002-3.446-2.403-4.87-1.705-1.011-3.586 1.374-4.85 1.419-1.263.044-5.086-.33-6.022-.084-.863.225-1.843.984-1.342 2.766"/>
        <path fill="#75E5AA" d="M301.838 127.285c.762-.507 7.714-2.087 7.714-2.087s5.204 9.508 5.966 13.57c.761 4.061 1.713 14.976 2.475 18.91.761 3.935 3.3 18.403 2.284 19.42-1.015 1.014-14.849 0-14.849 0l-9.012.45s.368-16.263 1.453-20.668c1.086-4.405 3.97-29.595 3.97-29.595"/>
        <path fill="#82F0B6" d="M270.875 124.988l4.854-3.64 13.89 14.095s14.477-4.043 16.38-4.1c3.169-.095 5.85 3.199 5.616 6.282-.476 6.283-24.273 7.996-24.273 7.996l-16.467-20.633"/>
        <path fill="#D2B68F" d="M269.088 116.216c-2.485-2.834-3.752-2.074-2.705.306 1.047 2.38 4.79 8.242 5.156 7.968l3.17-2.377s-1.078-1.164-1.551-2.827c-.612-2.147-1.806-4.92-2.19-5.034-.468-.142-.36 1.756-.255 2.896a.293.293 0 0 1-.5.234 45.778 45.778 0 0 1-1.125-1.166"/>
        <path fill="#FAF9F7" d="M302.223 127.078v-.843l6.522-2.686.4 1.742-6.922 1.787M270.361 123.549l3.908-2.55.724.901-3.742 2.806-.89-1.157"/>
    </g>
</svg>
