<svg xmlns="http://www.w3.org/2000/svg" width="381" height="250" viewBox="0 0 381 250">
    <g fill="none" fill-rule="evenodd">
        <path fill="#E4F2F9" d="M291.424 8.253l-13.639-.01c6.31-.001 9.114 6.086 9.114 8.994v200.137h13.937V17.237c0-5.13-4.286-9.222-9.412-8.984"/>
        <path fill="#F3FAFF" d="M195.316 37.077v180.297H286.9V17.237c0-5.13-4.285-9.222-9.41-8.984l-72.662 16.854a12.287 12.287 0 0 0-9.51 11.97"/>
        <path fill="#D8DDE9" d="M12 218v-1h357v1zM0 218v-1h3v1zM5 218v-1h5v1zM378 218v-1h3v1zM371 218v-1h5v1z"/>
        <path fill="#F0F8FD" d="M220 70.622s.311-9.519 6.028-9.605c3.907-.06 4.378 1.998 5.234 1.713 1.554-2.866 4.669-4.247 8.19-4.437.38-3.522 4.092-8.294 9.041-8.224 7.519-.887 9.78 7.047 10.464 7.331 3.236-1.047 7.999-.82 11.235 4.509 8.66-.095 9.654 6.864 9.654 6.864L220 70.622zM327 146.853s.32-4.204 6.208-4.256c4.802-.041 4.509.886 5.39.76 1.83-3.828 4.28-7.366 10.652-7.357 6.175-.03 9.329 5.15 10.034 5.276 3.332-.464 5.747-1.453 8.394.704 1.805 1.47 1.773 3.89 1.773 3.89l-42.451.983zM53 20.622s.311-9.519 6.028-9.605c3.907-.06 4.378 1.998 5.234 1.713 1.554-2.866 4.669-4.247 8.19-4.437.38-3.522 4.092-8.294 9.041-8.224 7.519-.887 9.78 7.047 10.464 7.331 3.236-1.047 7.999-.82 11.235 4.509 8.66-.095 9.654 6.864 9.654 6.864L53 20.622zM11 181.853s.32-4.204 6.208-4.256c4.802-.041 4.509.886 5.39.76 1.83-3.828 4.28-7.366 10.652-7.357 6.175-.03 9.329 5.15 10.034 5.276 3.332-.464 5.747-1.453 8.394.704 1.805 1.47 1.773 3.89 1.773 3.89L11 181.852z"/>
        <path fill="#D1E6E8" d="M209.526 39.873a1.1 1.1 0 0 1-.254-2.17l65.736-15.678a1.1 1.1 0 0 1 .51 2.14l-65.736 15.679c-.086.02-.171.03-.256.03"/>
        <path fill="#75E5AA" d="M213.162 49.586l56.381-12.896c2.929-.67 5.72 1.555 5.72 4.56v145.682a4.678 4.678 0 0 1-4.677 4.678h-56.381a4.678 4.678 0 0 1-4.678-4.678V54.146a4.679 4.679 0 0 1 3.635-4.56"/>
        <path fill="#E4F2F9" d="M109.16 83.865V54.548a3.12 3.12 0 0 1 2.376-3.03l52.899-12.96a3.119 3.119 0 0 1 3.86 3.03v30.607a3.119 3.119 0 0 1-2.446 3.046L112.95 86.91a3.119 3.119 0 0 1-3.791-3.045"/>
        <path fill="#7461FF" d="M96.92 79.854v-8.368c0-1.457 1.01-2.72 2.431-3.042l21.68-4.903a3.118 3.118 0 0 1 3.807 3.041v8.253a3.119 3.119 0 0 1-2.415 3.038l-21.68 5.02a3.119 3.119 0 0 1-3.823-3.039"/>
        <path fill="#D1E6E9" d="M115.164 60.132a1.1 1.1 0 0 1-.254-2.17l45.405-10.829a1.1 1.1 0 1 1 .51 2.14L115.42 60.102c-.085.02-.172.03-.256.03M130.147 65.603a1.1 1.1 0 0 1-.255-2.17l30.33-7.234a1.101 1.101 0 0 1 .51 2.14l-30.329 7.234c-.086.02-.172.03-.256.03M130.397 74.764l30.33-7.06a1.1 1.1 0 0 0-.499-2.142l-30.33 7.06a1.1 1.1 0 0 0 .5 2.142"/>
        <path fill="#D0E7EA" d="M256.742 209.195h-61.426v-6.215h55.007a3.119 3.119 0 0 0 3.12-3.119v-8.251h6.418v14.467a3.118 3.118 0 0 1-3.119 3.118"/>
        <path fill="#59DD98" d="M259.86 191.61h-6.418V54.192l2.716-.518a3.12 3.12 0 0 1 3.703 3.064V191.61"/>
        <path fill="#E4F2F9" d="M177.175 61.305L249.74 47.46a3.119 3.119 0 0 1 3.703 3.063v149.34a3.119 3.119 0 0 1-3.119 3.118H177.76a3.119 3.119 0 0 1-3.118-3.119V64.368a3.118 3.118 0 0 1 2.534-3.063"/>
        <path fill="#D1E6E9" d="M189.501 191.74l49.827-.814a3.119 3.119 0 0 0 3.067-3.119V90.844a3.12 3.12 0 0 0-3.69-3.066l-49.827 9.29a3.118 3.118 0 0 0-2.547 3.065v88.49a3.118 3.118 0 0 0 3.17 3.118"/>
        <path fill="#61E3F0" d="M186.331 82.276V77.58a3.118 3.118 0 0 1 2.517-3.06l49.184-9.666a3.118 3.118 0 0 1 3.72 3.06v5.215a3.118 3.118 0 0 1-2.549 3.066l-49.183 9.146a3.119 3.119 0 0 1-3.689-3.066"/>
        <path fill="#D0E7EA" d="M174.64 142.689v-32.65l11.691-1.637v33l-11.69 1.287"/>
        <path fill="#8DBDCE" d="M186.331 141.403v-33.001l18.007-2.52a3.12 3.12 0 0 1 3.552 3.088v27.267a3.119 3.119 0 0 1-2.778 3.1l-18.78 2.066"/>
        <path fill="#E4F2F9" d="M160.086 139.247l39.604-4.357a3.119 3.119 0 0 0 2.778-3.1v-27.268a3.118 3.118 0 0 0-3.551-3.088l-39.605 5.545a3.119 3.119 0 0 0-2.686 3.088v26.08a3.119 3.119 0 0 0 3.46 3.1"/>
        <path fill="#7461FF" d="M177.874 121.54l1.459-8.758a6.892 6.892 0 0 0-1.46-.161c-4.323 0-7.828 3.993-7.828 8.92 0 4.925 3.505 8.919 7.829 8.919 4.323 0 7.828-3.994 7.828-8.92 0-1.28-.24-2.495-.667-3.596l-7.161 3.596"/>
        <path fill="#75E5AA" d="M186.868 115.373c-1.025-2.645-3.142-4.614-5.702-5.164l-1.459 8.76 7.161-3.596"/>
        <path fill="#625242" d="M42.824 136.525c-.668 2.742 0 8.004 0 8.004s4.921-.172 4.699-.32c-.223-.148-.745-3.798-.597-5.185.148-1.387 0-3.686 0-3.686l-4.102 1.187"/>
        <path fill="#7D6A56" d="M48.203 127.215c.296 1.174 1.397 3.56 2.024 3.735.626.174-.507 5.913-.673 6.412-.165.5-3.12.662-4.334.635-1.214-.026-4.227-.53-5.577-1.868-1.35-1.338-1.567-6.985-.903-8.15.662-1.168 3.406-4.481 4.894-4.69 1.487-.208 4.569 3.926 4.569 3.926"/>
        <path fill="#12132C" d="M45.517 126.785c.72-.08 1.515.962 2.707.411 1.194-.55 2.085-3.111 1.586-4.106-1.353-2.701-4.234-2.324-4.916-1.37-.731-1.655-4.145-2.198-4.97.475-2.608-.255-3.608.606-3.794 2.647-2.11-.273-3.165 1.806-1.45 3.296-2.058.422-1.759 4.908.969 4.643-.586.98-1.864 2.676-.334 4.455 1.53 1.778 5.923.974 6.36-.475.917-1.86 2.171.394 2.317-.803.147-1.197-2.623-3.576-1.976-5.324.297-.802 1.776-.933 1.943-1.315.168-.382-.024-2.36 1.558-2.534"/>
        <path fill="#7D6A56" d="M58.159 141.504c4.4-1.467 13.267-4.584 15.081-6.051 1.814-1.467 9.352-7.97 10.452-9.764 1.1-1.794 1.682-7.146 2.475-8.458.724-1.194 1.697-.252 1.33 2.498s-.092 6.51-.642 8.16c-.55 1.65-8.153 10.441-9.627 11.533-3.279 2.43-17.053 7.995-17.053 7.995l-2.016-5.913M42.756 144.942c-4.951 2.475-8.321 10.789-9.902 13.386-.91 1.496-3.614 6.052-2.88 6.784.733.734 6.865 9.627 9.09 10.727 2.225 1.1 2.958-4.4 2.958-4.4s-5.455-6.143-5.658-7.243c-.201-1.1 4.283-8.618 4.283-8.618l2.109-10.636M36.87 207.195c.093 2.064 1.45 4.584 0 5.868-1.45 1.283-12.634 23.837-13.184 24.754-.55.917 4.4 0 4.4 0s15.953-22.187 16.32-22.92c.366-.734 1.284-7.702 1.284-7.702h-8.82M59.075 207.195c1.378 2.406 3.117 4.768 3.3 6.051.184 1.283.184 4.218 0 6.969-.183 2.75 3.668 19.253 3.668 19.253l4.4-1.243-1.65-29.03-4.033-7.318-5.685 5.318"/>
        <path fill="#1D2443" d="M66.41 241.851s-.184 4.951.917 5.318c.895.298 10.409.112 13.924.03 1.005-.022 1.911-.714 2.087-1.705.088-.495-.059-.907-.792-.902-1.423.008-7.374-.984-9.968-1.43a1.786 1.786 0 0 1-1.452-1.42l-.682-3.517-4.4 1.243.366 2.383M21.698 243.338l6.296 4.404s3.576 1.81 4.86 1.81h3.098c1.026 0 1.245-1.367-.226-2.208l-.812-.46s-4.12-2.175-4.957-2.832c-1.619-1.273-1.87-6.235-1.87-6.235h-4.401l-2.375 4.015a1.1 1.1 0 0 0 .387 1.506"/>
        <path fill="#32327B" d="M39.822 177.557c.917 4.4 2.934 14.053 5.868 16.62 2.933 2.566 8.713 7.802 9.443 9.718.695 1.826 1.722 7.838 3.026 7.884l10.635-6.784-15.77-29.156-13.202 1.718"/>
        <path fill="#2A2B72" d="M58.159 211.779c-1.304-.046-2.33-6.058-3.026-7.884-.4-1.05-2.316-3.097-4.45-5.155.841-3.944 1.449-8.268 1.872-11.992 1.954 1.34 3.442 2.89 3.082 4.402-.688 2.888-.183 4.951 2.522 7.29 2.704 2.337 5.696 5.5 4.957 7.563-.226.629-.16 1.576.038 2.59l-4.995 3.186"/>
        <path fill="#32327B" d="M40.005 174.831c-2.017 4.034-3.484 8.618-4.034 12.47-.55 3.85-1.645 18.312-1.884 19.09-.499 1.621.467 3.65 2.163 3.71 6.047.211 10.613 2.489 10.613 2.489s.694-4.026 1.669-6.403c3.759-9.168 4.859-28.88 4.859-28.88l-13.386-2.476"/>
        <path fill="#61E3F0" d="M52.735 150.638c1.834-.733 10.38-3.68 10.38-3.68l-2.317-6a1.196 1.196 0 0 0-1.505-.701c-4.378 1.52-8.506 1.979-10.578 1.66-1.222-.188-2.01.559-4.699 1.512-2.132.757-3.311.07-4.194.988-1.315 1.367-5.175 7.275-6.92 9.981a2.202 2.202 0 0 0 .16 2.604l4.101 4.925.292-.423c.374-.54 1.225-.242 1.175.412-.363 4.758-1.549 12.45-1.507 12.915.132 1.47 1.367 3.386 1.367 3.386s12.265-.36 14.168-1.094c.765-.295 2.016-5.317 2.016-5.317s-2.933-13.753-2.933-15.403c0-1.65-.84-5.031.994-5.765"/>
        <path fill="#48D8E6" d="M42.63 178.057l.126-.882s2.108-3.17 2.108-5.37 1.1-3.85 2.911-5.776c1.811-1.925.665-5.134.058-7.61-.267-1.089-.165-6.06 3.082-8.474 3.471-2.58 9.405-3.377 11.825-3.96l.124.322.252.652s-8.547 2.946-10.38 3.68c-.957.382-1.187 1.484-1.187 2.686 0 1.102.192 2.288.192 3.078 0 1.65 2.933 15.403 2.933 15.403s-1.251 5.022-2.016 5.317c-.003 0-.005.001-.007.003h-.002l-.004.002h-.003a.008.008 0 0 1-.004.002l-.003.002h-.002a.335.335 0 0 1-.022.008l-.043.015c-.302.1-.796.192-1.42.277h-.003l-.01.002h-.004a.083.083 0 0 1-.01.002c-2.108.286-5.682.492-8.491.621M38.603 162.26l.022-.29a1.815 1.815 0 0 0 .007-.107.641.641 0 0 0-.653-.64.627.627 0 0 0-.524.281l-.292.423-1.857-2.23c.382-.839.891-1.61 1.421-2.034.5-.399 1.127-1.216 1.642-1.953a.445.445 0 0 1 .808.298l-.574 6.252"/>
        <path fill="#D4B67E" d="M124.641 132.896c.23.543 3.333 4.596 2.4 6.046-.933 1.45 5.582 7.997 6.465 6.95.883-1.047 1.187-7.7 1.077-8.177-.109-.477-2.64-1.724-3.098-2.81-.458-1.087-2.469-5.736-2.469-5.736l-4.375 3.727"/>
        <path fill="#EBD29D" d="M123.299 134.307c1.737.461 4.367-2.262 4.95-2.883 2.993-3.18 1.291-4.79.853-7.165-.438-2.375-1.577-5.88-5.712-6.607-.979-.172-2.778 2.213-2.945 3.658-.4 3.468-2.306 4.533-2.678 5.527-.082.22 1.554 2.61 2.06 3.527.607 1.103 2.5 3.685 3.472 3.943"/>
        <path fill="#12132C" d="M133.797 117.643c-1.558-2.916-4.944-4.824-9.98-2.88-1.56.602-2.4 1.45-3.246 2.735-1.26 1.91-1.01 3.594.713 4.04l2.622.678a3.514 3.514 0 0 1 2.497 2.583c.114.48 1.969-1.808 2.535-1.081.679.871.755 2.978.223 4.522-.71 2.058 2.707 1.641 4.682-1.497 1.236-1.964 1.625-5.973-.046-9.1"/>
        <path fill="#B4A783" d="M137.687 240.256a313.598 313.598 0 0 0-1.24-4.548l-4.025 1.1s.49 2.489.58 4.118c1.425-.074 3.203-.838 4.685-.67"/>
        <path fill="#1D2443" d="M137.687 240.256c-1.482-.168-3.26.596-4.684.67.021.385.02.723-.015.969-.183 1.283-2.627 2.16-4.27 2.615-1.37.38-5.585 1.295-5.832 1.742-.343.624.866 1.33 4.248 1.283.763-.01 9.597-.55 10.56-.733.962-.183 1.054-.183 1.237-.917.095-.38-.575-3.097-1.244-5.629"/>
        <path fill="#B4A783" d="M159.927 231.307l-3.52 1.132 1.503 2.72c.032.104.052.231.066.371 1.306-.563 2.612-.964 3.918-1.311l-1.967-2.912"/>
        <path fill="#1D2443" d="M163.874 237.147l-1.98-2.929c-1.306.348-2.612.75-3.918 1.312.178 1.827-1.245 6.445-3.688 7.467-.833.349-4.596 1.238-4.596 1.972 0 .733 1.25 1.008 1.525 1.008.275 0 5.458-.356 6.142-.825.714-.488 4.534-4.243 6.32-6.011a1.567 1.567 0 0 0 .195-1.994"/>
        <path fill="#3CA4D0" d="M128.571 171.806c-.307.92-6.267 26.499-8.201 34.809a8.811 8.811 0 0 0 .323 5.067l10.537 26.543s6.51-1.508 6.326-2.058c-.183-.55-5.684-25.488-5.684-26.038 0-.55 8.801-20.904 8.801-20.904l2.934-8.252-15.036-9.167"/>
        <path fill="#B4A783" d="M88.47 117.664c-.552 1.916-.927 9.194-.584 10.087.344.894 2.407 3.288 3.714 4.32l2.269-3.563s-2.268-1.444-2.613-3.317c-.259-1.406-1.617-11.584-2.786-7.527"/>
        <path fill="#5F4DE2" d="M93.869 127.339l-2.75 5.295s15.677 13.139 17.671 13.958c1.994.821 15.609 4.046 15.609 4.046l2.063-10.647s-13.684-1.612-14.302-1.853c-.62-.239-18.291-10.8-18.291-10.8"/>
        <path fill="#3B93C3" d="M134.31 237.444c-.7-3.362-1.659-10.124-2.642-11.363-2.95-3.713-.53-7.838-2.95-12.514-2.092-4.045-1.751-10.452-1.018-12.653.68-2.041 3.303-6.413 4.039-13.664 1.224 5.344 2.596 10.854 3.658 14.277-1.873 4.408-3.525 8.363-3.525 8.602 0 .55 5.5 25.488 5.684 26.038.009.026.003.054-.017.084l-.004.005-.001.002-.001.002-.002.002v.001l-.002.001v.001l-.002.002v.001l-.002.001-.001.001v.001c-.249.299-1.744.769-3.215 1.173"/>
        <path fill="#3CA4D0" d="M128.719 172.272c.256 3.23 5.7 28.092 7.727 32.127 3.9 7.762 5.906 9.747 19.721 29.843l6.051-2-14.232-29.817a1.146 1.146 0 0 0-.49-.514 1.958 1.958 0 0 1-.903-2.414l.243-.644a.833.833 0 0 0-.392-1.031 2.187 2.187 0 0 1-1.15-2.246c.612-4.285 2.255-16.198 1.801-17.399-.554-1.467-3.488-10.085-3.488-10.085l-14.888 4.18"/>
        <path fill="#3B93C3" d="M159.499 233.14c-2.139-4.228-8.338-16.995-10.345-19.848-2.613-3.713-6.464-7.564-6.464-9.077s.55-4.263-.825-6.739c-1.375-2.475-2.2-4.537-1.788-6.6.413-2.063 1.788-6.877 1.788-9.49 0-2.315-2.806-8.405-4.7-11.484l6.442-1.81s2.934 8.618 3.488 10.085c.054.143.078.439.078.855 0 3.076-1.34 12.77-1.878 16.544a2.188 2.188 0 0 0 1.15 2.246.833.833 0 0 1 .391 1.03l-.243.645a1.96 1.96 0 0 0 .902 2.413c.215.116.386.296.491.515l14.232 29.817-2.72.898"/>
        <path fill="#7461FF" d="M127.012 138.1c-3.337 2.92-3.575 10.945-4.309 14.612-.733 3.668-.183 10.292.55 13.776.734 3.483 4.768 9.351 4.768 9.351s16.32 3.484 17.97 2.018c1.65-1.468 1.283-11.736 0-15.037-1.284-3.3-6.443-22.29-10.452-24.72-2.764-1.675-7.06-1.284-8.527 0"/>
        <path fill="#806FFF" d="M112.734 173.32c2.176-.667 15.147-8.024 15.985-9.675.837-1.65-.013-14.852 0-16.228.012-1.375.197-6.902 2.213-7.684 2.406-.933 4.538.19 5.913 3.971 1.375 3.782 2.429 17.92 2.132 19.46-1.1 5.707-10.315 10.314-15.197 12.652-4.882 2.338-8.664 3.163-8.664 3.163l-2.382-5.66"/>
        <path fill="#B4A783" d="M109.977 176.3c-1.256-.965-2.063-1.268-.327-1.378 2.028-.127 3.604-.368 3.604-.368l1.862 4.425s-4.76 1.717-5.979 2.02c-1.797.446-4.783-.956-4.233-2.125.55-1.169 5.073-2.573 5.073-2.573"/>
    </g>
</svg>
