<svg xmlns="http://www.w3.org/2000/svg" width="381" height="250" viewBox="0 0 381 250">
    <g fill="none" fill-rule="evenodd">
        <path fill="#E4F2F9" fill-rule="nonzero" d="M237 140h64a8 8 0 0 1 8 8v86a8 8 0 0 1-8 8h-64V140z"/>
        <path fill="#F3FAFF" fill-rule="nonzero" d="M237 145h64a8 8 0 0 1 8 8v86a8 8 0 0 1-8 8h-64V145z"/>
        <rect width="54" height="27" x="262" y="175" fill="#E4F2F9" fill-rule="nonzero" rx="8"/>
        <path fill="#E4F2F9" d="M239.325 247.38h-92.969V72.192a7.22 7.22 0 0 1 7.22-7.22h78.528a7.22 7.22 0 0 1 7.22 7.22V247.38"/>
        <path fill="#F3FAFF" d="M229.136 247.38h-92.968V72.192a7.22 7.22 0 0 1 7.22-7.22h78.528a7.22 7.22 0 0 1 7.22 7.22V247.38"/>
        <path fill="#D8DDE9" d="M12 248v-1h357v1zM0 248v-1h3v1zM5 248v-1h5v1zM378 248v-1h3v1zM371 248v-1h5v1z"/>
        <path fill="#E4F2F9" d="M213.097 83.89h-61.952a1.817 1.817 0 1 1 0-3.636h61.952a1.818 1.818 0 0 1 0 3.635"/>
        <path fill="#75E5AA" d="M211.305 141.81h-58.367a3.61 3.61 0 0 1-3.61-3.611v-40.75a3.61 3.61 0 0 1 3.61-3.61h58.367a3.61 3.61 0 0 1 3.61 3.61v40.75a3.61 3.61 0 0 1-3.61 3.61"/>
        <path fill="#E4F2F9" d="M211.305 172.688h-58.367a3.61 3.61 0 0 1-3.61-3.61v-16.765a3.61 3.61 0 0 1 3.61-3.61h58.367a3.61 3.61 0 0 1 3.61 3.61v16.765a3.61 3.61 0 0 1-3.61 3.61M211.836 189.557h-58.368a3.61 3.61 0 0 1-3.61-3.61v-1.155a3.61 3.61 0 0 1 3.61-3.61h58.368a3.61 3.61 0 0 1 3.61 3.61v1.154a3.61 3.61 0 0 1-3.61 3.61M193.263 205.5h-39.795a3.61 3.61 0 0 1-3.61-3.609v-1.154a3.61 3.61 0 0 1 3.61-3.61h39.795a3.61 3.61 0 0 1 3.61 3.61v1.154a3.61 3.61 0 0 1-3.61 3.61M211.836 227.879h-58.368a3.61 3.61 0 0 1-3.61-3.61v-4.853a3.61 3.61 0 0 1 3.61-3.61h58.368a3.61 3.61 0 0 1 3.61 3.61v4.853a3.61 3.61 0 0 1-3.61 3.61"/>
        <path fill="#C4DEE1" d="M300.534 188.76a4.166 4.166 0 1 1-8.331 0 4.166 4.166 0 0 1 8.331 0"/>
        <path fill="#D0E7EC" d="M145.2 119.864c-3.18 0-6.207-.667-8.953-1.862V76.729a22.365 22.365 0 0 1 8.953-1.863c5.564 0 10.663 2.03 14.595 5.388h-8.65a1.818 1.818 0 0 0 0 3.635h12.062a22.396 22.396 0 0 1 4.217 9.95h-14.486a3.61 3.61 0 0 0-3.61 3.61v22.036a22.557 22.557 0 0 1-4.128.38"/>
        <path fill="#8DBDCE" d="M163.207 83.89h-12.062a1.817 1.817 0 1 1 0-3.636h8.65a22.69 22.69 0 0 1 3.412 3.635"/>
        <path fill="#59DD98" d="M149.328 119.485V97.45a3.61 3.61 0 0 1 3.61-3.61h14.486c.181 1.149.275 2.326.275 3.525 0 10.998-7.93 20.177-18.371 22.121"/>
        <path fill="#FFFFFE" d="M293.557 43.584c0 10.902-8.839 19.74-19.74 19.74-10.902 0-19.74-8.838-19.74-19.74s8.838-19.74 19.74-19.74c10.901 0 19.74 8.838 19.74 19.74"/>
        <path fill="#E1F3FA" d="M293.557 43.584h-1.592a18.089 18.089 0 0 1-5.316 12.833 18.085 18.085 0 0 1-12.832 5.315 18.084 18.084 0 0 1-12.833-5.315 18.086 18.086 0 0 1-5.315-12.833c0-5.016 2.028-9.543 5.315-12.832a18.087 18.087 0 0 1 12.833-5.316 18.088 18.088 0 0 1 12.832 5.316 18.086 18.086 0 0 1 5.316 12.832h3.184c-.002-11.782-9.551-21.33-21.332-21.332-11.782.001-21.331 9.55-21.332 21.332 0 11.782 9.55 21.331 21.332 21.332 11.781 0 21.33-9.55 21.332-21.332h-1.592"/>
        <path fill="#75E5AA" d="M273.62 42.634l6.59-4.625-.09-.009h-13l-.12.012 6.62 4.622"/>
        <path fill="#75E5AA" d="M273.558 44.908a.27.27 0 0 1-.31 0l-7.008-4.893a.896.896 0 0 0-.24.61v8.124c0 .498.404.903.903.903h13a.903.903 0 0 0 .902-.903v-8.125a.898.898 0 0 0-.254-.624l-6.993 4.908"/>
        <path fill="#FFFFFE" d="M165.391 91.546c0 11.37-9.218 20.589-20.589 20.589-11.37 0-20.588-9.219-20.588-20.589 0-11.371 9.218-20.59 20.588-20.59 11.371 0 20.59 9.219 20.59 20.59"/>
        <path fill="#E1F3FA" d="M165.391 91.546H163.8c0 5.251-2.123 9.99-5.564 13.433a18.93 18.93 0 0 1-13.433 5.564 18.93 18.93 0 0 1-13.432-5.564 18.929 18.929 0 0 1-5.564-13.433c0-5.25 2.123-9.99 5.564-13.433a18.928 18.928 0 0 1 13.432-5.564c5.251 0 9.99 2.123 13.433 5.564a18.93 18.93 0 0 1 5.564 13.433h3.184c0-12.25-9.93-22.18-22.18-22.181-12.251 0-22.18 9.93-22.181 22.181 0 12.25 9.93 22.18 22.18 22.18 12.251 0 22.18-9.93 22.181-22.18h-1.592"/>
        <path fill="#D0E7EC" d="M229.136 235.387c-6.256-.202-11.764-3.422-15.109-8.249a3.605 3.605 0 0 0 1.419-2.869v-4.853a3.61 3.61 0 0 0-3.61-3.61h-1.197c.244-10.124 8.394-18.319 18.497-18.647v38.228"/>
        <path fill="#CFE0E9" d="M214.027 227.138a19.013 19.013 0 0 1-3.388-11.332h1.197a3.61 3.61 0 0 1 3.61 3.61v4.853c0 1.17-.557 2.21-1.419 2.87"/>
        <path fill="#FFFFFE" d="M246.872 209.911c0 9.795-7.94 17.736-17.736 17.736-9.795 0-17.736-7.941-17.736-17.736 0-9.795 7.94-17.736 17.736-17.736 9.795 0 17.736 7.94 17.736 17.736"/>
        <path fill="#E1F3FA" d="M229.136 193.568c-9.011 0-16.342 7.331-16.342 16.343 0 9.01 7.33 16.342 16.342 16.342 9.011 0 16.343-7.331 16.343-16.342 0-9.012-7.332-16.343-16.343-16.343zm0 35.472c-10.548 0-19.13-8.58-19.13-19.129 0-10.549 8.582-19.13 19.13-19.13 10.549 0 19.13 8.581 19.13 19.13 0 10.548-8.581 19.13-19.13 19.13z"/>
        <path fill="#7461FF" d="M237.469 207.022h-6.923a1.932 1.932 0 0 1-1.932-1.932c0-1.722-2.08-2.583-3.298-1.366l-5.878 5.877a1.933 1.933 0 0 0 0 2.732l5.878 5.879c1.217 1.216 3.298.354 3.298-1.366 0-1.068.865-1.932 1.932-1.932h6.923a1.932 1.932 0 0 0 1.932-1.932v-4.03a1.932 1.932 0 0 0-1.932-1.93"/>
        <path fill="#C7B88A" d="M88.33 239.281l-3.47-1.104a108.055 108.055 0 0 1-1.65 3.082c1.153.647 2.475.956 3.591 1.676.502-1.535 1.528-3.654 1.528-3.654"/>
        <path fill="#2A2A5B" d="M91.365 248.151c-1.656-.512-4.487-2.998-4.802-3.787-.093-.233.027-.78.238-1.429-1.116-.72-2.438-1.029-3.59-1.676a60.085 60.085 0 0 1-1.452 2.483c-.343.55-.168 1.269.388 1.601 2.067 1.237 5.987 3.878 7.168 4.228 1.064.315 2.838.04 3.626.04.79 0-.053-.988-1.576-1.46"/>
        <path fill="#C7B88A" d="M116.005 241.259h-3.275l-.276 2.733c1.166-.292 2.493-.395 3.747-.431a15.766 15.766 0 0 1-.196-2.302"/>
        <path fill="#2A2A5B" d="M124.6 247.015c-1.262-.158-6.702-.797-7.649-1.585-.388-.324-.615-1.085-.75-1.87-1.254.037-2.581.14-3.747.432l-.299 2.956a1.334 1.334 0 0 0 1.325 1.487h12.697s-.315-1.262-1.577-1.42"/>
        <path fill="#C7B88A" d="M126.125 129.174c3.154.316 6.36 2.03 8.725 1.557 2.366-.474 12.932-5.095 13.72-5.675.788-.581 4.416-4.524 6.15-4.681 1.735-.158 2.208.315 1.262 1.104-.946.788-3.331 3.053-3.312 3.577.053 1.364 2.524-.84 2.84 0 .314.838-1.42 2.085-2.524 2.96-1.104.874-1.892.841-3.785 2.12-1.892 1.278-12.142 6.96-14.036 7.667-1.891.708-9.461-.687-9.461-.687l.42-7.942"/>
        <path fill="#48D8E6" d="M116.218 139.098l8.228 1.229a1.874 1.874 0 0 0 2.129-1.57l1.441-9.394-11.798-3.706v13.441"/>
        <path fill="#BDAE85" d="M99.421 128.054c4.94-2.576 4.029-8.057 4.413-10.936.383-2.877-.21-4.966-.21-4.966l6.925 2.473v8.25c0 3.04 5.67 2.782 5.67 2.782s-4.327 4.76-6.246 5.113c-1.919.353-10.552-2.716-10.552-2.716"/>
        <path fill="#32327B" d="M119.553 166.266c1.104 7.884 4.153 30.993 3.838 36.67-.315 5.677-5.718 39.026-5.718 39.026h-6.162s-2.208-29.175-1.893-31.54c.315-2.366 2.172-5.122 1.262-7.96-.91-2.838-8.989-30.046-8.831-32.727.157-2.681.786-5.825.786-5.825l16.718 2.356"/>
        <path fill="#61E3F0" d="M93.218 128.627c3.364-2.417 9.52-4.095 9.52-4.094.97.867 2.15 2.202 4.02 2.268 2.25.08 3.46-.454 4.511-2.346 0 0 4.763.56 6.55 2.385 1.563 1.597 2.756 9.874 2.845 14.825.046 2.586-2.866 7.264-.931 25.544.046.432-9.35-.469-12.188-.996-2.839-.525-8.808-.999-8.808-.999l-5.52-36.587"/>
        <path fill="#C7B88A" d="M102.867 116.4c1.365 2.476 7.807 5.034 9.217 4.252 1.41-.782 2.928-4.252 3.253-5.227.325-.977-.434-1.254-.434-2.2 0-.945 1.193-4.524 0-6.15-1.192-1.627-2.614-4.23-5.753-3.254-3.14.976-5.945 3.678-6.392 5.91-.434 2.169-.868 4.9.109 6.67"/>
        <path fill="#2A2A5B" d="M102.867 117.115c.862 1.058 1.078-2.293.731-2.979-2.004-3.96 2.22-1.704 3.013-3.646.769-1.884 2.735-3.253 3.82-3.145 1.084.108 4 1.695 5.204.61 1.205-1.084 1.79-2.749 1.79-3.294 0-2.195-2.318-1.053-3.769-1.816-.607-.319-4.124-2.6-6.886-2.535-2.014.047-6.1 2.36-6.872 5.328-.485 1.863-1.586 5.882 2.969 11.477"/>
        <path fill="#0E111B" d="M99.595 165.556c-.534-.21-.858-.342-.858-.342l-5.52-36.587 5.52 36.587s.368.03.965.082l-.107.26M93.24 128.61c.498-.356 1.044-.71 1.609-1.055l.043.035c-.593.322-1.153.663-1.652 1.02"/>
        <path fill="#48D8E6" d="M107.458 165.667l-3.065-.266.364-1.098-4.935.7-.12.293c-.597-.052-.965-.082-.965-.082l-5.52-36.587.023-.016c.5-.357 1.06-.698 1.652-1.02 3.78 3.122 8.045 7.253 8.181 9.067.158 2.089-1.34 4.77 1.026 7.253 2.365 2.484 3.122 3.036 2.842 5.678-.28 2.642 3.714 4.454 3.702 7.214-.014 3.553-1.572 5.557-2.76 7.107-.424.555-.486 1.16-.425 1.757"/>
        <path fill="#C7B88A" d="M93.638 148.393l3.106 11.166a4.279 4.279 0 0 0 3.69 3.112c6.772.687 23.093 2.333 24.008 2.333h4.867c1.01 0 1.851-.779 1.923-1.787.091-1.277.133-2.81-.167-3.05-.525-.42-3.784.317-3.995-.315-.21-.63.631-2.955-.21-3.107-.84-.152-1.123 2.414-1.787 2.897-2.313 1.682-18.132-3.995-21.763-4-.727-.002-2.523-10.718-2.523-10.718l-7.15 3.469"/>
        <path fill="#61E3F0" d="M94.117 128.015s-2.613 1.503-3.738 3.24c-1.856 2.869.131 13.093.99 17.024a1.741 1.741 0 0 0 1.965 1.35c2.686-.41 7.87-1.509 8.712-3.97.693-2.023-2.836-15.98-7.93-17.644"/>
        <path fill="#2A2B72" d="M115.082 241.962h-3.571s-1.923-25.402-1.923-30.722c0-.382.01-.66.03-.819.315-2.365 2.173-5.12 1.262-7.96-.263-.819-1.124-3.672-2.212-7.38 1.193-4.99 2.47-10.46 3.51-14.955 1.522 3.47 2.908 6.895 2.908 8.849 0 2.839-1.263 7.674-.737 9.777.526 2.102 2.628 5.572 2.839 8.095.21 2.524-1.787 7.885-1.997 12.196-.186 3.81-.126 19.362-.11 22.919"/>
        <path fill="#32327B" d="M99.822 165.004L94.97 176.79a12.1 12.1 0 0 0-.877 5.56c.502 6.354 1.417 21.375-.874 24.076-4.416 5.204-10.093 32.38-10.093 32.38l5.917 2.69s14.741-29.183 16.003-32.337c1.261-3.153 9.304-38.479 9.304-38.479v-4.415l-14.527-1.262"/>
        <path fill="#27275E" d="M104.393 165.4l-1.611-.14-.154-.214-.034.198-2.772-.24 4.935-.7c-.12.363-.241.73-.364 1.097"/>
        <path fill="#2A2B72" d="M84.058 239.231l-.933-.424s5.677-27.176 10.093-32.38c1.136-1.34 1.484-5.712 1.485-10.553 0-4.918-.358-10.32-.61-13.523a12.102 12.102 0 0 1 .876-5.56l4.853-11.787 2.772.24.188.017 1.61.14c-.964 2.891-1.98 5.77-2.462 6.542-.722 1.156.325 7.148.116 9.252-.208 2.102-3.152 5.782-3.887 7.99-.736 2.208-.21 15.875-1.051 17.872-.842 1.998-3.785 3.68-5.363 7.045-1.378 2.941-6.437 20.711-7.687 25.13"/>
        <path fill="#32327B" d="M98.54 163.91l.465 3.078s10.843.447 14.162.697c2.175.164 6.698.833 6.698.833v-2.883s-7.672-.956-9.222-1.114c-1.257-.128-12.103-.61-12.103-.61"/>
        <path fill="#F0F8FD" d="M324 100.853s.32-4.204 6.208-4.256c4.802-.041 4.509.886 5.39.76 1.83-3.828 4.28-7.366 10.652-7.357 6.175-.03 9.329 5.15 10.034 5.276 3.332-.464 5.747-1.453 8.394.704 1.805 1.47 1.773 3.89 1.773 3.89l-42.451.983zM17 169.853s.32-4.204 6.208-4.256c4.802-.041 4.509.886 5.39.76 1.83-3.828 4.28-7.366 10.652-7.357 6.175-.03 9.329 5.15 10.034 5.276 3.332-.464 5.747-1.453 8.394.704 1.805 1.47 1.773 3.89 1.773 3.89L17 169.852zM65 20.622s.311-9.519 6.028-9.605c3.907-.06 4.378 1.998 5.234 1.713 1.554-2.866 4.669-4.247 8.19-4.437.38-3.522 4.092-8.294 9.041-8.224 7.519-.887 9.78 7.047 10.464 7.331 3.236-1.047 7.999-.82 11.235 4.509 8.66-.095 9.654 6.864 9.654 6.864L65 20.622z"/>
        <path fill="#61E3F0" fill-rule="nonzero" d="M146.286 88.5V99h-3.572V88.5H137V85h15v3.5h-5.714zM137 90.6h3.571V99H137v-8.4zm11.429 0H152V99h-3.571v-8.4z"/>
    </g>
</svg>
