<svg xmlns="http://www.w3.org/2000/svg" width="383" height="250" viewBox="0 0 383 250">
    <g fill="none" fill-rule="evenodd">
        <path fill="#F3FAFF" d="M111.706 229.54h237.086V33.191c0-4.69-3.917-8.43-8.602-8.212L119.546 35.213a8.22 8.22 0 0 0-7.84 8.212V229.54z"/>
        <path fill="#D8DDE9" d="M12 229.814v-1h357v1zM0 229.814v-1h3v1zM5 229.814v-1h5v1zM378 229.814v-1h3v1zM371 229.814v-1h5v1z"/>
        <path fill="#E4F2F9" d="M111.706 50.198v-6.773a8.22 8.22 0 0 1 7.84-8.212L340.19 24.98c.131-.006.26-.009.39-.009 4.51 0 8.212 3.662 8.212 8.221v5.677l-158.01 7.551a5.554 5.554 0 0 1-4.476-1.926l-2.633-3.063a5.555 5.555 0 0 0-4.435-1.927l-22.806.92a5.555 5.555 0 0 0-4.257 2.267l-2.664 3.637a5.554 5.554 0 0 1-4.215 2.266l-33.59 1.605"/>
        <path fill="#E05A54" d="M124.043 43.127c.053 1.136-.81 2.101-1.928 2.153-1.119.052-2.068-.827-2.12-1.965-.054-1.137.81-2.1 1.928-2.153 1.118-.052 2.067.827 2.12 1.965"/>
        <path fill="#F5CD2F" d="M131.158 42.818c.054 1.137-.81 2.1-1.928 2.153-1.118.053-2.068-.827-2.121-1.964-.053-1.136.81-2.1 1.928-2.153 1.119-.052 2.068.827 2.121 1.964"/>
        <path fill="#519DC8" d="M138.272 42.486c.054 1.137-.81 2.101-1.928 2.153-1.118.052-2.068-.827-2.12-1.964-.054-1.137.81-2.101 1.928-2.154 1.118-.051 2.067.828 2.12 1.965"/>
        <path fill="#75E5AA" d="M137.365 150.43h-.001a4.442 4.442 0 0 1-4.429-4.429v-44.814a4.442 4.442 0 0 1 4.429-4.428 4.442 4.442 0 0 1 4.43 4.428v44.814a4.442 4.442 0 0 1-4.43 4.43M157.865 148.533a4.442 4.442 0 0 1-4.43-4.429V86.727a4.442 4.442 0 0 1 4.43-4.43 4.442 4.442 0 0 1 4.43 4.43v57.377a4.442 4.442 0 0 1-4.43 4.429"/>
        <path fill="#61E3F0" d="M178.145 146.992a4.442 4.442 0 0 1-4.43-4.429V97.75a4.442 4.442 0 0 1 4.43-4.429 4.442 4.442 0 0 1 4.428 4.429v44.814a4.442 4.442 0 0 1-4.428 4.429M198.645 145.714a4.442 4.442 0 0 1-4.43-4.428v-32.252a4.442 4.442 0 0 1 4.43-4.429 4.442 4.442 0 0 1 4.43 4.43v32.25a4.442 4.442 0 0 1-4.43 4.43"/>
        <path fill="#7461FF" d="M219.145 145.714a4.442 4.442 0 0 1-4.428-4.428V71.985a4.442 4.442 0 0 1 4.428-4.429 4.442 4.442 0 0 1 4.43 4.429v69.3a4.442 4.442 0 0 1-4.43 4.43"/>
        <path fill="#75E5AA" d="M239.646 145.714a4.442 4.442 0 0 1-4.43-4.428V71.985a4.442 4.442 0 0 1 4.43-4.429 4.442 4.442 0 0 1 4.43 4.429v69.3a4.442 4.442 0 0 1-4.43 4.43"/>
        <path fill="#E4F2F9" d="M240.55 206.318l-102.628 2.736a3.621 3.621 0 0 1-3.717-3.621v-38.35a3.622 3.622 0 0 1 3.495-3.619l102.628-3.58a3.622 3.622 0 0 1 3.747 3.62v39.194a3.62 3.62 0 0 1-3.525 3.62"/>
        <path fill="#7461FF" d="M168.102 182.55a.598.598 0 0 0 .169.243c-.119-.14-.153-.202-.169-.243zm-23.65 15.557l-.904-.904c1.062-1.062 8.52-5.823 12.76-8.47 11.642-7.267 12.212-7.117 12.514-7.05l.483.439a.455.455 0 0 0-.055-.115c.543.753 9.224 8.337 14.91 13.236l14.38-17.853 10.478 8.125 20.774-21.31.915.892-21.571 22.127-10.386-8.057-14.424 17.906-.5-.43c-11.257-9.69-14.427-12.648-15.344-13.617-2.84 1.237-22.484 13.534-24.03 15.08z"/>
        <path fill="#7461FF" d="M146.66 197.655a2.236 2.236 0 1 1-4.471 0 2.236 2.236 0 0 1 4.472 0M170.51 182.75a2.236 2.236 0 1 1-4.473-.001 2.236 2.236 0 0 1 4.472 0M186.265 196.058a2.236 2.236 0 1 1-4.472 0 2.236 2.236 0 0 1 4.472 0M200.745 178.278a2.236 2.236 0 1 1-4.472 0 2.236 2.236 0 0 1 4.472 0M211.313 186.37a2.236 2.236 0 1 1-4.473-.001 2.236 2.236 0 0 1 4.473 0"/>
        <path fill="#D1E6E8" d="M308.77 49.984a1.122 1.122 0 0 1-.057-2.242l17.188-.797c.61-.048 1.144.45 1.173 1.069a1.122 1.122 0 0 1-1.07 1.173l-17.187.797h-.047M182.942 55.919a1.121 1.121 0 0 1-.057-2.243l117.274-5.434c.613-.046 1.144.45 1.172 1.07a1.122 1.122 0 0 1-1.069 1.172l-117.273 5.434h-.047M134.55 58.161a1.122 1.122 0 0 1-.057-2.242l33.39-1.547a1.107 1.107 0 0 1 1.172 1.069 1.121 1.121 0 0 1-1.068 1.172l-33.39 1.547-.047.001"/>
        <path fill="#E4F2F9" d="M324.405 106.386l-56.06 2.223a3.621 3.621 0 0 1-3.765-3.619V62.482c0-1.929 1.512-3.52 3.44-3.617l56.06-2.822a3.622 3.622 0 0 1 3.804 3.616v43.109a3.622 3.622 0 0 1-3.479 3.618M324.89 204.244l-56.063 2.224a3.621 3.621 0 0 1-3.764-3.598l-.463-78.996a3.622 3.622 0 0 1 3.478-3.64l56.062-2.223a3.622 3.622 0 0 1 3.765 3.598l.463 78.996a3.622 3.622 0 0 1-3.478 3.64"/>
        <path fill="#7461FF" d="M296.2 82.507l5.842-16.151a16.08 16.08 0 0 0-5.843-1.096c-9.19 0-16.64 7.721-16.64 17.247 0 9.525 7.45 17.247 16.64 17.247 9.19 0 16.64-7.722 16.64-17.247 0-1.38-.162-2.72-.457-4.006L296.2 82.507"/>
        <path fill="#61E3F0" d="M315.694 75.069c-1.287-5.606-5.21-10.15-10.34-12.145l-5.844 16.15 16.184-4.005"/>
        <path fill="#7461FF" d="M225.583 166.556l2.691 2.423a.484.484 0 0 0 .768-.166l1.885-4.308a.485.485 0 0 0-.628-.642l-4.577 1.886a.484.484 0 0 0-.14.807"/>
        <path fill="#E4F2F9" d="M347.378 24.977l-4.234.197c2.928.728 5.12 3.368 5.12 6.546l.528 197.82h6.177l-.529-197.82a6.75 6.75 0 0 0-7.062-6.743"/>
        <path fill="#F0F8FD" d="M130.749 23.012s-6.062-10.736-12.829-11.125c-6.627-.38-10.62 3.434-16.528 2.875-4.163-.394-7.506-4.95-14.662-4.905C79.755 9.902 76.08 0 67.137 0c-10.94 0-15.341 6.018-20.76 9.412-5.023 3.145-8.123 4.312-15.81 2.094C20.247 8.53 13 23.012 13 23.012h117.749M367.76 107.867C357.91 110.07 355.464 101 347.64 101c-6.707 0-9.273 5.217-14.692 7.41-5.022 2.031-7.483 1.049-15.171-.383-10.32-1.924-12.776 9.167-12.776 9.167h77.293s-7.55-10.89-14.533-9.327"/>
        <path fill="#FFFFFE" d="M51.207 160.705a2.015 2.015 0 0 1-1.883-1.28L20.944 87.78a2.012 2.012 0 0 1 .023-1.55 2.01 2.01 0 0 1 1.112-1.077l31.404-12.441a2.016 2.016 0 0 1 2.628 1.136l28.38 71.644a2.027 2.027 0 0 1-1.136 2.628l-31.403 12.44c-.24.095-.49.144-.745.144"/>
        <path fill="#75E5AA" d="M54.227 70.972c-.443 0-.895.083-1.333.256l-31.403 12.44a3.623 3.623 0 0 0-2.033 4.702l28.381 71.643a3.623 3.623 0 0 0 4.701 2.033l31.404-12.44a3.621 3.621 0 0 0 2.032-4.701l-28.38-71.643a3.624 3.624 0 0 0-3.369-2.29zm0 3.194a.43.43 0 0 1 .4.272l28.38 71.643c.044.11.042.22-.005.327a.415.415 0 0 1-.235.228l-31.403 12.44-.157.031a.428.428 0 0 1-.398-.27L22.428 87.192a.428.428 0 0 1 .24-.555l31.403-12.44.156-.032z"/>
        <path fill="#75E5AA" d="M59.976 113.762a7.808 7.808 0 1 1-14.518 5.75 7.808 7.808 0 0 1 14.518-5.75"/>
        <path fill="#9E8F64" d="M30.456 138.195c.479-1.597.745-2.768.425-4.738-.319-1.97-1.524-11.711-.922-13.148.603-1.438 4.862-2.875 6.246-2.715 1.384.16 2.33 2.023 2.761 2.821.433.799.858 3.673 1.231 3.993.373.32.213 1.17 0 1.49-.213.32-.426 1.478-.479 1.857-.053.379-1.597 2.135-2.608 2.455-1.012.32-1.667.437-1.49 1.076.176.638.691 2.544 1.383 3.449.692.904 1.963 2.395 1.963 2.395l-4.305 1.544-4.205-.48"/>
        <path fill="#2A2A5B" d="M38.973 116.77c.16 2.395-3.227 3.752-3.85 3.805-.622.053.284 1.17.39 2.289.106 1.118.19 3.051.638 3.62.799 1.011 3.553.798 3.833 1.011.28.213-.385 3.46-1.018 3.727-.632.265-4.092-.32-4.677-1.278-.586-.958-1.183-5-1.822-5.32-.479-.24-1.08.343-.893 1.434.1.587.692 1.425.372 2.07-.32.645-.861 1.32-1.987 1.124-1.366-.24-2.553-3.04-2.697-4.632-.16-1.756.639-2.129.372-3.14-.266-1.012-.968-2.724.533-4.525 1.064-1.277 3.22.08 4.231-.24 1.012-.319 3.929-1.687 4.738-1.756.746-.064 1.733.261 1.837 1.81"/>
        <path fill="#9E8F64" d="M28.97 224.542l1.82-1.517-2.13-3.028-1.733 1.393c.707 1.188 1.23 2.344 1.879 3.312.056-.053.105-.11.165-.16"/>
        <path fill="#2A2A5B" d="M28.806 224.703c-.648-.969-1.172-2.125-1.879-3.313l-2.71 2.18a1.507 1.507 0 0 0-.414 1.827l4.296 8.954h.18c.9 0 1.531-.888 1.236-1.738l-1.546-4.461a3.285 3.285 0 0 1 .837-3.449M67.505 229.754c-2.336-.403-4.26-.54-4.26-.54-1.796-.419-2.264-2.097-2.481-3.516-1.38.143-2.84 1.013-4.069.75v3.876c0 .862.698 1.56 1.56 1.56H68.58s.469-1.864-1.075-2.13"/>
        <path fill="#9E8F64" d="M60.764 225.698c-.053-.348-.092-.68-.13-.975l-.446-3.38-3.493.673v4.432c1.23.263 2.689-.607 4.069-.75"/>
        <path fill="#3CA4D0" d="M42.433 169.761c.958 3.194 10.024 29.063 10.114 29.917.252 2.382 2.448 23.848 2.448 23.848s6.602-.533 6.921-1.278c.32-.745-.5-25.122-.533-26.669-.106-5.164-7.026-28.266-7.026-28.266l-11.924 2.448"/>
        <path fill="#0E111B" d="M45.996 169.03l2.28-.469-2.28.468"/>
        <path fill="#3B93C3" d="M54.995 223.526s-2.196-21.466-2.448-23.848c-.038-.358-1.646-5.092-3.575-10.713.805-7.421 1.127-14.144 1.127-14.945v-.305a24.75 24.75 0 0 0 1.49 2.86c1.81 2.98 3.406 5.323 2.555 9.795-.852 4.471-.715 6.068 1.4 8.41 2.113 2.342 2.965 6.388 2.007 8.837-.959 2.448-1.597 7.559-.426 9.582.801 1.385.889 6.759.864 10.013-1.562.198-2.994.314-2.994.314m-6.449-54.074l-2.55-.423 2.28-.468c.09.303.18.6.27.89"/>
        <path fill="#3CA4D0" d="M35.62 167.313c-1.598 5.909-.693 7.825-.693 9.582 0 1.756 3.035 21.559 2.396 24.273-.639 2.715-10.22 18.365-10.22 18.365l3.742 5.471s12.98-14.756 14.143-16.969c3.833-7.293 5.11-32.418 5.11-34.015v-4.312l-14.479-2.395"/>
        <path fill="#483224" d="M28.777 221.98l-.917-1.34.917 1.34"/>
        <path fill="#0E111B" d="M39.944 168.028l-4.325-.715 4.325.715"/>
        <path fill="#3B93C3" d="M28.777 221.98l-1.675-2.447s9.582-15.65 10.22-18.365c.062-.26.089-.676.089-1.218-.003-5.121-2.484-21.467-2.484-23.055 0-.934-.255-1.912-.255-3.51 0-1.41.199-3.302.947-6.072l4.325.715c-.89 3.668-1.695 7.507-1.344 9.611.426 2.556 1.703 10.008 2.449 12.244.745 2.236.958 7.878 0 9.582-.958 1.703-1.916 5.323-1.916 7.665 0 2.343-2.236 5.75-4.685 7.666-1.558 1.219-4.058 4.766-5.671 7.185"/>
        <path fill="#7461FF" d="M30.19 136.013c-.746 3.087-1.385 7.346 0 12.136 1.384 4.791 4.471 13.095 4.79 14.692.32 1.597.296 5.738.14 6.565-.157.827 9.868 2.272 11.571 1.952 1.704-.32 8.518-2.661 8.837-3.087.32-.426-4.471-16.822-5.856-19.163-1.384-2.343-5.59-9.582-7.213-10.86-1.623-1.277-3.326-3.94-3.859-3.832-.532.106-2.235 1.703-3.407 2.022-1.17.32-5.003-.425-5.003-.425"/>
        <path fill="#5F4DE2" d="M55.528 168.271c.32-.426-4.471-16.822-5.856-19.163-1.384-2.343-5.59-9.582-7.213-10.86-1.623-1.277-3.326-3.94-3.859-3.832-.41.081-1.513 1.042-2.534 1.628 2.382 2.452 4.703 5.643 5.302 7.527.746 2.343-.212 7.346 0 8.943.213 1.597 2.449 4.046 3.088 5.75.638 1.703-2.13 2.874-1.278 5.322.554 1.594 3.633 4.99 5.716 7.169 2.645-.82 6.398-2.17 6.634-2.484"/>
        <path fill="#9E8F64" d="M38.6 143.997c1.339 1.092 11.39 11.919 12.027 11.98.635.061 14.057-.333 14.749-.855.692-.522 2.558-2.665 3.235-3.027.677-.363 1.23.012 1.183.488-.046.477-1.168 1.16-1.148 1.515.019.356 3.42-.005 3.98-.272.561-.266 1.458-1.25 1.63-.805.17.445-2.25 3.519-2.986 3.93-.734.41-5.51 1.964-6.214 2.058-.704.092-14.59 2.65-15.305 2.688-.714.038-14.406-12.603-14.644-12.909-.238-.307 3.493-4.79 3.493-4.79"/>
        <path fill="#806FFF" d="M34.583 139.78c-2.057 1.106-2.508 3.637-1.518 6.725.99 3.09 5.166 8.086 6.11 8.282 0 0 2.455-5.006 3.489-5.763 1.035-.758 1.314-1.075 1.01-1.615-.732-1.3-7.062-8.719-9.09-7.628"/>
        <path fill="#1D1E40" d="M314.395 211.814c1.198 6.282 6.906 32.046 6.906 32.046l2.676-.612-6.308-32.338-3.274.904M304.893 212.587l-3.354 29.543h2.476l4.631-29.543h-3.753M288.151 242.13h1.89l4.232-28.569-3.061.623-3.06 27.946"/>
        <path fill="#2A2A5B" d="M290.957 214.357c9.821-.638 23.917-.866 28.548-2.543 4.632-1.676 10.22-4.817 10.851-9.59.497-3.761.63-19.06.407-20.892-1.516-12.476-12.136-10.44-12.136-10.44l-3.593 31.235-20.76 8.863-3.317 3.367"/>
        <path fill="#181838" d="M290.958 214.357c6.122-1.468 22.612-5.43 24.342-5.95 2.13-.638 6.493-2.128 6.814-3.406.025-.103.037-.257.037-.454v-.007c-.006-2.277-1.597-10.229-2.38-10.718a.71.71 0 0 0-.257-.072 5.068 5.068 0 0 0-.69-.037c-.7 0-1.71.067-2.842.17l2.645-22.99s.643-.124 1.635-.124c.778 0 1.771.076 2.838.347.296 1.974-.163 3.321.877 5.427 1.277 2.587 2.022 8.123 0 10.572-2.023 2.449-1.57 7.712-.724 10.124 1.704 4.86 2.161 7.017.724 8.614-1.438 1.597-7.386 3.939-9.789 4.364-1.997.354-10.32 2.034-13.695 3.63-3.315.167-6.614.32-9.535.51"/>
        <path fill="#BDAE85" d="M281.748 243.103a.477.477 0 0 0-.398-.54l-2.326-.37a.476.476 0 0 0-.527.317 17.368 17.368 0 0 1-.574 1.495c1.092.815 2.347.803 3.558.893l.267-1.795"/>
        <path fill="#1D1E40" d="M277.923 244.005c-.131.288-.26.518-.365.6-.372.293-4.79.8-6.92 1.065-1.08.135-1.75.585-2.147.995-.28.291-.072.781.333.8l11.764.528a.475.475 0 0 0 .493-.407l.4-2.688c-1.211-.09-2.466-.078-3.558-.893"/>
        <path fill="#BDAE85" d="M304.186 238.146l-.935-1.304-2.646 1.86s.637 1.278.873 2.047c.953-.987 1.77-1.94 2.708-2.603"/>
        <path fill="#1D1E40" d="M304.186 238.146c-.939.662-1.755 1.616-2.708 2.603.062.203.098.373.085.471-.064.47-2.886 3.907-4.23 5.58-.593.738-.797 1.43-.84 1.973-.039.496.562.775.934.446l8.267-7.318c.411-.364.48-.981.16-1.428l-1.668-2.327"/>
        <path fill="#48D8E6" d="M305.133 168.856c-3.408 4.366-16.449 22.305-16.449 22.305l4.472 1.17 13.414-15.117-1.437-8.358"/>
        <path fill="#BDAE85" d="M312.958 167.26c-.379-2.798-.083-12.684-.083-12.684l-6.729 2.418s1.1 11.436 1.101 12.555c.007 2.957 6.089.508 5.71-2.29"/>
        <path fill="#C7B88A" d="M313.62 158.706c-1.323 2.41-7.582 4.91-8.955 4.153-1.372-.758-3.313-4.5-3.631-5.447-.318-.95.875-1.77.874-2.69-.002-.92-1.167-3.478-.01-5.062s2.534-4.117 5.588-3.174c3.054.943 5.789 3.564 6.227 5.735.426 2.108.853 4.762-.093 6.485"/>
        <path fill="#2A2A5B" d="M313.622 159.4c-1.322.13-1.054-2.227-.718-2.894 1.943-3.855-2.161-1.653-2.936-3.54-.752-1.83-2.666-3.158-3.72-3.051-1.055.108-3.704 1.406-5.06.604-2.523-1.491-2.321-4.352-2.046-4.805.8-1.317 2.552.577 3.96-.168.59-.313 4.005-2.536 6.691-2.478 1.96.041 6.406 3.074 7.162 5.96.476 1.81-.164 10.06-3.333 10.372"/>
        <path fill="#32327B" d="M279.528 211.814c-.94 4.634-2.449 30.981-2.449 30.981s4.684.959 5.43 1.065c.745.107 5.642-23.741 5.642-23.741l-8.623-8.305"/>
        <path fill="#32327B" d="M307.528 194.887c-7.24 2.13-27.681 10.22-29.171 11.285-1.49 1.065-2.556 4.898-2.13 6.175.426 1.278 7.133 11.818 9.901 15.012 2.769 3.193 13.84 13.84 13.84 13.84l4.366-5.75s-8.623-12.35-9.9-13.52c-1.278-1.172-5.75-7.027-5.75-7.027s24.487-5.855 26.616-6.494c2.13-.639 6.493-2.13 6.814-3.407.319-1.277-1.49-10.646-2.343-11.179-.851-.532-12.243 1.065-12.243 1.065"/>
        <path fill="#DDEDF0" d="M288.684 214.902s.86-.205 2.274-.545h-.001c-1.412.34-2.273.545-2.273.545"/>
        <path fill="#0F0F25" d="M290.958 214.357c6.122-1.468 22.612-5.43 24.342-5.95 2.13-.638 6.493-2.128 6.814-3.406-.32 1.278-4.685 2.768-6.814 3.407-1.73.518-18.22 4.481-24.342 5.95m31.193-9.818c-.006-2.277-1.597-10.229-2.38-10.718.783.49 2.374 8.44 2.38 10.718"/>
        <path fill="#2A2B72" d="M303.276 236.842c-1.75-2.51-4.322-6.074-5.649-7.302-2.129-1.97-7.7-3.63-8.943-5.695-1.244-2.066-1.154-5.142-2.129-6.389-1.704-2.177-2.392-3.935-.266-6.546 1.795-2.207 11.033-4.963 13.726-4.963.1 0 .192.004.274.012.386.037.748.055 1.089.055 4.365 0 5.234-2.854 6.715-3.941.348-.256.853-.349 1.449-.349.815 0 1.8.175 2.779.35.98.176 1.955.35 2.751.35.496 0 .923-.067 1.24-.244 1.528-.86 1.186-4.455.818-8.39a25.085 25.085 0 0 1 1.696-.076c.285 0 .519.01.688.036a.71.71 0 0 1 .257.072c.783.49 2.374 8.44 2.38 10.718v.007c0 .197-.012.351-.037.454-.32 1.278-4.685 2.768-6.814 3.407-1.73.518-18.22 4.481-24.342 5.95l-2.274.544s4.472 5.855 5.75 7.027c1.277 1.17 9.9 13.52 9.9 13.52l-1.058 1.393"/>
        <path fill="#61E3F0" d="M304.654 176.681s-.852 7.772-.959 9.05c-.106 1.278-2.661 11.924-2.661 11.924s8.836-1.49 11.817-1.384c2.981.107 8.045.678 8.045.678s-.806-4.51-.486-8.024c.32-3.513 1.505-16.29.486-18.95-.742-1.94-3.018-3.85-5.383-4.313-1.092-.213-2.697-.428-2.697-.428s-.923 3.25-3.585 3.622c-1.075.151-2.135-1.492-2.135-1.492l-1.963 1.492-.48 7.825"/>
        <path fill="#2A2A5B" d="M277.779 190.543l2.1 7.922c.236.889 1.1 1.46 2.01 1.329l13.765-1.982a1.811 1.811 0 0 0 1.486-2.279l-2.207-7.921a1.812 1.812 0 0 0-2.004-1.307l-13.66 1.982a1.81 1.81 0 0 0-1.49 2.256"/>
        <path fill="#BDAE85" d="M301.034 194.7c-3.407.4-3.252-1.493-3.827-2.137-.594-.665-1.05-.431-.858.407.36 1.571-.046 2.805-1.004 3.178-.958.373-4.372.655-4.133 1.507.24.852 2.21 1.93 3.7 1.683 1.49-.246 6.628-1.363 6.628-1.363l-.506-3.274"/>
        <path fill="#82EAF5" d="M299.364 194.603a.953.953 0 0 1 .644-1.145c4.911-1.498 12.171-4.551 13.375-7.46 1.278-3.089 2.023-11.446 1.917-12.617-.106-1.171.213-6.494 2.98-5.855 2.769.638 3.46 2.874 3.461 4.152.001 2.555-.94 15.896-2.928 18.258-3.127 3.716-14.28 7.47-17.526 8.505a.88.88 0 0 1-1.119-.626l-.804-3.212"/>
    </g>
</svg>
