<svg xmlns="http://www.w3.org/2000/svg" width="387" height="250" viewBox="0 0 387 250">
    <g fill="none" fill-rule="evenodd">
        <path fill="#F3FAFF" d="M164.025 71.75V227.3h195.128V63.327a6.766 6.766 0 0 0-7.08-6.759l-181.596 8.423a6.766 6.766 0 0 0-6.452 6.759"/>
        <path fill="#FFFFFE" d="M359.151 63.173"/>
        <path fill="#E4F2F9" d="M164.025 77.324V71.75a6.766 6.766 0 0 1 6.452-6.76l181.596-8.422a6.766 6.766 0 0 1 7.08 6.759V68l-130.045 6.215a4.573 4.573 0 0 1-3.684-1.585l-2.169-2.52a4.57 4.57 0 0 0-3.65-1.588l-18.77.758a4.572 4.572 0 0 0-3.503 1.866l-2.193 2.993a4.571 4.571 0 0 1-3.469 1.865l-27.645 1.321"/>
        <path fill="#E4F2F9" d="M358.265 56.568l-4.244.197c2.935.73 5.132 3.377 5.132 6.562V227.3h6.192V63.327a6.766 6.766 0 0 0-7.08-6.759"/>
        <path fill="#6E68A0" d="M251.865 84.271l-63.644 2.567a6.766 6.766 0 0 0-6.494 6.76v15.809a6.767 6.767 0 0 0 7.006 6.762l63.644-2.25a6.766 6.766 0 0 0 6.527-6.763V91.032a6.766 6.766 0 0 0-7.04-6.76"/>
        <path fill="#3DC7D4" d="M181.727 169.47v29.278a6.766 6.766 0 0 0 6.871 6.765l63.645-.984a6.766 6.766 0 0 0 6.66-6.766v-29.57c0-3.79-3.111-6.84-6.901-6.764l-63.644 1.277a6.766 6.766 0 0 0-6.63 6.764"/>
        <path fill="#75E5AA" d="M181.727 130.337v16.394c0 3.8 3.13 6.855 6.93 6.764l63.643-1.53a6.766 6.766 0 0 0 6.604-6.764v-16.394c0-3.8-3.13-6.855-6.929-6.764l-63.644 1.53a6.766 6.766 0 0 0-6.604 6.764"/>
        <path fill="#D8DDE9" d="M12 228v-1h363v1zM0 228v-1h3v1zM5 228v-1h5v1zM384 228v-1h3v1zM377 228v-1h5v1z"/>
        <path fill="#59DD98" d="M188.49 153.496a6.767 6.767 0 0 1-6.752-6.38l6.271-.15a6.768 6.768 0 0 0 5.501 6.412l-4.854.117-.166.001"/>
        <path fill="#D24B49" d="M172.845 71.687c.044.936-.667 1.73-1.587 1.772-.92.043-1.702-.68-1.745-1.616-.044-.936.667-1.73 1.586-1.773.921-.042 1.702.681 1.746 1.617"/>
        <path fill="#EECC27" d="M178.7 71.433c.045.936-.666 1.73-1.586 1.772-.921.043-1.702-.68-1.746-1.616-.044-.936.667-1.73 1.587-1.772.921-.043 1.702.68 1.746 1.616"/>
        <path fill="#4C99C0" d="M184.556 71.16c.044.935-.667 1.73-1.587 1.772-.92.043-1.702-.68-1.746-1.616-.044-.936.667-1.73 1.588-1.773.92-.042 1.701.681 1.745 1.617"/>
        <path fill="#75E5AA" d="M288.852 201.611a7.303 7.303 0 0 1-5.153-2.108 7.304 7.304 0 0 1-2.206-5.255V94.807c0-3.93 3.075-7.161 7-7.354l46.538-2.294a7.304 7.304 0 0 1 5.439 2.02 7.296 7.296 0 0 1 2.286 5.332v100.857c0 3.984-3.241 7.286-7.224 7.362l-46.537.88-.143.001"/>
        <path fill="#D2E6E6" d="M286.24 201.136c-2.836-.9-4.887-3.45-4.887-6.464V94.56c0-3.61 3.135-6.878 6.911-7.092a7.355 7.355 0 0 0-6.771 7.339v99.44c0 1.994.783 3.86 2.206 5.256a7.354 7.354 0 0 0 2.54 1.633m4.483-113.793l4.541-.23a8.17 8.17 0 0 0-.248.018l-4.293.212m4.541-.23l.046-.002-.046.002"/>
        <path fill="#59DD98" d="M288.496 201.483a7.45 7.45 0 0 1-2.256-.347 7.354 7.354 0 0 1-2.541-1.633 7.304 7.304 0 0 1-2.206-5.255V94.807a7.355 7.355 0 0 1 6.771-7.339l.067-.004 2.391-.12 4.293-.213c-3.67.347-6.624 3.891-6.624 7.429v100.112c0 3.37 2.567 6.155 5.924 6.707l-5.68.103h-.139"/>
        <path fill="#7461FF" d="M192.044 115.453a6.754 6.754 0 0 1-3.742-6.046V93.598c0-2.9 1.828-5.387 4.413-6.345l59.174-2.386a6.101 6.101 0 0 1 4.523 1.715 6.117 6.117 0 0 1 1.895 4.448v16.126a6.145 6.145 0 0 1-5.952 6.164l-60.31 2.133m40.986-12.562l-.098.003-21.491.866a2.386 2.386 0 0 0 .096 4.772l.097-.002 21.492-.867a2.386 2.386 0 0 0-.096-4.772m12.738-9.607l-.098.003-34.229 1.38a2.386 2.386 0 1 0 .096 4.772l.097-.002 34.23-1.381a2.387 2.387 0 1 0-.096-4.772"/>
        <path fill="#6354CE" d="M188.419 115.578c-1.592 0-3.066-.627-4.21-1.734a6.12 6.12 0 0 1-1.885-4.44V93.599c0-3.323 2.6-6.03 5.92-6.165l4.47-.18a6.769 6.769 0 0 0-4.412 6.345v15.809a6.754 6.754 0 0 0 3.742 6.046l-3.334.117a5.845 5.845 0 0 1-.291.008"/>
        <path fill="#FFFFFE" d="M251.889 84.867l-63.644 2.566a6.153 6.153 0 0 0-5.921 6.165v15.807a6.12 6.12 0 0 0 1.884 4.44c1.215 1.173 2.8 1.807 4.502 1.725l63.645-2.25a6.145 6.145 0 0 0 5.952-6.164V91.03a6.117 6.117 0 0 0-1.895-4.448 6.099 6.099 0 0 0-4.523-1.715m-63.405 31.901a7.299 7.299 0 0 1-5.104-2.065 7.3 7.3 0 0 1-2.25-5.298V93.598a7.345 7.345 0 0 1 7.066-7.358l63.643-2.567c2.028-.062 3.941.648 5.399 2.048a7.294 7.294 0 0 1 2.262 5.31v16.125a7.335 7.335 0 0 1-7.104 7.357l-63.643 2.251c-.09.002-.18.004-.269.004"/>
        <path fill="#FFFFFE" d="M202.253 101.411c0 3.09-2.371 5.594-5.296 5.594-2.925 0-5.296-2.504-5.296-5.594 0-3.09 2.371-5.594 5.296-5.594 2.925 0 5.296 2.505 5.296 5.594"/>
        <path fill="#C4BCFF" d="M211.538 99.44a2.386 2.386 0 0 1-.096-4.772l34.229-1.381.098-.003a2.387 2.387 0 0 1 .095 4.772l-34.229 1.38-.097.003M211.538 108.532a2.386 2.386 0 0 1-.096-4.772l21.491-.866.098-.003a2.386 2.386 0 0 1 .096 4.772l-21.492.867-.097.002"/>
        <path fill="#FFFFFE" d="M181.727 169.47h-.304v29.278a7.07 7.07 0 0 0 7.069 7.07h.11l63.645-.985a7.07 7.07 0 0 0 6.96-7.07v-29.57a7.07 7.07 0 0 0-7.067-7.07l-.144.002-63.645 1.277a7.07 7.07 0 0 0-6.928 7.068h.609a6.461 6.461 0 0 1 6.331-6.46l63.645-1.277.132-.001c1.78 0 3.393.72 4.563 1.89a6.44 6.44 0 0 1 1.896 4.571v29.57a6.462 6.462 0 0 1-6.362 6.461l-63.644.985h-.101a6.438 6.438 0 0 1-4.565-1.89 6.437 6.437 0 0 1-1.895-4.571V169.47h-.305"/>
        <path fill="#61E3F0" d="M193.317 205.136a6.77 6.77 0 0 1-5.312-6.61v-29.277a6.76 6.76 0 0 1 4.364-6.32l55.623-1.115c-.612 1.489-1.188 3.008-1.373 3.716-.398 1.526-.273 6.36-2.153 9.81-.54.99-.862 3.359-.495 3.78.082.094.262.196.5.3.015 1.511.057 3.962.116 6.316l-5.729 18.695-45.541.705zm2.751-35.585a2.386 2.386 0 0 0-2.387 2.387v25.105a2.387 2.387 0 1 0 4.774 0v-25.105a2.387 2.387 0 0 0-2.387-2.387zm30.332.064a2.387 2.387 0 0 0-2.387 2.387v24.572a2.387 2.387 0 0 0 4.774 0v-24.572a2.387 2.387 0 0 0-2.387-2.387zm16.434 34.755l1.412-4.61h.697c.053 1.055.15 2.046.318 2.84.098.462.237 1.069.392 1.726l-2.82.044zm6.691-.104c.004-1.519.007-3.17.006-4.505h2.808v4.461a5.67 5.67 0 0 1-.102.002l-2.712.042zm5.335-.64v-.685h1.145a6.476 6.476 0 0 1-1.145.684zm2.417-1.947h-2.417v-1.918h3.424c-.227.7-.57 1.346-1.007 1.918zm-2.176-3.335h-.241v-.115c.118.08.24.115.24.115zm-2.762 0h-2.813a36.816 36.816 0 0 0-.02-1.228c-.001-.534.279-.971.551-1.325.242-.315.477-.564.502-.756.033-.268.664-6.067 1.118-10.232h.662v13.541zm-7.442 0h-.217l.21-.682c0 .227.003.455.007.682zm9.963-1.096v-9.303h2.8a138.813 138.813 0 0 0-1.526 4.81c-.263.896-.433 1.54-.43 1.682 0 .009 0 .016.002.02.029.09.231.194.515.29-.189.48-.404.972-.568 1.182a8.255 8.255 0 0 0-.793 1.319zm3.739-.683c-.341-.192-.687-.419-.687-.61 0-.129.02-.524.043-.922.25-.009.447-.055.534-.155.019-.02.056-.072.11-.15v1.837zm-.505-9.88h-3.234v-1.882h3.739v.52a39.68 39.68 0 0 0-.505 1.362zm.505-7.6a694.05 694.05 0 0 0-3.74-1.126v-.193c.095-.41.16-.815.164-1.166v-.059c0-.523-.076-1.385-.163-2.328v-1.263h3.739v6.134zm-3.74-7.395h3.74v-1.845h-3.74v1.845zm3.74-3.261h-3.374c.248-.458.54-.93.814-1.342.394-.593.748-1.06.874-1.175.03-.028.08-.04.146-.04.229 0 .66.147 1.227.33.203.627.313 1.296.313 1.991v.236z"/>
        <path fill="#48D8E6" d="M188.492 205.21a6.438 6.438 0 0 1-4.565-1.891 6.437 6.437 0 0 1-1.895-4.571V169.47a6.461 6.461 0 0 1 6.331-6.46l4.006-.08a6.76 6.76 0 0 0-4.364 6.32v29.276a6.77 6.77 0 0 0 5.312 6.61l-4.724.073h-.101"/>
        <path fill="#FFFFFE" d="M188.492 205.514a6.766 6.766 0 0 1-6.765-6.766V169.47a6.766 6.766 0 0 1 6.63-6.764l59.762-1.2a46.2 46.2 0 0 0-.127.308l-55.623 1.116-4.006.08a6.461 6.461 0 0 0-6.331 6.46v29.278c0 1.788.724 3.4 1.895 4.57a6.438 6.438 0 0 0 4.565 1.891h.101l4.724-.073 45.541-.705-.093.306-50.167.776h-.106zm54.248-.839l.094-.305 2.82-.044.071.303-2.985.046zm6.784-.104l.001-.305 2.712-.042c.034 0 .068 0 .102-.002v.304c-.032.002-.065.002-.097.003l-2.718.042zm5.336-.612v-.334c.406-.189.79-.419 1.145-.684h.489c-.49.412-1.04.757-1.634 1.018zm2.795-2.28h-.378c.437-.572.78-1.219 1.007-1.918h.32a6.72 6.72 0 0 1-.949 1.918zm1.248-4.948c-.094-.05-.199-.107-.304-.166v-1.837c.072-.106.176-.262.304-.459v2.462zm-.304-11.408v-.52h.22c-.062.134-.137.31-.22.52zm.304-6.146l-.304-.093v-6.134h.304v6.227zm-.304-7.487h.304v-1.845h-.304v1.845zm.304-3.261h-.304v-.236c0-.695-.11-1.364-.313-1.991l.352.112c.173.596.265 1.227.265 1.88v.235z"/>
        <path fill="#C9FAFF" d="M196.068 199.43a2.387 2.387 0 0 1-2.387-2.387v-25.105a2.386 2.386 0 1 1 4.774 0v25.105a2.387 2.387 0 0 1-2.387 2.387"/>
        <path fill="#FFF" d="M211.234 199.196a2.387 2.387 0 0 1-2.387-2.387v-14.63a2.387 2.387 0 0 1 4.774 0v14.63a2.387 2.387 0 0 1-2.387 2.387"/>
        <path fill="#C9FAFF" d="M226.4 198.96a2.387 2.387 0 0 1-2.387-2.386v-24.572a2.387 2.387 0 0 1 4.774 0v24.572a2.387 2.387 0 0 1-2.387 2.386"/>
        <path fill="#FFF" d="M241.566 198.726a2.386 2.386 0 0 1-2.386-2.387v-11.387a2.386 2.386 0 1 1 4.773 0v11.387a2.387 2.387 0 0 1-2.387 2.387"/>
        <path fill="#F0F8FD" d="M274.275 18.97l-59.846 1.849s.31-9.52 6.028-9.606c3.907-.059 4.378 1.999 5.234 1.714 1.554-2.866 4.669-4.247 8.19-4.438.38-3.52 4.092-8.293 9.04-8.223 7.52-.887 9.78 7.047 10.464 7.331 3.237-1.047 8-.82 11.236 4.509 8.66-.095 9.654 6.864 9.654 6.864"/>
        <path fill="#D1E6E8" d="M321.173 205.97a7.374 7.374 0 0 1-6.922-4.837l21.28-.403c3.984-.076 7.225-3.378 7.225-7.362V92.51c0-2.035-.812-3.93-2.286-5.333a7.303 7.303 0 0 0-5.439-2.02l-19.957.984a7.362 7.362 0 0 1 5.738-3.225l38.341-1.52v123.999l-37.838.574h-.142"/>
        <path fill="#59DD98" d="M314.251 201.133a7.362 7.362 0 0 1-.446-2.532V90.278c0-1.53.467-2.954 1.269-4.136l19.957-.983a7.303 7.303 0 0 1 5.439 2.02 7.296 7.296 0 0 1 2.286 5.332v100.857c0 3.984-3.241 7.286-7.224 7.362l-21.28.403"/>
        <path fill="#E4F2F9" d="M305.022 80.968V189.29a7.37 7.37 0 0 0 7.51 7.369l50.694-.96a7.37 7.37 0 0 0 7.231-7.368V78.469a7.37 7.37 0 0 0-7.733-7.362l-50.694 2.5a7.37 7.37 0 0 0-7.008 7.36"/>
        <path fill="#D1E6E9" d="M358.108 85.942a1.95 1.95 0 0 1-.096-3.897l3.14-.157a1.962 1.962 0 0 1 2.045 1.85 1.95 1.95 0 0 1-1.85 2.045l-3.14.157-.1.002M313.797 88.168a1.95 1.95 0 0 1-.097-3.897l28.859-1.45c1.078-.039 1.992.774 2.045 1.85a1.95 1.95 0 0 1-1.85 2.045l-28.858 1.45-.1.002M337.63 104.64a1.95 1.95 0 0 1-.096-3.897l23.725-1.192a1.95 1.95 0 0 1 .195 3.895l-23.725 1.192-.098.003M337.415 116.002a1.95 1.95 0 0 1-.097-3.898l23.726-1.192c1.064-.023 1.991.774 2.045 1.85a1.95 1.95 0 0 1-1.85 2.045l-23.726 1.192-.098.003M337.415 127.363a1.95 1.95 0 0 1-.097-3.898l23.726-1.19c1.064-.039 1.991.774 2.045 1.85a1.95 1.95 0 0 1-1.85 2.045l-23.726 1.19-.098.003M315.055 138.436l12.984-.443a2.28 2.28 0 0 0 2.202-2.283l-.028-12.21a2.28 2.28 0 0 0-2.357-2.272l-12.957.441a2.28 2.28 0 0 0-2.202 2.279v12.21a2.28 2.28 0 0 0 2.358 2.278M315.055 118.216l12.984-.443a2.28 2.28 0 0 0 2.202-2.284l-.028-12.209a2.28 2.28 0 0 0-2.357-2.273l-12.957.442a2.28 2.28 0 0 0-2.202 2.279v12.21a2.28 2.28 0 0 0 2.358 2.278M314.978 158.408l13.132-.448a2.205 2.205 0 0 0 2.13-2.21l-.027-12.356a2.206 2.206 0 0 0-2.281-2.2l-13.104.447a2.206 2.206 0 0 0-2.13 2.204v12.359a2.206 2.206 0 0 0 2.28 2.204M338.885 159.18l21.031-.731a3.304 3.304 0 0 0 3.19-3.308l-.029-18.86a3.304 3.304 0 0 0-3.419-3.297l-21.003.73a3.305 3.305 0 0 0-3.19 3.302v18.861c0 1.87 1.55 3.367 3.42 3.302M317.392 185.074l40.806-.61a3.667 3.667 0 0 0 3.611-3.673l-.007-4.567a3.667 3.667 0 0 0-3.722-3.66l-40.79.61a3.667 3.667 0 0 0-3.612 3.66l-.007 4.568a3.666 3.666 0 0 0 3.721 3.672"/>
        <path fill="#E4F2F9" d="M26.414 77.33l7.6-.006c-3.515 0-5.078 4.361-5.078 6.446v143.442H21.17V83.77c0-3.677 2.387-6.61 5.243-6.44"/>
        <path fill="#F3FAFF" d="M93.12 97.99v129.222H27.482V83.77a6.446 6.446 0 0 1 6.745-6.44l52.079 12.08a8.807 8.807 0 0 1 6.816 8.58"/>
        <path fill="#D1E6E8" d="M82.937 99.994a.79.79 0 0 0 .182-1.555L36.004 87.202a.789.789 0 0 0-.366 1.534l47.115 11.237a.794.794 0 0 0 .184.021"/>
        <path fill="#75E5AA" d="M80.33 106.955l-40.409-9.243a3.353 3.353 0 0 0-4.1 3.269v104.412a3.353 3.353 0 0 0 3.353 3.352h40.409a3.352 3.352 0 0 0 3.352-3.352v-95.17c0-1.563-1.08-2.92-2.604-3.268"/>
        <path fill="#D1E5E6" d="M93.12 221.35H72.517c-.027-1.11-.145-2.673-.314-4.455h20.919v4.455m-28.054 0h-1.899c.265-1.074.555-2.269.852-3.515.437 1.486.81 2.733 1.047 3.515m-9.206 0h-6.765a2.236 2.236 0 0 1-2.236-2.236v-10.369h4.601v5.915c0 1.234 1 2.235 2.235 2.235h2.257c.01.469.015.936.015 1.397 0 1.09-.03 2.138-.107 3.058"/>
        <path fill="#59DD98" d="M51.461 208.745h-4.6v-96.664a2.237 2.237 0 0 1 2.654-2.196l1.946.371v98.49"/>
        <path fill="#E4F2F9" d="M106.123 115.354l-52.008-9.923a2.235 2.235 0 0 0-2.654 2.195V214.66c0 1.234 1 2.235 2.235 2.235h52.008c1.235 0 2.235-1 2.235-2.235v-97.11a2.235 2.235 0 0 0-1.816-2.196"/>
        <path fill="#D1E6E9" d="M97.289 208.84l-35.712-.584a2.235 2.235 0 0 1-2.199-2.235v-69.496a2.235 2.235 0 0 1 2.645-2.196l35.712 6.657a2.235 2.235 0 0 1 1.826 2.197v63.422a2.235 2.235 0 0 1-2.272 2.235M99.56 130.385v-3.365a2.235 2.235 0 0 0-1.803-2.193l-35.251-6.928a2.235 2.235 0 0 0-2.666 2.193v3.737c0 1.077.768 2 1.826 2.198l35.25 6.555a2.235 2.235 0 0 0 2.644-2.197"/>
        <path fill="#D1E5E6" d="M107.94 173.684l-8.38-.922V149.11l8.38 1.173v23.402"/>
        <path fill="#ABCCD5" d="M99.56 172.762l-13.46-1.48a2.235 2.235 0 0 1-1.99-2.223v-19.543a2.236 2.236 0 0 1 2.545-2.214l12.906 1.807v23.653"/>
        <path fill="#E4F2F9" d="M118.371 171.217l-28.385-3.123a2.235 2.235 0 0 1-1.99-2.222V146.33c0-1.357 1.2-2.401 2.544-2.213l28.385 3.973a2.236 2.236 0 0 1 1.926 2.214v18.691a2.236 2.236 0 0 1-2.48 2.223"/>
        <path fill="#4C99C0" d="M350.169 66.151l-1.425-.65a.915.915 0 0 0-.85.047l-1.343.806.177-1.556a.913.913 0 0 0-.308-.794l-1.18-1.029 1.534-.311a.915.915 0 0 0 .66-.538l.613-1.442.772 1.364a.911.911 0 0 0 .714.46l1.56.139-1.058 1.154a.915.915 0 0 0-.217.823l.35 1.527" opacity=".3"/>
        <path fill="#D1E6E8" d="M164.025 147.542v-29.93l40.346-.97.165-.001a6.767 6.767 0 0 1 6.753 6.38l-22.945.551h-.013a6.766 6.766 0 0 0-6.604 6.765v16.394c0 .13.004.258.011.386l-17.713.425"/>
        <path fill="#59DD98" d="M188.009 146.966a6.029 6.029 0 0 1-.004-.235v-16.394a6.767 6.767 0 0 1 6.603-6.765h-6.264l22.945-.551c.007.128.01.257.01.386v16.394a6.767 6.767 0 0 1-6.603 6.764l-16.687.4"/>
        <path fill="#ACCFD5" d="M181.73 130.186a6.766 6.766 0 0 1 6.601-6.614h.013-.013a6.766 6.766 0 0 0-6.602 6.614"/>
        <path fill="#4FCC8B" d="M181.738 147.117a6.758 6.758 0 0 1-.01-.386v-16.394l.001-.15a6.766 6.766 0 0 1 6.602-6.614h6.277a6.767 6.767 0 0 0-6.603 6.764v16.394c0 .078.001.157.004.235l-6.27.15"/>
        <path fill="#E4F2F9" d="M131.058 120.16v16.393c0 3.8 3.13 6.855 6.928 6.764l63.645-1.53a6.766 6.766 0 0 0 6.604-6.763V118.63c0-3.8-3.13-6.855-6.929-6.764l-63.644 1.529a6.767 6.767 0 0 0-6.604 6.764"/>
        <path fill="#D1E6E9" d="M151.236 127.405c0 3.065-2.293 5.55-5.122 5.55-2.829 0-5.122-2.485-5.122-5.55s2.293-5.549 5.122-5.549c2.829 0 5.122 2.484 5.122 5.55M160.872 124.68a2.387 2.387 0 0 1-.064-4.772l30.024-.821a2.375 2.375 0 0 1 2.451 2.32 2.386 2.386 0 0 1-2.32 2.45l-30.024.822-.067.002M161.022 133.882a2.388 2.388 0 0 1-.058-4.772l34.615-.851.06-.002a2.387 2.387 0 0 1 .058 4.773l-34.615.851-.06.001"/>
        <path fill="#FFFFFE" d="M142.002 86.838c0 7.417-6.012 13.43-13.429 13.43-7.417 0-13.43-6.013-13.43-13.43s6.013-13.429 13.43-13.429 13.429 6.012 13.429 13.43"/>
        <path fill="#F0F8FD" d="M102.54 45.233l-31.451.73s.237-3.115 4.6-3.153c3.557-.031 3.34.656 3.993.562 1.355-2.836 3.171-5.457 7.892-5.45 4.575-.022 6.91 3.816 7.433 3.908 2.469-.343 4.258-1.076 6.22.522 1.336 1.09 1.313 2.881 1.313 2.881"/>
        <path fill="#27283B" d="M250.896 241.626l-1.214-2.21 13.355-7.33h-15.852l-16.72 9.178-.104-.103a2.546 2.546 0 0 0 1.719-1.699l.723-2.359 17.862-9.803h4.195v.573l-5.379 2.952h15.853l6.424-3.525h4.195v.573l-25.057 13.753"/>
        <path fill="#D3E7EA" d="M275.953 227.3h-4.195l1.674-.919v-8.446H254.86v9.365h-4.195l1.674-.919v-13.093c1.107-.021 2.085-.063 2.52-.118v3.505h18.573V202.94h-16.48c.405-.377.765-.8 1.072-1.262h15.408v-13.734h-10.654c.246-.423.489-.846.723-1.26h9.931V172.95h-14.224v-1.26h14.224v-8.056h2.521V227.3m-21.093-14.947a.649.649 0 0 0-.52-.3c-.297-.023-1.121-.145-2.001-.345v-6.877a7.03 7.03 0 0 0 2.52-.54v8.062"/>
        <path fill="#3DC7D4" d="M254.86 198.344h-2.521v-13.541h2.52v1.882h3.235a96.62 96.62 0 0 0-.434 1.26h-2.8v9.303a3.124 3.124 0 0 0-.205.519c-.055.222.072.371.205.462v.115"/>
        <path fill="#3A3740" d="M232.08 239.462l23.936-78.112-3.617-1.109-24.827 81.023h2.073a2.547 2.547 0 0 0 2.435-1.802"/>
        <path fill="#28282A" d="M242.078 199.053c0-.34.205-.612.473-.68v-.029h20.56v1.417h-20.56v-.029c-.268-.067-.473-.338-.473-.679M246.49 184.095c0-.341.205-.612.474-.68v-.028h20.558v1.416h-20.558v-.029c-.269-.067-.474-.338-.474-.68M250.902 169.137c0-.34.205-.612.473-.68v-.028h20.56v1.416h-20.56v-.028c-.268-.068-.473-.34-.473-.68"/>
        <path fill="#F0D9B4" d="M247.46 208.324s-.053 2.364 0 2.784c.052.42-.152 1.68-.024 1.995.128.316 7.743.21 7.665 0-.078-.21-.078-.997-.761-1.05-.683-.052-4.15-.63-4.675-1.47-.525-.84-.945-2.574-.945-2.574l-1.26.315M256.651 193.565s-.63 1.89-.998 2.364c-.368.472-.893 1.418-.998 1.838-.105.42.446.577.446.577h7.328s.367-.787 0-.84c-.368-.052-2.994-.473-3.362-.683-.368-.21-1.155-.577-1.155-.866 0-.289.104-1.917.104-1.917l-1.365-.473"/>
        <path fill="#32327B" d="M251.189 176.874c3.043.891 13.656 4.033 14.601 4.558.945.526-6.933 13.026-7.3 13.446-.368.42-2.68-.105-2.784-.42-.106-.315 2.98-10.01 3.308-9.953.14.024-.096.023-.462.021-.494-.001-1.224-.003-1.586.058-.63.104-4.937.104-6.303 0-1.365-.106-4.097-.946-4.306-3.047-.21-2.1 2.909-5.227 4.832-4.663"/>
        <path fill="#F2D85B" d="M255.703 194.437c-.002-.142.168-.786.431-1.682-.263.896-.433 1.54-.43 1.682"/>
        <path fill="#0F1111" d="M256.95 184.586l.016-.002-.015.002m.146-.02h.004-.004"/>
        <path fill="#28296E" d="M255.757 194.507l-.051-.05a.066.066 0 0 1-.003-.02c-.002-.142.168-.786.431-1.682.826-2.812 2.577-8.115 2.864-8.233a5.196 5.196 0 0 1-.255.004H258.318c-.405 0-.893.004-1.217.04h-.008c-.046.005-.088.011-.127.018l-.015.002c-.339.051-1.555.076-2.86.076-.83 0-1.697-.01-2.396-.03l.33-3.029.007-.071v-.001l.001-.01a.298.298 0 0 0 .003-.023l.02-.176.012-.116.028-.257.011-.104a3.916 3.916 0 0 1 .018-.161l.002-.021c.386.293.808.578 1.277.848 2.982 1.718 7.85.5 7.886 2.547.046 2.627-2.194 4.057-2.118 5.017.236 2.988-2.162 3.896-3.415 5.432m-3.763-13.946l-.823-.227.532-.008c.095.079.192.157.29.235"/>
        <path fill="#32327B" d="M244.466 178.49c0 2.575.21 13.237.42 13.71.21.472-.32 7.118.375 10.4.415 1.957 1.568 6.512 1.568 6.512l2.678-.42s.053-10.452 0-11.503c-.052-1.05.999-1.735 1.051-2.154.053-.42 1.576-14.436 1.576-14.436l-7.668-2.108"/>
        <path fill="#D1E5E6" d="M249.507 208.692v-.002.002"/>
        <path fill="#F2D85B" d="M250.05700000000002 195.791c.242-.315.477-.564.501-.756.033-.268.665-6.066 1.119-10.232-.454 4.165-1.085 9.964-1.118 10.232-.025.192-.26.441-.502.756"/>
        <path fill="#0F1111" d="M251.677 184.803"/>
        <path fill="#21213C" d="M251.695 184.632l.33-3.029-.33 3.029m.337-3.1v-.001M252.055 181.323l.013-.116-.013.116m.04-.373l.012-.104-.011.104m.018-.172"/>
        <path fill="#28296E" d="M249.252 208.732l-.693-5.864s-.18-5.127-.603-6.23c-.421-1.103-.05-2.364.344-4.014.394-1.65.237-2.446-.344-2.887-.579-.44-.286-2.79.344-3.816.397-.649.305-3.018-.064-5.587.349.01.773.014 1.232.014.542 0 1.132-.006 1.702-.014l.964.265s0 .007-.003.02c0 .014-.003.036-.006.065a4.922 4.922 0 0 0-.018.161l-.011.104-.028.257-.013.116c-.006.056-.012.115-.02.176a.298.298 0 0 1-.003.033l-.008.072-.329 3.029-.018.17c-.454 4.167-1.086 9.965-1.119 10.233-.024.192-.26.441-.501.756-.272.354-.552.79-.551 1.325l.001.073c.045.89.011 9.186 0 11.501v.002l-.255.04"/>
        <path fill="#6957EE" d="M262.113 166.883c-1.186.05-2.338-.227-3.257-.503-1.035-.31-1.776-.621-1.943-.468-.314.288-2.061 2.777-2.271 3.933-.21 1.156.397 5.353.38 6.755-.016 1.403-.997 3.677-.997 3.677s-5.842.16-6.618 0c-.777-.16-3.068-.738-3.436-1.158-.367-.42-.045-2.79.495-3.78 1.88-3.45 1.755-8.283 2.153-9.809.423-1.619 2.888-7.47 3.151-7.523.263-.053 4.412 1.155 5.33 1.89.546.438 3.898 2.911 5.91 3.1 1.681.157 7.659.382 7.659.382l1.428 2.857s-7.078.61-7.984.647"/>
        <path fill="#F0D9B4" d="M255.39 149.48c-.13.684-.29 1.909.079 2.513.264.431 1.063.998 1.05 1.366-.006.19-1.409 2.872-1.823 3.089-.671.351-2.037.14-2.562-.122-.525-.262-1.365-2.44-1.47-3.032-.106-.592-.788-3.166 0-3.586.788-.42 4.726-.227 4.726-.227"/>
        <path fill="#27283B" d="M255.521 149.892c.132-.394.084-1.491-.787-2.153-.957-.728-2.1-1.254-3.177-1.169-4.019.315-4.203 3.414-4.203 4.491 0 1.365 1.178 3.258 1.493 3.652.315.393.634 1.403.293 2.086-.342.682-.972 2.022-.788 2.285.185.263.392.333.669.337.277.004 2.178-1.048 3.01-.788.83.26 2.604 1.042 2.493.788-.867-1.978-.065-2.882-.065-2.882-.758-.701-2.693-3.233-2.574-4.73.136-1.732 1.585-2.009 2.206-1.93 1.08.137 1.299.407 1.43.013"/>
        <path fill="#151717" d="M259.556 196.974c.878.216 2.58.488 2.873.53.367.053 0 .84 0 .84H255.1s-.551-.157-.446-.577c.061-.244.266-.66.496-1.061.828.287 1.987.677 2.235.693.322.021 1.543-.117 2.17-.425M247.443 211.814c.425.146.855.295.988.344.289.105 2.364.21 2.941.21.404 0 1.063-.252 1.585-.532.623.12 1.159.2 1.383.217.683.052.683.84.76 1.05.079.21-7.536.316-7.664 0-.082-.2-.029-.783.007-1.29"/>
        <path fill="#28282A" d="M252.976 239.574l23.039-75.005a2.026 2.026 0 0 0-1.937-2.62 1.72 1.72 0 0 0-1.645 1.215L248.3 241.923l1.312.047a3.391 3.391 0 0 0 3.364-2.396"/>
        <path fill="#28282A" d="M237.666 214.01c0-.34.206-.612.473-.679v-.028h20.56v1.416h-20.56v-.029c-.267-.067-.473-.339-.473-.68M233.295 229c0-.341.204-.613.473-.68v-.029h20.558v1.416h-20.558v-.028c-.269-.068-.473-.339-.473-.68"/>
        <path fill="#F0D9B4" d="M268.917 163.876c1.433-.473 1.743-.908 2.137-1.721.394-.813.394-1.433.788-1.162.393.27.315.95.551 1.162.237.211 1.643-.763 2.273-.787.63-.023 1.115.391.485 1.247-.63.854-2.072 2.021-2.48 2.138-.68.197-2.93.77-2.93.77l-.824-1.647"/>
        <path fill="#EFC14B" d="M254.816 177.946"/>
        <path fill="#2A2B72" d="M254.025 180.277s.5-1.158.791-2.33a17.352 17.352 0 0 1-.791 2.33"/>
        <path fill="#F3DA81" d="M255.023 176.541c0-.523-.076-1.385-.163-2.328.087.943.163 1.805.163 2.328"/>
        <path fill="#EFC14B" d="M254.86 174.213c-.12-1.292-.262-2.737-.263-3.671 0 .934.143 2.378.263 3.67"/>
        <path fill="#F3DA81" d="M255.225 168.429"/>
        <path fill="#181A1B" d="M254.642 169.845c.067-.373.295-.884.583-1.416-.288.532-.516 1.043-.583 1.416"/>
        <path fill="#5F4DE2" d="M250 180.346c.124-.859.381-2.066.902-2.775.87-1.181.313-2.126-.614-3.764-.925-1.638 1.084-2.616 1.846-3.71.762-1.095 1.287-2.53 1.174-4.146-.075-1.083.426-1.334 1.29-1.334.424 0 .935.061 1.51.113 1.737.157 3.607 1.099 5.298 1.099h.012c1.121-.004 1.672-.07 2.282-.07.312 0 .639.017 1.066.07.63.076 1.224.392 1.882.699-1.94.162-4.065.336-4.535.355a6.186 6.186 0 0 1-.28.006c-1.087 0-2.13-.255-2.977-.509s-1.497-.508-1.797-.508c-.066 0-.115.012-.146.04-.126.115-.48.582-.874 1.175a18.11 18.11 0 0 0-.814 1.342c-.288.532-.516 1.043-.583 1.416a2.555 2.555 0 0 0-.031.26c-.01.128-.014.275-.014.437 0 .934.143 2.379.263 3.67.087.944.163 1.806.163 2.329v.059c-.004.35-.069.756-.163 1.166-.014.06-.028.12-.044.18a17.352 17.352 0 0 1-.791 2.33h-.002-.002c-.089.003-2.195.06-4.022.07"/>
        <path fill="#151717" d="M254.143 157.452c-.05.467.005 1.111.381 1.97.111.253-1.663-.529-2.494-.789-.831-.26-2.732.792-3.01.788-.276-.004-.483-.074-.668-.337-.184-.263.446-1.603.788-2.285.177-.354.173-.792.088-1.19 1.485.748 3.489 1.532 4.915 1.843"/>
        <path fill="#8CD9F2" d="M139.81 197.89l-.807 2.418s6.836 2.003 8.203 2.181c2.18.284 6.353-.237 6.543-.806.19-.569-.379-13.911-2.607-14.699-2.517-.89-3.083 2.134-2.988 3.32.095 1.185 2.357 7.885 1.802 8.44-.854.853-10.147-.854-10.147-.854"/>
        <path fill="#BBB087" d="M133.645 197.22c-.468.34.712 1.286 2.062 1.784 1.352.498 3.465.799 3.465.799l.519-1.558s-2.262-1.526-2.689-1.384c-.427.142.484.72.057.792-.427.07-2.916-.793-3.414-.432"/>
        <g fill="#27204F">
            <path d="M140.691 244.054l-.88 3.965a.683.683 0 0 1-.84.512l-6.947-1.824a.202.202 0 0 1-.09-.34c.185-.178.87-.496 1.107-.552.174-.042.915.06 1.761.16 1.204.144 2.62.287 2.922.022.516-.452 1.43-2.527 1.43-2.527l1.537.584M166.326 242.638l1.843 3.154c.23.395.061.837-.272 1.15-.872.817-2.401 1.456-3.22 1.777-.842.33-3.4 1.102-3.4 1.102-.343.076-.113-.747.355-1.102.624-.474 2.667-1.174 3.062-1.672.218-.275.779-1.066.494-1.778l-.711-1.778 1.85-.853"/>
        </g>
        <path fill="#BBB087" d="M148.58 185.23l-1.99-5.69h2.228l2.086 5.073-2.323.617"/>
        <path fill="#C7BA8C" d="M146.59 171.527c-.522.38-.806 2.324-1.091 2.75-.285.427-1.328 1.09-1.517 1.138-.19.047-.38.569 0 1.186.38.616.897 2.117 1.896 2.939.999.822 2.703.813 2.869.522.166-.291 2.015-2.514 1.873-3.225-.143-.711.617-1.517.758-1.849.143-.332.048-1.422-.474-1.422-.521 0-1.517-.19-2.157-.616-.64-.427-2.157-1.423-2.157-1.423"/>
        <path fill="#3CA4D0" d="M147.082 204.433s-.635 6.638-.635 7.397c0 .759-7.112 14.604-7.302 15.267-.19.664-1.137 16.88-1.137 16.88l3.223.948s3.32-11.663 3.415-12.517c.095-.854 0-2.75 0-2.75l7.965-11-5.529-14.225"/>
        <path fill="#3B93C3" d="M141.231 244.925l-.743-.218c-.015-2.543-.536-5.218.174-6.704 1.044-2.181 2.466-3.13 1.803-5.785-.664-2.655 0-5.5 1.137-7.302 1.139-1.801 3.51-4.456 3.889-6.258.148-.707.896-1.91 1.749-3.111l1.74 5.362-6.334 8.75s.042.84.042 1.654c0 .409-.01.81-.042 1.095-.095.854-3.415 12.517-3.415 12.517"/>
        <path fill="#3CA4D0" d="M146.724 207.8l8.732-2.323s1.992 4.836 2.087 5.594c.095.76 1.327 12.518 1.517 13.75.19 1.233 3.982 5.786 4.551 7.777.57 1.991 3.414 10.147 3.414 10.147l-2.845 1.612-10.136-15.116a8.938 8.938 0 0 1-1.057-2.155l-6.263-19.286"/>
        <path fill="#595967" d="M166.547 243.016l.478-.271-.478.271"/>
        <path fill="#262737" d="M166.027 243.31l.52-.294-.52.295"/>
        <path fill="#595967" d="M163.611 232.598c-.378-1.326-2.187-3.788-3.409-5.649 1.222 1.861 3.03 4.323 3.41 5.649m-4.164-6.866c-.209-.374-.349-.682-.386-.896.037.214.177.522.386.896"/>
        <path fill="#A6C8D0" d="M160.202 226.95"/>
        <path fill="#3B93C3" d="M166.027 243.31c-1.217-2.648-3.146-6.612-3.458-7.677-.475-1.613-1.423-4.268-2.94-5.69-1.518-1.423-2.75-3.13-2.371-4.268.38-1.138-.285-3.224-1.891-5.026-1.608-1.801-.1-5.31-.006-6.259.08-.787-.759-5.24-2.295-7.92 1.108-.29 2.041-.575 2.471-.796.375.916 1.922 4.73 2.006 5.397.095.76 1.327 12.518 1.517 13.75l.002.015c.037.214.177.522.386.896.198.355.46.769.754 1.217 1.222 1.861 3.03 4.323 3.41 5.649.568 1.991 3.413 10.147 3.413 10.147l-.478.271-.52.294"/>
        <path fill="#9DE6FF" d="M147.206 185.005c-1.138.794-.35 2.353-1.145 4.366-.422 1.071-1.163 2.532-1.937 3.722-.719 1.106-.617 2.882.047 3.772.664.889 1.043 2.47 1.328 4.052.285 1.581-.499 2.995-.53 4.144-.02.733 1.755 2.739 1.755 2.739 1.24-.105 8.87-1.73 9.064-2.323.193-.593-.949-4.734-1.138-6.117-.19-1.384-.237-8.203-1.28-11.588-.336-1.09-1.328-3.332-1.612-3.728-.285-.395-3.984.565-4.552.96"/>
        <path fill="#27204F" d="M145.926 170.294c-.14-.921 1.12-1.328 1.674-1.375.554-.047 2.119-.759 3.304-.38 1.186.38 2.69 3.036 2.88 3.936.19.901 2.289 1.043 2.858 3.035.235.826-.617 2.607-.19 4.03.15.502 2.697 2.138 2.797 3.367.19 2.323-1.706 3.746-3.982 4.22-2.276.474-4.505-.949-4.884-1.47-.38-.522-2.75-6.07-2.513-7.397.237-1.328.078-4.979-.27-5.405-.347-.427-1.56-1.804-1.674-2.561"/>
        <path fill="#595967" d="M154.323 187.222h-.005.005m.001 0M159.262 183.227"/>
        <path fill="#AA9458" d="M147.874 178.236c.075-.436.108-1.11.108-1.837 0 .726-.033 1.4-.108 1.837m-.274-5.381l-.101-.124.101.124"/>
        <path fill="#262737" d="M154.323 187.222h-.005c-1.9-.002-3.58-1.098-3.927-1.554l-.008-.011c-.108-.149-.377-.703-.7-1.45-.488-1.127-1.101-2.692-1.479-3.971-.212-.719-.35-1.347-.351-1.758a1.23 1.23 0 0 1 .021-.242c.075-.436.108-1.11.108-1.837 0-1.516-.149-3.258-.382-3.544l-.101-.124c-.262-.315-.738-.879-1.1-1.43 1.363.655 2.321 1.595 2.75 2.455.57 1.138-.568 3.09 0 4.07.57.98 1.519 1.311 2.289 1.714.77.404-.368 2.395.557 3.248.759.701 2.286 1.244 3.123 1.244.182 0 .331-.026.433-.081.231-.126.603-.177 1.002-.177.582 0 1.22.11 1.558.258.03.013.061.02.091.02.36 0 .718-.891.912-1.604.074.157.123.311.135.459.01.109.014.215.013.32-.002 2.134-1.827 3.448-3.995 3.9a4.63 4.63 0 0 1-.943.095"/>
        <path fill="#27204F" d="M151.517 215.464l-12.678-5.713a1.18 1.18 0 0 1-.59-1.56l3.875-8.601a1.179 1.179 0 0 1 1.56-.59l12.678 5.711c.593.268.858.966.59 1.56l-3.876 8.602a1.18 1.18 0 0 1-1.56.591"/>
        <path fill="#FFFFFE" d="M142.606 205.106l-.657-.296 1.863-4.134.656.296-1.862 4.134M143.876 205.678l-.657-.296 1.862-4.133.657.295-1.862 4.134M145.145 206.25l-.656-.296 1.862-4.133.657.296-1.863 4.134"/>
        <path fill="#B6ECFF" d="M149.719 187.64c-.8.853-.828 5.363-.972 7.056-.145 1.693.677 8.693 0 9.074-.678.38-5.928 7-5.928 7l2.49 1.826s7.234-7.076 7.28-7.913c.046-.837.76-13.867.022-15.189-.737-1.322-1.395-3.453-2.892-1.855"/>
        <path fill="#BBB087" d="M142.173 211.873c-.615 1.71-.346 2.243.466 2.294.811.05 2.095-1.198 2.35-1.807l-1.793-1.338s-.915.552-1.023.85"/>
        <path fill="#867054" d="M52.294 243.32l-2.001-.636c-.365.706-.68 1.29-.95 1.777.664.373 1.426.55 2.07.966.289-.885.88-2.107.88-2.107"/>
        <path fill="#27204F" d="M54.044 248.435c-.955-.296-2.587-1.73-2.769-2.184-.054-.135.016-.45.138-.824-.644-.415-1.406-.593-2.07-.966-.36.643-.64 1.114-.838 1.431a.664.664 0 0 0 .224.923c1.192.714 3.452 2.237 4.133 2.438.614.182 1.636.023 2.091.023.455 0-.031-.57-.91-.841"/>
        <path fill="#867054" d="M68.251 244.461h-1.889l-.158 1.576c.672-.169 1.437-.228 2.16-.249-.112-.65-.113-1.327-.113-1.327"/>
        <path fill="#27204F" d="M73.207 247.78c-.728-.092-3.865-.46-4.41-.915-.224-.186-.355-.625-.433-1.077-.723.02-1.488.08-2.16.249l-.173 1.704a.77.77 0 0 0 .764.857h7.321s-.182-.728-.91-.818"/>
        <path fill="#867054" d="M74.086 179.834c1.818.182 3.667 1.17 5.031.897 1.364-.272 7.457-2.937 7.91-3.272.455-.334 2.547-2.608 3.547-2.698 1-.092 1.273.182.727.636-.545.454-1.92 1.76-1.91 2.062.031.787 1.456-.483 1.638 0 .182.484-.818 1.203-1.455 1.707-.637.504-1.092.485-2.182 1.222-1.092.737-7.002 4.014-8.093 4.421-1.091.408-5.456-.396-5.456-.396l.243-4.579"/>
        <path fill="#75E5AA" d="M68.374 185.556l4.744.708a1.08 1.08 0 0 0 1.227-.904l.832-5.416-6.803-2.138v7.75"/>
        <path fill="#32327B" d="M70.297 201.22c.637 4.547 2.395 17.871 2.213 21.144-.182 3.274-3.297 22.502-3.297 22.502H65.66s-1.273-16.822-1.091-18.186c.182-1.364 1.252-2.952.727-4.59-.525-1.636-5.183-17.323-5.092-18.87.091-1.545.453-3.357.453-3.357l9.64 1.358"/>
        <path fill="#75E5AA" d="M55.113 179.519c1.939-1.394 5.488-2.361 5.489-2.36.56.499 1.24 1.268 2.318 1.307 1.297.046 1.994-.261 2.6-1.353 0 0 2.746.323 3.777 1.375.901.921 1.589 5.693 1.64 8.547.027 1.492-1.652 4.19-.536 14.73.026.248-5.391-.271-7.028-.574-1.637-.303-5.078-.577-5.078-.577l-3.182-21.095"/>
        <path fill="#D1E5E6" d="M58.79 200.81c-.308-.12-.495-.196-.495-.196l-3.182-21.095 3.182 21.095.556.047-.061.15m-3.677-21.292c.29-.21.61-.416.94-.618l.024.02a9.082 9.082 0 0 0-.964.598"/>
        <path fill="#59DD98" d="M63.323 200.875l-1.767-.153.21-.633-2.845.404-.07.168-.556-.047-3.182-21.095c.29-.21.618-.41.964-.597 2.18 1.8 4.64 4.18 4.718 5.227.091 1.205-.773 2.75.591 4.182 1.364 1.433 1.8 1.751 1.639 3.274-.161 1.523 2.141 2.569 2.135 4.16-.009 2.048-.907 3.203-1.591 4.098-.246.32-.282.668-.246 1.012"/>
        <path fill="#867054" d="M55.354 190.915l1.792 6.438a2.467 2.467 0 0 0 2.127 1.795c3.905.396 13.315 1.345 13.843 1.345h2.806a1.11 1.11 0 0 0 1.109-1.03c.052-.737.076-1.62-.096-1.758-.303-.243-2.182.182-2.304-.182-.121-.364.364-1.704-.121-1.792-.485-.087-.648 1.392-1.03 1.67-1.334.97-10.455-2.303-12.548-2.306-.42-.001-1.456-6.18-1.456-6.18l-4.122 2"/>
        <path fill="#75E5AA" d="M55.63 179.166s-1.506.866-2.154 1.868c-1.07 1.654.075 7.549.57 9.816.113.518.608.858 1.133.778 1.549-.236 4.538-.87 5.023-2.289.4-1.166-1.635-9.214-4.571-10.173"/>
        <path fill="#2A2B72" d="M67.719 244.866H65.66s-1.11-14.662-1.109-17.719c0-.218.005-.376.018-.467.146-1.1.871-2.346.87-3.646 0-.312-.041-.627-.143-.943-.152-.473-.648-2.118-1.276-4.256.689-2.877 1.425-6.031 2.025-8.622.877 2 1.675 3.974 1.675 5.101 0 1.637-.726 4.425-.423 5.638.302 1.212 1.515 3.213 1.636 4.667.121 1.455-1.03 4.547-1.152 7.032-.107 2.197-.072 11.164-.062 13.215"/>
        <path fill="#32327B" d="M58.92 200.493l-2.798 6.797a6.984 6.984 0 0 0-.505 3.205c.289 3.664.816 12.324-.504 13.882-2.547 3-5.82 18.67-5.82 18.67l3.412 1.551s8.5-16.827 9.227-18.645c.727-1.819 5.365-22.186 5.365-22.186v-2.546l-8.376-.728"/>
        <path fill="#202228" d="M49.83 243.292l-.537-.245.538.245"/>
        <path fill="#211B4D" d="M61.556 200.722l-.93-.081-.088-.124-.02.115-1.597-.139 2.845-.404-.21.633"/>
        <path fill="#1B1C21" d="M60.627 200.641l-.109-.01.02-.114.089.124"/>
        <path fill="#2A2B72" d="M49.83 243.292l-.537-.245s3.273-15.67 5.82-18.67c.654-.772.855-3.294.855-6.085 0-2.835-.205-5.95-.351-7.797a6.974 6.974 0 0 1 .505-3.205l2.799-6.797 1.597.139.109.009.929.081c-.557 1.667-1.142 3.327-1.42 3.771-.417.668.187 4.123.066 5.335-.119 1.213-1.817 3.335-2.24 4.607-.425 1.273-.122 9.154-.607 10.306-.485 1.151-2.182 2.121-3.092 4.061-.795 1.696-3.712 11.942-4.432 14.49"/>
        <path fill="#27204F" d="M58.182 199.863l.267 1.774s6.252.257 8.165.402c1.254.095 3.863.48 3.863.48v-1.662s-4.424-.551-5.317-.643c-.725-.073-6.978-.351-6.978-.351"/>
        <path fill="#867054" d="M61.817 167.304c-2.437.864-2.346 4.42-2.346 4.42-.009.355.865 6.166 1.137 6.67.272.504 2.65 1.272 3.622 1.092.972-.18 1.15-.355 1.18-.834.012-.195.123-2.655-.062-4.338.574-1.16.635-3.662.562-4.388-.086-.854-2.128-3.319-4.093-2.622"/>
        <path fill="#27204F" d="M66.412 168.364c.184-.78-.404-1.654-1.196-1.776-.25-.039-.559-.044-.67-.27-.083-.17.001-.369.003-.558.004-.317-.242-.6-.537-.719-.475-.191-.843.057-1.3.038-.424-.017-.697-.424-1.127-.492-.399-.064-.736.17-1.01.43a6.797 6.797 0 0 1-.987.762c-.533.348-1.452.075-1.717.794-.123.334-.009.702.054 1.052.064.35.048.773-.24.982-.212.154-.522.152-.695.348-.362.414-.007 1.265.338 1.576.322.29.656.888.656.888l-.006-.008-.013.032c-.04.057-.337.342-.371.47a1.382 1.382 0 0 0-.267 1.042c.073.444.376.842.782 1.039a.81.81 0 0 0 .432.093c.232-.024.49-.185.676-.044.056.042.092.106.135.162.173.23.478.35.761.301l.062-.025-.012-.148c-.132-.231-.21-.534-.177-.366-.001-.007-.482-2.436-.21-2.696.273-.26 1.05 2.85 1.269 3.373.219.524.925 2.827 3.006 2.717 1.507-.079 1.918-1.691 2.03-2.574a.73.73 0 0 0-.493-.784 3.238 3.238 0 0 0-.918-.18c-.71-.016-2.177 1.138-2.738.84-.561-.298-.823-2.684-.855-3.555-.032-.871.088-1.437.77-1.705.589-.232 1.654.45 2.172.669.775.326 1.56.786 2.272.207.345-.282.71-.595.808-1.029.097-.434-.253-.978-.687-.886"/>
    </g>
</svg>
