<svg xmlns="http://www.w3.org/2000/svg" width="381" height="250" viewBox="0 0 381 250">
    <g fill="none" fill-rule="evenodd">
        <path fill="#E4F2F9" d="M208.05 43.155l-13.577-.01c6.28 0 9.073 6.058 9.073 8.954v175.987h13.872V52.1c0-5.108-4.265-9.18-9.368-8.944"/>
        <path fill="#F0F8FD" d="M326.749 23.012s-6.062-10.736-12.829-11.125c-6.627-.38-10.62 3.434-16.528 2.875-4.163-.394-7.506-4.95-14.662-4.905C275.755 9.902 272.08 0 263.137 0c-10.94 0-15.341 6.018-20.76 9.412-5.023 3.145-8.123 4.312-15.81 2.094C216.247 8.53 209 23.012 209 23.012h117.749M68.76 62.867C58.91 65.07 56.464 56 48.64 56c-6.707 0-9.273 5.217-14.692 7.41-5.022 2.031-7.483 1.049-15.171-.383C8.456 61.103 6 72.194 6 72.194h77.293s-7.55-10.89-14.533-9.327M337.76 115.867C327.91 118.07 325.464 109 317.64 109c-6.707 0-9.273 5.217-14.692 7.41-5.022 2.031-7.483 1.049-15.171-.383-10.32-1.924-12.776 9.167-12.776 9.167h77.293s-7.55-10.89-14.533-9.327"/>
        <path fill="#F3FAFF" d="M112.375 70.927v157.159h91.17V52.099c0-4.998-4.083-9.004-9.038-8.953a3.028 3.028 0 0 0-.65.083l-72.912 16.913a11.072 11.072 0 0 0-8.57 10.785"/>
        <path fill="#D8DDE9" d="M12 228.376v-1h357v1zM0 228.376v-1h3v1zM5 228.376v-1h5v1zM378 228.376v-1h3v1zM371 228.376v-1h5v1z"/>
        <path fill="#75E5AA" d="M128.258 77.677l58.045-13.027a3.105 3.105 0 0 1 3.784 3.029v117.39a3.105 3.105 0 0 1-3.04 3.104l-58.109 1.215a3.105 3.105 0 0 1-3.104-3.105V80.706a3.104 3.104 0 0 1 2.424-3.03"/>
        <path fill="#59DD98" d="M128.938 189.388a3.105 3.105 0 0 1-3.104-3.105V117.02c2.123.248 4.214.728 6.26 1.439v66.198a4.733 4.733 0 0 0 3.58 4.59l-6.736.14m3.156-72.917a31.231 31.231 0 0 0-6.26-1.355v-7.554a.937.937 0 0 0 1.445-.79c0-1.76-.6-2.958-1.445-3.637V80.706a3.104 3.104 0 0 1 2.424-3.03l5.053-1.133a3.141 3.141 0 0 0-1.217 2.476v37.452"/>
        <path fill="#0A0B09" d="M66.597 116.428a3.275 3.275 0 0 1-2.988-3.264l.007-5.287c0-2.806 3.119-3.123 3.119.265a.937.937 0 1 0 1.875 0c0-5.961-6.87-5.463-6.87-.265l-.007 5.556a3.26 3.26 0 0 1-2.78 3.232c-5.302.777-10.654 2.846-15.842 6.232l1.027 1.572c12.675-8.274 26.371-8.378 37.567-.287l1.1-1.52c-5.029-3.634-10.526-5.71-16.208-6.234"/>
        <path fill="#61E3F0" d="M82.804 138.545l7.976-8.974-9.517-8.424a7.444 7.444 0 0 0-3.049-1.98l-7.757-2.65s-2.599 4.562-7.37 4.928c-4.769-.366-7.368-4.928-7.368-4.928l-7.757 2.65a7.44 7.44 0 0 0-3.049 1.98l-9.777 9.332 8.236 8.066 3.751-2.792s.218 12.991-.156 17.53c-.368 4.459-2.814 18.46-2.814 18.46l7.862.776 20.63-2.172 9.377 1.396s-2.445-14.001-2.813-18.46c-.374-4.539-.156-17.53-.156-17.53l3.75 2.792"/>
        <path fill="#48D8E6" d="M55.966 172.103c-.02-1.607-.012-3.35.095-4.34.234-2.171 1.244-9.312 6.897-12.953 5.653-3.64 4.59-7.679 2.246-12.798-2.03-4.434-2.254-6.947-.872-10.564l5.972 5.894 3.752-2.814s.218 13.088-.156 17.66c-.338 4.118-2.42 16.31-2.765 18.317l-15.169 1.598m26.056-.36l-1.962-.292 1.878-.2.084.492m-14.031-48.224a34.853 34.853 0 0 1 4.318-6.369l2.283.78a7.439 7.439 0 0 0-2.747 1.883l-1.746 1.68a3.061 3.061 0 0 0-.055.035l.007.01-2.06 1.981"/>
        <path fill="#FFFFFE" d="M52.015 135.58h1.252v-6.43h-1.252zM54.028 135.58h1.253v-6.43h-1.253zM56.041 135.58h1.253v-6.43H56.04z"/>
        <path fill="#0A0B09" d="M93.53 115.059a3.275 3.275 0 0 1-2.988-3.264l.006-5.287c0-2.806 3.119-3.123 3.119.265a.937.937 0 1 0 1.876 0c0-5.961-6.87-5.463-6.87-.265l-.007 5.556a3.262 3.262 0 0 1-2.78 3.232c-5.303.777-10.655 2.846-15.842 6.232l1.026 1.572c12.676-8.274 26.372-8.378 37.568-.287l1.099-1.52c-5.028-3.634-10.525-5.71-16.207-6.234"/>
        <path fill="#0A0B09" d="M125.266 115.059a3.275 3.275 0 0 1-2.988-3.264l.006-5.287c0-2.806 3.12-3.123 3.12.265a.937.937 0 1 0 1.875 0c0-5.961-6.87-5.463-6.87-.265l-.007 5.556a3.261 3.261 0 0 1-2.78 3.232c-5.303.777-10.654 2.846-15.841 6.232l1.025 1.572c12.676-8.274 26.372-8.378 37.568-.287l1.099-1.52c-5.028-3.634-10.525-5.71-16.207-6.234"/>
        <path fill="#0A0B09" d="M39.682 107.18H157.96v-2.19H39.682z"/>
        <path fill="#7461FF" d="M109.737 137.342l7.976-9.042-9.517-8.487a7.44 7.44 0 0 0-3.05-1.995l-7.756-2.67s-2.6 4.596-7.37 4.966c-4.77-.37-7.368-4.966-7.368-4.966l-7.757 2.67a7.444 7.444 0 0 0-3.05 1.995l-9.777 9.401 8.236 8.128 3.752-2.814s.218 13.088-.156 17.66c-.368 4.493-2.814 18.599-2.814 18.599l7.862.782 20.63-2.188 9.377 1.406s-2.445-14.106-2.813-18.598c-.374-4.573-.156-17.661-.156-17.661l3.75 2.814"/>
        <path fill="#5F4DE2" d="M82.9 171.15c-.022-1.62-.013-3.376.094-4.372.234-2.189 1.244-9.382 6.897-13.05 5.653-3.668 4.59-7.736 2.246-12.894-2.345-5.157-2.28-7.736-.118-12.425 1.787-3.873 3.288-7.968 7.223-12.623l5.905 2.032a7.444 7.444 0 0 1 3.049 1.995l9.517 8.487-7.976 9.042-3.751-2.814v.001c-.003.152-.217 13.114.156 17.66.368 4.492 2.813 18.598 2.813 18.598l-9.377-1.406-1.404.149-15.275 1.62"/>
        <path fill="#3CA4D0" d="M141.473 137.342l7.976-9.042-9.517-8.487a7.444 7.444 0 0 0-3.05-1.995l-7.756-2.67s-2.6 4.596-7.37 4.966c-4.77-.37-7.368-4.966-7.368-4.966l-7.757 2.67a7.44 7.44 0 0 0-3.05 1.995l-9.777 9.401 8.237 8.128 3.75-2.814s.219 13.088-.155 17.66c-.368 4.493-2.813 18.599-2.813 18.599l7.86.782 20.631-2.188 9.378 1.406s-2.446-14.106-2.814-18.598c-.375-4.573-.156-17.661-.156-17.661l3.751 2.814"/>
        <path fill="#FFFFFE" d="M78.948 134.211H80.2v-6.43h-1.252zM80.96 134.211h1.254v-6.43H80.96zM82.974 134.211h1.253v-6.43h-1.253zM110.362 134.211h1.253v-6.43h-1.253zM112.375 134.211h1.253v-6.43h-1.253zM114.388 134.211h1.252v-6.43h-1.252z"/>
        <path fill="#A1C8D4" d="M217.418 185.645l-13.872-16.742v-55.429c7.25-4.417 13.872-8.484 13.872-8.484v80.655"/>
        <path fill="#D8EBED" d="M203.546 168.903l-13.459-16.242v-31.044c3.606-2.153 8.67-5.225 13.459-8.143v55.43"/>
        <path fill="#2C3880" d="M190.087 152.66l-2.247-2.711a4.657 4.657 0 0 1-1.053-2.613l-1.683-22.867c0 .002.003.004.008.004.139 0 2.092-1.135 4.975-2.856v31.044"/>
        <path fill="#75E5AA" d="M128.911 198.625l58.045-.495a3.105 3.105 0 0 1 3.131 3.105v14.848a3.104 3.104 0 0 1-3.104 3.104h-58.045a3.104 3.104 0 0 1-3.104-3.104V201.73a3.105 3.105 0 0 1 3.077-3.105"/>
        <path fill="#E4F2F9" d="M198.24 115.736a3.673 3.673 0 1 1-4.68-5.664 3.673 3.673 0 0 1 4.68 5.664zm24.056-10.813l-23.734-6.46a4.66 4.66 0 0 0-4.188.903l-11.48 9.482a4.658 4.658 0 0 0-1.678 3.943l1.862 24.527c.073.958.44 1.871 1.053 2.613l34.978 42.347a4.657 4.657 0 0 0 6.556.624l33.352-27.548a4.656 4.656 0 0 0 .624-6.556l-34.978-42.347a4.666 4.666 0 0 0-2.367-1.528z"/>
        <path fill="#7461FF" d="M242.891 153.137l-16.358 13.511a4.657 4.657 0 0 1-6.555-.625l-13.512-16.357a4.656 4.656 0 0 1 .625-6.556l16.357-13.512a4.656 4.656 0 0 1 6.556.626l13.511 16.357a4.656 4.656 0 0 1-.624 6.556M218.302 122.929l-16.789 13.867a4.378 4.378 0 0 1-6.162-.587l-.005-.005a4.378 4.378 0 0 1 .587-6.163l16.79-13.868a4.378 4.378 0 0 1 6.162.588l.004.005a4.378 4.378 0 0 1-.587 6.163"/>
        <path fill="#12132C" d="M207.543 100.908l-1.438-.391c.683-.63 3.559-2.567 4.325-3.22 5.334-4.541 9.578-8.922 6.988-14.878v-1.574c4.712 7.872-1.538 13.184-6.27 17.28-.755.653-2.936 2.166-3.605 2.783M193.181 111.935c-.777 0-1.532-.25-2.124-.715-22.936-17.995-28.23-39.532-25.536-53.688 1.255-6.6 4.317-11.533 7.8-12.57 1.814-.54 3.756.247 5.261 1.81l-.946.28c-1.22-1.267-2.587-1.462-4.002-1.04-3.048.907-5.876 5.618-7.037 11.724-2.633 13.84 2.587 34.93 25.136 52.622.472.37 1.132.545 1.768.462.776-.1 1.816-.824 2.399-1.59l1.289.236c-.967 1.27-2.8 2.345-3.55 2.44a3.59 3.59 0 0 1-.458.03"/>
        <path fill="#2A2A5B" d="M257.479 238.798l-1.696 7.635a1.312 1.312 0 0 1-1.614.984l-13.374-3.511a.388.388 0 0 1-.173-.654c.356-.344 1.675-.954 2.132-1.063.335-.08 1.76.114 3.39.308 2.316.276 5.041.551 5.623.041.993-.868 2.753-4.863 2.753-4.863l2.959 1.123M306.823 236.073l3.548 6.07c.445.76.118 1.611-.524 2.214-1.677 1.574-4.622 2.805-6.195 3.422-1.624.636-6.549 2.122-6.549 2.122-.66.144-.216-1.438.685-2.122 1.202-.912 5.134-2.26 5.894-3.217.42-.532 1.498-2.054.95-3.423-.192-.484-1.368-3.423-1.368-3.423l3.56-1.643"/>
        <path fill="#B9AD86" d="M272.666 125.568l-3.833-10.952h4.29l4.016 9.766-4.473 1.186"/>
        <path fill="#C7B88A" d="M268.833 99.191c-1.005.73-1.552 4.473-2.1 5.294-.547.821-2.555 2.099-2.92 2.19-.365.092-.73 1.096 0 2.282.73 1.187 1.728 4.077 3.65 5.659 1.923 1.581 5.203 1.564 5.522 1.004.32-.56 3.88-4.837 3.605-6.206-.273-1.37 1.187-2.92 1.461-3.56.274-.639.09-2.738-.912-2.738-1.004 0-2.92-.365-4.154-1.187-1.232-.821-4.152-2.738-4.152-2.738"/>
        <path fill="#3CA4D0" d="M269.781 162.533s-1.223 12.777-1.223 14.238c0 1.46-13.69 28.11-14.054 29.389-.365 1.277-2.191 32.492-2.191 32.492l6.206 1.825s6.389-22.452 6.572-24.095c.182-1.643 0-5.294 0-5.294l15.333-21.174-10.643-27.381"/>
        <path fill="#5B5C69" d="M258.52 240.477l-1.327-.39 1.326.39s6.389-22.452 6.572-24.095c.06-.549.081-1.322.081-2.108 0 .786-.02 1.559-.081 2.108-.183 1.643-6.572 24.095-6.572 24.095"/>
        <path fill="#3B93C3" d="M258.52 240.477l-1.327-.39-.105-.031c-.028-4.896-1.032-10.044.336-12.904 2.008-4.199 4.746-6.024 3.468-11.135-1.277-5.112 0-10.588 2.19-14.056 2.191-3.468 6.755-8.58 7.485-12.047.286-1.362 1.725-3.677 3.367-5.99l3.352 10.323-12.195 16.841s.08 1.62.081 3.186c0 .786-.02 1.559-.081 2.108-.183 1.643-6.572 24.095-6.572 24.095"/>
        <path fill="#3CA4D0" d="M269.092 169.013l16.808-4.472s3.834 9.31 4.016 10.77c.183 1.46 2.555 24.094 2.921 26.468.364 2.373 7.666 11.135 8.761 14.968 1.096 3.833 6.572 19.532 6.572 19.532l-5.476 3.103-19.511-29.096a17.202 17.202 0 0 1-2.036-4.148l-12.055-37.125"/>
        <path fill="#3B93C3" d="M306.249 237.368c-2.344-5.1-6.055-12.729-6.659-14.78-.913-3.103-2.737-8.214-5.658-10.952-2.92-2.738-5.294-6.024-4.564-8.214.731-2.19-.547-6.207-3.64-9.675-3.094-3.468-.193-10.222-.01-12.048.151-1.517-1.462-10.086-4.42-15.247 2.134-.557 3.93-1.106 4.759-1.53.72 1.763 3.699 9.105 3.86 10.388.182 1.46 2.554 24.095 2.92 26.469.364 2.373 7.666 11.135 8.761 14.968 1.096 3.833 6.572 19.532 6.572 19.532l-.921.522-1 .567"/>
        <path fill="#75E5AA" d="M270.019 125.135c-2.19 1.529-.674 4.53-2.202 8.404-.813 2.062-2.241 4.873-3.73 7.165-1.384 2.13-1.187 5.547.091 7.26 1.278 1.712 2.007 4.756 2.555 7.8.548 3.043-.959 5.766-1.02 7.977-.038 1.412 3.379 5.272 3.379 5.272 2.388-.202 17.075-3.331 17.447-4.472.372-1.142-1.826-9.111-2.19-11.774-.366-2.664-.457-15.79-2.465-22.306-.646-2.097-2.555-6.414-3.103-7.175-.547-.76-7.668 1.086-8.762 1.85"/>
        <path fill="#82F0B6" d="M255.781 149.937l-1.551 4.655s13.159 3.855 15.79 4.199c4.198.547 12.23-.457 12.595-1.552.365-1.095-.73-26.778-5.02-28.293-4.845-1.713-5.933 4.107-5.75 6.388.183 2.282 4.536 15.178 3.468 16.246-1.643 1.643-19.532-1.643-19.532-1.643"/>
        <path fill="#2A2A5B" d="M267.555 96.818c-.268-1.773 2.157-2.555 3.223-2.646 1.067-.092 4.079-1.46 6.36-.73 2.282.73 5.177 5.84 5.542 7.575.365 1.734 4.407 2.008 5.502 5.84.454 1.59-1.187 5.02-.365 7.759.29.965 5.192 4.115 5.384 6.48.366 4.472-3.285 7.21-7.666 8.123-4.381.913-8.67-1.825-9.4-2.83-.73-1.003-5.295-11.682-4.838-14.237.456-2.556.15-9.584-.519-10.405-.667-.822-3.004-3.473-3.223-4.929"/>
        <path fill="#101028" d="M283.72 129.402h-.005c-3.636-.001-6.858-2.087-7.552-2.974l-.006-.008a.854.854 0 0 1-.022-.03c-.52-.715-2.984-6.336-4.195-10.436-.409-1.382-.674-2.592-.675-3.382 0-.157.01-.298.032-.42.149-.837.217-2.151.217-3.57 0-2.92-.286-6.283-.736-6.835-.133-.165-.335-.404-.572-.691-.512-.62-1.193-1.467-1.738-2.299 2.622 1.259 4.466 3.07 5.293 4.724 1.096 2.19-1.095 5.948 0 7.834 1.096 1.886 2.922 2.525 4.404 3.301 1.483.776-.707 4.61 1.073 6.252 1.461 1.35 4.4 2.394 6.011 2.394.35 0 .638-.05.833-.156.445-.242 1.162-.34 1.929-.34 1.12 0 2.35.21 3 .496a.437.437 0 0 0 .176.038c.693 0 1.38-1.715 1.754-3.086.135.286.227.565.256.834v.006a7.392 7.392 0 0 1 .03.659c-.004 4.108-3.516 6.636-7.692 7.506l-.019.004a8.89 8.89 0 0 1-1.796.18"/>
        <path fill="#2A2A5B" d="M250.37 150.31l-8.701-2.075a.931.931 0 0 1 .432-1.81l8.701 2.075a.93.93 0 1 1-.431 1.81"/>
        <path fill="#B9AD86" d="M243.916 148.649c-.902.654 1.37 2.475 3.97 3.433 2.602.959 6.668 1.538 6.668 1.538l.999-2.998s-4.354-2.94-5.176-2.665c-.821.273.932 1.387.11 1.524-.82.137-5.613-1.527-6.57-.832"/>
    </g>
</svg>
