<svg xmlns="http://www.w3.org/2000/svg" width="250" height="183" viewBox="0 0 250 183">
    <g fill="none" fill-rule="evenodd">
        <path fill="#F0F8FD" d="M115.623 16.93s-4.459-7.899-9.438-8.185c-4.875-.28-7.812 2.526-12.16 2.114-3.062-.289-5.52-3.641-10.785-3.608C78.109 7.284 75.405 0 68.826 0 60.78 0 57.54 4.427 53.554 6.924c-3.695 2.314-5.975 3.172-11.631 1.54C34.333 6.274 29 16.93 29 16.93h86.623M239.17 111.052c-7.247 1.62-9.046-5.052-14.803-5.052-4.934 0-6.821 3.838-10.808 5.451-3.694 1.494-5.504.772-11.16-.282-7.591-1.414-9.399 6.744-9.399 6.744h56.86s-5.552-8.01-10.69-6.861"/>
        <path fill="#F3FAFF" d="M29.724 38.296v127.6h174.638V30.758a6.056 6.056 0 0 0-6.337-6.05L35.5 32.249a6.055 6.055 0 0 0-5.775 6.048"/>
        <path fill="#E4F2F9" d="M203.568 24.709l-3.8.176a6.055 6.055 0 0 1 4.594 5.873v135.138h5.541V30.758a6.055 6.055 0 0 0-6.335-6.05"/>
        <path fill="#D8DDE9" d="M19 166v-1h218v1zM7 166v-1h3v1zM12 166v-1h5v1zM246 166v-1h3v1zM239 166v-1h5v1z"/>
        <path fill="#E4F2F9" d="M29.724 43.285v-4.989a6.055 6.055 0 0 1 5.775-6.049l124.797-5.788c-.7 3.205-1.403 6.949-1.992 10.264l-.19.426-14.994.717-.631-1.377a1.47 1.47 0 0 0-1.838-.768l-6.276 2.286a1.47 1.47 0 0 0-.493.3l-45.91 2.194a4.091 4.091 0 0 1-3.296-1.419l-1.942-2.255a4.09 4.09 0 0 0-3.266-1.42l-16.799.678a4.09 4.09 0 0 0-3.135 1.67l-1.963 2.679a4.09 4.09 0 0 1-3.105 1.668l-24.742 1.183m142.314-6.8c-.121-3.877-.32-8.138-.56-10.545l26.547-1.231a6.056 6.056 0 0 1 6.336 6.049v4.181l-32.323 1.545"/>
        <path fill="#D24B4A" d="M37.618 38.24a1.505 1.505 0 0 1-1.42 1.586 1.506 1.506 0 0 1-1.563-1.447c-.039-.837.597-1.547 1.42-1.585.824-.04 1.524.609 1.563 1.446"/>
        <path fill="#EDCB26" d="M42.859 38.013a1.506 1.506 0 0 1-1.42 1.586 1.506 1.506 0 0 1-1.563-1.447 1.505 1.505 0 0 1 1.42-1.586 1.506 1.506 0 0 1 1.563 1.447"/>
        <path fill="#4C98BF" d="M48.1 37.768c.038.837-.598 1.548-1.421 1.586a1.505 1.505 0 0 1-1.563-1.446 1.505 1.505 0 0 1 1.42-1.587 1.506 1.506 0 0 1 1.563 1.447"/>
        <path fill="#7461FF" d="M179.749 54.999l-67.528 2.724a5.43 5.43 0 0 0-5.211 5.425v29.296a5.43 5.43 0 0 0 5.622 5.428l67.528-2.388a5.43 5.43 0 0 0 5.238-5.427V60.425A5.43 5.43 0 0 0 179.75 55"/>
        <path fill="#FFFFFE" d="M132.322 76.839c0 4.906-3.765 8.882-8.41 8.882-4.644 0-8.409-3.976-8.409-8.882 0-4.907 3.765-8.884 8.41-8.884 4.644 0 8.409 3.977 8.409 8.884"/>
        <path fill="#FFF" d="M138.885 74.207a2.423 2.423 0 0 1-2.42-2.326 2.422 2.422 0 0 1 2.323-2.52l3.005-.122c.166 1.345.415 2.997.717 4.823l-3.526.143-.099.002m12-.482c-.084-.986-.135-1.841-.135-2.47 0-.533.037-.903.123-1.05.08-.137.355-.386.774-.716 2.079 1.579 3.988 2.987 5.416 3.986l-6.178.25m11.257-.455c.626-.75 1.075-1.454 1.075-1.454l-3.679-3.293 14.017-.565.1-.003a2.423 2.423 0 0 1 2.42 2.327 2.422 2.422 0 0 1-2.324 2.52l-11.61.468M138.885 83.443a2.423 2.423 0 0 1-2.42-2.326 2.423 2.423 0 0 1 2.323-2.52l4.482-.181c.288 1.58.597 3.208.911 4.815l-5.197.21-.099.002m13.038-.524c-.165-1.387-.38-3.106-.582-4.829l9.276-.374.1-.002a2.423 2.423 0 0 1 .096 4.846l-8.89.359" opacity=".7"/>
        <path fill="#61E3F0" d="M181.462 109.087l-67.528 1.268a5.43 5.43 0 0 0-5.328 5.43v29.27a5.43 5.43 0 0 0 5.537 5.43l67.528-1.327a5.43 5.43 0 0 0 5.324-5.43v-29.212a5.43 5.43 0 0 0-5.533-5.429"/>
        <path fill="#FFFFFE" d="M133.918 129.36c0 4.907-3.765 8.884-8.41 8.884-4.644 0-8.408-3.977-8.408-8.883 0-4.906 3.764-8.883 8.409-8.883 4.644 0 8.41 3.977 8.41 8.883"/>
        <path fill="#FFF" d="M140.528 126.598a2.423 2.423 0 0 1-.06-4.847l34.776-1.14.099-.002a2.424 2.424 0 0 1 .06 4.847l-34.776 1.14-.099.002M140.458 135.834a2.423 2.423 0 0 1-2.403-2.345 2.423 2.423 0 0 1 2.343-2.502l21.835-.716.1-.002a2.422 2.422 0 0 1 2.402 2.345 2.423 2.423 0 0 1-2.342 2.502l-21.836.716-.099.002" opacity=".7"/>
        <path fill="#E4F2F9" d="M59.375 99.247c.213-.713.347-1.2.369-1.335l-4.439.224-.103.258A5.356 5.356 0 0 1 52.8 93.92V65.09a5.364 5.364 0 0 1 5.18-5.362l28.838-.986a5.364 5.364 0 0 1 5.547 5.36v28.833a5.364 5.364 0 0 1-5.18 5.36l-27.81.952"/>
        <path fill="#75E5AA" d="M86.599 150.428l-28.422.486a5.286 5.286 0 0 1-5.377-5.286v-28.42a5.287 5.287 0 0 1 5.196-5.286l28.422-.485a5.286 5.286 0 0 1 5.377 5.286v28.42a5.287 5.287 0 0 1-5.196 5.285"/>
        <path fill="#FFFFFE" d="M81.928 97.152l-28.837.986a5.364 5.364 0 0 1-5.548-5.36V63.946a5.363 5.363 0 0 1 5.18-5.36l28.839-.987a5.364 5.364 0 0 1 5.547 5.36v28.832a5.365 5.365 0 0 1-5.18 5.361"/>
        <path fill="#D1E6E9" d="M67.819 67.506c2.08-.1 3.773 1.494 3.773 3.554 0 .491.007 1.248.014 2.055.005.516.01 1.051.013 1.55l-7.574.245v-3.547c0-2.027 1.694-3.757 3.774-3.857zm5.687 7.2c-.003-.535-.008-1.116-.013-1.674-.007-.804-.014-1.558-.014-2.048 0-3.103-2.54-5.495-5.66-5.331-3.12.163-5.66 2.758-5.66 5.785v3.633c-1.507.405-2.626 1.747-2.626 3.31v7.812c0 1.837 1.545 3.325 3.45 3.325h9.704a3.449 3.449 0 0 0 3.449-3.449v-8.1a3.311 3.311 0 0 0-2.63-3.263z"/>
        <path fill="#FFF" d="M70.066 84.79l-1.552-3.236c.584-.281.976-.895.915-1.585-.07-.774-.729-1.38-1.518-1.397-.918-.02-1.677.714-1.677 1.605 0 .627.377 1.16.921 1.4l-1.553 3.259a.64.64 0 0 0 .596.912l3.272-.028a.655.655 0 0 0 .596-.93"/>
        <path fill="#4C99C0" d="M196.532 32.448l-.914-.416a.587.587 0 0 0-.545.03l-.862.517.115-.999a.587.587 0 0 0-.198-.508l-.757-.66.984-.2a.588.588 0 0 0 .423-.345l.393-.924.495.875a.587.587 0 0 0 .459.296l1 .088-.68.74a.587.587 0 0 0-.138.528l.225.978" opacity=".3"/>
        <path fill="#61E3F0" d="M35.057 64.525l-15.31.246a.595.595 0 0 1-.604-.594V53.228l16.498-.265V63.93c0 .325-.26.59-.584.595"/>
        <path fill="#A5F7FF" d="M27.376 58.488c-.23 0-.46-.068-.66-.201l-7.573-5.059 16.498-.265-7.582 5.309a1.188 1.188 0 0 1-.683.216"/>
        <path fill="#32327B" d="M16 59v-1H8.05v1H16zM14 54v-1H4v1h10zM12 63v-1H0v1h12z" opacity=".2"/>
        <path fill="#C7BA8C" d="M148.45 96.72l.639 5.667h2.793v-6.146l-3.432.479M160.982 73.39l2.953 2.337 1.597-1.49-3.432-2.58-1.118 1.733"/>
        <path fill="#32327B" d="M159.524 46.273c-4.608 1.437-21.379 4.744-22.046 5.862-.666 1.117-1.239 4.134-.574 5.084 1.754 2.504 21.163 17.47 22.62 17.79 1.458.32 3.693-3.193 3.693-3.193L146.909 57.22l23.642-.956c.956-.039 1.925-3.604 1.446-4.562-.479-.958-12.473-5.428-12.473-5.428"/>
        <path fill="#E4A62D" d="M148.793 58.905l-1.884-1.686 1.884 1.686m-1.884-1.686h.001m0 0h.001m.003 0h0m.008 0h0m.002 0h0m.003 0l.002-.001h-.002M146.936 57.218h.004-.004m.006 0h.003-.003m.008 0h0m.003-.001h.005-.005m.007 0h.013-.013m.018-.001h0m.007 0h0m.016-.001h.006H147m.022 0h.007-.007m.011 0l.003-.001h-.003m.01 0h.003-.004m.025-.001h0m.041-.002h.006-.006m.014 0"/>
        <path fill="#28296E" d="M146.983 60.566c-1.75-1.259-3.045-2.686-2.963-3.347.107-.867.334-2.254 1.662-2.254.154 0 .323.019.508.059.352.077.72.115 1.096.115 1.533 0 3.219-.632 4.596-1.881 1.717-1.557 3.293-3.613 4.95-4.071.581-.162 1.548-.313 2.557-.441l.403.425c-1.879 1.562-5.47 4.73-8.968 7.89l-3.7.15H147.109l-.04.002h-.032l-.003.001h-.011l-.016.001H147l-.013.001h-.007-.008l-.013.001h-.007-.002H146.936h-.007l-.002.001h-.002-.001-.006-.002-.002-.001-.001-.003l1.884 1.687a440.99 440.99 0 0 0-1.81 1.661"/>
        <path fill="#32327B" d="M160.822 48.349c-2.394 1.755-18.199 15.964-19.157 17.4-.958 1.437 5.109 31.424 5.907 32.156.798.73 3.83.674 4.63 0 .799-.675 0-10.512 0-12.154 0-1.643-1.953-14.482-1.33-15.546.624-1.063 12.824-8.745 13.941-9.554 1.118-.808 5.268-5.627 5.268-5.627l-9.259-6.675"/>
        <path fill="#C7BA8C" d="M155.746 5.4c.319 2.554-.24 5.907-.799 6.305-.559.4.776 1.358 1.466 1.677.69.32 1.328 2.155 2.605 2.474.518.13.983.062 1.39-.005.598-.099 1.072-.198 1.404.325.559.878 1.197 3.352 1.118 3.99-.08.64 3.192-.319 3.831-.558.638-.24.24-1.155 0-1.735-.24-.58-1.756-3.773-1.996-4.012-.24-.24.56-4.47.4-5.189-.16-.718-.48-2.394-1.517-3.273-1.038-.877-2.954-2.394-4.39-2.234-1.437.16-3.512 2.234-3.512 2.234"/>
        <path fill="#27204F" d="M153.67 4.362c.501.785 1.441 2.24 2.158 2.078.716-.162 2.552-1.52 3.11-1.44.56.08 1.676 4.071 1.597 4.71-.08.639-2.87 2.634-3.43 2.634-.561 0-2.504.559-2.29.958.212.4-.134 2.155 0 2.554.132.4 1.148 2.085 1.598 2.918.45.834 4.44-1.88 5.399-2.598.958-.719.32-4.269.32-4.53 0-.26-.223-2.176.208-2.495.43-.32.909-1.676 1.387-1.436.48.239.32 2.634 0 3.033-.318.399-.478 1.197-.159 1.756.32.559.24 1.277 1.197 1.357.958.08 1.038-1.118 1.357-1.677.32-.558-.08-1.995 0-2.554.08-.559.012-2.794.126-3.752.114-.958.034-2.417-.525-2.725-.559-.308-5.018-1.585-5.742-1.824-.723-.24-1.362-1.597-2.56-1.198-1.196.4-4.155 3.597-3.751 4.231M141.186 106.698c-.097.68 2.395.319 3.193 0 .798-.32 4.018-1.756 5.242-2.235 1.224-.48 2.58-.878 2.74-1.278.16-.399-.479-2.394-.479-2.394l-2.9.66s-7.716 4.688-7.796 5.247M163.566 75.557c.208.746-2.265 5.838-2.584 6.237-.32.399.16 1.117.559.798.399-.32 5.51-6.147 5.647-6.865.177-.935-2.18-1.912-2.18-1.912l-1.442 1.742"/>
        <path fill="#D1E6E8" d="M152.19 97.915v-.002.002m.003-.004c.001 0 .002 0 .003-.002l-.003.002m.005-.003l.004-.003c.173-.14.274-.672.326-1.443-.052.77-.153 1.303-.326 1.443l-.004.003"/>
        <path fill="#28296E" d="M150.527 98.399c-.516-3.005-2.141-12.58-2.476-15.728-.4-3.751.08-8.62.4-9.658.318-1.037-1.917-.399-1.666-1.037.25-.639 1.346-.958 1.665-1.77.32-.812-2.394-1.024-2.474-1.343-.08-.32.057-.844 1.197-1.517 1.139-.674 7.822-5.108 8.649-6.695.827-1.586 1.01-2.963 2.765-4.414 1.756-1.451 5.109-.784 5.827-1.213.335-.2.428-.795.6-1.535 1.424.819 3.171 1.685 4.471 2.221-1.19 1.36-3.817 4.323-4.672 4.941-.614.444-4.575 2.965-8.123 5.323-2.072 1.376-4.003 2.697-5.043 3.515-.419.33-.693.579-.774.716-.086.147-.123.517-.123 1.05 0 3.337 1.452 13.08 1.452 14.496 0 1.095.355 5.836.355 9.073 0 .61-.013 1.168-.044 1.638-.049.77-.146 1.303-.311 1.443-.002 0-.003.002-.005.003l-.002.001-.002.002-.002.002-.002.002c-.314.255-.951.418-1.662.484"/>
        <path fill="#AAC0CA" d="M138.89 51.52L156 46.422l.234.824-17.122 5.015-.22-.74"/>
        <path fill="#9DE6FF" d="M156.831 45.475c.584 1.39 4.47 5.428 6.386 6.865 1.916 1.436 7.034 3.934 7.985 3.896.95-.038 3.03-4.056 3.03-4.056s-2.301-5.907-2.108-7.344c.193-1.437-.282-18.852-.922-20.68-.642-1.83-3.048-6.545-5.67-6.14-.646.1-2.713.402-3.193 1.278-1.97 3.592-5.508 26.181-5.508 26.181"/>
        <path fill="#E9BD29" d="M171.179 56.237h.023c.292-.012.693-.403 1.107-.938-.414.535-.815.926-1.107.937h-.023"/>
        <path fill="#2E2B75" d="M170.801 56.187"/>
        <path fill="#B3A26A" d="M165.378 18.041l.16-.025-.16.025"/>
        <path fill="#8CD9F2" d="M171.18 56.237c-.094 0-.222-.021-.379-.061a7.72 7.72 0 0 1-.81-.266c-1.322-.499-3.358-1.49-4.976-2.422.282-1.085 2.752-1.149 3.033-2.505.281-1.358-2.436-5.109-2.346-6.386.09-1.277 2.783-4.63 3.023-6.226.24-1.597-.958-3.911-1.488-5.428s-1.386-7.503-1.535-9.738l-1.05-5.035c.281-.058.536-.1.726-.13l.154-.024c.107-.016.213-.024.32-.024 2.496 0 4.734 4.41 5.35 6.164.542 1.548.965 14.27.965 19.006 0 .858-.014 1.454-.043 1.674a1.476 1.476 0 0 0-.012.194c0 1.707 2.12 7.15 2.12 7.15s-.995 1.921-1.923 3.12c-.414.534-.815.925-1.107.936h-.023"/>
        <path fill="#C7BA8C" d="M145.957 47.271s9.797-5.448 10.216-5.987c.419-.538 3.771-8.32 3.771-8.32l3.158 2.154s-3.285 8.382-3.73 8.74c-.445.36-3.942 2.036-5.487 2.635-1.544.598-7.111 2.275-7.111 2.275l-.817-1.497"/>
        <path fill="#B6ECFF" d="M165.702 19.51c-1.726-.564-3.842 2.258-4.241 3.695-.4 1.437-2.874 8.7-3.273 9.18-.399.478 3.044 3.192 3.757 3.591.713.4 1.112.16 1.511 0 .4-.16 3.907-7.452 4.149-8.834.242-1.383 1.549-6.505-1.903-7.632"/>
        <path fill="#B4CDDC" d="M134.375 38.007l6.276-2.286a1.47 1.47 0 0 1 1.838.768l6.021 13.136-8.928 2.502a.57.57 0 0 1-.673-.313l-5.368-11.82a1.47 1.47 0 0 1 .834-1.987"/>
        <path fill="#6D9EC6" d="M139.445 52.146a.621.621 0 0 1-.201-.035l8.867-2.486-6.021-13.136a1.462 1.462 0 0 0-1.155-.84 1.467 1.467 0 0 1 1.554.84l6.021 13.136-8.928 2.502a.505.505 0 0 1-.137.02"/>
        <path fill="#9D8036" d="M161.815 16.18a.095.095 0 0 1-.003-.004.718.718 0 0 0 .055-.046.86.86 0 0 1-.052.05m2.987-2.274a.876.876 0 0 1-.078-.004c-.958-.08-.878-.799-1.197-1.357-.32-.559-.16-1.357.16-1.756.319-.4.478-2.794 0-3.033a.256.256 0 0 0-.116-.029c-.096 0-.192.057-.288.147.11-.114.219-.188.33-.188.037 0 .076.01.114.029.48.239.32 2.634 0 3.033-.318.399-.478 1.197-.159 1.756.32.559.24 1.277 1.197 1.357.01.01.023.025.037.045M162.288 9.2a.278.278 0 0 1 .052-.05.744.744 0 0 0 .058-.049.771.771 0 0 1-.1.09l-.01.009"/>
        <path fill="#1B1D21" d="M156.757 18.932c-.166 0-.285-.049-.344-.158-.05-.094-.109-.198-.172-.31.879-.242 1.613-.802 1.873-1.423.512-1.218.788-2.336 1.807-2.735 1.02-.399 1.738-1.517 1.499-2.075-.24-.56.398-3.912.398-4.79 0-.878.649-1.756 1.242-2.155.438-.294 1.867-1.319 2.984-1.587.223.593.244 1.533.163 2.22-.114.958-.046 3.194-.126 3.752-.08.559.32 1.996 0 2.555-.217.38-.323 1.055-.67 1.423a.778.778 0 0 1-.556.215 1.16 1.16 0 0 1-.09-.003c-.958-.08-.878-.798-1.197-1.357-.32-.56-.16-1.357.16-1.756.319-.4.478-2.794 0-3.033a.256.256 0 0 0-.116-.029c-.11 0-.22.074-.329.188-.305.29-.604.93-.885 1.228a.744.744 0 0 1-.058.05.278.278 0 0 0-.052.049c-.416.342-.198 2.229-.198 2.487 0 .251.594 3.562-.223 4.442a.718.718 0 0 1-.055.046c-.833.624-3.956 2.756-5.055 2.756"/>
        <path fill="#27204F" d="M62.183 178.727c.27 1.048-.2 2.934.16 3.256.362.323 9.254.344 9.688.153.434-.192.723-.886 0-1.01-.723-.122-4.595-1.278-5.169-1.712-.574-.434-2.241-2.06-2.241-2.06l-2.438 1.373"/>
        <path fill="#6E5C47" d="M45.723 95.277c-.24 1.201.08 4.275-.09 4.788-.18.538-1.837.21-2.874-.34-.396-.21-.731-.717-.696-1.164l.396-5.107 3.264 1.823"/>
        <path fill="#867054" d="M48.985 88.459c.022.966-.104 2.093.528 2.476 1.138.689-.718 5.238-1.282 5.66-.336.251-2.546-.04-3.485-.278-.94-.237-3.194-1.164-4.007-2.445-.812-1.282.024-5.714.748-6.503.723-.79 3.447-2.88 4.642-2.778 1.194.103 2.856 3.868 2.856 3.868"/>
        <path fill="#27283B" d="M46.972 87.647c.574.066 1.007 1.017 2.033.801 1.027-.216 2.176-2.05 1.965-2.913-.572-2.342-2.881-2.56-3.581-1.94-.275-1.418-2.955-2.796-4.072-.862-1.984-.663-2.665.031-3.173 1.587-1.593-.588-2.914.987-1.844 2.45-1.676-.037-1.941 4.035.228 4.315-.63.658-1.054 1.217-.18 2.873.875 1.656 3.056 2.266 3.654 1.217 1.01.66 1.825.243 2.151-.663.327-.905-1.404-3.249-.59-4.493.374-.572 1.292.269 1.623.228.414-.053.524-2.747 1.786-2.6"/>
        <path fill="#867054" d="M65.408 98.962c.538-1.257 1.137-3.118 1.616-4.074.479-.955-.05-1.448.634-1.433.683.013.863.538.803 1.376-.06.839-.031 1.295.479 1.759 1.556 1.414 4.67 1.055 4.73 1.534.059.479-.48.81-1.628.878-.777.046-1.666-.519-3.581.224-.84.325-2.155 1.113-2.155 1.113l-.898-1.377"/>
        <path fill="#5040C4" d="M47.388 111.44c1.616.897 6.965.562 7.566-.017.982-.945 4.67-12.748 4.79-13.511l-4.439.224s-3.128 7.855-3.427 8.274c-.3.42-4.13-.419-4.13-.419l-.36 5.448"/>
        <path fill="#3CA4D0" d="M51.38 128.72c2.394 3.672 5.746 11.495 6.544 13.41.799 1.916 4.31 12.293 4.31 12.293s1.278 11.654 1.278 14.208c0 2.554 2.395 8.62 2.395 8.62l-4.47 2.555s-5.747-9.898-5.907-12.452c-.16-2.555-.16-10.696-.48-11.654-.318-.958-8.939-16.443-8.939-16.443l1.277-9.636 3.991-.9"/>
        <path fill="#202228" d="M61.437 179.806s-5.747-9.898-5.907-12.452c.16 2.554 5.907 12.452 5.907 12.452l.827-.473-.827.473"/>
        <path fill="#1B1D21" d="M62.264 179.333l1.087-.621-1.087.62"/>
        <path fill="#D1E6E8" d="M55.05 155.697c-.164-.482-2.33-4.47-4.489-8.396 2.159 3.926 4.325 7.913 4.489 8.396"/>
        <path fill="#3C6EA8" d="M61.437 179.806s-5.747-9.898-5.907-12.452c-.16-2.555-.16-10.696-.48-11.654v-.003c-.164-.483-2.33-4.47-4.489-8.396a1846.48 1846.48 0 0 0-1.972-3.577c.186-1.32.364-2.6.522-3.767 1.098 2.858 2.617 6.223 3.545 6.803 1.277.798 2.714 2.783 3.353 3.986.639 1.202.559 3.357.718 3.916.16.559 1.197.878 1.676 1.836.48.958-.399 3.113-.558 4.071-.16.958 1.357 2.794 1.516 3.831.16 1.038.32 3.193 0 4.151-.319.958 2.854 8.923 3.513 9.49.14.121.305.366.477.67l-1.914 1.095" opacity=".3"/>
        <path fill="#3CA4D0" d="M38.448 130.53c0 5.055.639 20.307 0 21.301-.639.995-2.394 1.953-2.394 1.953v1.597s-2.395 5.575-3.034 7.497c-.638 1.921-4.949 11.5-4.949 11.5s2.076 3.806 2.714 3.659c.639-.147 11.35-15.178 12.7-16.523 1.349-1.344 2.466-2.94 2.945-4.218.479-1.277 3.193-20.593 3.353-22.67.16-2.074-1.437-7.767-1.437-7.767l-9.898 3.67"/>
        <path fill="#3C6EA8" d="M28.555 175.227c-.288-.49-.484-.85-.484-.85s4.31-9.578 4.95-11.5c.638-1.92 3.033-7.496 3.033-7.496v-1.597s1.755-.958 2.394-1.953c.508-.791.207-10.62.063-17.146 1.218 1.34 2.365 2.463 2.894 2.463a.284.284 0 0 0 .116-.023c.135-.06.365-.205.664-.414l.003-.002h.001c.291-.204.648-.467 1.045-.767.279 3.2.163 7.722.163 9.221 0 2.155-.798 8.621-.878 9.1-.08.479-1.197.16-1.517.479-.319.32.32.958 0 1.357-.319.4-1.676.16-2.07.798-.393.639.953 3.672.474 4.23-.479.56-2.953 2.156-3.592 2.954-.639.798-1.677 5.109-2.235 5.747-.559.639-1.437.559-1.996.958-.559.4.32 2.076 0 2.714-.094.188-.222.251-.371.251-.155 0-.331-.068-.514-.137-.182-.068-.37-.136-.55-.136a.577.577 0 0 0-.16.022c-.339.096-.825.651-1.433 1.727" opacity=".3"/>
        <path fill="#27204F" d="M28.462 175.068c-1.197 1.995-2.16 3.468-2.147 3.787.014.32 6.705 4.25 7.184 4.09.479-.16.918-.348.2-1.064-1.925-1.915-3.166-2.987-3.503-3.472-.153-.221.46-1.094.31-1.357-.68-1.185-2.044-1.984-2.044-1.984"/>
        <path fill="#6957EE" d="M34.816 130.53c1.437 1.383 5.747 7.017 6.705 6.595.958-.422 6.661-5.148 7.856-5.97 1.196-.822 3.399-1.259 3.399-1.259s-2.155-4.383-2.395-6.032c-.24-1.649-.357-13.506-.357-13.506s-2.596-10.553-3.714-11.012c-1.28-.526-3.85-1.24-4.31-.848-1.836 1.567-2.783 5.159-3.068 6.595-.284 1.437.525 9.699 0 11.854-.524 2.155-4.116 13.583-4.116 13.583"/>
        <path fill="#D0232A" d="M41.405 137.148c-.529 0-1.676-1.123-2.894-2.463 1.218 1.34 2.365 2.463 2.894 2.463a.284.284 0 0 0 .116-.023c.135-.06.365-.205.664-.414-.299.209-.529.354-.664.414a.284.284 0 0 1-.116.023m.783-.44h.001"/>
        <path fill="#5F4DE2" d="M41.405 137.148c-.529 0-1.676-1.123-2.894-2.463-1.425-1.569-2.948-3.436-3.695-4.155 0 0 3.592-11.428 4.116-13.583.525-2.155-.284-10.417 0-11.854.285-1.436 1.232-5.028 3.068-6.595.092-.079.27-.113.504-.113.634 0 1.689.25 2.62.54.975 1.628 2.288 3.188 1.945 5.269-.4 2.416-.988 3.274-.24 4.93.749 1.657 2.184 3.956.878 7.743-1.596 4.63-5.093 7.423-5.427 9.738-.263 1.816 1.586 6.692 1.354 9.031-.558.429-1.059.803-1.445 1.072l-.004.003c-.299.209-.529.354-.664.414a.284.284 0 0 1-.116.023"/>
        <path fill="#6957EE" d="M42.778 101.292c-1.619 1.144-1.804 2.768-1.616 4.28.137 1.101 3.309 3.684 4.76 3.772 1.45.087 12.701 1.361 13.391 1.037.69-.325 6.3-7.884 6.823-8.602.523-.719 1.458-1.748 1.12-2.067-.34-.32-1.2-1.59-1.558-1.755-.358-.166-7.79 8-8.167 8.106-2.17.61-13.017-5.998-14.753-4.771"/>
    </g>
</svg>
