<svg xmlns="http://www.w3.org/2000/svg" width="346" height="350" viewBox="0 0 346 350">
    <g fill="none" fill-rule="evenodd">
        <path fill="#F3FAFF" d="M312.808 175.039c0 77.246-62.632 139.867-139.893 139.867-77.262 0-139.894-62.621-139.894-139.867 0-77.246 62.632-139.867 139.894-139.867 77.26 0 139.893 62.62 139.893 139.867"/>
        <path fill="#FFF" d="M200.881 123.438c0-5.79-4.739-10.528-10.53-10.528H38.647a150.16 150.16 0 0 0-5.924 14.88c-6.378 18.92-8.86 38.526-7.375 58.276 1.434 19.071 6.487 37.466 15.02 54.675 8.534 17.208 20.119 32.366 34.433 45.052 14.824 13.138 31.934 23.033 50.857 29.41 18.922 6.378 38.532 8.859 58.285 7.374a148.092 148.092 0 0 0 16.938-2.264V123.438"/>
        <path fill="#F0F8FD" d="M261 20.622s.311-9.519 6.028-9.605c3.907-.06 4.378 1.998 5.234 1.713 1.554-2.866 4.669-4.247 8.19-4.437.38-3.522 4.092-8.294 9.041-8.224 7.519-.887 9.78 7.047 10.464 7.331 3.236-1.047 7.999-.82 11.235 4.509 8.66-.095 9.654 6.864 9.654 6.864L261 20.622zM0 349.85s.24-7.316 4.633-7.382c3.003-.046 3.365 1.536 4.023 1.317 1.195-2.203 3.589-3.264 6.295-3.41.293-2.708 3.146-6.376 6.95-6.322 5.779-.682 7.516 5.417 8.042 5.635 2.488-.805 6.149-.63 8.636 3.466C45.236 343.08 46 348.43 46 348.43l-46 1.42z"/>
        <path fill="#E4F2F9" d="M200.88 123.438c0-5.79-4.738-10.528-10.53-10.528H38.62a146.498 146.498 0 0 0-9.042 25.388H200.88v-14.86M172.915 234.25v-17.802a5.265 5.265 0 0 0-5.265-5.264H29.453a146.867 146.867 0 0 0 10.285 28.329H167.65a5.265 5.265 0 0 0 5.265-5.263M172.915 185.036v-17.802a5.265 5.265 0 0 0-5.265-5.264H25.522c-.83 9.403-.75 18.869.24 28.33H167.65a5.265 5.265 0 0 0 5.265-5.264M172.915 283.463V265.66a5.265 5.265 0 0 0-5.265-5.264H52.042c7.449 10.553 16.234 20.029 26.238 28.33h89.37a5.265 5.265 0 0 0 5.265-5.264"/>
        <path fill="#61E3F0" d="M152.88 176.135a9.19 9.19 0 0 1-9.19 9.19 9.19 9.19 0 1 1 0-18.379 9.19 9.19 0 0 1 9.19 9.189M152.88 225.256a9.19 9.19 0 0 1-9.19 9.19 9.19 9.19 0 1 1 0-18.379 9.19 9.19 0 0 1 9.19 9.189M152.88 274.377a9.19 9.19 0 0 1-9.19 9.189 9.19 9.19 0 1 1 0-18.378 9.19 9.19 0 0 1 9.19 9.189"/>
        <path fill="#E4F2F9" d="M172.915 27.125c-19.97 0-39.344 3.912-57.589 11.627-17.617 7.45-33.438 18.114-47.022 31.696-13.584 13.581-24.25 29.4-31.702 47.013-7.717 18.242-11.63 37.613-11.63 57.578 0 19.964 3.913 39.336 11.63 57.577 7.451 17.614 18.118 33.432 31.702 47.014 13.584 13.58 29.405 24.245 47.022 31.695 18.245 7.716 37.62 11.628 57.589 11.628 19.968 0 39.343-3.912 57.588-11.628 17.618-7.45 33.438-18.114 47.022-31.695 13.585-13.582 24.25-29.4 31.703-47.014 7.716-18.24 11.629-37.613 11.629-57.577 0-19.965-3.913-39.336-11.63-57.578-7.451-17.614-18.117-33.432-31.702-47.013-13.584-13.582-29.404-24.245-47.022-31.696-18.245-7.715-37.62-11.627-57.588-11.627m0 8.047c77.26 0 139.893 62.62 139.893 139.867 0 77.246-62.632 139.867-139.893 139.867-77.262 0-139.894-62.621-139.894-139.867 0-77.246 62.632-139.867 139.894-139.867"/>
        <path fill="#D1E6E8" d="M250.676 256.863c-17.864 0-34.974-4.9-49.795-14.067v-12.141c14.821 9.166 31.93 14.066 49.795 14.066 18.329 0 35.865-5.16 50.947-14.79a139.342 139.342 0 0 1-8.73 17.076c-12.956 6.446-27.324 9.856-42.217 9.856"/>
        <path fill="#F3F2F2" d="M200.881 242.796a95.644 95.644 0 0 1-17.317-13.727 96.03 96.03 0 0 1-10.65-12.65 5.265 5.265 0 0 0-3.164-4.8 93.71 93.71 0 0 1-9.705-21.32h4.73c4.361 9.238 10.247 17.79 17.526 25.343l-.41 5.24 3.987-1.716a95.362 95.362 0 0 0 15.003 11.489v12.141M156.53 161.97h-.765c0-2.033.064-4.057.19-6.068.128 2.037.32 4.058.575 6.068"/>
        <path fill="#E9F5F5" d="M172.915 216.42a94.902 94.902 0 0 1-3.165-4.8 5.265 5.265 0 0 1 3.165 4.8"/>
        <path fill="#D1E6E8" d="M164.775 190.3h-4.73c-2.819-9.053-4.28-18.579-4.28-28.33h.765a93.999 93.999 0 0 0 8.245 28.33"/>
        <path fill="#D1E8ED" d="M292.892 247.007a139.342 139.342 0 0 0 8.731-17.076 95.28 95.28 0 0 0 11.992-9.07 149.354 149.354 0 0 1-2.307 6.56 147.869 147.869 0 0 1-4.848 11.34 94.39 94.39 0 0 1-13.568 8.246"/>
        <path fill="#FFFFFE" d="M250.676 239.77c-49.603 0-89.958-40.348-89.958-89.941 0-49.594 40.355-89.941 89.958-89.941s89.958 40.347 89.958 89.94c0 49.594-40.355 89.941-89.958 89.941"/>
        <path fill="#E4F2F9" d="M250.676 54.936c-25.351 0-49.186 9.87-67.112 27.794-17.926 17.922-27.799 41.752-27.799 67.099 0 25.346 9.873 49.176 27.799 67.1 17.926 17.922 41.76 27.792 67.112 27.792 25.352 0 49.187-9.87 67.112-27.793 17.927-17.923 27.799-41.753 27.799-67.1 0-25.346-9.872-49.176-27.799-67.098-17.925-17.924-41.76-27.794-67.112-27.794m0 9.904c46.947 0 85.005 38.05 85.005 84.989 0 46.937-38.058 84.988-85.005 84.988-46.947 0-85.005-38.05-85.005-84.988s38.058-84.99 85.005-84.99"/>
        <path fill="#FFFFFE" d="M263.052 115.338c-3.301-.562-6.767-.812-10.31-.812-2.444 0-4.927.12-7.417.337-2.19-2.336-3.744-5.198-4.713-7.346a4.362 4.362 0 0 1 1.447-5.35c1.356-.967 3.102-2.022 4.941-2.635.607-.202 1.358-.283 2.207-.283 1.657 0 3.683.307 5.717.615 2.036.308 4.081.615 5.777.615 1.509 0 2.741-.244 3.445-.947 2.69-2.689 0-16.807-1.344-21.849-1.345-5.042-3.027-8.067-7.397-8.403a1.89 1.89 0 0 0-.147-.005c-2.175 0-6.157 3.459-10.254 6.917-4.097 3.46-8.308 6.918-10.941 6.918-.178 0-.348-.016-.511-.049-5.013-1.002-10.69-4.33-12.409-12.951 9.2-3.408 19.149-5.27 29.533-5.27 10.45 0 20.46 1.886 29.708 5.335.322 7.56-3.435 16.193-6.32 21.962 0 0-1.513-14.79-3.53-15.798a.332.332 0 0 0-.15-.039c-1.816 0-.867 18.277-1.195 21.569-.263 2.645-.32 12.054-6.137 17.469"/>
        <path fill="#D1E8ED" d="M280.384 70.175c-9.248-3.449-19.258-5.335-29.708-5.335-10.384 0-20.334 1.862-29.533 5.27l-.03-.158c-1.681-8.74 10.085-10.756 12.347-13.11.115-.118.222-.26.328-.413a96.028 96.028 0 0 1 16.888-1.493c8.091 0 16.026 1.01 23.665 2.962.905 1.043 1.768 2.045 2.58 2.967 2.32 2.63 3.316 5.858 3.463 9.31"/>
        <path fill="#75E5AA" d="M316.794 181.079c5.522-27.3-3.848-41.2-7.773-46.206-4.266-5.442-30.862-15.979-42.734-18.87-26.224-6.387-65.56 9.748-69.93 14.117-4.37 4.37-10.758 39.664-10.422 41.009.336 1.344 26.224-1.008 26.224-1.008l-1.178 54.873c11.85 6.268 25.356 9.823 39.695 9.823 14.68 0 28.492-3.721 40.542-10.271l2.301-44.677s22.042 7.31 23.275 1.21"/>
        <path fill="#59DD98" d="M250.676 234.817h-.339l-.08-.001h-.176l-.071-.001h-.007c-14.089-.11-27.359-3.651-39.022-9.821l1.178-54.873s1.77-2.508 5.762-2.508c2.18 0 5.024.749 8.602 3.064 10.13 6.553 1.863 12.483 3.65 24.824 1.788 12.34 10.13 8.856 16.652 11.316 6.523 2.46 2.362 9.194 3.85 17.734.526 3.013 3.357 4.25 6.933 4.25 6.559 0 15.622-4.165 17.55-9.176 2.979-7.745 1.788-21.744 6.79-25.318 5-3.574 5.425-11.02 3.935-17.276-1.489-6.255 4.469-18.17 4.469-18.17l3.167 21.008-2.3 44.677c-11.25 6.114-24.034 9.764-37.627 10.222h-.006l-.08.003h-.003l-.17.005h-.002l-.078.003h-.011l-.074.002h-.008l-.166.005h-.009a2.88 2.88 0 0 0-.073.003h-.013c-.025 0-.048 0-.073.002h-.009l-.165.004h-.01l-.07.002h-.018l-.067.002h-.013a14.02 14.02 0 0 1-.163.003h-.015c-.022 0-.043 0-.064.002h-.103l-.08.003h-.099l-.06.001-.024.001h-.06l-.02.001-.159.002H251.523l-.059.001-.021.001h-.079l-.08.001h-.185c-.023.002-.047.002-.07.002h-.354"/>
        <path fill="#AFA17D" d="M291.554 218.037l1.965-38.168s7.57 1.464 10.736 1.936c4.377.653 10.923 1.1 10.923 1.1l-4.385 27.01-19.24 8.122M185.873 170.16l-3.983 50.721 19.276-8.29 9.815-3.69 1.178-38.78-26.286.039"/>
        <path fill="#C7B88A" d="M245.442 60.876c15.466.673 21.18 21.177 21.18 21.177.673 2.017.673 41.009 0 44.37-.671 3.361-7.744 7.73-13.621 8.404-5.878.672-12.938-6.051-13.946-8.74-.41-1.093-.987-9.411-1.527-18.897-5.32-5.633-10.056-19.847-10.912-24.129-1.01-5.042 6.358-22.727 18.826-22.185"/>
        <path fill="#2A2A5B" d="M267.128 92.137c4.202-8.403 10.254-22.882 2.857-31.273-7.396-8.39-18.827-23.181-29.922-19.484-11.094 3.698-11.278 13.11-13.54 15.463-2.26 2.353-14.028 4.37-12.347 13.11 1.68 8.739 7.396 12.1 12.44 13.108 5.042 1.009 17.482-14.117 21.853-13.78 4.37.335 6.051 3.36 7.396 8.402 1.345 5.042 4.034 19.16 1.345 21.85-2.69 2.688-13.112-1.345-17.147 0-1.839.613-3.585 1.667-4.94 2.635a4.364 4.364 0 0 0-1.447 5.349c2.189 4.856 7.37 13.366 16.137 11.175 12.103-3.025 12.103-17.445 12.44-20.823.336-3.379-.673-22.539 1.344-21.53 2.018 1.008 3.53 15.798 3.53 15.798M232.884 174.964l16.456-4.58a1.702 1.702 0 0 0 1.184-2.095l-9.681-34.778a1.702 1.702 0 0 0-2.097-1.183l-16.456 4.58a1.703 1.703 0 0 0-1.184 2.096l9.681 34.777a1.703 1.703 0 0 0 2.097 1.183"/>
        <path fill="#C7B88A" d="M310.793 209.915c-12.945-11.415-28.955-23.571-30.178-25.273-1.8-2.506-9.76-13.727-14.124-16.019-4.365-2.292-10.822-10.066-13.153-7.785-1.8 1.761 7.212 11.15 7.905 13.328.692 2.178-3.688 10.78-.806 12.715 2.883 1.935 12.235 8.987 12.235 8.987l18.102 28.913a85.287 85.287 0 0 0 20.02-14.866"/>
        <path fill="#FFFFFE" d="M214.287 226.658a85.068 85.068 0 0 1-18.36-11.814 85.145 85.145 0 0 0 18.363 11.81l-.003.004"/>
        <path fill="#D1E8ED" d="M204.485 232.768a95.08 95.08 0 0 1-18.407-13.425l.038-.28 9.81-4.22a85.068 85.068 0 0 0 18.36 11.815c-1.622 1.898-3.709 3.72-7.255 5.327-.769.349-1.63.603-2.546.783"/>
        <path fill="#6E5648" d="M186.116 219.064c.59-4.27 1.673-7.707 3.047-10.578a85.47 85.47 0 0 0 6.764 6.357l-9.811 4.22"/>
        <path fill="#C7B88A" d="M246.616 141.236c3.121 6.47 5.327 11.15 3.246 14.674-2.081 3.523-12.219 11.09-14.912 17.79-2.692 6.702-14.26 31.765-22.902 42.928-2.638 3.408-4.353 6.916-10.61 9.751-7.035 3.187-21.416-1.08-21.405-5.477.035-14.123 4.489-21.115 9.29-26.277 4.801-5.161 33.472-28.963 33.472-28.963l-.476-13.245c-.066-1.822 2.014-2.913 3.47-1.813 1.418 1.073 2.896 2.056 3.71 2.2 1.886.332 14.98-15.995 17.117-11.568"/>
        <path fill="#12132C" d="M81.338 291.26a146.137 146.137 0 0 1-13.16-11.707 148.74 148.74 0 0 0 13.16 11.707"/>
        <path fill="#F3F2F2" d="M112.496 301.223a139.826 139.826 0 0 1-21.088-12.496h29.413a38.12 38.12 0 0 1-8.325 12.496m-17.306-.291a147.411 147.411 0 0 1-13.852-9.672 148.74 148.74 0 0 1-13.16-11.707 146.083 146.083 0 0 1-3.288-3.41 147.39 147.39 0 0 0 9.36 9.117 147.38 147.38 0 0 0 20.94 15.672m25.78-40.535H62.085a140.398 140.398 0 0 1-6.535-9.212 38.233 38.233 0 0 1 14.964-11.672h30.233a38.225 38.225 0 0 1 20.223 20.884"/>
        <path fill="#92BFD3" d="M100.747 239.513H70.514a37.77 37.77 0 0 1 15.114-3.137 37.81 37.81 0 0 1 15.119 3.137"/>
        <path fill="#D1E6E8" d="M120.82 288.727H91.409a140.686 140.686 0 0 1-29.323-28.33h58.885a37.798 37.798 0 0 1 2.665 13.98c0 5.075-1 9.92-2.814 14.35M74.25 285.26a147.39 147.39 0 0 1-9.36-9.117 147.091 147.091 0 0 1-6.363-7.282A150.565 150.565 0 0 0 74.25 285.26"/>
        <path fill="#D1E8ED" d="M105.52 306.74a148.737 148.737 0 0 1-10.33-5.808 147.38 147.38 0 0 1-20.94-15.672 150.565 150.565 0 0 1-15.723-16.399 149.685 149.685 0 0 1-7.548-10.073 38.08 38.08 0 0 1 4.571-7.603 140.686 140.686 0 0 0 35.858 37.542 139.826 139.826 0 0 0 21.088 12.496 38.3 38.3 0 0 1-6.976 5.517"/>
        <path fill="#FFFFFE" d="M114.429 268.325c0 19.458-15.777 35.232-35.239 35.232-19.462 0-35.238-15.774-35.238-35.232s15.776-35.232 35.238-35.232 35.239 15.774 35.239 35.232"/>
        <path fill="#E4F2F9" d="M79.19 235.861c-17.903 0-32.469 14.563-32.469 32.464 0 17.9 14.566 32.462 32.469 32.462 17.904 0 32.47-14.562 32.47-32.462 0-17.9-14.566-32.464-32.47-32.464zm0 70.464c-20.958 0-38.007-17.047-38.007-38 0-20.954 17.049-38 38.007-38s38.008 17.046 38.008 38c0 20.953-17.05 38-38.008 38z"/>
        <path fill="#7461FF" d="M102.128 255.794a3.706 3.706 0 0 0-1.076-5.13l-.665-.435a3.708 3.708 0 0 0-5.133 1.076l-17.197 26.323a.975.975 0 0 1-1.568.088L65.766 264.75a3.708 3.708 0 0 0-5.22-.495l-.613.507a3.707 3.707 0 0 0-.494 5.218l13.909 16.82c2.363 2.857 6.82 2.607 8.849-.498l19.931-30.508"/>
        <path fill="#D1E6E8" d="M142.06 112.91h-3.05c-.511-5.873-3.282-13.813-7.946-21.944-4.827 7.056-7.27 15.451-6.613 21.944h-3.11c-.663-7.574 2.237-17.105 7.961-24.879-3.084-4.915-6.842-9.82-11.193-14.298-5.085-5.237-12.981-11.865-22.726-15.133a138.298 138.298 0 0 1 3.238-2.096c7.515 2.962 14.957 8.12 21.71 15.073 4.11 4.231 7.824 9.017 10.974 13.944 3.104-3.594 6.865-6.666 11.197-8.784 4.223-2.065 8.68-3.1 13.323-3.1 2.913 0 5.898.407 8.946 1.222 5.784 1.548 11.695 4.568 17.665 9.016a97.024 97.024 0 0 0-2.119 2.262c-9.471-7.017-17.637-9.42-24.379-9.42-4.743 0-8.783 1.19-12.076 2.8-4.217 2.062-7.866 5.177-10.83 8.814 5.155 8.734 8.469 17.67 9.029 24.579M133.557 125.458c-.89 0-1.875-.102-2.964-.329-5.122-1.067-8.376-5.109-9.163-11.379a22.68 22.68 0 0 1-.089-.84h3.11c.015.153.032.305.05.456.431 3.434 1.947 7.738 6.724 8.734a11.44 11.44 0 0 0 2.318.263c2.12 0 3.601-.805 4.496-2.432.919-1.669 1.227-4.087.971-7.021h3.05c.279 3.426-.12 6.354-1.308 8.513-1.074 1.952-3.166 4.035-7.195 4.035"/>
        <path fill="#D1E8ED" d="M95.383 58.6c-3.484-1.168-7.205-1.908-11.118-2 1.27-.954 2.56-1.882 3.859-2.792 2.356.29 4.72.785 7.09 1.506 1.136.346 2.272.743 3.407 1.19-1.09.684-2.17 1.383-3.238 2.096M180.318 86.137a93.246 93.246 0 0 1 2.118-2.262h.002l-2.12 2.262"/>
        <path fill="#A2C7E0" d="M53.003 112.91h-5.457a138.63 138.63 0 0 1 3.452-6.512c.469 1.95 1.152 4.144 2.005 6.512"/>
        <path fill="#F3F2F2" d="M77.88 161.97H63.364c-8.694-6.352-18.032-14.322-26.032-21.523.184-.72.371-1.432.566-2.149H64.61c4.601 8.833 9.481 17.386 13.27 23.672"/>
        <path fill="#D1E6E8" d="M64.61 138.298H37.898a138.93 138.93 0 0 1 9.648-25.388h5.457c2.668 7.409 6.998 16.54 11.607 25.388M80.855 172.314c-.25 0-.511-.05-.774-.162-4.796-2.04-10.597-5.71-16.717-10.182H77.88c1.833 3.04 3.41 5.548 4.576 7.302.91 1.369-.166 3.042-1.601 3.042"/>
        <path fill="#D1E8ED" d="M37.332 140.447a575.642 575.642 0 0 1-6.685-6.116 146.557 146.557 0 0 1 3.401-10.405l6.32 1.002a59.49 59.49 0 0 1-2.956-9.319 148.912 148.912 0 0 1 2.24-4.883c.582 4.04 1.649 8.085 3.206 12.084l5.36-18.656c.17-.589.73-.898 1.258-.898.494 0 .96.27 1.052.835.117.724.275 1.494.47 2.307a138.93 138.93 0 0 0-13.666 34.05"/>
        <path fill="#32327B" d="M134.438 105.075c-1.19 2.166-3.42 2.875-6.814 2.168-4.776-.995-6.293-5.299-6.723-8.733-.822-6.552 1.62-15.178 6.562-22.4 6.995 12.194 9.73 23.956 6.975 28.965zm26.732-45.071c-7.905-2.116-15.396-1.484-22.269 1.876-4.332 2.119-8.093 5.191-11.197 8.784-3.15-4.927-6.864-9.712-10.974-13.944-7.772-8.002-16.456-13.626-25.116-16.262-10.345-3.15-20.6-2.183-30.475 2.875C46.945 50.6 36.92 63.209 33.637 77.925c-2.345 10.505-1.223 21.516 3.13 32.147l-19.099-3.028c-1.341-.213-2.166 1.42-1.194 2.369 10.032 9.792 42.071 40.255 60.006 47.883 1.775.754 3.443-1.274 2.375-2.88-7.09-10.66-29.337-49.215-31.928-65.18-.19-1.17-1.982-1.078-2.31.061l-5.36 18.656c-3.799-9.754-4.734-19.79-2.599-29.354 3.083-13.815 12.52-25.665 25.892-32.512 22.978-11.765 42.416 2.963 51.958 12.79 4.351 4.479 8.11 9.383 11.193 14.299-5.938 8.064-8.837 18.02-7.872 25.719.787 6.27 4.04 10.31 9.164 11.378 6.018 1.256 8.847-1.323 10.158-3.706 3.582-6.512-.008-20.027-7.72-33.092 2.965-3.638 6.614-6.753 10.83-8.814 9.534-4.662 25.314-5.8 46.351 15.248l2.19-2.187c-9.347-9.352-18.644-15.314-27.632-17.718z"/>
    </g>
</svg>
