<svg xmlns="http://www.w3.org/2000/svg" xmlns:xlink="http://www.w3.org/1999/xlink" width="250" height="175" viewBox="0 0 250 175">
    <defs>
        <path id="a" d="M.102.087h11.054V13.25H.102z"/>
    </defs>
    <g fill="none" fill-rule="evenodd">
        <path fill="#F0F8FD" d="M115.623 21.197s-4.459-7.898-9.438-8.184c-4.875-.281-7.812 2.525-12.16 2.114-3.062-.29-5.52-3.642-10.785-3.608-5.131.033-7.835-7.251-14.414-7.251-8.047 0-11.286 4.426-15.272 6.924-3.695 2.314-5.975 3.172-11.631 1.54C34.333 10.542 29 21.197 29 21.197h86.623M182.17 29.052c-7.247 1.62-9.046-5.052-14.803-5.052-4.934 0-6.821 3.838-10.808 5.451-3.694 1.494-5.504.772-11.16-.282-7.591-1.414-9.399 6.744-9.399 6.744h56.86s-5.552-8.01-10.69-6.861"/>
        <path fill="#F3FAFF" d="M174.197 21.988l48.53-8.113c4.862-.813 9.29 2.936 9.29 7.867v124.026h-64.48V29.855a7.977 7.977 0 0 1 6.66-7.867"/>
        <path fill="#E4F2F9" d="M228.833 13.515l-2.88.482c3.432.848 6.064 3.944 6.064 7.745v124.026h6.107V21.382c0-4.93-4.428-8.68-9.291-7.867M176.272 28.988l45.104-7.932a3.901 3.901 0 0 1 4.577 3.841v120.964h-52.31l-.596-113.01a3.902 3.902 0 0 1 3.225-3.863"/>
        <path fill="#FFFFFE" d="M217.183 42.404l-36.56 4.997a1.3 1.3 0 0 1-1.475-1.289v-8.384c0-.65.48-1.2 1.124-1.289l36.559-4.996a1.3 1.3 0 0 1 1.476 1.289v8.384c0 .65-.48 1.2-1.124 1.288M217.154 59.622l-36.558 4.176a1.3 1.3 0 0 1-1.448-1.292v-8.392a1.3 1.3 0 0 1 1.152-1.292l36.56-4.175a1.3 1.3 0 0 1 1.447 1.292v8.392a1.3 1.3 0 0 1-1.153 1.291M217.142 76.356l-36.559 3.818a1.3 1.3 0 0 1-1.435-1.293v-8.394a1.3 1.3 0 0 1 1.165-1.294l36.559-3.818a1.3 1.3 0 0 1 1.435 1.293v8.394c0 .666-.503 1.224-1.165 1.294"/>
        <path fill="#75E5AA" d="M190.03 56.49l-42.303 4.832a1.505 1.505 0 0 1-1.676-1.495v-9.71c0-.766.574-1.409 1.334-1.495l42.304-4.833a1.505 1.505 0 0 1 1.676 1.496v9.71c0 .765-.574 1.408-1.334 1.495"/>
        <path fill="#7461FF" d="M195.034 76.692l-39.996 4.178c-.84.088-1.571-.57-1.571-1.415v-9.184c0-.728.55-1.339 1.275-1.415l39.997-4.177c.84-.088 1.57.57 1.57 1.415v9.184c0 .728-.55 1.339-1.275 1.414"/>
        <path fill="#FFFFFE" d="M217.111 93.617l-36.558 2.955a1.3 1.3 0 0 1-1.405-1.296v-8.4a1.3 1.3 0 0 1 1.196-1.297l36.558-2.955a1.3 1.3 0 0 1 1.405 1.296v8.4a1.3 1.3 0 0 1-1.196 1.297"/>
        <path fill="#61E3F0" d="M226.921 89.664l-40.042 3.237a1.424 1.424 0 0 1-1.538-1.42v-9.2c0-.742.57-1.36 1.309-1.42l40.041-3.236c.83-.067 1.54.587 1.54 1.42v9.2c0 .742-.57 1.36-1.31 1.42"/>
        <path fill="#FFFFFE" d="M217.072 111.152l-36.56 1.826a1.3 1.3 0 0 1-1.364-1.299v-8.406a1.3 1.3 0 0 1 1.235-1.298l36.559-1.825a1.301 1.301 0 0 1 1.365 1.299v8.405a1.3 1.3 0 0 1-1.235 1.298"/>
        <path fill="#F3FAFF" d="M19.157 145.652v-113.1a5.143 5.143 0 0 1 6-5.07l108.793 18.92a5.207 5.207 0 0 1 4.315 5.13v94.329l-119.108-.21z"/>
        <path fill="#75E5AA" d="M75.346 84.195v38.497a3.97 3.97 0 0 0 3.948 3.97l49.13.256a3.969 3.969 0 0 0 3.988-4.085l-1-34.034a3.969 3.969 0 0 0-3.58-3.833l-48.13-4.72a3.969 3.969 0 0 0-4.356 3.95"/>
        <path fill="#F5FAF8" d="M90.942 73.057v38.302a4.065 4.065 0 0 0 3.99 4.064l51.073.948a4.065 4.065 0 0 0 4.139-4.185l-.994-33.828a4.066 4.066 0 0 0-3.626-3.923l-50.079-5.42a4.065 4.065 0 0 0-4.503 4.042"/>
        <path fill="#FFFFFE" d="M35.443 75.237l25.323 2.11a5.228 5.228 0 0 1 4.794 5.21v4.949a5.229 5.229 0 0 1-5.557 5.218L34.68 91.13a5.229 5.229 0 0 1-4.9-5.218v-5.463a5.228 5.228 0 0 1 5.663-5.21"/>
        <path fill="#7461FF" d="M35.275 95.872l25.378 1.436a5.202 5.202 0 0 1 4.907 5.194v5.019a5.201 5.201 0 0 1-5.39 5.197l-25.377-.92a5.2 5.2 0 0 1-5.013-5.198v-5.535a5.2 5.2 0 0 1 5.495-5.193"/>
        <path fill="#61E3F0" d="M124.31 61.732L32.321 48.01a2.707 2.707 0 0 1-2.307-2.662l-.008-1.485a2.706 2.706 0 0 1 3.105-2.692l91.962 13.72a2.706 2.706 0 0 1 2.306 2.614l.034 1.49a2.706 2.706 0 0 1-3.105 2.738M65.008 59.476L31.61 54.958a1.615 1.615 0 0 0-1.83 1.631l.016.886a1.615 1.615 0 0 0 1.398 1.57l33.334 4.509a1.628 1.628 0 0 0 1.845-1.535l.042-.85a1.628 1.628 0 0 0-1.408-1.693"/>
        <path fill="#E4F2F9" d="M19.157 145.385V32.553a5.133 5.133 0 0 1 2.676-4.51l-3.222-.56a5.143 5.143 0 0 0-6 5.07v112.823l6.546.01"/>
        <path fill="#75E5AA" d="M101.073 76.797a1.073 1.073 0 0 0-1.072 1.071v5.271c0 .571.448 1.04 1.018 1.07l4.92.245c.3.015.578-.09.792-.294.214-.204.333-.48.333-.776v-4.986a1.07 1.07 0 0 0-.957-1.065l-4.92-.53-.114-.006zm4.922 8.117l-.078-.002-4.92-.245a1.53 1.53 0 0 1-1.454-1.528v-5.27a1.53 1.53 0 0 1 1.693-1.522l4.92.53a1.527 1.527 0 0 1 1.366 1.521v4.986c0 .424-.168.817-.475 1.109a1.514 1.514 0 0 1-1.052.421zM105.955 108.531l-4.921-.145a1.3 1.3 0 0 1-1.262-1.3V102.2a1.3 1.3 0 0 1 1.37-1.3l4.92.267a1.3 1.3 0 0 1 1.231 1.298v4.766a1.3 1.3 0 0 1-1.338 1.3M113.012 101.435a1.06 1.06 0 0 0-.735.293c-.215.205-.334.48-.334.778v4.886c0 .583.457 1.053 1.04 1.07l4.92.145a1.072 1.072 0 0 0 1.103-1.07v-4.766c0-.57-.446-1.04-1.014-1.07l-4.92-.265-.06-.001zm4.924 7.632h-.047l-4.92-.146a1.522 1.522 0 0 1-1.485-1.53v-4.885c0-.424.17-.819.477-1.11a1.507 1.507 0 0 1 1.135-.418l4.92.265a1.53 1.53 0 0 1 1.448 1.528v4.766c0 .418-.164.807-.464 1.098-.288.28-.664.432-1.064.432zM129.632 109.143l-4.921-.145a1.3 1.3 0 0 1-1.262-1.3v-4.887a1.3 1.3 0 0 1 1.37-1.298l4.92.265a1.3 1.3 0 0 1 1.231 1.298v4.767a1.3 1.3 0 0 1-1.338 1.3M141.374 109.22c.291.011.568-.1.777-.303.21-.203.326-.476.326-.768v-4.767a1.07 1.07 0 0 0-1.014-1.07l-4.92-.265a1.065 1.065 0 0 0-.795.293c-.215.204-.334.48-.334.777v4.887c0 .583.457 1.053 1.04 1.07l4.92.145zm.033.458h-.046l-4.921-.145a1.522 1.522 0 0 1-1.484-1.53v-4.886c0-.424.17-.818.477-1.11a1.503 1.503 0 0 1 1.134-.418l4.921.266a1.529 1.529 0 0 1 1.447 1.527v4.767c0 .417-.164.807-.464 1.097-.288.28-.665.432-1.064.432zM105.955 96.72l-4.921-.145a1.3 1.3 0 0 1-1.262-1.3v-4.887a1.3 1.3 0 0 1 1.37-1.298l4.92.265a1.3 1.3 0 0 1 1.231 1.299v4.766a1.3 1.3 0 0 1-1.338 1.3M117.69 97.864l-4.92-.145a1.3 1.3 0 0 1-1.262-1.3v-4.886c0-.745.625-1.338 1.37-1.299l4.92.266a1.3 1.3 0 0 1 1.23 1.298v4.767a1.3 1.3 0 0 1-1.338 1.3M129.432 97.94a1.05 1.05 0 0 0 .778-.301c.21-.204.325-.477.325-.769v-4.766a1.07 1.07 0 0 0-1.013-1.07l-4.92-.264a1.07 1.07 0 0 0-1.13 1.069v4.886c0 .583.457 1.053 1.04 1.07l4.92.146zm.033.46h-.046l-4.92-.146a1.522 1.522 0 0 1-1.485-1.529V91.84c0-.424.17-.819.478-1.11a1.505 1.505 0 0 1 1.134-.418l4.92.266a1.529 1.529 0 0 1 1.448 1.527v4.766c0 .417-.165.807-.465 1.098-.287.28-.664.432-1.064.432zM141.168 98.247c.297.015.568-.099.777-.303.21-.203.326-.476.326-.768V92.41a1.07 1.07 0 0 0-1.014-1.07l-4.92-.265a1.067 1.067 0 0 0-.794.292c-.216.205-.335.48-.335.778v4.886c0 .583.457 1.053 1.04 1.07l4.92.146zm.033.459h-.046l-4.92-.146a1.523 1.523 0 0 1-1.485-1.529v-4.886c0-.424.17-.819.477-1.11.308-.292.713-.441 1.134-.418l4.92.266a1.529 1.529 0 0 1 1.448 1.527v4.766c0 .417-.165.807-.464 1.098-.288.28-.665.432-1.064.432zM113.012 78.117c-.274 0-.534.104-.734.294a1.06 1.06 0 0 0-.335.778v4.916c0 .57.445 1.039 1.013 1.07l4.92.264a1.071 1.071 0 0 0 1.13-1.069v-4.916c0-.57-.446-1.039-1.014-1.07l-4.92-.265-.06-.002zm4.926 7.783l-.086-.003-4.92-.264a1.529 1.529 0 0 1-1.448-1.528v-4.916c0-.424.17-.819.478-1.11a1.503 1.503 0 0 1 1.134-.418l4.92.265a1.53 1.53 0 0 1 1.448 1.528v4.916c0 .424-.17.819-.478 1.11a1.513 1.513 0 0 1-1.048.42zM129.369 86.179c.294.015.579-.088.794-.293.215-.204.334-.48.334-.777v-4.916c0-.57-.445-1.04-1.013-1.07l-4.92-.265a1.067 1.067 0 0 0-1.129 1.07v4.916c0 .57.445 1.039 1.014 1.07l4.92.265zm.06.46l-.085-.002-4.92-.265a1.53 1.53 0 0 1-1.447-1.528v-4.916c0-.425.169-.819.477-1.111a1.507 1.507 0 0 1 1.134-.417l4.92.265a1.53 1.53 0 0 1 1.448 1.528v4.916c0 .424-.17.819-.477 1.11-.288.273-.657.42-1.05.42zM140.852 87.474l-4.92-.25a1.3 1.3 0 0 1-1.234-1.3v-4.916a1.3 1.3 0 0 1 1.366-1.299l4.92.25a1.3 1.3 0 0 1 1.234 1.299v4.917a1.3 1.3 0 0 1-1.366 1.299"/>
        <path fill="#FFF" d="M154.836 54.09c0 1.717-1.148 3.11-2.564 3.11-1.417 0-2.565-1.393-2.565-3.11 0-1.718 1.148-3.11 2.565-3.11 1.416 0 2.564 1.392 2.564 3.11M162.556 74.335c0 1.879-1.257 3.402-2.806 3.402-1.55 0-2.806-1.523-2.806-3.402 0-1.879 1.256-3.402 2.806-3.402s2.806 1.523 2.806 3.402M193.93 86.41c0 1.717-1.149 3.109-2.565 3.109-1.417 0-2.565-1.392-2.565-3.11 0-1.717 1.148-3.109 2.565-3.109 1.416 0 2.564 1.392 2.564 3.11"/>
        <path fill="#D8DDE9" d="M12 146v-1h226v1zM0 146v-1h3v1zM5 146v-1h5v1zM247 146v-1h3v1zM240 146v-1h5v1z"/>
        <path fill="#D2E1E9" d="M210.419 40.598l33.18-4.41v1.047l-33.18 4.419zM196.31 53.41l27.373-2.964v1.185l-27.374 2.944zM200.751 70.741l6.321-.87v.97l-6.32.77zM205.471 73.21l7.027-.75v.985l-6.936.763z"/>
        <path fill="#27204E" d="M59.029 13.25c.965-.346 2.499-1.73 2.054-2.668-.444-.94-.35-3.405-.514-4.27-.163-.864-.399-3.071-.399-3.071L53.94 6.233l1.13 4.349 3.96 2.667"/>
        <path fill="#6957EE" d="M48.358 21.303l-.99 4.62a7.179 7.179 0 0 0 .22 3.823c.29.847.627 1.648.878 1.691.54.091 7.92 3.398 9.067 3.513 1.146.114 1.72-.115 1.72 1.032 0 1.146-.574 3.67 0 5.16.573 1.491 1.809 6.175 1.835 6.537.114 1.605 0 4.128 0 4.128l.058 2.389s.92.394 1.493.624c.07.028.111-.326.148-.68.045-.434.081-.869.154-.594.765 2.887 4.137 3.302 4.721 3.135.803-.23-.066-.596-.496-.975-3.04-2.676-2.585-5.078-2.638-6.001-.03-.528 0-2.944 0-4.205 0-1.261.849-9.333.596-10-.252-.665 1.239 2.775 1.354 4.037.114 1.261.891 7.902 1.49 8.677.65.841.377 3.279.525 4.203.147.925.172 3.097.172 3.097.116.023.919.114 1.588.187.18.02.17-.472.133-.963-.043-.569-.125-1.137-.001-.916 1.921 3.44 5.521 2.387 5.59 2.179.115-.344-3.182-1.319-4.128-4.616-.118-.412-.553-3.439-.553-3.439l-.742-12.068c-.053-1.687-.73-3.384-2.01-4.484-1.68-1.442-7.039-2.531-8.926-3.34a2.315 2.315 0 0 1-1.38-2.452c.312-2.23.866-5.883.902-6.517.04-.687.085-.654.149-.62.028.015.061.03.098-.023.506-.717.938-.637.497-2.496-.424-1.786-.916-3.875-2.332-4.735-.49-.298-5.751-1.032-6.898-.459a4.84 4.84 0 0 0-.203.108c-2.221 1.235-2.944 3.476-2.74 6.008.104 1.299.026 2.627.267 2.867.573.574.382 1.568.382 1.568"/>
        <path fill="#27283B" d="M71.847 51.385c-.073-.255-.268-1.515-.406-2.437-.972.315-2.019.453-3.09.457.135 1.051.041 2.383.142 3.012.147.925.172 3.097.172 3.097.116.023.919.114 1.588.187.18.02.17-.472.133-.963-.043-.569-.125-1.137-.001-.916 1.921 3.44 5.521 2.387 5.59 2.179.115-.344-3.182-1.319-4.128-4.616M61.088 51.807l.058 2.389s.92.394 1.493.624c.07.028.111-.326.148-.68.045-.434.081-.869.154-.594.765 2.887 4.137 3.302 4.721 3.135.803-.23-.066-.596-.496-.975-3.04-2.676-2.585-5.078-2.638-6.001a16.69 16.69 0 0 1-.013-.74 29.202 29.202 0 0 1-3.408-.97c.081 1.6-.02 3.812-.02 3.812"/>
        <path fill="#E4A62D" d="M51.106 47.972l-.018-.293c-.012-.162-.268-1.198-.599-2.425.33 1.227.587 2.263.599 2.425l.018.293"/>
        <path fill="#5F4DE2" d="M62.93 48.569l-1.823-.574-.001-.023a13.31 13.31 0 0 0-.018-.293c-.012-.162-.268-1.198-.599-2.425-.404-1.502-.92-3.291-1.236-4.112-.192-.498-.255-1.11-.255-1.75 0-1.272.255-2.647.255-3.41 0-1.147-.574-.918-1.72-1.032-1.147-.115-8.527-3.422-9.067-3.513-.25-.043-.588-.844-.878-1.691a7.12 7.12 0 0 1-.381-2.304c0-.508.054-1.018.16-1.52l.991-4.62s.177-.369-.003-.784l.385.364c-.401 2.81-.496 4.721.364 6.384.86 1.663 3.67 3.096 5.218 3.211 1.548.115 2.465 1.778 3.153 2.523.688.745 2.982.917 3.613 1.606.63.688 1.548 3.497 1.318 4.357-.229.86-.802 3.842-.458 5.276.344 1.433.982 4.33.982 4.33"/>
        <path fill="#E4A62D" d="M58.351 49.405c-.057-.446-.155-.841-.327-1.111.172.27.27.665.328 1.11M58.013 48.279l-.003-.004.003.004m-.014-.02c0-.002-.002-.003-.003-.004l.003.004m-.005-.007l-.002-.003.002.003m-.004-.006l-.002-.003.002.003m-.004-.006l-.004-.005.004.005m-.006-.008l-.003-.003.003.003M57.972 48.22c0-.002-.002-.004-.004-.006-.176-.229-.368-.967-.555-1.927.187.96.379 1.698.555 1.927l.004.006"/>
        <path fill="#5F4DE2" d="M68.352 49.405c-.058-.446-.156-.841-.328-1.111a.22.22 0 0 0-.009-.014v-.002c-.002 0-.003-.002-.004-.004l-.001-.002-.003-.004-.001-.002A.067.067 0 0 1 68 48.26L68 48.258c0-.002-.002-.003-.003-.004 0-.001 0-.002-.002-.003l-.002-.003-.002-.003-.002-.003-.002-.003-.004-.005-.002-.003-.003-.003-.001-.003a.01.01 0 0 1-.003-.003l-.002-.002c0-.002-.002-.004-.004-.006-.176-.229-.368-.967-.555-1.927-.445-2.296-.855-5.86-.935-6.75a2.985 2.985 0 0 0-.028-.21l-.001-.005-.001-.005v-.003l-.002-.004v-.003l-.001-.005V39.3c-.166-.94-.806-2.6-1.14-3.408a12.71 12.71 0 0 0-.181-.422c-.005-.152-.032-1.08-.137-1.553-.115-.516-2.466-2.236-3.9-2.981 0 0 1.835.63 2.696.63.86 0 2.121 1.147 2.867 2.039.745.892.573 1.517 1.34 2.377.768.86.724 2.465.666 4.188-.057 1.723.23 4.929.516 6.19.286 1.257 1.131 2.858 1.138 2.872l-1.958.173"/>
        <g transform="translate(49.413)">
            <mask id="b" fill="#fff">
                <use xlink:href="#a"/>
            </mask>
            <path fill="#C7BA8C" d="M9.91 2.712c.703.63.875 1.239.81 1.886-.064.647-.37.84-.057 1.981.344 1.256-.97 2.983-1.263 3.242-.294.259-1.949.265-2.919.007-.97-.26.582-6.08 1.358-6.792.777-.712 2.07-.324 2.07-.324" mask="url(#b)"/>
            <path fill="#27204E" d="M.245 10.14c1.724 1.569 4.4 3.44 5.41 3.059 1.012-.382 1.853-4.97 2.388-6.27.535-1.3 1.453-2.752 1.988-2.752.535 0 1.414-1.185 1.032-2.102C10.68 1.157 8.923.087 7.278.087 6.184.087 4.144.89 3.15 2.801 2.156 4.712-.545 9.42.245 10.14" mask="url(#b)"/>
        </g>
        <path fill="#C7BA8C" d="M58.68 18.665c.705-.223.994-.58.994-.58s.304 4.55.472 5.11c.168.56 2.784 4.931 2.784 4.931l-2.125.352s-2.098-3.379-2.37-4.302c-.272-.924-.753-5.11-.57-5.339.184-.23.814-.172.814-.172"/>
        <path fill="#202228" d="M48.289 26.49a2.122 2.122 0 0 1-.052-.888l.006-.039c.01.37.01.687.042.904 0 .007.002.015.004.022"/>
        <path fill="#5F4DE2" d="M54.376 26.828h-.604c-1.137-.866-2.5-2.006-2.704-2.39-.263-.499-1.43-3.638-2-4.782-.437-.98-.696-2.923-1.27-4.24 0 0 .862.534 1.644.994.783.46.246 3.076 1.109 3.248.862.172.584 2.83 1.261 3.059.677.23 2.107.487 2.294 1.415.1.499.124 1 .135 1.431a2.307 2.307 0 0 0 .042.926c.014.09.048.206.093.339"/>
        <path fill="#27204E" d="M51.799 26.828h7.432l7.434 3.362-8.68-.105-6.186-2.905v-.352"/>
        <path fill="#C7BA8C" d="M49.925 20.844c-.583-.834 2.6-1.605 2.867-1.605.268 0 1.953 4.587 2.276 5.198.324.612 3.572 3.128 4.193 3.426.621.297 1.062 1.773 1.062 1.773s-1.99-.23-2.773-.459c-.782-.23-3.764-1.644-4.414-2.064-.65-.42-2.943-5.886-3.21-6.269"/>
        <path fill="#1B1D21" d="M48.822 29.454c-.478-.082-.962-.179-1.266-.276.304.097.788.194 1.266.276"/>
        <path fill="#9D8036" d="M59.524 29.534c-.217-.03-.458-.065-.702-.103-.478-.075-.962-.164-1.266-.253h-.006c-.782-.23-3.764-1.645-4.414-2.065-.65-.42-2.943-5.886-3.21-6.269l-.004-.005v-.001l-.004-.005a.01.01 0 0 1-.003-.005c-.002-.002-.003-.003-.003-.005l-.001-.001-.002-.004-.002-.001-.001-.004-.001-.002-.003-.003v-.002l-.002-.003-.001-.002-.003-.004-.002-.005v-.001a.208.208 0 0 1-.01-.02h-.001l-.002-.006-.002-.005-.002-.005v-.001l-.002-.004v-.001a.014.014 0 0 1-.002-.005.032.032 0 0 1-.002-.005c-.138-.413.592-.802 1.359-1.081.634 1.153 1.14 2.59 1.314 3.766.23 1.548.917 2.36 2.007 3.043 1.09.684 5.046 2.691 5.046 2.691l-.073.376"/>
        <path fill="#27204E" d="M57.653 29.544l3.531-7.515a.962.962 0 0 1 .888-.553l7.56.128c.398.007.665.413.512.782l-3.103 7.48a.793.793 0 0 1-.758.488l-8.299-.27a.38.38 0 0 1-.331-.54"/>
        <path fill="#C7BA8C" d="M163.208 166.314c-.459 2.351-1.09 5.16-1.262 5.792-.172.63.574.573 2.237.974 1.662.402 5.504.975 5.734.631.229-.344-2.447-1.49-3.001-1.663-.555-.172-1.816-.86-1.873-1.548-.058-.688-.058-3.44-.058-3.44l-1.777-.746M177.485 167.92c.172 1.261.516 5.332.459 5.619-.057.287.286.975.745.803.459-.172 7.569-.19 7.798-.525.23-.335-.4-1.31-1.089-1.195-.688.114-3.995-.689-4.415-.746-.42-.057-.86-4.644-.86-4.644l-2.638.688"/>
        <path fill="#32327B" d="M163.836 133.077l-1.162 4.478a9.303 9.303 0 0 0-.018 4.611c.692 2.746 1.177 7.342.972 9.603-.306 3.364-1.682 15.253-1.682 15.253l3.9 1.222s3.516-14.066 3.669-16.055c.153-1.987 2.37-17.469 2.37-17.469l-8.05-1.643"/>
        <path fill="#202228" d="M165.845 168.244s3.517-14.066 3.67-16.055c.053-.689.354-3.002.725-5.728-.37 2.727-.672 5.039-.725 5.728-.153 1.989-3.67 16.055-3.67 16.055"/>
        <path fill="#28296E" d="M165.845 168.244l-.294-.092c.062-3.78.311-6.224-.012-9.808-.382-4.243 1.07-7.454 1.377-9.289.306-1.835-.994-2.408-1.377-4.472-.28-1.51.213-4 .498-5.23.176 1.127.411 2.18.726 2.898.57 1.303 2.137 2.952 3.477 4.21-.37 2.726-.672 5.039-.725 5.728-.153 1.989-3.67 16.055-3.67 16.055"/>
        <path fill="#32327B" d="M165.539 133.497l8.716-.42s5.505 15.749 5.657 16.666c.153.918 1.835 17.89 1.835 17.89s-5.198 1.988-5.81 1.376c-.612-.611-.765-11.468-1.223-13.15-.32-1.174-1.312-3.028-1.881-4.04a3.234 3.234 0 0 1-.413-1.587v-.643c0-.763-.333-1.486-.91-1.986-1.395-1.206-3.979-3.595-4.747-5.352-1.07-2.447-1.224-8.754-1.224-8.754"/>
        <path fill="#202228" d="M176.403 169.126c-.221 0-.385-.035-.466-.117-.612-.611-.765-11.468-1.223-13.15-.32-1.174-1.312-3.028-1.881-4.04.57 1.012 1.56 2.866 1.88 4.04.46 1.682.612 12.539 1.224 13.15.081.082.244.117.466.117.308 0 .73-.068 1.2-.176-.471.108-.892.176-1.2.176"/>
        <path fill="#9D8036" d="M177.603 168.986"/>
        <path fill="#202228" d="M172.42 149.59c0-.764-.91-1.987-.91-1.987.577.5.91 1.223.91 1.986"/>
        <path fill="#28296E" d="M176.403 169.126c-.222 0-.385-.035-.466-.117-.612-.611-.765-11.468-1.223-13.15-.32-1.174-1.312-3.028-1.881-4.04a3.234 3.234 0 0 1-.413-1.587v-.643c0-.763-.333-1.486-.91-1.986 0 0 2.936 1.109 3.051 3.498.114 2.39 2.867 9.766 3.326 11.027.369 1.017.962 4.94 1.179 6.424a21.5 21.5 0 0 1-1.463.398c-.47.108-.892.176-1.2.176"/>
        <path fill="#C7BA8C" d="M159.71 121.914c-.917 2.523-.899 4.511-1.051 5.2-.153.687 3.134 4.663 4.969 5.121 1.835.459 1.53-2.102 1.53-2.102s-2.892-2.5-3.383-3.036c-.492-.535.59-3.274.59-3.274l-2.655-1.909"/>
        <path fill="#8CD9F2" d="M164.584 112.495c-1.873.474-2.638 2.348-3.861 5.788-1.223 3.44-1.758 3.631-1.758 3.631l3.287 2.523 1.87-2.981.462-8.96"/>
        <path fill="#C7BA8C" d="M179.148 110.446l5.16-3.975 2.18-10.36v-2.828c0-.612.611-3.25.802-3.288.191-.038.612.803.535 1.262-.076.459-.305 1.758-.23 1.873.077.114 1.11 1.376 1.3 1.835.192.458.039 1.644 0 1.95-.038.305-.458 1.437-.496 1.922-.038.485-.841 8.284-.956 8.59-.115.306-5.39 5.198-6.384 5.58-.993.383-1.91-2.56-1.91-2.56"/>
        <path fill="#9DE6FF" d="M165.278 112.261c-.828.134-1.769.709-2.3 1.358-1.322 1.62-1.032 3.723-1.032 5.581 0 2.294 1.07 9.213 1.166 10.78.096 1.567-.335 3.404.325 3.65.66.248 3.937.44 4.931.44.994 0 5.97-.264 6.499-1.261.325-.612-.535-7.607-.612-8.525-.077-.917-.65-6.307-.611-6.498.038-.191 4.47-1.986 5.217-2.504 1.148-.796 2.786-1.844 2.886-1.892l-2.37-3.632s-2.342 1.29-3.708 1.95c-1.108.535-6.46-.038-6.842 0-.247.025-2.197.336-3.55.553"/>
        <path fill="#C7BA8C" d="M168.066 101.277c.633 1.85 1.668 2.867 2.124 2.92.455.054.358 1.301.057 1.71-.3.41-.084 1.948-.73 2.546-.644.598-1.488.393-1.532 1.086-.044.695.004 2.352.078 2.776.092.53-1.263.78-1.715.846-.45.065-1.188-.587-1.235-1.004-.046-.417.334-2.804.397-3.021.063-.218-1.767-2.437-1.904-2.91-.139-.472-.492-1.556-.167-2.404.325-.849.958-2.353 1.85-2.723.894-.37 2.777.178 2.777.178"/>
        <path fill="#27204F" d="M168.47 99.714c.303.543.355 2.062-.117 2.198-.471.136-.677.688-1.017.85-.774.373 1.066 1.564 1.319 1.912.252.348.524 1.287.852 1.106.329-.18 1.023-.806 1.027-.503.004.302.6 1.185.65 1.462.05.276-.16 1.286-.56 1.777-.558.688-1.847 1.136-2.639 1.023-.792-.111.063-2.998-.02-3.15-.085-.153-.16-1.428-.59-1.715-.299-.198-.59-.316-.836-.057-.153.161.516 1.789.853 1.73.487-.086.439.58.237 1.022-.178.392-1.584 1.411-2.119 1.767-.535.355-.967-.32-1.334-.545-.367-.224-.596-1.194-.823-1.495-.226-.302-.643-1.468-1.019-1.992-.374-.524-.626-1.56-.544-1.978.381-1.95 1.72-2.752 2.485-2.869.503-.076.492-.907 1.27-1.23 1.018-.423 2.477-.115 2.925.687"/>
        <path fill="#9DE6FF" d="M164.186 111.875l-.469.988s1.262 1.292 2.88.909c1.618-.382 2.88-1.72 2.88-1.72l-.657-.605a.666.666 0 0 0-.892-.011c-.45.393-1.163.92-1.739.884-.456-.03-.857-.307-1.145-.576a.56.56 0 0 0-.858.131"/>
        <path fill="#27204F" d="M162.718 168.704c-.336 1.582-.657 2.98-.772 3.402-.172.63.574.573 2.237.974 1.662.402 5.504.975 5.734.631.229-.344-2.447-1.49-3.001-1.663-.555-.172-1.816-.86-1.873-1.548a25.555 25.555 0 0 1-.043-1.374l-2.282-.422M177.73 170.28c.134 1.496.249 3.084.214 3.259-.057.287.287.975.745.803.46-.172 7.57-.19 7.799-.525.229-.335-.402-1.31-1.09-1.195-.688.114-3.995-.689-4.415-.746-.194-.026-.391-1.011-.548-2.068l-2.705.472"/>
        <path fill="#8CD9F2" d="M174.867 132.809c.325-.612-.535-7.607-.612-8.525-.077-.917-.65-6.307-.611-6.498.038-.191 4.47-1.986 5.217-2.504a79.636 79.636 0 0 1 2.811-1.848l-.29-.605s-1.012 1.44-1.775 1.006c-.764-.435-2.523 1.122-3.44 1.352-.918.23-1.989.917-2.523 1.452-.536.535-1.76.077-3.141.688-1.383.612 1.153 2.37 1.007 4.205-.146 1.835.222 3.746.375 4.893.153 1.147 2.447 1.835 1.759 7.036.617-.17 1.08-.385 1.223-.652"/>
        <path fill="#DDEDEE" d="M168.255 109.557c.789-.003 1.87-.426 2.37-1.04.36-.445.566-1.31.566-1.678 0 .368-.206 1.233-.566 1.677-.5.615-1.581 1.038-2.37 1.04m-.248-.013l-.009-.002.01.002"/>
        <path fill="#B09E66" d="M167.985 109.54c-.255-.036-.34-.36-.34-.789 0 .428.085.753.34.788m-2.475-.403c.535-.356 1.941-1.375 2.119-1.767l.02-.044-.02.044c-.178.392-1.584 1.411-2.119 1.767m2.14-1.818c.002-.001.002-.003.003-.005l-.002.005m.32-.888a.097.097 0 0 0-.007-.041c-.084-.153-.16-1.428-.59-1.715l-.012-.007.012.007c.43.287.506 1.562.59 1.715a.097.097 0 0 1 .006.041m-.597-.082h-.01.01m-.043-.008c-.184-.062-.431-.49-.605-.906.174.416.421.844.605.906m.145-.001h-.002.002m-.114-1.673l-.009-.006.01.006m-.024-.015l-.012-.008.012.008m-.805-.025l.006-.009-.006.01m.016-.02l.01-.01-.01.01m.32-.139h-.007.007"/>
        <path fill="#26253D" d="M168.245 109.557c-.083 0-.162-.005-.238-.014l-.009-.002c-.004 0-.009 0-.013-.002-.255-.035-.34-.36-.34-.788.001-.835.324-2.065.325-2.32a.097.097 0 0 0-.006-.042c-.084-.153-.16-1.428-.59-1.715l-.012-.007-.01-.007a.248.248 0 0 0-.026-.017c-.157-.1-.31-.172-.457-.175H166.856a.422.422 0 0 0-.289.122l-.008.007-.01.01-.01.01-.006.01c-.055.09.04.443.192.807.174.416.421.844.605.906a.122.122 0 0 0 .062.007.466.466 0 0 1 .08-.008h.003c.38.002.347.561.178.974l-.002.005-.003.007-.02.044c-.177.392-1.583 1.411-2.118 1.767l-.016.01a.548.548 0 0 1-.294.091h-.001-.002c-.345-.001-.645-.358-.91-.567l-.024-.018a.454.454 0 0 0-.029-.021l-.003-.003a.042.042 0 0 1-.008-.006l-.012-.007a.289.289 0 0 0-.018-.013l-.012-.008c-.002 0-.003-.002-.005-.003-.11-.067-.206-.203-.295-.366l.092.002c.815 0 1.854-.355 1.795-.877-.076-.688-.688-2.102-.343-2.638.308-.479.904-.896 1.336-.896a.56.56 0 0 1 .143.017c.432.115 1.846 1.644 1.923 1.95.076.306.115 1.261.65 1.452.054.02.11.029.165.029.465 0 .952-.618 1.478-.702a.9.9 0 0 1 .064.177.568.568 0 0 1 .007.1c0 .368-.206 1.233-.566 1.677-.5.615-1.581 1.038-2.37 1.04h-.01"/>
    </g>
</svg>
