<svg xmlns="http://www.w3.org/2000/svg" width="250" height="200" viewBox="0 0 250 200">
    <g fill="none" fill-rule="evenodd">
        <path fill="#F0F8FD" d="M247.623 125.984s-4.459-7.899-9.438-8.185c-4.875-.28-7.812 2.526-12.16 2.115-3.062-.29-5.52-3.642-10.785-3.608-5.131.033-7.835-7.252-14.414-7.252-8.047 0-11.286 4.427-15.272 6.924-3.695 2.314-5.975 3.173-11.631 1.54-7.59-2.19-12.923 8.466-12.923 8.466h86.623M108.623 106.053s-4.459-7.899-9.438-8.185c-4.875-.28-7.812 2.526-12.16 2.115-3.062-.29-5.52-3.642-10.785-3.608-5.131.032-7.835-7.252-14.414-7.252-8.047 0-11.286 4.427-15.272 6.924-3.695 2.314-5.975 3.173-11.631 1.54-7.59-2.19-12.923 8.466-12.923 8.466h86.623M116.17 5.488c-7.247 1.621-9.046-5.052-14.803-5.052-4.934 0-6.821 3.838-10.808 5.451-3.694 1.494-5.504.772-11.16-.282C71.807 4.191 70 12.35 70 12.35h56.86s-5.552-8.01-10.69-6.861"/>
        <path fill="#F3FAFF" d="M48.24 36.756V171.92h172.181V29.324a5.97 5.97 0 0 0-6.247-5.964l-160.24 7.432a5.97 5.97 0 0 0-5.693 5.964"/>
        <path fill="#D8DDE9" d="M12 173v-1h226v1zM0 173v-1h3v1zM5 173v-1h5v1zM247 173v-1h3v1zM240 173v-1h5v1z"/>
        <path fill="#E4F2F9" d="M48.24 41.823v-4.92a5.97 5.97 0 0 1 5.695-5.963l160.24-7.432a5.971 5.971 0 0 1 6.247 5.964v4.122l-114.753 5.485a4.034 4.034 0 0 1-3.25-1.4l-1.914-2.224a4.034 4.034 0 0 0-3.22-1.4l-16.562.669a4.033 4.033 0 0 0-3.091 1.646l-1.936 2.642a4.035 4.035 0 0 1-3.06 1.645L48.24 41.823"/>
        <path fill="#D24B4A" d="M56.573 36.52a1.484 1.484 0 0 1-1.4 1.562 1.484 1.484 0 0 1-1.54-1.426 1.485 1.485 0 0 1 1.4-1.563c.812-.038 1.502.6 1.54 1.426"/>
        <path fill="#EBCA27" d="M61.74 36.295a1.485 1.485 0 0 1-1.4 1.564 1.485 1.485 0 0 1-1.54-1.427c-.039-.825.588-1.526 1.4-1.563.812-.038 1.502.6 1.54 1.426"/>
        <path fill="#4C97BD" d="M66.907 36.054a1.485 1.485 0 0 1-1.4 1.563 1.485 1.485 0 0 1-1.54-1.426 1.484 1.484 0 0 1 1.4-1.563c.812-.038 1.502.6 1.54 1.426"/>
        <path fill="#FFF" d="M150.154 45.192l-79.44 3.234a5.5 5.5 0 0 0-5.277 5.497v68.17a5.501 5.501 0 0 0 5.542 5.5l79.44-.596a5.501 5.501 0 0 0 5.46-5.5V50.687a5.5 5.5 0 0 0-5.725-5.496"/>
        <path fill="#E4F2F9" d="M213.801 22.804l-3.732.172a5.95 5.95 0 0 1 4.513 5.77l.466 143.117h5.445l-.466-143.116a5.95 5.95 0 0 0-6.226-5.943"/>
        <path fill="#75E5AA" d="M191.54 136.234l-120.653 1.822c-3.024.045-5.45 2.42-5.45 5.335v10.16c0 2.967 2.51 5.364 5.588 5.336l120.653-1.078c3.037-.026 5.485-2.407 5.485-5.335v-10.905c0-2.979-2.532-5.382-5.623-5.335"/>
        <path fill="#D1E6E9" d="M80.99 110.841a1.412 1.412 0 0 1-.023-2.823l43.982-.75h.025a1.411 1.411 0 0 1 .023 2.823l-43.982.75h-.025M81.212 117.776a1.412 1.412 0 0 1-.025-2.824l59.141-1.06a1.412 1.412 0 0 1 .05 2.824l-59.14 1.06h-.026"/>
        <path fill="#61E3F0" d="M83.448 100.507a2.353 2.353 0 0 1-2.353-2.353V64.977a2.353 2.353 0 1 1 4.705 0v33.177c0 1.3-1.053 2.353-2.352 2.353"/>
        <path fill="#7461FF" d="M93.683 100.35a2.353 2.353 0 0 1-2.353-2.353V73.919a2.353 2.353 0 1 1 4.706 0v24.078c0 1.299-1.054 2.353-2.353 2.353"/>
        <path fill="#75E5AA" d="M124.742 99.716a2.353 2.353 0 0 1-2.353-2.353V73.285a2.353 2.353 0 1 1 4.706 0v24.078c0 1.3-1.054 2.353-2.353 2.353M103.918 100.14a2.353 2.353 0 0 1-2.353-2.352v-17.81a2.353 2.353 0 1 1 4.706 0v17.81c0 1.3-1.054 2.353-2.353 2.353"/>
        <path fill="#61E3F0" d="M114.153 99.9a2.353 2.353 0 0 1-2.353-2.353V63.158a2.353 2.353 0 1 1 4.706 0v34.39c0 1.299-1.053 2.352-2.353 2.352M190.354 69.011l-12.764.49c-4.221.161-7.734-3.093-7.734-7.164v-12.29c0-3.848 3.152-7.01 7.143-7.163l12.765-.49c4.22-.16 7.734 3.094 7.734 7.164v12.29c0 3.848-3.153 7.01-7.144 7.163"/>
        <path fill="#E4F2F9" d="M220.421 29.324a5.97 5.97 0 0 0-6.247-5.964L163.72 25.7c-.102.427-.161.87-.161 1.328l-.034 20.268c0 3.112 2.474 5.613 5.473 5.533l51.423-1.37V29.325"/>
        <path fill="#F9FEFF" d="M165.224 47.656l72.2-1.923c2.894-.077 5.2-2.533 5.2-5.534v-22.27c0-3.188-2.59-5.718-5.657-5.526L164.8 16.329c-2.817.176-5.015 2.598-5.015 5.526l-.033 20.267c0 3.113 2.473 5.614 5.473 5.534"/>
        <path fill="#D1E6E9" d="M175.767 26.6l-.107.003-4.333.232a1.929 1.929 0 0 0-1.826 1.927v4.508c0 .535.214 1.032.602 1.4.388.368.894.554 1.431.526l4.333-.233a1.929 1.929 0 0 0 1.826-1.926V28.53c0-.535-.214-1.032-.602-1.4a1.91 1.91 0 0 0-1.324-.529zm-4.342 10.01a3.305 3.305 0 0 1-2.293-.916 3.308 3.308 0 0 1-1.043-2.424v-4.508a3.34 3.34 0 0 1 3.163-3.337l4.333-.232a3.33 3.33 0 0 1 2.477.911 3.312 3.312 0 0 1 1.042 2.425v4.508a3.341 3.341 0 0 1-3.162 3.337l-4.333.232a4.005 4.005 0 0 1-.184.005zM184.385 27.502a.941.941 0 0 1-.038-1.881l48.252-2.012a.927.927 0 0 1 .98.902.941.941 0 0 1-.902.979L184.425 27.5l-.04.001M184.385 36.443a.941.941 0 0 1-.038-1.881l48.252-2.012a.927.927 0 0 1 .98.902.941.941 0 0 1-.902.98l-48.252 2.01-.04.001"/>
        <path fill="#E4F2F9" d="M48.24 156.319l21.153-.105a5.528 5.528 0 0 0 5.5-5.507l.114-29.177a5.527 5.527 0 0 0-5.634-5.548l-21.132.403v39.934"/>
        <path fill="#F9FEFF" d="M8.976 151.114l55.034-.273a5.528 5.528 0 0 0 5.5-5.506l.114-29.178a5.528 5.528 0 0 0-5.634-5.548l-55.147 1.054a5.527 5.527 0 0 0-5.422 5.526v28.397a5.528 5.528 0 0 0 5.555 5.528"/>
        <path fill="#E4F2F9" d="M48.24 85.434c6.284-2.832 10.628-8.899 10.628-15.928 0-7.029-4.344-13.095-10.627-15.928v31.856" opacity=".404"/>
        <path fill="#FFFFFE" d="M53.795 66.707c0 9.71-7.733 17.322-17.273 17.003-9.539-.32-17.273-7.876-17.273-16.877 0-9.001 7.734-16.614 17.273-17.002 9.54-.39 17.273 7.167 17.273 16.876"/>
        <path fill="#E4F2F9" d="M36.522 51.187c-8.761.331-15.89 7.348-15.89 15.64 0 8.294 7.129 15.26 15.89 15.527 8.762.267 15.89-6.75 15.89-15.642 0-8.891-7.128-15.856-15.89-15.525zm0 33.879c-10.287-.375-18.655-8.552-18.655-18.228 0-9.676 8.368-17.914 18.655-18.364 10.287-.45 18.656 7.727 18.656 18.228 0 10.5-8.37 18.739-18.656 18.364z"/>
        <path fill="#D1E6E9" d="M35.293 61.095a.985.985 0 0 0-1.018-.977l-6.185.113c-.562.01-1.018.457-1.018.996v12.664c0 .54.456.984 1.018.993l16.865.242a1 1 0 0 0 1.018-1.004V62.96c0-.563-.456-1.013-1.018-1.005l-8.644.12a.99.99 0 0 1-1.018-.981"/>
        <path fill="#AFC6C9" d="M36.311 62.076a.99.99 0 0 1-1.018-.981.985.985 0 0 0-1.018-.977l-6.185.113c-.562.01-1.018.457-1.018.996v.978l9.24-.129"/>
        <path fill="#7461FF" d="M173.693 34.04c-.316 0-.623-.128-.848-.361l-5.021-5.216a1.176 1.176 0 1 1 1.695-1.631l3.58 3.718c.801-2.896 2.327-8.149 3.528-10.712a1.176 1.176 0 1 1 2.131.999c-1.582 3.375-3.903 12.234-3.927 12.323a1.177 1.177 0 0 1-1.138.88"/>
        <path fill="#D0E3E6" d="M17.728 121.152a2.382 2.382 0 1 1-4.764 0 2.382 2.382 0 0 1 4.764 0"/>
        <path fill="#61E3F0" d="M28.16 120.858a2.382 2.382 0 1 1-4.764 0 2.382 2.382 0 0 1 4.764 0"/>
        <path fill="#75E5AA" d="M38.591 120.858a2.382 2.382 0 1 1-4.765 0 2.382 2.382 0 0 1 4.765 0M49.023 120.564a2.382 2.382 0 1 1-4.765 0 2.382 2.382 0 0 1 4.765 0"/>
        <path fill="#D0E3E6" d="M59.454 120.27a2.382 2.382 0 1 1-4.764 0 2.382 2.382 0 0 1 4.764 0"/>
        <path fill="#AFC6C9" d="M17.728 131.414a2.383 2.383 0 1 1-4.765 0 2.383 2.383 0 0 1 4.765 0"/>
        <path fill="#D0E3E6" d="M28.16 131.12a2.382 2.382 0 1 1-4.765 0 2.382 2.382 0 0 1 4.765 0M38.591 131.12a2.383 2.383 0 1 1-4.765 0 2.383 2.383 0 0 1 4.765 0M49.023 130.826a2.383 2.383 0 1 1-4.766 0 2.383 2.383 0 0 1 4.766 0"/>
        <path fill="#61E3F0" d="M59.454 130.531a2.382 2.382 0 1 1-4.764.001 2.382 2.382 0 0 1 4.764 0"/>
        <path fill="#75E5AA" d="M17.728 142.355a2.383 2.383 0 1 1-4.765 0 2.383 2.383 0 0 1 4.765 0"/>
        <path fill="#AFC6C9" d="M28.16 142.061a2.382 2.382 0 1 1-4.765 0 2.382 2.382 0 0 1 4.765 0"/>
        <path fill="#D0E3E6" d="M38.591 142.061a2.383 2.383 0 1 1-4.765 0 2.383 2.383 0 0 1 4.765 0"/>
        <path fill="#61E3F0" d="M49.023 141.767a2.383 2.383 0 1 1-4.766 0 2.383 2.383 0 0 1 4.766 0"/>
        <path fill="#D0E3E6" d="M59.454 141.472a2.382 2.382 0 1 1-4.764.002 2.382 2.382 0 0 1 4.764-.002"/>
        <path fill="#2E244F" d="M158.103 190.79L156.28 198a2.338 2.338 0 0 1-2.27 1.765H143.64l.354-.81a3.212 3.212 0 0 1 2.868-1.924c2.252-.052 5.616-.203 6.006-.65.593-.677 2.964-6.268 2.964-6.268l2.271.678M180.818 191.13v8.635h11.057a.882.882 0 0 0 .74-1.365 3.23 3.23 0 0 0-2.447-1.454c-1.75-.141-4.421-.4-5.07-.734-.987-.508-1.559-5.083-1.559-5.083h-2.72"/>
        <path fill="#3CA4D0" d="M152.868 190.273l7.112-36.042s5.843-27.279 6.604-29.607c.762-2.328 3.048-3.09 3.048-3.09l14.986-3.135s2.792 13.278 3.048 16.287c.257 3.009-.26 18.569 0 22.409.262 3.84-1.27 35.385-1.27 35.385s-5.968 1.064-6.35 0c-.407-1.134-3.047-28.836-3.047-30.46 0-1.624-2.54-22.055-2.54-22.055s-.763 14.59-.763 16.621c0 2.032-1.777 5.28-2.032 5.434-.253.155-1.958 1.043-1.36 1.551.598.508.29 3.43 0 4.954-.29 1.523-11.086 25.019-11.086 25.019l-6.35-3.271"/>
        <path fill="#AACBD7" d="M173.496 157.972c.124-.489.2-.964.2-1.386 0-2.032.762-16.62.762-16.62v-.001s-.762 14.59-.762 16.621c0 .422-.076.897-.2 1.386m.969-17.954"/>
        <path fill="#3B93C3" d="M159.218 193.544l-1.115-.575c1.073-2.48 1.957-5.2 2.132-7.808.253-3.81 5.968-10.033 6.096-13.08.126-3.049-2.922-8.764-.89-11.177 2.032-2.413 5.916-9.016 4.863-11.112-1.052-2.096-.75-4.382.178-5.652.929-1.27 1.564-7.62 2.707-8.255l1.143-.635.177 5.12a105.215 105.215 0 0 0-.05-.403v-.002s-.763 14.59-.763 16.621c0 .422-.076.897-.2 1.386-.473 1.862-1.63 3.926-1.832 4.048-.216.132-1.484.796-1.486 1.304 0 .088.038.172.126.247.252.213.343.853.343 1.635 0 1.08-.174 2.434-.343 3.319-.06.316-.575 1.584-1.353 3.394-2.961 6.887-9.733 21.625-9.733 21.625"/>
        <path fill="#25282C" d="M186.39200000000002 192.48000000000002h0m.004 0s.526-10.822.909-20.561c-.383 9.739-.909 20.561-.909 20.561"/>
        <path fill="#3B93C3" d="M184.16 192.8c-.403-2.739-1.01-7.182-.896-8.443.169-1.863 1.185-9.144 1.233-11.684.048-2.54-.386-9.821-.048-12.192.339-2.37-1.185-8.805-2.54-12.057-1.355-3.252 1.186-15.036 1.355-17.745.108-1.723-1.84-6.254-3.27-10.239l2.12-.415 2.329-.456.012-.002.39-.077c.672 3.237 2.61 12.713 2.821 15.196.054.632.074 1.817.074 3.33 0 4.161-.15 10.806-.15 15.267 0 1.645.02 2.994.076 3.812.021.301.03.774.03 1.39 0 2.628-.172 7.853-.391 13.434-.383 9.739-.909 20.561-.909 20.561h-.002-.002c-.001 0-.004.005-.007.005h-.001c-.123.019-1.084.188-2.223.315"/>
        <path fill="#83713F" d="M144.91 91.647c1.1 3.048 8.805 11.007 8.805 11.007s3.302-2.202 3.556-2.625c.254-.423 3.048 4.403 3.048 4.403s-2.117 2.032-3.386 2.879c-1.27.846-2.89 1.117-3.472.761-3.048-1.862-11.684-14.986-12.108-15.578-.423-.593-2.686-3.99-2.686-4.297-.003-1.44.485-1.667.824-1.498.339.17 3.115 3.75 3.538 3.581.423-.169 1.373-1.639 1.965-2.083.593-.445-.084 3.45-.084 3.45"/>
        <path fill="#2E244F" d="M181.53 131.448l2.848-3.912a2.045 2.045 0 0 1 2.789-.497l8.86 5.913a2.045 2.045 0 0 1 .612 2.763l-2.74 4.51a2.046 2.046 0 0 1-2.95.592l-8.968-6.51a2.045 2.045 0 0 1-.452-2.859"/>
        <path fill="#83713F" d="M190.122 104.432c1.524 3.386 3.38 11.677 3.387 13.967.004 1.927-1.09 8.1-1.773 12.956-.307 2.193.012 4.735-.394 5.42-1.305 2.201-3.675 4.74-4.522 4.402-.847-.338.677-4.741 0-5.08-.677-.338-1.693.339-2.202 0-.507-.338 2.783-3.471 3.557-4.995.773-1.524.69-7.535.69-11.176 0-2.209-2.384-13.124-2.384-13.124l3.64-2.37"/>
        <path fill="#6957EE" d="M156.091 100.57l3.277 4.703c.188.269.57.307.808.08 1.225-1.169 4.556-4.285 4.969-3.991.508.36-.339.998 0 2.373.339 1.374.798 16.444 1.16 16.953.263.367.848 1.336 1.152 1.845.116.193.34.294.562.25l16.424-3.214a.533.533 0 0 0 .43-.489c.107-1.641.461-7.699-.027-8.722-.261-.546-.228-1.344-.117-2.046.083-.519.79-.615 1.013-.14a.534.534 0 0 0 .72.253c1.364-.679 5.13-2.593 5.268-3.147.17-.677-2.2-8.551-4.36-11.049-.568-.657-5.63-4.53-6.646-4.53s-8.666-.171-10.414.255c-1.599.39-7.705 2.82-8.382 3.908-.577.926-4.597 4.874-5.773 6.022a.531.531 0 0 0-.064.686"/>
        <path fill="#5F4DE2" d="M179.994 120.44c-.001-.033-.119-5.344-.71-6.695-.592-1.354.254-4.826 1.016-6.35.763-1.524.085-7.79-1.396-9.753-1.208-1.6-2.131-5.629-2.365-7.977 1.589 0 3.041.023 3.782.031l.403.004h.006c.562.008 2.316 1.159 3.887 2.31-.63.484-1.412 1.146-1.607 1.584-.339.763-.677 4.657-.17 5.42.509.761 1.948 5.08 2.032 6.513.031.518.095 1.027.165 1.467-.153.5-.53 1.89-.338 2.897l.003.015v.002l.002.012.001.004.002.01.001.005.002.009.002.006.001.007.002.007v.005l.009.035.003.013v.002l.003.011.001.002.003.012v.001l.004.013c.021.078.046.154.076.225v.001l.005.01v.003l.005.01.001.002.004.01.002.003.004.008.002.005.003.007.006.012.002.006.003.006c.158.35.227 1.235.243 2.325v.034c.03 2.221-.15 5.27-.221 6.356a.533.533 0 0 1-.418.482l-.743.145-3.718.728"/>
        <path fill="#756337" d="M174.51 83.18c-.644 2.202-1.745 8.298-1.745 8.636 0 .34 1.355 1.778 2.71 1.778 1.354 0 3.133-1.524 3.301-2.116.17-.593.17-3.218 0-4.573-.168-1.354 0-3.146 0-3.146l-4.267-.579"/>
        <path fill="#83713F" d="M182.919 80.902c-2.515 6.924-9.515 6.65-10.165 5.547-1.04-1.763-1.182-4.566-1.035-5.508.186-1.192 2.264-2.124 3.38-5.029.275-.714 5.49-1.35 6.107.075.616 1.425 1.713 4.915 1.713 4.915"/>
        <path fill="#0C0E0F" d="M182.919 84.588c-.708.297-1.754.943-2.234.67-.48-.274-.857-.522-.82-1.229.037-.708.186-1.303-.595-1.936-.782-.633-1.534-1.75-1.214-2.83.32-1.08-.462-2.553-.462-3.007 0-.455 1.154-2.232 2.122-1.883.969.348 2.346.497 2.83 1.688.484 1.192 1.273 1.741.894 3.575-.38 1.834-.521 4.952-.521 4.952"/>
        <path fill="#2E244F" d="M183.126 81.832c2.063-3.425 1.973-7.318-.692-8.712-2.42-1.265-5.386-.313-6.924 1.208-1.54 1.52-5.4-1.32-5.958-.42-.69 1.11 13.574 7.924 13.574 7.924"/>
        <path fill="#F9FBFA" d="M172.154 107.45l-1.294.32.116-7.85 1.294-.286-.116 7.816M174.19 107.18l-1.294.271.12-8.02 1.291-.19-.117 7.94M176.224 106.967l-1.292.215.12-8.082 1.292-.18-.12 8.047"/>
    </g>
</svg>
