<svg xmlns="http://www.w3.org/2000/svg" width="250" height="214" viewBox="0 0 250 214">
    <g fill="none" fill-rule="evenodd">
        <path fill="#F3FAFF" d="M35.117 55.668v142.368h195.446V47.23a6.777 6.777 0 0 0-7.09-6.77L41.58 48.898a6.778 6.778 0 0 0-6.463 6.77"/>
        <path fill="#E4F2F9" d="M229.398 40.46l-3.49.162a5.563 5.563 0 0 1 4.22 5.396l.435 152.018h5.093l-.437-152.018a5.564 5.564 0 0 0-5.821-5.558"/>
        <path fill="#61E3F0" d="M137.46 157.75l-56.709 1.52a2.665 2.665 0 0 1-2.735-2.67l.12-57.78a2.664 2.664 0 0 1 2.541-2.662l56.709-2.63a2.664 2.664 0 0 1 2.787 2.661l-.12 58.904a2.664 2.664 0 0 1-2.593 2.657"/>
        <path fill="#7461FF" d="M137.65 84.407l-56.708 3.007a2.664 2.664 0 0 1-2.805-2.66v-12.29a2.664 2.664 0 0 1 2.54-2.661l56.709-2.631a2.665 2.665 0 0 1 2.787 2.661v11.914a2.665 2.665 0 0 1-2.523 2.66"/>
        <path fill="#75E5AA" d="M211.48 139.352l-56.708 1.83a2.664 2.664 0 0 1-2.75-2.662V95.83a2.664 2.664 0 0 1 2.544-2.662l56.707-2.577a2.664 2.664 0 0 1 2.786 2.661v43.439a2.664 2.664 0 0 1-2.578 2.662"/>
        <path fill="#FFF" d="M211.437 169.928l-56.709.9a2.664 2.664 0 0 1-2.706-2.663v-16.45a2.664 2.664 0 0 1 2.608-2.664l56.709-1.194a2.664 2.664 0 0 1 2.72 2.664v16.743a2.664 2.664 0 0 1-2.622 2.664M210.086 190.787l-54.045.716a3.996 3.996 0 0 1-4.049-3.995v-6.363a3.996 3.996 0 0 1 3.912-3.995l54.044-1.138a3.997 3.997 0 0 1 4.081 3.995v6.784a3.997 3.997 0 0 1-3.943 3.996"/>
        <path fill="#E4F2F9" d="M64.359 47.841L41.58 48.898a6.778 6.778 0 0 0-6.463 6.77v142.368H64.36V47.84"/>
        <path fill="#FFF" d="M137.492 190.656l-56.71.9a2.664 2.664 0 0 1-2.705-2.663v-19.6a2.663 2.663 0 0 1 2.607-2.664l56.709-1.194a2.664 2.664 0 0 1 2.72 2.664v19.893a2.665 2.665 0 0 1-2.621 2.664"/>
        <path fill="#7461FF" d="M211.518 80.319l-56.708 2.63a2.664 2.664 0 0 1-2.788-2.661V68.39a2.664 2.664 0 0 1 2.541-2.661l56.709-2.63a2.664 2.664 0 0 1 2.787 2.66v11.897a2.664 2.664 0 0 1-2.54 2.662"/>
        <path fill="#FFF" d="M91.068 103.539l-.052.001-4.498.17a1.333 1.333 0 0 0-1.282 1.332v4.497c0 .738.6 1.332 1.331 1.332l.052-.002 4.498-.17a1.332 1.332 0 0 0 1.282-1.331v-4.497c0-.738-.6-1.332-1.33-1.332zm0 .94c.216 0 .391.176.391.392v4.497a.39.39 0 0 1-.377.392l-4.515.17a.393.393 0 0 1-.391-.391v-4.497c0-.212.166-.384.378-.392l4.498-.17.016-.001zM91.068 116.449h-.052l-4.498.171a1.332 1.332 0 0 0-1.282 1.332v4.496c0 .738.6 1.332 1.331 1.332h.052l4.498-.171a1.332 1.332 0 0 0 1.282-1.331v-4.497c0-.739-.6-1.332-1.33-1.332zm0 .94c.216 0 .391.176.391.392v4.497a.391.391 0 0 1-.377.392l-4.515.17a.392.392 0 0 1-.391-.392v-4.496a.39.39 0 0 1 .378-.392l4.498-.171h.016zM91.068 129.358l-.052.001-4.498.17a1.332 1.332 0 0 0-1.282 1.332v4.497c0 .738.6 1.332 1.331 1.332l.052-.001 4.498-.17a1.332 1.332 0 0 0 1.282-1.332v-4.497c0-.738-.6-1.332-1.33-1.332zm0 .94c.216 0 .391.176.391.392v4.497a.39.39 0 0 1-.377.392l-4.515.171a.392.392 0 0 1-.391-.392v-4.497c0-.212.166-.384.378-.392l4.498-.17.017-.001zM91.068 142.268h-.052l-4.498.171a1.332 1.332 0 0 0-1.282 1.332v4.496c0 .739.6 1.332 1.331 1.332h.052l4.498-.171a1.332 1.332 0 0 0 1.282-1.331V143.6c0-.738-.6-1.332-1.33-1.332zm0 .94c.216 0 .391.176.391.392v4.497a.39.39 0 0 1-.377.392l-4.515.17a.392.392 0 0 1-.391-.392v-4.496c0-.212.166-.384.378-.393l4.498-.17h.016z"/>
        <path fill="#FFF" d="M89.984 144.035h-.027l-2.331.088a.69.69 0 0 0-.664.69v2.33c0 .382.31.69.69.69h.027l2.33-.09a.69.69 0 0 0 .664-.689v-2.33a.69.69 0 0 0-.69-.69M164.068 114.55h-.026l-2.331.088a.69.69 0 0 0-.664.69v2.33c0 .382.31.69.69.69h.026l2.331-.09a.69.69 0 0 0 .664-.689v-2.33a.69.69 0 0 0-.69-.69M89.984 105.306h-.027l-2.331.088a.69.69 0 0 0-.664.69v2.33c0 .383.31.69.69.69h.027l2.33-.089a.69.69 0 0 0 .664-.69v-2.33a.69.69 0 0 0-.69-.69M164.068 101.64h-.026l-2.331.088a.69.69 0 0 0-.664.69v2.33c0 .383.31.69.69.69h.026l2.331-.089a.69.69 0 0 0 .664-.69v-2.329a.69.69 0 0 0-.69-.69"/>
        <path fill="#FFF" d="M165.153 99.873l-.051.001-4.5.17a1.332 1.332 0 0 0-1.281 1.332v4.497c0 .738.6 1.332 1.33 1.332l.052-.001 4.5-.17a1.332 1.332 0 0 0 1.28-1.332v-4.497c0-.738-.599-1.332-1.33-1.332zm0 .94c.215 0 .39.176.39.392v4.497a.39.39 0 0 1-.377.392l-4.514.171a.392.392 0 0 1-.391-.392v-4.497a.39.39 0 0 1 .377-.392l4.499-.17.016-.001zM165.153 112.783h-.051l-4.5.171a1.332 1.332 0 0 0-1.281 1.332v4.496c0 .739.6 1.332 1.33 1.332h.052l4.5-.171a1.332 1.332 0 0 0 1.28-1.331v-4.497c0-.739-.599-1.332-1.33-1.332zm0 .94c.215 0 .39.176.39.392v4.497a.392.392 0 0 1-.377.392l-4.514.17a.392.392 0 0 1-.391-.392v-4.496a.39.39 0 0 1 .377-.392l4.499-.17.016-.001zM165.153 125.692l-.051.001-4.5.171a1.331 1.331 0 0 0-1.281 1.331v4.497c0 .738.6 1.332 1.33 1.332l.052-.001 4.5-.17a1.332 1.332 0 0 0 1.28-1.331v-4.498c0-.738-.599-1.332-1.33-1.332zm0 .94c.215 0 .39.176.39.392v4.498a.392.392 0 0 1-.377.392l-4.514.17a.392.392 0 0 1-.391-.392v-4.497a.39.39 0 0 1 .377-.391l4.499-.171.016-.001zM85.352 76.019a.705.705 0 0 1-.032-1.409l47.605-2.208a.704.704 0 1 1 .065 1.408l-47.605 2.208h-.033M196.443 52.818a.705.705 0 0 1-.029-1.41l10.804-.445c.383-.029.717.287.733.675a.705.705 0 0 1-.676.734l-10.803.445h-.029M115.767 56.143a.704.704 0 0 1-.029-1.41l73.707-3.037a.7.7 0 0 1 .734.675.706.706 0 0 1-.676.734l-73.706 3.037h-.03M85.352 57.397a.704.704 0 0 1-.029-1.41l20.986-.864a.696.696 0 0 1 .733.675.705.705 0 0 1-.675.733l-20.985.865h-.03M85.352 81.748a.705.705 0 0 1-.032-1.41l20.985-.973a.705.705 0 0 1 .065 1.408l-20.985.974h-.033M159.238 71.969a.705.705 0 0 1-.032-1.409l47.604-2.208a.712.712 0 0 1 .737.671.704.704 0 0 1-.672.737l-47.604 2.208-.033.001M159.238 77.697a.705.705 0 0 1-.032-1.408l31.515-1.462a.704.704 0 1 1 .065 1.408l-31.515 1.461-.033.001"/>
        <path fill="#61E3F0" d="M42.781 198.036h22.4v-29.044h-22.4z"/>
        <path fill="#32327B" d="M20.382 198.036h22.4V174.63h-22.4z"/>
        <path fill="#F0F8FD" d="M101.67 34.907s-4.459-7.899-9.438-8.185c-4.875-.28-7.812 2.526-12.16 2.115-3.062-.29-5.52-3.642-10.785-3.608-5.131.033-7.835-7.252-14.414-7.252-8.047 0-11.286 4.427-15.272 6.924-3.695 2.314-5.975 3.173-11.631 1.54-7.59-2.19-12.923 8.466-12.923 8.466h86.623M179.873 5.458C172.626 7.08 170.827.406 165.07.406c-4.934 0-6.821 3.839-10.808 5.452-3.694 1.494-5.504.772-11.16-.282-7.591-1.415-9.399 6.744-9.399 6.744h56.86s-5.552-8.011-10.69-6.862"/>
        <path fill="#FFF" d="M56.19 65.047c0 4.023-2.889 7.284-6.452 7.284s-6.451-3.261-6.451-7.284 2.888-7.284 6.451-7.284c3.563 0 6.451 3.261 6.451 7.284M53.028 92.488c0 2.207-1.473 3.995-3.29 3.995-1.816 0-3.29-1.788-3.29-3.995 0-2.206 1.474-3.994 3.29-3.994 1.817 0 3.29 1.788 3.29 3.994M125.007 106.929a1.175 1.175 0 0 1-.053-2.348l7.833-.359a1.174 1.174 0 1 1 .107 2.347l-7.832.359-.055.001M98.693 108.133a1.174 1.174 0 0 1-.053-2.348l17.07-.781a1.174 1.174 0 1 1 .107 2.347l-17.07.781-.054.001M110.906 120.203a1.175 1.175 0 0 1-.036-2.35l21.952-.696c.642-.035 1.19.489 1.211 1.138.02.648-.488 1.19-1.137 1.211l-21.952.696h-.038M98.693 120.59a1.174 1.174 0 0 1-.037-2.35l7.645-.242a1.181 1.181 0 0 1 1.211 1.137c.02.649-.489 1.191-1.137 1.212l-7.644.242h-.038M98.693 133.224a1.175 1.175 0 0 1-.026-2.349l28.19-.644h.027a1.175 1.175 0 0 1 .027 2.348l-28.19.645h-.028M183.01 103.606a1.174 1.174 0 0 1-.053-2.348l23.537-1.078a1.167 1.167 0 0 1 1.227 1.12 1.174 1.174 0 0 1-1.12 1.227l-23.537 1.078-.055.001M172.4 104.092a1.174 1.174 0 0 1-.053-2.348l7.103-.325a1.16 1.16 0 0 1 1.227 1.12 1.174 1.174 0 0 1-1.12 1.227l-7.103.325-.054.001M172.391 116.724a1.175 1.175 0 0 1-.037-2.35l29.454-.933a1.169 1.169 0 0 1 1.211 1.137c.02.649-.488 1.19-1.137 1.211l-29.453.934h-.038M172.42 129.994a1.174 1.174 0 0 1-.028-2.35l34.184-.78a1.175 1.175 0 0 1 .055 2.349l-34.185.78h-.027M98.576 146.16a1.175 1.175 0 0 1-.027-2.349l34.265-.78h.027a1.174 1.174 0 0 1 .026 2.349l-34.264.78h-.027"/>
        <path fill="#E4F2F9" d="M35.117 138.132l35.733-1.014A3.119 3.119 0 0 0 73.88 134v-19.245a3.12 3.12 0 0 0-3.207-3.118l-35.556 1.01v25.485"/>
        <path fill="#F5FAF8" d="M66.763 131.781l-37.348 1.06a3.118 3.118 0 0 1-3.207-3.117V110.48a3.119 3.119 0 0 1 3.03-3.118l37.348-1.06a3.118 3.118 0 0 1 3.207 3.118v19.245a3.118 3.118 0 0 1-3.03 3.117"/>
        <path fill="#D1E6E9" d="M34.722 126.555a1.174 1.174 0 0 1-.055-2.348l28.18-.993.027-.001a1.175 1.175 0 0 1 .056 2.349l-28.18.993h-.028M40.148 116.449a3.308 3.308 0 1 1-6.615 0 3.308 3.308 0 0 1 6.615 0M44.977 117.295a1.174 1.174 0 0 1-.01-2.349l17.08-.47a1.174 1.174 0 1 1 .064 2.349l-17.08.47h-.054"/>
        <path fill="#5AD5E2" d="M65.181 198.036h5.66v-29.044h-5.66z"/>
        <path fill="#F0D9B4" d="M148.508 206.61l.517 4.879-2.051.217-.55-5.18 2.084.083"/>
        <path fill="#D8DDE9" d="M12 199v-1h226v1zM0 199v-1h3v1zM5 199v-1h5v1zM247 199v-1h3v1zM240 199v-1h5v1z"/>
        <path fill="#F0D9B4" d="M132.856 206.12l-1.018 5.153-2.025-.616.713-4.69 2.33.154"/>
        <path fill="#282933" d="M153.901 212.168a.543.543 0 0 1-.45.379l-6.024.795a.545.545 0 0 1-.612-.589l-.022-2.147 6.665.863c.331.047.542.379.443.7M136.696 212.9a.543.543 0 0 1-.508.296l-6.24-.37a.544.544 0 0 1-.503-.685l.41-2.116 6.524 2.11c.318.102.47.467.317.765"/>
        <path fill="#8C7E5B" d="M38.317 119.571l1.097-3.837 2.543.626-1.525 3.76-2.115-.549"/>
        <path fill="#9B8D61" d="M37.761 114.127c.476.829 2.279 2.33 2.913 2.522.634.193 2.162-.02 2.466-.158.303-.138.22-2.134.22-2.768 0-.635.126-1.072.016-1.21-.11-.138-1.075-1.02-1.186-1.489-.11-.469-.342-1.462-.992-1.985-.53-.427-2.17-.497-2.767-.248-.597.248-2.417 2.288-.67 5.336"/>
        <path fill="#27204E" d="M42.04 108.892c-.003.446-.665.335-1.35.474-.684.139-1.537.946-1.722 1.418-.186.473.482 1.585.537 1.974.056.39-.584.279-.75.39-.168.11-.047 1.084.213 1.501.259.417.768 1.046.277 1.083-.492.037-1.686-.471-2.27-1.417-.584-.945-.814-2.724-.564-3.67.25-.945 1.177-2.278 2.077-2.725 1.231-.612 3.555.332 3.551.972"/>
        <path fill="#9DE6FF" d="M40.432 119.571s8.732 6.022 9.437 6.335c.705.313 7.95-2.968 7.95-2.968s1.175 2.63 1.096 2.843c-.078.213-7.372 4.266-8.38 4.442-1.955.342-9.477-3.68-9.477-3.68l-.626-6.972"/>
        <path fill="#8CD9F2" d="M50.27 130.244c-2.29 0-9.212-3.702-9.212-3.702l-.363-4.047c1.324.717 2.844 2.376 3.447 3.381.793 1.322 2.436-.018 3.906 1.763.275.332.584.455.92.455.467 0 .986-.239 1.536-.477s1.131-.476 1.723-.476c.115 0 .23.008.344.028.164.027.359.045.575.045.874 0 2.09-.295 2.98-1.425.968-1.234 2.17-1.08 2.404-1.182.226.558.412 1.068.387 1.17v.002h-.001v.002c-.079.213-7.373 4.266-8.38 4.442-.08.014-.17.02-.266.02"/>
        <path fill="#27204E" d="M50.144 164.841l-.402 3.557a.534.534 0 0 0 .53.594h6.423a.32.32 0 0 0 .203-.566l-.236-.195a.78.78 0 0 0-.398-.172l-3.311-.91a1.157 1.157 0 0 1-.851-1.115v-1.663l-1.958.47M26.461 166.73l-2.577 2.962a.804.804 0 0 0-.07.836l1.827 3.638a.843.843 0 0 0 .753.465h1.942a.34.34 0 0 0 .199-.616s-1.956-.823-2.132-2.732c-.12-1.299 1.654-3.554 1.654-3.554l-1.596-.998"/>
        <path fill="#32327B" d="M36.311 142.796c3.694 4.114 12.004 7.757 12.004 9.15 0 1.394.756 13.6.756 13.6h4.533l.504-16.26c0-1.037-.416-2.03-1.155-2.759l-10.346-10.195-6.296 6.464"/>
        <path fill="#28296F" d="M50.33 165.546h-1.259s-.756-12.206-.756-13.6v-.004-.001-.003-.001-.003-.002-.002-.002-.002-.002-.002-.002-.002l-.001-.002v-.002-.002-.003-.001l-.001-.003v-.001-.003-.002l-.001-.002v-.002-.003l-.001-.004v-.004l-.001-.001v-.003-.001l-.001-.004-.001-.004-.001-.004-.001-.005-.001-.004c-.224-.992-4.032-2.97-7.58-5.405.163-2.042.31-4.023.415-5.455 1.144 1.595 2.282 2.913 3.146 3.393 1.511.84 3.75.698 4.197 3.274.336 1.93 1.696 1.26 2.533 2.435.838 1.175.337 3.043-.266 4.808-.765 2.24.387 3.674.71 6.277.322 2.602-.878 3.521-1.13 4.361"/>
        <path fill="#32327B" d="M24.922 166.664l3.64 1.976s10.79-11.534 11.239-13.15c.448-1.616 1.496-16.674 1.496-16.674l-6.506-2.126s-1.495 3.023-1.869 3.92c-.374.898.822 10.66 0 12.284-.822 1.624-8 13.77-8 13.77"/>
        <path fill="#28296F" d="M26.884 167.729l-1.962-1.065.008-.014c.27-.456 7.186-12.164 7.992-13.756.22-.434.296-1.452.295-2.726 0-2.809-.37-6.866-.37-8.683 0-.438.021-.747.075-.875.374-.897 1.87-3.92 1.87-3.92l2.104.688c-.761 1.953-1.283 3.865-.834 5.102.598 1.645 1.795 3.14.673 4.56-1.121 1.421-.931 3.632-.84 5.854.092 2.222-1.75 4.465-2.81 5.661-1.06 1.197-4.2 6.506-4.799 7.552-.234.41-.8 1.025-1.402 1.622"/>
        <path fill="#9DE6FF" d="M34.211 138.035c-.495-1.345-.928-1.855-1.288-2.878-.24-.677 1.28-11.108 3.573-14.959.341-.574 1.7-1.9 2.04-2.692.41-.955 1.503 1.113 2.111 1.351 1.051.411 2.213 3.769 2.134 5.179-.078 1.41.32 12.766.004 13.706-.317.94-1.494 1.07-3.528 1.393-.98.156-5.046-1.1-5.046-1.1"/>
        <path fill="#B6ECFF" d="M41.058 122.003c-1.016-2.854-3.61 1.405-3.062 5.792.309 2.47 3.709 11.608 7.283 13.955.538.354 1.957-2.872 1.957-2.872-5.042-6.035-3.611-9.665-6.178-16.875"/>
        <path fill="#9B8D61" d="M46.1 141.052c1.252.937 2.428 2.35 2.898 1.88.47-.47.086-.933-.558-1.73-1.116-1.384-1.368-2.054-1.368-2.054l-.973 1.904M58.022 123.4s1.09-2.047 1.48-2.438c.393-.392 1.068-.96 1.225-.803.156.157-.558 1.346-.52 1.684.04.338 0 2.715 0 2.715l-1.442.654-.743-1.811"/>
        <path fill="#3CA4D0" d="M132.457 164.305l-1.364 6.944c-.443 1.708.114 6.968-.02 5.208-.027-.364.677 8.859.477 11.553-.281 3.805-2.124 20.653-2.124 20.653l3.665.952s6.205-19.694 6.378-21.939c.172-2.246 2.029-19.63 2.029-19.63l-9.04-3.741"/>
        <path fill="#5040C4" d="M133.898 162.865s-2.765-2.795-3.32-3.4c-.397-.434-.107-1.869.217-2.802l1.662-4.232.794-9.49c-2.117.536-2.98 2.653-4.362 6.539-1.381 3.886-2.337 8.046-2.332 9.974.003.796 3.541 5.268 5.614 5.786 2.072.518 1.727-2.375 1.727-2.375"/>
        <path fill="#F0D9B4" d="M151.331 142.86l2.67-11.656.057-3.194c.012-.691.347-2.37.778-2.316.522.064.393 2.034.477 2.165.084.132 1.224 1.577 1.43 2.1.208.52.01 1.856-.039 2.2-.049.345-.547 1.615-.6 2.162-.052.548-1.295 7.601-1.43 7.944-.136.343-3.343.595-3.343.595M135.723 132.024c.944-.048 2.643-.139 3.057 1.007.415 1.147.957 4.556.844 4.805-.113.248-1.526 2.033-1.766 2.372-.24.339-.067 1.878-.067 1.878l-4.682.657-.21-6.16 2.824-4.559"/>
        <path fill="#1B1D21" d="M130.766 132.383c-.556 1.303 1.04 4.396 1.099 4.81.058.415.128 1.968.862 2.224.733.256 2.671-.08 3.19-.448.519-.369.68-2.23.66-2.819-.02-.588.914-.72 1.049-.358.135.361-.092 1.302.055 1.598.147.296.367.625.336 1.094-.032.469-.353 2.163-.283 2.364.071.201 1.29.684 1.757.555.468-.129.852-1.007.647-1.865-.205-.858-.43-2.01-.599-2.007-.169.002-1.11-.077-1.224-.441-.115-.364-.288-2.051-.364-2.294-.077-.243-.451-.803-.468-1.076-.017-.272.613-1.649.555-2.063-.058-.415-.417-1.61-1.783-1.714-1.367-.104-2.226.188-2.445.343-.596.422-.52.96-1.033 1.37-.234.188-1.717.038-2.01.727"/>
        <path fill="#A6272F" d="M135.848 138.163c-.455-.111-.725.312-1.2 0-.474-.311-.725-.33-1.227-.051-.502.279-1.004-.642-1.227-1.172-.15-.354-.573-.985-.983-1.462.307.836.628 1.533.654 1.715.058.415.128 1.968.862 2.224.733.256 2.671-.08 3.19-.448.149-.106.268-.337.362-.624a1.716 1.716 0 0 0-.431-.182"/>
        <path fill="#3B93C3" d="M133.091 209.615l-.88-.229c.002-.019.648-5.187 2.384-6.91.446-.444.591-3.813.69-5.053.177-2.202-1.295-5.7-1.5-7.96-.205-2.26 1.328-3.957 2.32-5.641.994-1.684-1.048-4.335-1.775-5.873-1.123-2.374 0-7.081 2.208-8.117 1.014-.476 2.83-.634 4.803-.634h.034l-.242 2.28c-.55 5.182-1.539 14.571-1.664 16.194v.004c-.03.39-.242 1.306-.571 2.552-.532 2.012-1.37 4.886-2.246 7.808-1.708 5.7-3.56 11.579-3.56 11.579"/>
        <path fill="#3CA4D0" d="M134.33 166.665l9.844-.475 3.568 21.486c.173 1.036 2.115 21.165 2.115 21.165s-3.345 1.19-4.036.5c-.395-.396-5.203-19.97-5.203-19.97s-4.534-11.968-4.907-12.818c-1.209-2.764-1.381-9.888-1.381-9.888"/>
        <path fill="#6957EE" d="M134.034 142.678c-.935.15-1.628.415-2.227 1.148-1.494 1.829-1.52 5.044-1.52 7.143 0 2.59 1.877 9.623 1.984 11.393.108 1.77-1.061 4.175-.316 4.454.745.278 4.447.496 5.57.496 1.123 0 6.742-.299 7.34-1.424.368-.691-.604-8.593-.69-9.63-.087-1.036-2.04-6.34-1.247-7.109.158-.153 7.564-.123 12.098-5.52 1.015-1.209 1.179-9.806 1.292-9.86l-2.888-.753-2.636 8.843s-5.552 1.332-6.935.884c-1.322-.428-5.384-.734-5.816-.69-.278.027-2.481.379-4.009.625"/>
        <path fill="#6957EE" d="M132.621 142.242l-.585 1.33s1.564.865 3.595.493c2.623-.481 3.595-1.948 3.595-1.948l-.82-.36a.897.897 0 0 0-1.114-.011c-.56.444-1.493.708-2.211.667-.57-.032-1.029-.015-1.387-.32a.745.745 0 0 0-1.073.149"/>
    </g>
</svg>
