<svg xmlns="http://www.w3.org/2000/svg" width="232" height="190" viewBox="0 0 232 190">
    <g fill="none" fill-rule="evenodd">
        <path fill="#F0F8FD" d="M0 41.622s.311-9.519 6.028-9.605c3.907-.06 4.378 1.998 5.234 1.713 1.554-2.866 4.669-4.247 8.19-4.437.38-3.522 4.092-8.294 9.041-8.224 7.519-.887 9.78 7.047 10.464 7.331 3.236-1.047 7.999-.82 11.235 4.509 8.66-.095 9.654 6.864 9.654 6.864L0 41.622zM200.184 154.041s.237-3.115 4.6-3.153c3.557-.031 3.34.656 3.993.562 1.356-2.836 3.171-5.457 7.892-5.45 4.575-.022 6.91 3.816 7.433 3.909 2.469-.344 4.259-1.077 6.22.521 1.337 1.09 1.313 2.882 1.313 2.882l-31.45.729z"/>
        <path fill="#F3FAFF" d="M202.184 96.424c0 48.585-39.386 87.972-87.972 87.972-48.585 0-87.972-39.387-87.972-87.972 0-48.586 39.387-87.972 87.972-87.972 48.586 0 87.972 39.386 87.972 87.972"/>
        <path fill="#E4F2F9" d="M114.212 3.39c-12.557 0-24.741 2.46-36.214 7.313-11.08 4.686-21.028 11.393-29.57 19.936-8.543 8.543-15.25 18.491-19.936 29.57-4.853 11.473-7.313 23.657-7.313 36.215 0 12.557 2.46 24.741 7.313 36.214 4.686 11.079 11.393 21.028 19.936 29.57 8.542 8.543 18.49 15.25 29.57 19.936 11.473 4.852 23.657 7.313 36.214 7.313 12.558 0 24.742-2.46 36.215-7.313 11.078-4.686 21.027-11.393 29.57-19.936 8.542-8.542 15.25-18.491 19.935-29.57 4.853-11.473 7.314-23.657 7.314-36.214 0-12.558-2.46-24.742-7.314-36.215-4.685-11.079-11.393-21.027-19.935-29.57-8.543-8.543-18.492-15.25-29.57-19.936-11.473-4.852-23.657-7.313-36.215-7.313m0 5.062c48.586 0 87.972 39.386 87.972 87.972 0 48.585-39.386 87.972-87.972 87.972-48.585 0-87.972-39.387-87.972-87.972 0-48.586 39.387-87.972 87.972-87.972"/>
        <path fill="#D1E6E8" d="M39.51 85.49c-3.232-9.624-2.014-22.815-.6-27.527 2.336-7.787 12.626-12.953 13.794-16.846.519-1.727.235-4.514.039-7.626a88.578 88.578 0 0 1 7.02-6.169C60.113 31.78 62.616 41.447 62 43.5c-1.168 3.893-14.664 6.676-17 14.463-1.778 5.925-1.677 15.857 4.889 21.776-.96 1.873-1.91 3.802-2.817 5.75H39.51z"/>
        <path fill="#D1E8ED" d="M52.781 26.56a93.33 93.33 0 0 1 7.089-5.665c-.34 1.859-.287 4.124-.107 6.427a88.578 88.578 0 0 0-7.02 6.169c-.141-2.234-.238-4.636.038-6.932z"/>
        <path fill="#FFFFFE" d="M142.026 154.849l-50.534-36.921a3.312 3.312 0 0 1-.72-4.627l50.367-68.939a3.312 3.312 0 0 1 4.627-.72L196.3 80.563a3.311 3.311 0 0 1 .72 4.627l-50.368 68.938a3.31 3.31 0 0 1-4.626.72"/>
        <path fill="#FFFFFE" d="M137.505 85.49h-.107c5.03-7.263 9.882-17.374 11.684-28.896.524-3.352.655-6.793.523-10.147l.93.68c.08 3.18-.078 6.429-.574 9.604-1.672 10.689-5.939 20.183-10.564 27.362l-1.892 1.397m-11.929 0h-.904c2.766-15.252 4.106-21.985 5.85-26.072.157-.365.313-.755.47-1.168l1.807-2.473c-.496 1.522-.98 2.867-1.459 3.99-1.703 3.992-3.03 10.652-5.764 25.723m-1.309 0h-1.27l-6.942-6.795.508-.696.022-.029 7.682 7.52"/>
        <path fill="#12132C" d="M42.414 58.947c2.336-7.787 16.742-13.627 17.91-17.52 1.168-3.894-2.855-16.933 1.038-20.826 3.893-3.894 13.019-6.424 15.744-9.15C79.831 8.727 89.395-2.242 97.181.483c7.787 2.726 10.058 7.66 9.043 12.133-.649 2.852 4.455 6.23 4.325 9.733-.228 6.163-.974 8.052-1.428 12.589-.519 5.192 3.764 4.58 4.932 10.012 1.168 5.432-4.369 16.723-7.83 19.838-3.46 3.115-42.006 22.108-49.014 21.372-11.757-1.236-17.131-19.425-14.795-27.212z"/>
        <path fill="#FFFFFE" d="M181.557 153.02v-52.532c0-8.25-6.75-14.998-14.998-14.998H26.916a88.815 88.815 0 0 0-.676 10.934c0 48.585 39.387 87.972 87.972 87.972 27.03 0 51.207-12.194 67.345-31.376"/>
        <path fill="#E4F2F9" d="M125.51 123.994H76.869c-.61 0-1.104-.494-1.104-1.103v-1.707c0-.609.494-1.103 1.104-1.103h48.64c.61 0 1.105.494 1.105 1.103v1.707c0 .61-.495 1.103-1.104 1.103M153.27 136.054H76.869c-.61 0-1.104-.494-1.104-1.103v-1.707c0-.609.494-1.103 1.104-1.103h76.4c.61 0 1.104.494 1.104 1.103v1.707c0 .61-.494 1.103-1.103 1.103M125.51 145.26H76.869c-.61 0-1.104-.494-1.104-1.103v-1.707c0-.609.494-1.103 1.104-1.103h48.64c.61 0 1.105.494 1.105 1.103v1.707c0 .609-.495 1.103-1.104 1.103M153.27 157.32H76.869c-.61 0-1.104-.494-1.104-1.104v-1.706c0-.61.494-1.103 1.104-1.103h76.4c.61 0 1.104.494 1.104 1.103v1.706c0 .61-.494 1.104-1.103 1.104M125.51 166.526H76.869c-.61 0-1.104-.494-1.104-1.104v-1.706c0-.61.494-1.103 1.104-1.103h48.64c.61 0 1.105.494 1.105 1.103v1.706c0 .61-.495 1.104-1.104 1.104M181.557 100.488c0-8.25-6.75-14.998-14.998-14.998H26.916a88.815 88.815 0 0 0-.676 10.934c0 5.53.516 10.941 1.493 16.19h45.631l5.842-9.347a6.622 6.622 0 0 1 5.615-3.113h56.97a6.622 6.622 0 0 1 5.615 3.113l5.841 9.346h28.31v-12.125"/>
        <path fill="#B6D6E7" d="M165.67 94.287l.993 2.013a2.385 2.385 0 0 0 1.795 1.304l2.221.323-1.607 1.566a2.384 2.384 0 0 0-.686 2.11l.38 2.213-1.987-1.044a2.382 2.382 0 0 0-2.219 0l-1.986 1.044.38-2.212a2.384 2.384 0 0 0-.687-2.11l-1.606-1.567 2.22-.323a2.385 2.385 0 0 0 1.796-1.304l.993-2.013"/>
        <path fill="#12132C" d="M62.948 174.085a92.574 92.574 0 0 1-6.33-4.583l.002-.001a92.445 92.445 0 0 0 6.33 4.581l-.002.003m4.363-3.221"/>
        <path fill="#D1E8ED" d="M62.95 174.082a92.445 92.445 0 0 1-6.33-4.581l4.236-3.127a88.076 88.076 0 0 0 6.455 4.49l-4.36 3.218"/>
        <path fill="#FFFFFE" d="M169.33 85.748a14.93 14.93 0 0 0-2.771-.258h-4.364l1.097-1.671.738-.214 1.54-.445 4.281-1.239c-.156.078-.307.152-.453.223l.393 1.55c.113-.055.592-.289 1.323-.67a.921.921 0 0 1-.04.068l-1.743 2.656M67.31 170.864a88.196 88.196 0 0 1-6.454-4.49l14.91-11.004v.846c0 .61.493 1.104 1.103 1.104h8.792l-7.17 5.293h-1.622c-.61 0-1.104.494-1.104 1.103v.908l-8.454 6.24m23.652-17.457H78.425l11.037-8.147H102l-11.037 8.147m16.339-12.06H94.764l7.17-5.293h12.539l-7.171 5.293m12.472-9.206h-12.538l11.037-8.147h7.237c.61 0 1.104-.494 1.104-1.103v-1.707c0-.609-.495-1.103-1.104-1.103h-1.935l23.476-17.327c.125.164.244.335.355.513l3.626 5.802-31.258 23.072"/>
        <path fill="#D1E6E8" d="M125.51 123.994h-7.237l5.302-3.913h1.935c.61 0 1.104.494 1.104 1.103v1.707c0 .61-.495 1.103-1.104 1.103M114.473 136.054h-12.539l5.302-3.913h12.538l-5.301 3.913M102 145.26H89.462l5.302-3.913h12.538L102 145.26M85.66 157.32H76.87c-.61 0-1.104-.494-1.104-1.104v-.846l2.66-1.963h12.538l-5.302 3.913M75.765 164.624v-.908c0-.61.494-1.103 1.104-1.103h1.622l-2.726 2.011"/>
        <path fill="#D7EEF2" d="M151.032 109.07l-3.626-5.803a6.695 6.695 0 0 0-.355-.513l7.401-5.463 7.743-11.801h4.364c.946 0 1.873.089 2.772.258l-7.92 12.07-.75.109.414.404-4.233 6.45-5.81 4.288"/>
        <path fill="#AF252A" d="M161.075 98.33l-.414-.403.75-.109-.336.513"/>
        <path fill="#2A2B72" d="M45.387 177.792l-11.615-15.737 109.065-80.5 11.615 15.736-109.065 80.5"/>
        <path fill="#32327B" d="M42.886 174.404l-6.614-8.961 109.065-80.501 6.614 8.961-109.065 80.5"/>
        <path fill="#FDF9CB" d="M142.837 81.554l-1.725 6.507 7.532 1.362-.918 7.6 6.726.268 14.232-21.69c.424-.645-.185-1.47-.927-1.255l-6.117 1.77-18.803 5.438"/>
        <path fill="#282E74" d="M147.728 97.107c.017-.158.036-.312.055-.46l-.055.46"/>
        <path fill="#FFFFFE" d="M163.18 75.67l4.54-1.314.017-.005-4.557 1.319"/>
        <path fill="#FAF397" d="M154.452 97.29l-6.726-.268.002-.017.043-.359c.6-4.536 2.635-4.192 5.718-4.993 3.166-.822 6.12-9.687 6.837-11.685.34-.948 1.612-2.709 2.854-4.298l4.557-1.319a.862.862 0 0 1 .227-.03c.634 0 1.082.728.699 1.313L154.452 97.29"/>
        <path fill="#2A2A5B" d="M162.125 80.636l2.565 1.052 3.994-6.086c.424-.646-.185-1.471-.927-1.256l-6.117 1.77-.669 1.17a2.357 2.357 0 0 0 1.154 3.35M34.556 183.246l-9.188-12.448a2.044 2.044 0 0 1 .431-2.859l7.973-5.884 11.615 15.737-7.973 5.884a2.044 2.044 0 0 1-2.858-.43"/>
        <path fill="#E4F2F9" d="M45.387 177.792l-11.615-15.737 2.404-1.775 11.615 15.737-2.404 1.775"/>
        <path fill="#EBD29D" d="M67.793 143.209c3.302 4.932 11.198 12.728 15.242 12.987 4.045.26 3.741-4.947 2.336-6.498-7.974-8.805 1.192-3.614 1.047-6.858-.096-2.158-12.597-5.581-12.597-5.581l-6.028 5.95"/>
        <path fill="#6957EE" d="M61.492 59.325c-2.84 5.126-23.937 37.401-21.155 52.892 1.21 6.731 25.379 30.97 28.104 32.917 1.741 1.243 9.605-7.089 9.605-7.089s-16.142-25.125-16.142-31.402c0-6.278 11.852-21.329 11.852-21.329l37.335.176 12.062-16.51s-7.337-14.38-8.94-15.37c-2.885-1.78-16.159-5.48-21.671-5.478-8.118.001-27.546 4.867-31.05 11.193"/>
        <path fill="#DEC18C" d="M85.954 33.944c-.52 8.566-.972 17.72-6.423 19.018-1.838.437 3.18 6.364 10.902 6.363 4.672 0 12.33-4.027 9.604-5.325-2.16-1.029-2.574-21.323-2.574-21.323l-11.51 1.267"/>
        <path fill="#EBD29D" d="M97.571 10.393c-8.555.893-13.497 2.466-12.719 7.917.78 5.45-3.374 7.18-3.374 11.72 0 3.114 8.825 11.915 15.314 11.9 6.436-.014 6.749-7.747 7.917-12.03 1.168-4.283 1.119-8.082-.591-10.12-3.145-3.746-3.424-9.712-6.547-9.387"/>
        <path fill="#FFFFFE" d="M70.154 125.01l-.004-.006.004.007m-.013-.023l-.001-.002v.002m-.01-.02c-.003-.003-.004-.006-.006-.01l.005.01m-.01-.018l-.012-.02.012.02m-.012-.02c-2.4-4.193-4.815-8.683-6.397-12.317 1.582 3.634 3.997 8.124 6.397 12.317"/>
        <path fill="#D7EEF2" d="M63.71 112.613c-.888-2.038-1.513-3.808-1.726-5.102.213 1.295.838 3.063 1.726 5.102M61.97 107.425a.104.104 0 0 1-.002-.012l.002.012m-.002-.013c0-.004 0-.007-.002-.011l.002.01m-.002-.01l-.001-.012.001.011m-.002-.012l-.001-.011.001.01m-.001-.011l-.002-.012.002.012m-.002-.012l-.007-.048.007.048m-.007-.05l-.001-.01.001.01m-.001-.011l-.002-.01.002.01m-.002-.013l-.001-.008v.008m-.002-.023l-.001-.009v.009m0-.011l-.002-.01.002.01m-.002-.012c0-.004 0-.007-.002-.01l.002.01m-.002-.011l-.005-.047.005.047m-.005-.048l-.001-.01.001.01m-.002-.012v-.01.01m0-.012l-.002-.008.001.008m-.001-.011l-.001-.008v.008m-.002-.022v-.01.01m0-.012l-.002-.01.001.01m-.001-.01l-.003-.034.003.033m-.003-.034l-.001-.01v.01m0-.012l-.001-.01v.01m0-.012l-.001-.009v.01m0-.012l-.001-.008v.008m0-.011l-.001-.008v.008m0-.011v-.009.009m-.001-.01l-.001-.01v.01m0-.012l-.003-.032.003.032m-.003-.034v-.009.009m0-.012l-.001-.008v.008m0-.01v-.008.007m-.001-.01v-.008.008m0-.011l-.001-.007v.007m0-.01l-.001-.008v.007m0-.01v-.008a.05.05 0 0 0 0 .008m0-.01l-.001-.009v.008m0-.01l-.001-.021v.02m0-.022l-.001-.008v.008m0-.012v-.006.006m0-.01l-.001-.007v.007m0-.01v-.007.006m0-.01v-.006.006m-.001-.01v-.006.005m0-.01v-.005.005m0-.01v-.006.006m0-.01l-.001-.008v.008m0-.01v-.02.02m-.001-.022v-.008.008m0-.011v-.006.006m0-.01v-.006.005m0-.01v-.005.005m0-.01v-.005.006m0-.01v-.006.006m0-.01v-.006.006m0-.01v-.006.006m0-.01v-.01.01"/>
        <path fill="#5F4DE2" d="M71.127 126.695c-5.36-3.252-10.614-8.195-13.723-11.304-3.504-3.504-6.424-7.948-3.504-10.106 2.92-2.158 6.424-3.123 6.424-7.994 0-4.871.194-10.711 4.477-13.242 4.283-2.53 6.36-7.386 6.587-9.728.04-.41.233-.587.544-.587 1.468 0 5.552 3.944 8.443 6.032 3.504 2.53 16.547 1.508 18.883 1.922 2.336.414 7.981 3.783 7.981 3.783l-33.483-.157s-11.852 15.051-11.852 21.329v.09l.001.002v.022l.001.008V106.795l.001.005v.01l.001.006V106.841l.002.008V106.874l.001.008V106.896l.001.007v.004l.001.007v.011l.001.003v.01l.001.008v.003l.001.009v.002l.003.032v.012l.001.001v.012l.002.008v.013l.002.01v.012l.002.01v.002l.003.033.001.011v.002l.001.01v.002l.002.008v.012l.001.003.001.008v.003l.001.01v.001l.002.01v.001l.005.047.002.011v.002l.002.01v.011l.002.003v.012l.002.008v.003l.002.01v.001l.001.01v.002l.007.048.002.012.001.012.002.012.002.012v.001l.002.012.014.086c.213 1.294.838 3.064 1.726 5.102 1.582 3.634 3.997 8.124 6.397 12.317l.012.02.005.008.005.01a.416.416 0 0 1 .01.018l.002.002.009.016.004.007c.325.568.65 1.13.973 1.684"/>
        <path fill="#A2C7E0" d="M118.146 59.614a115.28 115.28 0 0 0-1.415-2.448c.254.377.775 1.289 1.415 2.448"/>
        <path fill="#FFFFFE" d="M116.585 77.97l6.568-8.99-6.568 8.99M116.563 78.008l.028-.038-.028.038"/>
        <path fill="#5F4DE2" d="M116.563 78c-.012-.01-1.898-1.409-.195-9.914.678-3.386.177-10.932.35-10.932.003 0 .007.003.01.008l.003.004c.452.757.93 1.588 1.415 2.448 1.95 3.534 5.007 9.366 5.007 9.366l-6.568 8.99-.022.03"/>
        <path fill="#D1E6E8" d="M185.313 72.536l-1.234-.902c.533-.749.913-1.49 1.09-2.21.19-.768.069-1.429-.368-2.021-.485-.658-1.344-.928-2.461-.928-1.182 0-2.651.303-4.272.768l-1.58-1.155c2.218-.705 4.215-1.18 5.864-1.18 1.601 0 2.875.45 3.702 1.57.719.974.93 2.09.627 3.32-.223.905-.705 1.825-1.368 2.738m-27.137-19.827l-1.29-.943c6.267-5.106 15.662-9.027 25.116-9.027.65 0 1.302.018 1.951.056.424.55.84 1.103 1.25 1.662a31.639 31.639 0 0 0-3.247-.165c-8.926 0-17.793 3.64-23.78 8.417"/>
        <path fill="#D1E8ED" d="M192.574 46.244a26.93 26.93 0 0 0-5.731-1.571 29.904 29.904 0 0 0-1.64-.216c-.41-.56-.826-1.112-1.25-1.662a31.49 31.49 0 0 1 3.136.34c1.292.206 2.655.512 4.05.946.488.715.968 1.435 1.435 2.163"/>
        <path fill="#FFFFFE" d="M171.114 83.025c.303-.562-.127-1.224-.727-1.224a.86.86 0 0 0-.24.035l-.036.01-.26.075c3.994-1.988 11.347-6.24 14.228-10.287l1.234.902c-3.288 4.516-11.06 8.856-14.199 10.489m-13.793-9.853c-3.078 0-5.63-1.02-7.126-3.852-1.952-3.695-1.31-8.126 1.808-12.477 1.256-1.752 2.915-3.473 4.883-5.077l1.29.943c-1.987 1.586-3.657 3.297-4.907 5.04-1.95 2.722-3.827 6.812-1.697 10.843 1.158 2.193 3.246 3.003 5.83 3.003 3.935 0 9.02-1.877 13.725-3.613 1.877-.693 3.682-1.36 5.362-1.894l1.58 1.155c-1.992.572-4.213 1.391-6.403 2.2-4.865 1.795-10.105 3.73-14.345 3.73"/>
        <path fill="#FFFFFE" d="M169.79 83.694l-.392-1.55c.146-.07.297-.145.453-.223l.26-.075.036-.01a.86.86 0 0 1 .24-.035c.6 0 1.03.662.727 1.224-.731.38-1.21.614-1.323.669"/>
        <path fill="#D1E6E8" d="M141.151 180.194v-.001c.28-.09.562-.182.84-.275l-.222.075c-.206.068-.411.135-.618.201m40.406-56.815v-2.019c6.955-5.78 12.696-11.507 17.16-17.124a75.399 75.399 0 0 0 3.411-4.633c-.035.979-.086 1.953-.152 2.924a79.62 79.62 0 0 1-2.04 2.678c-4.74 5.965-10.891 12.044-18.38 18.174"/>
        <path fill="#D1E8ED" d="M141.152 180.202v-.008l.615-.2-.615.208m60.824-77.675c.066-.97.117-1.945.152-2.924 2.006-2.963 3.654-5.898 4.945-8.803a94.77 94.77 0 0 1 .144 3.3c-1.435 2.787-3.18 5.597-5.241 8.427"/>
        <path fill="#FFFFFE" d="M141.151 180.193c-.187-5.932.245-12.548 2.256-19.17a47.405 47.405 0 0 1 1.295-3.703h1.64c-3.042 7.33-3.844 14.946-3.645 22.36l-.705.238c-.28.093-.56.185-.84.275m7.05-26.786h-1.727c3.818-7.46 9.705-13.803 17.829-19.248 6.389-4.282 12.148-8.555 17.253-12.799v2.019c-4.897 4.008-10.366 8.039-16.386 12.074-8.16 5.468-13.53 11.565-16.97 17.954"/>
        <path fill="#D1E6E8" d="M146.342 157.32h-1.64a45.427 45.427 0 0 1 1.773-3.913h1.726a43.084 43.084 0 0 0-1.859 3.913"/>
        <path fill="#61E3F0" d="M140.453 180.415c-.83-7.576-1.32-17.385 1.662-27.2 3.303-10.867 10.138-19.655 20.896-26.865 15.095-10.117 26.673-20.185 34.414-29.924 10.663-13.416 14.15-26.322 10.366-38.36-4.829-15.357-14.76-20.007-22.24-21.203-13.413-2.144-27.872 5.118-33.574 13.077-1.95 2.721-3.827 6.811-1.698 10.843 2.92 5.528 11.758 2.267 19.556-.611 6.763-2.496 12.605-4.652 14.927-1.504.718.974.93 2.091.627 3.32-1.585 6.436-16.195 13.558-16.89 13.896l-.393-1.55c4.553-2.212 14.6-7.962 15.77-12.72.19-.767.07-1.429-.367-2.021-1.628-2.207-7.478-.048-13.135 2.04-8.397 3.1-17.914 6.612-21.472-.123-1.951-3.695-1.309-8.126 1.809-12.477 5.972-8.335 21.082-15.947 35.086-13.708 7.914 1.265 18.412 6.157 23.48 22.274 3.95 12.561.372 25.95-10.633 39.797-7.84 9.864-19.538 20.041-34.766 30.247-22.404 15.016-23.78 34.772-21.91 52.285l-1.515.487"/>
    </g>
</svg>
