<svg xmlns="http://www.w3.org/2000/svg" width="252" height="190" viewBox="0 0 252 190">
    <g fill="none" fill-rule="evenodd">
        <path fill="#E4F2F9" d="M125.686.08c-12.793 0-25.206 2.507-36.894 7.45-11.287 4.775-21.423 11.608-30.126 20.31-8.703 8.704-15.536 18.84-20.31 30.127-4.945 11.688-7.451 24.101-7.451 36.895 0 12.793 2.506 25.206 7.45 36.894 4.775 11.287 11.608 21.423 20.311 30.126 8.703 8.703 18.839 15.536 30.126 20.31 11.688 4.944 24.1 7.451 36.894 7.451 12.793 0 25.207-2.507 36.895-7.45 11.287-4.775 21.423-11.608 30.126-20.31 8.703-8.704 15.536-18.84 20.31-30.127 4.944-11.688 7.45-24.101 7.45-36.894 0-12.794-2.506-25.207-7.45-36.895-4.774-11.287-11.607-21.423-20.31-30.126-8.703-8.703-18.839-15.536-30.126-20.31C150.893 2.587 138.479.08 125.686.08m0 5.156c49.499 0 89.625 40.126 89.625 89.625 0 49.498-40.126 89.625-89.625 89.625-49.498 0-89.624-40.127-89.624-89.625 0-49.499 40.126-89.625 89.624-89.625"/>
        <path fill="#F3FAFF" d="M215.311 94.862c0 49.498-40.126 89.625-89.625 89.625-49.498 0-89.624-40.127-89.624-89.625 0-49.499 40.126-89.625 89.624-89.625 49.499 0 89.625 40.126 89.625 89.625"/>
        <path fill="#D0E7EA" d="M197.143 148.968a89.666 89.666 0 0 0 8.705-13.978 48.681 48.681 0 0 1-1.424 2.939 69.285 69.285 0 0 1-7.28 11.039"/>
        <path fill="#32327B" d="M162.17 31.124H89.202c-7.42 0-13.492 6.072-13.492 13.493v124.65c14.278 9.61 31.471 15.22 49.976 15.22s35.699-5.61 49.977-15.22V44.618c0-7.421-6.072-13.493-13.493-13.493"/>
        <path fill="#FFFFFE" d="M157.798 37.682H93.574c-5.565 0-10.119 4.554-10.119 10.12v126.125c12.584 6.736 26.96 10.56 42.231 10.56s29.648-3.824 42.232-10.56V47.801c0-5.565-4.554-10.12-10.12-10.12"/>
        <path fill="#ECF6F6" d="M156.2 125.24H95.173a4.497 4.497 0 0 1-4.498-4.497V107.36a4.497 4.497 0 0 1 4.498-4.498h61.029a4.498 4.498 0 0 1 4.497 4.498v13.382a4.498 4.498 0 0 1-4.497 4.497"/>
        <path fill="#D1E6E9" d="M105.66 118.941h-7.531a1.124 1.124 0 0 1-1.125-1.124v-7.53c0-.621.504-1.125 1.125-1.125h7.53c.621 0 1.125.504 1.125 1.124v7.531c0 .621-.504 1.124-1.125 1.124M152.65 112.407H113.6c-.62 0-1.124-.504-1.124-1.125v-.528c0-.62.504-1.124 1.125-1.124h39.048c.621 0 1.124.503 1.124 1.124v.528c0 .621-.503 1.125-1.124 1.125M147.433 118.94H113.6c-.621 0-1.125-.504-1.125-1.125v-.528c0-.621.504-1.124 1.125-1.124h33.832c.62 0 1.124.503 1.124 1.124v.528c0 .62-.503 1.124-1.124 1.124"/>
        <path fill="#ECF6F6" d="M156.2 156.214H95.173a4.498 4.498 0 0 1-4.498-4.498v-13.382a4.497 4.497 0 0 1 4.498-4.497h61.029a4.498 4.498 0 0 1 4.497 4.497v13.382a4.498 4.498 0 0 1-4.497 4.498"/>
        <path fill="#D1E6E9" d="M105.66 149.915h-7.531a1.124 1.124 0 0 1-1.125-1.124v-7.531c0-.62.504-1.124 1.125-1.124h7.53c.621 0 1.125.503 1.125 1.124v7.53c0 .622-.504 1.125-1.125 1.125M152.65 143.38H113.6c-.62 0-1.124-.503-1.124-1.124v-.528c0-.621.504-1.124 1.125-1.124h39.048c.621 0 1.124.503 1.124 1.124v.528c0 .62-.503 1.125-1.124 1.125M147.433 149.913H113.6c-.621 0-1.125-.504-1.125-1.124v-.529c0-.62.504-1.124 1.125-1.124h33.832c.62 0 1.124.503 1.124 1.124v.529c0 .62-.503 1.124-1.124 1.124"/>
        <path fill="#32327B" d="M156.2 164.81H95.173a4.497 4.497 0 0 0-4.498 4.498v8.08c10.757 4.57 22.589 7.099 35.012 7.099 12.424 0 24.256-2.53 35.012-7.099v-8.08a4.498 4.498 0 0 0-4.497-4.497"/>
        <path fill="#9A826E" d="M207.243 132.07c-2.557-5.066-5.29-10.342-8.43-10.517-4.633-.257-9.692-8.532-14.067-11.106s-8.9.993-10.313 0c-11.71-8.236-17.587-42.775-28.108-39.944-5.16 1.389-1.738 20.204 0 26.639 1.487 5.504 21.73 50.924 15.61 54.013-6.118 3.088-12.36-16.115-18.377-23.305-4.587-5.48-11.98-12.093-17.419-9.058-3.833 2.14 1.556 11.91 4.305 18.498 1.577 3.78 12.975 26.43 22.865 42.852 23.997-7.768 43.563-25.376 53.934-48.073"/>
        <path fill="#F8F9FB" d="M145.931 75.877c.632 4.533 2.726 11.239 6.414 10.418 3.689-.821 5.87-1.617 3.408-7.375-4.808-11.24-10.705-9.374-9.822-3.043M125.376 124.25c.647 4.638 3.851 12.427 6.202 11.905 4.306-.955 7.75-1.478 5.23-7.369-4.92-11.5-12.335-11.014-11.432-4.536"/>
        <path fill="#7D6959" d="M198.813 121.553c-4.633-.257-9.692-8.532-14.067-11.106s-8.9.993-10.313 0a14.42 14.42 0 0 1-1.542-1.264c2.957 5.385 5.883 9.936 8.946 12.597 4.76 4.136 10.71 9.799 10.71 13.711 0 3.912-.668 9.462-2.317 13.033-1.153 2.496-2.274 7.895-2.98 11.464a89.836 89.836 0 0 0 19.993-27.919c-2.557-5.065-5.29-10.341-8.43-10.516"/>
        <path fill="#D1E6E9" d="M156.932 51.21h-48.601a2.25 2.25 0 0 1 0-4.5h48.601a2.25 2.25 0 1 1 0 4.5M100.472 51.21h-7.788a2.25 2.25 0 0 1 0-4.5h7.788a2.25 2.25 0 0 1 0 4.5"/>
        <path fill="#3E3F3C" d="M30.905 94.97v-.014.014m0-.046v-.062.062m0-.062v-.067.067m0-.081v-.065.065m0-.078v-.057.057m0-.07v-.064.064m0-.08v-.06.06m.001-.073v-.058.058m0-.075v-.063.063m0-.08l.001-.052v.053"/>
        <path fill="#D4E9EB" d="M36.288 101.287h-5.164a96.84 96.84 0 0 1-.219-6.317v-.014-.032-.062-.067-.014-.065-.013-.057-.013-.064-.016-.06-.013-.058-.017l.001-.063v-.016-.053-.006h5.158c-.002.199-.002.395-.002.595 0 2.16.076 4.303.226 6.425"/>
        <path fill="#D1E6E8" d="M75.71 101.287H36.288a90.922 90.922 0 0 1-.224-7.02H75.71v7.02"/>
        <path fill="#0E1221" d="M75.71 101.287h7.745v-7.02H75.71z"/>
        <path fill="#FFFFFE" d="M128.673 101.287H83.455v-7.02h49.716v2.523a4.498 4.498 0 0 1-4.498 4.497"/>
        <path fill="#E4F2F9" d="M133.165 94.267H24.748a4.497 4.497 0 0 1-4.497-4.498V68.924a4.498 4.498 0 0 1 4.497-4.498h108.417a4.498 4.498 0 0 1 4.497 4.498v20.845a4.497 4.497 0 0 1-4.497 4.498"/>
        <path fill="#7461FF" d="M39.265 86.367H27.473a1.124 1.124 0 0 1-1.124-1.124V73.45c0-.622.503-1.125 1.124-1.125h11.792c.622 0 1.125.503 1.125 1.125v11.792c0 .62-.503 1.124-1.125 1.124"/>
        <path fill="#D1E6E9" d="M127.524 76.985H49.688c-.621 0-1.125-.504-1.125-1.125v-1.738c0-.621.504-1.124 1.125-1.124h77.836c.62 0 1.124.503 1.124 1.124v1.738c0 .621-.503 1.125-1.124 1.125M99.242 86.364H49.688c-.621 0-1.125-.504-1.125-1.125v-1.738c0-.62.504-1.124 1.125-1.124h49.554c.621 0 1.125.503 1.125 1.124v1.738c0 .621-.504 1.125-1.125 1.125"/>
        <path fill="#3E3F3C" d="M193 28.135a98.312 98.312 0 0 0-.01-.01l.01.01m-.055-.055a.56.56 0 0 0-.015-.015l.015.015m-.054-.054l-.018-.019.018.019m-.055-.056l-.019-.019.02.02m-.06-.06l-.015-.015.016.016m-.071-.071a2.472 2.472 0 0 1-.046-.046l.046.046m-.06-.06l-.033-.033.033.033m-.094-.093l-.045-.045.045.045m-.061-.061l-.03-.03.03.03m-.1-.1l-.036-.035.036.035m-.057-.056l-.024-.024.024.024m-.047-.046l-.021-.022.021.022m-.113-.111l-.014-.015.014.015m-.045-.045l-.009-.009.01.01m-.118-.116l-.002-.002.002.002"/>
        <path fill="#D4E9EB" d="M202.722 49.03a90.017 90.017 0 0 0-36.792-34.272 25.396 25.396 0 0 1 4.76-3.336 94.518 94.518 0 0 1 21.32 15.73l.003.002.108.106.01.01.03.029.014.015.029.028a.62.62 0 0 1 .016.016l.047.045.021.022.023.022.024.024.021.021.036.035.02.021.032.031.018.018.03.03.016.016.045.045.005.004.041.041.015.015.033.033.014.014.046.046.055.055.016.016.04.039.018.02.037.036.018.019a3.616 3.616 0 0 0 .054.054l.044.044.011.011a94.876 94.876 0 0 1 12.714 15.91 25.329 25.329 0 0 1-2.992 4.985"/>
        <path fill="#D1E6E8" d="M182.684 58.93c-2.435 0-4.791-.346-7.02-.992v-13.32c0-7.422-6.073-13.494-13.494-13.494h-4.63c.65-6.488 3.764-12.261 8.39-16.366a90.017 90.017 0 0 1 36.792 34.272c-4.621 6.015-11.883 9.9-20.038 9.9"/>
        <path fill="#0E1221" d="M175.663 57.938a25.192 25.192 0 0 1-7.745-3.782v-6.355c0-5.565-4.554-10.12-10.12-10.12h-.064a25.328 25.328 0 0 1-.194-6.557h4.63c7.421 0 13.493 6.072 13.493 13.493v13.321"/>
        <path fill="#FFFFFE" d="M167.918 54.156c-5.327-3.848-9.1-9.717-10.184-16.474h.064c5.566 0 10.12 4.554 10.12 10.12v6.354M134.708 64.093c-1.533 0-2.988-.076-4.345-.201-11.102-1.023-21.976-5.985-28.812-12.957.477-.261.85-.69 1.037-1.207 6.565 6.763 17.121 11.589 27.921 12.584 1.308.12 2.711.194 4.19.194 7.828 0 17.748-2.061 26.61-10.112a.79.79 0 0 1 1.12.054.793.793 0 0 1-.053 1.12c-9.224 8.38-19.535 10.525-27.668 10.525"/>
        <path fill="#D4E9EB" d="M66.479 27.577a36.684 36.684 0 0 1-1.89-5.176c.451-.381.905-.76 1.362-1.131a35.5 35.5 0 0 0 1.806 5.202c-.43.364-.856.733-1.278 1.105"/>
        <path fill="#D1E6E8" d="M76.353 40.51c-4.035-3.317-7.508-7.711-9.874-12.933.422-.372.848-.741 1.278-1.105a34.833 34.833 0 0 0 6.414 9.787 34.075 34.075 0 0 0 2.796 2.686 13.359 13.359 0 0 0-.614 1.564m37.85-9.385h-1.663l.113-.352c1.387-4.48.633-8.107-2.07-9.95-1.17-.797-2.429-1.19-3.71-1.19-2.083 0-4.225 1.036-6.143 3.055-2.047 2.155-3.578 5.112-4.254 8.437h-1.61c.705-3.756 2.411-7.106 4.714-9.53 2.222-2.339 4.794-3.544 7.308-3.544 1.587 0 3.152.482 4.589 1.461 3.294 2.246 4.284 6.474 2.727 11.613"/>
        <path fill="#0E1221" d="M83.814 45.134c-2.605-1.149-5.127-2.706-7.461-4.625.173-.536.378-1.058.614-1.564 2.305 1.973 4.799 3.56 7.382 4.71a10.01 10.01 0 0 0-.535 1.479m27.131-7.452h-1.953c1.58-2.05 2.801-4.31 3.548-6.558h1.664l-.036.117c-.677 2.186-1.782 4.391-3.223 6.44m-14.657 0h-1.6a20.796 20.796 0 0 1 .178-6.557h1.61a19.196 19.196 0 0 0-.188 6.558"/>
        <path fill="#FFFFFE" d="M91.232 47.24c-2.487-.32-4.988-1.035-7.418-2.106.14-.51.32-1.004.535-1.478 3.19 1.422 6.515 2.182 9.79 2.19H94.174c1.079 0 2.142-.12 3.178-.343a21.29 21.29 0 0 1-2.664-7.821h1.599c.355 2.465 1.204 4.974 2.654 7.392 3.971-1.288 7.485-4.065 10.05-7.392h1.953c-2.716 3.864-6.627 7.175-11.114 8.757l.195.27h-7.342c-.553 0-1.06.2-1.452.532"/>
        <path fill="#D1E6E8" d="M101.551 50.935a30.806 30.806 0 0 1-2.53-2.919 24.068 24.068 0 0 1-.785-1.096c-1.33.336-2.714.506-4.102.513a23.195 23.195 0 0 1-2.902-.192 2.242 2.242 0 0 1 1.452-.532h7.342c.085.117.17.232.258.348.698.919 1.469 1.81 2.304 2.67-.188.518-.56.947-1.037 1.208"/>
        <path fill="#61E3F0" d="M109.315 14.303c-2.083 0-4.225 1.036-6.143 3.055-4.72 4.97-6.694 14.205-1.789 22.388 6.547-2.123 11.85-8.293 13.711-14.303 1.388-4.48.634-8.107-2.069-9.95-1.17-.797-2.43-1.19-3.71-1.19zm27.835 44.46a47.41 47.41 0 0 1-4.345-.2c-12.596-1.16-24.898-7.392-31.342-15.875a23.467 23.467 0 0 1-.785-1.096c-1.33.335-2.714.505-4.102.512-14.644-.035-30.96-14.568-30.96-35.369a.794.794 0 0 1 1.587 0c0 9.077 3.341 17.67 9.41 24.195 5.65 6.076 12.928 9.57 19.967 9.587h.034c1.08 0 2.144-.12 3.18-.343-5.018-8.758-2.838-18.577 2.228-23.909 3.626-3.816 8.185-4.613 11.897-2.082 3.319 2.262 4.3 6.537 2.691 11.73-1.954 6.306-7.47 12.776-14.336 15.197.146.207.297.413.452.618 6.187 8.145 18.051 14.134 30.225 15.255 8.234.758 20.264-.346 30.8-9.918a.793.793 0 1 1 1.067 1.175c-9.224 8.38-19.535 10.524-27.668 10.524z"/>
        <path fill="#FFFFFE" d="M202.432 28.43c0 12.94-10.49 23.43-23.43 23.43s-23.43-10.49-23.43-23.43S166.063 5 179.003 5s23.43 10.49 23.43 23.43"/>
        <path fill="#E4F2F9" d="M179.002 6.84c-11.904 0-21.588 9.686-21.588 21.59 0 11.903 9.684 21.588 21.588 21.588 11.904 0 21.589-9.685 21.589-21.589 0-11.903-9.685-21.588-21.59-21.588zm0 46.86c-13.934 0-25.27-11.336-25.27-25.27 0-13.935 11.336-25.271 25.27-25.271s25.271 11.336 25.271 25.27c0 13.935-11.337 25.27-25.271 25.27z"/>
        <path fill="#75E5AA" d="M167.775 21.812a7.788 7.788 0 0 1 .605-2.996 7.018 7.018 0 0 1 1.81-2.558c.474-.42.96-.825 1.448-1.228.243-.2.522-.342.838-.396.351-.06.677.015.984.186.424.236.747.582 1.046.955.401.502.725 1.055 1.071 1.594.253.392.498.79.699 1.213.205.433.368.88.418 1.36.069.66-.102 1.251-.554 1.738-.259.279-.56.517-.84.78-.27.254-.578.456-.877.673-.36.261-.636.588-.752 1.03-.096.366-.07.732.014 1.096.117.502.33.964.582 1.41.44.785.98 1.499 1.555 2.188.543.652 1.11 1.28 1.728 1.864.557.526 1.142 1.017 1.823 1.38.372.197.76.345 1.186.374.497.032.923-.133 1.293-.456.082-.072.164-.144.234-.226.318-.375.696-.685 1.068-1 .21-.178.424-.358.659-.5.585-.354 1.212-.386 1.857-.18.526.166.997.44 1.426.779.52.412 1.022.846 1.53 1.275.36.306.703.632 1.001 1.001.212.263.396.543.508.863.191.545.09 1.043-.276 1.478-.171.205-.376.383-.574.564-.342.315-.684.63-1.039.931a7.058 7.058 0 0 1-2.454 1.345 7.63 7.63 0 0 1-2.635.346c-1.288-.05-2.502-.39-3.667-.925-1.247-.572-2.375-1.332-3.433-2.2A24.474 24.474 0 0 1 174 33.673a32.258 32.258 0 0 1-3.167-3.78c-.794-1.119-1.496-2.29-2.045-3.55-.426-.978-.745-1.988-.907-3.044a9.688 9.688 0 0 1-.107-1.487"/>
        <path fill="#F0F8FD" d="M0 30.622s.311-9.519 6.028-9.605c3.907-.06 4.378 1.998 5.234 1.713 1.554-2.866 4.669-4.247 8.19-4.437.38-3.522 4.092-8.294 9.041-8.224 7.519-.887 9.78 7.047 10.464 7.331 3.236-1.047 7.999-.82 11.235 4.509 8.66-.095 9.654 6.864 9.654 6.864L0 30.622zM206 182.85s.24-7.316 4.633-7.382c3.003-.046 3.365 1.536 4.023 1.317 1.195-2.203 3.589-3.264 6.295-3.41.293-2.708 3.146-6.376 6.95-6.322 5.779-.682 7.516 5.417 8.042 5.635 2.488-.805 6.149-.63 8.636 3.466 6.657-.073 7.421 5.276 7.421 5.276l-46 1.42z"/>
    </g>
</svg>
