<svg xmlns="http://www.w3.org/2000/svg" width="252" height="190" viewBox="0 0 252 190">
    <g fill="none" fill-rule="evenodd">
        <path fill="#F3FAFF" d="M215.601 94.865c0 49.5-40.126 89.625-89.624 89.625-49.5 0-89.625-40.126-89.625-89.625 0-49.498 40.126-89.624 89.625-89.624 49.498 0 89.624 40.126 89.624 89.624"/>
        <path fill="#FFF" d="M192.857 62.83a5.622 5.622 0 0 0-5.622-5.623H44.63c-5.31 11.45-8.278 24.207-8.278 37.658 0 49.5 40.126 89.625 89.625 89.625 26.587 0 50.466-11.58 66.88-29.97V62.83"/>
        <path fill="#E4F2F9" d="M192.857 63c0-3.199-2.594-5.793-5.794-5.793H44.63a88.928 88.928 0 0 0-4.957 13.412h31.663l1.806-3.037a4.454 4.454 0 0 1 3.829-2.179h25.243c1.571 0 3.026.828 3.83 2.179l1.804 3.037h85.009V63"/>
        <path fill="#E05A54" d="M47.305 64.555a1.554 1.554 0 1 1-3.11 0 1.554 1.554 0 0 1 3.11 0"/>
        <path fill="#F5CD2F" d="M53.522 64.555a1.554 1.554 0 1 1-3.109 0 1.554 1.554 0 0 1 3.11 0"/>
        <path fill="#519DC8" d="M59.74 64.555a1.555 1.555 0 1 1-3.11 0 1.555 1.555 0 0 1 3.11 0"/>
        <path fill="#ECF6F6" d="M103.988 105.536h-52.3a4.498 4.498 0 0 1-4.498-4.498V90.622a4.498 4.498 0 0 1 4.497-4.497h52.301a4.497 4.497 0 0 1 4.498 4.497v10.416a4.497 4.497 0 0 1-4.498 4.498M103.988 128.947h-52.3a4.498 4.498 0 0 1-4.498-4.497v-10.416a4.498 4.498 0 0 1 4.497-4.498h52.301a4.497 4.497 0 0 1 4.498 4.498v10.416a4.497 4.497 0 0 1-4.498 4.497M172.76 152.359h-52.3a4.498 4.498 0 0 1-4.498-4.498V89.95a4.498 4.498 0 0 1 4.497-4.498h52.301a4.498 4.498 0 0 1 4.498 4.498v57.912a4.498 4.498 0 0 1-4.498 4.498M103.988 156.36H60.781a89.882 89.882 0 0 0 26.592 19.41h16.615a4.498 4.498 0 0 0 4.498-4.497v-10.416a4.497 4.497 0 0 0-4.498-4.498"/>
        <path fill="#61E3F0" d="M103.393 132.948H51.092a4.496 4.496 0 0 0-4.422 3.693 89.79 89.79 0 0 0 10.556 15.718h46.167a4.498 4.498 0 0 0 4.497-4.498v-10.416a4.497 4.497 0 0 0-4.497-4.497"/>
        <path fill="#ECF6F6" d="M172.76 156.36h-52.3a4.498 4.498 0 0 0-4.498 4.497v10.416a4.498 4.498 0 0 0 4.497 4.497h44.121a89.532 89.532 0 0 0 12.678-7.398v-7.515a4.498 4.498 0 0 0-4.498-4.498"/>
        <path fill="#7461FF" d="M146.335 136.526H91.821a13.61 13.61 0 0 0-8.498 2.978l-9.861 7.882c-1.412 1.128-3.502.123-3.502-1.685v-25.903c0-7.132 5.781-12.914 12.913-12.914h63.462c7.132 0 12.913 5.782 12.913 12.914v3.814c0 7.133-5.78 12.914-12.913 12.914"/>
        <path fill="#FFFFFE" d="M104.582 122.453a3.34 3.34 0 1 1-6.682 0 3.34 3.34 0 0 1 6.682 0M117.945 122.453a3.34 3.34 0 1 1-6.682 0 3.34 3.34 0 0 1 6.682 0M131.308 122.453a3.34 3.34 0 1 1-6.682.001 3.34 3.34 0 0 1 6.682 0"/>
        <path fill="#E4F2F9" d="M125.977.084c-12.794 0-25.207 2.507-36.895 7.45-11.287 4.774-21.423 11.608-30.126 20.311-8.703 8.703-15.536 18.839-20.31 30.126-4.944 11.688-7.45 24.101-7.45 36.894 0 12.794 2.506 25.207 7.45 36.895 4.774 11.287 11.607 21.423 20.31 30.126 8.703 8.703 18.839 15.536 30.126 20.31 11.688 4.944 24.101 7.451 36.895 7.451 12.793 0 25.206-2.507 36.895-7.45 11.286-4.775 21.422-11.608 30.125-20.311s15.536-18.839 20.31-30.126c4.944-11.688 7.451-24.101 7.451-36.895 0-12.793-2.507-25.206-7.45-36.894-4.775-11.287-11.608-21.423-20.311-30.126-8.703-8.703-18.839-15.537-30.125-20.31-11.69-4.944-24.102-7.45-36.895-7.45m0 5.156c49.498 0 89.624 40.126 89.624 89.624 0 49.5-40.126 89.625-89.624 89.625-49.5 0-89.625-40.126-89.625-89.625 0-49.498 40.126-89.624 89.625-89.624"/>
        <path fill="#61E3F0" d="M165.237 150.532c-6.327 0-12.91-1.534-19.352-4.61a.991.991 0 1 1 .854-1.79c12.857 6.14 26.254 5.862 36.757-.76 10.995-6.935 17.56-20.026 17.56-35.018a.992.992 0 1 1 1.983 0c0 15.678-6.91 29.395-18.485 36.694-5.791 3.653-12.402 5.484-19.317 5.484"/>
        <path fill="#D1E6E8" d="M192.857 62.83a5.622 5.622 0 0 0-5.622-5.623h-53.788a67.8 67.8 0 0 0-.114-.607c1.647-10.461 6.534-20.108 14.166-27.74 6.049-6.048 13.361-10.37 21.343-12.723 27.857 15.201 46.76 44.759 46.76 78.728 0 2.952-.143 5.873-.422 8.751a50.17 50.17 0 0 1-12.209 7.414c.045-.885.068-1.778.068-2.676a.992.992 0 0 0-1.983 0c0 1.176-.04 2.34-.12 3.49a50.005 50.005 0 0 1-8.08 2.274V62.829z"/>
        <path fill="#3D8AAA" d="M133.5 57.207h-.259c.037-.203.076-.405.116-.607.05.203.097.404.143.607"/>
        <path fill="#DAEFF0" d="M183.194 115.036c-1.998 0-3.98-.116-5.936-.343V89.949a4.498 4.498 0 0 0-4.498-4.498h-35.548a50.04 50.04 0 0 1-4.14-14.832h59.785v43.499c-3.15.607-6.383.918-9.663.918M192.857 63c0-3.2-2.594-5.794-5.794-5.794h-53.822 53.994a5.622 5.622 0 0 1 5.622 5.622v.172"/>
        <path fill="#FFFFFE" d="M192.857 70.619h-59.785a51.317 51.317 0 0 1-.358-6.064c0-2.48.178-4.936.527-7.348h53.822c3.2 0 5.794 2.594 5.794 5.794v7.618"/>
        <path fill="#3E3F3C" d="M220.696 98.348a96.87 96.87 0 0 0 .062-3.483c0-6.469-.641-12.841-1.914-19.072a94.007 94.007 0 0 1 1.868 22.538l-.016.017m-14.83-54.52a94.92 94.92 0 0 0-12.869-15.983 95.304 95.304 0 0 0-11.962-10.148 94.497 94.497 0 0 1 10.669 8.847 93.9 93.9 0 0 1 14.162 17.283"/>
        <path fill="#D1E6E8" d="M177.258 114.693c-11.237-1.308-21.637-6.322-29.759-14.442a50.494 50.494 0 0 1-10.287-14.8h35.548a4.498 4.498 0 0 1 4.498 4.498v24.744"/>
        <path fill="#D4E9EB" d="M215.18 103.616c.279-2.878.421-5.799.421-8.75 0-33.97-18.902-63.528-46.759-78.73a50.285 50.285 0 0 1 7.468-1.595 94.82 94.82 0 0 1 4.725 3.156 95.304 95.304 0 0 1 11.962 10.148 94.92 94.92 0 0 1 12.87 15.982 95.516 95.516 0 0 1 7.222 13.69 95.158 95.158 0 0 1 5.755 18.276 95.148 95.148 0 0 1 1.914 19.072c0 1.165-.02 2.325-.062 3.483a51.489 51.489 0 0 1-5.516 5.268"/>
        <path fill="#4FCCD9" d="M200.936 111.844c.08-1.15.12-2.314.12-3.49a.992.992 0 1 1 1.983 0c0 .898-.023 1.791-.068 2.676a49.44 49.44 0 0 1-2.035.814"/>
        <path fill="#FFFFFE" d="M179.228 104.376c-26.742 0-48.497-21.756-48.497-48.497 0-26.742 21.755-48.498 48.497-48.498 26.741 0 48.497 21.756 48.497 48.498 0 26.74-21.756 48.497-48.497 48.497"/>
        <path fill="#E4F2F9" d="M179.228 5.398c-13.484 0-26.16 5.251-35.695 14.786-9.535 9.534-14.786 22.21-14.786 35.695 0 13.483 5.251 26.16 14.786 35.695 9.534 9.534 22.211 14.785 35.695 14.785 13.484 0 26.16-5.25 35.695-14.785 9.534-9.535 14.785-22.212 14.785-35.695 0-13.484-5.25-26.161-14.785-35.695-9.534-9.535-22.211-14.786-35.695-14.786zm0 3.966c25.689 0 46.514 20.826 46.514 46.515s-20.825 46.514-46.514 46.514c-25.69 0-46.514-20.825-46.514-46.514 0-25.69 20.825-46.515 46.514-46.515z"/>
        <path fill="#75E5AA" d="M179.175 54.487l23.17-16.262c-.106-.01-.209-.031-.317-.031h-45.704c-.144 0-.282.023-.421.042l23.272 16.251"/>
        <path fill="#75E5AA" d="M179.723 57.429a.949.949 0 0 1-1.092.001l-24.637-17.204a3.154 3.154 0 0 0-.844 2.141v28.565a3.174 3.174 0 0 0 3.174 3.174h45.704a3.174 3.174 0 0 0 3.173-3.174V42.367c0-.854-.34-1.625-.889-2.195l-24.59 17.257"/>
        <path fill="#F0F8FD" d="M0 29.622s.311-9.519 6.028-9.605c3.907-.06 4.378 1.998 5.234 1.713 1.554-2.866 4.669-4.247 8.19-4.437.38-3.522 4.092-8.294 9.041-8.224 7.519-.887 9.78 7.047 10.464 7.331 3.236-1.047 7.999-.82 11.235 4.509 8.66-.095 9.654 6.864 9.654 6.864L0 29.622zM206 181.85s.24-7.316 4.633-7.382c3.003-.046 3.365 1.536 4.023 1.317 1.195-2.203 3.589-3.264 6.295-3.41.293-2.708 3.146-6.376 6.95-6.322 5.779-.682 7.516 5.417 8.042 5.635 2.488-.805 6.149-.63 8.636 3.466 6.657-.073 7.421 5.276 7.421 5.276l-46 1.42z"/>
    </g>
</svg>
